<svg width="1320" height="342" viewBox="0 0 1320 342" fill="none" xmlns="http://www.w3.org/2000/svg">
<rect x="0.5" y="0.5" width="1319" height="341" rx="19.5" fill="white" stroke="#D1D5DB"/>
<path d="M616.808 44.564H620.532V57.36H616.808V44.564ZM619.496 49.38H623.976V52.432H619.496V49.38ZM601.156 45.684H604.88V55.736H601.156V45.684ZM601.156 53.608H603.34C606.812 53.608 610.648 53.356 614.708 52.572L615.128 55.596C610.928 56.436 606.98 56.66 603.34 56.66H601.156V53.608ZM603.396 58.424H620.532V65.62H607.176V68.672H603.452V62.848H616.808V61.336H603.396V58.424ZM603.452 67.272H621.288V70.212H603.452V67.272ZM644.218 44.564H647.97V70.492H644.218V44.564ZM629.098 46.608H631.786V50.976C631.786 56.38 631.142 61.952 627.698 64.752L625.318 62.176C628.622 59.6 629.098 55.092 629.098 50.976V46.608ZM629.966 46.608H632.598V50.976C632.598 54.924 633.046 59.656 636.406 62.372L634.39 65.116C630.582 62.232 629.966 56.156 629.966 50.976V46.608ZM636.21 46.608H638.842V50.976C638.842 56.212 638.198 62.26 634.39 65.116L632.374 62.372C635.762 59.684 636.21 54.98 636.21 50.976V46.608ZM637.05 46.608H639.738V50.976C639.738 55.12 640.242 59.628 643.518 62.176L641.278 64.892C637.694 62.092 637.05 56.408 637.05 50.976V46.608ZM672.364 50.836H677.292V53.86H672.364V50.836ZM676.284 44.564H680.008V59.964H676.284V44.564ZM671.216 60.524C676.704 60.524 680.092 62.4 680.092 65.536C680.092 68.7 676.704 70.52 671.216 70.52C665.728 70.52 662.34 68.7 662.34 65.536C662.34 62.4 665.728 60.524 671.216 60.524ZM671.216 63.352C667.856 63.352 666.064 64.052 666.064 65.536C666.064 66.992 667.856 67.692 671.216 67.692C674.604 67.692 676.396 66.992 676.396 65.536C676.396 64.052 674.604 63.352 671.216 63.352ZM664.3 47.168H667.324V48.792C667.324 53.748 665.028 58.284 660.072 59.964L658.168 57.024C662.452 55.568 664.3 52.124 664.3 48.792V47.168ZM665.084 47.168H668.08V48.792C668.08 51.844 669.844 55.008 673.932 56.38L672.112 59.32C667.296 57.724 665.084 53.412 665.084 48.792V47.168ZM659.176 46.132H673.12V49.1H659.176V46.132ZM684.093 64.472H707.557V67.496H684.093V64.472ZM693.921 58.928H697.645V65.2H693.921V58.928ZM686.557 46.216H690.253V50.192H701.313V46.216H705.009V59.712H686.557V46.216ZM690.253 53.104V56.744H701.313V53.104H690.253Z" fill="#111111"/>
<rect x="67" y="134" width="135" height="96" rx="8" fill="#F9FAFB"/>
<ellipse cx="135.003" cy="170.001" rx="23.8933" ry="23.8933" fill="url(#paint0_linear_910_36956)"/>
<path d="M113.609 207.944H115.205V219.092H113.609V207.944ZM106.553 215.204H107.537C109.505 215.204 111.077 215.132 112.841 214.832L112.997 216.116C111.197 216.44 109.565 216.5 107.537 216.5H106.553V215.204ZM106.541 208.892H111.785V213.188H108.173V215.684H106.553V211.928H110.153V210.164H106.541V208.892ZM121.12 208.592H122.512V209.396C122.512 211.808 120.796 213.944 117.916 214.508L117.232 213.188C119.74 212.756 121.12 210.992 121.12 209.396V208.592ZM121.444 208.592H122.824V209.396C122.824 211.028 124.192 212.756 126.712 213.188L126.028 214.508C123.148 213.944 121.444 211.844 121.444 209.396V208.592ZM117.004 216.416H127.06V217.712H117.004V216.416ZM129.171 208.928H136.167V210.2H129.171V208.928ZM128.043 216.452H138.087V217.76H128.043V216.452ZM135.495 208.928H137.067V210.212C137.067 211.832 137.067 213.368 136.551 215.792L134.979 215.648C135.495 213.404 135.495 211.784 135.495 210.212V208.928ZM135.831 211.976V213.152L129.039 213.488L128.847 212.204L135.831 211.976ZM149.081 207.956H150.677V216.032H149.081V207.956ZM150.221 211.136H152.153V212.444H150.221V211.136ZM143.513 217.604H151.073V218.876H143.513V217.604ZM143.513 215.192H145.109V218.168H143.513V215.192ZM145.025 208.664C146.729 208.664 148.049 209.852 148.049 211.496C148.049 213.128 146.729 214.316 145.025 214.316C143.321 214.316 142.001 213.128 142.001 211.496C142.001 209.852 143.321 208.664 145.025 208.664ZM145.025 210.056C144.209 210.056 143.561 210.584 143.561 211.496C143.561 212.396 144.209 212.924 145.025 212.924C145.853 212.924 146.489 212.396 146.489 211.496C146.489 210.584 145.853 210.056 145.025 210.056ZM158.992 210.644H161.104V211.94H158.992V210.644ZM160.672 207.956H162.268V214.556H160.672V207.956ZM158.5 214.796C160.852 214.796 162.304 215.6 162.304 216.944C162.304 218.3 160.852 219.08 158.5 219.08C156.148 219.08 154.696 218.3 154.696 216.944C154.696 215.6 156.148 214.796 158.5 214.796ZM158.5 216.008C157.06 216.008 156.292 216.308 156.292 216.944C156.292 217.568 157.06 217.868 158.5 217.868C159.952 217.868 160.72 217.568 160.72 216.944C160.72 216.308 159.952 216.008 158.5 216.008ZM155.536 209.072H156.832V209.768C156.832 211.892 155.848 213.836 153.724 214.556L152.908 213.296C154.744 212.672 155.536 211.196 155.536 209.768V209.072ZM155.872 209.072H157.156V209.768C157.156 211.076 157.912 212.432 159.664 213.02L158.884 214.28C156.82 213.596 155.872 211.748 155.872 209.768V209.072ZM153.34 208.628H159.316V209.9H153.34V208.628Z" fill="#374151"/>
<path d="M121.553 284.016H122.417C124.705 284.016 125.825 283.984 127.185 283.712L127.329 284.72C125.905 285.024 124.769 285.056 122.417 285.056H121.553V284.016ZM121.521 279.184H126.241V282.512H122.833V284.672H121.553V281.552H124.961V280.208H121.521V279.184ZM126.849 279.184H131.297V285.136H129.985V280.24H126.849V279.184ZM129.969 270.784H131.297V278.432H129.969V270.784ZM130.721 273.984H133.425V275.088H130.721V273.984ZM120.673 271.616H127.313V277.552H120.673V271.616ZM126.017 272.688H121.969V276.496H126.017V272.688ZM141.328 271.104C144.448 271.104 146.416 272.128 146.416 273.84C146.416 275.552 144.448 276.56 141.328 276.56C138.192 276.56 136.24 275.552 136.24 273.84C136.24 272.128 138.192 271.104 141.328 271.104ZM141.328 272.16C139.024 272.16 137.6 272.768 137.6 273.84C137.6 274.896 139.024 275.52 141.328 275.52C143.616 275.52 145.056 274.896 145.056 273.84C145.056 272.768 143.616 272.16 141.328 272.16ZM136.384 280.288H146.256V285.056H136.384V280.288ZM144.96 281.36H137.696V283.984H144.96V281.36ZM134.784 277.808H147.856V278.88H134.784V277.808Z" fill="#111111"/>
<path d="M297.713 271.728H306.753V272.8H297.713V271.728ZM296.081 277.936H309.153V279.024H296.081V277.936ZM301.921 278.656H303.249V285.264H301.921V278.656ZM306.129 271.728H307.425V272.976C307.425 274.48 307.425 276.176 306.881 278.624L305.569 278.448C306.129 276.112 306.129 274.432 306.129 272.976V271.728ZM310.784 278.24H323.904V279.328H310.784V278.24ZM312.448 271.136H322.208V274.56H313.792V276.48H312.48V273.584H320.912V272.176H312.448V271.136ZM312.48 275.968H322.528V277.008H312.48V275.968ZM312.544 280.64H322.224V285.056H312.544V280.64ZM320.928 281.696H313.84V283.984H320.928V281.696Z" fill="#111111"/>
<path d="M471.721 272.992H483.465V274.096H471.721V272.992ZM471.081 282.4H484.185V283.504H471.081V282.4ZM477.593 275.024C480.505 275.024 482.329 276.096 482.329 277.888C482.329 279.68 480.505 280.736 477.593 280.736C474.697 280.736 472.873 279.68 472.873 277.888C472.873 276.096 474.697 275.024 477.593 275.024ZM477.593 276.112C475.513 276.112 474.201 276.784 474.201 277.888C474.201 278.992 475.513 279.664 477.593 279.664C479.689 279.664 481.001 278.992 481.001 277.888C481.001 276.784 479.689 276.112 477.593 276.112ZM476.953 271.04H478.265V273.616H476.953V271.04ZM496.312 270.784H497.656V279.36H496.312V270.784ZM486.536 277.584H487.704C490.328 277.584 492.264 277.504 494.584 277.136L494.728 278.208C492.344 278.608 490.392 278.688 487.704 278.688H486.536V277.584ZM486.504 271.648H493.064V275.6H487.832V278.24H486.536V274.576H491.768V272.736H486.504V271.648ZM488.312 280.16H497.656V285.056H488.312V280.16ZM496.344 281.216H489.608V283.984H496.344V281.216Z" fill="#111111"/>
<path d="M664.437 270.768H665.765V285.264H664.437V270.768ZM654.757 272H656.069V275.824H660.245V272H661.573V281.776H654.757V272ZM656.069 276.88V280.688H660.245V276.88H656.069Z" fill="#111111"/>
<path d="M827.897 274.864H832.057V275.952H827.897V274.864ZM831.641 270.8H832.969V281.504H831.641V270.8ZM823.673 283.84H833.321V284.928H823.673V283.84ZM823.673 280.464H825.001V284.4H823.673V280.464ZM821.785 271.744H823.097V274.304H827.017V271.744H828.313V279.04H821.785V271.744ZM823.097 275.344V277.952H827.017V275.344H823.097ZM846.776 270.784H848.056V285.248H846.776V270.784ZM844.44 276.592H847.208V277.68H844.44V276.592ZM840.696 272.64H841.976C841.976 276.368 840.696 279.824 836.568 282.144L835.784 281.2C839.416 279.168 840.696 276.24 840.696 272.896V272.64ZM836.344 272.64H841.144V273.744H836.344V272.64ZM843.56 271.168H844.824V284.544H843.56V271.168Z" fill="#111111"/>
<path d="M995.641 280.56H996.585C998.873 280.56 1000.23 280.512 1001.85 280.192L1001.99 281.296C1000.31 281.632 998.905 281.68 996.585 281.68H995.641V280.56ZM995.641 272.432H1001.34V273.52H996.905V280.976H995.641V272.432ZM996.521 276.256H1001.11V277.328H996.521V276.256ZM1006.09 270.784H1007.37V285.248H1006.09V270.784ZM1003.8 276.576H1006.57V277.68H1003.8V276.576ZM1002.91 271.088H1004.17V284.528H1002.91V271.088ZM1009.78 277.824H1022.86V278.912H1009.78V277.824ZM1011 271.328H1021.62V272.4H1011V271.328ZM1011.06 275.408H1021.56V276.496H1011.06V275.408ZM1013.19 271.792H1014.52V276.144H1013.19V271.792ZM1018.12 271.792H1019.43V276.144H1018.12V271.792ZM1016.31 280.272C1019.42 280.272 1021.26 281.152 1021.26 282.752C1021.26 284.336 1019.42 285.216 1016.31 285.216C1013.21 285.216 1011.37 284.336 1011.37 282.752C1011.37 281.152 1013.21 280.272 1016.31 280.272ZM1016.31 281.296C1014.04 281.296 1012.71 281.824 1012.71 282.752C1012.71 283.68 1014.04 284.208 1016.31 284.208C1018.58 284.208 1019.91 283.68 1019.91 282.752C1019.91 281.824 1018.58 281.296 1016.31 281.296ZM1015.67 278.32H1016.98V280.688H1015.67V278.32Z" fill="#111111"/>
<path d="M1159.61 279.408H1160.93V281.76H1159.61V279.408ZM1165.69 270.784H1167.01V285.248H1165.69V270.784ZM1166.58 276.928H1169.25V278.048H1166.58V276.928ZM1155.88 282.496L1155.69 281.392C1158.28 281.392 1161.81 281.36 1164.81 280.928L1164.92 281.92C1161.8 282.48 1158.41 282.496 1155.88 282.496ZM1155.93 272.528H1164.58V273.6H1155.93V272.528ZM1160.26 274.448C1162.28 274.448 1163.67 275.504 1163.67 277.12C1163.67 278.752 1162.28 279.792 1160.26 279.792C1158.25 279.792 1156.87 278.752 1156.87 277.12C1156.87 275.504 1158.25 274.448 1160.26 274.448ZM1160.26 275.472C1158.97 275.472 1158.12 276.128 1158.12 277.12C1158.12 278.112 1158.97 278.768 1160.26 278.768C1161.56 278.768 1162.42 278.112 1162.42 277.12C1162.42 276.128 1161.56 275.472 1160.26 275.472ZM1159.61 270.8H1160.93V273.248H1159.61V270.8ZM1174.13 271.664H1175.22V273.44C1175.22 276.272 1173.65 278.528 1171.22 279.472L1170.52 278.416C1172.73 277.632 1174.13 275.68 1174.13 273.44V271.664ZM1174.36 271.664H1175.45V273.488C1175.45 275.456 1176.89 277.312 1179 278.064L1178.34 279.104C1175.96 278.24 1174.36 276.032 1174.36 273.488V271.664ZM1180.47 270.768H1181.8V281.456H1180.47V270.768ZM1181.38 275.216H1183.94V276.32H1181.38V275.216ZM1172.82 283.84H1182.44V284.928H1172.82V283.84ZM1172.82 280.448H1174.15V284.368H1172.82V280.448ZM1186.5 271.312H1197.12V272.4H1186.5V271.312ZM1186.56 275.52H1197.06V276.592H1186.56V275.52ZM1188.69 271.808H1190.02V276.128H1188.69V271.808ZM1193.62 271.808H1194.93V276.128H1193.62V271.808ZM1185.28 278.336H1198.36V279.408H1185.28V278.336ZM1191.17 276.272H1192.48V278.768H1191.17V276.272ZM1186.74 280.848H1196.74V285.248H1195.41V281.92H1186.74V280.848ZM1200.61 271.376H1201.92V273.456H1206V271.376H1207.3V277.696H1200.61V271.376ZM1201.92 274.496V276.624H1206V274.496H1201.92ZM1209.91 270.784H1211.23V278.24H1209.91V270.784ZM1210.66 273.888H1213.36V274.992H1210.66V273.888ZM1202.05 278.944H1211.23V282.448H1203.39V284.624H1202.08V281.456H1209.94V280H1202.05V278.944ZM1202.08 284.032H1211.76V285.088H1202.08V284.032Z" fill="#111111"/>
<rect x="242" y="134" width="135" height="96" rx="8" fill="#F9FAFB"/>
<path fill-rule="evenodd" clip-rule="evenodd" d="M330.781 174.788H330.78V174.789H325.098H323.891H318.209V174.774C316.759 174.63 315.626 173.407 315.626 171.919C315.626 170.334 316.911 169.049 318.496 169.049C318.6 169.049 318.702 169.054 318.802 169.065C319.036 166.373 321.294 164.262 324.046 164.262C326.297 164.262 328.218 165.675 328.97 167.662C329.508 167.369 330.125 167.203 330.781 167.203C332.875 167.203 334.573 168.901 334.573 170.995C334.573 173.09 332.875 174.788 330.781 174.788Z" fill="url(#paint1_linear_910_36956)"/>
<ellipse cx="309.892" cy="165.534" rx="14.1996" ry="14.1996" fill="url(#paint2_linear_910_36956)"/>
<path fill-rule="evenodd" clip-rule="evenodd" d="M316.987 182.079C316.987 185.652 314.091 188.549 310.518 188.549V188.549H300.824H298.767H289.073V188.524C286.599 188.279 284.667 186.191 284.667 183.653C284.667 180.949 286.858 178.757 289.562 178.757C289.739 178.757 289.913 178.766 290.085 178.785C290.483 174.194 294.336 170.592 299.03 170.592C302.869 170.592 306.146 173.002 307.43 176.392C308.347 175.893 309.399 175.609 310.517 175.609C314.091 175.609 316.987 178.506 316.987 182.079Z" fill="url(#paint3_linear_910_36956)"/>
<path d="M276.14 207.944H277.736V219.092H276.14V207.944ZM269.084 215.204H270.068C272.036 215.204 273.608 215.132 275.372 214.832L275.528 216.116C273.728 216.44 272.096 216.5 270.068 216.5H269.084V215.204ZM269.072 208.892H274.316V213.188H270.704V215.684H269.084V211.928H272.684V210.164H269.072V208.892ZM283.651 208.592H285.043V209.396C285.043 211.808 283.327 213.944 280.447 214.508L279.763 213.188C282.271 212.756 283.651 210.992 283.651 209.396V208.592ZM283.975 208.592H285.355V209.396C285.355 211.028 286.723 212.756 289.243 213.188L288.559 214.508C285.679 213.944 283.975 211.844 283.975 209.396V208.592ZM279.535 216.416H289.591V217.712H279.535V216.416ZM291.702 208.928H298.698V210.2H291.702V208.928ZM290.574 216.452H300.618V217.76H290.574V216.452ZM298.026 208.928H299.598V210.212C299.598 211.832 299.598 213.368 299.082 215.792L297.51 215.648C298.026 213.404 298.026 211.784 298.026 210.212V208.928ZM298.362 211.976V213.152L291.57 213.488L291.378 212.204L298.362 211.976ZM312.716 209.396H314.636V210.704H312.716V209.396ZM312.716 211.808H314.636V213.116H312.716V211.808ZM311.612 207.956H313.208V214.508H311.612V207.956ZM305.792 214.964H313.208V219.068H311.612V216.236H305.792V214.964ZM307.556 208.556C309.272 208.556 310.58 209.696 310.58 211.28C310.58 212.864 309.272 213.992 307.556 213.992C305.84 213.992 304.532 212.864 304.532 211.28C304.532 209.696 305.84 208.556 307.556 208.556ZM307.556 209.912C306.716 209.912 306.092 210.404 306.092 211.28C306.092 212.156 306.716 212.66 307.556 212.66C308.396 212.66 309.02 212.156 309.02 211.28C309.02 210.404 308.396 209.912 307.556 209.912ZM322.64 207.956H324.248V215.912H322.64V207.956ZM323.792 211.052H325.724V212.36H323.792V211.052ZM319.544 208.784H321.248C321.248 211.808 319.4 213.884 316.088 214.844L315.416 213.572C318.14 212.828 319.544 211.34 319.544 209.576V208.784ZM315.896 208.784H320.408V210.068H315.896V208.784ZM317.06 217.604H324.62V218.876H317.06V217.604ZM317.06 215.108H318.668V218.168H317.06V215.108ZM331.93 212.456H333.526V214.136H331.93V212.456ZM332.71 208.4C334.318 208.4 335.482 209.324 335.482 210.668C335.482 211.988 334.318 212.912 332.71 212.912C331.102 212.912 329.938 211.988 329.938 210.668C329.938 209.324 331.102 208.4 332.71 208.4ZM332.71 209.6C331.954 209.6 331.426 209.984 331.426 210.668C331.426 211.34 331.954 211.724 332.71 211.724C333.478 211.724 333.994 211.34 333.994 210.668C333.994 209.984 333.478 209.6 332.71 209.6ZM336.622 207.968H338.218V216.44H336.622V207.968ZM337.654 211.448H339.61V212.756H337.654V211.448ZM330.802 217.592H338.59V218.876H330.802V217.592ZM330.802 215.708H332.41V218.144H330.802V215.708ZM329.542 215L329.362 213.728C331.246 213.728 333.85 213.716 336.034 213.404L336.142 214.544C333.898 214.964 331.378 215 329.542 215ZM343.005 214.532H344.601V216.332H343.005V214.532ZM347.673 207.956H349.281V219.068H347.673V207.956ZM348.717 212.468H350.673V213.788H348.717V212.468ZM340.509 217.22L340.317 215.936C342.237 215.936 344.877 215.924 347.121 215.612L347.241 216.764C344.901 217.22 342.381 217.22 340.509 217.22ZM340.521 209.18H347.061V210.428H340.521V209.18ZM343.809 210.872C345.393 210.872 346.521 211.712 346.521 212.948C346.521 214.196 345.393 215.036 343.809 215.036C342.213 215.036 341.097 214.196 341.097 212.948C341.097 211.712 342.213 210.872 343.809 210.872ZM343.809 212.072C343.077 212.072 342.609 212.384 342.609 212.948C342.609 213.524 343.077 213.836 343.809 213.836C344.529 213.836 345.009 213.524 345.009 212.948C345.009 212.384 344.529 212.072 343.809 212.072ZM343.005 208.016H344.601V210.116H343.005V208.016Z" fill="#374151"/>
<rect x="417" y="134" width="135" height="96" rx="8" fill="#F9FAFB"/>
<path fill-rule="evenodd" clip-rule="evenodd" d="M467.985 166.565L468.025 166.565H478.824V166.561C478.878 166.56 478.931 166.558 478.984 166.555V166.565H489.438C489.456 166.565 489.473 166.565 489.491 166.565C489.508 166.565 489.526 166.565 489.543 166.565H489.825V166.555C492.57 166.383 494.743 164.102 494.743 161.313C494.743 158.412 492.392 156.061 489.491 156.061C488.482 156.061 487.54 156.345 486.74 156.838C486.056 152.952 482.664 150 478.583 150C475.041 150 472.018 152.224 470.834 155.351C469.987 154.89 469.017 154.629 467.985 154.629C464.689 154.629 462.017 157.301 462.017 160.597C462.017 163.893 464.689 166.565 467.985 166.565Z" fill="url(#paint4_linear_910_36956)"/>
<path fill-rule="evenodd" clip-rule="evenodd" d="M490.028 177.589C490.07 177.589 490.113 177.589 490.155 177.589H491.939H502.185C502.214 177.589 502.243 177.589 502.272 177.589C506.08 177.589 509.167 174.502 509.167 170.694C509.167 166.885 506.08 163.798 502.272 163.798C501.08 163.798 499.958 164.101 498.98 164.633C497.613 161.02 494.12 158.451 490.028 158.451C485.026 158.451 480.92 162.29 480.495 167.182C480.312 167.162 480.127 167.152 479.938 167.152C477.057 167.152 474.721 169.489 474.721 172.37C474.721 175.075 476.779 177.3 479.415 177.562V177.589H489.748H489.901C489.943 177.589 489.986 177.589 490.028 177.589Z" fill="url(#paint5_linear_910_36956)"/>
<path fill-rule="evenodd" clip-rule="evenodd" d="M476.492 191.187L476.54 191.187H478.698H490.616V191.186C495.009 191.185 498.57 187.624 498.57 183.231C498.57 178.838 495.009 175.277 490.615 175.277C489.241 175.277 487.947 175.626 486.819 176.24C485.241 172.072 481.213 169.109 476.492 169.109C470.721 169.109 465.985 173.538 465.495 179.182C465.284 179.16 465.069 179.148 464.851 179.148C461.527 179.148 458.832 181.843 458.832 185.167C458.832 188.289 461.208 190.855 464.251 191.157V191.187H476.168H476.445L476.492 191.187Z" fill="url(#paint6_linear_910_36956)"/>
<path d="M452.57 207.944H454.166V219.092H452.57V207.944ZM445.514 215.204H446.498C448.466 215.204 450.038 215.132 451.802 214.832L451.958 216.116C450.158 216.44 448.526 216.5 446.498 216.5H445.514V215.204ZM445.502 208.892H450.746V213.188H447.134V215.684H445.514V211.928H449.114V210.164H445.502V208.892ZM460.081 208.592H461.473V209.396C461.473 211.808 459.757 213.944 456.877 214.508L456.193 213.188C458.701 212.756 460.081 210.992 460.081 209.396V208.592ZM460.405 208.592H461.785V209.396C461.785 211.028 463.153 212.756 465.673 213.188L464.989 214.508C462.109 213.944 460.405 211.844 460.405 209.396V208.592ZM455.965 216.416H466.021V217.712H455.965V216.416ZM468.132 208.928H475.128V210.2H468.132V208.928ZM467.004 216.452H477.048V217.76H467.004V216.452ZM474.456 208.928H476.028V210.212C476.028 211.832 476.028 213.368 475.512 215.792L473.94 215.648C474.456 213.404 474.456 211.784 474.456 210.212V208.928ZM474.792 211.976V213.152L468 213.488L467.808 212.204L474.792 211.976ZM486.338 209.816H489.17V211.076H486.338V209.816ZM486.338 212.204H489.218V213.464H486.338V212.204ZM488.594 207.968H490.19V216.164H488.594V207.968ZM482.834 217.604H490.43V218.876H482.834V217.604ZM482.834 215.36H484.442V218.336H482.834V215.36ZM481.358 208.688H482.942V210.38H485.054V208.688H486.614V214.424H481.358V208.688ZM482.942 211.592V213.164H485.054V211.592H482.942ZM494.497 214.532H496.093V216.332H494.497V214.532ZM499.165 207.956H500.773V219.068H499.165V207.956ZM500.209 212.468H502.165V213.788H500.209V212.468ZM492.001 217.22L491.809 215.936C493.729 215.936 496.369 215.924 498.613 215.612L498.733 216.764C496.393 217.22 493.873 217.22 492.001 217.22ZM492.013 209.18H498.553V210.428H492.013V209.18ZM495.301 210.872C496.885 210.872 498.013 211.712 498.013 212.948C498.013 214.196 496.885 215.036 495.301 215.036C493.705 215.036 492.589 214.196 492.589 212.948C492.589 211.712 493.705 210.872 495.301 210.872ZM495.301 212.072C494.569 212.072 494.101 212.384 494.101 212.948C494.101 213.524 494.569 213.836 495.301 213.836C496.021 213.836 496.501 213.524 496.501 212.948C496.501 212.384 496.021 212.072 495.301 212.072ZM494.497 208.016H496.093V210.116H494.497V208.016ZM504.192 214.46H505.668V215.552H506.772V214.46H508.248V218.948H504.192V214.46ZM505.668 216.704V217.748H506.772V216.704H505.668ZM509.964 214.376H511.176V215.204C511.176 216.836 510.516 218.42 508.872 219.056L508.092 217.868C509.424 217.316 509.964 216.248 509.964 215.204V214.376ZM510.336 214.376H511.548V215.204C511.548 216.356 512.076 217.412 513.432 217.868L512.64 219.056C510.96 218.456 510.336 216.956 510.336 215.204V214.376ZM508.584 210.332H511.368V211.628H508.584V210.332ZM506.04 208.376C507.708 208.376 508.968 209.456 508.968 210.992C508.968 212.528 507.708 213.62 506.04 213.62C504.36 213.62 503.1 212.528 503.1 210.992C503.1 209.456 504.36 208.376 506.04 208.376ZM506.04 209.684C505.224 209.684 504.624 210.176 504.624 210.992C504.624 211.808 505.224 212.312 506.04 212.312C506.856 212.312 507.444 211.808 507.444 210.992C507.444 210.176 506.856 209.684 506.04 209.684ZM510.672 207.956H512.268V213.836H510.672V207.956ZM519.035 208.16C521.483 208.16 523.055 208.988 523.055 210.332C523.055 211.676 521.483 212.492 519.035 212.492C516.587 212.492 515.015 211.676 515.015 210.332C515.015 208.988 516.587 208.16 519.035 208.16ZM519.035 209.396C517.511 209.396 516.659 209.696 516.659 210.332C516.659 210.956 517.511 211.268 519.035 211.268C520.547 211.268 521.411 210.956 521.411 210.332C521.411 209.696 520.547 209.396 519.035 209.396ZM515.171 215.156H522.851V218.948H515.171V215.156ZM521.291 216.416H516.743V217.688H521.291V216.416ZM514.007 213.128H524.051V214.388H514.007V213.128Z" fill="#374151"/>
<rect x="592" y="134" width="135" height="96" rx="8" fill="#F9FAFB"/>
<path fill-rule="evenodd" clip-rule="evenodd" d="M638.336 177.986C639.114 177.208 640.376 177.208 641.153 177.986L648.626 185.458C649.404 186.236 649.404 187.498 648.626 188.276C647.848 189.054 646.587 189.054 645.809 188.276L638.336 180.803C637.558 180.025 637.558 178.764 638.336 177.986Z" fill="url(#paint7_linear_910_36956)"/>
<path fill-rule="evenodd" clip-rule="evenodd" d="M648.796 177.986C649.574 177.208 650.835 177.208 651.613 177.986L659.085 185.458C659.863 186.236 659.863 187.498 659.085 188.276C658.308 189.054 657.046 189.054 656.268 188.276L648.796 180.803C648.018 180.025 648.018 178.764 648.796 177.986Z" fill="url(#paint8_linear_910_36956)"/>
<path fill-rule="evenodd" clip-rule="evenodd" d="M659.256 177.986C660.034 177.208 661.295 177.208 662.073 177.986L669.546 185.458C670.324 186.236 670.324 187.498 669.546 188.276C668.768 189.054 667.507 189.054 666.729 188.276L659.256 180.803C658.478 180.025 658.478 178.764 659.256 177.986Z" fill="url(#paint9_linear_910_36956)"/>
<path fill-rule="evenodd" clip-rule="evenodd" d="M669.717 177.986C670.495 177.208 671.756 177.208 672.534 177.986L680.007 185.458C680.785 186.236 680.785 187.498 680.007 188.276C679.229 189.054 677.968 189.054 677.19 188.276L669.717 180.803C668.939 180.025 668.939 178.764 669.717 177.986Z" fill="url(#paint10_linear_910_36956)"/>
<path fill-rule="evenodd" clip-rule="evenodd" d="M662.497 172.724L662.571 172.724H664.634H676.181V172.724H676.181C680.437 172.724 683.888 169.273 683.888 165.017C683.888 160.761 680.437 157.31 676.181 157.31C674.849 157.31 673.596 157.648 672.502 158.243C670.974 154.205 667.071 151.334 662.497 151.334C656.905 151.334 652.316 155.625 651.842 161.094C651.638 161.072 651.43 161.061 651.22 161.061C647.999 161.061 645.388 163.672 645.388 166.892C645.388 169.916 647.689 172.402 650.636 172.695V172.724H651.147C651.171 172.724 651.195 172.724 651.22 172.724C651.244 172.724 651.269 172.724 651.293 172.724H662.183H662.423L662.497 172.724Z" fill="url(#paint11_linear_910_36956)"/>
<path fill-rule="evenodd" clip-rule="evenodd" d="M651.209 172.724L651.283 172.724H653.346H664.893V172.724H664.893C669.149 172.724 672.6 169.273 672.6 165.017C672.6 160.761 669.149 157.31 664.893 157.31C663.561 157.31 662.308 157.648 661.214 158.243C659.686 154.205 655.783 151.334 651.209 151.334C645.617 151.334 641.028 155.625 640.554 161.094C640.35 161.072 640.142 161.061 639.932 161.061C636.711 161.061 634.1 163.672 634.1 166.892C634.1 169.916 636.401 172.402 639.348 172.695V172.724H639.859C639.883 172.724 639.907 172.724 639.932 172.724C639.956 172.724 639.981 172.724 640.005 172.724H650.895H651.135L651.209 172.724Z" fill="url(#paint12_linear_910_36956)"/>
<path d="M626.14 207.944H627.736V219.092H626.14V207.944ZM619.084 215.204H620.068C622.036 215.204 623.608 215.132 625.372 214.832L625.528 216.116C623.728 216.44 622.096 216.5 620.068 216.5H619.084V215.204ZM619.072 208.892H624.316V213.188H620.704V215.684H619.084V211.928H622.684V210.164H619.072V208.892ZM633.651 208.592H635.043V209.396C635.043 211.808 633.327 213.944 630.447 214.508L629.763 213.188C632.271 212.756 633.651 210.992 633.651 209.396V208.592ZM633.975 208.592H635.355V209.396C635.355 211.028 636.723 212.756 639.243 213.188L638.559 214.508C635.679 213.944 633.975 211.844 633.975 209.396V208.592ZM629.535 216.416H639.591V217.712H629.535V216.416ZM641.702 208.928H648.698V210.2H641.702V208.928ZM640.574 216.452H650.618V217.76H640.574V216.452ZM648.026 208.928H649.598V210.212C649.598 211.832 649.598 213.368 649.082 215.792L647.51 215.648C648.026 213.404 648.026 211.784 648.026 210.212V208.928ZM648.362 211.976V213.152L641.57 213.488L641.378 212.204L648.362 211.976ZM662.716 209.396H664.636V210.704H662.716V209.396ZM662.716 211.808H664.636V213.116H662.716V211.808ZM661.612 207.956H663.208V214.508H661.612V207.956ZM655.792 214.964H663.208V219.068H661.612V216.236H655.792V214.964ZM657.556 208.556C659.272 208.556 660.58 209.696 660.58 211.28C660.58 212.864 659.272 213.992 657.556 213.992C655.84 213.992 654.532 212.864 654.532 211.28C654.532 209.696 655.84 208.556 657.556 208.556ZM657.556 209.912C656.716 209.912 656.092 210.404 656.092 211.28C656.092 212.156 656.716 212.66 657.556 212.66C658.396 212.66 659.02 212.156 659.02 211.28C659.02 210.404 658.396 209.912 657.556 209.912ZM672.64 207.956H674.248V215.912H672.64V207.956ZM673.792 211.052H675.724V212.36H673.792V211.052ZM669.544 208.784H671.248C671.248 211.808 669.4 213.884 666.088 214.844L665.416 213.572C668.14 212.828 669.544 211.34 669.544 209.576V208.784ZM665.896 208.784H670.408V210.068H665.896V208.784ZM667.06 217.604H674.62V218.876H667.06V217.604ZM667.06 215.108H668.668V218.168H667.06V215.108ZM681.834 208.556H683.142V209.54C683.142 211.748 682.182 213.692 680.07 214.424L679.218 213.164C681.078 212.54 681.834 211.052 681.834 209.54V208.556ZM682.158 208.556H683.454V209.696C683.454 211.028 684.198 212.324 685.938 212.864L685.11 214.1C683.106 213.428 682.158 211.7 682.158 209.696V208.556ZM686.55 207.956H688.146V214.52H686.55V207.956ZM687.702 210.524H689.622V211.844H687.702V210.524ZM684.522 214.772C686.826 214.772 688.278 215.576 688.278 216.92C688.278 218.276 686.826 219.068 684.522 219.068C682.206 219.068 680.754 218.276 680.754 216.92C680.754 215.576 682.206 214.772 684.522 214.772ZM684.522 216.008C683.106 216.008 682.338 216.308 682.338 216.92C682.338 217.544 683.106 217.832 684.522 217.832C685.938 217.832 686.694 217.544 686.694 216.92C686.694 216.308 685.938 216.008 684.522 216.008ZM694.649 208.136H696.017V208.472C696.017 210.452 694.373 212.072 691.517 212.468L690.929 211.22C693.425 210.92 694.649 209.636 694.649 208.472V208.136ZM694.913 208.136H696.281V208.472C696.281 209.636 697.505 210.92 699.989 211.22L699.413 212.468C696.557 212.072 694.913 210.44 694.913 208.472V208.136ZM690.437 213.056H700.481V214.316H690.437V213.056ZM695.441 215.048C697.841 215.048 699.293 215.78 699.293 217.064C699.293 218.36 697.841 219.08 695.441 219.08C693.029 219.08 691.577 218.36 691.577 217.064C691.577 215.78 693.029 215.048 695.441 215.048ZM695.441 216.248C693.953 216.248 693.197 216.512 693.197 217.064C693.197 217.628 693.953 217.88 695.441 217.88C696.929 217.88 697.685 217.628 697.685 217.064C697.685 216.512 696.929 216.248 695.441 216.248Z" fill="#374151"/>
<rect x="767" y="134" width="135" height="96" rx="8" fill="#F9FAFB"/>
<path fill-rule="evenodd" clip-rule="evenodd" d="M838.564 170.414C838.595 170.414 838.626 170.414 838.657 170.414H840.735H852.45L852.475 170.414C856.802 170.414 860.31 166.905 860.31 162.578C860.31 158.25 856.802 154.742 852.475 154.742C851.121 154.742 849.847 155.086 848.736 155.69C847.182 151.585 843.213 148.666 838.564 148.666C832.879 148.666 828.212 153.029 827.731 158.589C827.522 158.567 827.311 158.555 827.096 158.555C823.822 158.555 821.167 161.21 821.167 164.485C821.167 167.559 823.507 170.087 826.503 170.385V170.414H827.023C827.047 170.414 827.072 170.414 827.096 170.414C827.121 170.414 827.145 170.414 827.169 170.414H838.241H838.47C838.49 170.414 838.509 170.414 838.529 170.414C838.54 170.414 838.552 170.414 838.564 170.414Z" fill="url(#paint13_linear_910_36956)"/>
<path fill-rule="evenodd" clip-rule="evenodd" d="M827.086 170.414C827.117 170.414 827.148 170.414 827.179 170.414H829.257H840.972L840.997 170.414C845.324 170.414 848.832 166.905 848.832 162.578C848.832 158.25 845.324 154.742 840.997 154.742C839.643 154.742 838.369 155.086 837.258 155.69C835.704 151.585 831.735 148.666 827.086 148.666C821.4 148.666 816.734 153.029 816.253 158.589C816.044 158.567 815.833 158.555 815.618 158.555C812.344 158.555 809.689 161.21 809.689 164.485C809.689 167.559 812.029 170.087 815.025 170.385V170.414H815.545C815.569 170.414 815.594 170.414 815.618 170.414C815.643 170.414 815.667 170.414 815.691 170.414H826.765H826.992C827.012 170.414 827.031 170.414 827.051 170.414C827.062 170.414 827.074 170.414 827.086 170.414Z" fill="url(#paint14_linear_910_36956)"/>
<path fill-rule="evenodd" clip-rule="evenodd" d="M826.56 166.983C825.173 165.596 823.012 165.508 821.733 166.787C820.454 168.066 820.542 170.227 821.929 171.614L824.88 174.565C823.761 174.264 822.562 174.519 821.733 175.348C820.454 176.626 820.542 178.788 821.929 180.175L829.625 187.871C831.012 189.258 833.173 189.346 834.452 188.067C835.731 186.788 835.643 184.627 834.256 183.24L831.305 180.289C832.424 180.59 833.623 180.335 834.452 179.506C835.731 178.228 835.643 176.066 834.256 174.679L826.56 166.983Z" fill="url(#paint15_linear_910_36956)"/>
<path fill-rule="evenodd" clip-rule="evenodd" d="M843.099 175.203C842.087 174.19 840.446 174.19 839.433 175.203C838.421 176.215 838.421 177.857 839.433 178.869L841.741 181.177C840.93 181.026 840.061 181.265 839.433 181.893C838.421 182.905 838.421 184.546 839.433 185.559L845.05 191.176C846.063 192.188 847.704 192.188 848.716 191.176C849.729 190.163 849.729 188.522 848.716 187.51L846.409 185.202C847.22 185.352 848.089 185.113 848.716 184.486C849.729 183.474 849.729 181.832 848.716 180.82L843.099 175.203Z" fill="url(#paint16_linear_910_36956)"/>
<path d="M813.609 207.944H815.205V219.092H813.609V207.944ZM806.553 215.204H807.537C809.505 215.204 811.077 215.132 812.841 214.832L812.997 216.116C811.197 216.44 809.565 216.5 807.537 216.5H806.553V215.204ZM806.541 208.892H811.785V213.188H808.173V215.684H806.553V211.928H810.153V210.164H806.541V208.892ZM821.12 208.592H822.512V209.396C822.512 211.808 820.796 213.944 817.916 214.508L817.232 213.188C819.74 212.756 821.12 210.992 821.12 209.396V208.592ZM821.444 208.592H822.824V209.396C822.824 211.028 824.192 212.756 826.712 213.188L826.028 214.508C823.148 213.944 821.444 211.844 821.444 209.396V208.592ZM817.004 216.416H827.06V217.712H817.004V216.416ZM829.171 208.928H836.167V210.2H829.171V208.928ZM828.043 216.452H838.087V217.76H828.043V216.452ZM835.495 208.928H837.067V210.212C837.067 211.832 837.067 213.368 836.551 215.792L834.979 215.648C835.495 213.404 835.495 211.784 835.495 210.212V208.928ZM835.831 211.976V213.152L829.039 213.488L828.847 212.204L835.831 211.976ZM844.365 208.556H845.673V209.54C845.673 211.748 844.713 213.692 842.601 214.424L841.749 213.164C843.609 212.54 844.365 211.052 844.365 209.54V208.556ZM844.689 208.556H845.985V209.696C845.985 211.028 846.729 212.324 848.469 212.864L847.641 214.1C845.637 213.428 844.689 211.7 844.689 209.696V208.556ZM849.081 207.956H850.677V214.52H849.081V207.956ZM850.233 210.524H852.153V211.844H850.233V210.524ZM847.053 214.772C849.357 214.772 850.809 215.576 850.809 216.92C850.809 218.276 849.357 219.068 847.053 219.068C844.737 219.068 843.285 218.276 843.285 216.92C843.285 215.576 844.737 214.772 847.053 214.772ZM847.053 216.008C845.637 216.008 844.869 216.308 844.869 216.92C844.869 217.544 845.637 217.832 847.053 217.832C848.469 217.832 849.225 217.544 849.225 216.92C849.225 216.308 848.469 216.008 847.053 216.008ZM857.18 208.136H858.548V208.472C858.548 210.452 856.904 212.072 854.048 212.468L853.46 211.22C855.956 210.92 857.18 209.636 857.18 208.472V208.136ZM857.444 208.136H858.812V208.472C858.812 209.636 860.036 210.92 862.52 211.22L861.944 212.468C859.088 212.072 857.444 210.44 857.444 208.472V208.136ZM852.968 213.056H863.012V214.316H852.968V213.056ZM857.972 215.048C860.372 215.048 861.824 215.78 861.824 217.064C861.824 218.36 860.372 219.08 857.972 219.08C855.56 219.08 854.108 218.36 854.108 217.064C854.108 215.78 855.56 215.048 857.972 215.048ZM857.972 216.248C856.484 216.248 855.728 216.512 855.728 217.064C855.728 217.628 856.484 217.88 857.972 217.88C859.46 217.88 860.216 217.628 860.216 217.064C860.216 216.512 859.46 216.248 857.972 216.248Z" fill="#374151"/>
<rect x="942" y="134" width="135" height="96" rx="8" fill="#F9FAFB"/>
<path d="M1011.42 194.001C1015.37 191.072 1012.11 189.348 1010.73 189.004L1017.25 183.145C1020.68 188.659 1017.08 194.001 1011.42 194.001Z" fill="url(#paint17_linear_910_36956)"/>
<ellipse cx="7.3257" cy="5.84146" rx="7.3257" ry="5.84146" transform="matrix(0.566552 -0.824026 0.821454 0.570275 1002.95 184.867)" fill="url(#paint18_linear_910_36956)"/>
<ellipse cx="11.8442" cy="6.02578" rx="11.8442" ry="6.02578" transform="matrix(0.89708 -0.441868 0.438435 0.898763 996.091 176.033)" fill="url(#paint19_linear_910_36956)"/>
<ellipse cx="17.6691" cy="8.78605" rx="17.6691" ry="8.78605" transform="matrix(0.968859 -0.247614 0.245374 0.969429 988.307 162.975)" fill="url(#paint20_linear_910_36956)"/>
<ellipse cx="23.1552" cy="12.4056" rx="23.1552" ry="12.4056" transform="matrix(0.984067 0.177798 -0.176139 0.984365 991.096 142)" fill="url(#paint21_linear_910_36956)"/>
<ellipse cx="16.7333" cy="6.50916" rx="16.7333" ry="6.50916" transform="matrix(0.973807 0.227376 -0.225298 0.97429 998.918 143.854)" fill="url(#paint22_linear_910_36956)"/>
<path d="M987.737 168.324C985.679 172.173 984.821 181.421 1005.23 178.319C994.254 181.593 977.79 182.972 987.737 168.324Z" fill="#8F959C"/>
<path d="M1020.34 177.975C1023.77 182.627 1022.94 185.591 1016.91 188.486C1021.19 187.567 1029.77 185.04 1020.34 177.975Z" fill="#8F959C"/>
<path d="M970.62 207.944H972.216V219.092H970.62V207.944ZM963.564 215.204H964.548C966.516 215.204 968.088 215.132 969.852 214.832L970.008 216.116C968.208 216.44 966.576 216.5 964.548 216.5H963.564V215.204ZM963.552 208.892H968.796V213.188H965.184V215.684H963.564V211.928H967.164V210.164H963.552V208.892ZM978.131 208.592H979.523V209.396C979.523 211.808 977.807 213.944 974.927 214.508L974.243 213.188C976.751 212.756 978.131 210.992 978.131 209.396V208.592ZM978.455 208.592H979.835V209.396C979.835 211.028 981.203 212.756 983.723 213.188L983.039 214.508C980.159 213.944 978.455 211.844 978.455 209.396V208.592ZM974.015 216.416H984.071V217.712H974.015V216.416ZM986.183 208.928H993.179V210.2H986.183V208.928ZM985.055 216.452H995.099V217.76H985.055V216.452ZM992.507 208.928H994.079V210.212C994.079 211.832 994.079 213.368 993.563 215.792L991.991 215.648C992.507 213.404 992.507 211.784 992.507 210.212V208.928ZM992.843 211.976V213.152L986.051 213.488L985.859 212.204L992.843 211.976ZM1000.14 214.28H1001.71V215.444H1006.21V214.28H1007.8V218.948H1000.14V214.28ZM1001.71 216.668V217.676H1006.21V216.668H1001.71ZM1000.18 208.4H1007.22V209.672H1000.18V208.4ZM998.953 212.288H1009.01V213.572H998.953V212.288ZM1006.26 208.4H1007.83V209.288C1007.83 210.212 1007.83 211.172 1007.52 212.564L1005.91 212.672C1006.26 211.244 1006.26 210.224 1006.26 209.288V208.4ZM1014.2 208.652H1015.87C1015.87 211.64 1014.02 213.668 1010.7 214.544L1010.1 213.296C1012.82 212.588 1014.2 211.148 1014.2 209.444V208.652ZM1010.72 208.652H1015.24V209.924H1010.72V208.652ZM1011.71 215.024H1019.28V219.032H1017.68V216.272H1011.71V215.024ZM1017.68 207.956H1019.28V214.556H1017.68V207.956ZM1015.34 209.744H1017.95V211.004H1015.34V209.744ZM1015.24 212.108H1017.85V213.38H1015.24V212.108ZM1028.64 207.956H1030.25V219.068H1028.64V207.956ZM1021.26 209.624H1027.84V210.884H1021.26V209.624ZM1024.56 211.496C1026.2 211.496 1027.42 212.6 1027.42 214.148C1027.42 215.696 1026.2 216.8 1024.56 216.8C1022.92 216.8 1021.72 215.696 1021.72 214.148C1021.72 212.6 1022.92 211.496 1024.56 211.496ZM1024.56 212.792C1023.79 212.792 1023.24 213.296 1023.24 214.148C1023.24 215 1023.79 215.504 1024.56 215.504C1025.33 215.504 1025.88 215 1025.88 214.148C1025.88 213.296 1025.33 212.792 1024.56 212.792ZM1023.74 208.112H1025.35V210.404H1023.74V208.112ZM1037.35 208.556H1038.66V209.54C1038.66 211.748 1037.7 213.692 1035.59 214.424L1034.74 213.164C1036.6 212.54 1037.35 211.052 1037.35 209.54V208.556ZM1037.68 208.556H1038.97V209.696C1038.97 211.028 1039.72 212.324 1041.46 212.864L1040.63 214.1C1038.63 213.428 1037.68 211.7 1037.68 209.696V208.556ZM1042.07 207.956H1043.67V214.52H1042.07V207.956ZM1043.22 210.524H1045.14V211.844H1043.22V210.524ZM1040.04 214.772C1042.35 214.772 1043.8 215.576 1043.8 216.92C1043.8 218.276 1042.35 219.068 1040.04 219.068C1037.73 219.068 1036.27 218.276 1036.27 216.92C1036.27 215.576 1037.73 214.772 1040.04 214.772ZM1040.04 216.008C1038.63 216.008 1037.86 216.308 1037.86 216.92C1037.86 217.544 1038.63 217.832 1040.04 217.832C1041.46 217.832 1042.21 217.544 1042.21 216.92C1042.21 216.308 1041.46 216.008 1040.04 216.008ZM1050.17 208.136H1051.54V208.472C1051.54 210.452 1049.89 212.072 1047.04 212.468L1046.45 211.22C1048.94 210.92 1050.17 209.636 1050.17 208.472V208.136ZM1050.43 208.136H1051.8V208.472C1051.8 209.636 1053.02 210.92 1055.51 211.22L1054.93 212.468C1052.08 212.072 1050.43 210.44 1050.43 208.472V208.136ZM1045.96 213.056H1056V214.316H1045.96V213.056ZM1050.96 215.048C1053.36 215.048 1054.81 215.78 1054.81 217.064C1054.81 218.36 1053.36 219.08 1050.96 219.08C1048.55 219.08 1047.1 218.36 1047.1 217.064C1047.1 215.78 1048.55 215.048 1050.96 215.048ZM1050.96 216.248C1049.47 216.248 1048.72 216.512 1048.72 217.064C1048.72 217.628 1049.47 217.88 1050.96 217.88C1052.45 217.88 1053.2 217.628 1053.2 217.064C1053.2 216.512 1052.45 216.248 1050.96 216.248Z" fill="#374151"/>
<rect x="1117" y="134" width="135" height="96" rx="8" fill="#F9FAFB"/>
<path d="M1168.67 156.872C1168.67 160.371 1171.41 163.223 1174.85 163.36V163.365H1176.03C1179.57 163.365 1182.61 165.864 1183.3 169.332H1188.43C1189.11 165.864 1192.16 163.365 1195.69 163.365H1197C1200.13 163.365 1202.66 160.807 1202.66 157.651C1202.66 154.496 1200.13 151.938 1197 151.938C1196.58 151.938 1196.16 151.984 1195.77 152.073C1194.88 147.842 1191.16 144.666 1186.7 144.666C1182.61 144.666 1179.14 147.328 1177.91 151.025C1177.06 150.611 1176.11 150.379 1175.1 150.379C1171.55 150.379 1168.67 153.286 1168.67 156.872Z" fill="url(#paint23_linear_910_36956)"/>
<path d="M1177.74 169.498C1178.05 168.753 1178.78 168.268 1179.59 168.268H1191.74C1192.55 168.268 1193.28 168.753 1193.59 169.498L1202.43 190.719C1203.34 192.914 1201.73 195.334 1199.35 195.334H1171.98C1169.6 195.334 1167.98 192.914 1168.9 190.719L1177.74 169.498Z" fill="#101213"/>
<path d="M1177.99 167.331L1176.12 172.952L1172.28 179.473C1171.97 180.002 1172.16 180.678 1172.69 180.984C1173.23 181.289 1173.92 181.108 1174.23 180.579L1176.49 176.743C1176.91 176.03 1177.81 175.788 1178.56 176.129C1179.29 176.456 1179.71 177.249 1179.5 178.014L1177.56 185.112C1177.28 186.167 1177.91 187.25 1178.99 187.533C1180.06 187.815 1181.16 187.189 1181.45 186.135L1183.27 179.475C1183.57 178.376 1184.63 177.675 1185.77 177.675C1187.65 177.675 1189.47 177.378 1191.16 176.828C1192.85 176.284 1194.78 176.767 1195.71 178.272L1197.11 180.543C1197.43 181.065 1198.12 181.233 1198.65 180.916C1199.19 180.6 1199.36 179.92 1199.03 179.397L1195.84 174.212L1193.56 167.36C1193.29 166.551 1192.35 166.166 1191.57 166.547L1190.11 167.262C1189.72 167.454 1189.26 167.458 1188.87 167.274L1187.8 166.774C1186.52 166.174 1185.02 166.188 1183.75 166.812L1182.84 167.262C1182.45 167.454 1181.99 167.458 1181.59 167.274L1179.95 166.505C1179.17 166.144 1178.25 166.531 1177.99 167.331Z" fill="url(#paint24_linear_910_36956)"/>
<path d="M1164.61 207.944H1166.2V219.092H1164.61V207.944ZM1157.55 215.204H1158.54C1160.5 215.204 1162.08 215.132 1163.84 214.832L1164 216.116C1162.2 216.44 1160.56 216.5 1158.54 216.5H1157.55V215.204ZM1157.54 208.892H1162.78V213.188H1159.17V215.684H1157.55V211.928H1161.15V210.164H1157.54V208.892ZM1172.12 208.592H1173.51V209.396C1173.51 211.808 1171.8 213.944 1168.92 214.508L1168.23 213.188C1170.74 212.756 1172.12 210.992 1172.12 209.396V208.592ZM1172.44 208.592H1173.82V209.396C1173.82 211.028 1175.19 212.756 1177.71 213.188L1177.03 214.508C1174.15 213.944 1172.44 211.844 1172.44 209.396V208.592ZM1168 216.416H1178.06V217.712H1168V216.416ZM1180.17 208.928H1187.17V210.2H1180.17V208.928ZM1179.04 216.452H1189.09V217.76H1179.04V216.452ZM1186.49 208.928H1188.07V210.212C1188.07 211.832 1188.07 213.368 1187.55 215.792L1185.98 215.648C1186.49 213.404 1186.49 211.784 1186.49 210.212V208.928ZM1186.83 211.976V213.152L1180.04 213.488L1179.85 212.204L1186.83 211.976ZM1193.81 208.316H1202.09V209.588H1193.81V208.316ZM1193.89 211.388H1202V212.636H1193.89V211.388ZM1195.22 208.808H1196.82V212.096H1195.22V208.808ZM1199.07 208.808H1200.67V212.096H1199.07V208.808ZM1192.93 213.584H1202.97V214.844H1192.93V213.584ZM1197.14 212.336H1198.74V214.016H1197.14V212.336ZM1194.05 215.6H1201.76V219.068H1200.17V216.86H1194.05V215.6ZM1204.29 208.448H1205.88V209.756H1208.05V208.448H1209.63V213.308H1204.29V208.448ZM1205.88 210.956V212.06H1208.05V210.956H1205.88ZM1211.12 207.956H1212.72V213.596H1211.12V207.956ZM1212.07 210.092H1214.18V211.388H1212.07V210.092ZM1205.37 214.028H1212.72V217.052H1206.98V218.372H1205.4V215.912H1211.14V215.252H1205.37V214.028ZM1205.4 217.76H1213.04V218.996H1205.4V217.76Z" fill="#374151"/>
<defs>
<linearGradient id="paint0_linear_910_36956" x1="135.216" y1="141.841" x2="152.923" y2="190.054" gradientUnits="userSpaceOnUse">
<stop stop-color="#FFF500"/>
<stop offset="1" stop-color="#FCA600"/>
</linearGradient>
<linearGradient id="paint1_linear_910_36956" x1="329.938" y1="163.528" x2="314.402" y2="177.06" gradientUnits="userSpaceOnUse">
<stop stop-color="#C1E6FF"/>
<stop offset="1" stop-color="#40B1FF"/>
</linearGradient>
<linearGradient id="paint2_linear_910_36956" x1="309.224" y1="153.339" x2="309.224" y2="172.55" gradientUnits="userSpaceOnUse">
<stop stop-color="#FFF500"/>
<stop offset="1" stop-color="#FCA600"/>
</linearGradient>
<linearGradient id="paint3_linear_910_36956" x1="304.379" y1="172.215" x2="300.704" y2="192.93" gradientUnits="userSpaceOnUse">
<stop stop-color="#C1E6FF"/>
<stop offset="1" stop-color="#40B1FF"/>
</linearGradient>
<linearGradient id="paint4_linear_910_36956" x1="472.083" y1="144.982" x2="480.767" y2="161.965" gradientUnits="userSpaceOnUse">
<stop stop-color="#EEF7FE"/>
<stop offset="1" stop-color="#C4D0DC"/>
</linearGradient>
<linearGradient id="paint5_linear_910_36956" x1="488.074" y1="159.465" x2="490.778" y2="172.481" gradientUnits="userSpaceOnUse">
<stop stop-color="#EEF7FE"/>
<stop offset="1" stop-color="#C4D0DC"/>
</linearGradient>
<linearGradient id="paint6_linear_910_36956" x1="478.701" y1="169.109" x2="478.701" y2="191.187" gradientUnits="userSpaceOnUse">
<stop stop-color="#EEF7FE"/>
<stop offset="1" stop-color="#C4D0DC"/>
</linearGradient>
<linearGradient id="paint7_linear_910_36956" x1="639.862" y1="179.277" x2="647.335" y2="186.75" gradientUnits="userSpaceOnUse">
<stop stop-color="#7DCAFF"/>
<stop offset="1" stop-color="#0198FF"/>
</linearGradient>
<linearGradient id="paint8_linear_910_36956" x1="650.322" y1="179.277" x2="657.794" y2="186.75" gradientUnits="userSpaceOnUse">
<stop stop-color="#7DCAFF"/>
<stop offset="1" stop-color="#0198FF"/>
</linearGradient>
<linearGradient id="paint9_linear_910_36956" x1="660.782" y1="179.277" x2="668.255" y2="186.75" gradientUnits="userSpaceOnUse">
<stop stop-color="#7DCAFF"/>
<stop offset="1" stop-color="#0198FF"/>
</linearGradient>
<linearGradient id="paint10_linear_910_36956" x1="671.243" y1="179.277" x2="678.716" y2="186.75" gradientUnits="userSpaceOnUse">
<stop stop-color="#7DCAFF"/>
<stop offset="1" stop-color="#0198FF"/>
</linearGradient>
<linearGradient id="paint11_linear_910_36956" x1="684.897" y1="161.958" x2="671.284" y2="164.614" gradientUnits="userSpaceOnUse">
<stop stop-color="#BEC5CB"/>
<stop offset="1" stop-color="#8F959C"/>
</linearGradient>
<linearGradient id="paint12_linear_910_36956" x1="655.846" y1="149.342" x2="653.356" y2="172.582" gradientUnits="userSpaceOnUse">
<stop stop-color="#E1E5E9"/>
<stop offset="1" stop-color="#8F959C"/>
</linearGradient>
<linearGradient id="paint13_linear_910_36956" x1="861.336" y1="159.468" x2="847.496" y2="162.168" gradientUnits="userSpaceOnUse">
<stop stop-color="#BEC5CB"/>
<stop offset="1" stop-color="#8F959C"/>
</linearGradient>
<linearGradient id="paint14_linear_910_36956" x1="831.799" y1="146.641" x2="829.267" y2="170.27" gradientUnits="userSpaceOnUse">
<stop stop-color="#E1E5E9"/>
<stop offset="1" stop-color="#8F959C"/>
</linearGradient>
<linearGradient id="paint15_linear_910_36956" x1="828.211" y1="167.631" x2="828.638" y2="190.409" gradientUnits="userSpaceOnUse">
<stop stop-color="#FAFF00"/>
<stop offset="1" stop-color="#FCA600"/>
</linearGradient>
<linearGradient id="paint16_linear_910_36956" x1="844.075" y1="174.443" x2="845.479" y2="191.17" gradientUnits="userSpaceOnUse">
<stop stop-color="#FAFF00"/>
<stop offset="1" stop-color="#FCA600"/>
</linearGradient>
<linearGradient id="paint17_linear_910_36956" x1="1014.66" y1="183.145" x2="1014.66" y2="194.001" gradientUnits="userSpaceOnUse">
<stop stop-color="#E1E5E9"/>
<stop offset="1" stop-color="#8F959C"/>
</linearGradient>
<linearGradient id="paint18_linear_910_36956" x1="7.3257" y1="0" x2="6.87099" y2="12.364" gradientUnits="userSpaceOnUse">
<stop stop-color="#E1E5E9"/>
<stop offset="1" stop-color="#8F959C"/>
</linearGradient>
<linearGradient id="paint19_linear_910_36956" x1="11.8442" y1="0" x2="11.5447" y2="12.7643" gradientUnits="userSpaceOnUse">
<stop stop-color="#E1E5E9"/>
<stop offset="1" stop-color="#8F959C"/>
</linearGradient>
<linearGradient id="paint20_linear_910_36956" x1="17.6691" y1="0" x2="17.2423" y2="18.6118" gradientUnits="userSpaceOnUse">
<stop stop-color="#E1E5E9"/>
<stop offset="1" stop-color="#8F959C"/>
</linearGradient>
<linearGradient id="paint21_linear_910_36956" x1="23.1552" y1="0" x2="22.5059" y2="26.277" gradientUnits="userSpaceOnUse">
<stop stop-color="#E1E5E9"/>
<stop offset="1" stop-color="#8F959C"/>
</linearGradient>
<linearGradient id="paint22_linear_910_36956" x1="16.7333" y1="8.59367e-08" x2="15.6114" y2="19.763" gradientUnits="userSpaceOnUse">
<stop stop-color="#5D6369"/>
<stop offset="1" stop-color="#8F959C" stop-opacity="0"/>
</linearGradient>
<linearGradient id="paint23_linear_910_36956" x1="1185.64" y1="144.666" x2="1185.66" y2="164.332" gradientUnits="userSpaceOnUse">
<stop stop-color="#8F959C"/>
<stop offset="1" stop-color="#BFC5CB"/>
</linearGradient>
<linearGradient id="paint24_linear_910_36956" x1="1185.66" y1="163.933" x2="1185.66" y2="181.639" gradientUnits="userSpaceOnUse">
<stop stop-color="#FCFF4F"/>
<stop offset="1" stop-color="#FF5353"/>
</linearGradient>
</defs>
</svg>
