<svg width="1344" height="315" viewBox="0 0 1344 315" fill="none" xmlns="http://www.w3.org/2000/svg">
<g filter="url(#filter0_d_910_36977)">
<rect x="12" y="12" width="1320" height="291" rx="20" fill="white"/>
<path d="M1151.49 173.268H1153.35V186.274H1151.49V173.268ZM1143.26 181.738H1144.41C1146.7 181.738 1148.54 181.654 1150.6 181.304L1150.78 182.802C1148.68 183.18 1146.77 183.25 1144.41 183.25H1143.26V181.738ZM1143.25 174.374H1149.36V179.386H1145.15V182.298H1143.26V177.916H1147.46V175.858H1143.25V174.374ZM1160.25 174.024H1161.88V174.962C1161.88 177.776 1159.88 180.268 1156.52 180.926L1155.72 179.386C1158.64 178.882 1160.25 176.824 1160.25 174.962V174.024ZM1160.63 174.024H1162.24V174.962C1162.24 176.866 1163.84 178.882 1166.78 179.386L1165.98 180.926C1162.62 180.268 1160.63 177.818 1160.63 174.962V174.024ZM1155.45 183.152H1167.18V184.664H1155.45V183.152ZM1169.65 174.416H1177.81V175.9H1169.65V174.416ZM1168.33 183.194H1180.05V184.72H1168.33V183.194ZM1177.03 174.416H1178.86V175.914C1178.86 177.804 1178.86 179.596 1178.26 182.424L1176.42 182.256C1177.03 179.638 1177.03 177.748 1177.03 175.914V174.416ZM1177.42 177.972V179.344L1169.49 179.736L1169.27 178.238L1177.42 177.972ZM1194.16 174.962H1196.4V176.488H1194.16V174.962ZM1194.16 177.776H1196.4V179.302H1194.16V177.776ZM1192.88 173.282H1194.74V180.926H1192.88V173.282ZM1186.09 181.458H1194.74V186.246H1192.88V182.942H1186.09V181.458ZM1188.14 173.982C1190.15 173.982 1191.67 175.312 1191.67 177.16C1191.67 179.008 1190.15 180.324 1188.14 180.324C1186.14 180.324 1184.62 179.008 1184.62 177.16C1184.62 175.312 1186.14 173.982 1188.14 173.982ZM1188.14 175.564C1187.16 175.564 1186.44 176.138 1186.44 177.16C1186.44 178.182 1187.16 178.77 1188.14 178.77C1189.12 178.77 1189.85 178.182 1189.85 177.16C1189.85 176.138 1189.12 175.564 1188.14 175.564ZM1205.74 173.282H1207.62V182.564H1205.74V173.282ZM1207.09 176.894H1209.34V178.42H1207.09V176.894ZM1202.13 174.248H1204.12C1204.12 177.776 1201.96 180.198 1198.1 181.318L1197.31 179.834C1200.49 178.966 1202.13 177.23 1202.13 175.172V174.248ZM1197.87 174.248H1203.14V175.746H1197.87V174.248ZM1199.23 184.538H1208.05V186.022H1199.23V184.538ZM1199.23 181.626H1201.11V185.196H1199.23V181.626ZM1216.58 178.532H1218.44V180.492H1216.58V178.532ZM1217.49 173.8C1219.37 173.8 1220.72 174.878 1220.72 176.446C1220.72 177.986 1219.37 179.064 1217.49 179.064C1215.61 179.064 1214.26 177.986 1214.26 176.446C1214.26 174.878 1215.61 173.8 1217.49 173.8ZM1217.49 175.2C1216.61 175.2 1215.99 175.648 1215.99 176.446C1215.99 177.23 1216.61 177.678 1217.49 177.678C1218.39 177.678 1218.99 177.23 1218.99 176.446C1218.99 175.648 1218.39 175.2 1217.49 175.2ZM1222.05 173.296H1223.92V183.18H1222.05V173.296ZM1223.26 177.356H1225.54V178.882H1223.26V177.356ZM1215.26 184.524H1224.35V186.022H1215.26V184.524ZM1215.26 182.326H1217.14V185.168H1215.26V182.326ZM1213.79 181.5L1213.58 180.016C1215.78 180.016 1218.82 180.002 1221.37 179.638L1221.49 180.968C1218.88 181.458 1215.94 181.5 1213.79 181.5ZM1229.5 180.954H1231.36V183.054H1229.5V180.954ZM1234.95 173.282H1236.82V186.246H1234.95V173.282ZM1236.17 178.546H1238.45V180.086H1236.17V178.546ZM1226.59 184.09L1226.37 182.592C1228.61 182.592 1231.69 182.578 1234.3 182.214L1234.44 183.558C1231.71 184.09 1228.77 184.09 1226.59 184.09ZM1226.6 174.71H1234.23V176.166H1226.6V174.71ZM1230.44 176.684C1232.29 176.684 1233.6 177.664 1233.6 179.106C1233.6 180.562 1232.29 181.542 1230.44 181.542C1228.58 181.542 1227.28 180.562 1227.28 179.106C1227.28 177.664 1228.58 176.684 1230.44 176.684ZM1230.44 178.084C1229.59 178.084 1229.04 178.448 1229.04 179.106C1229.04 179.778 1229.59 180.142 1230.44 180.142C1231.28 180.142 1231.84 179.778 1231.84 179.106C1231.84 178.448 1231.28 178.084 1230.44 178.084ZM1229.5 173.352H1231.36V175.802H1229.5V173.352Z" fill="#374151"/>
<path fill-rule="evenodd" clip-rule="evenodd" d="M1217.98 129.984H1217.98V129.985H1210.87H1209.36H1202.26V129.967C1200.45 129.787 1199.03 128.258 1199.03 126.397C1199.03 124.416 1200.64 122.81 1202.62 122.81C1202.75 122.81 1202.88 122.817 1203 122.83C1203.29 119.466 1206.12 116.826 1209.56 116.826C1212.37 116.826 1214.77 118.592 1215.71 121.076C1216.39 120.71 1217.16 120.502 1217.98 120.502C1220.59 120.502 1222.72 122.625 1222.72 125.243C1222.72 127.862 1220.59 129.984 1217.98 129.984Z" fill="url(#paint0_linear_910_36977)"/>
<ellipse cx="1191.87" cy="118.415" rx="17.7494" ry="17.7494" fill="url(#paint1_linear_910_36977)"/>
<path fill-rule="evenodd" clip-rule="evenodd" d="M1200.73 139.099C1200.73 143.566 1197.11 147.186 1192.65 147.186V147.187H1180.53H1177.96H1165.84V147.156C1162.75 146.849 1160.33 144.24 1160.33 141.066C1160.33 137.687 1163.07 134.947 1166.45 134.947C1166.67 134.947 1166.89 134.959 1167.11 134.981C1167.6 129.243 1172.42 124.74 1178.29 124.74C1183.09 124.74 1187.18 127.753 1188.79 131.991C1189.93 131.367 1191.25 131.012 1192.65 131.012C1197.11 131.012 1200.73 134.633 1200.73 139.099Z" fill="url(#paint2_linear_910_36977)"/>
<path d="M54.112 152.592H56.256V167.408H54.112V152.592ZM55.696 158.256H58.304V160H55.696V158.256ZM50.224 154.128H52.304C52.304 158.576 50.608 162.384 45.68 164.864L44.496 163.248C48.384 161.232 50.224 158.512 50.224 154.496V154.128ZM45.312 154.128H51.312V155.84H45.312V154.128ZM64.9908 153.536H67.2148C67.2148 157.52 64.7508 160.224 60.3188 161.392L59.5188 159.728C63.1508 158.784 64.9908 156.864 64.9908 154.592V153.536ZM60.3508 153.536H66.3668V155.232H60.3508V153.536ZM61.6628 162.032H71.7588V167.376H69.6308V163.696H61.6628V162.032ZM69.6308 152.608H71.7588V161.408H69.6308V152.608ZM66.5108 154.992H69.9828V156.672H66.5108V154.992ZM66.3668 158.144H69.8548V159.84H66.3668V158.144Z" fill="#9CA3AF"/>
<path d="M101.492 167.312C103.796 165.392 105.632 163.796 107 162.524C108.368 161.228 109.508 159.884 110.42 158.492C111.332 157.1 111.788 155.732 111.788 154.388C111.788 153.164 111.5 152.204 110.924 151.508C110.348 150.812 109.46 150.464 108.26 150.464C107.06 150.464 106.136 150.872 105.488 151.688C104.84 152.48 104.504 153.572 104.48 154.964H99.584C99.68 152.084 100.532 149.9 102.14 148.412C103.772 146.924 105.836 146.18 108.332 146.18C111.068 146.18 113.168 146.912 114.632 148.376C116.096 149.816 116.828 151.724 116.828 154.1C116.828 155.972 116.324 157.76 115.316 159.464C114.308 161.168 113.156 162.656 111.86 163.928C110.564 165.176 108.872 166.688 106.784 168.464H117.404V172.64H99.62V168.896L101.492 167.312ZM126.412 165.62C126.604 166.676 127.036 167.492 127.708 168.068C128.404 168.62 129.328 168.896 130.48 168.896C131.968 168.896 133.048 168.284 133.72 167.06C134.392 165.812 134.728 163.724 134.728 160.796C134.176 161.564 133.396 162.164 132.388 162.596C131.404 163.028 130.336 163.244 129.184 163.244C127.648 163.244 126.256 162.932 125.008 162.308C123.784 161.66 122.812 160.712 122.092 159.464C121.372 158.192 121.012 156.656 121.012 154.856C121.012 152.192 121.804 150.08 123.388 148.52C124.972 146.936 127.132 146.144 129.868 146.144C133.276 146.144 135.676 147.236 137.068 149.42C138.484 151.604 139.192 154.892 139.192 159.284C139.192 162.404 138.916 164.96 138.364 166.952C137.836 168.944 136.912 170.456 135.592 171.488C134.296 172.52 132.52 173.036 130.264 173.036C128.488 173.036 126.976 172.7 125.728 172.028C124.48 171.332 123.52 170.432 122.848 169.328C122.2 168.2 121.828 166.964 121.732 165.62H126.412ZM130.228 159.14C131.476 159.14 132.46 158.756 133.18 157.988C133.9 157.22 134.26 156.188 134.26 154.892C134.26 153.476 133.876 152.384 133.108 151.616C132.364 150.824 131.344 150.428 130.048 150.428C128.752 150.428 127.72 150.836 126.952 151.652C126.208 152.444 125.836 153.5 125.836 154.82C125.836 156.092 126.196 157.136 126.916 157.952C127.66 158.744 128.764 159.14 130.228 159.14ZM143.115 159.536C143.115 155.384 143.859 152.132 145.347 149.78C146.859 147.428 149.355 146.252 152.835 146.252C156.315 146.252 158.799 147.428 160.287 149.78C161.799 152.132 162.555 155.384 162.555 159.536C162.555 163.712 161.799 166.988 160.287 169.364C158.799 171.74 156.315 172.928 152.835 172.928C149.355 172.928 146.859 171.74 145.347 169.364C143.859 166.988 143.115 163.712 143.115 159.536ZM157.587 159.536C157.587 157.76 157.467 156.272 157.227 155.072C157.011 153.848 156.555 152.852 155.859 152.084C155.187 151.316 154.179 150.932 152.835 150.932C151.491 150.932 150.471 151.316 149.775 152.084C149.103 152.852 148.647 153.848 148.407 155.072C148.191 156.272 148.083 157.76 148.083 159.536C148.083 161.36 148.191 162.896 148.407 164.144C148.623 165.368 149.079 166.364 149.775 167.132C150.471 167.876 151.491 168.248 152.835 168.248C154.179 168.248 155.199 167.876 155.895 167.132C156.591 166.364 157.047 165.368 157.263 164.144C157.479 162.896 157.587 161.36 157.587 159.536ZM166.388 159.536C166.388 155.384 167.132 152.132 168.62 149.78C170.132 147.428 172.628 146.252 176.108 146.252C179.588 146.252 182.072 147.428 183.56 149.78C185.072 152.132 185.828 155.384 185.828 159.536C185.828 163.712 185.072 166.988 183.56 169.364C182.072 171.74 179.588 172.928 176.108 172.928C172.628 172.928 170.132 171.74 168.62 169.364C167.132 166.988 166.388 163.712 166.388 159.536ZM180.86 159.536C180.86 157.76 180.74 156.272 180.5 155.072C180.284 153.848 179.828 152.852 179.132 152.084C178.46 151.316 177.452 150.932 176.108 150.932C174.764 150.932 173.744 151.316 173.048 152.084C172.376 152.852 171.92 153.848 171.68 155.072C171.464 156.272 171.356 157.76 171.356 159.536C171.356 161.36 171.464 162.896 171.68 164.144C171.896 165.368 172.352 166.364 173.048 167.132C173.744 167.876 174.764 168.248 176.108 168.248C177.452 168.248 178.472 167.876 179.168 167.132C179.864 166.364 180.32 165.368 180.536 164.144C180.752 162.896 180.86 161.36 180.86 159.536ZM203.27 153.308C203.03 152.3 202.61 151.544 202.01 151.04C201.434 150.536 200.594 150.284 199.49 150.284C197.834 150.284 196.61 150.956 195.818 152.3C195.05 153.62 194.654 155.78 194.63 158.78C195.206 157.82 196.046 157.076 197.15 156.548C198.254 155.996 199.454 155.72 200.75 155.72C202.31 155.72 203.69 156.056 204.89 156.728C206.09 157.4 207.026 158.384 207.698 159.68C208.37 160.952 208.706 162.488 208.706 164.288C208.706 165.992 208.358 167.516 207.662 168.86C206.99 170.18 205.994 171.212 204.674 171.956C203.354 172.7 201.782 173.072 199.958 173.072C197.462 173.072 195.494 172.52 194.054 171.416C192.638 170.312 191.642 168.776 191.066 166.808C190.514 164.816 190.238 162.368 190.238 159.464C190.238 155.072 190.994 151.76 192.506 149.528C194.018 147.272 196.406 146.144 199.67 146.144C202.19 146.144 204.146 146.828 205.538 148.196C206.93 149.564 207.734 151.268 207.95 153.308H203.27ZM199.598 159.86C198.326 159.86 197.258 160.232 196.394 160.976C195.53 161.72 195.098 162.8 195.098 164.216C195.098 165.632 195.494 166.748 196.286 167.564C197.102 168.38 198.242 168.788 199.706 168.788C201.002 168.788 202.022 168.392 202.766 167.6C203.534 166.808 203.918 165.74 203.918 164.396C203.918 163.004 203.546 161.9 202.802 161.084C202.082 160.268 201.014 159.86 199.598 159.86ZM215.497 173.252C214.585 173.252 213.829 172.976 213.229 172.424C212.653 171.848 212.365 171.14 212.365 170.3C212.365 169.46 212.653 168.764 213.229 168.212C213.829 167.636 214.585 167.348 215.497 167.348C216.385 167.348 217.117 167.636 217.693 168.212C218.269 168.764 218.557 169.46 218.557 170.3C218.557 171.14 218.269 171.848 217.693 172.424C217.117 172.976 216.385 173.252 215.497 173.252ZM222.113 153.668C222.233 151.268 223.073 149.42 224.633 148.124C226.217 146.804 228.293 146.144 230.861 146.144C232.613 146.144 234.113 146.456 235.361 147.08C236.609 147.68 237.545 148.508 238.169 149.564C238.817 150.596 239.141 151.772 239.141 153.092C239.141 154.604 238.745 155.888 237.953 156.944C237.185 157.976 236.261 158.672 235.181 159.032V159.176C236.573 159.608 237.653 160.376 238.421 161.48C239.213 162.584 239.609 164 239.609 165.728C239.609 167.168 239.273 168.452 238.601 169.58C237.953 170.708 236.981 171.596 235.685 172.244C234.413 172.868 232.877 173.18 231.077 173.18C228.365 173.18 226.157 172.496 224.453 171.128C222.749 169.76 221.849 167.744 221.753 165.08H226.649C226.697 166.256 227.093 167.204 227.837 167.924C228.605 168.62 229.649 168.968 230.969 168.968C232.193 168.968 233.129 168.632 233.777 167.96C234.449 167.264 234.785 166.376 234.785 165.296C234.785 163.856 234.329 162.824 233.417 162.2C232.505 161.576 231.089 161.264 229.169 161.264H228.125V157.124H229.169C232.577 157.124 234.281 155.984 234.281 153.704C234.281 152.672 233.969 151.868 233.345 151.292C232.745 150.716 231.869 150.428 230.717 150.428C229.589 150.428 228.713 150.74 228.089 151.364C227.489 151.964 227.141 152.732 227.045 153.668H222.113ZM243.592 159.536C243.592 155.384 244.336 152.132 245.824 149.78C247.336 147.428 249.832 146.252 253.312 146.252C256.792 146.252 259.276 147.428 260.764 149.78C262.276 152.132 263.032 155.384 263.032 159.536C263.032 163.712 262.276 166.988 260.764 169.364C259.276 171.74 256.792 172.928 253.312 172.928C249.832 172.928 247.336 171.74 245.824 169.364C244.336 166.988 243.592 163.712 243.592 159.536ZM258.064 159.536C258.064 157.76 257.944 156.272 257.704 155.072C257.488 153.848 257.032 152.852 256.336 152.084C255.664 151.316 254.656 150.932 253.312 150.932C251.968 150.932 250.948 151.316 250.252 152.084C249.58 152.852 249.124 153.848 248.884 155.072C248.668 156.272 248.56 157.76 248.56 159.536C248.56 161.36 248.668 162.896 248.884 164.144C249.1 165.368 249.556 166.364 250.252 167.132C250.948 167.876 251.968 168.248 253.312 168.248C254.656 168.248 255.676 167.876 256.372 167.132C257.068 166.364 257.524 165.368 257.74 164.144C257.956 162.896 258.064 161.36 258.064 159.536ZM280.987 147.872V163.424C280.987 165.128 281.431 166.436 282.319 167.348C283.207 168.236 284.455 168.68 286.063 168.68C287.695 168.68 288.955 168.236 289.843 167.348C290.731 166.436 291.175 165.128 291.175 163.424V147.872H296.251V163.388C296.251 165.524 295.783 167.336 294.847 168.824C293.935 170.288 292.699 171.392 291.139 172.136C289.603 172.88 287.887 173.252 285.991 173.252C284.119 173.252 282.415 172.88 280.879 172.136C279.367 171.392 278.167 170.288 277.279 168.824C276.391 167.336 275.947 165.524 275.947 163.388V147.872H280.987ZM309.797 173.252C308.045 173.252 306.461 172.952 305.045 172.352C303.653 171.752 302.549 170.888 301.733 169.76C300.917 168.632 300.497 167.3 300.473 165.764H305.873C305.945 166.796 306.305 167.612 306.953 168.212C307.625 168.812 308.537 169.112 309.689 169.112C310.865 169.112 311.789 168.836 312.461 168.284C313.133 167.708 313.469 166.964 313.469 166.052C313.469 165.308 313.241 164.696 312.785 164.216C312.329 163.736 311.753 163.364 311.057 163.1C310.385 162.812 309.449 162.5 308.249 162.164C306.617 161.684 305.285 161.216 304.253 160.76C303.245 160.28 302.369 159.572 301.625 158.636C300.905 157.676 300.545 156.404 300.545 154.82C300.545 153.332 300.917 152.036 301.661 150.932C302.405 149.828 303.449 148.988 304.793 148.412C306.137 147.812 307.673 147.512 309.401 147.512C311.993 147.512 314.093 148.148 315.701 149.42C317.333 150.668 318.233 152.42 318.401 154.676H312.857C312.809 153.812 312.437 153.104 311.741 152.552C311.069 151.976 310.169 151.688 309.041 151.688C308.057 151.688 307.265 151.94 306.665 152.444C306.089 152.948 305.801 153.68 305.801 154.64C305.801 155.312 306.017 155.876 306.449 156.332C306.905 156.764 307.457 157.124 308.105 157.412C308.777 157.676 309.713 157.988 310.913 158.348C312.545 158.828 313.877 159.308 314.909 159.788C315.941 160.268 316.829 160.988 317.573 161.948C318.317 162.908 318.689 164.168 318.689 165.728C318.689 167.072 318.341 168.32 317.645 169.472C316.949 170.624 315.929 171.548 314.585 172.244C313.241 172.916 311.645 173.252 309.797 173.252ZM331.842 147.872C334.482 147.872 336.798 148.388 338.79 149.42C340.806 150.452 342.354 151.928 343.434 153.848C344.538 155.744 345.09 157.952 345.09 160.472C345.09 162.992 344.538 165.2 343.434 167.096C342.354 168.968 340.806 170.42 338.79 171.452C336.798 172.484 334.482 173 331.842 173H323.058V147.872H331.842ZM331.662 168.716C334.302 168.716 336.342 167.996 337.782 166.556C339.222 165.116 339.942 163.088 339.942 160.472C339.942 157.856 339.222 155.816 337.782 154.352C336.342 152.864 334.302 152.12 331.662 152.12H328.098V168.716H331.662Z" fill="#111111"/>
<path d="M372.552 163.472C373.576 162.619 374.392 161.909 375 161.344C375.608 160.768 376.115 160.171 376.52 159.552C376.925 158.933 377.128 158.325 377.128 157.728C377.128 157.184 377 156.757 376.744 156.448C376.488 156.139 376.093 155.984 375.56 155.984C375.027 155.984 374.616 156.165 374.328 156.528C374.04 156.88 373.891 157.365 373.88 157.984H371.704C371.747 156.704 372.125 155.733 372.84 155.072C373.565 154.411 374.483 154.08 375.592 154.08C376.808 154.08 377.741 154.405 378.392 155.056C379.043 155.696 379.368 156.544 379.368 157.6C379.368 158.432 379.144 159.227 378.696 159.984C378.248 160.741 377.736 161.403 377.16 161.968C376.584 162.523 375.832 163.195 374.904 163.984H379.624V165.84H371.72V164.176L372.552 163.472ZM382.284 166.112C381.878 166.112 381.542 165.989 381.276 165.744C381.02 165.488 380.892 165.173 380.892 164.8C380.892 164.427 381.02 164.117 381.276 163.872C381.542 163.616 381.878 163.488 382.284 163.488C382.678 163.488 383.004 163.616 383.26 163.872C383.516 164.117 383.644 164.427 383.644 164.8C383.644 165.173 383.516 165.488 383.26 165.744C383.004 165.989 382.678 166.112 382.284 166.112ZM387.784 162.72C387.869 163.189 388.061 163.552 388.36 163.808C388.669 164.053 389.08 164.176 389.592 164.176C390.253 164.176 390.733 163.904 391.032 163.36C391.33 162.805 391.48 161.877 391.48 160.576C391.234 160.917 390.888 161.184 390.44 161.376C390.002 161.568 389.528 161.664 389.016 161.664C388.333 161.664 387.714 161.525 387.16 161.248C386.616 160.96 386.184 160.539 385.864 159.984C385.544 159.419 385.384 158.736 385.384 157.936C385.384 156.752 385.736 155.813 386.44 155.12C387.144 154.416 388.104 154.064 389.32 154.064C390.834 154.064 391.901 154.549 392.52 155.52C393.149 156.491 393.464 157.952 393.464 159.904C393.464 161.291 393.341 162.427 393.096 163.312C392.861 164.197 392.45 164.869 391.864 165.328C391.288 165.787 390.498 166.016 389.496 166.016C388.706 166.016 388.034 165.867 387.48 165.568C386.925 165.259 386.498 164.859 386.2 164.368C385.912 163.867 385.746 163.317 385.704 162.72H387.784ZM389.48 159.84C390.034 159.84 390.472 159.669 390.792 159.328C391.112 158.987 391.272 158.528 391.272 157.952C391.272 157.323 391.101 156.837 390.76 156.496C390.429 156.144 389.976 155.968 389.4 155.968C388.824 155.968 388.365 156.149 388.024 156.512C387.693 156.864 387.528 157.333 387.528 157.92C387.528 158.485 387.688 158.949 388.008 159.312C388.338 159.664 388.829 159.84 389.48 159.84ZM397.799 162.72C397.885 163.189 398.077 163.552 398.375 163.808C398.685 164.053 399.095 164.176 399.607 164.176C400.269 164.176 400.749 163.904 401.047 163.36C401.346 162.805 401.495 161.877 401.495 160.576C401.25 160.917 400.903 161.184 400.455 161.376C400.018 161.568 399.543 161.664 399.031 161.664C398.349 161.664 397.73 161.525 397.175 161.248C396.631 160.96 396.199 160.539 395.879 159.984C395.559 159.419 395.399 158.736 395.399 157.936C395.399 156.752 395.751 155.813 396.455 155.12C397.159 154.416 398.119 154.064 399.335 154.064C400.85 154.064 401.917 154.549 402.535 155.52C403.165 156.491 403.479 157.952 403.479 159.904C403.479 161.291 403.357 162.427 403.111 163.312C402.877 164.197 402.466 164.869 401.879 165.328C401.303 165.787 400.514 166.016 399.511 166.016C398.722 166.016 398.05 165.867 397.495 165.568C396.941 165.259 396.514 164.859 396.215 164.368C395.927 163.867 395.762 163.317 395.719 162.72H397.799ZM399.495 159.84C400.05 159.84 400.487 159.669 400.807 159.328C401.127 158.987 401.287 158.528 401.287 157.952C401.287 157.323 401.117 156.837 400.775 156.496C400.445 156.144 399.991 155.968 399.415 155.968C398.839 155.968 398.381 156.149 398.039 156.512C397.709 156.864 397.543 157.333 397.543 157.92C397.543 158.485 397.703 158.949 398.023 159.312C398.354 159.664 398.845 159.84 399.495 159.84ZM404.967 157.2C404.967 156.389 405.202 155.755 405.671 155.296C406.151 154.837 406.764 154.608 407.511 154.608C408.258 154.608 408.866 154.837 409.335 155.296C409.815 155.755 410.055 156.389 410.055 157.2C410.055 158.021 409.815 158.661 409.335 159.12C408.866 159.579 408.258 159.808 407.511 159.808C406.764 159.808 406.151 159.579 405.671 159.12C405.202 158.661 404.967 158.021 404.967 157.2ZM415.239 154.8L408.951 166H406.775L413.047 154.8H415.239ZM407.495 155.952C406.908 155.952 406.615 156.368 406.615 157.2C406.615 158.043 406.908 158.464 407.495 158.464C407.783 158.464 408.007 158.363 408.167 158.16C408.327 157.947 408.407 157.627 408.407 157.2C408.407 156.368 408.103 155.952 407.495 155.952ZM411.991 163.584C411.991 162.763 412.226 162.128 412.695 161.68C413.175 161.221 413.788 160.992 414.535 160.992C415.282 160.992 415.884 161.221 416.343 161.68C416.812 162.128 417.047 162.763 417.047 163.584C417.047 164.405 416.812 165.045 416.343 165.504C415.884 165.963 415.282 166.192 414.535 166.192C413.778 166.192 413.164 165.963 412.695 165.504C412.226 165.045 411.991 164.405 411.991 163.584ZM414.519 162.336C413.911 162.336 413.607 162.752 413.607 163.584C413.607 164.427 413.911 164.848 414.519 164.848C415.116 164.848 415.415 164.427 415.415 163.584C415.415 162.752 415.116 162.336 414.519 162.336Z" fill="#4B5563"/>
<path d="M446 150L446 170" stroke="#D1D5DB"/>
<path d="M478.432 160.656H480.576V163.712H478.432V160.656ZM478.416 155.376H480.112V155.712C480.112 158.192 478.784 160.352 475.968 161.104L475.008 159.472C477.376 158.848 478.416 157.296 478.416 155.712V155.376ZM478.864 155.376H480.576V155.712C480.576 157.232 481.648 158.736 484 159.344L483.056 160.976C480.24 160.256 478.864 158.128 478.864 155.712V155.376ZM475.456 154.352H483.568V156.032H475.456V154.352ZM478.432 152.736H480.576V155.088H478.432V152.736ZM484.88 152.592H487.008V167.456H484.88V152.592ZM474.96 164.704L474.704 162.976C477.296 162.976 480.944 162.944 484.064 162.48L484.224 164.032C481.008 164.656 477.52 164.688 474.96 164.704ZM493.487 153.408C495.775 153.408 497.519 154.928 497.519 157.04C497.519 159.152 495.775 160.656 493.487 160.656C491.199 160.656 489.455 159.152 489.455 157.04C489.455 154.928 491.199 153.408 493.487 153.408ZM493.487 155.216C492.367 155.216 491.535 155.872 491.535 157.04C491.535 158.208 492.367 158.88 493.487 158.88C494.607 158.88 495.439 158.208 495.439 157.04C495.439 155.872 494.607 155.216 493.487 155.216ZM498.895 152.608H501.023V161.264H498.895V152.608ZM500.431 156.064H502.991V157.808H500.431V156.064ZM491.135 161.904H501.023V167.44H498.895V163.6H491.135V161.904ZM508.846 153.584C511.182 153.584 512.926 155.104 512.926 157.232C512.926 159.376 511.182 160.896 508.846 160.896C506.526 160.896 504.75 159.376 504.75 157.232C504.75 155.104 506.526 153.584 508.846 153.584ZM508.846 155.408C507.71 155.408 506.846 156.08 506.846 157.232C506.846 158.4 507.71 159.072 508.846 159.072C509.982 159.072 510.846 158.4 510.846 157.232C510.846 156.08 509.982 155.408 508.846 155.408ZM514.318 152.592H516.446V167.456H514.318V152.592ZM504.398 164.448L504.142 162.736C506.75 162.736 510.382 162.704 513.502 162.24L513.662 163.776C510.446 164.416 506.958 164.448 504.398 164.448ZM529.745 154.944H533.217V156.64H529.745V154.944ZM529.633 158.016H533.105V159.712H529.633V158.016ZM532.881 152.608H535.009V161.136H532.881V152.608ZM528.049 153.616H530.321C530.321 157.648 528.049 160.24 523.553 161.472L522.721 159.792C526.481 158.816 528.049 156.96 528.049 154.64V153.616ZM523.537 153.616H529.537V155.312H523.537V153.616ZM530.097 161.328C533.105 161.328 535.105 162.48 535.105 164.336C535.105 166.192 533.105 167.36 530.097 167.36C527.089 167.36 525.089 166.192 525.089 164.336C525.089 162.48 527.089 161.328 530.097 161.328ZM530.097 162.96C528.289 162.96 527.201 163.424 527.201 164.336C527.201 165.248 528.289 165.696 530.097 165.696C531.921 165.696 533.009 165.248 533.009 164.336C533.009 163.424 531.921 162.96 530.097 162.96ZM537.328 160.896H550.752V162.608H537.328V160.896ZM542.928 162H545.04V167.44H542.928V162ZM544 153.104C547.168 153.104 549.36 154.416 549.36 156.448C549.36 158.464 547.168 159.76 544 159.76C540.848 159.76 538.656 158.464 538.656 156.448C538.656 154.416 540.848 153.104 544 153.104ZM544 154.8C542.064 154.8 540.832 155.376 540.832 156.448C540.832 157.504 542.064 158.08 544 158.08C545.952 158.08 547.168 157.504 547.168 156.448C547.168 155.376 545.952 154.8 544 154.8Z" fill="#9CA3AF"/>
<path d="M593.82 158.024V162.272H578.556V158.024H593.82ZM598.284 151.4V146.756H606.96V173H601.776V151.4H598.284ZM611.939 159.536C611.939 155.384 612.683 152.132 614.171 149.78C615.683 147.428 618.179 146.252 621.659 146.252C625.139 146.252 627.623 147.428 629.111 149.78C630.623 152.132 631.379 155.384 631.379 159.536C631.379 163.712 630.623 166.988 629.111 169.364C627.623 171.74 625.139 172.928 621.659 172.928C618.179 172.928 615.683 171.74 614.171 169.364C612.683 166.988 611.939 163.712 611.939 159.536ZM626.411 159.536C626.411 157.76 626.291 156.272 626.051 155.072C625.835 153.848 625.379 152.852 624.683 152.084C624.011 151.316 623.003 150.932 621.659 150.932C620.315 150.932 619.295 151.316 618.599 152.084C617.927 152.852 617.471 153.848 617.231 155.072C617.015 156.272 616.907 157.76 616.907 159.536C616.907 161.36 617.015 162.896 617.231 164.144C617.447 165.368 617.903 166.364 618.599 167.132C619.295 167.876 620.315 168.248 621.659 168.248C623.003 168.248 624.023 167.876 624.719 167.132C625.415 166.364 625.871 165.368 626.087 164.144C626.303 162.896 626.411 161.36 626.411 159.536ZM638.021 173.252C637.109 173.252 636.353 172.976 635.753 172.424C635.177 171.848 634.889 171.14 634.889 170.3C634.889 169.46 635.177 168.764 635.753 168.212C636.353 167.636 637.109 167.348 638.021 167.348C638.909 167.348 639.641 167.636 640.217 168.212C640.793 168.764 641.081 169.46 641.081 170.3C641.081 171.14 640.793 171.848 640.217 172.424C639.641 172.976 638.909 173.252 638.021 173.252ZM646.148 167.312C648.452 165.392 650.288 163.796 651.656 162.524C653.024 161.228 654.164 159.884 655.076 158.492C655.988 157.1 656.444 155.732 656.444 154.388C656.444 153.164 656.156 152.204 655.58 151.508C655.004 150.812 654.116 150.464 652.916 150.464C651.716 150.464 650.792 150.872 650.144 151.688C649.496 152.48 649.16 153.572 649.136 154.964H644.24C644.336 152.084 645.188 149.9 646.796 148.412C648.428 146.924 650.492 146.18 652.988 146.18C655.724 146.18 657.824 146.912 659.288 148.376C660.752 149.816 661.484 151.724 661.484 154.1C661.484 155.972 660.98 157.76 659.972 159.464C658.964 161.168 657.812 162.656 656.516 163.928C655.22 165.176 653.528 166.688 651.44 168.464H662.06V172.64H644.276V168.896L646.148 167.312ZM664.66 153.2C664.66 151.376 665.188 149.948 666.244 148.916C667.324 147.884 668.704 147.368 670.384 147.368C672.064 147.368 673.432 147.884 674.488 148.916C675.568 149.948 676.108 151.376 676.108 153.2C676.108 155.048 675.568 156.488 674.488 157.52C673.432 158.552 672.064 159.068 670.384 159.068C668.704 159.068 667.324 158.552 666.244 157.52C665.188 156.488 664.66 155.048 664.66 153.2ZM687.772 147.8L673.624 173H668.728L682.84 147.8H687.772ZM670.348 150.392C669.028 150.392 668.368 151.328 668.368 153.2C668.368 155.096 669.028 156.044 670.348 156.044C670.996 156.044 671.5 155.816 671.86 155.36C672.22 154.88 672.4 154.16 672.4 153.2C672.4 151.328 671.716 150.392 670.348 150.392ZM680.464 167.564C680.464 165.716 680.992 164.288 682.048 163.28C683.128 162.248 684.508 161.732 686.188 161.732C687.868 161.732 689.224 162.248 690.256 163.28C691.312 164.288 691.84 165.716 691.84 167.564C691.84 169.412 691.312 170.852 690.256 171.884C689.224 172.916 687.868 173.432 686.188 173.432C684.484 173.432 683.104 172.916 682.048 171.884C680.992 170.852 680.464 169.412 680.464 167.564ZM686.152 164.756C684.784 164.756 684.1 165.692 684.1 167.564C684.1 169.46 684.784 170.408 686.152 170.408C687.496 170.408 688.168 169.46 688.168 167.564C688.168 165.692 687.496 164.756 686.152 164.756Z" fill="#DF1525"/>
<rect x="44" y="44" width="60" height="60" rx="30" fill="#F7931A" fill-opacity="0.1"/>
<path fill-rule="evenodd" clip-rule="evenodd" d="M86.2113 70.4656C86.7041 67.1661 84.1919 65.3924 80.7568 64.2091L81.8711 59.7395L79.1496 59.0615L78.0648 63.4133C77.3503 63.2351 76.6157 63.0669 75.8858 62.9003L76.9784 58.5198L74.2593 57.8418L73.1442 62.3098C72.5522 62.175 71.971 62.0417 71.4069 61.9015L71.41 61.8875L67.6579 60.9507L66.9342 63.8565C66.9342 63.8565 68.9528 64.3192 68.9102 64.3478C70.0121 64.6229 70.212 65.3521 70.1779 65.9302L68.9086 71.022C68.9845 71.0414 69.083 71.0693 69.1914 71.1127L68.9047 71.0414L67.1248 78.1743C66.99 78.509 66.6482 79.0112 65.878 78.8206C65.9051 78.8601 63.9004 78.3269 63.9004 78.3269L62.5498 81.442L66.0911 82.3246C66.4908 82.4248 66.8857 82.5278 67.2762 82.6297L67.2764 82.6297L67.2771 82.6299C67.5298 82.6959 67.7807 82.7613 68.0299 82.8252L66.9039 87.3467L69.6215 88.0248L70.7374 83.5521C71.4789 83.7535 72.1996 83.9395 72.9047 84.1146L71.7935 88.5664L74.5142 89.2445L75.6401 84.7322C80.2794 85.6102 83.7688 85.2561 85.2357 81.0608C86.4189 77.6822 85.1775 75.7334 82.7366 74.4618C84.5142 74.0503 85.8533 72.881 86.2105 70.4656H86.2113ZM72.1476 80.4138L72.1476 80.4137L72.1475 80.4137C71.9488 80.3612 71.7712 80.3143 71.6196 80.2766L73.1136 74.2874C73.2989 74.3337 73.5253 74.3845 73.7818 74.442L73.7819 74.4421C76.0779 74.9573 80.783 76.0131 79.9947 79.1824H79.9939C79.2216 82.2833 74.3669 81.0003 72.1476 80.4138ZM74.2434 71.6628C76.0951 72.1568 80.1315 73.2337 80.8346 70.4168C81.5535 67.535 77.6286 66.6664 75.7117 66.2422C75.4962 66.1946 75.3061 66.1525 75.1508 66.1138L73.7963 71.5458C73.9244 71.5777 74.0749 71.6179 74.2434 71.6628Z" fill="#F7931A"/>
<path d="M134.9 46.536H138.652V72.548H134.9V46.536ZM118.408 48.608H122.104V54.908H127.452V48.608H131.148V66.5H118.408V48.608ZM122.104 57.792V63.504H127.452V57.792H122.104ZM145.65 59.92H163.878V62.832H145.65V59.92ZM142.906 66.5H166.37V69.524H142.906V66.5ZM145.65 48.44H163.654V51.436H149.43V60.732H145.65V48.44ZM148.282 54.152H163.066V57.036H148.282V54.152ZM171.296 48.72H187.62V51.688H171.296V48.72ZM168.636 66.528H192.072V69.524H168.636V66.528ZM186.136 48.72H189.804V50.988C189.804 54.124 189.832 57.792 188.628 63.42L184.96 63.028C186.136 57.764 186.136 53.984 186.136 50.988V48.72ZM186.808 54.964V57.764L170.988 58.632L170.484 55.468L186.808 54.964ZM176.952 60.312H180.676V67.62H176.952V60.312ZM212.201 46.592H215.953V65.212H212.201V46.592ZM198.677 69.076H216.597V72.044H198.677V69.076ZM198.677 63.336H202.401V70.28H198.677V63.336ZM201.841 48.216C205.817 48.216 208.869 50.96 208.869 54.796C208.869 58.604 205.817 61.376 201.841 61.376C197.865 61.376 194.785 58.604 194.785 54.796C194.785 50.96 197.865 48.216 201.841 48.216ZM201.841 51.436C199.909 51.436 198.425 52.668 198.425 54.796C198.425 56.896 199.909 58.128 201.841 58.128C203.745 58.128 205.229 56.896 205.229 54.796C205.229 52.668 203.745 51.436 201.841 51.436Z" fill="black"/>
<path d="M122.816 92.256C123.221 92.32 123.589 92.4853 123.92 92.752C124.261 93.0187 124.528 93.3493 124.72 93.744C124.923 94.1387 125.024 94.56 125.024 95.008C125.024 95.5733 124.88 96.0853 124.592 96.544C124.304 96.992 123.883 97.3493 123.328 97.616C122.784 97.872 122.139 98 121.392 98H117.232V86.848H121.232C121.989 86.848 122.635 86.976 123.168 87.232C123.701 87.4773 124.101 87.8133 124.368 88.24C124.635 88.6667 124.768 89.1467 124.768 89.68C124.768 90.3413 124.587 90.8907 124.224 91.328C123.872 91.7547 123.403 92.064 122.816 92.256ZM118.688 91.664H121.136C121.819 91.664 122.347 91.504 122.72 91.184C123.093 90.864 123.28 90.4213 123.28 89.856C123.28 89.2907 123.093 88.848 122.72 88.528C122.347 88.208 121.808 88.048 121.104 88.048H118.688V91.664ZM121.264 96.8C121.989 96.8 122.555 96.6293 122.96 96.288C123.365 95.9467 123.568 95.472 123.568 94.864C123.568 94.2453 123.355 93.76 122.928 93.408C122.501 93.0453 121.931 92.864 121.216 92.864H118.688V96.8H121.264ZM133.909 86.848V88.032H130.869V98H129.413V88.032H126.357V86.848H133.909ZM135.157 92.416C135.157 91.328 135.402 90.352 135.893 89.488C136.383 88.6133 137.05 87.9307 137.893 87.44C138.746 86.9493 139.69 86.704 140.725 86.704C141.941 86.704 143.002 86.9973 143.909 87.584C144.815 88.1707 145.477 89.0027 145.893 90.08H144.149C143.839 89.408 143.391 88.8907 142.805 88.528C142.229 88.1653 141.535 87.984 140.725 87.984C139.946 87.984 139.247 88.1653 138.629 88.528C138.01 88.8907 137.525 89.408 137.173 90.08C136.821 90.7413 136.645 91.52 136.645 92.416C136.645 93.3013 136.821 94.08 137.173 94.752C137.525 95.4133 138.01 95.9253 138.629 96.288C139.247 96.6507 139.946 96.832 140.725 96.832C141.535 96.832 142.229 96.656 142.805 96.304C143.391 95.9413 143.839 95.424 144.149 94.752H145.893C145.477 95.8187 144.815 96.6453 143.909 97.232C143.002 97.808 141.941 98.096 140.725 98.096C139.69 98.096 138.746 97.856 137.893 97.376C137.05 96.8853 136.383 96.208 135.893 95.344C135.402 94.48 135.157 93.504 135.157 92.416ZM154.14 91.52V92.752H147.756V91.52H154.14ZM158.297 86.848V93.904C158.297 94.896 158.537 95.632 159.017 96.112C159.507 96.592 160.185 96.832 161.049 96.832C161.902 96.832 162.569 96.592 163.049 96.112C163.539 95.632 163.785 94.896 163.785 93.904V86.848H165.241V93.888C165.241 94.816 165.054 95.6 164.681 96.24C164.307 96.8693 163.801 97.3387 163.161 97.648C162.531 97.9573 161.822 98.112 161.033 98.112C160.243 98.112 159.529 97.9573 158.889 97.648C158.259 97.3387 157.758 96.8693 157.385 96.24C157.022 95.6 156.841 94.816 156.841 93.888V86.848H158.297ZM171.206 98.112C170.47 98.112 169.808 97.984 169.222 97.728C168.646 97.4613 168.192 97.0987 167.862 96.64C167.531 96.1707 167.36 95.632 167.35 95.024H168.902C168.955 95.5467 169.168 95.9893 169.542 96.352C169.926 96.704 170.48 96.88 171.206 96.88C171.899 96.88 172.443 96.7093 172.838 96.368C173.243 96.016 173.446 95.568 173.446 95.024C173.446 94.5973 173.328 94.2507 173.094 93.984C172.859 93.7173 172.566 93.5147 172.214 93.376C171.862 93.2373 171.387 93.088 170.79 92.928C170.054 92.736 169.462 92.544 169.014 92.352C168.576 92.16 168.198 91.8613 167.878 91.456C167.568 91.04 167.414 90.4853 167.414 89.792C167.414 89.184 167.568 88.6453 167.878 88.176C168.187 87.7067 168.619 87.344 169.174 87.088C169.739 86.832 170.384 86.704 171.11 86.704C172.155 86.704 173.008 86.9653 173.67 87.488C174.342 88.0107 174.72 88.704 174.806 89.568H173.206C173.152 89.1413 172.928 88.768 172.534 88.448C172.139 88.1173 171.616 87.952 170.966 87.952C170.358 87.952 169.862 88.112 169.478 88.432C169.094 88.7413 168.902 89.1787 168.902 89.744C168.902 90.1493 169.014 90.48 169.238 90.736C169.472 90.992 169.755 91.1893 170.086 91.328C170.427 91.456 170.902 91.6053 171.51 91.776C172.246 91.9787 172.838 92.1813 173.286 92.384C173.734 92.576 174.118 92.88 174.438 93.296C174.758 93.7013 174.918 94.256 174.918 94.96C174.918 95.504 174.774 96.016 174.486 96.496C174.198 96.976 173.771 97.3653 173.206 97.664C172.64 97.9627 171.974 98.112 171.206 98.112ZM180.532 86.848C181.748 86.848 182.799 87.0773 183.684 87.536C184.58 87.984 185.263 88.6293 185.732 89.472C186.212 90.3147 186.452 91.3067 186.452 92.448C186.452 93.5893 186.212 94.5813 185.732 95.424C185.263 96.256 184.58 96.896 183.684 97.344C182.799 97.7813 181.748 98 180.532 98H177.06V86.848H180.532ZM180.532 96.8C181.972 96.8 183.071 96.4213 183.828 95.664C184.585 94.896 184.964 93.824 184.964 92.448C184.964 91.0613 184.58 89.9787 183.812 89.2C183.055 88.4213 181.961 88.032 180.532 88.032H178.516V96.8H180.532Z" fill="#6B7280"/>
<rect x="260" y="56" width="62" height="36" rx="18" fill="#FFE4D9"/>
<path d="M281.44 67.2C283.696 67.2 285.328 68.496 285.328 70.368C285.328 72.208 283.696 73.536 281.44 73.536C279.2 73.536 277.568 72.208 277.568 70.368C277.568 68.496 279.2 67.2 281.44 67.2ZM281.44 68.928C280.368 68.928 279.6 69.44 279.6 70.368C279.6 71.28 280.368 71.792 281.44 71.792C282.528 71.792 283.296 71.28 283.296 70.368C283.296 69.44 282.528 68.928 281.44 68.928ZM280.448 75.008H282.576V80.976H280.448V75.008ZM286.928 66.608H289.04V81.424H286.928V66.608ZM276.944 76.128L276.688 74.4C279.28 74.4 282.944 74.368 286.08 73.888L286.224 75.44C283.008 76.08 279.504 76.112 276.944 76.128ZM301.631 66.608H303.759V75.552H301.631V66.608ZM299.775 70.944H302.495V72.672H299.775V70.944ZM293.887 76.176H303.759V81.264H293.887V76.176ZM301.679 77.856H295.983V79.584H301.679V77.856ZM291.407 67.888H300.063V69.568H291.407V67.888ZM295.743 70.048C297.807 70.048 299.279 71.152 299.279 72.72C299.279 74.304 297.807 75.376 295.743 75.376C293.679 75.376 292.191 74.304 292.191 72.72C292.191 71.152 293.679 70.048 295.743 70.048ZM295.743 71.632C294.831 71.632 294.223 72 294.223 72.72C294.223 73.44 294.831 73.824 295.743 73.824C296.639 73.824 297.247 73.44 297.247 72.72C297.247 72 296.639 71.632 295.743 71.632ZM294.671 66.48H296.799V69.088H294.671V66.48Z" fill="#FF4D00"/>
<rect x="44" y="203" width="1256" height="68" rx="8" fill="#F9FAFB"/>
<path d="M78.816 229.624H80.96V240.424H78.816V229.624ZM71.088 242.472H81.328V244.168H71.088V242.472ZM71.088 239.384H73.216V243.352H71.088V239.384ZM72.112 230.424H73.872V231.864C73.872 234.76 72.544 237.432 69.664 238.44L68.592 236.744C71.072 235.896 72.112 233.832 72.112 231.864V230.424ZM72.544 230.424H74.288V231.864C74.288 233.8 75.296 235.704 77.728 236.488L76.64 238.184C73.84 237.24 72.544 234.728 72.544 231.864V230.424ZM84.4148 230.888H91.9828V235.32H86.5428V237.112H84.4308V233.768H89.8708V232.552H84.4148V230.888ZM84.4308 236.568H92.3028V238.216H84.4308V236.568ZM87.1988 237.688H89.3428V240.584H87.1988V237.688ZM93.5988 229.592H95.7268V244.456H93.5988V229.592ZM83.6788 241.848L83.4228 240.12C86.2548 240.12 89.7428 240.104 92.7828 239.784L92.9428 241.32C89.7428 241.832 86.4308 241.864 83.6788 241.848ZM103.662 230.04H105.534V230.728C105.534 233.576 103.294 235.992 99.4055 236.568L98.5735 234.856C101.982 234.408 103.662 232.472 103.662 230.728V230.04ZM104.062 230.04H105.918V230.728C105.918 232.456 107.614 234.408 111.006 234.856L110.19 236.568C106.302 235.992 104.062 233.576 104.062 230.728V230.04ZM103.678 239H105.79V244.424H103.678V239ZM98.0935 237.656H111.486V239.384H98.0935V237.656ZM118.028 231.176H119.916V231.528C119.916 233.88 117.932 235.864 114.156 236.296L113.388 234.616C116.604 234.264 118.028 232.808 118.028 231.528V231.176ZM119.068 231.176H120.956V231.528C120.956 232.824 122.396 234.264 125.612 234.616L124.828 236.296C121.068 235.864 119.068 233.896 119.068 231.528V231.176ZM114.012 230.248H124.988V231.912H114.012V230.248ZM112.796 236.984H126.204V238.68H112.796V236.984ZM118.604 238.056H120.748V241.176H118.604V238.056ZM114.348 242.472H124.732V244.168H114.348V242.472ZM114.348 239.912H116.46V243.064H114.348V239.912Z" fill="#9CA3AF"/>
<rect x="151" y="225" width="45" height="24" rx="12" fill="#E6F5FF"/>
<path d="M160.687 236.512C160.687 235.128 160.935 234.044 161.431 233.26C161.935 232.476 162.767 232.084 163.927 232.084C165.087 232.084 165.915 232.476 166.411 233.26C166.915 234.044 167.167 235.128 167.167 236.512C167.167 237.904 166.915 238.996 166.411 239.788C165.915 240.58 165.087 240.976 163.927 240.976C162.767 240.976 161.935 240.58 161.431 239.788C160.935 238.996 160.687 237.904 160.687 236.512ZM165.511 236.512C165.511 235.92 165.471 235.424 165.391 235.024C165.319 234.616 165.167 234.284 164.935 234.028C164.711 233.772 164.375 233.644 163.927 233.644C163.479 233.644 163.139 233.772 162.907 234.028C162.683 234.284 162.531 234.616 162.451 235.024C162.379 235.424 162.343 235.92 162.343 236.512C162.343 237.12 162.379 237.632 162.451 238.048C162.523 238.456 162.675 238.788 162.907 239.044C163.139 239.292 163.479 239.416 163.927 239.416C164.375 239.416 164.715 239.292 164.947 239.044C165.179 238.788 165.331 238.456 165.403 238.048C165.475 237.632 165.511 237.12 165.511 236.512ZM169.381 241.084C169.077 241.084 168.825 240.992 168.625 240.808C168.433 240.616 168.337 240.38 168.337 240.1C168.337 239.82 168.433 239.588 168.625 239.404C168.825 239.212 169.077 239.116 169.381 239.116C169.677 239.116 169.921 239.212 170.113 239.404C170.305 239.588 170.401 239.82 170.401 240.1C170.401 240.38 170.305 240.616 170.113 240.808C169.921 240.992 169.677 241.084 169.381 241.084ZM173.506 238.54C173.57 238.892 173.714 239.164 173.938 239.356C174.17 239.54 174.478 239.632 174.862 239.632C175.358 239.632 175.718 239.428 175.942 239.02C176.166 238.604 176.278 237.908 176.278 236.932C176.094 237.188 175.834 237.388 175.498 237.532C175.17 237.676 174.814 237.748 174.43 237.748C173.918 237.748 173.454 237.644 173.038 237.436C172.63 237.22 172.306 236.904 172.066 236.488C171.826 236.064 171.706 235.552 171.706 234.952C171.706 234.064 171.97 233.36 172.498 232.84C173.026 232.312 173.746 232.048 174.658 232.048C175.794 232.048 176.594 232.412 177.058 233.14C177.53 233.868 177.766 234.964 177.766 236.428C177.766 237.468 177.674 238.32 177.49 238.984C177.314 239.648 177.006 240.152 176.566 240.496C176.134 240.84 175.542 241.012 174.79 241.012C174.198 241.012 173.694 240.9 173.278 240.676C172.862 240.444 172.542 240.144 172.318 239.776C172.102 239.4 171.978 238.988 171.946 238.54H173.506ZM174.778 236.38C175.194 236.38 175.522 236.252 175.762 235.996C176.002 235.74 176.122 235.396 176.122 234.964C176.122 234.492 175.994 234.128 175.738 233.872C175.49 233.608 175.15 233.476 174.718 233.476C174.286 233.476 173.942 233.612 173.686 233.884C173.438 234.148 173.314 234.5 173.314 234.94C173.314 235.364 173.434 235.712 173.674 235.984C173.922 236.248 174.29 236.38 174.778 236.38ZM181.018 238.54C181.082 238.892 181.226 239.164 181.45 239.356C181.682 239.54 181.99 239.632 182.374 239.632C182.87 239.632 183.23 239.428 183.454 239.02C183.678 238.604 183.79 237.908 183.79 236.932C183.606 237.188 183.346 237.388 183.01 237.532C182.682 237.676 182.326 237.748 181.942 237.748C181.43 237.748 180.966 237.644 180.55 237.436C180.142 237.22 179.818 236.904 179.578 236.488C179.338 236.064 179.218 235.552 179.218 234.952C179.218 234.064 179.482 233.36 180.01 232.84C180.538 232.312 181.258 232.048 182.17 232.048C183.306 232.048 184.106 232.412 184.57 233.14C185.042 233.868 185.278 234.964 185.278 236.428C185.278 237.468 185.186 238.32 185.002 238.984C184.826 239.648 184.518 240.152 184.078 240.496C183.646 240.84 183.054 241.012 182.302 241.012C181.71 241.012 181.206 240.9 180.79 240.676C180.374 240.444 180.054 240.144 179.83 239.776C179.614 239.4 179.49 238.988 179.458 238.54H181.018ZM182.29 236.38C182.706 236.38 183.034 236.252 183.274 235.996C183.514 235.74 183.634 235.396 183.634 234.964C183.634 234.492 183.506 234.128 183.25 233.872C183.002 233.608 182.662 233.476 182.23 233.476C181.798 233.476 181.454 233.612 181.198 233.884C180.95 234.148 180.826 234.5 180.826 234.94C180.826 235.364 180.946 235.712 181.186 235.984C181.434 236.248 181.802 236.38 182.29 236.38Z" fill="#0198FF"/>
<rect x="202.5" y="225.5" width="44" height="23" rx="11.5" fill="white"/>
<path d="M212.081 236.512C212.081 235.128 212.329 234.044 212.825 233.26C213.329 232.476 214.161 232.084 215.321 232.084C216.481 232.084 217.309 232.476 217.805 233.26C218.309 234.044 218.561 235.128 218.561 236.512C218.561 237.904 218.309 238.996 217.805 239.788C217.309 240.58 216.481 240.976 215.321 240.976C214.161 240.976 213.329 240.58 212.825 239.788C212.329 238.996 212.081 237.904 212.081 236.512ZM216.905 236.512C216.905 235.92 216.865 235.424 216.785 235.024C216.713 234.616 216.561 234.284 216.329 234.028C216.105 233.772 215.769 233.644 215.321 233.644C214.873 233.644 214.533 233.772 214.301 234.028C214.077 234.284 213.925 234.616 213.845 235.024C213.773 235.424 213.737 235.92 213.737 236.512C213.737 237.12 213.773 237.632 213.845 238.048C213.917 238.456 214.069 238.788 214.301 239.044C214.533 239.292 214.873 239.416 215.321 239.416C215.769 239.416 216.109 239.292 216.341 239.044C216.573 238.788 216.725 238.456 216.797 238.048C216.869 237.632 216.905 237.12 216.905 236.512ZM220.775 241.084C220.471 241.084 220.219 240.992 220.019 240.808C219.827 240.616 219.731 240.38 219.731 240.1C219.731 239.82 219.827 239.588 220.019 239.404C220.219 239.212 220.471 239.116 220.775 239.116C221.071 239.116 221.315 239.212 221.507 239.404C221.699 239.588 221.795 239.82 221.795 240.1C221.795 240.38 221.699 240.616 221.507 240.808C221.315 240.992 221.071 241.084 220.775 241.084ZM224.9 238.54C224.964 238.892 225.108 239.164 225.332 239.356C225.564 239.54 225.872 239.632 226.256 239.632C226.752 239.632 227.112 239.428 227.336 239.02C227.56 238.604 227.672 237.908 227.672 236.932C227.488 237.188 227.228 237.388 226.892 237.532C226.564 237.676 226.208 237.748 225.824 237.748C225.312 237.748 224.848 237.644 224.432 237.436C224.024 237.22 223.7 236.904 223.46 236.488C223.22 236.064 223.1 235.552 223.1 234.952C223.1 234.064 223.364 233.36 223.892 232.84C224.42 232.312 225.14 232.048 226.052 232.048C227.188 232.048 227.988 232.412 228.452 233.14C228.924 233.868 229.16 234.964 229.16 236.428C229.16 237.468 229.068 238.32 228.884 238.984C228.708 239.648 228.4 240.152 227.96 240.496C227.528 240.84 226.936 241.012 226.184 241.012C225.592 241.012 225.088 240.9 224.672 240.676C224.256 240.444 223.936 240.144 223.712 239.776C223.496 239.4 223.372 238.988 223.34 238.54H224.9ZM226.172 236.38C226.588 236.38 226.916 236.252 227.156 235.996C227.396 235.74 227.516 235.396 227.516 234.964C227.516 234.492 227.388 234.128 227.132 233.872C226.884 233.608 226.544 233.476 226.112 233.476C225.68 233.476 225.336 233.612 225.08 233.884C224.832 234.148 224.708 234.5 224.708 234.94C224.708 235.364 224.828 235.712 225.068 235.984C225.316 236.248 225.684 236.38 226.172 236.38ZM236.348 233.704H232.46V235.756C232.628 235.548 232.868 235.38 233.18 235.252C233.492 235.116 233.824 235.048 234.176 235.048C234.816 235.048 235.34 235.188 235.748 235.468C236.156 235.748 236.452 236.108 236.636 236.548C236.82 236.98 236.912 237.444 236.912 237.94C236.912 238.86 236.648 239.6 236.12 240.16C235.6 240.72 234.856 241 233.888 241C232.976 241 232.248 240.772 231.704 240.316C231.16 239.86 230.852 239.264 230.78 238.528H232.412C232.484 238.848 232.644 239.104 232.892 239.296C233.148 239.488 233.472 239.584 233.864 239.584C234.336 239.584 234.692 239.436 234.932 239.14C235.172 238.844 235.292 238.452 235.292 237.964C235.292 237.468 235.168 237.092 234.92 236.836C234.68 236.572 234.324 236.44 233.852 236.44C233.516 236.44 233.236 236.524 233.012 236.692C232.788 236.86 232.628 237.084 232.532 237.364H230.924V232.228H236.348V233.704Z" fill="#9CA3AF"/>
<rect x="202.5" y="225.5" width="44" height="23" rx="11.5" stroke="#E5E7EB"/>
<path d="M278.104 243L275.448 238.44H273.688V243H272.232V231.848H275.832C276.675 231.848 277.384 231.992 277.96 232.28C278.547 232.568 278.984 232.957 279.272 233.448C279.56 233.939 279.704 234.499 279.704 235.128C279.704 235.896 279.48 236.573 279.032 237.16C278.595 237.747 277.933 238.136 277.048 238.328L279.848 243H278.104ZM273.688 237.272H275.832C276.621 237.272 277.213 237.08 277.608 236.696C278.003 236.301 278.2 235.779 278.2 235.128C278.2 234.467 278.003 233.955 277.608 233.592C277.224 233.229 276.632 233.048 275.832 233.048H273.688V237.272ZM295.982 231.848L292.75 243H291.118L288.526 234.024L285.838 243L284.222 243.016L281.102 231.848H282.654L285.086 241.304L287.774 231.848H289.406L291.966 241.272L294.414 231.848H295.982ZM303.297 231.848V243H301.841V231.848H303.297ZM310.051 234.072C311.118 234.072 311.982 234.397 312.643 235.048C313.304 235.688 313.635 236.616 313.635 237.832V243H312.195V238.04C312.195 237.165 311.976 236.499 311.539 236.04C311.102 235.571 310.504 235.336 309.747 235.336C308.979 235.336 308.366 235.576 307.907 236.056C307.459 236.536 307.235 237.235 307.235 238.152V243H305.779V234.232H307.235V235.48C307.523 235.032 307.912 234.685 308.403 234.44C308.904 234.195 309.454 234.072 310.051 234.072ZM315.469 238.584C315.469 237.688 315.651 236.904 316.013 236.232C316.376 235.549 316.872 235.021 317.501 234.648C318.141 234.275 318.856 234.088 319.645 234.088C320.328 234.088 320.963 234.248 321.549 234.568C322.136 234.877 322.584 235.288 322.893 235.8V231.16H324.365V243H322.893V241.352C322.605 241.875 322.179 242.307 321.613 242.648C321.048 242.979 320.387 243.144 319.629 243.144C318.851 243.144 318.141 242.952 317.501 242.568C316.872 242.184 316.376 241.645 316.013 240.952C315.651 240.259 315.469 239.469 315.469 238.584ZM322.893 238.6C322.893 237.939 322.76 237.363 322.493 236.872C322.227 236.381 321.864 236.008 321.405 235.752C320.957 235.485 320.461 235.352 319.917 235.352C319.373 235.352 318.877 235.48 318.429 235.736C317.981 235.992 317.624 236.365 317.357 236.856C317.091 237.347 316.957 237.923 316.957 238.584C316.957 239.256 317.091 239.843 317.357 240.344C317.624 240.835 317.981 241.213 318.429 241.48C318.877 241.736 319.373 241.864 319.917 241.864C320.461 241.864 320.957 241.736 321.405 241.48C321.864 241.213 322.227 240.835 322.493 240.344C322.76 239.843 322.893 239.261 322.893 238.6ZM334.826 238.28C334.826 238.557 334.81 238.851 334.778 239.16H327.77C327.823 240.024 328.116 240.701 328.65 241.192C329.194 241.672 329.85 241.912 330.618 241.912C331.247 241.912 331.77 241.768 332.186 241.48C332.612 241.181 332.911 240.787 333.082 240.296H334.65C334.415 241.139 333.946 241.827 333.242 242.36C332.538 242.883 331.663 243.144 330.618 243.144C329.786 243.144 329.039 242.957 328.378 242.584C327.727 242.211 327.215 241.683 326.842 241C326.468 240.307 326.282 239.507 326.282 238.6C326.282 237.693 326.463 236.899 326.826 236.216C327.188 235.533 327.695 235.011 328.346 234.648C329.007 234.275 329.764 234.088 330.618 234.088C331.45 234.088 332.186 234.269 332.826 234.632C333.466 234.995 333.956 235.496 334.298 236.136C334.65 236.765 334.826 237.48 334.826 238.28ZM333.322 237.976C333.322 237.421 333.199 236.947 332.954 236.552C332.708 236.147 332.372 235.843 331.946 235.64C331.53 235.427 331.066 235.32 330.554 235.32C329.818 235.32 329.188 235.555 328.666 236.024C328.154 236.493 327.86 237.144 327.786 237.976H333.322ZM341.324 243L339.244 239.736L337.244 243H335.724L338.556 238.648L335.724 234.232H337.372L339.452 237.48L341.436 234.232H342.956L340.14 238.568L342.972 243H341.324Z" fill="#9CA3AF"/>
<path d="M361.94 240.84C363.22 239.773 364.24 238.887 365 238.18C365.76 237.46 366.393 236.713 366.9 235.94C367.407 235.167 367.66 234.407 367.66 233.66C367.66 232.98 367.5 232.447 367.18 232.06C366.86 231.673 366.367 231.48 365.7 231.48C365.033 231.48 364.52 231.707 364.16 232.16C363.8 232.6 363.613 233.207 363.6 233.98H360.88C360.933 232.38 361.407 231.167 362.3 230.34C363.207 229.513 364.353 229.1 365.74 229.1C367.26 229.1 368.427 229.507 369.24 230.32C370.053 231.12 370.46 232.18 370.46 233.5C370.46 234.54 370.18 235.533 369.62 236.48C369.06 237.427 368.42 238.253 367.7 238.96C366.98 239.653 366.04 240.493 364.88 241.48H370.78V243.8H360.9V241.72L361.94 240.84ZM374.104 244.14C373.598 244.14 373.178 243.987 372.844 243.68C372.524 243.36 372.364 242.967 372.364 242.5C372.364 242.033 372.524 241.647 372.844 241.34C373.178 241.02 373.598 240.86 374.104 240.86C374.598 240.86 375.004 241.02 375.324 241.34C375.644 241.647 375.804 242.033 375.804 242.5C375.804 242.967 375.644 243.36 375.324 243.68C375.004 243.987 374.598 244.14 374.104 244.14ZM387.02 231.54L381.7 244H378.86L384.22 231.86H377.38V229.46H387.02V231.54ZM397.977 231.54L392.657 244H389.817L395.177 231.86H388.337V229.46H397.977V231.54Z" fill="#111111"/>
<path d="M480 229L480 245" stroke="#D1D5DB"/>
<path d="M500.688 237.416C500.688 236.328 500.933 235.352 501.424 234.488C501.915 233.613 502.581 232.931 503.424 232.44C504.277 231.949 505.221 231.704 506.256 231.704C507.472 231.704 508.533 231.997 509.44 232.584C510.347 233.171 511.008 234.003 511.424 235.08H509.68C509.371 234.408 508.923 233.891 508.336 233.528C507.76 233.165 507.067 232.984 506.256 232.984C505.477 232.984 504.779 233.165 504.16 233.528C503.541 233.891 503.056 234.408 502.704 235.08C502.352 235.741 502.176 236.52 502.176 237.416C502.176 238.301 502.352 239.08 502.704 239.752C503.056 240.413 503.541 240.925 504.16 241.288C504.779 241.651 505.477 241.832 506.256 241.832C507.067 241.832 507.76 241.656 508.336 241.304C508.923 240.941 509.371 240.424 509.68 239.752H511.424C511.008 240.819 510.347 241.645 509.44 242.232C508.533 242.808 507.472 243.096 506.256 243.096C505.221 243.096 504.277 242.856 503.424 242.376C502.581 241.885 501.915 241.208 501.424 240.344C500.933 239.48 500.688 238.504 500.688 237.416ZM522.807 231.848L518.599 243H516.919L512.711 231.848H514.263L517.767 241.464L521.271 231.848H522.807ZM530.996 240.52H526.132L525.236 243H523.7L527.732 231.912H529.412L533.428 243H531.892L530.996 240.52ZM530.58 239.336L528.564 233.704L526.548 239.336H530.58ZM541.057 243L538.401 238.44H536.641V243H535.185V231.848H538.785C539.628 231.848 540.337 231.992 540.913 232.28C541.5 232.568 541.937 232.957 542.225 233.448C542.513 233.939 542.657 234.499 542.657 235.128C542.657 235.896 542.433 236.573 541.985 237.16C541.548 237.747 540.886 238.136 540.001 238.328L542.801 243H541.057ZM536.641 237.272H538.785C539.574 237.272 540.166 237.08 540.561 236.696C540.956 236.301 541.153 235.779 541.153 235.128C541.153 234.467 540.956 233.955 540.561 233.592C540.177 233.229 539.585 233.048 538.785 233.048H536.641V237.272Z" fill="#9CA3AF"/>
<path d="M560.72 232V229.42H565.54V244H562.66V232H560.72ZM568.306 236.52C568.306 234.213 568.719 232.407 569.546 231.1C570.386 229.793 571.773 229.14 573.706 229.14C575.639 229.14 577.019 229.793 577.846 231.1C578.686 232.407 579.106 234.213 579.106 236.52C579.106 238.84 578.686 240.66 577.846 241.98C577.019 243.3 575.639 243.96 573.706 243.96C571.773 243.96 570.386 243.3 569.546 241.98C568.719 240.66 568.306 238.84 568.306 236.52ZM576.346 236.52C576.346 235.533 576.279 234.707 576.146 234.04C576.026 233.36 575.773 232.807 575.386 232.38C575.013 231.953 574.453 231.74 573.706 231.74C572.959 231.74 572.393 231.953 572.006 232.38C571.633 232.807 571.379 233.36 571.246 234.04C571.126 234.707 571.066 235.533 571.066 236.52C571.066 237.533 571.126 238.387 571.246 239.08C571.366 239.76 571.619 240.313 572.006 240.74C572.393 241.153 572.959 241.36 573.706 241.36C574.453 241.36 575.019 241.153 575.406 240.74C575.793 240.313 576.046 239.76 576.166 239.08C576.286 238.387 576.346 237.533 576.346 236.52ZM582.796 244.14C582.289 244.14 581.869 243.987 581.536 243.68C581.216 243.36 581.056 242.967 581.056 242.5C581.056 242.033 581.216 241.647 581.536 241.34C581.869 241.02 582.289 240.86 582.796 240.86C583.289 240.86 583.696 241.02 584.016 241.34C584.336 241.647 584.496 242.033 584.496 242.5C584.496 242.967 584.336 243.36 584.016 243.68C583.696 243.987 583.289 244.14 582.796 244.14ZM596.231 231.84H589.751V235.26C590.031 234.913 590.431 234.633 590.951 234.42C591.471 234.193 592.024 234.08 592.611 234.08C593.678 234.08 594.551 234.313 595.231 234.78C595.911 235.247 596.404 235.847 596.711 236.58C597.018 237.3 597.171 238.073 597.171 238.9C597.171 240.433 596.731 241.667 595.851 242.6C594.984 243.533 593.744 244 592.131 244C590.611 244 589.398 243.62 588.491 242.86C587.584 242.1 587.071 241.107 586.951 239.88H589.671C589.791 240.413 590.058 240.84 590.471 241.16C590.898 241.48 591.438 241.64 592.091 241.64C592.878 241.64 593.471 241.393 593.871 240.9C594.271 240.407 594.471 239.753 594.471 238.94C594.471 238.113 594.264 237.487 593.851 237.06C593.451 236.62 592.858 236.4 592.071 236.4C591.511 236.4 591.044 236.54 590.671 236.82C590.298 237.1 590.031 237.473 589.871 237.94H587.191V229.38H596.231V231.84Z" fill="#111111"/>
<path d="M680 229L680 245" stroke="#D1D5DB"/>
<path d="M710.448 229.848L706.24 241H704.56L700.352 229.848H701.904L705.408 239.464L708.912 229.848H710.448ZM718.637 238.52H713.773L712.877 241H711.34L715.373 229.912H717.053L721.069 241H719.533L718.637 238.52ZM718.221 237.336L716.205 231.704L714.189 237.336H718.221ZM728.698 241L726.042 236.44H724.282V241H722.826V229.848H726.426C727.268 229.848 727.978 229.992 728.554 230.28C729.14 230.568 729.578 230.957 729.866 231.448C730.154 231.939 730.298 232.499 730.298 233.128C730.298 233.896 730.074 234.573 729.626 235.16C729.188 235.747 728.527 236.136 727.642 236.328L730.442 241H728.698ZM724.282 235.272H726.426C727.215 235.272 727.807 235.08 728.202 234.696C728.596 234.301 728.794 233.779 728.794 233.128C728.794 232.467 728.596 231.955 728.202 231.592C727.818 231.229 727.226 231.048 726.426 231.048H724.282V235.272Z" fill="#9CA3AF"/>
<path d="M758.34 231.54L753.02 244H750.18L755.54 231.86H748.7V229.46H758.34V231.54ZM761.577 244.14C761.07 244.14 760.65 243.987 760.317 243.68C759.997 243.36 759.837 242.967 759.837 242.5C759.837 242.033 759.997 241.647 760.317 241.34C760.65 241.02 761.07 240.86 761.577 240.86C762.07 240.86 762.477 241.02 762.797 241.34C763.117 241.647 763.277 242.033 763.277 242.5C763.277 242.967 763.117 243.36 762.797 243.68C762.477 243.987 762.07 244.14 761.577 244.14ZM774.492 231.54L769.172 244H766.332L771.692 231.86H764.852V229.46H774.492V231.54ZM776.049 241.16V238.96L782.589 229.6H785.849V238.72H787.609V241.16H785.849V244H783.049V241.16H776.049ZM783.229 232.6L779.129 238.72H783.229V232.6Z" fill="#111111"/>
<rect x="1165" y="44" width="135" height="28" rx="14" fill="#E6F5FF"/>
<path d="M1205.81 53.156H1206.67V53.612C1206.67 55.556 1204.61 56.984 1202.42 57.356L1202.04 56.564C1203.95 56.288 1205.81 55.04 1205.81 53.612V53.156ZM1206.06 53.156H1206.91V53.612C1206.91 55.04 1208.78 56.288 1210.68 56.564L1210.31 57.356C1208.11 56.984 1206.06 55.556 1206.06 53.612V53.156ZM1205.84 58.796H1206.83V62.936H1205.84V58.796ZM1201.46 58.268H1211.27V59.084H1201.46V58.268ZM1202.38 52.76H1210.32V53.564H1202.38V52.76ZM1219.92 52.088H1220.91V60.02H1219.92V52.088ZM1220.6 55.376H1222.52V56.204H1220.6V55.376ZM1216.95 52.928H1218.01C1218.01 55.736 1216.04 57.788 1212.93 58.784L1212.5 57.968C1215.24 57.128 1216.95 55.448 1216.95 53.36V52.928ZM1212.95 52.928H1217.46V53.744H1212.95V52.928ZM1214.15 61.88H1221.39V62.696H1214.15V61.88ZM1214.15 59.216H1215.14V62.204H1214.15V59.216ZM1234.07 52.088H1235.07V57.56H1234.07V52.088ZM1234.79 54.332H1236.68V55.16H1234.79V54.332ZM1227.17 52.556H1228.17V56.72H1227.17V52.556ZM1227.17 56.192H1228.03C1229.57 56.192 1231.19 56.084 1232.96 55.724L1233.08 56.552C1231.25 56.924 1229.63 57.032 1228.03 57.032H1227.17V56.192ZM1228.18 58.076H1235.07V60.752H1229.19V62.396H1228.21V59.984H1234.09V58.88H1228.18V58.076ZM1228.21 61.988H1235.47V62.792H1228.21V61.988ZM1245.71 52.088H1246.72V62.936H1245.71V52.088ZM1239.23 53.048H1239.98V55.484C1239.98 57.212 1239.56 59.408 1238.19 60.452L1237.54 59.744C1238.86 58.772 1239.23 56.876 1239.23 55.484V53.048ZM1239.45 53.048H1240.18V55.484C1240.18 56.792 1240.46 58.784 1241.79 59.816L1241.24 60.572C1239.77 59.48 1239.45 57.116 1239.45 55.484V53.048ZM1242.31 53.048H1243.04V55.484C1243.04 57.188 1242.7 59.504 1241.24 60.572L1240.69 59.816C1242.02 58.82 1242.31 56.864 1242.31 55.484V53.048ZM1242.51 53.048H1243.25V55.484C1243.25 56.924 1243.63 58.796 1244.95 59.744L1244.33 60.476C1242.92 59.444 1242.51 57.272 1242.51 55.484V53.048Z" fill="#0198FF"/>
<path d="M1257 54.25L1260.75 58L1257 61.75" stroke="#0198FF" stroke-linecap="round" stroke-linejoin="round"/>
<path d="M1075.71 61.978C1076.9 61.026 1077.83 60.2467 1078.5 59.64C1079.17 59.024 1079.74 58.3847 1080.19 57.722C1080.66 57.05 1080.89 56.392 1080.89 55.748C1080.89 55.1413 1080.74 54.6653 1080.45 54.32C1080.16 53.9653 1079.69 53.788 1079.03 53.788C1078.4 53.788 1077.9 53.9887 1077.55 54.39C1077.2 54.782 1077.02 55.3093 1076.99 55.972H1075.76C1075.79 54.9267 1076.11 54.1193 1076.71 53.55C1077.31 52.9807 1078.08 52.696 1079.02 52.696C1079.98 52.696 1080.74 52.962 1081.3 53.494C1081.87 54.026 1082.15 54.7587 1082.15 55.692C1082.15 56.4667 1081.92 57.2227 1081.45 57.96C1081 58.688 1080.47 59.332 1079.89 59.892C1079.3 60.4427 1078.55 61.0867 1077.63 61.824H1082.45V62.888H1075.71V61.978ZM1083.92 57.834C1083.92 56.2287 1084.18 54.978 1084.7 54.082C1085.23 53.1767 1086.14 52.724 1087.45 52.724C1088.75 52.724 1089.66 53.1767 1090.18 54.082C1090.7 54.978 1090.96 56.2287 1090.96 57.834C1090.96 59.4673 1090.7 60.7367 1090.18 61.642C1089.66 62.5473 1088.75 63 1087.45 63C1086.14 63 1085.23 62.5473 1084.7 61.642C1084.18 60.7367 1083.92 59.4673 1083.92 57.834ZM1089.7 57.834C1089.7 57.022 1089.65 56.336 1089.53 55.776C1089.43 55.2067 1089.21 54.7493 1088.88 54.404C1088.55 54.0587 1088.07 53.886 1087.45 53.886C1086.81 53.886 1086.33 54.0587 1085.99 54.404C1085.67 54.7493 1085.45 55.2067 1085.33 55.776C1085.23 56.336 1085.18 57.022 1085.18 57.834C1085.18 58.674 1085.23 59.3787 1085.33 59.948C1085.45 60.5173 1085.67 60.9747 1085.99 61.32C1086.33 61.6653 1086.81 61.838 1087.45 61.838C1088.07 61.838 1088.55 61.6653 1088.88 61.32C1089.21 60.9747 1089.43 60.5173 1089.53 59.948C1089.65 59.3787 1089.7 58.674 1089.7 57.834ZM1092.56 61.978C1093.74 61.026 1094.67 60.2467 1095.34 59.64C1096.02 59.024 1096.58 58.3847 1097.04 57.722C1097.5 57.05 1097.74 56.392 1097.74 55.748C1097.74 55.1413 1097.59 54.6653 1097.29 54.32C1097 53.9653 1096.53 53.788 1095.88 53.788C1095.24 53.788 1094.75 53.9887 1094.39 54.39C1094.05 54.782 1093.86 55.3093 1093.83 55.972H1092.6C1092.64 54.9267 1092.95 54.1193 1093.55 53.55C1094.15 52.9807 1094.92 52.696 1095.86 52.696C1096.82 52.696 1097.58 52.962 1098.14 53.494C1098.71 54.026 1099 54.7587 1099 55.692C1099 56.4667 1098.76 57.2227 1098.3 57.96C1097.84 58.688 1097.32 59.332 1096.73 59.892C1096.14 60.4427 1095.39 61.0867 1094.48 61.824H1099.29V62.888H1092.56V61.978ZM1100.74 55.426C1100.8 54.5673 1101.13 53.8953 1101.73 53.41C1102.33 52.9247 1103.1 52.682 1104.05 52.682C1104.69 52.682 1105.24 52.7987 1105.69 53.032C1106.16 53.256 1106.51 53.564 1106.74 53.956C1106.99 54.348 1107.11 54.7913 1107.11 55.286C1107.11 55.8647 1106.94 56.364 1106.6 56.784C1106.28 57.204 1105.85 57.4747 1105.31 57.596V57.666C1105.92 57.8153 1106.4 58.1093 1106.76 58.548C1107.11 58.9867 1107.29 59.5607 1107.29 60.27C1107.29 60.802 1107.17 61.2827 1106.92 61.712C1106.68 62.132 1106.32 62.4633 1105.83 62.706C1105.35 62.9487 1104.76 63.07 1104.08 63.07C1103.09 63.07 1102.28 62.8133 1101.65 62.3C1101.01 61.7773 1100.66 61.04 1100.58 60.088H1101.81C1101.88 60.648 1102.11 61.1053 1102.5 61.46C1102.89 61.8147 1103.42 61.992 1104.07 61.992C1104.72 61.992 1105.22 61.824 1105.55 61.488C1105.9 61.1427 1106.07 60.6993 1106.07 60.158C1106.07 59.458 1105.84 58.954 1105.37 58.646C1104.9 58.338 1104.2 58.184 1103.26 58.184H1102.93V57.12H1103.27C1104.13 57.1107 1104.78 56.9707 1105.22 56.7C1105.66 56.42 1105.87 55.9907 1105.87 55.412C1105.87 54.9173 1105.71 54.5207 1105.38 54.222C1105.07 53.9233 1104.61 53.774 1104.01 53.774C1103.43 53.774 1102.97 53.9233 1102.61 54.222C1102.26 54.5207 1102.05 54.922 1101.98 55.426H1100.74ZM1109.62 63.084C1109.38 63.084 1109.18 63 1109.01 62.832C1108.84 62.664 1108.76 62.4587 1108.76 62.216C1108.76 61.9733 1108.84 61.768 1109.01 61.6C1109.18 61.432 1109.38 61.348 1109.62 61.348C1109.86 61.348 1110.05 61.432 1110.21 61.6C1110.38 61.768 1110.46 61.9733 1110.46 62.216C1110.46 62.4587 1110.38 62.664 1110.21 62.832C1110.05 63 1109.86 63.084 1109.62 63.084ZM1111.95 57.834C1111.95 56.2287 1112.21 54.978 1112.73 54.082C1113.25 53.1767 1114.17 52.724 1115.48 52.724C1116.77 52.724 1117.68 53.1767 1118.21 54.082C1118.73 54.978 1118.99 56.2287 1118.99 57.834C1118.99 59.4673 1118.73 60.7367 1118.21 61.642C1117.68 62.5473 1116.77 63 1115.48 63C1114.17 63 1113.25 62.5473 1112.73 61.642C1112.21 60.7367 1111.95 59.4673 1111.95 57.834ZM1117.73 57.834C1117.73 57.022 1117.67 56.336 1117.56 55.776C1117.46 55.2067 1117.24 54.7493 1116.9 54.404C1116.58 54.0587 1116.1 53.886 1115.48 53.886C1114.84 53.886 1114.36 54.0587 1114.02 54.404C1113.69 54.7493 1113.47 55.2067 1113.36 55.776C1113.26 56.336 1113.21 57.022 1113.21 57.834C1113.21 58.674 1113.26 59.3787 1113.36 59.948C1113.47 60.5173 1113.69 60.9747 1114.02 61.32C1114.36 61.6653 1114.84 61.838 1115.48 61.838C1116.1 61.838 1116.58 61.6653 1116.9 61.32C1117.24 60.9747 1117.46 60.5173 1117.56 59.948C1117.67 59.3787 1117.73 58.674 1117.73 57.834ZM1127.19 53.984H1122.28V57.176C1122.49 56.8773 1122.81 56.6347 1123.23 56.448C1123.65 56.252 1124.1 56.154 1124.59 56.154C1125.36 56.154 1125.99 56.3173 1126.48 56.644C1126.96 56.9613 1127.31 57.3767 1127.52 57.89C1127.73 58.394 1127.84 58.9307 1127.84 59.5C1127.84 60.172 1127.71 60.774 1127.46 61.306C1127.21 61.838 1126.82 62.258 1126.3 62.566C1125.78 62.874 1125.14 63.028 1124.38 63.028C1123.4 63.028 1122.61 62.776 1122 62.272C1121.39 61.768 1121.02 61.096 1120.89 60.256H1122.14C1122.26 60.788 1122.52 61.2033 1122.91 61.502C1123.3 61.8007 1123.8 61.95 1124.39 61.95C1125.13 61.95 1125.69 61.7307 1126.06 61.292C1126.43 60.844 1126.62 60.256 1126.62 59.528C1126.62 58.8 1126.43 58.24 1126.06 57.848C1125.69 57.4467 1125.14 57.246 1124.41 57.246C1123.91 57.246 1123.48 57.3673 1123.11 57.61C1122.74 57.8433 1122.48 58.1653 1122.31 58.576H1121.1V52.864H1127.19V53.984ZM1130.15 63.084C1129.9 63.084 1129.7 63 1129.53 62.832C1129.36 62.664 1129.28 62.4587 1129.28 62.216C1129.28 61.9733 1129.36 61.768 1129.53 61.6C1129.7 61.432 1129.9 61.348 1130.15 61.348C1130.38 61.348 1130.58 61.432 1130.73 61.6C1130.9 61.768 1130.99 61.9733 1130.99 62.216C1130.99 62.4587 1130.9 62.664 1130.73 62.832C1130.58 63 1130.38 63.084 1130.15 63.084ZM1132.47 57.834C1132.47 56.2287 1132.73 54.978 1133.25 54.082C1133.78 53.1767 1134.69 52.724 1136 52.724C1137.29 52.724 1138.2 53.1767 1138.73 54.082C1139.25 54.978 1139.51 56.2287 1139.51 57.834C1139.51 59.4673 1139.25 60.7367 1138.73 61.642C1138.2 62.5473 1137.29 63 1136 63C1134.69 63 1133.78 62.5473 1133.25 61.642C1132.73 60.7367 1132.47 59.4673 1132.47 57.834ZM1138.25 57.834C1138.25 57.022 1138.2 56.336 1138.08 55.776C1137.98 55.2067 1137.76 54.7493 1137.43 54.404C1137.1 54.0587 1136.62 53.886 1136 53.886C1135.36 53.886 1134.88 54.0587 1134.54 54.404C1134.21 54.7493 1134 55.2067 1133.88 55.776C1133.78 56.336 1133.73 57.022 1133.73 57.834C1133.73 58.674 1133.78 59.3787 1133.88 59.948C1134 60.5173 1134.21 60.9747 1134.54 61.32C1134.88 61.6653 1135.36 61.838 1136 61.838C1136.62 61.838 1137.1 61.6653 1137.43 61.32C1137.76 60.9747 1137.98 60.5173 1138.08 59.948C1138.2 59.3787 1138.25 58.674 1138.25 57.834ZM1141.23 55.426C1141.3 54.5673 1141.63 53.8953 1142.23 53.41C1142.82 52.9247 1143.6 52.682 1144.55 52.682C1145.19 52.682 1145.73 52.7987 1146.19 53.032C1146.66 53.256 1147.01 53.564 1147.24 53.956C1147.48 54.348 1147.6 54.7913 1147.6 55.286C1147.6 55.8647 1147.43 56.364 1147.1 56.784C1146.77 57.204 1146.34 57.4747 1145.81 57.596V57.666C1146.42 57.8153 1146.9 58.1093 1147.25 58.548C1147.61 58.9867 1147.78 59.5607 1147.78 60.27C1147.78 60.802 1147.66 61.2827 1147.42 61.712C1147.18 62.132 1146.81 62.4633 1146.33 62.706C1145.84 62.9487 1145.26 63.07 1144.58 63.07C1143.59 63.07 1142.78 62.8133 1142.14 62.3C1141.51 61.7773 1141.15 61.04 1141.08 60.088H1142.31C1142.38 60.648 1142.6 61.1053 1143 61.46C1143.39 61.8147 1143.91 61.992 1144.56 61.992C1145.22 61.992 1145.71 61.824 1146.05 61.488C1146.39 61.1427 1146.57 60.6993 1146.57 60.158C1146.57 59.458 1146.33 58.954 1145.87 58.646C1145.4 58.338 1144.7 58.184 1143.75 58.184H1143.43V57.12H1143.77C1144.63 57.1107 1145.27 56.9707 1145.71 56.7C1146.15 56.42 1146.37 55.9907 1146.37 55.412C1146.37 54.9173 1146.21 54.5207 1145.88 54.222C1145.56 53.9233 1145.11 53.774 1144.51 53.774C1143.93 53.774 1143.46 53.9233 1143.11 54.222C1142.75 54.5207 1142.54 54.922 1142.48 55.426H1141.23Z" fill="#6B7280"/>
</g>
<defs>
<filter id="filter0_d_910_36977" x="0" y="0" width="1344" height="315" filterUnits="userSpaceOnUse" color-interpolation-filters="sRGB">
<feFlood flood-opacity="0" result="BackgroundImageFix"/>
<feColorMatrix in="SourceAlpha" type="matrix" values="0 0 0 0 0 0 0 0 0 0 0 0 0 0 0 0 0 0 127 0" result="hardAlpha"/>
<feOffset/>
<feGaussianBlur stdDeviation="6"/>
<feComposite in2="hardAlpha" operator="out"/>
<feColorMatrix type="matrix" values="0 0 0 0 0.475936 0 0 0 0 0.469306 0 0 0 0 0.516667 0 0 0 0.15 0"/>
<feBlend mode="normal" in2="BackgroundImageFix" result="effect1_dropShadow_910_36977"/>
<feBlend mode="normal" in="SourceGraphic" in2="effect1_dropShadow_910_36977" result="shape"/>
</filter>
<linearGradient id="paint0_linear_910_36977" x1="1216.92" y1="115.91" x2="1197.5" y2="132.824" gradientUnits="userSpaceOnUse">
<stop stop-color="#C1E6FF"/>
<stop offset="1" stop-color="#40B1FF"/>
</linearGradient>
<linearGradient id="paint1_linear_910_36977" x1="1191.03" y1="103.172" x2="1191.03" y2="127.186" gradientUnits="userSpaceOnUse">
<stop stop-color="#FFF500"/>
<stop offset="1" stop-color="#FCA600"/>
</linearGradient>
<linearGradient id="paint2_linear_910_36977" x1="1184.97" y1="126.769" x2="1180.38" y2="152.663" gradientUnits="userSpaceOnUse">
<stop stop-color="#C1E6FF"/>
<stop offset="1" stop-color="#40B1FF"/>
</linearGradient>
</defs>
</svg>
