<svg width="674" height="830" viewBox="0 0 674 830" fill="none" xmlns="http://www.w3.org/2000/svg">
<g filter="url(#filter0_d_910_37032)">
<rect x="12" y="12" width="650" height="806" rx="20" fill="white"/>
<rect x="44.5" y="44.5" width="77" height="39" rx="19.5" fill="white"/>
<path d="M62.272 66.096H64.384V71.44H62.272V66.096ZM56.656 65.472H70.048V67.2H56.656V65.472ZM62.256 59.264H64.128V59.616C64.128 62.096 61.984 64.256 58.064 64.72L57.328 63.056C60.672 62.672 62.256 60.992 62.256 59.616V59.264ZM62.528 59.264H64.4V59.616C64.4 60.96 66 62.672 69.328 63.056L68.576 64.72C64.672 64.272 62.528 62.032 62.528 59.616V59.264ZM57.856 58.304H68.832V59.984H57.856V58.304ZM62.272 56.64H64.384V58.88H62.272V56.64ZM80.8308 56.592H82.9748V71.408H80.8308V56.592ZM82.4148 62.256H85.0228V64H82.4148V62.256ZM76.9428 58.128H79.0228C79.0228 62.576 77.3268 66.384 72.3988 68.864L71.2148 67.248C75.1028 65.232 76.9428 62.512 76.9428 58.496V58.128ZM72.0308 58.128H78.0308V59.84H72.0308V58.128Z" fill="#4B5563"/>
<path d="M96.5 64H107.5" stroke="#4B5563" stroke-width="1.2" stroke-linecap="round" stroke-linejoin="round"/>
<path d="M102 58.5V69.5" stroke="#4B5563" stroke-width="1.2" stroke-linecap="round" stroke-linejoin="round"/>
<rect x="44.5" y="44.5" width="77" height="39" rx="19.5" stroke="#E5E7EB"/>
<rect x="132" y="44" width="107" height="40" rx="20" fill="#111827"/>
<path d="M144.656 68.032H158.064V69.776H144.656V68.032ZM150.256 64.688H152.384V68.816H150.256V64.688ZM145.68 57.824H156.96V59.52H145.68V57.824ZM145.744 63.728H156.912V65.392H145.744V63.728ZM147.696 59.232H149.824V63.92H147.696V59.232ZM152.832 59.232H154.944V63.92H152.832V59.232ZM160.943 64.24H171.359V65.904H160.943V64.24ZM159.375 68H172.783V69.728H159.375V68ZM160.943 57.68H171.231V59.392H163.103V64.704H160.943V57.68ZM162.447 60.944H170.895V62.592H162.447V60.944ZM175.246 56.944H186.286V58.528H175.246V56.944ZM175.358 60.416H186.174V62H175.358V60.416ZM177.134 57.568H179.262V61.44H177.134V57.568ZM182.27 57.568H184.398V61.44H182.27V57.568ZM174.078 62.896H187.47V64.544H174.078V62.896ZM179.694 61.568H181.822V63.648H179.694V61.568ZM175.614 65.296H185.854V68.976H177.726V70.368H175.63V67.552H183.758V66.816H175.614V65.296ZM175.63 69.776H186.238V71.328H175.63V69.776ZM199.004 56.592H201.132V71.456H199.004V56.592ZM189.596 66.272H190.908C193.532 66.272 195.628 66.176 197.98 65.776L198.188 67.488C195.788 67.92 193.612 68 190.908 68H189.596V66.272ZM189.58 57.856H196.572V63.584H191.756V66.912H189.596V61.904H194.396V59.552H189.58V57.856ZM209.147 64.944H211.275V68.32H209.147V64.944ZM210.219 57.36C213.387 57.36 215.755 58.976 215.755 61.44C215.755 63.936 213.387 65.536 210.219 65.536C207.051 65.536 204.683 63.936 204.683 61.44C204.683 58.976 207.051 57.36 210.219 57.36ZM210.219 59.04C208.187 59.04 206.779 59.936 206.779 61.44C206.779 62.976 208.187 63.856 210.219 63.856C212.251 63.856 213.659 62.976 213.659 61.44C213.659 59.936 212.251 59.04 210.219 59.04ZM203.531 67.984H216.939V69.712H203.531V67.984ZM221.416 60.864V58.32H225.848V70H223V60.864H221.416Z" fill="white"/>
<rect x="249.5" y="44.5" width="110" height="39" rx="19.5" fill="white"/>
<path d="M261.656 68.032H275.064V69.776H261.656V68.032ZM267.256 64.688H269.384V68.816H267.256V64.688ZM262.68 57.824H273.96V59.52H262.68V57.824ZM262.744 63.728H273.912V65.392H262.744V63.728ZM264.696 59.232H266.824V63.92H264.696V59.232ZM269.832 59.232H271.944V63.92H269.832V59.232ZM277.943 64.24H288.359V65.904H277.943V64.24ZM276.375 68H289.783V69.728H276.375V68ZM277.943 57.68H288.231V59.392H280.103V64.704H277.943V57.68ZM279.447 60.944H287.895V62.592H279.447V60.944ZM292.246 56.944H303.286V58.528H292.246V56.944ZM292.358 60.416H303.174V62H292.358V60.416ZM294.134 57.568H296.262V61.44H294.134V57.568ZM299.27 57.568H301.398V61.44H299.27V57.568ZM291.078 62.896H304.47V64.544H291.078V62.896ZM296.694 61.568H298.822V63.648H296.694V61.568ZM292.614 65.296H302.854V68.976H294.726V70.368H292.63V67.552H300.758V66.816H292.614V65.296ZM292.63 69.776H303.238V71.328H292.63V69.776ZM316.004 56.592H318.132V71.456H316.004V56.592ZM306.596 66.272H307.908C310.532 66.272 312.628 66.176 314.98 65.776L315.188 67.488C312.788 67.92 310.612 68 307.908 68H306.596V66.272ZM306.58 57.856H313.572V63.584H308.756V66.912H306.596V61.904H311.396V59.552H306.58V57.856ZM326.147 64.944H328.275V68.32H326.147V64.944ZM327.219 57.36C330.387 57.36 332.755 58.976 332.755 61.44C332.755 63.936 330.387 65.536 327.219 65.536C324.051 65.536 321.683 63.936 321.683 61.44C321.683 58.976 324.051 57.36 327.219 57.36ZM327.219 59.04C325.187 59.04 323.779 59.936 323.779 61.44C323.779 62.976 325.187 63.856 327.219 63.856C329.251 63.856 330.659 62.976 330.659 61.44C330.659 59.936 329.251 59.04 327.219 59.04ZM320.531 67.984H333.939V69.712H320.531V67.984ZM338.608 67.808C338.971 67.52 339.136 67.3867 339.104 67.408C340.15 66.544 340.971 65.8347 341.568 65.28C342.176 64.7253 342.688 64.144 343.104 63.536C343.52 62.928 343.728 62.336 343.728 61.76C343.728 61.3227 343.627 60.9813 343.424 60.736C343.222 60.4907 342.918 60.368 342.512 60.368C342.107 60.368 341.787 60.5227 341.552 60.832C341.328 61.1307 341.216 61.5573 341.216 62.112H338.576C338.598 61.2053 338.79 60.448 339.152 59.84C339.526 59.232 340.011 58.784 340.608 58.496C341.216 58.208 341.888 58.064 342.624 58.064C343.894 58.064 344.848 58.3893 345.488 59.04C346.139 59.6907 346.464 60.5387 346.464 61.584C346.464 62.7253 346.075 63.7867 345.296 64.768C344.518 65.7387 343.526 66.688 342.32 67.616H346.64V69.84H338.608V67.808Z" fill="#9CA3AF"/>
<rect x="249.5" y="44.5" width="110" height="39" rx="19.5" stroke="#E5E7EB"/>
<rect x="370.5" y="44.5" width="110" height="39" rx="19.5" fill="white"/>
<path d="M382.656 68.032H396.064V69.776H382.656V68.032ZM388.256 64.688H390.384V68.816H388.256V64.688ZM383.68 57.824H394.96V59.52H383.68V57.824ZM383.744 63.728H394.912V65.392H383.744V63.728ZM385.696 59.232H387.824V63.92H385.696V59.232ZM390.832 59.232H392.944V63.92H390.832V59.232ZM398.943 64.24H409.359V65.904H398.943V64.24ZM397.375 68H410.783V69.728H397.375V68ZM398.943 57.68H409.231V59.392H401.103V64.704H398.943V57.68ZM400.447 60.944H408.895V62.592H400.447V60.944ZM413.246 56.944H424.286V58.528H413.246V56.944ZM413.358 60.416H424.174V62H413.358V60.416ZM415.134 57.568H417.262V61.44H415.134V57.568ZM420.27 57.568H422.398V61.44H420.27V57.568ZM412.078 62.896H425.47V64.544H412.078V62.896ZM417.694 61.568H419.822V63.648H417.694V61.568ZM413.614 65.296H423.854V68.976H415.726V70.368H413.63V67.552H421.758V66.816H413.614V65.296ZM413.63 69.776H424.238V71.328H413.63V69.776ZM437.004 56.592H439.132V71.456H437.004V56.592ZM427.596 66.272H428.908C431.532 66.272 433.628 66.176 435.98 65.776L436.188 67.488C433.788 67.92 431.612 68 428.908 68H427.596V66.272ZM427.58 57.856H434.572V63.584H429.756V66.912H427.596V61.904H432.396V59.552H427.58V57.856ZM447.147 64.944H449.275V68.32H447.147V64.944ZM448.219 57.36C451.387 57.36 453.755 58.976 453.755 61.44C453.755 63.936 451.387 65.536 448.219 65.536C445.051 65.536 442.683 63.936 442.683 61.44C442.683 58.976 445.051 57.36 448.219 57.36ZM448.219 59.04C446.187 59.04 444.779 59.936 444.779 61.44C444.779 62.976 446.187 63.856 448.219 63.856C450.251 63.856 451.659 62.976 451.659 61.44C451.659 59.936 450.251 59.04 448.219 59.04ZM441.531 67.984H454.939V69.712H441.531V67.984ZM459.8 61.616C459.843 60.4747 460.216 59.5947 460.92 58.976C461.624 58.3573 462.579 58.048 463.784 58.048C464.584 58.048 465.267 58.1867 465.832 58.464C466.408 58.7413 466.84 59.12 467.128 59.6C467.427 60.08 467.576 60.6187 467.576 61.216C467.576 61.92 467.4 62.496 467.048 62.944C466.696 63.3813 466.286 63.68 465.816 63.84V63.904C466.424 64.1067 466.904 64.4427 467.256 64.912C467.608 65.3813 467.784 65.984 467.784 66.72C467.784 67.3813 467.63 67.968 467.32 68.48C467.022 68.9813 466.579 69.376 465.992 69.664C465.416 69.952 464.728 70.096 463.928 70.096C462.648 70.096 461.624 69.7813 460.856 69.152C460.099 68.5227 459.699 67.5733 459.656 66.304H462.312C462.323 66.7733 462.456 67.1467 462.712 67.424C462.968 67.6907 463.342 67.824 463.832 67.824C464.248 67.824 464.568 67.7067 464.792 67.472C465.027 67.2267 465.144 66.9067 465.144 66.512C465.144 66 464.979 65.632 464.648 65.408C464.328 65.1733 463.811 65.056 463.096 65.056H462.584V62.832H463.096C463.64 62.832 464.078 62.7413 464.408 62.56C464.75 62.368 464.92 62.032 464.92 61.552C464.92 61.168 464.814 60.8693 464.6 60.656C464.387 60.4427 464.094 60.336 463.72 60.336C463.315 60.336 463.011 60.4587 462.808 60.704C462.616 60.9493 462.504 61.2533 462.472 61.616H459.8Z" fill="#9CA3AF"/>
<rect x="370.5" y="44.5" width="110" height="39" rx="19.5" stroke="#E5E7EB"/>
<rect x="64" y="670" width="12" height="12" rx="6" fill="#5550FF"/>
<path d="M93.45 669.268H95.326V682.274H93.45V669.268ZM85.204 670.304H87.052V673.454H89.726V670.304H91.574V679.25H85.204V670.304ZM87.052 674.896V677.752H89.726V674.896H87.052ZM98.8249 675.96H107.939V677.416H98.8249V675.96ZM97.4529 679.25H109.185V680.762H97.4529V679.25ZM98.8249 670.22H107.827V671.718H100.715V676.366H98.8249V670.22ZM100.141 673.076H107.533V674.518H100.141V673.076ZM111.648 670.36H119.81V671.844H111.648V670.36ZM110.318 679.264H122.036V680.762H110.318V679.264ZM119.068 670.36H120.902V671.494C120.902 673.062 120.916 674.896 120.314 677.71L118.48 677.514C119.068 674.882 119.068 672.992 119.068 671.494V670.36ZM119.404 673.482V674.882L111.494 675.316L111.242 673.734L119.404 673.482ZM114.476 676.156H116.338V679.81H114.476V676.156ZM132.101 669.296H133.977V678.606H132.101V669.296ZM125.339 680.538H134.299V682.022H125.339V680.538ZM125.339 677.668H127.201V681.14H125.339V677.668ZM126.921 670.108C128.909 670.108 130.435 671.48 130.435 673.398C130.435 675.302 128.909 676.688 126.921 676.688C124.933 676.688 123.393 675.302 123.393 673.398C123.393 671.48 124.933 670.108 126.921 670.108ZM126.921 671.718C125.955 671.718 125.213 672.334 125.213 673.398C125.213 674.448 125.955 675.064 126.921 675.064C127.873 675.064 128.615 674.448 128.615 673.398C128.615 672.334 127.873 671.718 126.921 671.718Z" fill="#111111"/>
<path d="M237.922 672.278L234.198 681H232.21L235.962 672.502H231.174V670.822H237.922V672.278ZM239.712 678.788C240.608 678.041 241.322 677.421 241.854 676.926C242.386 676.422 242.829 675.899 243.184 675.358C243.538 674.817 243.716 674.285 243.716 673.762C243.716 673.286 243.604 672.913 243.38 672.642C243.156 672.371 242.81 672.236 242.344 672.236C241.877 672.236 241.518 672.395 241.266 672.712C241.014 673.02 240.883 673.445 240.874 673.986H238.97C239.007 672.866 239.338 672.017 239.964 671.438C240.598 670.859 241.401 670.57 242.372 670.57C243.436 670.57 244.252 670.855 244.822 671.424C245.391 671.984 245.676 672.726 245.676 673.65C245.676 674.378 245.48 675.073 245.088 675.736C244.696 676.399 244.248 676.977 243.744 677.472C243.24 677.957 242.582 678.545 241.77 679.236H245.9V680.86H238.984V679.404L239.712 678.788ZM246.911 673.3C246.911 672.591 247.116 672.035 247.527 671.634C247.947 671.233 248.483 671.032 249.137 671.032C249.79 671.032 250.322 671.233 250.733 671.634C251.153 672.035 251.363 672.591 251.363 673.3C251.363 674.019 251.153 674.579 250.733 674.98C250.322 675.381 249.79 675.582 249.137 675.582C248.483 675.582 247.947 675.381 247.527 674.98C247.116 674.579 246.911 674.019 246.911 673.3ZM255.899 671.2L250.397 681H248.493L253.981 671.2H255.899ZM249.123 672.208C248.609 672.208 248.353 672.572 248.353 673.3C248.353 674.037 248.609 674.406 249.123 674.406C249.375 674.406 249.571 674.317 249.711 674.14C249.851 673.953 249.921 673.673 249.921 673.3C249.921 672.572 249.655 672.208 249.123 672.208ZM253.057 678.886C253.057 678.167 253.262 677.612 253.673 677.22C254.093 676.819 254.629 676.618 255.283 676.618C255.936 676.618 256.463 676.819 256.865 677.22C257.275 677.612 257.481 678.167 257.481 678.886C257.481 679.605 257.275 680.165 256.865 680.566C256.463 680.967 255.936 681.168 255.283 681.168C254.62 681.168 254.083 680.967 253.673 680.566C253.262 680.165 253.057 679.605 253.057 678.886ZM255.269 677.794C254.737 677.794 254.471 678.158 254.471 678.886C254.471 679.623 254.737 679.992 255.269 679.992C255.791 679.992 256.053 679.623 256.053 678.886C256.053 678.158 255.791 677.794 255.269 677.794Z" fill="#111111"/>
<rect x="64" y="698" width="12" height="12" rx="6" fill="#4F7FF9"/>
<path d="M93.45 697.268H95.326V710.274H93.45V697.268ZM88.34 698.178C90.3 698.178 91.742 699.97 91.742 702.798C91.742 705.654 90.3 707.446 88.34 707.446C86.38 707.446 84.938 705.654 84.938 702.798C84.938 699.97 86.38 698.178 88.34 698.178ZM88.34 699.872C87.374 699.872 86.716 700.894 86.716 702.798C86.716 704.73 87.374 705.766 88.34 705.766C89.306 705.766 89.95 704.73 89.95 702.798C89.95 700.894 89.306 699.872 88.34 699.872ZM98.0549 705.626H99.1049C101.401 705.626 102.899 705.57 104.579 705.262L104.761 706.76C103.025 707.082 101.471 707.152 99.1049 707.152H98.0549V705.626ZM98.0549 698.43H103.921V699.914H99.9169V706.2H98.0549V698.43ZM106.469 697.282H108.331V710.288H106.469V697.282ZM103.291 701.748H107.253V703.26H103.291V701.748ZM119.25 697.268H121.112V710.274H119.25V697.268ZM111.018 705.738H112.166C114.462 705.738 116.296 705.654 118.354 705.304L118.536 706.802C116.436 707.18 114.532 707.25 112.166 707.25H111.018V705.738ZM111.004 698.374H117.122V703.386H112.908V706.298H111.018V701.916H115.218V699.858H111.004V698.374ZM128.125 704.03H129.987V706.088H128.125V704.03ZM129.063 697.464C131.919 697.464 133.753 698.402 133.753 699.97C133.753 701.524 131.919 702.448 129.063 702.448C126.207 702.448 124.373 701.524 124.373 699.97C124.373 698.402 126.207 697.464 129.063 697.464ZM129.063 698.878C127.285 698.878 126.291 699.242 126.291 699.97C126.291 700.684 127.285 701.034 129.063 701.034C130.827 701.034 131.835 700.684 131.835 699.97C131.835 699.242 130.827 698.878 129.063 698.878ZM124.555 705.682H133.515V710.106H124.555V705.682ZM131.695 707.152H126.389V708.636H131.695V707.152ZM123.197 703.106H134.915V704.59H123.197V703.106Z" fill="#111111"/>
<path d="M230.661 706.788C231.557 706.041 232.271 705.421 232.803 704.926C233.335 704.422 233.778 703.899 234.133 703.358C234.487 702.817 234.665 702.285 234.665 701.762C234.665 701.286 234.553 700.913 234.329 700.642C234.105 700.371 233.759 700.236 233.293 700.236C232.826 700.236 232.467 700.395 232.215 700.712C231.963 701.02 231.832 701.445 231.823 701.986H229.919C229.956 700.866 230.287 700.017 230.913 699.438C231.547 698.859 232.35 698.57 233.321 698.57C234.385 698.57 235.201 698.855 235.771 699.424C236.34 699.984 236.625 700.726 236.625 701.65C236.625 702.378 236.429 703.073 236.037 703.736C235.645 704.399 235.197 704.977 234.693 705.472C234.189 705.957 233.531 706.545 232.719 707.236H236.849V708.86H229.933V707.404L230.661 706.788ZM238.084 703.764C238.084 702.149 238.373 700.885 238.952 699.97C239.54 699.055 240.51 698.598 241.864 698.598C243.217 698.598 244.183 699.055 244.762 699.97C245.35 700.885 245.644 702.149 245.644 703.764C245.644 705.388 245.35 706.662 244.762 707.586C244.183 708.51 243.217 708.972 241.864 708.972C240.51 708.972 239.54 708.51 238.952 707.586C238.373 706.662 238.084 705.388 238.084 703.764ZM243.712 703.764C243.712 703.073 243.665 702.495 243.572 702.028C243.488 701.552 243.31 701.165 243.04 700.866C242.778 700.567 242.386 700.418 241.864 700.418C241.341 700.418 240.944 700.567 240.674 700.866C240.412 701.165 240.235 701.552 240.142 702.028C240.058 702.495 240.016 703.073 240.016 703.764C240.016 704.473 240.058 705.071 240.142 705.556C240.226 706.032 240.403 706.419 240.674 706.718C240.944 707.007 241.341 707.152 241.864 707.152C242.386 707.152 242.783 707.007 243.054 706.718C243.324 706.419 243.502 706.032 243.586 705.556C243.67 705.071 243.712 704.473 243.712 703.764ZM246.911 701.3C246.911 700.591 247.116 700.035 247.527 699.634C247.947 699.233 248.483 699.032 249.137 699.032C249.79 699.032 250.322 699.233 250.733 699.634C251.153 700.035 251.363 700.591 251.363 701.3C251.363 702.019 251.153 702.579 250.733 702.98C250.322 703.381 249.79 703.582 249.137 703.582C248.483 703.582 247.947 703.381 247.527 702.98C247.116 702.579 246.911 702.019 246.911 701.3ZM255.899 699.2L250.397 709H248.493L253.981 699.2H255.899ZM249.123 700.208C248.609 700.208 248.353 700.572 248.353 701.3C248.353 702.037 248.609 702.406 249.123 702.406C249.375 702.406 249.571 702.317 249.711 702.14C249.851 701.953 249.921 701.673 249.921 701.3C249.921 700.572 249.655 700.208 249.123 700.208ZM253.057 706.886C253.057 706.167 253.262 705.612 253.673 705.22C254.093 704.819 254.629 704.618 255.283 704.618C255.936 704.618 256.463 704.819 256.865 705.22C257.275 705.612 257.481 706.167 257.481 706.886C257.481 707.605 257.275 708.165 256.865 708.566C256.463 708.967 255.936 709.168 255.283 709.168C254.62 709.168 254.083 708.967 253.673 708.566C253.262 708.165 253.057 707.605 253.057 706.886ZM255.269 705.794C254.737 705.794 254.471 706.158 254.471 706.886C254.471 707.623 254.737 707.992 255.269 707.992C255.791 707.992 256.053 707.623 256.053 706.886C256.053 706.158 255.791 705.794 255.269 705.794Z" fill="#111111"/>
<rect x="64" y="726" width="12" height="12" rx="6" fill="#E8EAED"/>
<path d="M87.472 726.192C89.194 726.192 90.3 727.97 90.3 730.896C90.3 733.836 89.194 735.614 87.472 735.614C85.764 735.614 84.672 733.836 84.672 730.896C84.672 727.97 85.764 726.192 87.472 726.192ZM87.472 727.942C86.772 727.942 86.366 728.922 86.366 730.896C86.366 732.884 86.772 733.85 87.472 733.85C88.186 733.85 88.592 732.884 88.592 730.896C88.592 728.922 88.186 727.942 87.472 727.942ZM93.926 725.282H95.704V738.246H93.926V725.282ZM92.372 730.224H94.514V731.722H92.372V730.224ZM91.084 725.478H92.834V737.658H91.084V725.478ZM98.4609 725.632H108.121V727.018H98.4609V725.632ZM98.5589 728.67H108.023V730.056H98.5589V728.67ZM100.113 726.178H101.975V729.566H100.113V726.178ZM104.607 726.178H106.469V729.566H104.607V726.178ZM97.4389 730.728H109.157V732.184H97.4389V730.728ZM98.7829 732.898H107.743V736.118H100.631V737.322H98.7969V734.872H105.909V734.228H98.7829V732.898ZM98.7969 736.804H108.079V738.162H98.7969V736.804Z" fill="#111111"/>
<path d="M245.961 728.278L242.237 737H240.249L244.001 728.502H239.213V726.822H245.961V728.278ZM246.911 729.3C246.911 728.591 247.116 728.035 247.527 727.634C247.947 727.233 248.483 727.032 249.137 727.032C249.79 727.032 250.322 727.233 250.733 727.634C251.153 728.035 251.363 728.591 251.363 729.3C251.363 730.019 251.153 730.579 250.733 730.98C250.322 731.381 249.79 731.582 249.137 731.582C248.483 731.582 247.947 731.381 247.527 730.98C247.116 730.579 246.911 730.019 246.911 729.3ZM255.899 727.2L250.397 737H248.493L253.981 727.2H255.899ZM249.123 728.208C248.609 728.208 248.353 728.572 248.353 729.3C248.353 730.037 248.609 730.406 249.123 730.406C249.375 730.406 249.571 730.317 249.711 730.14C249.851 729.953 249.921 729.673 249.921 729.3C249.921 728.572 249.655 728.208 249.123 728.208ZM253.057 734.886C253.057 734.167 253.262 733.612 253.673 733.22C254.093 732.819 254.629 732.618 255.283 732.618C255.936 732.618 256.463 732.819 256.865 733.22C257.275 733.612 257.481 734.167 257.481 734.886C257.481 735.605 257.275 736.165 256.865 736.566C256.463 736.967 255.936 737.168 255.283 737.168C254.62 737.168 254.083 736.967 253.673 736.566C253.262 736.165 253.057 735.605 253.057 734.886ZM255.269 733.794C254.737 733.794 254.471 734.158 254.471 734.886C254.471 735.623 254.737 735.992 255.269 735.992C255.791 735.992 256.053 735.623 256.053 734.886C256.053 734.158 255.791 733.794 255.269 733.794Z" fill="#111111"/>
<rect x="64" y="754" width="12" height="12" rx="6" fill="#C5C4FF"/>
<path d="M92.176 760.954C92.176 761.234 92.1573 761.486 92.12 761.71H86.45C86.4967 762.27 86.6927 762.709 87.038 763.026C87.3833 763.343 87.808 763.502 88.312 763.502C89.04 763.502 89.558 763.189 89.866 762.564H91.98C91.756 763.311 91.3267 763.927 90.692 764.412C90.0573 764.888 89.278 765.126 88.354 765.126C87.6073 765.126 86.9353 764.963 86.338 764.636C85.75 764.3 85.288 763.829 84.952 763.222C84.6253 762.615 84.462 761.915 84.462 761.122C84.462 760.319 84.6253 759.615 84.952 759.008C85.2787 758.401 85.736 757.935 86.324 757.608C86.912 757.281 87.5887 757.118 88.354 757.118C89.0913 757.118 89.7493 757.277 90.328 757.594C90.916 757.911 91.3687 758.364 91.686 758.952C92.0127 759.531 92.176 760.198 92.176 760.954ZM90.146 760.394C90.1367 759.89 89.9547 759.489 89.6 759.19C89.2453 758.882 88.8113 758.728 88.298 758.728C87.8127 758.728 87.402 758.877 87.066 759.176C86.7393 759.465 86.5387 759.871 86.464 760.394H90.146ZM95.8886 758.854V762.606C95.8886 762.867 95.9493 763.059 96.0706 763.18C96.2013 763.292 96.416 763.348 96.7146 763.348H97.6246V765H96.3926C94.7406 765 93.9146 764.197 93.9146 762.592V758.854H92.9906V757.244H93.9146V755.326H95.8886V757.244H97.6246V758.854H95.8886ZM98.5304 761.122C98.5304 760.319 98.6937 759.619 99.0204 759.022C99.347 758.415 99.7997 757.949 100.378 757.622C100.957 757.286 101.62 757.118 102.366 757.118C103.328 757.118 104.121 757.361 104.746 757.846C105.381 758.322 105.806 758.994 106.02 759.862H103.906C103.794 759.526 103.603 759.265 103.332 759.078C103.071 758.882 102.744 758.784 102.352 758.784C101.792 758.784 101.349 758.989 101.022 759.4C100.696 759.801 100.532 760.375 100.532 761.122C100.532 761.859 100.696 762.433 101.022 762.844C101.349 763.245 101.792 763.446 102.352 763.446C103.146 763.446 103.664 763.091 103.906 762.382H106.02C105.806 763.222 105.381 763.889 104.746 764.384C104.112 764.879 103.318 765.126 102.366 765.126C101.62 765.126 100.957 764.963 100.378 764.636C99.7997 764.3 99.347 763.833 99.0204 763.236C98.6937 762.629 98.5304 761.925 98.5304 761.122Z" fill="#111111"/>
<path d="M241.824 756.6V754.794H245.198V765H243.182V756.6H241.824ZM246.911 757.3C246.911 756.591 247.116 756.035 247.527 755.634C247.947 755.233 248.483 755.032 249.137 755.032C249.79 755.032 250.322 755.233 250.733 755.634C251.153 756.035 251.363 756.591 251.363 757.3C251.363 758.019 251.153 758.579 250.733 758.98C250.322 759.381 249.79 759.582 249.137 759.582C248.483 759.582 247.947 759.381 247.527 758.98C247.116 758.579 246.911 758.019 246.911 757.3ZM255.899 755.2L250.397 765H248.493L253.981 755.2H255.899ZM249.123 756.208C248.609 756.208 248.353 756.572 248.353 757.3C248.353 758.037 248.609 758.406 249.123 758.406C249.375 758.406 249.571 758.317 249.711 758.14C249.851 757.953 249.921 757.673 249.921 757.3C249.921 756.572 249.655 756.208 249.123 756.208ZM253.057 762.886C253.057 762.167 253.262 761.612 253.673 761.22C254.093 760.819 254.629 760.618 255.283 760.618C255.936 760.618 256.463 760.819 256.865 761.22C257.275 761.612 257.481 762.167 257.481 762.886C257.481 763.605 257.275 764.165 256.865 764.566C256.463 764.967 255.936 765.168 255.283 765.168C254.62 765.168 254.083 764.967 253.673 764.566C253.262 764.165 253.057 763.605 253.057 762.886ZM255.269 761.794C254.737 761.794 254.471 762.158 254.471 762.886C254.471 763.623 254.737 763.992 255.269 763.992C255.791 763.992 256.053 763.623 256.053 762.886C256.053 762.158 255.791 761.794 255.269 761.794Z" fill="#111111"/>
<rect x="44.5" y="650.5" width="233" height="135" rx="19.5" stroke="#E5E7EB"/>
<path d="M44.98 203.84H61.32V205.18H44.98V203.84ZM52.34 201.62H53.98V204.46H52.34V201.62ZM52.34 194.42H53.98V196.94H52.34V194.42ZM52.26 197.1H53.72V197.4C53.72 200.36 50.4 202.08 46.44 202.48L45.94 201.2C49.44 200.9 52.26 199.46 52.26 197.4V197.1ZM52.6 197.1H54.06V197.4C54.06 199.46 56.88 200.9 60.38 201.2L59.88 202.48C55.92 202.08 52.6 200.36 52.6 197.4V197.1ZM46.66 196.24H59.66V197.56H46.66V196.24ZM53.14 206.54C57.04 206.54 59.34 207.6 59.34 209.54C59.34 211.48 57.04 212.52 53.14 212.52C49.24 212.52 46.94 211.48 46.94 209.54C46.94 207.6 49.24 206.54 53.14 206.54ZM53.14 207.8C50.28 207.8 48.62 208.4 48.62 209.54C48.62 210.64 50.28 211.26 53.14 211.26C56 211.26 57.66 210.64 57.66 209.54C57.66 208.4 56 207.8 53.14 207.8ZM73.0538 197.06H74.3738V200C74.3738 203.76 72.0738 207.64 69.2538 209.08L68.2938 207.76C70.8738 206.5 73.0538 203.06 73.0538 200V197.06ZM73.3538 197.06H74.6738V200C74.6738 202.86 76.7138 206.08 79.3338 207.32L78.3938 208.64C75.5338 207.22 73.3538 203.58 73.3538 200V197.06ZM68.9338 196.32H78.6738V197.72H68.9338V196.32ZM80.8138 194.48H82.4938V212.56H80.8138V194.48ZM82.0938 201.78H85.4538V203.18H82.0938V201.78ZM91.4322 195.58H92.7922V197.8C92.7922 201.34 90.8322 204.16 87.7922 205.34L86.9122 204.02C89.6722 203.04 91.4322 200.6 91.4322 197.8V195.58ZM91.7122 195.58H93.0722V197.86C93.0722 200.32 94.8722 202.64 97.5122 203.58L96.6922 204.88C93.7122 203.8 91.7122 201.04 91.7122 197.86V195.58ZM99.3522 194.46H101.012V207.82H99.3522V194.46ZM100.492 200.02H103.692V201.4H100.492V200.02ZM89.7922 210.8H101.812V212.16H89.7922V210.8ZM89.7922 206.56H91.4522V211.46H89.7922V206.56Z" fill="#6B7280"/>
<path d="M437.014 209.764C437.014 211.012 436.69 212.188 436.042 213.292C435.418 214.372 434.482 215.272 433.234 215.992C432.01 216.688 430.558 217.096 428.878 217.216V220.132H426.574V217.18C424.174 216.964 422.242 216.244 420.778 215.02C419.314 213.772 418.558 212.092 418.51 209.98H423.91C424.054 211.708 424.942 212.752 426.574 213.112V206.236C424.846 205.804 423.454 205.372 422.398 204.94C421.342 204.508 420.43 203.812 419.662 202.852C418.894 201.892 418.51 200.584 418.51 198.928C418.51 196.84 419.254 195.136 420.742 193.816C422.254 192.496 424.198 191.74 426.574 191.548V188.632H428.878V191.548C431.182 191.74 433.018 192.436 434.386 193.636C435.778 194.836 436.558 196.492 436.726 198.604H431.29C431.218 197.908 430.966 197.308 430.534 196.804C430.126 196.276 429.574 195.904 428.878 195.688V202.492C430.678 202.948 432.094 203.392 433.126 203.824C434.182 204.232 435.094 204.916 435.862 205.876C436.63 206.812 437.014 208.108 437.014 209.764ZM423.766 198.676C423.766 199.468 424.006 200.116 424.486 200.62C424.966 201.1 425.662 201.496 426.574 201.808V195.58C425.71 195.7 425.026 196.024 424.522 196.552C424.018 197.08 423.766 197.788 423.766 198.676ZM428.878 213.184C429.79 213.016 430.498 212.644 431.002 212.068C431.53 211.492 431.794 210.796 431.794 209.98C431.794 209.188 431.542 208.552 431.038 208.072C430.534 207.592 429.814 207.196 428.878 206.884V213.184ZM450.03 195.4V190.756H458.706V217H453.522V195.4H450.03ZM463.685 203.536C463.685 199.384 464.429 196.132 465.917 193.78C467.429 191.428 469.925 190.252 473.405 190.252C476.885 190.252 479.369 191.428 480.857 193.78C482.369 196.132 483.125 199.384 483.125 203.536C483.125 207.712 482.369 210.988 480.857 213.364C479.369 215.74 476.885 216.928 473.405 216.928C469.925 216.928 467.429 215.74 465.917 213.364C464.429 210.988 463.685 207.712 463.685 203.536ZM478.157 203.536C478.157 201.76 478.037 200.272 477.797 199.072C477.581 197.848 477.125 196.852 476.429 196.084C475.757 195.316 474.749 194.932 473.405 194.932C472.061 194.932 471.041 195.316 470.345 196.084C469.673 196.852 469.217 197.848 468.977 199.072C468.761 200.272 468.653 201.76 468.653 203.536C468.653 205.36 468.761 206.896 468.977 208.144C469.193 209.368 469.649 210.364 470.345 211.132C471.041 211.876 472.061 212.248 473.405 212.248C474.749 212.248 475.769 211.876 476.465 211.132C477.161 210.364 477.617 209.368 477.833 208.144C478.049 206.896 478.157 205.36 478.157 203.536ZM504.599 195.112H492.935V201.268C493.439 200.644 494.159 200.14 495.095 199.756C496.031 199.348 497.027 199.144 498.083 199.144C500.003 199.144 501.575 199.564 502.799 200.404C504.023 201.244 504.911 202.324 505.463 203.644C506.015 204.94 506.291 206.332 506.291 207.82C506.291 210.58 505.499 212.8 503.915 214.48C502.355 216.16 500.123 217 497.219 217C494.483 217 492.299 216.316 490.667 214.948C489.035 213.58 488.111 211.792 487.895 209.584H492.791C493.007 210.544 493.487 211.312 494.231 211.888C494.999 212.464 495.971 212.752 497.147 212.752C498.563 212.752 499.631 212.308 500.351 211.42C501.071 210.532 501.431 209.356 501.431 207.892C501.431 206.404 501.059 205.276 500.315 204.508C499.595 203.716 498.527 203.32 497.111 203.32C496.103 203.32 495.263 203.572 494.591 204.076C493.919 204.58 493.439 205.252 493.151 206.092H488.327V190.684H504.599V195.112ZM516.211 211.708L511.999 221.824H508.759L511.099 211.708H516.211ZM525.099 209.62C525.291 210.676 525.723 211.492 526.395 212.068C527.091 212.62 528.015 212.896 529.167 212.896C530.655 212.896 531.735 212.284 532.407 211.06C533.079 209.812 533.415 207.724 533.415 204.796C532.863 205.564 532.083 206.164 531.075 206.596C530.091 207.028 529.023 207.244 527.871 207.244C526.335 207.244 524.943 206.932 523.695 206.308C522.471 205.66 521.499 204.712 520.779 203.464C520.059 202.192 519.699 200.656 519.699 198.856C519.699 196.192 520.491 194.08 522.075 192.52C523.659 190.936 525.819 190.144 528.555 190.144C531.963 190.144 534.363 191.236 535.755 193.42C537.171 195.604 537.879 198.892 537.879 203.284C537.879 206.404 537.603 208.96 537.051 210.952C536.523 212.944 535.599 214.456 534.279 215.488C532.983 216.52 531.207 217.036 528.951 217.036C527.175 217.036 525.663 216.7 524.415 216.028C523.167 215.332 522.207 214.432 521.535 213.328C520.887 212.2 520.515 210.964 520.419 209.62H525.099ZM528.915 203.14C530.163 203.14 531.147 202.756 531.867 201.988C532.587 201.22 532.947 200.188 532.947 198.892C532.947 197.476 532.563 196.384 531.795 195.616C531.051 194.824 530.031 194.428 528.735 194.428C527.439 194.428 526.407 194.836 525.639 195.652C524.895 196.444 524.523 197.5 524.523 198.82C524.523 200.092 524.883 201.136 525.603 201.952C526.347 202.744 527.451 203.14 528.915 203.14ZM541.875 197.668C541.995 195.268 542.835 193.42 544.395 192.124C545.979 190.804 548.055 190.144 550.623 190.144C552.375 190.144 553.875 190.456 555.123 191.08C556.371 191.68 557.307 192.508 557.931 193.564C558.579 194.596 558.903 195.772 558.903 197.092C558.903 198.604 558.507 199.888 557.715 200.944C556.947 201.976 556.023 202.672 554.943 203.032V203.176C556.335 203.608 557.415 204.376 558.183 205.48C558.975 206.584 559.371 208 559.371 209.728C559.371 211.168 559.035 212.452 558.363 213.58C557.715 214.708 556.743 215.596 555.447 216.244C554.175 216.868 552.639 217.18 550.839 217.18C548.127 217.18 545.919 216.496 544.215 215.128C542.511 213.76 541.611 211.744 541.515 209.08H546.411C546.459 210.256 546.855 211.204 547.599 211.924C548.367 212.62 549.411 212.968 550.731 212.968C551.955 212.968 552.891 212.632 553.539 211.96C554.211 211.264 554.547 210.376 554.547 209.296C554.547 207.856 554.091 206.824 553.179 206.2C552.267 205.576 550.851 205.264 548.931 205.264H547.887V201.124H548.931C552.339 201.124 554.043 199.984 554.043 197.704C554.043 196.672 553.731 195.868 553.107 195.292C552.507 194.716 551.631 194.428 550.479 194.428C549.351 194.428 548.475 194.74 547.851 195.364C547.251 195.964 546.903 196.732 546.807 197.668H541.875ZM576.961 197.308C576.721 196.3 576.301 195.544 575.701 195.04C575.125 194.536 574.285 194.284 573.181 194.284C571.525 194.284 570.301 194.956 569.509 196.3C568.741 197.62 568.345 199.78 568.321 202.78C568.897 201.82 569.737 201.076 570.841 200.548C571.945 199.996 573.145 199.72 574.441 199.72C576.001 199.72 577.381 200.056 578.581 200.728C579.781 201.4 580.717 202.384 581.389 203.68C582.061 204.952 582.397 206.488 582.397 208.288C582.397 209.992 582.049 211.516 581.353 212.86C580.681 214.18 579.685 215.212 578.365 215.956C577.045 216.7 575.473 217.072 573.649 217.072C571.153 217.072 569.185 216.52 567.745 215.416C566.329 214.312 565.333 212.776 564.757 210.808C564.205 208.816 563.929 206.368 563.929 203.464C563.929 199.072 564.685 195.76 566.197 193.528C567.709 191.272 570.097 190.144 573.361 190.144C575.881 190.144 577.837 190.828 579.229 192.196C580.621 193.564 581.425 195.268 581.641 197.308H576.961ZM573.289 203.86C572.017 203.86 570.949 204.232 570.085 204.976C569.221 205.72 568.789 206.8 568.789 208.216C568.789 209.632 569.185 210.748 569.977 211.564C570.793 212.38 571.933 212.788 573.397 212.788C574.693 212.788 575.713 212.392 576.457 211.6C577.225 210.808 577.609 209.74 577.609 208.396C577.609 207.004 577.237 205.9 576.493 205.084C575.773 204.268 574.705 203.86 573.289 203.86ZM589.189 217.252C588.277 217.252 587.521 216.976 586.921 216.424C586.345 215.848 586.057 215.14 586.057 214.3C586.057 213.46 586.345 212.764 586.921 212.212C587.521 211.636 588.277 211.348 589.189 211.348C590.077 211.348 590.809 211.636 591.385 212.212C591.961 212.764 592.249 213.46 592.249 214.3C592.249 215.14 591.961 215.848 591.385 216.424C590.809 216.976 590.077 217.252 589.189 217.252ZM600.124 203.104C597.724 201.856 596.524 199.924 596.524 197.308C596.524 196.012 596.848 194.836 597.496 193.78C598.168 192.7 599.164 191.848 600.484 191.224C601.828 190.576 603.46 190.252 605.38 190.252C607.3 190.252 608.92 190.576 610.24 191.224C611.584 191.848 612.58 192.7 613.228 193.78C613.9 194.836 614.236 196.012 614.236 197.308C614.236 198.628 613.912 199.792 613.264 200.8C612.616 201.784 611.752 202.552 610.672 203.104C611.992 203.68 613.024 204.52 613.768 205.624C614.512 206.728 614.884 208.036 614.884 209.548C614.884 211.18 614.464 212.608 613.624 213.832C612.808 215.032 611.68 215.956 610.24 216.604C608.8 217.252 607.18 217.576 605.38 217.576C603.58 217.576 601.96 217.252 600.52 216.604C599.104 215.956 597.976 215.032 597.136 213.832C596.32 212.608 595.912 211.18 595.912 209.548C595.912 208.036 596.284 206.728 597.028 205.624C597.772 204.496 598.804 203.656 600.124 203.104ZM609.34 198.028C609.34 196.852 608.98 195.94 608.26 195.292C607.564 194.644 606.604 194.32 605.38 194.32C604.18 194.32 603.22 194.644 602.5 195.292C601.804 195.94 601.456 196.864 601.456 198.064C601.456 199.144 601.816 200.008 602.536 200.656C603.28 201.304 604.228 201.628 605.38 201.628C606.532 201.628 607.48 201.304 608.224 200.656C608.968 199.984 609.34 199.108 609.34 198.028ZM605.38 205.3C604.012 205.3 602.896 205.648 602.032 206.344C601.192 207.04 600.772 208.036 600.772 209.332C600.772 210.532 601.18 211.516 601.996 212.284C602.836 213.028 603.964 213.4 605.38 213.4C606.796 213.4 607.912 213.016 608.728 212.248C609.544 211.48 609.952 210.508 609.952 209.332C609.952 208.06 609.532 207.076 608.692 206.38C607.852 205.66 606.748 205.3 605.38 205.3ZM618.253 195.4V190.756H626.929V217H621.745V195.4H618.253Z" fill="#111111"/>
<path d="M50.16 262.04H51.84V265.96H50.16V262.04ZM50.16 255.68H51.5V256.08C51.5 259.24 49.44 261.68 46.4 262.64L45.64 261.34C48.32 260.54 50.16 258.52 50.16 256.08V255.68ZM50.48 255.68H51.82V256.08C51.82 258.42 53.72 260.38 56.38 261.16L55.62 262.44C52.58 261.54 50.48 259.14 50.48 256.08V255.68ZM46.06 254.84H56V256.18H46.06V254.84ZM50.16 252.6H51.84V255.42H50.16V252.6ZM58.06 252.46H59.72V270.58H58.06V252.46ZM45.32 266.86L45.08 265.46C48.38 265.46 52.94 265.44 56.88 264.84L57.02 266.06C52.96 266.82 48.54 266.84 45.32 266.86ZM68.4384 253.54C71.1584 253.54 73.1584 255.3 73.1584 257.84C73.1584 260.36 71.1584 262.1 68.4384 262.1C65.7184 262.1 63.7184 260.36 63.7184 257.84C63.7184 255.3 65.7184 253.54 68.4384 253.54ZM68.4384 254.96C66.6384 254.96 65.3384 256.12 65.3384 257.84C65.3384 259.54 66.6384 260.72 68.4384 260.72C70.2384 260.72 71.5384 259.54 71.5384 257.84C71.5384 256.12 70.2384 254.96 68.4384 254.96ZM75.7584 252.48H77.4184V263.12H75.7584V252.48ZM76.9584 257.12H80.0984V258.52H76.9584V257.12ZM65.6784 264.06H77.4184V270.58H75.7584V265.4H65.6784V264.06ZM87.6569 253.78C90.4769 253.78 92.4969 255.52 92.4969 258.04C92.4969 260.58 90.4769 262.32 87.6569 262.32C84.8369 262.32 82.7969 260.58 82.7969 258.04C82.7969 255.52 84.8369 253.78 87.6569 253.78ZM87.6569 255.22C85.7769 255.22 84.4169 256.36 84.4169 258.04C84.4169 259.72 85.7769 260.88 87.6569 260.88C89.5169 260.88 90.8769 259.72 90.8769 258.04C90.8769 256.36 89.5169 255.22 87.6569 255.22ZM94.8569 252.46H96.5169V270.58H94.8569V252.46ZM82.1169 266.62L81.8769 265.24C85.1769 265.24 89.7369 265.22 93.6769 264.6L93.8169 265.82C89.7569 266.6 85.3369 266.62 82.1169 266.62ZM114.031 255.8H118.871V257.16H114.031V255.8ZM113.871 259.56H118.751V260.92H113.871V259.56ZM118.591 252.48H120.251V263.32H118.591V252.48ZM112.931 253.84H114.711C114.711 258.5 111.491 261.76 106.291 263.32L105.611 261.98C110.231 260.64 112.931 257.98 112.931 254.56V253.84ZM106.551 253.84H114.071V255.2H106.551V253.84ZM114.371 263.52C118.031 263.52 120.351 264.82 120.351 267C120.351 269.18 118.031 270.48 114.371 270.48C110.711 270.48 108.391 269.18 108.391 267C108.391 264.82 110.711 263.52 114.371 263.52ZM114.371 264.82C111.731 264.82 110.031 265.64 110.031 267C110.031 268.36 111.731 269.16 114.371 269.16C117.031 269.16 118.731 268.36 118.731 267C118.731 265.64 117.031 264.82 114.371 264.82ZM123.769 262.84H140.169V264.2H123.769V262.84ZM131.089 263.68H132.729V270.56H131.089V263.68ZM131.929 253.2C135.709 253.2 138.249 254.74 138.249 257.16C138.249 259.58 135.709 261.12 131.929 261.12C128.169 261.12 125.609 259.58 125.609 257.16C125.609 254.74 128.169 253.2 131.929 253.2ZM131.929 254.54C129.169 254.54 127.289 255.56 127.289 257.16C127.289 258.76 129.169 259.78 131.929 259.78C134.689 259.78 136.549 258.76 136.549 257.16C136.549 255.56 134.689 254.54 131.929 254.54Z" fill="#6B7280"/>
<path d="M540.172 260.52V264.06H527.452V260.52H540.172ZM555.211 261.42C553.211 260.38 552.211 258.77 552.211 256.59C552.211 255.51 552.481 254.53 553.021 253.65C553.581 252.75 554.411 252.04 555.511 251.52C556.631 250.98 557.991 250.71 559.591 250.71C561.191 250.71 562.541 250.98 563.641 251.52C564.761 252.04 565.591 252.75 566.131 253.65C566.691 254.53 566.971 255.51 566.971 256.59C566.971 257.69 566.701 258.66 566.161 259.5C565.621 260.32 564.901 260.96 564.001 261.42C565.101 261.9 565.961 262.6 566.581 263.52C567.201 264.44 567.511 265.53 567.511 266.79C567.511 268.15 567.161 269.34 566.461 270.36C565.781 271.36 564.841 272.13 563.641 272.67C562.441 273.21 561.091 273.48 559.591 273.48C558.091 273.48 556.741 273.21 555.541 272.67C554.361 272.13 553.421 271.36 552.721 270.36C552.041 269.34 551.701 268.15 551.701 266.79C551.701 265.53 552.011 264.44 552.631 263.52C553.251 262.58 554.111 261.88 555.211 261.42ZM562.891 257.19C562.891 256.21 562.591 255.45 561.991 254.91C561.411 254.37 560.611 254.1 559.591 254.1C558.591 254.1 557.791 254.37 557.191 254.91C556.611 255.45 556.321 256.22 556.321 257.22C556.321 258.12 556.621 258.84 557.221 259.38C557.841 259.92 558.631 260.19 559.591 260.19C560.551 260.19 561.341 259.92 561.961 259.38C562.581 258.82 562.891 258.09 562.891 257.19ZM559.591 263.25C558.451 263.25 557.521 263.54 556.801 264.12C556.101 264.7 555.751 265.53 555.751 266.61C555.751 267.61 556.091 268.43 556.771 269.07C557.471 269.69 558.411 270 559.591 270C560.771 270 561.701 269.68 562.381 269.04C563.061 268.4 563.401 267.59 563.401 266.61C563.401 265.55 563.051 264.73 562.351 264.15C561.651 263.55 560.731 263.25 559.591 263.25ZM573.168 273.21C572.408 273.21 571.778 272.98 571.278 272.52C570.798 272.04 570.558 271.45 570.558 270.75C570.558 270.05 570.798 269.47 571.278 269.01C571.778 268.53 572.408 268.29 573.168 268.29C573.908 268.29 574.518 268.53 574.998 269.01C575.478 269.47 575.718 270.05 575.718 270.75C575.718 271.45 575.478 272.04 574.998 272.52C574.518 272.98 573.908 273.21 573.168 273.21ZM579.941 268.26C581.861 266.66 583.391 265.33 584.531 264.27C585.671 263.19 586.621 262.07 587.381 260.91C588.141 259.75 588.521 258.61 588.521 257.49C588.521 256.47 588.281 255.67 587.801 255.09C587.321 254.51 586.581 254.22 585.581 254.22C584.581 254.22 583.811 254.56 583.271 255.24C582.731 255.9 582.451 256.81 582.431 257.97H578.351C578.431 255.57 579.141 253.75 580.481 252.51C581.841 251.27 583.561 250.65 585.641 250.65C587.921 250.65 589.671 251.26 590.891 252.48C592.111 253.68 592.721 255.27 592.721 257.25C592.721 258.81 592.301 260.3 591.461 261.72C590.621 263.14 589.661 264.38 588.581 265.44C587.501 266.48 586.091 267.74 584.351 269.22H593.201V272.7H578.381V269.58L579.941 268.26ZM595.338 255V251.13H602.568V273H598.248V255H595.338ZM606.237 256.5C606.237 254.98 606.677 253.79 607.557 252.93C608.457 252.07 609.607 251.64 611.007 251.64C612.407 251.64 613.547 252.07 614.427 252.93C615.327 253.79 615.777 254.98 615.777 256.5C615.777 258.04 615.327 259.24 614.427 260.1C613.547 260.96 612.407 261.39 611.007 261.39C609.607 261.39 608.457 260.96 607.557 260.1C606.677 259.24 606.237 258.04 606.237 256.5ZM625.497 252L613.707 273H609.627L621.387 252H625.497ZM610.977 254.16C609.877 254.16 609.327 254.94 609.327 256.5C609.327 258.08 609.877 258.87 610.977 258.87C611.517 258.87 611.937 258.68 612.237 258.3C612.537 257.9 612.687 257.3 612.687 256.5C612.687 254.94 612.117 254.16 610.977 254.16ZM619.407 268.47C619.407 266.93 619.847 265.74 620.727 264.9C621.627 264.04 622.777 263.61 624.177 263.61C625.577 263.61 626.707 264.04 627.567 264.9C628.447 265.74 628.887 266.93 628.887 268.47C628.887 270.01 628.447 271.21 627.567 272.07C626.707 272.93 625.577 273.36 624.177 273.36C622.757 273.36 621.607 272.93 620.727 272.07C619.847 271.21 619.407 270.01 619.407 268.47ZM624.147 266.13C623.007 266.13 622.437 266.91 622.437 268.47C622.437 270.05 623.007 270.84 624.147 270.84C625.267 270.84 625.827 270.05 625.827 268.47C625.827 266.91 625.267 266.13 624.147 266.13Z" fill="#DF1525"/>
<path d="M45.23 145.31H70.37V148.58H45.23V145.31ZM55.73 139.04H59.72V146.78H55.73V139.04ZM47.15 126.17H68.3V129.35H47.15V126.17ZM47.27 137.24H68.21V140.36H47.27V137.24ZM50.93 128.81H54.92V137.6H50.93V128.81ZM60.56 128.81H64.52V137.6H60.56V128.81ZM75.7677 138.2H95.2977V141.32H75.7677V138.2ZM72.8277 145.25H97.9677V148.49H72.8277V145.25ZM75.7677 125.9H95.0577V129.11H79.8177V139.07H75.7677V125.9ZM78.5877 132.02H94.4277V135.11H78.5877V132.02ZM102.585 124.52H123.285V127.49H102.585V124.52ZM102.795 131.03H123.075V134H102.795V131.03ZM106.125 125.69H110.115V132.95H106.125V125.69ZM115.755 125.69H119.745V132.95H115.755V125.69ZM100.395 135.68H125.505V138.77H100.395V135.68ZM110.925 133.19H114.915V137.09H110.925V133.19ZM103.275 140.18H122.475V147.08H107.235V149.69H103.305V144.41H118.545V143.03H103.275V140.18ZM103.305 148.58H123.195V151.49H103.305V148.58ZM147.133 123.86H151.123V151.73H147.133V123.86ZM129.493 142.01H131.953C136.873 142.01 140.803 141.83 145.213 141.08L145.603 144.29C141.103 145.1 137.023 145.25 131.953 145.25H129.493V142.01ZM129.463 126.23H142.573V136.97H133.543V143.21H129.493V133.82H138.493V129.41H129.463V126.23ZM166.151 139.52H170.141V145.85H166.151V139.52ZM168.161 125.3C174.101 125.3 178.541 128.33 178.541 132.95C178.541 137.63 174.101 140.63 168.161 140.63C162.221 140.63 157.781 137.63 157.781 132.95C157.781 128.33 162.221 125.3 168.161 125.3ZM168.161 128.45C164.351 128.45 161.711 130.13 161.711 132.95C161.711 135.83 164.351 137.48 168.161 137.48C171.971 137.48 174.611 135.83 174.611 132.95C174.611 130.13 171.971 128.45 168.161 128.45ZM155.621 145.22H180.761V148.46H155.621V145.22ZM189.156 131.87V127.1H197.466V149H192.126V131.87H189.156Z" fill="#111111"/>
<mask id="path-30-inside-1_910_37032" fill="white">
<path d="M337.001 325C337.001 322.239 339.24 319.991 342 320.086C364.12 320.849 385.795 326.667 405.353 337.121C426.383 348.362 444.316 364.615 457.563 384.442C470.811 404.268 478.965 427.056 481.302 450.787C483.639 474.517 480.088 498.458 470.963 520.488C461.838 542.518 447.42 561.958 428.988 577.085C410.555 592.212 388.676 602.56 365.289 607.212C341.902 611.864 317.729 610.676 294.91 603.755C273.688 597.317 254.247 586.104 238.067 571.003C236.048 569.119 236.054 565.946 238.007 563.993L282.201 519.8C284.153 517.847 287.308 517.862 289.391 519.675C297.095 526.383 306.144 531.401 315.956 534.377C327.365 537.838 339.451 538.432 351.145 536.106C362.839 533.78 373.778 528.606 382.994 521.042C392.211 513.478 399.419 503.759 403.982 492.743C408.544 481.728 410.32 469.758 409.151 457.893C407.983 446.028 403.906 434.634 397.282 424.72C390.658 414.807 381.692 406.68 371.177 401.06C362.135 396.227 352.188 393.376 341.997 392.672C339.242 392.482 337.001 390.261 337.001 387.5L337.001 325Z"/>
</mask>
<path d="M337.001 325C337.001 322.239 339.24 319.991 342 320.086C364.12 320.849 385.795 326.667 405.353 337.121C426.383 348.362 444.316 364.615 457.563 384.442C470.811 404.268 478.965 427.056 481.302 450.787C483.639 474.517 480.088 498.458 470.963 520.488C461.838 542.518 447.42 561.958 428.988 577.085C410.555 592.212 388.676 602.56 365.289 607.212C341.902 611.864 317.729 610.676 294.91 603.755C273.688 597.317 254.247 586.104 238.067 571.003C236.048 569.119 236.054 565.946 238.007 563.993L282.201 519.8C284.153 517.847 287.308 517.862 289.391 519.675C297.095 526.383 306.144 531.401 315.956 534.377C327.365 537.838 339.451 538.432 351.145 536.106C362.839 533.78 373.778 528.606 382.994 521.042C392.211 513.478 399.419 503.759 403.982 492.743C408.544 481.728 410.32 469.758 409.151 457.893C407.983 446.028 403.906 434.634 397.282 424.72C390.658 414.807 381.692 406.68 371.177 401.06C362.135 396.227 352.188 393.376 341.997 392.672C339.242 392.482 337.001 390.261 337.001 387.5L337.001 325Z" fill="#5550FF" stroke="white" stroke-width="4" mask="url(#path-30-inside-1_910_37032)"/>
<g opacity="0.5">
<mask id="path-31-inside-2_910_37032" fill="white">
<path d="M197.323 455.496C194.568 455.309 192.477 452.921 192.76 450.174C196.311 415.615 212.167 383.413 237.524 359.503C262.881 335.593 295.958 321.655 330.666 320.138C333.425 320.018 335.686 322.245 335.711 325.006L336.286 387.503C336.312 390.264 334.091 392.505 331.338 392.721C314.898 394.008 299.331 400.87 287.261 412.251C275.192 423.632 267.428 438.77 265.178 455.105C264.801 457.841 262.433 459.926 259.678 459.739L197.323 455.496Z"/>
</mask>
<path d="M197.323 455.496C194.568 455.309 192.477 452.921 192.76 450.174C196.311 415.615 212.167 383.413 237.524 359.503C262.881 335.593 295.958 321.655 330.666 320.138C333.425 320.018 335.686 322.245 335.711 325.006L336.286 387.503C336.312 390.264 334.091 392.505 331.338 392.721C314.898 394.008 299.331 400.87 287.261 412.251C275.192 423.632 267.428 438.77 265.178 455.105C264.801 457.841 262.433 459.926 259.678 459.739L197.323 455.496Z" fill="#D1D5DB" stroke="white" stroke-width="4" mask="url(#path-31-inside-2_910_37032)"/>
</g>
<g opacity="0.8">
<mask id="path-32-inside-3_910_37032" fill="white">
<path d="M238.006 563.993C236.053 565.946 232.88 565.952 230.996 563.933C218.039 550.05 207.923 533.743 201.241 515.932C194.559 498.122 191.452 479.186 192.08 460.205C192.171 457.445 194.565 455.363 197.32 455.549L259.677 459.768C262.432 459.954 264.497 462.34 264.5 465.102C264.513 473.751 266.073 482.342 269.12 490.466C272.168 498.589 276.644 506.086 282.324 512.609C284.138 514.692 284.152 517.847 282.199 519.799L238.006 563.993Z"/>
</mask>
<path d="M238.006 563.993C236.053 565.946 232.88 565.952 230.996 563.933C218.039 550.05 207.923 533.743 201.241 515.932C194.559 498.122 191.452 479.186 192.08 460.205C192.171 457.445 194.565 455.363 197.32 455.549L259.677 459.768C262.432 459.954 264.497 462.34 264.5 465.102C264.513 473.751 266.073 482.342 269.12 490.466C272.168 498.589 276.644 506.086 282.324 512.609C284.138 514.692 284.152 517.847 282.199 519.799L238.006 563.993Z" fill="url(#paint0_linear_910_37032)" stroke="white" stroke-width="4" mask="url(#path-32-inside-3_910_37032)"/>
</g>
<path d="M574 12H642C653.046 12 662 20.9543 662 32V100H574V12Z" fill="url(#paint1_linear_910_37032)"/>
<g filter="url(#filter1_d_910_37032)">
<path d="M629.5 64C629.5 72.5604 622.56 79.5 614 79.5C605.44 79.5 598.5 72.5604 598.5 64C598.5 55.4396 605.44 48.5 614 48.5C622.56 48.5 629.5 55.4396 629.5 64Z" fill="white" stroke="#E5E7EB"/>
<path d="M612 59L617 64L612 69" stroke="#4B5563" stroke-width="1.2" stroke-linecap="round" stroke-linejoin="round"/>
</g>
<path d="M503 138.153C503 143.039 507.029 147 512 147C516.971 147 521 143.039 521 138.153C521 133.266 517 129.305 512 129.305C506 129.305 503 134.22 503 134.22M503 134.22V129M503 134.22H507.655" stroke="#9CA3AF" stroke-width="1.8" stroke-linecap="round" stroke-linejoin="round"/>
<path d="M560.138 147.626H555.25C555.018 147.626 554.795 147.534 554.631 147.37C554.467 147.205 554.375 146.983 554.375 146.751V141.863C554.375 141.748 554.398 141.635 554.442 141.528C554.486 141.422 554.55 141.326 554.631 141.245L567.756 128.12C567.92 127.955 568.143 127.863 568.375 127.863C568.607 127.863 568.83 127.955 568.994 128.12L573.881 133.007C574.045 133.171 574.138 133.394 574.138 133.626C574.138 133.858 574.045 134.08 573.881 134.245L560.756 147.37C560.675 147.451 560.579 147.515 560.472 147.559C560.366 147.603 560.252 147.626 560.138 147.626Z" stroke="#9CA3AF" stroke-width="1.5" stroke-linecap="round" stroke-linejoin="round"/>
<path d="M564.875 131L571 137.125" stroke="#9CA3AF" stroke-width="1.5" stroke-linecap="round" stroke-linejoin="round"/>
<path d="M560.443 147.568L554.43 141.555" stroke="#9CA3AF" stroke-width="1.5" stroke-linecap="round" stroke-linejoin="round"/>
<g clip-path="url(#clip0_910_37032)">
<path d="M624.167 132.167L623.155 146.332C623.113 146.921 622.85 147.472 622.418 147.874C621.986 148.276 621.418 148.5 620.828 148.5H611.172C610.582 148.5 610.014 148.276 609.582 147.874C609.15 147.472 608.887 146.921 608.845 146.332L607.833 132.167M606.667 132.167H625.333H606.667ZM612.5 132.167V128.667C612.5 128.357 612.623 128.061 612.842 127.842C613.06 127.623 613.357 127.5 613.667 127.5H618.333C618.643 127.5 618.939 127.623 619.158 127.842C619.377 128.061 619.5 128.357 619.5 128.667V132.167H612.5ZM613.667 136.833V143.833V136.833ZM618.333 136.833V143.833V136.833Z" stroke="#9CA3AF" stroke-width="1.5" stroke-linecap="round" stroke-linejoin="round"/>
</g>
<path d="M316.449 449.545H317.439V451.75C317.439 454.57 315.714 457.48 313.599 458.56L312.879 457.57C314.814 456.625 316.449 454.045 316.449 451.75V449.545ZM316.674 449.545H317.664V451.75C317.664 453.895 319.194 456.31 321.159 457.24L320.454 458.23C318.309 457.165 316.674 454.435 316.674 451.75V449.545ZM313.359 448.99H320.664V450.04H313.359V448.99ZM322.269 447.61H323.529V461.17H322.269V447.61ZM323.229 453.085H325.749V454.135H323.229V453.085ZM330.232 448.435H331.252V450.1C331.252 452.755 329.782 454.87 327.502 455.755L326.842 454.765C328.912 454.03 330.232 452.2 330.232 450.1V448.435ZM330.442 448.435H331.462V450.145C331.462 451.99 332.812 453.73 334.792 454.435L334.177 455.41C331.942 454.6 330.442 452.53 330.442 450.145V448.435ZM336.172 447.595H337.417V457.615H336.172V447.595ZM337.027 451.765H339.427V452.8H337.027V451.765ZM329.002 459.85H338.017V460.87H329.002V459.85ZM329.002 456.67H330.247V460.345H329.002V456.67ZM350.073 448.09H351.168V448.84C351.168 451.435 348.528 453.295 345.708 453.775L345.213 452.77C347.688 452.395 350.073 450.775 350.073 448.84V448.09ZM350.298 448.09H351.378V448.84C351.378 450.73 353.793 452.395 356.238 452.77L355.743 453.775C352.953 453.295 350.298 451.405 350.298 448.84V448.09ZM350.073 456.01H351.303V461.17H350.073V456.01ZM344.598 455.245H356.853V456.28H344.598V455.245Z" fill="black"/>
<path d="M336.8 499.358C334.891 499.358 333.19 499.03 331.699 498.374C330.216 497.709 329.044 496.797 328.183 495.638C327.331 494.47 326.892 493.124 326.866 491.598H332.44C332.474 492.237 332.683 492.8 333.067 493.286C333.459 493.763 333.979 494.134 334.626 494.398C335.274 494.662 336.003 494.794 336.812 494.794C337.656 494.794 338.402 494.645 339.05 494.347C339.697 494.048 340.205 493.635 340.571 493.107C340.938 492.578 341.121 491.969 341.121 491.278C341.121 490.58 340.925 489.962 340.533 489.425C340.149 488.879 339.595 488.453 338.871 488.146C338.155 487.839 337.303 487.686 336.314 487.686H333.872V483.621H336.314C337.149 483.621 337.886 483.476 338.526 483.186C339.173 482.896 339.676 482.496 340.034 481.984C340.392 481.464 340.571 480.859 340.571 480.169C340.571 479.513 340.413 478.938 340.098 478.443C339.791 477.94 339.357 477.548 338.794 477.267C338.24 476.986 337.592 476.845 336.851 476.845C336.101 476.845 335.415 476.982 334.793 477.254C334.17 477.518 333.672 477.898 333.297 478.392C332.922 478.886 332.722 479.466 332.696 480.131H327.391C327.416 478.622 327.847 477.293 328.682 476.142C329.517 474.991 330.642 474.092 332.057 473.445C333.48 472.788 335.087 472.46 336.876 472.46C338.683 472.46 340.264 472.788 341.619 473.445C342.974 474.101 344.027 474.987 344.777 476.104C345.536 477.212 345.911 478.456 345.902 479.837C345.911 481.303 345.455 482.526 344.534 483.506C343.622 484.486 342.433 485.108 340.967 485.372V485.577C342.893 485.824 344.359 486.493 345.365 487.584C346.379 488.666 346.882 490.021 346.874 491.649C346.882 493.141 346.452 494.466 345.582 495.625C344.722 496.784 343.533 497.696 342.016 498.361C340.499 499.026 338.76 499.358 336.8 499.358Z" fill="#0198FF"/>
</g>
<defs>
<filter id="filter0_d_910_37032" x="0" y="0" width="674" height="830" filterUnits="userSpaceOnUse" color-interpolation-filters="sRGB">
<feFlood flood-opacity="0" result="BackgroundImageFix"/>
<feColorMatrix in="SourceAlpha" type="matrix" values="0 0 0 0 0 0 0 0 0 0 0 0 0 0 0 0 0 0 127 0" result="hardAlpha"/>
<feOffset/>
<feGaussianBlur stdDeviation="6"/>
<feComposite in2="hardAlpha" operator="out"/>
<feColorMatrix type="matrix" values="0 0 0 0 0.475936 0 0 0 0 0.469306 0 0 0 0 0.516667 0 0 0 0.15 0"/>
<feBlend mode="normal" in2="BackgroundImageFix" result="effect1_dropShadow_910_37032"/>
<feBlend mode="normal" in="SourceGraphic" in2="effect1_dropShadow_910_37032" result="shape"/>
</filter>
<filter id="filter1_d_910_37032" x="586" y="40" width="56" height="56" filterUnits="userSpaceOnUse" color-interpolation-filters="sRGB">
<feFlood flood-opacity="0" result="BackgroundImageFix"/>
<feColorMatrix in="SourceAlpha" type="matrix" values="0 0 0 0 0 0 0 0 0 0 0 0 0 0 0 0 0 0 127 0" result="hardAlpha"/>
<feOffset dy="4"/>
<feGaussianBlur stdDeviation="6"/>
<feComposite in2="hardAlpha" operator="out"/>
<feColorMatrix type="matrix" values="0 0 0 0 0.475936 0 0 0 0 0.469306 0 0 0 0 0.516667 0 0 0 0.18 0"/>
<feBlend mode="normal" in2="BackgroundImageFix" result="effect1_dropShadow_910_37032"/>
<feBlend mode="normal" in="SourceGraphic" in2="effect1_dropShadow_910_37032" result="shape"/>
</filter>
<linearGradient id="paint0_linear_910_37032" x1="285.385" y1="463.402" x2="327.394" y2="1178.31" gradientUnits="userSpaceOnUse">
<stop stop-color="#1B59F8"/>
<stop offset="1" stop-color="#1B59F8" stop-opacity="0.46"/>
</linearGradient>
<linearGradient id="paint1_linear_910_37032" x1="662" y1="64" x2="571.171" y2="64" gradientUnits="userSpaceOnUse">
<stop offset="0.866131" stop-color="white"/>
<stop offset="1" stop-color="white" stop-opacity="0"/>
</linearGradient>
<clipPath id="clip0_910_37032">
<rect width="28" height="28" fill="white" transform="translate(602 124)"/>
</clipPath>
</defs>
</svg>
