<svg width="558" height="428" viewBox="0 0 558 428" fill="none" xmlns="http://www.w3.org/2000/svg">
<circle cx="84" cy="84" r="83" fill="white" stroke="#0198FF" stroke-width="2" stroke-dasharray="3 3"/>
<path d="M71.1514 46.1592V59H69.0332V48.6729L65.8955 49.7363V47.9873L70.8965 46.1592H71.1514ZM83.9395 51.5293V53.6211C83.9395 54.623 83.8398 55.4785 83.6406 56.1875C83.4473 56.8906 83.166 57.4619 82.7969 57.9014C82.4277 58.3408 81.9854 58.6631 81.4697 58.8682C80.96 59.0732 80.3887 59.1758 79.7559 59.1758C79.252 59.1758 78.7832 59.1113 78.3496 58.9824C77.9219 58.8535 77.5352 58.6514 77.1895 58.376C76.8438 58.1006 76.5479 57.7461 76.3018 57.3125C76.0615 56.873 75.874 56.3486 75.7393 55.7393C75.6104 55.1299 75.5459 54.4238 75.5459 53.6211V51.5293C75.5459 50.5215 75.6455 49.6719 75.8447 48.9805C76.0439 48.2832 76.3281 47.7178 76.6973 47.2842C77.0664 46.8447 77.5059 46.5254 78.0156 46.3262C78.5312 46.127 79.1055 46.0273 79.7383 46.0273C80.248 46.0273 80.7168 46.0918 81.1445 46.2207C81.5781 46.3438 81.9648 46.54 82.3047 46.8096C82.6504 47.0791 82.9434 47.4307 83.1836 47.8643C83.4297 48.292 83.6172 48.8105 83.7461 49.4199C83.875 50.0234 83.9395 50.7266 83.9395 51.5293ZM81.8213 53.9199V51.2129C81.8213 50.7031 81.792 50.2549 81.7334 49.8682C81.6748 49.4756 81.5869 49.1445 81.4697 48.875C81.3584 48.5996 81.2178 48.377 81.0479 48.207C80.8779 48.0312 80.6846 47.9053 80.4678 47.8291C80.251 47.7471 80.0078 47.7061 79.7383 47.7061C79.4102 47.7061 79.1172 47.7705 78.8594 47.8994C78.6016 48.0225 78.3848 48.2217 78.209 48.4971C78.0332 48.7725 77.8984 49.1357 77.8047 49.5869C77.7168 50.0322 77.6729 50.5742 77.6729 51.2129V53.9199C77.6729 54.4355 77.7021 54.8896 77.7607 55.2822C77.8193 55.6748 77.9072 56.0117 78.0244 56.293C78.1416 56.5684 78.2822 56.7969 78.4463 56.9785C78.6162 57.1543 78.8096 57.2832 79.0264 57.3652C79.249 57.4473 79.4922 57.4883 79.7559 57.4883C80.0898 57.4883 80.3857 57.4238 80.6436 57.2949C80.9014 57.166 81.1182 56.9609 81.2939 56.6797C81.4697 56.3926 81.6016 56.0205 81.6895 55.5635C81.7773 55.1064 81.8213 54.5586 81.8213 53.9199ZM85.7412 49.3408V48.6641C85.7412 48.1777 85.8467 47.7354 86.0576 47.3369C86.2686 46.9385 86.5762 46.6191 86.9805 46.3789C87.3848 46.1387 87.8711 46.0186 88.4395 46.0186C89.0254 46.0186 89.5176 46.1387 89.916 46.3789C90.3203 46.6191 90.6279 46.9385 90.8389 47.3369C91.0498 47.7354 91.1553 48.1777 91.1553 48.6641V49.3408C91.1553 49.8154 91.0498 50.252 90.8389 50.6504C90.6338 51.0488 90.3291 51.3682 89.9248 51.6084C89.5264 51.8486 89.0371 51.9688 88.457 51.9688C87.8828 51.9688 87.3906 51.8486 86.9805 51.6084C86.5762 51.3682 86.2686 51.0488 86.0576 50.6504C85.8467 50.252 85.7412 49.8154 85.7412 49.3408ZM87.209 48.6641V49.3408C87.209 49.5752 87.2529 49.7979 87.3408 50.0088C87.4346 50.2197 87.5752 50.3896 87.7627 50.5186C87.9502 50.6475 88.1816 50.7119 88.457 50.7119C88.7383 50.7119 88.9668 50.6475 89.1426 50.5186C89.3242 50.3896 89.459 50.2197 89.5469 50.0088C89.6348 49.7979 89.6787 49.5752 89.6787 49.3408V48.6641C89.6787 48.4238 89.6318 48.1982 89.5381 47.9873C89.4502 47.7705 89.3154 47.5977 89.1338 47.4688C88.9521 47.3398 88.7207 47.2754 88.4395 47.2754C88.1699 47.2754 87.9414 47.3398 87.7539 47.4688C87.5723 47.5977 87.4346 47.7705 87.3408 47.9873C87.2529 48.1982 87.209 48.4238 87.209 48.6641ZM91.9111 56.5479V55.8623C91.9111 55.3818 92.0166 54.9424 92.2275 54.5439C92.4443 54.1455 92.7549 53.8262 93.1592 53.5859C93.5635 53.3457 94.0498 53.2256 94.6182 53.2256C95.2041 53.2256 95.6963 53.3457 96.0947 53.5859C96.499 53.8262 96.8037 54.1455 97.0088 54.5439C97.2197 54.9424 97.3252 55.3818 97.3252 55.8623V56.5479C97.3252 57.0283 97.2197 57.4678 97.0088 57.8662C96.8037 58.2646 96.502 58.584 96.1035 58.8242C95.7051 59.0645 95.2188 59.1846 94.6445 59.1846C94.0645 59.1846 93.5693 59.0645 93.1592 58.8242C92.7549 58.584 92.4443 58.2646 92.2275 57.8662C92.0166 57.4678 91.9111 57.0283 91.9111 56.5479ZM93.3877 55.8623V56.5479C93.3877 56.7822 93.4346 57.0049 93.5283 57.2158C93.6279 57.4268 93.7715 57.5996 93.959 57.7344C94.1465 57.8633 94.3721 57.9277 94.6357 57.9277C94.9346 57.9277 95.1748 57.8633 95.3564 57.7344C95.5381 57.5996 95.667 57.4297 95.7432 57.2246C95.8252 57.0137 95.8662 56.7881 95.8662 56.5479V55.8623C95.8662 55.6221 95.8193 55.3965 95.7256 55.1855C95.6377 54.9746 95.5 54.8047 95.3125 54.6758C95.1309 54.5469 94.8994 54.4824 94.6182 54.4824C94.3428 54.4824 94.1143 54.5469 93.9326 54.6758C93.751 54.8047 93.6133 54.9746 93.5195 55.1855C93.4316 55.3965 93.3877 55.6221 93.3877 55.8623ZM95.1455 48.0312L88.8965 58.0332L87.8154 57.4092L94.0645 47.4072L95.1455 48.0312ZM29.5703 74.2031H34.0967C35.0693 74.2031 35.8984 74.3496 36.584 74.6426C37.2695 74.9355 37.7939 75.3691 38.1572 75.9434C38.5264 76.5117 38.7109 77.2148 38.7109 78.0527C38.7109 78.6914 38.5938 79.2539 38.3594 79.7402C38.125 80.2266 37.7939 80.6367 37.3662 80.9707C36.9385 81.2988 36.4287 81.5537 35.8369 81.7354L35.1689 82.0605H31.0996L31.082 80.3115H34.1318C34.6592 80.3115 35.0986 80.2178 35.4502 80.0303C35.8018 79.8428 36.0654 79.5879 36.2412 79.2656C36.4229 78.9375 36.5137 78.5684 36.5137 78.1582C36.5137 77.7129 36.4258 77.3262 36.25 76.998C36.0801 76.6641 35.8164 76.4092 35.459 76.2334C35.1016 76.0518 34.6475 75.9609 34.0967 75.9609H31.7764V87H29.5703V74.2031ZM36.874 87L33.8682 81.252L36.1797 81.2432L39.2295 86.8857V87H36.874ZM46.0586 85.0928V80.5576C46.0586 80.2178 45.9971 79.9248 45.874 79.6787C45.751 79.4326 45.5635 79.2422 45.3115 79.1074C45.0654 78.9727 44.7549 78.9053 44.3799 78.9053C44.0342 78.9053 43.7354 78.9639 43.4834 79.0811C43.2314 79.1982 43.0352 79.3564 42.8945 79.5557C42.7539 79.7549 42.6836 79.9805 42.6836 80.2324H40.5742C40.5742 79.8574 40.665 79.4941 40.8467 79.1426C41.0283 78.791 41.292 78.4775 41.6377 78.2021C41.9834 77.9268 42.3965 77.71 42.877 77.5518C43.3574 77.3936 43.8965 77.3145 44.4941 77.3145C45.209 77.3145 45.8418 77.4346 46.3926 77.6748C46.9492 77.915 47.3857 78.2783 47.7021 78.7646C48.0244 79.2451 48.1855 79.8486 48.1855 80.5752V84.8027C48.1855 85.2363 48.2148 85.626 48.2734 85.9717C48.3379 86.3115 48.4287 86.6074 48.5459 86.8594V87H46.375C46.2754 86.7715 46.1963 86.4814 46.1377 86.1299C46.085 85.7725 46.0586 85.4268 46.0586 85.0928ZM46.3662 81.2168L46.3838 82.5264H44.8633C44.4707 82.5264 44.125 82.5645 43.8262 82.6406C43.5273 82.7109 43.2783 82.8164 43.0791 82.957C42.8799 83.0977 42.7305 83.2676 42.6309 83.4668C42.5312 83.666 42.4814 83.8916 42.4814 84.1436C42.4814 84.3955 42.54 84.627 42.6572 84.8379C42.7744 85.043 42.9443 85.2041 43.167 85.3213C43.3955 85.4385 43.6709 85.4971 43.9932 85.4971C44.4268 85.4971 44.8047 85.4092 45.127 85.2334C45.4551 85.0518 45.7129 84.832 45.9004 84.5742C46.0879 84.3105 46.1875 84.0615 46.1992 83.8271L46.8848 84.7676C46.8145 85.0078 46.6943 85.2656 46.5244 85.541C46.3545 85.8164 46.1318 86.0801 45.8564 86.332C45.5869 86.5781 45.2617 86.7803 44.8809 86.9385C44.5059 87.0967 44.0723 87.1758 43.5801 87.1758C42.959 87.1758 42.4053 87.0527 41.9189 86.8066C41.4326 86.5547 41.0518 86.2178 40.7764 85.7959C40.501 85.3682 40.3633 84.8848 40.3633 84.3457C40.3633 83.8418 40.457 83.3965 40.6445 83.0098C40.8379 82.6172 41.1191 82.2891 41.4883 82.0254C41.8633 81.7617 42.3203 81.5625 42.8594 81.4277C43.3984 81.2871 44.0137 81.2168 44.7051 81.2168H46.3662ZM54.7598 77.4902V79.0371H49.3984V77.4902H54.7598ZM50.9453 75.1611H53.0635V84.3721C53.0635 84.665 53.1045 84.8906 53.1865 85.0488C53.2744 85.2012 53.3945 85.3037 53.5469 85.3564C53.6992 85.4092 53.8779 85.4355 54.083 85.4355C54.2295 85.4355 54.3701 85.4268 54.5049 85.4092C54.6396 85.3916 54.748 85.374 54.8301 85.3564L54.8389 86.9736C54.6631 87.0264 54.458 87.0732 54.2236 87.1143C53.9951 87.1553 53.7314 87.1758 53.4326 87.1758C52.9463 87.1758 52.5156 87.0908 52.1406 86.9209C51.7656 86.7451 51.4727 86.4609 51.2617 86.0684C51.0508 85.6758 50.9453 85.1543 50.9453 84.5039V75.1611ZM60.5869 87.1758C59.8838 87.1758 59.248 87.0615 58.6797 86.833C58.1172 86.5986 57.6367 86.2734 57.2383 85.8574C56.8457 85.4414 56.5439 84.9521 56.333 84.3896C56.1221 83.8271 56.0166 83.2207 56.0166 82.5703V82.2188C56.0166 81.4746 56.125 80.8008 56.3418 80.1973C56.5586 79.5938 56.8604 79.0781 57.2471 78.6504C57.6338 78.2168 58.0908 77.8857 58.6182 77.6572C59.1455 77.4287 59.7168 77.3145 60.332 77.3145C61.0117 77.3145 61.6064 77.4287 62.1162 77.6572C62.626 77.8857 63.0479 78.208 63.3818 78.624C63.7217 79.0342 63.9736 79.5234 64.1377 80.0918C64.3076 80.6602 64.3926 81.2871 64.3926 81.9727V82.8779H57.0449V81.3574H62.3008V81.1904C62.2891 80.8096 62.2129 80.4521 62.0723 80.1182C61.9375 79.7842 61.7295 79.5146 61.4482 79.3096C61.167 79.1045 60.792 79.002 60.3232 79.002C59.9717 79.002 59.6582 79.0781 59.3828 79.2305C59.1133 79.377 58.8877 79.5908 58.7061 79.8721C58.5244 80.1533 58.3838 80.4932 58.2842 80.8916C58.1904 81.2842 58.1436 81.7266 58.1436 82.2188V82.5703C58.1436 82.9863 58.1992 83.373 58.3105 83.7305C58.4277 84.082 58.5977 84.3896 58.8203 84.6533C59.043 84.917 59.3125 85.125 59.6289 85.2773C59.9453 85.4238 60.3057 85.4971 60.71 85.4971C61.2197 85.4971 61.6738 85.3945 62.0723 85.1895C62.4707 84.9844 62.8164 84.6943 63.1094 84.3193L64.2256 85.4004C64.0205 85.6992 63.7539 85.9863 63.4258 86.2617C63.0977 86.5312 62.6963 86.751 62.2217 86.9209C61.7529 87.0908 61.208 87.1758 60.5869 87.1758ZM70.123 82.3506V82.1484C70.123 81.4629 70.2227 80.8271 70.4219 80.2412C70.6211 79.6494 70.9082 79.1367 71.2832 78.7031C71.6641 78.2637 72.127 77.9238 72.6719 77.6836C73.2227 77.4375 73.8438 77.3145 74.5352 77.3145C75.2324 77.3145 75.8535 77.4375 76.3984 77.6836C76.9492 77.9238 77.415 78.2637 77.7959 78.7031C78.1768 79.1367 78.4668 79.6494 78.666 80.2412C78.8652 80.8271 78.9648 81.4629 78.9648 82.1484V82.3506C78.9648 83.0361 78.8652 83.6719 78.666 84.2578C78.4668 84.8438 78.1768 85.3564 77.7959 85.7959C77.415 86.2295 76.9521 86.5693 76.4072 86.8154C75.8623 87.0557 75.2441 87.1758 74.5527 87.1758C73.8555 87.1758 73.2314 87.0557 72.6807 86.8154C72.1357 86.5693 71.6729 86.2295 71.292 85.7959C70.9111 85.3564 70.6211 84.8438 70.4219 84.2578C70.2227 83.6719 70.123 83.0361 70.123 82.3506ZM72.2412 82.1484V82.3506C72.2412 82.7783 72.2852 83.1826 72.373 83.5635C72.4609 83.9443 72.5986 84.2783 72.7861 84.5654C72.9736 84.8525 73.2139 85.0781 73.5068 85.2422C73.7998 85.4062 74.1484 85.4883 74.5527 85.4883C74.9453 85.4883 75.2852 85.4062 75.5723 85.2422C75.8652 85.0781 76.1055 84.8525 76.293 84.5654C76.4805 84.2783 76.6182 83.9443 76.7061 83.5635C76.7998 83.1826 76.8467 82.7783 76.8467 82.3506V82.1484C76.8467 81.7266 76.7998 81.3281 76.7061 80.9531C76.6182 80.5723 76.4775 80.2354 76.2842 79.9424C76.0967 79.6494 75.8564 79.4209 75.5635 79.2568C75.2764 79.0869 74.9336 79.002 74.5352 79.002C74.1367 79.002 73.791 79.0869 73.498 79.2568C73.2109 79.4209 72.9736 79.6494 72.7861 79.9424C72.5986 80.2354 72.4609 80.5723 72.373 80.9531C72.2852 81.3281 72.2412 81.7266 72.2412 82.1484ZM83.6055 87H81.4873V76.5762C81.4873 75.8672 81.6191 75.2725 81.8828 74.792C82.1523 74.3057 82.5361 73.9395 83.0342 73.6934C83.5322 73.4414 84.1211 73.3154 84.8008 73.3154C85.0117 73.3154 85.2197 73.3301 85.4248 73.3594C85.6299 73.3828 85.8291 73.4209 86.0225 73.4736L85.9697 75.1084C85.8525 75.0791 85.7236 75.0586 85.583 75.0469C85.4482 75.0352 85.3018 75.0293 85.1436 75.0293C84.8213 75.0293 84.543 75.0908 84.3086 75.2139C84.0801 75.3311 83.9043 75.5039 83.7812 75.7324C83.6641 75.9609 83.6055 76.2422 83.6055 76.5762V87ZM85.5654 77.4902V79.0371H80.0283V77.4902H85.5654ZM93.7129 79.3008V87H91.5947V77.4902H93.6162L93.7129 79.3008ZM96.6221 77.4287L96.6045 79.3975C96.4756 79.374 96.335 79.3564 96.1826 79.3447C96.0361 79.333 95.8896 79.3271 95.7432 79.3271C95.3799 79.3271 95.0605 79.3799 94.7852 79.4854C94.5098 79.585 94.2783 79.7314 94.0908 79.9248C93.9092 80.1123 93.7686 80.3408 93.6689 80.6104C93.5693 80.8799 93.5107 81.1816 93.4932 81.5156L93.0098 81.5508C93.0098 80.9531 93.0684 80.3994 93.1855 79.8896C93.3027 79.3799 93.4785 78.9316 93.7129 78.5449C93.9531 78.1582 94.252 77.8564 94.6094 77.6396C94.9727 77.4229 95.3916 77.3145 95.8662 77.3145C95.9951 77.3145 96.1328 77.3262 96.2793 77.3496C96.4316 77.373 96.5459 77.3994 96.6221 77.4287ZM101.966 87.1758C101.263 87.1758 100.627 87.0615 100.059 86.833C99.4961 86.5986 99.0156 86.2734 98.6172 85.8574C98.2246 85.4414 97.9229 84.9521 97.7119 84.3896C97.501 83.8271 97.3955 83.2207 97.3955 82.5703V82.2188C97.3955 81.4746 97.5039 80.8008 97.7207 80.1973C97.9375 79.5938 98.2393 79.0781 98.626 78.6504C99.0127 78.2168 99.4697 77.8857 99.9971 77.6572C100.524 77.4287 101.096 77.3145 101.711 77.3145C102.391 77.3145 102.985 77.4287 103.495 77.6572C104.005 77.8857 104.427 78.208 104.761 78.624C105.101 79.0342 105.353 79.5234 105.517 80.0918C105.687 80.6602 105.771 81.2871 105.771 81.9727V82.8779H98.4238V81.3574H103.68V81.1904C103.668 80.8096 103.592 80.4521 103.451 80.1182C103.316 79.7842 103.108 79.5146 102.827 79.3096C102.546 79.1045 102.171 79.002 101.702 79.002C101.351 79.002 101.037 79.0781 100.762 79.2305C100.492 79.377 100.267 79.5908 100.085 79.8721C99.9033 80.1533 99.7627 80.4932 99.6631 80.8916C99.5693 81.2842 99.5225 81.7266 99.5225 82.2188V82.5703C99.5225 82.9863 99.5781 83.373 99.6895 83.7305C99.8066 84.082 99.9766 84.3896 100.199 84.6533C100.422 84.917 100.691 85.125 101.008 85.2773C101.324 85.4238 101.685 85.4971 102.089 85.4971C102.599 85.4971 103.053 85.3945 103.451 85.1895C103.85 84.9844 104.195 84.6943 104.488 84.3193L105.604 85.4004C105.399 85.6992 105.133 85.9863 104.805 86.2617C104.477 86.5312 104.075 86.751 103.601 86.9209C103.132 87.0908 102.587 87.1758 101.966 87.1758ZM111.783 77.4902V79.0371H106.422V77.4902H111.783ZM107.969 75.1611H110.087V84.3721C110.087 84.665 110.128 84.8906 110.21 85.0488C110.298 85.2012 110.418 85.3037 110.57 85.3564C110.723 85.4092 110.901 85.4355 111.106 85.4355C111.253 85.4355 111.394 85.4268 111.528 85.4092C111.663 85.3916 111.771 85.374 111.854 85.3564L111.862 86.9736C111.687 87.0264 111.481 87.0732 111.247 87.1143C111.019 87.1553 110.755 87.1758 110.456 87.1758C109.97 87.1758 109.539 87.0908 109.164 86.9209C108.789 86.7451 108.496 86.4609 108.285 86.0684C108.074 85.6758 107.969 85.1543 107.969 84.5039V75.1611ZM119.14 84.7588V77.4902H121.267V87H119.263L119.14 84.7588ZM119.438 82.7812L120.15 82.7637C120.15 83.4023 120.08 83.9912 119.939 84.5303C119.799 85.0635 119.582 85.5293 119.289 85.9277C118.996 86.3203 118.621 86.6279 118.164 86.8506C117.707 87.0674 117.159 87.1758 116.521 87.1758C116.058 87.1758 115.633 87.1084 115.246 86.9736C114.859 86.8389 114.525 86.6309 114.244 86.3496C113.969 86.0684 113.755 85.7021 113.603 85.251C113.45 84.7998 113.374 84.2607 113.374 83.6338V77.4902H115.492V83.6514C115.492 83.9971 115.533 84.2871 115.615 84.5215C115.697 84.75 115.809 84.9346 115.949 85.0752C116.09 85.2158 116.254 85.3154 116.441 85.374C116.629 85.4326 116.828 85.4619 117.039 85.4619C117.643 85.4619 118.117 85.3447 118.463 85.1104C118.814 84.8701 119.063 84.5479 119.21 84.1436C119.362 83.7393 119.438 83.2852 119.438 82.7812ZM125.564 79.3008V87H123.446V77.4902H125.468L125.564 79.3008ZM128.474 77.4287L128.456 79.3975C128.327 79.374 128.187 79.3564 128.034 79.3447C127.888 79.333 127.741 79.3271 127.595 79.3271C127.231 79.3271 126.912 79.3799 126.637 79.4854C126.361 79.585 126.13 79.7314 125.942 79.9248C125.761 80.1123 125.62 80.3408 125.521 80.6104C125.421 80.8799 125.362 81.1816 125.345 81.5156L124.861 81.5508C124.861 80.9531 124.92 80.3994 125.037 79.8896C125.154 79.3799 125.33 78.9316 125.564 78.5449C125.805 78.1582 126.104 77.8564 126.461 77.6396C126.824 77.4229 127.243 77.3145 127.718 77.3145C127.847 77.3145 127.984 77.3262 128.131 77.3496C128.283 77.373 128.397 77.3994 128.474 77.4287ZM131.901 79.5205V87H129.783V77.4902H131.778L131.901 79.5205ZM131.523 81.8936L130.838 81.8848C130.844 81.2109 130.938 80.5928 131.119 80.0303C131.307 79.4678 131.564 78.9844 131.893 78.5801C132.227 78.1758 132.625 77.8652 133.088 77.6484C133.551 77.4258 134.066 77.3145 134.635 77.3145C135.092 77.3145 135.505 77.3789 135.874 77.5078C136.249 77.6309 136.568 77.833 136.832 78.1143C137.102 78.3955 137.307 78.7617 137.447 79.2129C137.588 79.6582 137.658 80.2061 137.658 80.8564V87H135.531V80.8477C135.531 80.3906 135.464 80.0303 135.329 79.7666C135.2 79.4971 135.01 79.3066 134.758 79.1953C134.512 79.0781 134.204 79.0195 133.835 79.0195C133.472 79.0195 133.146 79.0957 132.859 79.248C132.572 79.4004 132.329 79.6084 132.13 79.8721C131.937 80.1357 131.787 80.4404 131.682 80.7861C131.576 81.1318 131.523 81.501 131.523 81.8936Z" fill="#374151"/>
<path d="M92.4258 124.926V125.148C92.4102 125.805 92.3398 126.484 92.2148 127.188C92.0977 127.891 91.9297 128.594 91.7109 129.297C91.4922 130 91.2305 130.695 90.9258 131.383C90.6211 132.07 90.2773 132.727 89.8945 133.352C89.5195 133.984 89.1133 134.574 88.6758 135.121C88.2383 135.676 87.7773 136.164 87.293 136.586L85.5469 135.578C85.8203 135.117 86.0664 134.613 86.2852 134.066C86.5117 133.527 86.7148 132.961 86.8945 132.367C87.0742 131.773 87.2266 131.164 87.3516 130.539C87.4844 129.914 87.5938 129.293 87.6797 128.676C87.7656 128.059 87.8281 127.453 87.8672 126.859C87.9141 126.258 87.9375 125.688 87.9375 125.148C87.9375 124.727 87.9336 124.25 87.9258 123.719C87.9258 123.18 87.8945 122.633 87.832 122.078C87.7773 121.523 87.6836 120.984 87.5508 120.461C87.418 119.93 87.2188 119.457 86.9531 119.043C86.6953 118.629 86.3594 118.297 85.9453 118.047C85.5391 117.797 85.0312 117.672 84.4219 117.672C83.8828 117.672 83.418 117.766 83.0273 117.953C82.6445 118.133 82.3164 118.379 82.043 118.691C81.7773 118.996 81.5625 119.352 81.3984 119.758C81.2422 120.164 81.1172 120.594 81.0234 121.047C80.9375 121.492 80.8789 121.945 80.8477 122.406C80.8242 122.859 80.8125 123.289 80.8125 123.695V126.965H85.8633V128.898H80.8125V133H76.1602V124.422C76.1602 123.195 76.3555 122.055 76.7461 121C77.1367 119.945 77.6875 119.031 78.3984 118.258C79.1172 117.477 79.9766 116.867 80.9766 116.43C81.9844 115.984 83.1055 115.762 84.3398 115.762C85.1758 115.762 85.957 115.883 86.6836 116.125C87.418 116.359 88.0859 116.688 88.6875 117.109C89.2891 117.523 89.8242 118.02 90.293 118.598C90.7695 119.168 91.1641 119.793 91.4766 120.473C91.7969 121.152 92.0391 121.871 92.2031 122.629C92.3672 123.387 92.4414 124.152 92.4258 124.926Z" fill="#0198FF"/>
<circle cx="84" cy="344" r="83" fill="white" stroke="#0148FF" stroke-width="2" stroke-dasharray="3 3"/>
<path d="M45.459 302.159V315H43.3408V304.673L40.2031 305.736V303.987L45.2041 302.159H45.459ZM58.2471 307.529V309.621C58.2471 310.623 58.1475 311.479 57.9482 312.188C57.7549 312.891 57.4736 313.462 57.1045 313.901C56.7354 314.341 56.293 314.663 55.7773 314.868C55.2676 315.073 54.6963 315.176 54.0635 315.176C53.5596 315.176 53.0908 315.111 52.6572 314.982C52.2295 314.854 51.8428 314.651 51.4971 314.376C51.1514 314.101 50.8555 313.746 50.6094 313.312C50.3691 312.873 50.1816 312.349 50.0469 311.739C49.918 311.13 49.8535 310.424 49.8535 309.621V307.529C49.8535 306.521 49.9531 305.672 50.1523 304.98C50.3516 304.283 50.6357 303.718 51.0049 303.284C51.374 302.845 51.8135 302.525 52.3232 302.326C52.8389 302.127 53.4131 302.027 54.0459 302.027C54.5557 302.027 55.0244 302.092 55.4521 302.221C55.8857 302.344 56.2725 302.54 56.6123 302.81C56.958 303.079 57.251 303.431 57.4912 303.864C57.7373 304.292 57.9248 304.811 58.0537 305.42C58.1826 306.023 58.2471 306.727 58.2471 307.529ZM56.1289 309.92V307.213C56.1289 306.703 56.0996 306.255 56.041 305.868C55.9824 305.476 55.8945 305.145 55.7773 304.875C55.666 304.6 55.5254 304.377 55.3555 304.207C55.1855 304.031 54.9922 303.905 54.7754 303.829C54.5586 303.747 54.3154 303.706 54.0459 303.706C53.7178 303.706 53.4248 303.771 53.167 303.899C52.9092 304.022 52.6924 304.222 52.5166 304.497C52.3408 304.772 52.2061 305.136 52.1123 305.587C52.0244 306.032 51.9805 306.574 51.9805 307.213V309.92C51.9805 310.436 52.0098 310.89 52.0684 311.282C52.127 311.675 52.2148 312.012 52.332 312.293C52.4492 312.568 52.5898 312.797 52.7539 312.979C52.9238 313.154 53.1172 313.283 53.334 313.365C53.5566 313.447 53.7998 313.488 54.0635 313.488C54.3975 313.488 54.6934 313.424 54.9512 313.295C55.209 313.166 55.4258 312.961 55.6016 312.68C55.7773 312.393 55.9092 312.021 55.9971 311.563C56.085 311.106 56.1289 310.559 56.1289 309.92ZM60.0488 305.341V304.664C60.0488 304.178 60.1543 303.735 60.3652 303.337C60.5762 302.938 60.8838 302.619 61.2881 302.379C61.6924 302.139 62.1787 302.019 62.7471 302.019C63.333 302.019 63.8252 302.139 64.2236 302.379C64.6279 302.619 64.9355 302.938 65.1465 303.337C65.3574 303.735 65.4629 304.178 65.4629 304.664V305.341C65.4629 305.815 65.3574 306.252 65.1465 306.65C64.9414 307.049 64.6367 307.368 64.2324 307.608C63.834 307.849 63.3447 307.969 62.7646 307.969C62.1904 307.969 61.6982 307.849 61.2881 307.608C60.8838 307.368 60.5762 307.049 60.3652 306.65C60.1543 306.252 60.0488 305.815 60.0488 305.341ZM61.5166 304.664V305.341C61.5166 305.575 61.5605 305.798 61.6484 306.009C61.7422 306.22 61.8828 306.39 62.0703 306.519C62.2578 306.647 62.4893 306.712 62.7646 306.712C63.0459 306.712 63.2744 306.647 63.4502 306.519C63.6318 306.39 63.7666 306.22 63.8545 306.009C63.9424 305.798 63.9863 305.575 63.9863 305.341V304.664C63.9863 304.424 63.9395 304.198 63.8457 303.987C63.7578 303.771 63.623 303.598 63.4414 303.469C63.2598 303.34 63.0283 303.275 62.7471 303.275C62.4775 303.275 62.249 303.34 62.0615 303.469C61.8799 303.598 61.7422 303.771 61.6484 303.987C61.5605 304.198 61.5166 304.424 61.5166 304.664ZM66.2188 312.548V311.862C66.2188 311.382 66.3242 310.942 66.5352 310.544C66.752 310.146 67.0625 309.826 67.4668 309.586C67.8711 309.346 68.3574 309.226 68.9258 309.226C69.5117 309.226 70.0039 309.346 70.4023 309.586C70.8066 309.826 71.1113 310.146 71.3164 310.544C71.5273 310.942 71.6328 311.382 71.6328 311.862V312.548C71.6328 313.028 71.5273 313.468 71.3164 313.866C71.1113 314.265 70.8096 314.584 70.4111 314.824C70.0127 315.064 69.5264 315.185 68.9521 315.185C68.3721 315.185 67.877 315.064 67.4668 314.824C67.0625 314.584 66.752 314.265 66.5352 313.866C66.3242 313.468 66.2188 313.028 66.2188 312.548ZM67.6953 311.862V312.548C67.6953 312.782 67.7422 313.005 67.8359 313.216C67.9355 313.427 68.0791 313.6 68.2666 313.734C68.4541 313.863 68.6797 313.928 68.9434 313.928C69.2422 313.928 69.4824 313.863 69.6641 313.734C69.8457 313.6 69.9746 313.43 70.0508 313.225C70.1328 313.014 70.1738 312.788 70.1738 312.548V311.862C70.1738 311.622 70.127 311.396 70.0332 311.186C69.9453 310.975 69.8076 310.805 69.6201 310.676C69.4385 310.547 69.207 310.482 68.9258 310.482C68.6504 310.482 68.4219 310.547 68.2402 310.676C68.0586 310.805 67.9209 310.975 67.8271 311.186C67.7393 311.396 67.6953 311.622 67.6953 311.862ZM69.4531 304.031L63.2041 314.033L62.123 313.409L68.3721 303.407L69.4531 304.031ZM78.207 302.203H82.7334C83.7061 302.203 84.5352 302.35 85.2207 302.643C85.9062 302.936 86.4307 303.369 86.7939 303.943C87.1631 304.512 87.3477 305.215 87.3477 306.053C87.3477 306.691 87.2305 307.254 86.9961 307.74C86.7617 308.227 86.4307 308.637 86.0029 308.971C85.5752 309.299 85.0654 309.554 84.4736 309.735L83.8057 310.061H79.7363L79.7188 308.312H82.7686C83.2959 308.312 83.7354 308.218 84.0869 308.03C84.4385 307.843 84.7021 307.588 84.8779 307.266C85.0596 306.938 85.1504 306.568 85.1504 306.158C85.1504 305.713 85.0625 305.326 84.8867 304.998C84.7168 304.664 84.4531 304.409 84.0957 304.233C83.7383 304.052 83.2842 303.961 82.7334 303.961H80.4131V315H78.207V302.203ZM85.5107 315L82.5049 309.252L84.8164 309.243L87.8662 314.886V315H85.5107ZM93.5264 315.176C92.8232 315.176 92.1875 315.062 91.6191 314.833C91.0566 314.599 90.5762 314.273 90.1777 313.857C89.7852 313.441 89.4834 312.952 89.2725 312.39C89.0615 311.827 88.9561 311.221 88.9561 310.57V310.219C88.9561 309.475 89.0645 308.801 89.2812 308.197C89.498 307.594 89.7998 307.078 90.1865 306.65C90.5732 306.217 91.0303 305.886 91.5576 305.657C92.085 305.429 92.6562 305.314 93.2715 305.314C93.9512 305.314 94.5459 305.429 95.0557 305.657C95.5654 305.886 95.9873 306.208 96.3213 306.624C96.6611 307.034 96.9131 307.523 97.0771 308.092C97.2471 308.66 97.332 309.287 97.332 309.973V310.878H89.9844V309.357H95.2402V309.19C95.2285 308.81 95.1523 308.452 95.0117 308.118C94.877 307.784 94.6689 307.515 94.3877 307.31C94.1064 307.104 93.7314 307.002 93.2627 307.002C92.9111 307.002 92.5977 307.078 92.3223 307.23C92.0527 307.377 91.8271 307.591 91.6455 307.872C91.4639 308.153 91.3232 308.493 91.2236 308.892C91.1299 309.284 91.083 309.727 91.083 310.219V310.57C91.083 310.986 91.1387 311.373 91.25 311.73C91.3672 312.082 91.5371 312.39 91.7598 312.653C91.9824 312.917 92.252 313.125 92.5684 313.277C92.8848 313.424 93.2451 313.497 93.6494 313.497C94.1592 313.497 94.6133 313.395 95.0117 313.189C95.4102 312.984 95.7559 312.694 96.0488 312.319L97.165 313.4C96.96 313.699 96.6934 313.986 96.3652 314.262C96.0371 314.531 95.6357 314.751 95.1611 314.921C94.6924 315.091 94.1475 315.176 93.5264 315.176ZM103.344 305.49V307.037H97.9824V305.49H103.344ZM99.5293 303.161H101.647V312.372C101.647 312.665 101.688 312.891 101.771 313.049C101.858 313.201 101.979 313.304 102.131 313.356C102.283 313.409 102.462 313.436 102.667 313.436C102.813 313.436 102.954 313.427 103.089 313.409C103.224 313.392 103.332 313.374 103.414 313.356L103.423 314.974C103.247 315.026 103.042 315.073 102.808 315.114C102.579 315.155 102.315 315.176 102.017 315.176C101.53 315.176 101.1 315.091 100.725 314.921C100.35 314.745 100.057 314.461 99.8457 314.068C99.6348 313.676 99.5293 313.154 99.5293 312.504V303.161ZM110.7 312.759V305.49H112.827V315H110.823L110.7 312.759ZM110.999 310.781L111.711 310.764C111.711 311.402 111.641 311.991 111.5 312.53C111.359 313.063 111.143 313.529 110.85 313.928C110.557 314.32 110.182 314.628 109.725 314.851C109.268 315.067 108.72 315.176 108.081 315.176C107.618 315.176 107.193 315.108 106.807 314.974C106.42 314.839 106.086 314.631 105.805 314.35C105.529 314.068 105.315 313.702 105.163 313.251C105.011 312.8 104.935 312.261 104.935 311.634V305.49H107.053V311.651C107.053 311.997 107.094 312.287 107.176 312.521C107.258 312.75 107.369 312.935 107.51 313.075C107.65 313.216 107.814 313.315 108.002 313.374C108.189 313.433 108.389 313.462 108.6 313.462C109.203 313.462 109.678 313.345 110.023 313.11C110.375 312.87 110.624 312.548 110.771 312.144C110.923 311.739 110.999 311.285 110.999 310.781ZM117.125 307.301V315H115.007V305.49H117.028L117.125 307.301ZM120.034 305.429L120.017 307.397C119.888 307.374 119.747 307.356 119.595 307.345C119.448 307.333 119.302 307.327 119.155 307.327C118.792 307.327 118.473 307.38 118.197 307.485C117.922 307.585 117.69 307.731 117.503 307.925C117.321 308.112 117.181 308.341 117.081 308.61C116.981 308.88 116.923 309.182 116.905 309.516L116.422 309.551C116.422 308.953 116.48 308.399 116.598 307.89C116.715 307.38 116.891 306.932 117.125 306.545C117.365 306.158 117.664 305.856 118.021 305.64C118.385 305.423 118.804 305.314 119.278 305.314C119.407 305.314 119.545 305.326 119.691 305.35C119.844 305.373 119.958 305.399 120.034 305.429ZM123.462 307.521V315H121.344V305.49H123.339L123.462 307.521ZM123.084 309.894L122.398 309.885C122.404 309.211 122.498 308.593 122.68 308.03C122.867 307.468 123.125 306.984 123.453 306.58C123.787 306.176 124.186 305.865 124.648 305.648C125.111 305.426 125.627 305.314 126.195 305.314C126.652 305.314 127.065 305.379 127.435 305.508C127.81 305.631 128.129 305.833 128.393 306.114C128.662 306.396 128.867 306.762 129.008 307.213C129.148 307.658 129.219 308.206 129.219 308.856V315H127.092V308.848C127.092 308.391 127.024 308.03 126.89 307.767C126.761 307.497 126.57 307.307 126.318 307.195C126.072 307.078 125.765 307.02 125.396 307.02C125.032 307.02 124.707 307.096 124.42 307.248C124.133 307.4 123.89 307.608 123.69 307.872C123.497 308.136 123.348 308.44 123.242 308.786C123.137 309.132 123.084 309.501 123.084 309.894ZM8.93164 341.33H9.10742C9.91602 341.33 10.5898 341.225 11.1289 341.014C11.6738 340.797 12.1074 340.498 12.4297 340.117C12.752 339.736 12.9834 339.288 13.124 338.772C13.2646 338.257 13.335 337.697 13.335 337.094V334.888C13.335 334.366 13.2793 333.909 13.168 333.517C13.0625 333.118 12.9102 332.787 12.7109 332.523C12.5176 332.254 12.292 332.052 12.0342 331.917C11.7822 331.782 11.5098 331.715 11.2168 331.715C10.8945 331.715 10.6045 331.788 10.3467 331.935C10.0947 332.075 9.88086 332.271 9.70508 332.523C9.53516 332.77 9.40332 333.06 9.30957 333.394C9.22168 333.722 9.17773 334.073 9.17773 334.448C9.17773 334.8 9.21875 335.14 9.30078 335.468C9.38867 335.79 9.51758 336.077 9.6875 336.329C9.85742 336.581 10.0713 336.78 10.3291 336.927C10.5869 337.073 10.8887 337.146 11.2344 337.146C11.5625 337.146 11.8643 337.085 12.1396 336.962C12.415 336.833 12.6553 336.66 12.8604 336.443C13.0654 336.227 13.2266 335.983 13.3438 335.714C13.4609 335.444 13.5254 335.169 13.5371 334.888L14.3457 335.134C14.3457 335.579 14.252 336.019 14.0645 336.452C13.8828 336.88 13.6279 337.272 13.2998 337.63C12.9775 337.981 12.5996 338.263 12.166 338.474C11.7383 338.685 11.2725 338.79 10.7686 338.79C10.1592 338.79 9.62012 338.676 9.15137 338.447C8.68848 338.213 8.30176 337.896 7.99121 337.498C7.68652 337.1 7.45801 336.643 7.30566 336.127C7.15332 335.611 7.07715 335.069 7.07715 334.501C7.07715 333.886 7.1709 333.309 7.3584 332.77C7.5459 332.23 7.81836 331.756 8.17578 331.346C8.5332 330.93 8.9668 330.607 9.47656 330.379C9.99219 330.145 10.5752 330.027 11.2256 330.027C11.917 330.027 12.5234 330.162 13.0449 330.432C13.5664 330.701 14.0059 331.073 14.3633 331.548C14.7207 332.022 14.9902 332.573 15.1719 333.2C15.3535 333.827 15.4443 334.501 15.4443 335.222V335.969C15.4443 336.725 15.377 337.454 15.2422 338.157C15.1074 338.854 14.8877 339.502 14.583 340.1C14.2842 340.691 13.8887 341.213 13.3965 341.664C12.9102 342.109 12.3125 342.458 11.6035 342.71C10.9004 342.956 10.0742 343.079 9.125 343.079H8.93164V341.33ZM25.7979 335.529V337.621C25.7979 338.623 25.6982 339.479 25.499 340.188C25.3057 340.891 25.0244 341.462 24.6553 341.901C24.2861 342.341 23.8438 342.663 23.3281 342.868C22.8184 343.073 22.2471 343.176 21.6143 343.176C21.1104 343.176 20.6416 343.111 20.208 342.982C19.7803 342.854 19.3936 342.651 19.0479 342.376C18.7021 342.101 18.4062 341.746 18.1602 341.312C17.9199 340.873 17.7324 340.349 17.5977 339.739C17.4688 339.13 17.4043 338.424 17.4043 337.621V335.529C17.4043 334.521 17.5039 333.672 17.7031 332.98C17.9023 332.283 18.1865 331.718 18.5557 331.284C18.9248 330.845 19.3643 330.525 19.874 330.326C20.3896 330.127 20.9639 330.027 21.5967 330.027C22.1064 330.027 22.5752 330.092 23.0029 330.221C23.4365 330.344 23.8232 330.54 24.1631 330.81C24.5088 331.079 24.8018 331.431 25.042 331.864C25.2881 332.292 25.4756 332.811 25.6045 333.42C25.7334 334.023 25.7979 334.727 25.7979 335.529ZM23.6797 337.92V335.213C23.6797 334.703 23.6504 334.255 23.5918 333.868C23.5332 333.476 23.4453 333.145 23.3281 332.875C23.2168 332.6 23.0762 332.377 22.9062 332.207C22.7363 332.031 22.543 331.905 22.3262 331.829C22.1094 331.747 21.8662 331.706 21.5967 331.706C21.2686 331.706 20.9756 331.771 20.7178 331.899C20.46 332.022 20.2432 332.222 20.0674 332.497C19.8916 332.772 19.7568 333.136 19.6631 333.587C19.5752 334.032 19.5312 334.574 19.5312 335.213V337.92C19.5312 338.436 19.5605 338.89 19.6191 339.282C19.6777 339.675 19.7656 340.012 19.8828 340.293C20 340.568 20.1406 340.797 20.3047 340.979C20.4746 341.154 20.668 341.283 20.8848 341.365C21.1074 341.447 21.3506 341.488 21.6143 341.488C21.9482 341.488 22.2441 341.424 22.502 341.295C22.7598 341.166 22.9766 340.961 23.1523 340.68C23.3281 340.393 23.46 340.021 23.5479 339.563C23.6357 339.106 23.6797 338.559 23.6797 337.92ZM27.5996 333.341V332.664C27.5996 332.178 27.7051 331.735 27.916 331.337C28.127 330.938 28.4346 330.619 28.8389 330.379C29.2432 330.139 29.7295 330.019 30.2979 330.019C30.8838 330.019 31.376 330.139 31.7744 330.379C32.1787 330.619 32.4863 330.938 32.6973 331.337C32.9082 331.735 33.0137 332.178 33.0137 332.664V333.341C33.0137 333.815 32.9082 334.252 32.6973 334.65C32.4922 335.049 32.1875 335.368 31.7832 335.608C31.3848 335.849 30.8955 335.969 30.3154 335.969C29.7412 335.969 29.249 335.849 28.8389 335.608C28.4346 335.368 28.127 335.049 27.916 334.65C27.7051 334.252 27.5996 333.815 27.5996 333.341ZM29.0674 332.664V333.341C29.0674 333.575 29.1113 333.798 29.1992 334.009C29.293 334.22 29.4336 334.39 29.6211 334.519C29.8086 334.647 30.04 334.712 30.3154 334.712C30.5967 334.712 30.8252 334.647 31.001 334.519C31.1826 334.39 31.3174 334.22 31.4053 334.009C31.4932 333.798 31.5371 333.575 31.5371 333.341V332.664C31.5371 332.424 31.4902 332.198 31.3965 331.987C31.3086 331.771 31.1738 331.598 30.9922 331.469C30.8105 331.34 30.5791 331.275 30.2979 331.275C30.0283 331.275 29.7998 331.34 29.6123 331.469C29.4307 331.598 29.293 331.771 29.1992 331.987C29.1113 332.198 29.0674 332.424 29.0674 332.664ZM33.7695 340.548V339.862C33.7695 339.382 33.875 338.942 34.0859 338.544C34.3027 338.146 34.6133 337.826 35.0176 337.586C35.4219 337.346 35.9082 337.226 36.4766 337.226C37.0625 337.226 37.5547 337.346 37.9531 337.586C38.3574 337.826 38.6621 338.146 38.8672 338.544C39.0781 338.942 39.1836 339.382 39.1836 339.862V340.548C39.1836 341.028 39.0781 341.468 38.8672 341.866C38.6621 342.265 38.3604 342.584 37.9619 342.824C37.5635 343.064 37.0771 343.185 36.5029 343.185C35.9229 343.185 35.4277 343.064 35.0176 342.824C34.6133 342.584 34.3027 342.265 34.0859 341.866C33.875 341.468 33.7695 341.028 33.7695 340.548ZM35.2461 339.862V340.548C35.2461 340.782 35.293 341.005 35.3867 341.216C35.4863 341.427 35.6299 341.6 35.8174 341.734C36.0049 341.863 36.2305 341.928 36.4941 341.928C36.793 341.928 37.0332 341.863 37.2148 341.734C37.3965 341.6 37.5254 341.43 37.6016 341.225C37.6836 341.014 37.7246 340.788 37.7246 340.548V339.862C37.7246 339.622 37.6777 339.396 37.584 339.186C37.4961 338.975 37.3584 338.805 37.1709 338.676C36.9893 338.547 36.7578 338.482 36.4766 338.482C36.2012 338.482 35.9727 338.547 35.791 338.676C35.6094 338.805 35.4717 338.975 35.3779 339.186C35.29 339.396 35.2461 339.622 35.2461 339.862ZM37.0039 332.031L30.7549 342.033L29.6738 341.409L35.9229 331.407L37.0039 332.031ZM46.6543 330.203H48.623L52.3232 340.073L56.0146 330.203H57.9834L53.0967 343H51.5322L46.6543 330.203ZM45.7578 330.203H47.6299L47.9551 338.746V343H45.7578V330.203ZM57.0078 330.203H58.8887V343H56.6826V338.746L57.0078 330.203ZM66.6582 341.093V336.558C66.6582 336.218 66.5967 335.925 66.4736 335.679C66.3506 335.433 66.1631 335.242 65.9111 335.107C65.665 334.973 65.3545 334.905 64.9795 334.905C64.6338 334.905 64.335 334.964 64.083 335.081C63.8311 335.198 63.6348 335.356 63.4941 335.556C63.3535 335.755 63.2832 335.98 63.2832 336.232H61.1738C61.1738 335.857 61.2646 335.494 61.4463 335.143C61.6279 334.791 61.8916 334.478 62.2373 334.202C62.583 333.927 62.9961 333.71 63.4766 333.552C63.957 333.394 64.4961 333.314 65.0938 333.314C65.8086 333.314 66.4414 333.435 66.9922 333.675C67.5488 333.915 67.9854 334.278 68.3018 334.765C68.624 335.245 68.7852 335.849 68.7852 336.575V340.803C68.7852 341.236 68.8145 341.626 68.873 341.972C68.9375 342.312 69.0283 342.607 69.1455 342.859V343H66.9746C66.875 342.771 66.7959 342.481 66.7373 342.13C66.6846 341.772 66.6582 341.427 66.6582 341.093ZM66.9658 337.217L66.9834 338.526H65.4629C65.0703 338.526 64.7246 338.564 64.4258 338.641C64.127 338.711 63.8779 338.816 63.6787 338.957C63.4795 339.098 63.3301 339.268 63.2305 339.467C63.1309 339.666 63.0811 339.892 63.0811 340.144C63.0811 340.396 63.1396 340.627 63.2568 340.838C63.374 341.043 63.5439 341.204 63.7666 341.321C63.9951 341.438 64.2705 341.497 64.5928 341.497C65.0264 341.497 65.4043 341.409 65.7266 341.233C66.0547 341.052 66.3125 340.832 66.5 340.574C66.6875 340.311 66.7871 340.062 66.7988 339.827L67.4844 340.768C67.4141 341.008 67.2939 341.266 67.124 341.541C66.9541 341.816 66.7314 342.08 66.4561 342.332C66.1865 342.578 65.8613 342.78 65.4805 342.938C65.1055 343.097 64.6719 343.176 64.1797 343.176C63.5586 343.176 63.0049 343.053 62.5186 342.807C62.0322 342.555 61.6514 342.218 61.376 341.796C61.1006 341.368 60.9629 340.885 60.9629 340.346C60.9629 339.842 61.0566 339.396 61.2441 339.01C61.4375 338.617 61.7188 338.289 62.0879 338.025C62.4629 337.762 62.9199 337.562 63.459 337.428C63.998 337.287 64.6133 337.217 65.3047 337.217H66.9658ZM72.6172 333.49L74.4277 336.646L76.2734 333.49H78.6025L75.7197 338.157L78.7168 343H76.3877L74.4541 339.713L72.5205 343H70.1826L73.1709 338.157L70.2969 333.49H72.6172ZM82.3203 333.49V343H80.1934V333.49H82.3203ZM80.0527 330.994C80.0527 330.672 80.1582 330.405 80.3691 330.194C80.5859 329.978 80.8848 329.869 81.2656 329.869C81.6406 329.869 81.9365 329.978 82.1533 330.194C82.3701 330.405 82.4785 330.672 82.4785 330.994C82.4785 331.311 82.3701 331.574 82.1533 331.785C81.9365 331.996 81.6406 332.102 81.2656 332.102C80.8848 332.102 80.5859 331.996 80.3691 331.785C80.1582 331.574 80.0527 331.311 80.0527 330.994ZM86.7588 335.424V343H84.6406V333.49H86.6357L86.7588 335.424ZM86.416 337.894L85.6953 337.885C85.6953 337.229 85.7773 336.622 85.9414 336.065C86.1055 335.509 86.3457 335.025 86.6621 334.615C86.9785 334.199 87.3711 333.88 87.8398 333.657C88.3145 333.429 88.8623 333.314 89.4834 333.314C89.917 333.314 90.3125 333.379 90.6699 333.508C91.0332 333.631 91.3467 333.827 91.6104 334.097C91.8799 334.366 92.085 334.712 92.2256 335.134C92.3721 335.556 92.4453 336.065 92.4453 336.663V343H90.3271V336.848C90.3271 336.385 90.2568 336.021 90.1162 335.758C89.9814 335.494 89.7852 335.307 89.5273 335.195C89.2754 335.078 88.9736 335.02 88.6221 335.02C88.2236 335.02 87.8838 335.096 87.6025 335.248C87.3271 335.4 87.1016 335.608 86.9258 335.872C86.75 336.136 86.6211 336.44 86.5391 336.786C86.457 337.132 86.416 337.501 86.416 337.894ZM92.3135 337.331L91.3203 337.551C91.3203 336.977 91.3994 336.435 91.5576 335.925C91.7217 335.409 91.959 334.958 92.2695 334.571C92.5859 334.179 92.9756 333.871 93.4385 333.648C93.9014 333.426 94.4316 333.314 95.0293 333.314C95.5156 333.314 95.9492 333.382 96.3301 333.517C96.7168 333.646 97.0449 333.851 97.3145 334.132C97.584 334.413 97.7891 334.779 97.9297 335.23C98.0703 335.676 98.1406 336.215 98.1406 336.848V343H96.0137V336.839C96.0137 336.358 95.9434 335.986 95.8027 335.723C95.668 335.459 95.4746 335.277 95.2227 335.178C94.9707 335.072 94.6689 335.02 94.3174 335.02C93.9893 335.02 93.6992 335.081 93.4473 335.204C93.2012 335.321 92.9932 335.488 92.8232 335.705C92.6533 335.916 92.5244 336.159 92.4365 336.435C92.3545 336.71 92.3135 337.009 92.3135 337.331ZM106.042 340.759V333.49H108.169V343H106.165L106.042 340.759ZM106.341 338.781L107.053 338.764C107.053 339.402 106.982 339.991 106.842 340.53C106.701 341.063 106.484 341.529 106.191 341.928C105.898 342.32 105.523 342.628 105.066 342.851C104.609 343.067 104.062 343.176 103.423 343.176C102.96 343.176 102.535 343.108 102.148 342.974C101.762 342.839 101.428 342.631 101.146 342.35C100.871 342.068 100.657 341.702 100.505 341.251C100.353 340.8 100.276 340.261 100.276 339.634V333.49H102.395V339.651C102.395 339.997 102.436 340.287 102.518 340.521C102.6 340.75 102.711 340.935 102.852 341.075C102.992 341.216 103.156 341.315 103.344 341.374C103.531 341.433 103.73 341.462 103.941 341.462C104.545 341.462 105.02 341.345 105.365 341.11C105.717 340.87 105.966 340.548 106.112 340.144C106.265 339.739 106.341 339.285 106.341 338.781ZM112.458 335.424V343H110.34V333.49H112.335L112.458 335.424ZM112.115 337.894L111.395 337.885C111.395 337.229 111.477 336.622 111.641 336.065C111.805 335.509 112.045 335.025 112.361 334.615C112.678 334.199 113.07 333.88 113.539 333.657C114.014 333.429 114.562 333.314 115.183 333.314C115.616 333.314 116.012 333.379 116.369 333.508C116.732 333.631 117.046 333.827 117.31 334.097C117.579 334.366 117.784 334.712 117.925 335.134C118.071 335.556 118.145 336.065 118.145 336.663V343H116.026V336.848C116.026 336.385 115.956 336.021 115.815 335.758C115.681 335.494 115.484 335.307 115.227 335.195C114.975 335.078 114.673 335.02 114.321 335.02C113.923 335.02 113.583 335.096 113.302 335.248C113.026 335.4 112.801 335.608 112.625 335.872C112.449 336.136 112.32 336.44 112.238 336.786C112.156 337.132 112.115 337.501 112.115 337.894ZM118.013 337.331L117.02 337.551C117.02 336.977 117.099 336.435 117.257 335.925C117.421 335.409 117.658 334.958 117.969 334.571C118.285 334.179 118.675 333.871 119.138 333.648C119.601 333.426 120.131 333.314 120.729 333.314C121.215 333.314 121.648 333.382 122.029 333.517C122.416 333.646 122.744 333.851 123.014 334.132C123.283 334.413 123.488 334.779 123.629 335.23C123.77 335.676 123.84 336.215 123.84 336.848V343H121.713V336.839C121.713 336.358 121.643 335.986 121.502 335.723C121.367 335.459 121.174 335.277 120.922 335.178C120.67 335.072 120.368 335.02 120.017 335.02C119.688 335.02 119.398 335.081 119.146 335.204C118.9 335.321 118.692 335.488 118.522 335.705C118.353 335.916 118.224 336.159 118.136 336.435C118.054 336.71 118.013 337.009 118.013 337.331ZM132.77 329.5V343H130.643V329.5H132.77ZM134.686 338.351V338.148C134.686 337.463 134.785 336.827 134.984 336.241C135.184 335.649 135.471 335.137 135.846 334.703C136.227 334.264 136.689 333.924 137.234 333.684C137.785 333.438 138.406 333.314 139.098 333.314C139.795 333.314 140.416 333.438 140.961 333.684C141.512 333.924 141.978 334.264 142.358 334.703C142.739 335.137 143.029 335.649 143.229 336.241C143.428 336.827 143.527 337.463 143.527 338.148V338.351C143.527 339.036 143.428 339.672 143.229 340.258C143.029 340.844 142.739 341.356 142.358 341.796C141.978 342.229 141.515 342.569 140.97 342.815C140.425 343.056 139.807 343.176 139.115 343.176C138.418 343.176 137.794 343.056 137.243 342.815C136.698 342.569 136.235 342.229 135.854 341.796C135.474 341.356 135.184 340.844 134.984 340.258C134.785 339.672 134.686 339.036 134.686 338.351ZM136.804 338.148V338.351C136.804 338.778 136.848 339.183 136.936 339.563C137.023 339.944 137.161 340.278 137.349 340.565C137.536 340.853 137.776 341.078 138.069 341.242C138.362 341.406 138.711 341.488 139.115 341.488C139.508 341.488 139.848 341.406 140.135 341.242C140.428 341.078 140.668 340.853 140.855 340.565C141.043 340.278 141.181 339.944 141.269 339.563C141.362 339.183 141.409 338.778 141.409 338.351V338.148C141.409 337.727 141.362 337.328 141.269 336.953C141.181 336.572 141.04 336.235 140.847 335.942C140.659 335.649 140.419 335.421 140.126 335.257C139.839 335.087 139.496 335.002 139.098 335.002C138.699 335.002 138.354 335.087 138.061 335.257C137.773 335.421 137.536 335.649 137.349 335.942C137.161 336.235 137.023 336.572 136.936 336.953C136.848 337.328 136.804 337.727 136.804 338.148ZM150.638 340.425C150.638 340.214 150.585 340.023 150.479 339.854C150.374 339.678 150.172 339.52 149.873 339.379C149.58 339.238 149.146 339.109 148.572 338.992C148.068 338.881 147.605 338.749 147.184 338.597C146.768 338.438 146.41 338.248 146.111 338.025C145.812 337.803 145.581 337.539 145.417 337.234C145.253 336.93 145.171 336.578 145.171 336.18C145.171 335.793 145.256 335.427 145.426 335.081C145.596 334.735 145.839 334.431 146.155 334.167C146.472 333.903 146.855 333.695 147.307 333.543C147.764 333.391 148.273 333.314 148.836 333.314C149.633 333.314 150.315 333.449 150.884 333.719C151.458 333.982 151.897 334.343 152.202 334.8C152.507 335.251 152.659 335.761 152.659 336.329H150.541C150.541 336.077 150.477 335.843 150.348 335.626C150.225 335.403 150.037 335.225 149.785 335.09C149.533 334.949 149.217 334.879 148.836 334.879C148.473 334.879 148.171 334.938 147.931 335.055C147.696 335.166 147.521 335.312 147.403 335.494C147.292 335.676 147.236 335.875 147.236 336.092C147.236 336.25 147.266 336.394 147.324 336.522C147.389 336.646 147.494 336.76 147.641 336.865C147.787 336.965 147.986 337.059 148.238 337.146C148.496 337.234 148.818 337.319 149.205 337.401C149.932 337.554 150.556 337.75 151.077 337.99C151.604 338.225 152.009 338.529 152.29 338.904C152.571 339.273 152.712 339.742 152.712 340.311C152.712 340.732 152.621 341.119 152.439 341.471C152.264 341.816 152.006 342.118 151.666 342.376C151.326 342.628 150.919 342.824 150.444 342.965C149.976 343.105 149.448 343.176 148.862 343.176C148.001 343.176 147.271 343.023 146.674 342.719C146.076 342.408 145.622 342.013 145.312 341.532C145.007 341.046 144.854 340.542 144.854 340.021H146.902C146.926 340.413 147.034 340.727 147.228 340.961C147.427 341.189 147.673 341.356 147.966 341.462C148.265 341.562 148.572 341.611 148.889 341.611C149.27 341.611 149.589 341.562 149.847 341.462C150.104 341.356 150.301 341.216 150.436 341.04C150.57 340.858 150.638 340.653 150.638 340.425ZM159.901 340.425C159.901 340.214 159.849 340.023 159.743 339.854C159.638 339.678 159.436 339.52 159.137 339.379C158.844 339.238 158.41 339.109 157.836 338.992C157.332 338.881 156.869 338.749 156.447 338.597C156.031 338.438 155.674 338.248 155.375 338.025C155.076 337.803 154.845 337.539 154.681 337.234C154.517 336.93 154.435 336.578 154.435 336.18C154.435 335.793 154.52 335.427 154.689 335.081C154.859 334.735 155.103 334.431 155.419 334.167C155.735 333.903 156.119 333.695 156.57 333.543C157.027 333.391 157.537 333.314 158.1 333.314C158.896 333.314 159.579 333.449 160.147 333.719C160.722 333.982 161.161 334.343 161.466 334.8C161.771 335.251 161.923 335.761 161.923 336.329H159.805C159.805 336.077 159.74 335.843 159.611 335.626C159.488 335.403 159.301 335.225 159.049 335.09C158.797 334.949 158.48 334.879 158.1 334.879C157.736 334.879 157.435 334.938 157.194 335.055C156.96 335.166 156.784 335.312 156.667 335.494C156.556 335.676 156.5 335.875 156.5 336.092C156.5 336.25 156.529 336.394 156.588 336.522C156.652 336.646 156.758 336.76 156.904 336.865C157.051 336.965 157.25 337.059 157.502 337.146C157.76 337.234 158.082 337.319 158.469 337.401C159.195 337.554 159.819 337.75 160.341 337.99C160.868 338.225 161.272 338.529 161.554 338.904C161.835 339.273 161.976 339.742 161.976 340.311C161.976 340.732 161.885 341.119 161.703 341.471C161.527 341.816 161.27 342.118 160.93 342.376C160.59 342.628 160.183 342.824 159.708 342.965C159.239 343.105 158.712 343.176 158.126 343.176C157.265 343.176 156.535 343.023 155.938 342.719C155.34 342.408 154.886 342.013 154.575 341.532C154.271 341.046 154.118 340.542 154.118 340.021H156.166C156.189 340.413 156.298 340.727 156.491 340.961C156.69 341.189 156.937 341.356 157.229 341.462C157.528 341.562 157.836 341.611 158.152 341.611C158.533 341.611 158.853 341.562 159.11 341.462C159.368 341.356 159.564 341.216 159.699 341.04C159.834 340.858 159.901 340.653 159.901 340.425Z" fill="#374151"/>
<path d="M92.4258 384.926V385.148C92.4102 385.805 92.3398 386.484 92.2148 387.188C92.0977 387.891 91.9297 388.594 91.7109 389.297C91.4922 390 91.2305 390.695 90.9258 391.383C90.6211 392.07 90.2773 392.727 89.8945 393.352C89.5195 393.984 89.1133 394.574 88.6758 395.121C88.2383 395.676 87.7773 396.164 87.293 396.586L85.5469 395.578C85.8203 395.117 86.0664 394.613 86.2852 394.066C86.5117 393.527 86.7148 392.961 86.8945 392.367C87.0742 391.773 87.2266 391.164 87.3516 390.539C87.4844 389.914 87.5938 389.293 87.6797 388.676C87.7656 388.059 87.8281 387.453 87.8672 386.859C87.9141 386.258 87.9375 385.688 87.9375 385.148C87.9375 384.727 87.9336 384.25 87.9258 383.719C87.9258 383.18 87.8945 382.633 87.832 382.078C87.7773 381.523 87.6836 380.984 87.5508 380.461C87.418 379.93 87.2188 379.457 86.9531 379.043C86.6953 378.629 86.3594 378.297 85.9453 378.047C85.5391 377.797 85.0312 377.672 84.4219 377.672C83.8828 377.672 83.418 377.766 83.0273 377.953C82.6445 378.133 82.3164 378.379 82.043 378.691C81.7773 378.996 81.5625 379.352 81.3984 379.758C81.2422 380.164 81.1172 380.594 81.0234 381.047C80.9375 381.492 80.8789 381.945 80.8477 382.406C80.8242 382.859 80.8125 383.289 80.8125 383.695V386.965H85.8633V388.898H80.8125V393H76.1602V384.422C76.1602 383.195 76.3555 382.055 76.7461 381C77.1367 379.945 77.6875 379.031 78.3984 378.258C79.1172 377.477 79.9766 376.867 80.9766 376.43C81.9844 375.984 83.1055 375.762 84.3398 375.762C85.1758 375.762 85.957 375.883 86.6836 376.125C87.418 376.359 88.0859 376.688 88.6875 377.109C89.2891 377.523 89.8242 378.02 90.293 378.598C90.7695 379.168 91.1641 379.793 91.4766 380.473C91.7969 381.152 92.0391 381.871 92.2031 382.629C92.3672 383.387 92.4414 384.152 92.4258 384.926Z" fill="#0148FF"/>
<circle cx="474" cy="344" r="83" fill="white" stroke="#0148FF" stroke-width="2" stroke-dasharray="3 3"/>
<path d="M443.29 302.203V303.363L438.175 315H435.942L441.049 303.891H434.422V302.203H443.29ZM444.934 305.341V304.664C444.934 304.178 445.039 303.735 445.25 303.337C445.461 302.938 445.769 302.619 446.173 302.379C446.577 302.139 447.063 302.019 447.632 302.019C448.218 302.019 448.71 302.139 449.108 302.379C449.513 302.619 449.82 302.938 450.031 303.337C450.242 303.735 450.348 304.178 450.348 304.664V305.341C450.348 305.815 450.242 306.252 450.031 306.65C449.826 307.049 449.521 307.368 449.117 307.608C448.719 307.849 448.229 307.969 447.649 307.969C447.075 307.969 446.583 307.849 446.173 307.608C445.769 307.368 445.461 307.049 445.25 306.65C445.039 306.252 444.934 305.815 444.934 305.341ZM446.401 304.664V305.341C446.401 305.575 446.445 305.798 446.533 306.009C446.627 306.22 446.768 306.39 446.955 306.519C447.143 306.647 447.374 306.712 447.649 306.712C447.931 306.712 448.159 306.647 448.335 306.519C448.517 306.39 448.651 306.22 448.739 306.009C448.827 305.798 448.871 305.575 448.871 305.341V304.664C448.871 304.424 448.824 304.198 448.73 303.987C448.643 303.771 448.508 303.598 448.326 303.469C448.145 303.34 447.913 303.275 447.632 303.275C447.362 303.275 447.134 303.34 446.946 303.469C446.765 303.598 446.627 303.771 446.533 303.987C446.445 304.198 446.401 304.424 446.401 304.664ZM451.104 312.548V311.862C451.104 311.382 451.209 310.942 451.42 310.544C451.637 310.146 451.947 309.826 452.352 309.586C452.756 309.346 453.242 309.226 453.811 309.226C454.396 309.226 454.889 309.346 455.287 309.586C455.691 309.826 455.996 310.146 456.201 310.544C456.412 310.942 456.518 311.382 456.518 311.862V312.548C456.518 313.028 456.412 313.468 456.201 313.866C455.996 314.265 455.694 314.584 455.296 314.824C454.897 315.064 454.411 315.185 453.837 315.185C453.257 315.185 452.762 315.064 452.352 314.824C451.947 314.584 451.637 314.265 451.42 313.866C451.209 313.468 451.104 313.028 451.104 312.548ZM452.58 311.862V312.548C452.58 312.782 452.627 313.005 452.721 313.216C452.82 313.427 452.964 313.6 453.151 313.734C453.339 313.863 453.564 313.928 453.828 313.928C454.127 313.928 454.367 313.863 454.549 313.734C454.73 313.6 454.859 313.43 454.936 313.225C455.018 313.014 455.059 312.788 455.059 312.548V311.862C455.059 311.622 455.012 311.396 454.918 311.186C454.83 310.975 454.692 310.805 454.505 310.676C454.323 310.547 454.092 310.482 453.811 310.482C453.535 310.482 453.307 310.547 453.125 310.676C452.943 310.805 452.806 310.975 452.712 311.186C452.624 311.396 452.58 311.622 452.58 311.862ZM454.338 304.031L448.089 314.033L447.008 313.409L453.257 303.407L454.338 304.031ZM463.092 302.203H467.618C468.591 302.203 469.42 302.35 470.105 302.643C470.791 302.936 471.315 303.369 471.679 303.943C472.048 304.512 472.232 305.215 472.232 306.053C472.232 306.691 472.115 307.254 471.881 307.74C471.646 308.227 471.315 308.637 470.888 308.971C470.46 309.299 469.95 309.554 469.358 309.735L468.69 310.061H464.621L464.604 308.312H467.653C468.181 308.312 468.62 308.218 468.972 308.03C469.323 307.843 469.587 307.588 469.763 307.266C469.944 306.938 470.035 306.568 470.035 306.158C470.035 305.713 469.947 305.326 469.771 304.998C469.602 304.664 469.338 304.409 468.98 304.233C468.623 304.052 468.169 303.961 467.618 303.961H465.298V315H463.092V302.203ZM470.396 315L467.39 309.252L469.701 309.243L472.751 314.886V315H470.396ZM478.411 315.176C477.708 315.176 477.072 315.062 476.504 314.833C475.941 314.599 475.461 314.273 475.062 313.857C474.67 313.441 474.368 312.952 474.157 312.39C473.946 311.827 473.841 311.221 473.841 310.57V310.219C473.841 309.475 473.949 308.801 474.166 308.197C474.383 307.594 474.685 307.078 475.071 306.65C475.458 306.217 475.915 305.886 476.442 305.657C476.97 305.429 477.541 305.314 478.156 305.314C478.836 305.314 479.431 305.429 479.94 305.657C480.45 305.886 480.872 306.208 481.206 306.624C481.546 307.034 481.798 307.523 481.962 308.092C482.132 308.66 482.217 309.287 482.217 309.973V310.878H474.869V309.357H480.125V309.19C480.113 308.81 480.037 308.452 479.896 308.118C479.762 307.784 479.554 307.515 479.272 307.31C478.991 307.104 478.616 307.002 478.147 307.002C477.796 307.002 477.482 307.078 477.207 307.23C476.938 307.377 476.712 307.591 476.53 307.872C476.349 308.153 476.208 308.493 476.108 308.892C476.015 309.284 475.968 309.727 475.968 310.219V310.57C475.968 310.986 476.023 311.373 476.135 311.73C476.252 312.082 476.422 312.39 476.645 312.653C476.867 312.917 477.137 313.125 477.453 313.277C477.77 313.424 478.13 313.497 478.534 313.497C479.044 313.497 479.498 313.395 479.896 313.189C480.295 312.984 480.641 312.694 480.934 312.319L482.05 313.4C481.845 313.699 481.578 313.986 481.25 314.262C480.922 314.531 480.521 314.751 480.046 314.921C479.577 315.091 479.032 315.176 478.411 315.176ZM488.229 305.49V307.037H482.867V305.49H488.229ZM484.414 303.161H486.532V312.372C486.532 312.665 486.573 312.891 486.655 313.049C486.743 313.201 486.863 313.304 487.016 313.356C487.168 313.409 487.347 313.436 487.552 313.436C487.698 313.436 487.839 313.427 487.974 313.409C488.108 313.392 488.217 313.374 488.299 313.356L488.308 314.974C488.132 315.026 487.927 315.073 487.692 315.114C487.464 315.155 487.2 315.176 486.901 315.176C486.415 315.176 485.984 315.091 485.609 314.921C485.234 314.745 484.941 314.461 484.73 314.068C484.52 313.676 484.414 313.154 484.414 312.504V303.161ZM495.585 312.759V305.49H497.712V315H495.708L495.585 312.759ZM495.884 310.781L496.596 310.764C496.596 311.402 496.525 311.991 496.385 312.53C496.244 313.063 496.027 313.529 495.734 313.928C495.441 314.32 495.066 314.628 494.609 314.851C494.152 315.067 493.604 315.176 492.966 315.176C492.503 315.176 492.078 315.108 491.691 314.974C491.305 314.839 490.971 314.631 490.689 314.35C490.414 314.068 490.2 313.702 490.048 313.251C489.896 312.8 489.819 312.261 489.819 311.634V305.49H491.938V311.651C491.938 311.997 491.979 312.287 492.061 312.521C492.143 312.75 492.254 312.935 492.395 313.075C492.535 313.216 492.699 313.315 492.887 313.374C493.074 313.433 493.273 313.462 493.484 313.462C494.088 313.462 494.562 313.345 494.908 313.11C495.26 312.87 495.509 312.548 495.655 312.144C495.808 311.739 495.884 311.285 495.884 310.781ZM502.01 307.301V315H499.892V305.49H501.913L502.01 307.301ZM504.919 305.429L504.901 307.397C504.772 307.374 504.632 307.356 504.479 307.345C504.333 307.333 504.187 307.327 504.04 307.327C503.677 307.327 503.357 307.38 503.082 307.485C502.807 307.585 502.575 307.731 502.388 307.925C502.206 308.112 502.065 308.341 501.966 308.61C501.866 308.88 501.808 309.182 501.79 309.516L501.307 309.551C501.307 308.953 501.365 308.399 501.482 307.89C501.6 307.38 501.775 306.932 502.01 306.545C502.25 306.158 502.549 305.856 502.906 305.64C503.27 305.423 503.688 305.314 504.163 305.314C504.292 305.314 504.43 305.326 504.576 305.35C504.729 305.373 504.843 305.399 504.919 305.429ZM508.347 307.521V315H506.229V305.49H508.224L508.347 307.521ZM507.969 309.894L507.283 309.885C507.289 309.211 507.383 308.593 507.564 308.03C507.752 307.468 508.01 306.984 508.338 306.58C508.672 306.176 509.07 305.865 509.533 305.648C509.996 305.426 510.512 305.314 511.08 305.314C511.537 305.314 511.95 305.379 512.319 305.508C512.694 305.631 513.014 305.833 513.277 306.114C513.547 306.396 513.752 306.762 513.893 307.213C514.033 307.658 514.104 308.206 514.104 308.856V315H511.977V308.848C511.977 308.391 511.909 308.03 511.774 307.767C511.646 307.497 511.455 307.307 511.203 307.195C510.957 307.078 510.649 307.02 510.28 307.02C509.917 307.02 509.592 307.096 509.305 307.248C509.018 307.4 508.774 307.608 508.575 307.872C508.382 308.136 508.232 308.44 508.127 308.786C508.021 309.132 507.969 309.501 507.969 309.894ZM399.45 337.05L397.763 336.637L398.457 330.203H405.356V331.996H400.215L399.863 335.134C400.062 335.017 400.338 334.902 400.689 334.791C401.041 334.674 401.442 334.615 401.894 334.615C402.497 334.615 403.036 334.715 403.511 334.914C403.991 335.107 404.398 335.392 404.732 335.767C405.066 336.136 405.321 336.587 405.497 337.12C405.673 337.647 405.761 338.242 405.761 338.904C405.761 339.496 405.673 340.05 405.497 340.565C405.327 341.081 405.069 341.535 404.724 341.928C404.378 342.32 403.941 342.628 403.414 342.851C402.893 343.067 402.274 343.176 401.56 343.176C401.026 343.176 400.514 343.1 400.021 342.947C399.535 342.789 399.099 342.558 398.712 342.253C398.325 341.942 398.015 341.562 397.78 341.11C397.546 340.653 397.411 340.129 397.376 339.537H399.45C399.503 339.953 399.617 340.308 399.793 340.601C399.975 340.888 400.215 341.107 400.514 341.26C400.812 341.412 401.158 341.488 401.551 341.488C401.908 341.488 402.216 341.427 402.474 341.304C402.731 341.175 402.945 340.993 403.115 340.759C403.291 340.519 403.42 340.237 403.502 339.915C403.59 339.593 403.634 339.235 403.634 338.843C403.634 338.468 403.584 338.125 403.484 337.814C403.391 337.504 403.247 337.234 403.054 337.006C402.866 336.777 402.629 336.602 402.342 336.479C402.055 336.35 401.724 336.285 401.349 336.285C400.845 336.285 400.458 336.358 400.188 336.505C399.925 336.651 399.679 336.833 399.45 337.05ZM415.798 335.529V337.621C415.798 338.623 415.698 339.479 415.499 340.188C415.306 340.891 415.024 341.462 414.655 341.901C414.286 342.341 413.844 342.663 413.328 342.868C412.818 343.073 412.247 343.176 411.614 343.176C411.11 343.176 410.642 343.111 410.208 342.982C409.78 342.854 409.394 342.651 409.048 342.376C408.702 342.101 408.406 341.746 408.16 341.312C407.92 340.873 407.732 340.349 407.598 339.739C407.469 339.13 407.404 338.424 407.404 337.621V335.529C407.404 334.521 407.504 333.672 407.703 332.98C407.902 332.283 408.187 331.718 408.556 331.284C408.925 330.845 409.364 330.525 409.874 330.326C410.39 330.127 410.964 330.027 411.597 330.027C412.106 330.027 412.575 330.092 413.003 330.221C413.437 330.344 413.823 330.54 414.163 330.81C414.509 331.079 414.802 331.431 415.042 331.864C415.288 332.292 415.476 332.811 415.604 333.42C415.733 334.023 415.798 334.727 415.798 335.529ZM413.68 337.92V335.213C413.68 334.703 413.65 334.255 413.592 333.868C413.533 333.476 413.445 333.145 413.328 332.875C413.217 332.6 413.076 332.377 412.906 332.207C412.736 332.031 412.543 331.905 412.326 331.829C412.109 331.747 411.866 331.706 411.597 331.706C411.269 331.706 410.976 331.771 410.718 331.899C410.46 332.022 410.243 332.222 410.067 332.497C409.892 332.772 409.757 333.136 409.663 333.587C409.575 334.032 409.531 334.574 409.531 335.213V337.92C409.531 338.436 409.561 338.89 409.619 339.282C409.678 339.675 409.766 340.012 409.883 340.293C410 340.568 410.141 340.797 410.305 340.979C410.475 341.154 410.668 341.283 410.885 341.365C411.107 341.447 411.351 341.488 411.614 341.488C411.948 341.488 412.244 341.424 412.502 341.295C412.76 341.166 412.977 340.961 413.152 340.68C413.328 340.393 413.46 340.021 413.548 339.563C413.636 339.106 413.68 338.559 413.68 337.92ZM417.6 333.341V332.664C417.6 332.178 417.705 331.735 417.916 331.337C418.127 330.938 418.435 330.619 418.839 330.379C419.243 330.139 419.729 330.019 420.298 330.019C420.884 330.019 421.376 330.139 421.774 330.379C422.179 330.619 422.486 330.938 422.697 331.337C422.908 331.735 423.014 332.178 423.014 332.664V333.341C423.014 333.815 422.908 334.252 422.697 334.65C422.492 335.049 422.188 335.368 421.783 335.608C421.385 335.849 420.896 335.969 420.315 335.969C419.741 335.969 419.249 335.849 418.839 335.608C418.435 335.368 418.127 335.049 417.916 334.65C417.705 334.252 417.6 333.815 417.6 333.341ZM419.067 332.664V333.341C419.067 333.575 419.111 333.798 419.199 334.009C419.293 334.22 419.434 334.39 419.621 334.519C419.809 334.647 420.04 334.712 420.315 334.712C420.597 334.712 420.825 334.647 421.001 334.519C421.183 334.39 421.317 334.22 421.405 334.009C421.493 333.798 421.537 333.575 421.537 333.341V332.664C421.537 332.424 421.49 332.198 421.396 331.987C421.309 331.771 421.174 331.598 420.992 331.469C420.811 331.34 420.579 331.275 420.298 331.275C420.028 331.275 419.8 331.34 419.612 331.469C419.431 331.598 419.293 331.771 419.199 331.987C419.111 332.198 419.067 332.424 419.067 332.664ZM423.77 340.548V339.862C423.77 339.382 423.875 338.942 424.086 338.544C424.303 338.146 424.613 337.826 425.018 337.586C425.422 337.346 425.908 337.226 426.477 337.226C427.062 337.226 427.555 337.346 427.953 337.586C428.357 337.826 428.662 338.146 428.867 338.544C429.078 338.942 429.184 339.382 429.184 339.862V340.548C429.184 341.028 429.078 341.468 428.867 341.866C428.662 342.265 428.36 342.584 427.962 342.824C427.563 343.064 427.077 343.185 426.503 343.185C425.923 343.185 425.428 343.064 425.018 342.824C424.613 342.584 424.303 342.265 424.086 341.866C423.875 341.468 423.77 341.028 423.77 340.548ZM425.246 339.862V340.548C425.246 340.782 425.293 341.005 425.387 341.216C425.486 341.427 425.63 341.6 425.817 341.734C426.005 341.863 426.23 341.928 426.494 341.928C426.793 341.928 427.033 341.863 427.215 341.734C427.396 341.6 427.525 341.43 427.602 341.225C427.684 341.014 427.725 340.788 427.725 340.548V339.862C427.725 339.622 427.678 339.396 427.584 339.186C427.496 338.975 427.358 338.805 427.171 338.676C426.989 338.547 426.758 338.482 426.477 338.482C426.201 338.482 425.973 338.547 425.791 338.676C425.609 338.805 425.472 338.975 425.378 339.186C425.29 339.396 425.246 339.622 425.246 339.862ZM427.004 332.031L420.755 342.033L419.674 341.409L425.923 331.407L427.004 332.031ZM436.654 330.203H438.623L442.323 340.073L446.015 330.203H447.983L443.097 343H441.532L436.654 330.203ZM435.758 330.203H437.63L437.955 338.746V343H435.758V330.203ZM447.008 330.203H448.889V343H446.683V338.746L447.008 330.203ZM456.658 341.093V336.558C456.658 336.218 456.597 335.925 456.474 335.679C456.351 335.433 456.163 335.242 455.911 335.107C455.665 334.973 455.354 334.905 454.979 334.905C454.634 334.905 454.335 334.964 454.083 335.081C453.831 335.198 453.635 335.356 453.494 335.556C453.354 335.755 453.283 335.98 453.283 336.232H451.174C451.174 335.857 451.265 335.494 451.446 335.143C451.628 334.791 451.892 334.478 452.237 334.202C452.583 333.927 452.996 333.71 453.477 333.552C453.957 333.394 454.496 333.314 455.094 333.314C455.809 333.314 456.441 333.435 456.992 333.675C457.549 333.915 457.985 334.278 458.302 334.765C458.624 335.245 458.785 335.849 458.785 336.575V340.803C458.785 341.236 458.814 341.626 458.873 341.972C458.938 342.312 459.028 342.607 459.146 342.859V343H456.975C456.875 342.771 456.796 342.481 456.737 342.13C456.685 341.772 456.658 341.427 456.658 341.093ZM456.966 337.217L456.983 338.526H455.463C455.07 338.526 454.725 338.564 454.426 338.641C454.127 338.711 453.878 338.816 453.679 338.957C453.479 339.098 453.33 339.268 453.23 339.467C453.131 339.666 453.081 339.892 453.081 340.144C453.081 340.396 453.14 340.627 453.257 340.838C453.374 341.043 453.544 341.204 453.767 341.321C453.995 341.438 454.271 341.497 454.593 341.497C455.026 341.497 455.404 341.409 455.727 341.233C456.055 341.052 456.312 340.832 456.5 340.574C456.688 340.311 456.787 340.062 456.799 339.827L457.484 340.768C457.414 341.008 457.294 341.266 457.124 341.541C456.954 341.816 456.731 342.08 456.456 342.332C456.187 342.578 455.861 342.78 455.48 342.938C455.105 343.097 454.672 343.176 454.18 343.176C453.559 343.176 453.005 343.053 452.519 342.807C452.032 342.555 451.651 342.218 451.376 341.796C451.101 341.368 450.963 340.885 450.963 340.346C450.963 339.842 451.057 339.396 451.244 339.01C451.438 338.617 451.719 338.289 452.088 338.025C452.463 337.762 452.92 337.562 453.459 337.428C453.998 337.287 454.613 337.217 455.305 337.217H456.966ZM462.617 333.49L464.428 336.646L466.273 333.49H468.603L465.72 338.157L468.717 343H466.388L464.454 339.713L462.521 343H460.183L463.171 338.157L460.297 333.49H462.617ZM472.32 333.49V343H470.193V333.49H472.32ZM470.053 330.994C470.053 330.672 470.158 330.405 470.369 330.194C470.586 329.978 470.885 329.869 471.266 329.869C471.641 329.869 471.937 329.978 472.153 330.194C472.37 330.405 472.479 330.672 472.479 330.994C472.479 331.311 472.37 331.574 472.153 331.785C471.937 331.996 471.641 332.102 471.266 332.102C470.885 332.102 470.586 331.996 470.369 331.785C470.158 331.574 470.053 331.311 470.053 330.994ZM476.759 335.424V343H474.641V333.49H476.636L476.759 335.424ZM476.416 337.894L475.695 337.885C475.695 337.229 475.777 336.622 475.941 336.065C476.105 335.509 476.346 335.025 476.662 334.615C476.979 334.199 477.371 333.88 477.84 333.657C478.314 333.429 478.862 333.314 479.483 333.314C479.917 333.314 480.312 333.379 480.67 333.508C481.033 333.631 481.347 333.827 481.61 334.097C481.88 334.366 482.085 334.712 482.226 335.134C482.372 335.556 482.445 336.065 482.445 336.663V343H480.327V336.848C480.327 336.385 480.257 336.021 480.116 335.758C479.981 335.494 479.785 335.307 479.527 335.195C479.275 335.078 478.974 335.02 478.622 335.02C478.224 335.02 477.884 335.096 477.603 335.248C477.327 335.4 477.102 335.608 476.926 335.872C476.75 336.136 476.621 336.44 476.539 336.786C476.457 337.132 476.416 337.501 476.416 337.894ZM482.313 337.331L481.32 337.551C481.32 336.977 481.399 336.435 481.558 335.925C481.722 335.409 481.959 334.958 482.27 334.571C482.586 334.179 482.976 333.871 483.438 333.648C483.901 333.426 484.432 333.314 485.029 333.314C485.516 333.314 485.949 333.382 486.33 333.517C486.717 333.646 487.045 333.851 487.314 334.132C487.584 334.413 487.789 334.779 487.93 335.23C488.07 335.676 488.141 336.215 488.141 336.848V343H486.014V336.839C486.014 336.358 485.943 335.986 485.803 335.723C485.668 335.459 485.475 335.277 485.223 335.178C484.971 335.072 484.669 335.02 484.317 335.02C483.989 335.02 483.699 335.081 483.447 335.204C483.201 335.321 482.993 335.488 482.823 335.705C482.653 335.916 482.524 336.159 482.437 336.435C482.354 336.71 482.313 337.009 482.313 337.331ZM496.042 340.759V333.49H498.169V343H496.165L496.042 340.759ZM496.341 338.781L497.053 338.764C497.053 339.402 496.982 339.991 496.842 340.53C496.701 341.063 496.484 341.529 496.191 341.928C495.898 342.32 495.523 342.628 495.066 342.851C494.609 343.067 494.062 343.176 493.423 343.176C492.96 343.176 492.535 343.108 492.148 342.974C491.762 342.839 491.428 342.631 491.146 342.35C490.871 342.068 490.657 341.702 490.505 341.251C490.353 340.8 490.276 340.261 490.276 339.634V333.49H492.395V339.651C492.395 339.997 492.436 340.287 492.518 340.521C492.6 340.75 492.711 340.935 492.852 341.075C492.992 341.216 493.156 341.315 493.344 341.374C493.531 341.433 493.73 341.462 493.941 341.462C494.545 341.462 495.02 341.345 495.365 341.11C495.717 340.87 495.966 340.548 496.112 340.144C496.265 339.739 496.341 339.285 496.341 338.781ZM502.458 335.424V343H500.34V333.49H502.335L502.458 335.424ZM502.115 337.894L501.395 337.885C501.395 337.229 501.477 336.622 501.641 336.065C501.805 335.509 502.045 335.025 502.361 334.615C502.678 334.199 503.07 333.88 503.539 333.657C504.014 333.429 504.562 333.314 505.183 333.314C505.616 333.314 506.012 333.379 506.369 333.508C506.732 333.631 507.046 333.827 507.31 334.097C507.579 334.366 507.784 334.712 507.925 335.134C508.071 335.556 508.145 336.065 508.145 336.663V343H506.026V336.848C506.026 336.385 505.956 336.021 505.815 335.758C505.681 335.494 505.484 335.307 505.227 335.195C504.975 335.078 504.673 335.02 504.321 335.02C503.923 335.02 503.583 335.096 503.302 335.248C503.026 335.4 502.801 335.608 502.625 335.872C502.449 336.136 502.32 336.44 502.238 336.786C502.156 337.132 502.115 337.501 502.115 337.894ZM508.013 337.331L507.02 337.551C507.02 336.977 507.099 336.435 507.257 335.925C507.421 335.409 507.658 334.958 507.969 334.571C508.285 334.179 508.675 333.871 509.138 333.648C509.601 333.426 510.131 333.314 510.729 333.314C511.215 333.314 511.648 333.382 512.029 333.517C512.416 333.646 512.744 333.851 513.014 334.132C513.283 334.413 513.488 334.779 513.629 335.23C513.77 335.676 513.84 336.215 513.84 336.848V343H511.713V336.839C511.713 336.358 511.643 335.986 511.502 335.723C511.367 335.459 511.174 335.277 510.922 335.178C510.67 335.072 510.368 335.02 510.017 335.02C509.688 335.02 509.398 335.081 509.146 335.204C508.9 335.321 508.692 335.488 508.522 335.705C508.353 335.916 508.224 336.159 508.136 336.435C508.054 336.71 508.013 337.009 508.013 337.331ZM522.77 329.5V343H520.643V329.5H522.77ZM524.686 338.351V338.148C524.686 337.463 524.785 336.827 524.984 336.241C525.184 335.649 525.471 335.137 525.846 334.703C526.227 334.264 526.689 333.924 527.234 333.684C527.785 333.438 528.406 333.314 529.098 333.314C529.795 333.314 530.416 333.438 530.961 333.684C531.512 333.924 531.978 334.264 532.358 334.703C532.739 335.137 533.029 335.649 533.229 336.241C533.428 336.827 533.527 337.463 533.527 338.148V338.351C533.527 339.036 533.428 339.672 533.229 340.258C533.029 340.844 532.739 341.356 532.358 341.796C531.978 342.229 531.515 342.569 530.97 342.815C530.425 343.056 529.807 343.176 529.115 343.176C528.418 343.176 527.794 343.056 527.243 342.815C526.698 342.569 526.235 342.229 525.854 341.796C525.474 341.356 525.184 340.844 524.984 340.258C524.785 339.672 524.686 339.036 524.686 338.351ZM526.804 338.148V338.351C526.804 338.778 526.848 339.183 526.936 339.563C527.023 339.944 527.161 340.278 527.349 340.565C527.536 340.853 527.776 341.078 528.069 341.242C528.362 341.406 528.711 341.488 529.115 341.488C529.508 341.488 529.848 341.406 530.135 341.242C530.428 341.078 530.668 340.853 530.855 340.565C531.043 340.278 531.181 339.944 531.269 339.563C531.362 339.183 531.409 338.778 531.409 338.351V338.148C531.409 337.727 531.362 337.328 531.269 336.953C531.181 336.572 531.04 336.235 530.847 335.942C530.659 335.649 530.419 335.421 530.126 335.257C529.839 335.087 529.496 335.002 529.098 335.002C528.699 335.002 528.354 335.087 528.061 335.257C527.773 335.421 527.536 335.649 527.349 335.942C527.161 336.235 527.023 336.572 526.936 336.953C526.848 337.328 526.804 337.727 526.804 338.148ZM540.638 340.425C540.638 340.214 540.585 340.023 540.479 339.854C540.374 339.678 540.172 339.52 539.873 339.379C539.58 339.238 539.146 339.109 538.572 338.992C538.068 338.881 537.605 338.749 537.184 338.597C536.768 338.438 536.41 338.248 536.111 338.025C535.812 337.803 535.581 337.539 535.417 337.234C535.253 336.93 535.171 336.578 535.171 336.18C535.171 335.793 535.256 335.427 535.426 335.081C535.596 334.735 535.839 334.431 536.155 334.167C536.472 333.903 536.855 333.695 537.307 333.543C537.764 333.391 538.273 333.314 538.836 333.314C539.633 333.314 540.315 333.449 540.884 333.719C541.458 333.982 541.897 334.343 542.202 334.8C542.507 335.251 542.659 335.761 542.659 336.329H540.541C540.541 336.077 540.477 335.843 540.348 335.626C540.225 335.403 540.037 335.225 539.785 335.09C539.533 334.949 539.217 334.879 538.836 334.879C538.473 334.879 538.171 334.938 537.931 335.055C537.696 335.166 537.521 335.312 537.403 335.494C537.292 335.676 537.236 335.875 537.236 336.092C537.236 336.25 537.266 336.394 537.324 336.522C537.389 336.646 537.494 336.76 537.641 336.865C537.787 336.965 537.986 337.059 538.238 337.146C538.496 337.234 538.818 337.319 539.205 337.401C539.932 337.554 540.556 337.75 541.077 337.99C541.604 338.225 542.009 338.529 542.29 338.904C542.571 339.273 542.712 339.742 542.712 340.311C542.712 340.732 542.621 341.119 542.439 341.471C542.264 341.816 542.006 342.118 541.666 342.376C541.326 342.628 540.919 342.824 540.444 342.965C539.976 343.105 539.448 343.176 538.862 343.176C538.001 343.176 537.271 343.023 536.674 342.719C536.076 342.408 535.622 342.013 535.312 341.532C535.007 341.046 534.854 340.542 534.854 340.021H536.902C536.926 340.413 537.034 340.727 537.228 340.961C537.427 341.189 537.673 341.356 537.966 341.462C538.265 341.562 538.572 341.611 538.889 341.611C539.27 341.611 539.589 341.562 539.847 341.462C540.104 341.356 540.301 341.216 540.436 341.04C540.57 340.858 540.638 340.653 540.638 340.425ZM549.901 340.425C549.901 340.214 549.849 340.023 549.743 339.854C549.638 339.678 549.436 339.52 549.137 339.379C548.844 339.238 548.41 339.109 547.836 338.992C547.332 338.881 546.869 338.749 546.447 338.597C546.031 338.438 545.674 338.248 545.375 338.025C545.076 337.803 544.845 337.539 544.681 337.234C544.517 336.93 544.435 336.578 544.435 336.18C544.435 335.793 544.52 335.427 544.689 335.081C544.859 334.735 545.103 334.431 545.419 334.167C545.735 333.903 546.119 333.695 546.57 333.543C547.027 333.391 547.537 333.314 548.1 333.314C548.896 333.314 549.579 333.449 550.147 333.719C550.722 333.982 551.161 334.343 551.466 334.8C551.771 335.251 551.923 335.761 551.923 336.329H549.805C549.805 336.077 549.74 335.843 549.611 335.626C549.488 335.403 549.301 335.225 549.049 335.09C548.797 334.949 548.48 334.879 548.1 334.879C547.736 334.879 547.435 334.938 547.194 335.055C546.96 335.166 546.784 335.312 546.667 335.494C546.556 335.676 546.5 335.875 546.5 336.092C546.5 336.25 546.529 336.394 546.588 336.522C546.652 336.646 546.758 336.76 546.904 336.865C547.051 336.965 547.25 337.059 547.502 337.146C547.76 337.234 548.082 337.319 548.469 337.401C549.195 337.554 549.819 337.75 550.341 337.99C550.868 338.225 551.272 338.529 551.554 338.904C551.835 339.273 551.976 339.742 551.976 340.311C551.976 340.732 551.885 341.119 551.703 341.471C551.527 341.816 551.27 342.118 550.93 342.376C550.59 342.628 550.183 342.824 549.708 342.965C549.239 343.105 548.712 343.176 548.126 343.176C547.265 343.176 546.535 343.023 545.938 342.719C545.34 342.408 544.886 342.013 544.575 341.532C544.271 341.046 544.118 340.542 544.118 340.021H546.166C546.189 340.413 546.298 340.727 546.491 340.961C546.69 341.189 546.937 341.356 547.229 341.462C547.528 341.562 547.836 341.611 548.152 341.611C548.533 341.611 548.853 341.562 549.11 341.462C549.368 341.356 549.564 341.216 549.699 341.04C549.834 340.858 549.901 340.653 549.901 340.425Z" fill="#374151"/>
<path d="M482.785 388.418C482.785 388.895 482.707 389.34 482.551 389.754C482.395 390.168 482.18 390.547 481.906 390.891C481.633 391.227 481.312 391.527 480.945 391.793C480.586 392.059 480.195 392.281 479.773 392.461C479.359 392.641 478.93 392.777 478.484 392.871C478.039 392.957 477.602 393 477.172 393H467.246V376.125H476.316C476.715 376.125 477.133 376.156 477.57 376.219C478.008 376.273 478.434 376.363 478.848 376.488C479.27 376.613 479.668 376.777 480.043 376.98C480.426 377.184 480.758 377.434 481.039 377.73C481.328 378.02 481.555 378.355 481.719 378.738C481.891 379.121 481.977 379.559 481.977 380.051C481.977 380.52 481.883 380.945 481.695 381.328C481.508 381.711 481.254 382.055 480.934 382.359C480.621 382.656 480.258 382.922 479.844 383.156C479.438 383.383 479.008 383.582 478.555 383.754C479.125 383.91 479.664 384.117 480.172 384.375C480.688 384.633 481.137 384.949 481.52 385.324C481.91 385.699 482.219 386.145 482.445 386.66C482.672 387.168 482.785 387.754 482.785 388.418ZM477.254 380.461C477.254 379.508 477 378.812 476.492 378.375C475.992 377.938 475.277 377.719 474.348 377.719H471.898V383.191H473.949C474.371 383.191 474.781 383.141 475.18 383.039C475.578 382.93 475.93 382.766 476.234 382.547C476.547 382.32 476.793 382.035 476.973 381.691C477.16 381.348 477.254 380.938 477.254 380.461ZM478.074 388.125C478.074 387.664 478.016 387.234 477.898 386.836C477.781 386.43 477.602 386.082 477.359 385.793C477.117 385.496 476.812 385.266 476.445 385.102C476.086 384.93 475.66 384.844 475.168 384.844H471.898V391.359H474.758C475.234 391.359 475.676 391.281 476.082 391.125C476.488 390.969 476.84 390.75 477.137 390.469C477.434 390.188 477.664 389.848 477.828 389.449C477.992 389.051 478.074 388.609 478.074 388.125Z" fill="#0148FF"/>
<circle cx="474" cy="84" r="83" fill="white" stroke="#0198FF" stroke-width="2" stroke-dasharray="3 3"/>
<path d="M469.982 46.2031V47.3633L464.867 59H462.635L467.741 47.8906H461.114V46.2031H469.982ZM471.626 49.3408V48.6641C471.626 48.1777 471.731 47.7354 471.942 47.3369C472.153 46.9385 472.461 46.6191 472.865 46.3789C473.27 46.1387 473.756 46.0186 474.324 46.0186C474.91 46.0186 475.402 46.1387 475.801 46.3789C476.205 46.6191 476.513 46.9385 476.724 47.3369C476.935 47.7354 477.04 48.1777 477.04 48.6641V49.3408C477.04 49.8154 476.935 50.252 476.724 50.6504C476.519 51.0488 476.214 51.3682 475.81 51.6084C475.411 51.8486 474.922 51.9688 474.342 51.9688C473.768 51.9688 473.275 51.8486 472.865 51.6084C472.461 51.3682 472.153 51.0488 471.942 50.6504C471.731 50.252 471.626 49.8154 471.626 49.3408ZM473.094 48.6641V49.3408C473.094 49.5752 473.138 49.7979 473.226 50.0088C473.319 50.2197 473.46 50.3896 473.647 50.5186C473.835 50.6475 474.066 50.7119 474.342 50.7119C474.623 50.7119 474.852 50.6475 475.027 50.5186C475.209 50.3896 475.344 50.2197 475.432 50.0088C475.52 49.7979 475.563 49.5752 475.563 49.3408V48.6641C475.563 48.4238 475.517 48.1982 475.423 47.9873C475.335 47.7705 475.2 47.5977 475.019 47.4688C474.837 47.3398 474.605 47.2754 474.324 47.2754C474.055 47.2754 473.826 47.3398 473.639 47.4688C473.457 47.5977 473.319 47.7705 473.226 47.9873C473.138 48.1982 473.094 48.4238 473.094 48.6641ZM477.796 56.5479V55.8623C477.796 55.3818 477.901 54.9424 478.112 54.5439C478.329 54.1455 478.64 53.8262 479.044 53.5859C479.448 53.3457 479.935 53.2256 480.503 53.2256C481.089 53.2256 481.581 53.3457 481.979 53.5859C482.384 53.8262 482.688 54.1455 482.894 54.5439C483.104 54.9424 483.21 55.3818 483.21 55.8623V56.5479C483.21 57.0283 483.104 57.4678 482.894 57.8662C482.688 58.2646 482.387 58.584 481.988 58.8242C481.59 59.0645 481.104 59.1846 480.529 59.1846C479.949 59.1846 479.454 59.0645 479.044 58.8242C478.64 58.584 478.329 58.2646 478.112 57.8662C477.901 57.4678 477.796 57.0283 477.796 56.5479ZM479.272 55.8623V56.5479C479.272 56.7822 479.319 57.0049 479.413 57.2158C479.513 57.4268 479.656 57.5996 479.844 57.7344C480.031 57.8633 480.257 57.9277 480.521 57.9277C480.819 57.9277 481.06 57.8633 481.241 57.7344C481.423 57.5996 481.552 57.4297 481.628 57.2246C481.71 57.0137 481.751 56.7881 481.751 56.5479V55.8623C481.751 55.6221 481.704 55.3965 481.61 55.1855C481.522 54.9746 481.385 54.8047 481.197 54.6758C481.016 54.5469 480.784 54.4824 480.503 54.4824C480.228 54.4824 479.999 54.5469 479.817 54.6758C479.636 54.8047 479.498 54.9746 479.404 55.1855C479.316 55.3965 479.272 55.6221 479.272 55.8623ZM481.03 48.0312L474.781 58.0332L473.7 57.4092L479.949 47.4072L481.03 48.0312ZM420.57 74.2031H425.097C426.069 74.2031 426.898 74.3496 427.584 74.6426C428.27 74.9355 428.794 75.3691 429.157 75.9434C429.526 76.5117 429.711 77.2148 429.711 78.0527C429.711 78.6914 429.594 79.2539 429.359 79.7402C429.125 80.2266 428.794 80.6367 428.366 80.9707C427.938 81.2988 427.429 81.5537 426.837 81.7354L426.169 82.0605H422.1L422.082 80.3115H425.132C425.659 80.3115 426.099 80.2178 426.45 80.0303C426.802 79.8428 427.065 79.5879 427.241 79.2656C427.423 78.9375 427.514 78.5684 427.514 78.1582C427.514 77.7129 427.426 77.3262 427.25 76.998C427.08 76.6641 426.816 76.4092 426.459 76.2334C426.102 76.0518 425.647 75.9609 425.097 75.9609H422.776V87H420.57V74.2031ZM427.874 87L424.868 81.252L427.18 81.2432L430.229 86.8857V87H427.874ZM437.059 85.0928V80.5576C437.059 80.2178 436.997 79.9248 436.874 79.6787C436.751 79.4326 436.563 79.2422 436.312 79.1074C436.065 78.9727 435.755 78.9053 435.38 78.9053C435.034 78.9053 434.735 78.9639 434.483 79.0811C434.231 79.1982 434.035 79.3564 433.895 79.5557C433.754 79.7549 433.684 79.9805 433.684 80.2324H431.574C431.574 79.8574 431.665 79.4941 431.847 79.1426C432.028 78.791 432.292 78.4775 432.638 78.2021C432.983 77.9268 433.396 77.71 433.877 77.5518C434.357 77.3936 434.896 77.3145 435.494 77.3145C436.209 77.3145 436.842 77.4346 437.393 77.6748C437.949 77.915 438.386 78.2783 438.702 78.7646C439.024 79.2451 439.186 79.8486 439.186 80.5752V84.8027C439.186 85.2363 439.215 85.626 439.273 85.9717C439.338 86.3115 439.429 86.6074 439.546 86.8594V87H437.375C437.275 86.7715 437.196 86.4814 437.138 86.1299C437.085 85.7725 437.059 85.4268 437.059 85.0928ZM437.366 81.2168L437.384 82.5264H435.863C435.471 82.5264 435.125 82.5645 434.826 82.6406C434.527 82.7109 434.278 82.8164 434.079 82.957C433.88 83.0977 433.73 83.2676 433.631 83.4668C433.531 83.666 433.481 83.8916 433.481 84.1436C433.481 84.3955 433.54 84.627 433.657 84.8379C433.774 85.043 433.944 85.2041 434.167 85.3213C434.396 85.4385 434.671 85.4971 434.993 85.4971C435.427 85.4971 435.805 85.4092 436.127 85.2334C436.455 85.0518 436.713 84.832 436.9 84.5742C437.088 84.3105 437.188 84.0615 437.199 83.8271L437.885 84.7676C437.814 85.0078 437.694 85.2656 437.524 85.541C437.354 85.8164 437.132 86.0801 436.856 86.332C436.587 86.5781 436.262 86.7803 435.881 86.9385C435.506 87.0967 435.072 87.1758 434.58 87.1758C433.959 87.1758 433.405 87.0527 432.919 86.8066C432.433 86.5547 432.052 86.2178 431.776 85.7959C431.501 85.3682 431.363 84.8848 431.363 84.3457C431.363 83.8418 431.457 83.3965 431.645 83.0098C431.838 82.6172 432.119 82.2891 432.488 82.0254C432.863 81.7617 433.32 81.5625 433.859 81.4277C434.398 81.2871 435.014 81.2168 435.705 81.2168H437.366ZM445.76 77.4902V79.0371H440.398V77.4902H445.76ZM441.945 75.1611H444.063V84.3721C444.063 84.665 444.104 84.8906 444.187 85.0488C444.274 85.2012 444.395 85.3037 444.547 85.3564C444.699 85.4092 444.878 85.4355 445.083 85.4355C445.229 85.4355 445.37 85.4268 445.505 85.4092C445.64 85.3916 445.748 85.374 445.83 85.3564L445.839 86.9736C445.663 87.0264 445.458 87.0732 445.224 87.1143C444.995 87.1553 444.731 87.1758 444.433 87.1758C443.946 87.1758 443.516 87.0908 443.141 86.9209C442.766 86.7451 442.473 86.4609 442.262 86.0684C442.051 85.6758 441.945 85.1543 441.945 84.5039V75.1611ZM451.587 87.1758C450.884 87.1758 450.248 87.0615 449.68 86.833C449.117 86.5986 448.637 86.2734 448.238 85.8574C447.846 85.4414 447.544 84.9521 447.333 84.3896C447.122 83.8271 447.017 83.2207 447.017 82.5703V82.2188C447.017 81.4746 447.125 80.8008 447.342 80.1973C447.559 79.5938 447.86 79.0781 448.247 78.6504C448.634 78.2168 449.091 77.8857 449.618 77.6572C450.146 77.4287 450.717 77.3145 451.332 77.3145C452.012 77.3145 452.606 77.4287 453.116 77.6572C453.626 77.8857 454.048 78.208 454.382 78.624C454.722 79.0342 454.974 79.5234 455.138 80.0918C455.308 80.6602 455.393 81.2871 455.393 81.9727V82.8779H448.045V81.3574H453.301V81.1904C453.289 80.8096 453.213 80.4521 453.072 80.1182C452.938 79.7842 452.729 79.5146 452.448 79.3096C452.167 79.1045 451.792 79.002 451.323 79.002C450.972 79.002 450.658 79.0781 450.383 79.2305C450.113 79.377 449.888 79.5908 449.706 79.8721C449.524 80.1533 449.384 80.4932 449.284 80.8916C449.19 81.2842 449.144 81.7266 449.144 82.2188V82.5703C449.144 82.9863 449.199 83.373 449.311 83.7305C449.428 84.082 449.598 84.3896 449.82 84.6533C450.043 84.917 450.312 85.125 450.629 85.2773C450.945 85.4238 451.306 85.4971 451.71 85.4971C452.22 85.4971 452.674 85.3945 453.072 85.1895C453.471 84.9844 453.816 84.6943 454.109 84.3193L455.226 85.4004C455.021 85.6992 454.754 85.9863 454.426 86.2617C454.098 86.5312 453.696 86.751 453.222 86.9209C452.753 87.0908 452.208 87.1758 451.587 87.1758ZM461.123 82.3506V82.1484C461.123 81.4629 461.223 80.8271 461.422 80.2412C461.621 79.6494 461.908 79.1367 462.283 78.7031C462.664 78.2637 463.127 77.9238 463.672 77.6836C464.223 77.4375 464.844 77.3145 465.535 77.3145C466.232 77.3145 466.854 77.4375 467.398 77.6836C467.949 77.9238 468.415 78.2637 468.796 78.7031C469.177 79.1367 469.467 79.6494 469.666 80.2412C469.865 80.8271 469.965 81.4629 469.965 82.1484V82.3506C469.965 83.0361 469.865 83.6719 469.666 84.2578C469.467 84.8438 469.177 85.3564 468.796 85.7959C468.415 86.2295 467.952 86.5693 467.407 86.8154C466.862 87.0557 466.244 87.1758 465.553 87.1758C464.855 87.1758 464.231 87.0557 463.681 86.8154C463.136 86.5693 462.673 86.2295 462.292 85.7959C461.911 85.3564 461.621 84.8438 461.422 84.2578C461.223 83.6719 461.123 83.0361 461.123 82.3506ZM463.241 82.1484V82.3506C463.241 82.7783 463.285 83.1826 463.373 83.5635C463.461 83.9443 463.599 84.2783 463.786 84.5654C463.974 84.8525 464.214 85.0781 464.507 85.2422C464.8 85.4062 465.148 85.4883 465.553 85.4883C465.945 85.4883 466.285 85.4062 466.572 85.2422C466.865 85.0781 467.105 84.8525 467.293 84.5654C467.48 84.2783 467.618 83.9443 467.706 83.5635C467.8 83.1826 467.847 82.7783 467.847 82.3506V82.1484C467.847 81.7266 467.8 81.3281 467.706 80.9531C467.618 80.5723 467.478 80.2354 467.284 79.9424C467.097 79.6494 466.856 79.4209 466.563 79.2568C466.276 79.0869 465.934 79.002 465.535 79.002C465.137 79.002 464.791 79.0869 464.498 79.2568C464.211 79.4209 463.974 79.6494 463.786 79.9424C463.599 80.2354 463.461 80.5723 463.373 80.9531C463.285 81.3281 463.241 81.7266 463.241 82.1484ZM474.605 87H472.487V76.5762C472.487 75.8672 472.619 75.2725 472.883 74.792C473.152 74.3057 473.536 73.9395 474.034 73.6934C474.532 73.4414 475.121 73.3154 475.801 73.3154C476.012 73.3154 476.22 73.3301 476.425 73.3594C476.63 73.3828 476.829 73.4209 477.022 73.4736L476.97 75.1084C476.853 75.0791 476.724 75.0586 476.583 75.0469C476.448 75.0352 476.302 75.0293 476.144 75.0293C475.821 75.0293 475.543 75.0908 475.309 75.2139C475.08 75.3311 474.904 75.5039 474.781 75.7324C474.664 75.9609 474.605 76.2422 474.605 76.5762V87ZM476.565 77.4902V79.0371H471.028V77.4902H476.565ZM484.713 79.3008V87H482.595V77.4902H484.616L484.713 79.3008ZM487.622 77.4287L487.604 79.3975C487.476 79.374 487.335 79.3564 487.183 79.3447C487.036 79.333 486.89 79.3271 486.743 79.3271C486.38 79.3271 486.061 79.3799 485.785 79.4854C485.51 79.585 485.278 79.7314 485.091 79.9248C484.909 80.1123 484.769 80.3408 484.669 80.6104C484.569 80.8799 484.511 81.1816 484.493 81.5156L484.01 81.5508C484.01 80.9531 484.068 80.3994 484.186 79.8896C484.303 79.3799 484.479 78.9316 484.713 78.5449C484.953 78.1582 485.252 77.8564 485.609 77.6396C485.973 77.4229 486.392 77.3145 486.866 77.3145C486.995 77.3145 487.133 77.3262 487.279 77.3496C487.432 77.373 487.546 77.3994 487.622 77.4287ZM492.966 87.1758C492.263 87.1758 491.627 87.0615 491.059 86.833C490.496 86.5986 490.016 86.2734 489.617 85.8574C489.225 85.4414 488.923 84.9521 488.712 84.3896C488.501 83.8271 488.396 83.2207 488.396 82.5703V82.2188C488.396 81.4746 488.504 80.8008 488.721 80.1973C488.938 79.5938 489.239 79.0781 489.626 78.6504C490.013 78.2168 490.47 77.8857 490.997 77.6572C491.524 77.4287 492.096 77.3145 492.711 77.3145C493.391 77.3145 493.985 77.4287 494.495 77.6572C495.005 77.8857 495.427 78.208 495.761 78.624C496.101 79.0342 496.353 79.5234 496.517 80.0918C496.687 80.6602 496.771 81.2871 496.771 81.9727V82.8779H489.424V81.3574H494.68V81.1904C494.668 80.8096 494.592 80.4521 494.451 80.1182C494.316 79.7842 494.108 79.5146 493.827 79.3096C493.546 79.1045 493.171 79.002 492.702 79.002C492.351 79.002 492.037 79.0781 491.762 79.2305C491.492 79.377 491.267 79.5908 491.085 79.8721C490.903 80.1533 490.763 80.4932 490.663 80.8916C490.569 81.2842 490.522 81.7266 490.522 82.2188V82.5703C490.522 82.9863 490.578 83.373 490.689 83.7305C490.807 84.082 490.977 84.3896 491.199 84.6533C491.422 84.917 491.691 85.125 492.008 85.2773C492.324 85.4238 492.685 85.4971 493.089 85.4971C493.599 85.4971 494.053 85.3945 494.451 85.1895C494.85 84.9844 495.195 84.6943 495.488 84.3193L496.604 85.4004C496.399 85.6992 496.133 85.9863 495.805 86.2617C495.477 86.5312 495.075 86.751 494.601 86.9209C494.132 87.0908 493.587 87.1758 492.966 87.1758ZM502.783 77.4902V79.0371H497.422V77.4902H502.783ZM498.969 75.1611H501.087V84.3721C501.087 84.665 501.128 84.8906 501.21 85.0488C501.298 85.2012 501.418 85.3037 501.57 85.3564C501.723 85.4092 501.901 85.4355 502.106 85.4355C502.253 85.4355 502.394 85.4268 502.528 85.4092C502.663 85.3916 502.771 85.374 502.854 85.3564L502.862 86.9736C502.687 87.0264 502.481 87.0732 502.247 87.1143C502.019 87.1553 501.755 87.1758 501.456 87.1758C500.97 87.1758 500.539 87.0908 500.164 86.9209C499.789 86.7451 499.496 86.4609 499.285 86.0684C499.074 85.6758 498.969 85.1543 498.969 84.5039V75.1611ZM510.14 84.7588V77.4902H512.267V87H510.263L510.14 84.7588ZM510.438 82.7812L511.15 82.7637C511.15 83.4023 511.08 83.9912 510.939 84.5303C510.799 85.0635 510.582 85.5293 510.289 85.9277C509.996 86.3203 509.621 86.6279 509.164 86.8506C508.707 87.0674 508.159 87.1758 507.521 87.1758C507.058 87.1758 506.633 87.1084 506.246 86.9736C505.859 86.8389 505.525 86.6309 505.244 86.3496C504.969 86.0684 504.755 85.7021 504.603 85.251C504.45 84.7998 504.374 84.2607 504.374 83.6338V77.4902H506.492V83.6514C506.492 83.9971 506.533 84.2871 506.615 84.5215C506.697 84.75 506.809 84.9346 506.949 85.0752C507.09 85.2158 507.254 85.3154 507.441 85.374C507.629 85.4326 507.828 85.4619 508.039 85.4619C508.643 85.4619 509.117 85.3447 509.463 85.1104C509.814 84.8701 510.063 84.5479 510.21 84.1436C510.362 83.7393 510.438 83.2852 510.438 82.7812ZM516.564 79.3008V87H514.446V77.4902H516.468L516.564 79.3008ZM519.474 77.4287L519.456 79.3975C519.327 79.374 519.187 79.3564 519.034 79.3447C518.888 79.333 518.741 79.3271 518.595 79.3271C518.231 79.3271 517.912 79.3799 517.637 79.4854C517.361 79.585 517.13 79.7314 516.942 79.9248C516.761 80.1123 516.62 80.3408 516.521 80.6104C516.421 80.8799 516.362 81.1816 516.345 81.5156L515.861 81.5508C515.861 80.9531 515.92 80.3994 516.037 79.8896C516.154 79.3799 516.33 78.9316 516.564 78.5449C516.805 78.1582 517.104 77.8564 517.461 77.6396C517.824 77.4229 518.243 77.3145 518.718 77.3145C518.847 77.3145 518.984 77.3262 519.131 77.3496C519.283 77.373 519.397 77.3994 519.474 77.4287ZM522.901 79.5205V87H520.783V77.4902H522.778L522.901 79.5205ZM522.523 81.8936L521.838 81.8848C521.844 81.2109 521.938 80.5928 522.119 80.0303C522.307 79.4678 522.564 78.9844 522.893 78.5801C523.227 78.1758 523.625 77.8652 524.088 77.6484C524.551 77.4258 525.066 77.3145 525.635 77.3145C526.092 77.3145 526.505 77.3789 526.874 77.5078C527.249 77.6309 527.568 77.833 527.832 78.1143C528.102 78.3955 528.307 78.7617 528.447 79.2129C528.588 79.6582 528.658 80.2061 528.658 80.8564V87H526.531V80.8477C526.531 80.3906 526.464 80.0303 526.329 79.7666C526.2 79.4971 526.01 79.3066 525.758 79.1953C525.512 79.0781 525.204 79.0195 524.835 79.0195C524.472 79.0195 524.146 79.0957 523.859 79.248C523.572 79.4004 523.329 79.6084 523.13 79.8721C522.937 80.1357 522.787 80.4404 522.682 80.7861C522.576 81.1318 522.523 81.501 522.523 81.8936Z" fill="#374151"/>
<path d="M482.785 128.418C482.785 128.895 482.707 129.34 482.551 129.754C482.395 130.168 482.18 130.547 481.906 130.891C481.633 131.227 481.312 131.527 480.945 131.793C480.586 132.059 480.195 132.281 479.773 132.461C479.359 132.641 478.93 132.777 478.484 132.871C478.039 132.957 477.602 133 477.172 133H467.246V116.125H476.316C476.715 116.125 477.133 116.156 477.57 116.219C478.008 116.273 478.434 116.363 478.848 116.488C479.27 116.613 479.668 116.777 480.043 116.98C480.426 117.184 480.758 117.434 481.039 117.73C481.328 118.02 481.555 118.355 481.719 118.738C481.891 119.121 481.977 119.559 481.977 120.051C481.977 120.52 481.883 120.945 481.695 121.328C481.508 121.711 481.254 122.055 480.934 122.359C480.621 122.656 480.258 122.922 479.844 123.156C479.438 123.383 479.008 123.582 478.555 123.754C479.125 123.91 479.664 124.117 480.172 124.375C480.688 124.633 481.137 124.949 481.52 125.324C481.91 125.699 482.219 126.145 482.445 126.66C482.672 127.168 482.785 127.754 482.785 128.418ZM477.254 120.461C477.254 119.508 477 118.812 476.492 118.375C475.992 117.938 475.277 117.719 474.348 117.719H471.898V123.191H473.949C474.371 123.191 474.781 123.141 475.18 123.039C475.578 122.93 475.93 122.766 476.234 122.547C476.547 122.32 476.793 122.035 476.973 121.691C477.16 121.348 477.254 120.938 477.254 120.461ZM478.074 128.125C478.074 127.664 478.016 127.234 477.898 126.836C477.781 126.43 477.602 126.082 477.359 125.793C477.117 125.496 476.812 125.266 476.445 125.102C476.086 124.93 475.66 124.844 475.168 124.844H471.898V131.359H474.758C475.234 131.359 475.676 131.281 476.082 131.125C476.488 130.969 476.84 130.75 477.137 130.469C477.434 130.188 477.664 129.848 477.828 129.449C477.992 129.051 478.074 128.609 478.074 128.125Z" fill="#0198FF"/>
<path d="M279.66 354.454V353.405C279.724 348.653 281.03 346.49 284.884 343.985C288.909 341.395 290.964 338.312 290.964 333.881C290.964 327.329 286.061 322.555 278.847 322.555C272.017 322.555 266.644 327.03 266.429 334.137H270.775C271.032 328.935 274.715 326.238 278.847 326.238C283.278 326.238 286.768 329.213 286.768 333.731C286.768 337.028 284.991 339.383 281.951 341.352C277.733 344.028 275.55 346.469 275.485 353.405V354.454H279.66ZM277.712 367.321C279.489 367.321 280.945 365.865 280.945 364.088C280.945 362.311 279.489 360.856 277.712 360.856C275.935 360.856 274.436 362.311 274.479 364.088C274.436 365.865 275.935 367.321 277.712 367.321Z" fill="#1F2937"/>
<g clip-path="url(#clip0_1437_40677)">
<path d="M292 109H266V115H292V109Z" stroke="#1F2937" stroke-width="2.5" stroke-miterlimit="10" stroke-linecap="square" stroke-linejoin="round"/>
<path d="M307.5 51.5L250.781 61.6101" stroke="#1F2937" stroke-width="2.5" stroke-miterlimit="10" stroke-linecap="round"/>
<path d="M299.201 74.4602L307.491 51.2402L315.5 74.4602" stroke="#1F2937" stroke-width="2.5" stroke-linecap="round" stroke-linejoin="round"/>
<path d="M242.291 84.6507L250.591 61.4307L258.5 84.6507" stroke="#1F2937" stroke-width="2.5" stroke-linecap="round" stroke-linejoin="round"/>
<path d="M317.961 74.7598C317.961 80.4898 313.321 85.1298 307.591 85.1298C301.861 85.1298 297.221 80.4898 297.221 74.7598H317.961Z" stroke="#1F2937" stroke-width="2.5" stroke-miterlimit="10" stroke-linecap="square" stroke-linejoin="round"/>
<path d="M261.06 85.7607C261.06 91.4907 256.42 96.1307 250.69 96.1307C244.96 96.1307 240.32 91.4807 240.32 85.7607H261.06Z" stroke="#1F2937" stroke-width="2.5" stroke-miterlimit="10" stroke-linecap="square" stroke-linejoin="round"/>
<path d="M279 44L279 108" stroke="#1F2937" stroke-width="2.5" stroke-linecap="round"/>
<circle cx="279" cy="56" r="4" fill="#1F2937"/>
</g>
<defs>
<clipPath id="clip0_1437_40677">
<rect width="82" height="82" fill="white" transform="translate(238 43)"/>
</clipPath>
</defs>
</svg>
