<svg width="179" height="108" viewBox="0 0 179 108" fill="none" xmlns="http://www.w3.org/2000/svg">
<g filter="url(#filter0_d_910_39692)">
<rect x="12" y="12" width="155" height="84" rx="20" fill="white"/>
</g>
<rect x="32" y="32" width="44" height="44" rx="22" fill="#F7931A" fill-opacity="0.1"/>
<path fill-rule="evenodd" clip-rule="evenodd" d="M62.9546 51.4084C63.316 48.9887 61.4738 47.688 58.9547 46.8202L59.7718 43.5425L57.7761 43.0453L56.9805 46.2366C56.4566 46.1059 55.9179 45.9826 55.3826 45.8605L56.1839 42.6481L54.1898 42.1509L53.3721 45.4274C52.938 45.3286 52.5118 45.2308 52.0981 45.128L52.1004 45.1177L49.3489 44.4307L48.8181 46.5617C48.8181 46.5617 50.2984 46.9009 50.2672 46.922C51.0752 47.1237 51.2218 47.6584 51.1968 48.0823L50.266 51.8164C50.3217 51.8306 50.3939 51.851 50.4734 51.8828L50.2632 51.8306L48.9579 57.0614C48.859 57.3069 48.6084 57.6751 48.0436 57.5353C48.0635 57.5643 46.5934 57.1733 46.5934 57.1733L45.6029 59.4577L48.1998 60.105C48.4929 60.1784 48.7824 60.2539 49.0688 60.3286L49.069 60.3287L49.0694 60.3288C49.2548 60.3772 49.4388 60.4252 49.6216 60.4721L48.7959 63.7878L50.7888 64.2851L51.6071 61.0051C52.1509 61.1528 52.6794 61.2892 53.1965 61.4176L52.3816 64.6823L54.3768 65.1795L55.2025 61.8705C58.6046 62.5144 61.1635 62.2547 62.2392 59.1781C63.1069 56.7005 62.1966 55.2714 60.4066 54.3389C61.7101 54.0371 62.6921 53.1796 62.9541 51.4084H62.9546ZM58.3956 57.8007C57.8292 60.0747 54.2691 59.1338 52.6416 58.7037C52.4959 58.6651 52.3657 58.6307 52.2545 58.6031L53.3501 54.211C53.486 54.2449 53.652 54.2822 53.8401 54.3244L53.8402 54.3244C55.5238 54.7022 58.9743 55.4765 58.3962 57.8007H58.3956ZM54.1785 52.2863C55.5365 52.6486 58.4965 53.4383 59.0121 51.3725C59.5393 49.2592 56.661 48.6223 55.2553 48.3112C55.0973 48.2762 54.9579 48.2454 54.844 48.217L53.8507 52.2005C53.9447 52.2239 54.055 52.2533 54.1785 52.2863Z" fill="#F7931A"/>
<path d="M98.8 36.592H100.944V51.456H98.8V36.592ZM89.376 37.776H91.488V41.376H94.544V37.776H96.656V48H89.376V37.776ZM91.488 43.024V46.288H94.544V43.024H91.488ZM104.943 44.24H115.359V45.904H104.943V44.24ZM103.375 48H116.783V49.728H103.375V48ZM104.943 37.68H115.231V39.392H107.103V44.704H104.943V37.68ZM106.447 40.944H114.895V42.592H106.447V40.944ZM119.598 37.84H128.926V39.536H119.598V37.84ZM118.078 48.016H131.47V49.728H118.078V48.016ZM128.078 37.84H130.174V39.136C130.174 40.928 130.19 43.024 129.502 46.24L127.406 46.016C128.078 43.008 128.078 40.848 128.078 39.136V37.84ZM128.462 41.408V43.008L119.422 43.504L119.134 41.696L128.462 41.408ZM122.83 44.464H124.958V48.64H122.83V44.464ZM142.972 36.624H145.116V47.264H142.972V36.624ZM135.244 49.472H145.484V51.168H135.244V49.472ZM135.244 46.192H137.372V50.16H135.244V46.192ZM137.052 37.552C139.324 37.552 141.068 39.12 141.068 41.312C141.068 43.488 139.324 45.072 137.052 45.072C134.78 45.072 133.02 43.488 133.02 41.312C133.02 39.12 134.78 37.552 137.052 37.552ZM137.052 39.392C135.948 39.392 135.1 40.096 135.1 41.312C135.1 42.512 135.948 43.216 137.052 43.216C138.14 43.216 138.988 42.512 138.988 41.312C138.988 40.096 138.14 39.392 137.052 39.392Z" fill="black"/>
<path d="M93.112 67.692C93.416 67.74 93.692 67.864 93.94 68.064C94.196 68.264 94.396 68.512 94.54 68.808C94.692 69.104 94.768 69.42 94.768 69.756C94.768 70.18 94.66 70.564 94.444 70.908C94.228 71.244 93.912 71.512 93.496 71.712C93.088 71.904 92.604 72 92.044 72H88.924V63.636H91.924C92.492 63.636 92.976 63.732 93.376 63.924C93.776 64.108 94.076 64.36 94.276 64.68C94.476 65 94.576 65.36 94.576 65.76C94.576 66.256 94.44 66.668 94.168 66.996C93.904 67.316 93.552 67.548 93.112 67.692ZM90.016 67.248H91.852C92.364 67.248 92.76 67.128 93.04 66.888C93.32 66.648 93.46 66.316 93.46 65.892C93.46 65.468 93.32 65.136 93.04 64.896C92.76 64.656 92.356 64.536 91.828 64.536H90.016V67.248ZM91.948 71.1C92.492 71.1 92.916 70.972 93.22 70.716C93.524 70.46 93.676 70.104 93.676 69.648C93.676 69.184 93.516 68.82 93.196 68.556C92.876 68.284 92.448 68.148 91.912 68.148H90.016V71.1H91.948ZM101.431 63.636V64.524H99.1514V72H98.0594V64.524H95.7674V63.636H101.431ZM102.368 67.812C102.368 66.996 102.552 66.264 102.92 65.616C103.288 64.96 103.788 64.448 104.42 64.08C105.06 63.712 105.768 63.528 106.544 63.528C107.456 63.528 108.252 63.748 108.932 64.188C109.612 64.628 110.108 65.252 110.42 66.06H109.112C108.88 65.556 108.544 65.168 108.104 64.896C107.672 64.624 107.152 64.488 106.544 64.488C105.96 64.488 105.436 64.624 104.972 64.896C104.508 65.168 104.144 65.556 103.88 66.06C103.616 66.556 103.484 67.14 103.484 67.812C103.484 68.476 103.616 69.06 103.88 69.564C104.144 70.06 104.508 70.444 104.972 70.716C105.436 70.988 105.96 71.124 106.544 71.124C107.152 71.124 107.672 70.992 108.104 70.728C108.544 70.456 108.88 70.068 109.112 69.564H110.42C110.108 70.364 109.612 70.984 108.932 71.424C108.252 71.856 107.456 72.072 106.544 72.072C105.768 72.072 105.06 71.892 104.42 71.532C103.788 71.164 103.288 70.656 102.92 70.008C102.552 69.36 102.368 68.628 102.368 67.812ZM116.605 67.14V68.064H111.817V67.14H116.605ZM119.722 63.636V68.928C119.722 69.672 119.902 70.224 120.262 70.584C120.63 70.944 121.138 71.124 121.786 71.124C122.426 71.124 122.926 70.944 123.286 70.584C123.654 70.224 123.838 69.672 123.838 68.928V63.636H124.93V68.916C124.93 69.612 124.79 70.2 124.51 70.68C124.23 71.152 123.85 71.504 123.37 71.736C122.898 71.968 122.366 72.084 121.774 72.084C121.182 72.084 120.646 71.968 120.166 71.736C119.694 71.504 119.318 71.152 119.038 70.68C118.766 70.2 118.63 69.612 118.63 68.916V63.636H119.722ZM129.404 72.084C128.852 72.084 128.356 71.988 127.916 71.796C127.484 71.596 127.144 71.324 126.896 70.98C126.648 70.628 126.52 70.224 126.512 69.768H127.676C127.716 70.16 127.876 70.492 128.156 70.764C128.444 71.028 128.86 71.16 129.404 71.16C129.924 71.16 130.332 71.032 130.628 70.776C130.932 70.512 131.084 70.176 131.084 69.768C131.084 69.448 130.996 69.188 130.82 68.988C130.644 68.788 130.424 68.636 130.16 68.532C129.896 68.428 129.54 68.316 129.092 68.196C128.54 68.052 128.096 67.908 127.76 67.764C127.432 67.62 127.148 67.396 126.908 67.092C126.676 66.78 126.56 66.364 126.56 65.844C126.56 65.388 126.676 64.984 126.908 64.632C127.14 64.28 127.464 64.008 127.88 63.816C128.304 63.624 128.788 63.528 129.332 63.528C130.116 63.528 130.756 63.724 131.252 64.116C131.756 64.508 132.04 65.028 132.104 65.676H130.904C130.864 65.356 130.696 65.076 130.4 64.836C130.104 64.588 129.712 64.464 129.224 64.464C128.768 64.464 128.396 64.584 128.108 64.824C127.82 65.056 127.676 65.384 127.676 65.808C127.676 66.112 127.76 66.36 127.928 66.552C128.104 66.744 128.316 66.892 128.564 66.996C128.82 67.092 129.176 67.204 129.632 67.332C130.184 67.484 130.628 67.636 130.964 67.788C131.3 67.932 131.588 68.16 131.828 68.472C132.068 68.776 132.188 69.192 132.188 69.72C132.188 70.128 132.08 70.512 131.864 70.872C131.648 71.232 131.328 71.524 130.904 71.748C130.48 71.972 129.98 72.084 129.404 72.084ZM136.399 63.636C137.311 63.636 138.099 63.808 138.763 64.152C139.435 64.488 139.947 64.972 140.299 65.604C140.659 66.236 140.839 66.98 140.839 67.836C140.839 68.692 140.659 69.436 140.299 70.068C139.947 70.692 139.435 71.172 138.763 71.508C138.099 71.836 137.311 72 136.399 72H133.795V63.636H136.399ZM136.399 71.1C137.479 71.1 138.303 70.816 138.871 70.248C139.439 69.672 139.723 68.868 139.723 67.836C139.723 66.796 139.435 65.984 138.859 65.4C138.291 64.816 137.471 64.524 136.399 64.524H134.887V71.1H136.399Z" fill="#6B7280"/>
<defs>
<filter id="filter0_d_910_39692" x="0" y="0" width="179" height="108" filterUnits="userSpaceOnUse" color-interpolation-filters="sRGB">
<feFlood flood-opacity="0" result="BackgroundImageFix"/>
<feColorMatrix in="SourceAlpha" type="matrix" values="0 0 0 0 0 0 0 0 0 0 0 0 0 0 0 0 0 0 127 0" result="hardAlpha"/>
<feOffset/>
<feGaussianBlur stdDeviation="6"/>
<feComposite in2="hardAlpha" operator="out"/>
<feColorMatrix type="matrix" values="0 0 0 0 0.475936 0 0 0 0 0.469306 0 0 0 0 0.516667 0 0 0 0.15 0"/>
<feBlend mode="normal" in2="BackgroundImageFix" result="effect1_dropShadow_910_39692"/>
<feBlend mode="normal" in="SourceGraphic" in2="effect1_dropShadow_910_39692" result="shape"/>
</filter>
</defs>
</svg>
