<svg width="152" height="104" viewBox="0 0 152 104" fill="none" xmlns="http://www.w3.org/2000/svg">
<g filter="url(#filter0_d_1054_40576)">
<rect x="12" y="12" width="128" height="80" rx="20" fill="white"/>
</g>
<path d="M41.684 35.66V44H40.316V38.288L37.772 44H36.824L34.268 38.288V44H32.9V35.66H34.376L37.304 42.2L40.22 35.66H41.684ZM43.026 40.664C43.026 40 43.162 39.412 43.434 38.9C43.714 38.388 44.09 37.992 44.562 37.712C45.042 37.424 45.57 37.28 46.146 37.28C46.666 37.28 47.118 37.384 47.502 37.592C47.894 37.792 48.206 38.044 48.438 38.348V37.388H49.818V44H48.438V43.016C48.206 43.328 47.89 43.588 47.49 43.796C47.09 44.004 46.634 44.108 46.122 44.108C45.554 44.108 45.034 43.964 44.562 43.676C44.09 43.38 43.714 42.972 43.434 42.452C43.162 41.924 43.026 41.328 43.026 40.664ZM48.438 40.688C48.438 40.232 48.342 39.836 48.15 39.5C47.966 39.164 47.722 38.908 47.418 38.732C47.114 38.556 46.786 38.468 46.434 38.468C46.082 38.468 45.754 38.556 45.45 38.732C45.146 38.9 44.898 39.152 44.706 39.488C44.522 39.816 44.43 40.208 44.43 40.664C44.43 41.12 44.522 41.52 44.706 41.864C44.898 42.208 45.146 42.472 45.45 42.656C45.762 42.832 46.09 42.92 46.434 42.92C46.786 42.92 47.114 42.832 47.418 42.656C47.722 42.48 47.966 42.224 48.15 41.888C48.342 41.544 48.438 41.144 48.438 40.688ZM54.4468 40.652L56.5828 44H55.0348L53.6068 41.756L52.2628 44H50.8348L52.9708 40.748L50.8348 37.388H52.3828L53.8108 39.632L55.1548 37.388H56.5828L54.4468 40.652ZM58.2991 36.512C58.0511 36.512 57.8431 36.428 57.6751 36.26C57.5071 36.092 57.4231 35.884 57.4231 35.636C57.4231 35.388 57.5071 35.18 57.6751 35.012C57.8431 34.844 58.0511 34.76 58.2991 34.76C58.5391 34.76 58.7431 34.844 58.9111 35.012C59.0791 35.18 59.1631 35.388 59.1631 35.636C59.1631 35.884 59.0791 36.092 58.9111 36.26C58.7431 36.428 58.5391 36.512 58.2991 36.512ZM58.9711 37.388V44H57.6031V37.388H58.9711ZM68.7712 37.28C69.2912 37.28 69.7552 37.388 70.1632 37.604C70.5792 37.82 70.9032 38.14 71.1352 38.564C71.3752 38.988 71.4952 39.5 71.4952 40.1V44H70.1392V40.304C70.1392 39.712 69.9912 39.26 69.6952 38.948C69.3992 38.628 68.9952 38.468 68.4832 38.468C67.9712 38.468 67.5632 38.628 67.2592 38.948C66.9632 39.26 66.8152 39.712 66.8152 40.304V44H65.4592V40.304C65.4592 39.712 65.3112 39.26 65.0152 38.948C64.7192 38.628 64.3152 38.468 63.8032 38.468C63.2912 38.468 62.8832 38.628 62.5792 38.948C62.2832 39.26 62.1352 39.712 62.1352 40.304V44H60.7672V37.388H62.1352V38.144C62.3592 37.872 62.6432 37.66 62.9872 37.508C63.3312 37.356 63.6992 37.28 64.0912 37.28C64.6192 37.28 65.0912 37.392 65.5072 37.616C65.9232 37.84 66.2432 38.164 66.4672 38.588C66.6672 38.188 66.9792 37.872 67.4032 37.64C67.8272 37.4 68.2832 37.28 68.7712 37.28ZM79.2239 37.388V44H77.8559V43.22C77.6399 43.492 77.3559 43.708 77.0039 43.868C76.6599 44.02 76.2919 44.096 75.8999 44.096C75.3799 44.096 74.9119 43.988 74.4959 43.772C74.0879 43.556 73.7639 43.236 73.5239 42.812C73.2919 42.388 73.1759 41.876 73.1759 41.276V37.388H74.5319V41.072C74.5319 41.664 74.6799 42.12 74.9759 42.44C75.2719 42.752 75.6759 42.908 76.1879 42.908C76.6999 42.908 77.1039 42.752 77.3999 42.44C77.7039 42.12 77.8559 41.664 77.8559 41.072V37.388H79.2239ZM89.0329 37.28C89.5529 37.28 90.0169 37.388 90.4249 37.604C90.8409 37.82 91.1649 38.14 91.3969 38.564C91.6369 38.988 91.7569 39.5 91.7569 40.1V44H90.4009V40.304C90.4009 39.712 90.2529 39.26 89.9569 38.948C89.6609 38.628 89.2569 38.468 88.7449 38.468C88.2329 38.468 87.8249 38.628 87.5209 38.948C87.2249 39.26 87.0769 39.712 87.0769 40.304V44H85.7209V40.304C85.7209 39.712 85.5729 39.26 85.2769 38.948C84.9809 38.628 84.5769 38.468 84.0649 38.468C83.5529 38.468 83.1449 38.628 82.8409 38.948C82.5449 39.26 82.3969 39.712 82.3969 40.304V44H81.0289V37.388H82.3969V38.144C82.6209 37.872 82.9049 37.66 83.2489 37.508C83.5929 37.356 83.9609 37.28 84.3529 37.28C84.8809 37.28 85.3529 37.392 85.7689 37.616C86.1849 37.84 86.5049 38.164 86.7289 38.588C86.9289 38.188 87.2409 37.872 87.6649 37.64C88.0889 37.4 88.5449 37.28 89.0329 37.28ZM97.9828 35.12V44H96.6148V35.12H97.9828ZM102.647 44.108C102.023 44.108 101.459 43.968 100.955 43.688C100.451 43.4 100.055 43 99.7669 42.488C99.4789 41.968 99.3349 41.368 99.3349 40.688C99.3349 40.016 99.4829 39.42 99.7789 38.9C100.075 38.38 100.479 37.98 100.991 37.7C101.503 37.42 102.075 37.28 102.707 37.28C103.339 37.28 103.911 37.42 104.423 37.7C104.935 37.98 105.339 38.38 105.635 38.9C105.931 39.42 106.079 40.016 106.079 40.688C106.079 41.36 105.927 41.956 105.623 42.476C105.319 42.996 104.903 43.4 104.375 43.688C103.855 43.968 103.279 44.108 102.647 44.108ZM102.647 42.92C102.999 42.92 103.327 42.836 103.631 42.668C103.943 42.5 104.195 42.248 104.387 41.912C104.579 41.576 104.675 41.168 104.675 40.688C104.675 40.208 104.583 39.804 104.399 39.476C104.215 39.14 103.971 38.888 103.667 38.72C103.363 38.552 103.035 38.468 102.683 38.468C102.331 38.468 102.003 38.552 101.699 38.72C101.403 38.888 101.167 39.14 100.991 39.476C100.815 39.804 100.727 40.208 100.727 40.688C100.727 41.4 100.907 41.952 101.267 42.344C101.635 42.728 102.095 42.92 102.647 42.92ZM109.831 44.108C109.311 44.108 108.843 44.016 108.427 43.832C108.019 43.64 107.695 43.384 107.455 43.064C107.215 42.736 107.087 42.372 107.071 41.972H108.487C108.511 42.252 108.643 42.488 108.883 42.68C109.131 42.864 109.439 42.956 109.807 42.956C110.191 42.956 110.487 42.884 110.695 42.74C110.911 42.588 111.019 42.396 111.019 42.164C111.019 41.916 110.899 41.732 110.659 41.612C110.427 41.492 110.055 41.36 109.543 41.216C109.047 41.08 108.643 40.948 108.331 40.82C108.019 40.692 107.747 40.496 107.515 40.232C107.291 39.968 107.179 39.62 107.179 39.188C107.179 38.836 107.283 38.516 107.491 38.228C107.699 37.932 107.995 37.7 108.379 37.532C108.771 37.364 109.219 37.28 109.723 37.28C110.475 37.28 111.079 37.472 111.535 37.856C111.999 38.232 112.247 38.748 112.279 39.404H110.911C110.887 39.108 110.767 38.872 110.551 38.696C110.335 38.52 110.043 38.432 109.675 38.432C109.315 38.432 109.039 38.5 108.847 38.636C108.655 38.772 108.559 38.952 108.559 39.176C108.559 39.352 108.623 39.5 108.751 39.62C108.879 39.74 109.035 39.836 109.219 39.908C109.403 39.972 109.675 40.056 110.035 40.16C110.515 40.288 110.907 40.42 111.211 40.556C111.523 40.684 111.791 40.876 112.015 41.132C112.239 41.388 112.355 41.728 112.363 42.152C112.363 42.528 112.259 42.864 112.051 43.16C111.843 43.456 111.547 43.688 111.163 43.856C110.787 44.024 110.343 44.108 109.831 44.108ZM116.241 44.108C115.721 44.108 115.253 44.016 114.837 43.832C114.429 43.64 114.105 43.384 113.865 43.064C113.625 42.736 113.497 42.372 113.481 41.972H114.897C114.921 42.252 115.053 42.488 115.293 42.68C115.541 42.864 115.849 42.956 116.217 42.956C116.601 42.956 116.897 42.884 117.105 42.74C117.321 42.588 117.429 42.396 117.429 42.164C117.429 41.916 117.309 41.732 117.069 41.612C116.837 41.492 116.465 41.36 115.953 41.216C115.457 41.08 115.053 40.948 114.741 40.82C114.429 40.692 114.157 40.496 113.925 40.232C113.701 39.968 113.589 39.62 113.589 39.188C113.589 38.836 113.693 38.516 113.901 38.228C114.109 37.932 114.405 37.7 114.789 37.532C115.181 37.364 115.629 37.28 116.133 37.28C116.885 37.28 117.489 37.472 117.945 37.856C118.409 38.232 118.657 38.748 118.689 39.404H117.321C117.297 39.108 117.177 38.872 116.961 38.696C116.745 38.52 116.453 38.432 116.085 38.432C115.725 38.432 115.449 38.5 115.257 38.636C115.065 38.772 114.969 38.952 114.969 39.176C114.969 39.352 115.033 39.5 115.161 39.62C115.289 39.74 115.445 39.836 115.629 39.908C115.813 39.972 116.085 40.056 116.445 40.16C116.925 40.288 117.317 40.42 117.621 40.556C117.933 40.684 118.201 40.876 118.425 41.132C118.649 41.388 118.765 41.728 118.773 42.152C118.773 42.528 118.669 42.864 118.461 43.16C118.253 43.456 117.957 43.688 117.573 43.856C117.197 44.024 116.753 44.108 116.241 44.108Z" fill="#9CA3AF"/>
<path d="M39.92 63.344V65.232H33.136V63.344H39.92ZM44.1281 63.824C43.0615 63.2693 42.5281 62.4107 42.5281 61.248C42.5281 60.672 42.6721 60.1493 42.9601 59.68C43.2588 59.2 43.7015 58.8213 44.2881 58.544C44.8855 58.256 45.6108 58.112 46.4641 58.112C47.3175 58.112 48.0375 58.256 48.6241 58.544C49.2215 58.8213 49.6641 59.2 49.9521 59.68C50.2508 60.1493 50.4001 60.672 50.4001 61.248C50.4001 61.8347 50.2561 62.352 49.9681 62.8C49.6801 63.2373 49.2961 63.5787 48.8161 63.824C49.4028 64.08 49.8615 64.4533 50.1921 64.944C50.5228 65.4347 50.6881 66.016 50.6881 66.688C50.6881 67.4133 50.5015 68.048 50.1281 68.592C49.7655 69.1253 49.2641 69.536 48.6241 69.824C47.9841 70.112 47.2641 70.256 46.4641 70.256C45.6641 70.256 44.9441 70.112 44.3041 69.824C43.6748 69.536 43.1735 69.1253 42.8001 68.592C42.4375 68.048 42.2561 67.4133 42.2561 66.688C42.2561 66.016 42.4215 65.4347 42.7521 64.944C43.0828 64.4427 43.5415 64.0693 44.1281 63.824ZM48.2241 61.568C48.2241 61.0453 48.0641 60.64 47.7441 60.352C47.4348 60.064 47.0081 59.92 46.4641 59.92C45.9308 59.92 45.5041 60.064 45.1841 60.352C44.8748 60.64 44.7201 61.0507 44.7201 61.584C44.7201 62.064 44.8801 62.448 45.2001 62.736C45.5308 63.024 45.9521 63.168 46.4641 63.168C46.9761 63.168 47.3975 63.024 47.7281 62.736C48.0588 62.4373 48.2241 62.048 48.2241 61.568ZM46.4641 64.8C45.8561 64.8 45.3601 64.9547 44.9761 65.264C44.6028 65.5733 44.4161 66.016 44.4161 66.592C44.4161 67.1253 44.5975 67.5627 44.9601 67.904C45.3335 68.2347 45.8348 68.4 46.4641 68.4C47.0935 68.4 47.5895 68.2293 47.9521 67.888C48.3148 67.5467 48.4961 67.1147 48.4961 66.592C48.4961 66.0267 48.3095 65.5893 47.9361 65.28C47.5628 64.96 47.0721 64.8 46.4641 64.8ZM60.2974 60.272H55.1134V63.008C55.3374 62.7307 55.6574 62.5067 56.0734 62.336C56.4894 62.1547 56.932 62.064 57.4014 62.064C58.2547 62.064 58.9534 62.2507 59.4974 62.624C60.0414 62.9973 60.436 63.4773 60.6814 64.064C60.9267 64.64 61.0494 65.2587 61.0494 65.92C61.0494 67.1467 60.6974 68.1333 59.9934 68.88C59.3 69.6267 58.308 70 57.0174 70C55.8014 70 54.8307 69.696 54.1054 69.088C53.38 68.48 52.9694 67.6853 52.8734 66.704H55.0494C55.1454 67.1307 55.3587 67.472 55.6894 67.728C56.0307 67.984 56.4627 68.112 56.9854 68.112C57.6147 68.112 58.0894 67.9147 58.4094 67.52C58.7294 67.1253 58.8894 66.6027 58.8894 65.952C58.8894 65.2907 58.724 64.7893 58.3934 64.448C58.0734 64.096 57.5987 63.92 56.9694 63.92C56.5214 63.92 56.148 64.032 55.8494 64.256C55.5507 64.48 55.3374 64.7787 55.2094 65.152H53.0654V58.304H60.2974V60.272ZM64.0023 70.112C63.5969 70.112 63.2609 69.9893 62.9943 69.744C62.7383 69.488 62.6103 69.1733 62.6103 68.8C62.6103 68.4267 62.7383 68.1173 62.9943 67.872C63.2609 67.616 63.5969 67.488 64.0023 67.488C64.3969 67.488 64.7223 67.616 64.9783 67.872C65.2343 68.1173 65.3623 68.4267 65.3623 68.8C65.3623 69.1733 65.2343 69.488 64.9783 69.744C64.7223 69.9893 64.3969 70.112 64.0023 70.112ZM66.9425 61.408C66.9958 60.3413 67.3692 59.52 68.0625 58.944C68.7665 58.3573 69.6892 58.064 70.8305 58.064C71.6092 58.064 72.2758 58.2027 72.8305 58.48C73.3852 58.7467 73.8012 59.1147 74.0785 59.584C74.3665 60.0427 74.5105 60.5653 74.5105 61.152C74.5105 61.824 74.3345 62.3947 73.9825 62.864C73.6412 63.3227 73.2305 63.632 72.7505 63.792V63.856C73.3692 64.048 73.8492 64.3893 74.1905 64.88C74.5425 65.3707 74.7185 66 74.7185 66.768C74.7185 67.408 74.5692 67.9787 74.2705 68.48C73.9825 68.9813 73.5505 69.376 72.9745 69.664C72.4092 69.9413 71.7265 70.08 70.9265 70.08C69.7212 70.08 68.7398 69.776 67.9825 69.168C67.2252 68.56 66.8252 67.664 66.7825 66.48H68.9585C68.9798 67.0027 69.1558 67.424 69.4865 67.744C69.8278 68.0533 70.2918 68.208 70.8785 68.208C71.4225 68.208 71.8385 68.0587 72.1265 67.76C72.4252 67.4507 72.5745 67.056 72.5745 66.576C72.5745 65.936 72.3718 65.4773 71.9665 65.2C71.5612 64.9227 70.9318 64.784 70.0785 64.784H69.6145V62.944H70.0785C71.5932 62.944 72.3505 62.4373 72.3505 61.424C72.3505 60.9653 72.2118 60.608 71.9345 60.352C71.6678 60.096 71.2785 59.968 70.7665 59.968C70.2652 59.968 69.8758 60.1067 69.5985 60.384C69.3318 60.6507 69.1772 60.992 69.1345 61.408H66.9425ZM76.2326 61.2C76.2326 60.3893 76.4673 59.7547 76.9366 59.296C77.4166 58.8373 78.03 58.608 78.7766 58.608C79.5233 58.608 80.1313 58.8373 80.6006 59.296C81.0806 59.7547 81.3206 60.3893 81.3206 61.2C81.3206 62.0213 81.0806 62.6613 80.6006 63.12C80.1313 63.5787 79.5233 63.808 78.7766 63.808C78.03 63.808 77.4166 63.5787 76.9366 63.12C76.4673 62.6613 76.2326 62.0213 76.2326 61.2ZM86.5046 58.8L80.2166 70H78.0406L84.3126 58.8H86.5046ZM78.7606 59.952C78.174 59.952 77.8806 60.368 77.8806 61.2C77.8806 62.0427 78.174 62.464 78.7606 62.464C79.0486 62.464 79.2726 62.3627 79.4326 62.16C79.5926 61.9467 79.6726 61.6267 79.6726 61.2C79.6726 60.368 79.3686 59.952 78.7606 59.952ZM83.2566 67.584C83.2566 66.7627 83.4913 66.128 83.9606 65.68C84.4406 65.2213 85.054 64.992 85.8006 64.992C86.5473 64.992 87.15 65.2213 87.6086 65.68C88.078 66.128 88.3126 66.7627 88.3126 67.584C88.3126 68.4053 88.078 69.0453 87.6086 69.504C87.15 69.9627 86.5473 70.192 85.8006 70.192C85.0433 70.192 84.43 69.9627 83.9606 69.504C83.4913 69.0453 83.2566 68.4053 83.2566 67.584ZM85.7846 66.336C85.1766 66.336 84.8726 66.752 84.8726 67.584C84.8726 68.4267 85.1766 68.848 85.7846 68.848C86.382 68.848 86.6806 68.4267 86.6806 67.584C86.6806 66.752 86.382 66.336 85.7846 66.336Z" fill="#DF1525"/>
<defs>
<filter id="filter0_d_1054_40576" x="0" y="0" width="152" height="104" filterUnits="userSpaceOnUse" color-interpolation-filters="sRGB">
<feFlood flood-opacity="0" result="BackgroundImageFix"/>
<feColorMatrix in="SourceAlpha" type="matrix" values="0 0 0 0 0 0 0 0 0 0 0 0 0 0 0 0 0 0 127 0" result="hardAlpha"/>
<feOffset/>
<feGaussianBlur stdDeviation="6"/>
<feComposite in2="hardAlpha" operator="out"/>
<feColorMatrix type="matrix" values="0 0 0 0 0.475936 0 0 0 0 0.469306 0 0 0 0 0.516667 0 0 0 0.15 0"/>
<feBlend mode="normal" in2="BackgroundImageFix" result="effect1_dropShadow_1054_40576"/>
<feBlend mode="normal" in="SourceGraphic" in2="effect1_dropShadow_1054_40576" result="shape"/>
</filter>
</defs>
</svg>
