<svg width="146" height="104" viewBox="0 0 146 104" fill="none" xmlns="http://www.w3.org/2000/svg">
<g filter="url(#filter0_d_910_39688)">
<rect x="6" y="12" width="128" height="80" rx="20" fill="white"/>
</g>
<path d="M29.696 39.824H30.704V42.176H29.696V39.824ZM29.696 36.008H30.5V36.248C30.5 38.144 29.264 39.608 27.44 40.184L26.984 39.404C28.592 38.924 29.696 37.712 29.696 36.248V36.008ZM29.888 36.008H30.692V36.248C30.692 37.652 31.832 38.828 33.428 39.296L32.972 40.064C31.148 39.524 29.888 38.084 29.888 36.248V36.008ZM27.236 35.504H33.2V36.308H27.236V35.504ZM29.696 34.16H30.704V35.852H29.696V34.16ZM34.436 34.076H35.432V44.948H34.436V34.076ZM26.792 42.716L26.648 41.876C28.628 41.876 31.364 41.864 33.728 41.504L33.812 42.236C31.376 42.692 28.724 42.704 26.792 42.716ZM40.6631 34.724C42.2951 34.724 43.4951 35.78 43.4951 37.304C43.4951 38.816 42.2951 39.86 40.6631 39.86C39.0311 39.86 37.8311 38.816 37.8311 37.304C37.8311 35.78 39.0311 34.724 40.6631 34.724ZM40.6631 35.576C39.5831 35.576 38.8031 36.272 38.8031 37.304C38.8031 38.324 39.5831 39.032 40.6631 39.032C41.7431 39.032 42.5231 38.324 42.5231 37.304C42.5231 36.272 41.7431 35.576 40.6631 35.576ZM45.0551 34.088H46.0511V40.472H45.0551V34.088ZM45.7751 36.872H47.6591V37.712H45.7751V36.872ZM39.0071 41.036H46.0511V44.948H45.0551V41.84H39.0071V41.036ZM52.1941 34.868C53.8861 34.868 55.0981 35.912 55.0981 37.424C55.0981 38.948 53.8861 39.992 52.1941 39.992C50.5021 39.992 49.2781 38.948 49.2781 37.424C49.2781 35.912 50.5021 34.868 52.1941 34.868ZM52.1941 35.732C51.0661 35.732 50.2501 36.416 50.2501 37.424C50.2501 38.432 51.0661 39.128 52.1941 39.128C53.3101 39.128 54.1261 38.432 54.1261 37.424C54.1261 36.416 53.3101 35.732 52.1941 35.732ZM56.5141 34.076H57.5101V44.948H56.5141V34.076ZM48.8701 42.572L48.7261 41.744C50.7061 41.744 53.4421 41.732 55.8061 41.36L55.8901 42.092C53.4541 42.56 50.8021 42.572 48.8701 42.572ZM68.0184 36.08H70.9224V36.896H68.0184V36.08ZM67.9224 38.336H70.8504V39.152H67.9224V38.336ZM70.7544 34.088H71.7504V40.592H70.7544V34.088ZM67.3584 34.904H68.4264C68.4264 37.7 66.4944 39.656 63.3744 40.592L62.9664 39.788C65.7384 38.984 67.3584 37.388 67.3584 35.336V34.904ZM63.5304 34.904H68.0424V35.72H63.5304V34.904ZM68.2224 40.712C70.4184 40.712 71.8104 41.492 71.8104 42.8C71.8104 44.108 70.4184 44.888 68.2224 44.888C66.0264 44.888 64.6344 44.108 64.6344 42.8C64.6344 41.492 66.0264 40.712 68.2224 40.712ZM68.2224 41.492C66.6384 41.492 65.6184 41.984 65.6184 42.8C65.6184 43.616 66.6384 44.096 68.2224 44.096C69.8184 44.096 70.8384 43.616 70.8384 42.8C70.8384 41.984 69.8184 41.492 68.2224 41.492ZM73.8614 40.304H83.7014V41.12H73.8614V40.304ZM78.2534 40.808H79.2374V44.936H78.2534V40.808ZM78.7574 34.52C81.0254 34.52 82.5494 35.444 82.5494 36.896C82.5494 38.348 81.0254 39.272 78.7574 39.272C76.5014 39.272 74.9654 38.348 74.9654 36.896C74.9654 35.444 76.5014 34.52 78.7574 34.52ZM78.7574 35.324C77.1014 35.324 75.9734 35.936 75.9734 36.896C75.9734 37.856 77.1014 38.468 78.7574 38.468C80.4134 38.468 81.5294 37.856 81.5294 36.896C81.5294 35.936 80.4134 35.324 78.7574 35.324Z" fill="#9CA3AF"/>
<path d="M33.92 63.344V65.232H27.136V63.344H33.92ZM38.1281 63.824C37.0615 63.2693 36.5281 62.4107 36.5281 61.248C36.5281 60.672 36.6721 60.1493 36.9601 59.68C37.2588 59.2 37.7015 58.8213 38.2881 58.544C38.8855 58.256 39.6108 58.112 40.4641 58.112C41.3175 58.112 42.0375 58.256 42.6241 58.544C43.2215 58.8213 43.6641 59.2 43.9521 59.68C44.2508 60.1493 44.4001 60.672 44.4001 61.248C44.4001 61.8347 44.2561 62.352 43.9681 62.8C43.6801 63.2373 43.2961 63.5787 42.8161 63.824C43.4028 64.08 43.8615 64.4533 44.1921 64.944C44.5228 65.4347 44.6881 66.016 44.6881 66.688C44.6881 67.4133 44.5015 68.048 44.1281 68.592C43.7655 69.1253 43.2641 69.536 42.6241 69.824C41.9841 70.112 41.2641 70.256 40.4641 70.256C39.6641 70.256 38.9441 70.112 38.3041 69.824C37.6748 69.536 37.1735 69.1253 36.8001 68.592C36.4375 68.048 36.2561 67.4133 36.2561 66.688C36.2561 66.016 36.4215 65.4347 36.7521 64.944C37.0828 64.4427 37.5415 64.0693 38.1281 63.824ZM42.2241 61.568C42.2241 61.0453 42.0641 60.64 41.7441 60.352C41.4348 60.064 41.0081 59.92 40.4641 59.92C39.9308 59.92 39.5041 60.064 39.1841 60.352C38.8748 60.64 38.7201 61.0507 38.7201 61.584C38.7201 62.064 38.8801 62.448 39.2001 62.736C39.5308 63.024 39.9521 63.168 40.4641 63.168C40.9761 63.168 41.3975 63.024 41.7281 62.736C42.0588 62.4373 42.2241 62.048 42.2241 61.568ZM40.4641 64.8C39.8561 64.8 39.3601 64.9547 38.9761 65.264C38.6028 65.5733 38.4161 66.016 38.4161 66.592C38.4161 67.1253 38.5975 67.5627 38.9601 67.904C39.3335 68.2347 39.8348 68.4 40.4641 68.4C41.0935 68.4 41.5895 68.2293 41.9521 67.888C42.3148 67.5467 42.4961 67.1147 42.4961 66.592C42.4961 66.0267 42.3095 65.5893 41.9361 65.28C41.5628 64.96 41.0721 64.8 40.4641 64.8ZM54.2974 60.272H49.1134V63.008C49.3374 62.7307 49.6574 62.5067 50.0734 62.336C50.4894 62.1547 50.932 62.064 51.4014 62.064C52.2547 62.064 52.9534 62.2507 53.4974 62.624C54.0414 62.9973 54.436 63.4773 54.6814 64.064C54.9267 64.64 55.0494 65.2587 55.0494 65.92C55.0494 67.1467 54.6974 68.1333 53.9934 68.88C53.3 69.6267 52.308 70 51.0174 70C49.8014 70 48.8307 69.696 48.1054 69.088C47.38 68.48 46.9694 67.6853 46.8734 66.704H49.0494C49.1454 67.1307 49.3587 67.472 49.6894 67.728C50.0307 67.984 50.4627 68.112 50.9854 68.112C51.6147 68.112 52.0894 67.9147 52.4094 67.52C52.7294 67.1253 52.8894 66.6027 52.8894 65.952C52.8894 65.2907 52.724 64.7893 52.3934 64.448C52.0734 64.096 51.5987 63.92 50.9694 63.92C50.5214 63.92 50.148 64.032 49.8494 64.256C49.5507 64.48 49.3374 64.7787 49.2094 65.152H47.0654V58.304H54.2974V60.272ZM58.0023 70.112C57.5969 70.112 57.2609 69.9893 56.9943 69.744C56.7383 69.488 56.6103 69.1733 56.6103 68.8C56.6103 68.4267 56.7383 68.1173 56.9943 67.872C57.2609 67.616 57.5969 67.488 58.0023 67.488C58.3969 67.488 58.7223 67.616 58.9783 67.872C59.2343 68.1173 59.3623 68.4267 59.3623 68.8C59.3623 69.1733 59.2343 69.488 58.9783 69.744C58.7223 69.9893 58.3969 70.112 58.0023 70.112ZM60.9425 61.408C60.9958 60.3413 61.3692 59.52 62.0625 58.944C62.7665 58.3573 63.6892 58.064 64.8305 58.064C65.6092 58.064 66.2758 58.2027 66.8305 58.48C67.3852 58.7467 67.8012 59.1147 68.0785 59.584C68.3665 60.0427 68.5105 60.5653 68.5105 61.152C68.5105 61.824 68.3345 62.3947 67.9825 62.864C67.6412 63.3227 67.2305 63.632 66.7505 63.792V63.856C67.3692 64.048 67.8492 64.3893 68.1905 64.88C68.5425 65.3707 68.7185 66 68.7185 66.768C68.7185 67.408 68.5692 67.9787 68.2705 68.48C67.9825 68.9813 67.5505 69.376 66.9745 69.664C66.4092 69.9413 65.7265 70.08 64.9265 70.08C63.7212 70.08 62.7398 69.776 61.9825 69.168C61.2252 68.56 60.8252 67.664 60.7825 66.48H62.9585C62.9798 67.0027 63.1558 67.424 63.4865 67.744C63.8278 68.0533 64.2918 68.208 64.8785 68.208C65.4225 68.208 65.8385 68.0587 66.1265 67.76C66.4252 67.4507 66.5745 67.056 66.5745 66.576C66.5745 65.936 66.3718 65.4773 65.9665 65.2C65.5612 64.9227 64.9318 64.784 64.0785 64.784H63.6145V62.944H64.0785C65.5932 62.944 66.3505 62.4373 66.3505 61.424C66.3505 60.9653 66.2118 60.608 65.9345 60.352C65.6678 60.096 65.2785 59.968 64.7665 59.968C64.2652 59.968 63.8758 60.1067 63.5985 60.384C63.3318 60.6507 63.1772 60.992 63.1345 61.408H60.9425ZM70.2326 61.2C70.2326 60.3893 70.4673 59.7547 70.9366 59.296C71.4166 58.8373 72.03 58.608 72.7766 58.608C73.5233 58.608 74.1313 58.8373 74.6006 59.296C75.0806 59.7547 75.3206 60.3893 75.3206 61.2C75.3206 62.0213 75.0806 62.6613 74.6006 63.12C74.1313 63.5787 73.5233 63.808 72.7766 63.808C72.03 63.808 71.4166 63.5787 70.9366 63.12C70.4673 62.6613 70.2326 62.0213 70.2326 61.2ZM80.5046 58.8L74.2166 70H72.0406L78.3126 58.8H80.5046ZM72.7606 59.952C72.174 59.952 71.8806 60.368 71.8806 61.2C71.8806 62.0427 72.174 62.464 72.7606 62.464C73.0486 62.464 73.2726 62.3627 73.4326 62.16C73.5926 61.9467 73.6726 61.6267 73.6726 61.2C73.6726 60.368 73.3686 59.952 72.7606 59.952ZM77.2566 67.584C77.2566 66.7627 77.4913 66.128 77.9606 65.68C78.4406 65.2213 79.054 64.992 79.8006 64.992C80.5473 64.992 81.15 65.2213 81.6086 65.68C82.078 66.128 82.3126 66.7627 82.3126 67.584C82.3126 68.4053 82.078 69.0453 81.6086 69.504C81.15 69.9627 80.5473 70.192 79.8006 70.192C79.0433 70.192 78.43 69.9627 77.9606 69.504C77.4913 69.0453 77.2566 68.4053 77.2566 67.584ZM79.7846 66.336C79.1766 66.336 78.8726 66.752 78.8726 67.584C78.8726 68.4267 79.1766 68.848 79.7846 68.848C80.382 68.848 80.6806 68.4267 80.6806 67.584C80.6806 66.752 80.382 66.336 79.7846 66.336Z" fill="#DF1525"/>
<defs>
<filter id="filter0_d_910_39688" x="-6" y="0" width="152" height="104" filterUnits="userSpaceOnUse" color-interpolation-filters="sRGB">
<feFlood flood-opacity="0" result="BackgroundImageFix"/>
<feColorMatrix in="SourceAlpha" type="matrix" values="0 0 0 0 0 0 0 0 0 0 0 0 0 0 0 0 0 0 127 0" result="hardAlpha"/>
<feOffset/>
<feGaussianBlur stdDeviation="6"/>
<feComposite in2="hardAlpha" operator="out"/>
<feColorMatrix type="matrix" values="0 0 0 0 0.475936 0 0 0 0 0.469306 0 0 0 0 0.516667 0 0 0 0.15 0"/>
<feBlend mode="normal" in2="BackgroundImageFix" result="effect1_dropShadow_910_39688"/>
<feBlend mode="normal" in="SourceGraphic" in2="effect1_dropShadow_910_39688" result="shape"/>
</filter>
</defs>
</svg>
