<svg width="359" height="676" viewBox="0 0 359 676" fill="none" xmlns="http://www.w3.org/2000/svg">
<g filter="url(#filter0_d_1631_43852)">
<rect x="12" y="12" width="335" height="628" rx="20" fill="white"/>
</g>
<path d="M32.588 171.704H42.392V172.508H32.588V171.704ZM37.004 170.372H37.988V172.076H37.004V170.372ZM37.004 166.052H37.988V167.564H37.004V166.052ZM36.956 167.66H37.832V167.84C37.832 169.616 35.84 170.648 33.464 170.888L33.164 170.12C35.264 169.94 36.956 169.076 36.956 167.84V167.66ZM37.16 167.66H38.036V167.84C38.036 169.076 39.728 169.94 41.828 170.12L41.528 170.888C39.152 170.648 37.16 169.616 37.16 167.84V167.66ZM33.596 167.144H41.396V167.936H33.596V167.144ZM37.484 173.324C39.824 173.324 41.204 173.96 41.204 175.124C41.204 176.288 39.824 176.912 37.484 176.912C35.144 176.912 33.764 176.288 33.764 175.124C33.764 173.96 35.144 173.324 37.484 173.324ZM37.484 174.08C35.768 174.08 34.772 174.44 34.772 175.124C34.772 175.784 35.768 176.156 37.484 176.156C39.2 176.156 40.196 175.784 40.196 175.124C40.196 174.44 39.2 174.08 37.484 174.08ZM49.4323 167.636H50.2243V169.4C50.2243 171.656 48.8443 173.984 47.1523 174.848L46.5763 174.056C48.1243 173.3 49.4323 171.236 49.4323 169.4V167.636ZM49.6123 167.636H50.4043V169.4C50.4043 171.116 51.6283 173.048 53.2003 173.792L52.6363 174.584C50.9203 173.732 49.6123 171.548 49.6123 169.4V167.636ZM46.9603 167.192H52.8043V168.032H46.9603V167.192ZM54.0883 166.088H55.0963V176.936H54.0883V166.088ZM54.8563 170.468H56.8723V171.308H54.8563V170.468ZM60.4593 166.748H61.2753V168.08C61.2753 170.204 60.0993 171.896 58.2753 172.604L57.7473 171.812C59.4033 171.224 60.4593 169.76 60.4593 168.08V166.748ZM60.6273 166.748H61.4433V168.116C61.4433 169.592 62.5233 170.984 64.1073 171.548L63.6153 172.328C61.8273 171.68 60.6273 170.024 60.6273 168.116V166.748ZM65.2113 166.076H66.2073V174.092H65.2113V166.076ZM65.8953 169.412H67.8153V170.24H65.8953V169.412ZM59.4753 175.88H66.6873V176.696H59.4753V175.88ZM59.4753 173.336H60.4713V176.276H59.4753V173.336Z" fill="#6B7280"/>
<path d="M173.328 176.208C174.864 174.928 176.088 173.864 177 173.016C177.912 172.152 178.672 171.256 179.28 170.328C179.888 169.4 180.192 168.488 180.192 167.592C180.192 166.776 180 166.136 179.616 165.672C179.232 165.208 178.64 164.976 177.84 164.976C177.04 164.976 176.424 165.248 175.992 165.792C175.56 166.32 175.336 167.048 175.32 167.976H172.056C172.12 166.056 172.688 164.6 173.76 163.608C174.848 162.616 176.224 162.12 177.888 162.12C179.712 162.12 181.112 162.608 182.088 163.584C183.064 164.544 183.552 165.816 183.552 167.4C183.552 168.648 183.216 169.84 182.544 170.976C181.872 172.112 181.104 173.104 180.24 173.952C179.376 174.784 178.248 175.792 176.856 176.976H183.936V179.76H172.08V177.264L173.328 176.208ZM188.981 170.736C187.381 169.904 186.581 168.616 186.581 166.872C186.581 166.008 186.797 165.224 187.229 164.52C187.677 163.8 188.341 163.232 189.221 162.816C190.117 162.384 191.205 162.168 192.485 162.168C193.765 162.168 194.845 162.384 195.725 162.816C196.621 163.232 197.285 163.8 197.717 164.52C198.165 165.224 198.389 166.008 198.389 166.872C198.389 167.752 198.173 168.528 197.741 169.2C197.309 169.856 196.733 170.368 196.013 170.736C196.893 171.12 197.581 171.68 198.077 172.416C198.573 173.152 198.821 174.024 198.821 175.032C198.821 176.12 198.541 177.072 197.981 177.888C197.437 178.688 196.685 179.304 195.725 179.736C194.765 180.168 193.685 180.384 192.485 180.384C191.285 180.384 190.205 180.168 189.245 179.736C188.301 179.304 187.549 178.688 186.989 177.888C186.445 177.072 186.173 176.12 186.173 175.032C186.173 174.024 186.421 173.152 186.917 172.416C187.413 171.664 188.101 171.104 188.981 170.736ZM195.125 167.352C195.125 166.568 194.885 165.96 194.405 165.528C193.941 165.096 193.301 164.88 192.485 164.88C191.685 164.88 191.045 165.096 190.565 165.528C190.101 165.96 189.869 166.576 189.869 167.376C189.869 168.096 190.109 168.672 190.589 169.104C191.085 169.536 191.717 169.752 192.485 169.752C193.253 169.752 193.885 169.536 194.381 169.104C194.877 168.656 195.125 168.072 195.125 167.352ZM192.485 172.2C191.573 172.2 190.829 172.432 190.253 172.896C189.693 173.36 189.413 174.024 189.413 174.888C189.413 175.688 189.685 176.344 190.229 176.856C190.789 177.352 191.541 177.6 192.485 177.6C193.429 177.6 194.173 177.344 194.717 176.832C195.261 176.32 195.533 175.672 195.533 174.888C195.533 174.04 195.253 173.384 194.693 172.92C194.133 172.44 193.397 172.2 192.485 172.2ZM205.531 176.472L202.723 183.216H200.563L202.123 176.472H205.531ZM207.569 171.024C207.569 168.256 208.065 166.088 209.057 164.52C210.065 162.952 211.729 162.168 214.049 162.168C216.369 162.168 218.025 162.952 219.017 164.52C220.025 166.088 220.529 168.256 220.529 171.024C220.529 173.808 220.025 175.992 219.017 177.576C218.025 179.16 216.369 179.952 214.049 179.952C211.729 179.952 210.065 179.16 209.057 177.576C208.065 175.992 207.569 173.808 207.569 171.024ZM217.217 171.024C217.217 169.84 217.137 168.848 216.977 168.048C216.833 167.232 216.529 166.568 216.065 166.056C215.617 165.544 214.945 165.288 214.049 165.288C213.153 165.288 212.473 165.544 212.009 166.056C211.561 166.568 211.257 167.232 211.097 168.048C210.953 168.848 210.881 169.84 210.881 171.024C210.881 172.24 210.953 173.264 211.097 174.096C211.241 174.912 211.545 175.576 212.009 176.088C212.473 176.584 213.153 176.832 214.049 176.832C214.945 176.832 215.625 176.584 216.089 176.088C216.553 175.576 216.857 174.912 217.001 174.096C217.145 173.264 217.217 172.24 217.217 171.024ZM223.085 171.024C223.085 168.256 223.581 166.088 224.573 164.52C225.581 162.952 227.245 162.168 229.565 162.168C231.885 162.168 233.541 162.952 234.533 164.52C235.541 166.088 236.045 168.256 236.045 171.024C236.045 173.808 235.541 175.992 234.533 177.576C233.541 179.16 231.885 179.952 229.565 179.952C227.245 179.952 225.581 179.16 224.573 177.576C223.581 175.992 223.085 173.808 223.085 171.024ZM232.733 171.024C232.733 169.84 232.653 168.848 232.493 168.048C232.349 167.232 232.045 166.568 231.581 166.056C231.133 165.544 230.461 165.288 229.565 165.288C228.669 165.288 227.989 165.544 227.525 166.056C227.077 166.568 226.773 167.232 226.613 168.048C226.469 168.848 226.397 169.84 226.397 171.024C226.397 172.24 226.469 173.264 226.613 174.096C226.757 174.912 227.061 175.576 227.525 176.088C227.989 176.584 228.669 176.832 229.565 176.832C230.461 176.832 231.141 176.584 231.605 176.088C232.069 175.576 232.373 174.912 232.517 174.096C232.661 173.264 232.733 172.24 232.733 171.024ZM238.6 171.024C238.6 168.256 239.096 166.088 240.088 164.52C241.096 162.952 242.76 162.168 245.08 162.168C247.4 162.168 249.056 162.952 250.048 164.52C251.056 166.088 251.56 168.256 251.56 171.024C251.56 173.808 251.056 175.992 250.048 177.576C249.056 179.16 247.4 179.952 245.08 179.952C242.76 179.952 241.096 179.16 240.088 177.576C239.096 175.992 238.6 173.808 238.6 171.024ZM248.248 171.024C248.248 169.84 248.168 168.848 248.008 168.048C247.864 167.232 247.56 166.568 247.096 166.056C246.648 165.544 245.976 165.288 245.08 165.288C244.184 165.288 243.504 165.544 243.04 166.056C242.592 166.568 242.288 167.232 242.128 168.048C241.984 168.848 241.912 169.84 241.912 171.024C241.912 172.24 241.984 173.264 242.128 174.096C242.272 174.912 242.576 175.576 243.04 176.088C243.504 176.584 244.184 176.832 245.08 176.832C245.976 176.832 246.656 176.584 247.12 176.088C247.584 175.576 247.888 174.912 248.032 174.096C248.176 173.264 248.248 172.24 248.248 171.024ZM258.172 176.472L255.364 183.216H253.204L254.764 176.472H258.172ZM260.21 171.024C260.21 168.256 260.706 166.088 261.698 164.52C262.706 162.952 264.37 162.168 266.69 162.168C269.01 162.168 270.666 162.952 271.658 164.52C272.666 166.088 273.17 168.256 273.17 171.024C273.17 173.808 272.666 175.992 271.658 177.576C270.666 179.16 269.01 179.952 266.69 179.952C264.37 179.952 262.706 179.16 261.698 177.576C260.706 175.992 260.21 173.808 260.21 171.024ZM269.858 171.024C269.858 169.84 269.778 168.848 269.618 168.048C269.474 167.232 269.17 166.568 268.706 166.056C268.258 165.544 267.586 165.288 266.69 165.288C265.794 165.288 265.114 165.544 264.65 166.056C264.202 166.568 263.898 167.232 263.738 168.048C263.594 168.848 263.522 169.84 263.522 171.024C263.522 172.24 263.594 173.264 263.738 174.096C263.882 174.912 264.186 175.576 264.65 176.088C265.114 176.584 265.794 176.832 266.69 176.832C267.586 176.832 268.266 176.584 268.73 176.088C269.194 175.576 269.498 174.912 269.642 174.096C269.786 173.264 269.858 172.24 269.858 171.024ZM275.725 171.024C275.725 168.256 276.221 166.088 277.213 164.52C278.221 162.952 279.885 162.168 282.205 162.168C284.525 162.168 286.181 162.952 287.173 164.52C288.181 166.088 288.685 168.256 288.685 171.024C288.685 173.808 288.181 175.992 287.173 177.576C286.181 179.16 284.525 179.952 282.205 179.952C279.885 179.952 278.221 179.16 277.213 177.576C276.221 175.992 275.725 173.808 275.725 171.024ZM285.373 171.024C285.373 169.84 285.293 168.848 285.133 168.048C284.989 167.232 284.685 166.568 284.221 166.056C283.773 165.544 283.101 165.288 282.205 165.288C281.309 165.288 280.629 165.544 280.165 166.056C279.717 166.568 279.413 167.232 279.253 168.048C279.109 168.848 279.037 169.84 279.037 171.024C279.037 172.24 279.109 173.264 279.253 174.096C279.397 174.912 279.701 175.576 280.165 176.088C280.629 176.584 281.309 176.832 282.205 176.832C283.101 176.832 283.781 176.584 284.245 176.088C284.709 175.576 285.013 174.912 285.157 174.096C285.301 173.264 285.373 172.24 285.373 171.024ZM291.241 171.024C291.241 168.256 291.737 166.088 292.729 164.52C293.737 162.952 295.401 162.168 297.721 162.168C300.041 162.168 301.697 162.952 302.689 164.52C303.697 166.088 304.201 168.256 304.201 171.024C304.201 173.808 303.697 175.992 302.689 177.576C301.697 179.16 300.041 179.952 297.721 179.952C295.401 179.952 293.737 179.16 292.729 177.576C291.737 175.992 291.241 173.808 291.241 171.024ZM300.889 171.024C300.889 169.84 300.809 168.848 300.649 168.048C300.505 167.232 300.201 166.568 299.737 166.056C299.289 165.544 298.617 165.288 297.721 165.288C296.825 165.288 296.145 165.544 295.681 166.056C295.233 166.568 294.929 167.232 294.769 168.048C294.625 168.848 294.553 169.84 294.553 171.024C294.553 172.24 294.625 173.264 294.769 174.096C294.913 174.912 295.217 175.576 295.681 176.088C296.145 176.584 296.825 176.832 297.721 176.832C298.617 176.832 299.297 176.584 299.761 176.088C300.225 175.576 300.529 174.912 300.673 174.096C300.817 173.264 300.889 172.24 300.889 171.024ZM324.811 175.176C324.811 176.008 324.595 176.792 324.163 177.528C323.747 178.248 323.123 178.848 322.291 179.328C321.475 179.792 320.507 180.064 319.387 180.144V182.088H317.851V180.12C316.251 179.976 314.963 179.496 313.987 178.68C313.011 177.848 312.507 176.728 312.475 175.32H316.075C316.171 176.472 316.763 177.168 317.851 177.408V172.824C316.699 172.536 315.771 172.248 315.067 171.96C314.363 171.672 313.755 171.208 313.243 170.568C312.731 169.928 312.475 169.056 312.475 167.952C312.475 166.56 312.971 165.424 313.963 164.544C314.971 163.664 316.267 163.16 317.851 163.032V161.088H319.387V163.032C320.923 163.16 322.147 163.624 323.059 164.424C323.987 165.224 324.507 166.328 324.619 167.736H320.995C320.947 167.272 320.779 166.872 320.491 166.536C320.219 166.184 319.851 165.936 319.387 165.792V170.328C320.587 170.632 321.531 170.928 322.219 171.216C322.923 171.488 323.531 171.944 324.043 172.584C324.555 173.208 324.811 174.072 324.811 175.176ZM315.979 167.784C315.979 168.312 316.139 168.744 316.459 169.08C316.779 169.4 317.243 169.664 317.851 169.872V165.72C317.275 165.8 316.819 166.016 316.483 166.368C316.147 166.72 315.979 167.192 315.979 167.784ZM319.387 177.456C319.995 177.344 320.467 177.096 320.803 176.712C321.155 176.328 321.331 175.864 321.331 175.32C321.331 174.792 321.163 174.368 320.827 174.048C320.491 173.728 320.011 173.464 319.387 173.256V177.456Z" fill="#111111"/>
<rect x="32.5" y="32.5" width="73" height="35" rx="17.5" fill="white"/>
<path d="M51.488 51.584H53.336V56.26H51.488V51.584ZM46.574 51.038H58.292V52.55H46.574V51.038ZM51.474 45.606H53.112V45.914C53.112 48.084 51.236 49.974 47.806 50.38L47.162 48.924C50.088 48.588 51.474 47.118 51.474 45.914V45.606ZM51.712 45.606H53.35V45.914C53.35 47.09 54.75 48.588 57.662 48.924L57.004 50.38C53.588 49.988 51.712 48.028 51.712 45.914V45.606ZM47.624 44.766H57.228V46.236H47.624V44.766ZM51.488 43.31H53.336V45.27H51.488V43.31ZM67.7269 43.268H69.6029V56.232H67.7269V43.268ZM69.1129 48.224H71.3949V49.75H69.1129V48.224ZM64.3249 44.612H66.1449C66.1449 48.504 64.6609 51.836 60.3489 54.006L59.3129 52.592C62.7149 50.828 64.3249 48.448 64.3249 44.934V44.612ZM60.0269 44.612H65.2769V46.11H60.0269V44.612Z" fill="#4B5563"/>
<path d="M81.875 50H90.125" stroke="#4B5563" stroke-linecap="round" stroke-linejoin="round"/>
<path d="M86 45.875V54.125" stroke="#4B5563" stroke-linecap="round" stroke-linejoin="round"/>
<rect x="32.5" y="32.5" width="73" height="35" rx="17.5" stroke="#E5E7EB"/>
<rect x="116" y="32" width="85" height="36" rx="18" fill="#111827"/>
<path d="M126.574 53.278H138.306V54.804H126.574V53.278ZM131.474 50.352H133.336V53.964H131.474V50.352ZM127.47 44.346H137.34V45.83H127.47V44.346ZM127.526 49.512H137.298V50.968H127.526V49.512ZM129.234 45.578H131.096V49.68H129.234V45.578ZM133.728 45.578H135.576V49.68H133.728V45.578ZM140.825 49.96H149.939V51.416H140.825V49.96ZM139.453 53.25H151.185V54.762H139.453V53.25ZM140.825 44.22H149.827V45.718H142.715V50.366H140.825V44.22ZM142.141 47.076H149.533V48.518H142.141V47.076ZM153.34 43.576H163V44.962H153.34V43.576ZM153.438 46.614H162.902V48H153.438V46.614ZM154.992 44.122H156.854V47.51H154.992V44.122ZM159.486 44.122H161.348V47.51H159.486V44.122ZM152.318 48.784H164.036V50.226H152.318V48.784ZM157.232 47.622H159.094V49.442H157.232V47.622ZM153.662 50.884H162.622V54.104H155.51V55.322H153.676V52.858H160.788V52.214H153.662V50.884ZM153.676 54.804H162.958V56.162H153.676V54.804ZM174.129 43.268H175.991V56.274H174.129V43.268ZM165.897 51.738H167.045C169.341 51.738 171.175 51.654 173.233 51.304L173.415 52.802C171.315 53.18 169.411 53.25 167.045 53.25H165.897V51.738ZM165.883 44.374H172.001V49.386H167.787V52.298H165.897V47.916H170.097V45.858H165.883V44.374ZM183.004 50.576H184.866V53.53H183.004V50.576ZM183.942 43.94C186.714 43.94 188.786 45.354 188.786 47.51C188.786 49.694 186.714 51.094 183.942 51.094C181.17 51.094 179.098 49.694 179.098 47.51C179.098 45.354 181.17 43.94 183.942 43.94ZM183.942 45.41C182.164 45.41 180.932 46.194 180.932 47.51C180.932 48.854 182.164 49.624 183.942 49.624C185.72 49.624 186.952 48.854 186.952 47.51C186.952 46.194 185.72 45.41 183.942 45.41ZM178.09 53.236H189.822V54.748H178.09V53.236Z" fill="white"/>
<rect x="211.5" y="32.5" width="95" height="35" rx="17.5" fill="white"/>
<path d="M221.574 53.278H233.306V54.804H221.574V53.278ZM226.474 50.352H228.336V53.964H226.474V50.352ZM222.47 44.346H232.34V45.83H222.47V44.346ZM222.526 49.512H232.298V50.968H222.526V49.512ZM224.234 45.578H226.096V49.68H224.234V45.578ZM228.728 45.578H230.576V49.68H228.728V45.578ZM235.825 49.96H244.939V51.416H235.825V49.96ZM234.453 53.25H246.185V54.762H234.453V53.25ZM235.825 44.22H244.827V45.718H237.715V50.366H235.825V44.22ZM237.141 47.076H244.533V48.518H237.141V47.076ZM248.34 43.576H258V44.962H248.34V43.576ZM248.438 46.614H257.902V48H248.438V46.614ZM249.992 44.122H251.854V47.51H249.992V44.122ZM254.486 44.122H256.348V47.51H254.486V44.122ZM247.318 48.784H259.036V50.226H247.318V48.784ZM252.232 47.622H254.094V49.442H252.232V47.622ZM248.662 50.884H257.622V54.104H250.51V55.322H248.676V52.858H255.788V52.214H248.662V50.884ZM248.676 54.804H257.958V56.162H248.676V54.804ZM269.129 43.268H270.991V56.274H269.129V43.268ZM260.897 51.738H262.045C264.341 51.738 266.175 51.654 268.233 51.304L268.415 52.802C266.315 53.18 264.411 53.25 262.045 53.25H260.897V51.738ZM260.883 44.374H267.001V49.386H262.787V52.298H260.897V47.916H265.097V45.858H260.883V44.374ZM278.004 50.576H279.866V53.53H278.004V50.576ZM278.942 43.94C281.714 43.94 283.786 45.354 283.786 47.51C283.786 49.694 281.714 51.094 278.942 51.094C276.17 51.094 274.098 49.694 274.098 47.51C274.098 45.354 276.17 43.94 278.942 43.94ZM278.942 45.41C277.164 45.41 275.932 46.194 275.932 47.51C275.932 48.854 277.164 49.624 278.942 49.624C280.72 49.624 281.952 48.854 281.952 47.51C281.952 46.194 280.72 45.41 278.942 45.41ZM273.09 53.236H284.822V54.748H273.09V53.236ZM288.907 53.082C289.225 52.83 289.369 52.7133 289.341 52.732C290.256 51.976 290.975 51.3553 291.497 50.87C292.029 50.3847 292.477 49.876 292.841 49.344C293.205 48.812 293.387 48.294 293.387 47.79C293.387 47.4073 293.299 47.1087 293.121 46.894C292.944 46.6793 292.678 46.572 292.323 46.572C291.969 46.572 291.689 46.7073 291.483 46.978C291.287 47.2393 291.189 47.6127 291.189 48.098H288.879C288.898 47.3047 289.066 46.642 289.383 46.11C289.71 45.578 290.135 45.186 290.657 44.934C291.189 44.682 291.777 44.556 292.421 44.556C293.532 44.556 294.367 44.8407 294.927 45.41C295.497 45.9793 295.781 46.7213 295.781 47.636C295.781 48.6347 295.441 49.5633 294.759 50.422C294.078 51.2713 293.21 52.102 292.155 52.914H295.935V54.86H288.907V53.082Z" fill="#9CA3AF"/>
<rect x="211.5" y="32.5" width="95" height="35" rx="17.5" stroke="#E5E7EB"/>
<path d="M35.696 213.824H36.704V216.176H35.696V213.824ZM35.696 210.008H36.5V210.248C36.5 212.144 35.264 213.608 33.44 214.184L32.984 213.404C34.592 212.924 35.696 211.712 35.696 210.248V210.008ZM35.888 210.008H36.692V210.248C36.692 211.652 37.832 212.828 39.428 213.296L38.972 214.064C37.148 213.524 35.888 212.084 35.888 210.248V210.008ZM33.236 209.504H39.2V210.308H33.236V209.504ZM35.696 208.16H36.704V209.852H35.696V208.16ZM40.436 208.076H41.432V218.948H40.436V208.076ZM32.792 216.716L32.648 215.876C34.628 215.876 37.364 215.864 39.728 215.504L39.812 216.236C37.376 216.692 34.724 216.704 32.792 216.716ZM46.6631 208.724C48.2951 208.724 49.4951 209.78 49.4951 211.304C49.4951 212.816 48.2951 213.86 46.6631 213.86C45.0311 213.86 43.8311 212.816 43.8311 211.304C43.8311 209.78 45.0311 208.724 46.6631 208.724ZM46.6631 209.576C45.5831 209.576 44.8031 210.272 44.8031 211.304C44.8031 212.324 45.5831 213.032 46.6631 213.032C47.7431 213.032 48.5231 212.324 48.5231 211.304C48.5231 210.272 47.7431 209.576 46.6631 209.576ZM51.0551 208.088H52.0511V214.472H51.0551V208.088ZM51.7751 210.872H53.6591V211.712H51.7751V210.872ZM45.0071 215.036H52.0511V218.948H51.0551V215.84H45.0071V215.036ZM58.1941 208.868C59.8861 208.868 61.0981 209.912 61.0981 211.424C61.0981 212.948 59.8861 213.992 58.1941 213.992C56.5021 213.992 55.2781 212.948 55.2781 211.424C55.2781 209.912 56.5021 208.868 58.1941 208.868ZM58.1941 209.732C57.0661 209.732 56.2501 210.416 56.2501 211.424C56.2501 212.432 57.0661 213.128 58.1941 213.128C59.3101 213.128 60.1261 212.432 60.1261 211.424C60.1261 210.416 59.3101 209.732 58.1941 209.732ZM62.5141 208.076H63.5101V218.948H62.5141V208.076ZM54.8701 216.572L54.7261 215.744C56.7061 215.744 59.4421 215.732 61.8061 215.36L61.8901 216.092C59.4541 216.56 56.8021 216.572 54.8701 216.572ZM74.0184 210.08H76.9224V210.896H74.0184V210.08ZM73.9224 212.336H76.8504V213.152H73.9224V212.336ZM76.7544 208.088H77.7504V214.592H76.7544V208.088ZM73.3584 208.904H74.4264C74.4264 211.7 72.4944 213.656 69.3744 214.592L68.9664 213.788C71.7384 212.984 73.3584 211.388 73.3584 209.336V208.904ZM69.5304 208.904H74.0424V209.72H69.5304V208.904ZM74.2224 214.712C76.4184 214.712 77.8104 215.492 77.8104 216.8C77.8104 218.108 76.4184 218.888 74.2224 218.888C72.0264 218.888 70.6344 218.108 70.6344 216.8C70.6344 215.492 72.0264 214.712 74.2224 214.712ZM74.2224 215.492C72.6384 215.492 71.6184 215.984 71.6184 216.8C71.6184 217.616 72.6384 218.096 74.2224 218.096C75.8184 218.096 76.8384 217.616 76.8384 216.8C76.8384 215.984 75.8184 215.492 74.2224 215.492ZM79.8614 214.304H89.7014V215.12H79.8614V214.304ZM84.2534 214.808H85.2374V218.936H84.2534V214.808ZM84.7574 208.52C87.0254 208.52 88.5494 209.444 88.5494 210.896C88.5494 212.348 87.0254 213.272 84.7574 213.272C82.5014 213.272 80.9654 212.348 80.9654 210.896C80.9654 209.444 82.5014 208.52 84.7574 208.52ZM84.7574 209.324C83.1014 209.324 81.9734 209.936 81.9734 210.896C81.9734 211.856 83.1014 212.468 84.7574 212.468C86.4134 212.468 87.5294 211.856 87.5294 210.896C87.5294 209.936 86.4134 209.324 84.7574 209.324Z" fill="#6B7280"/>
<path d="M260.9 213.68V216.04H252.42V213.68H260.9ZM273.52 209.84H267.04V213.26C267.32 212.913 267.72 212.633 268.24 212.42C268.76 212.193 269.313 212.08 269.9 212.08C270.967 212.08 271.84 212.313 272.52 212.78C273.2 213.247 273.693 213.847 274 214.58C274.307 215.3 274.46 216.073 274.46 216.9C274.46 218.433 274.02 219.667 273.14 220.6C272.273 221.533 271.033 222 269.42 222C267.9 222 266.687 221.62 265.78 220.86C264.873 220.1 264.36 219.107 264.24 217.88H266.96C267.08 218.413 267.347 218.84 267.76 219.16C268.187 219.48 268.727 219.64 269.38 219.64C270.167 219.64 270.76 219.393 271.16 218.9C271.56 218.407 271.76 217.753 271.76 216.94C271.76 216.113 271.553 215.487 271.14 215.06C270.74 214.62 270.147 214.4 269.36 214.4C268.8 214.4 268.333 214.54 267.96 214.82C267.587 215.1 267.32 215.473 267.16 215.94H264.48V207.38H273.52V209.84ZM278.151 222.14C277.645 222.14 277.225 221.987 276.891 221.68C276.571 221.36 276.411 220.967 276.411 220.5C276.411 220.033 276.571 219.647 276.891 219.34C277.225 219.02 277.645 218.86 278.151 218.86C278.645 218.86 279.051 219.02 279.371 219.34C279.691 219.647 279.851 220.033 279.851 220.5C279.851 220.967 279.691 221.36 279.371 221.68C279.051 221.987 278.645 222.14 278.151 222.14ZM281.787 214.52C281.787 212.213 282.2 210.407 283.027 209.1C283.867 207.793 285.253 207.14 287.187 207.14C289.12 207.14 290.5 207.793 291.327 209.1C292.167 210.407 292.587 212.213 292.587 214.52C292.587 216.84 292.167 218.66 291.327 219.98C290.5 221.3 289.12 221.96 287.187 221.96C285.253 221.96 283.867 221.3 283.027 219.98C282.2 218.66 281.787 216.84 281.787 214.52ZM289.827 214.52C289.827 213.533 289.76 212.707 289.627 212.04C289.507 211.36 289.253 210.807 288.867 210.38C288.493 209.953 287.933 209.74 287.187 209.74C286.44 209.74 285.873 209.953 285.487 210.38C285.113 210.807 284.86 211.36 284.727 212.04C284.607 212.707 284.547 213.533 284.547 214.52C284.547 215.533 284.607 216.387 284.727 217.08C284.847 217.76 285.1 218.313 285.487 218.74C285.873 219.153 286.44 219.36 287.187 219.36C287.933 219.36 288.5 219.153 288.887 218.74C289.273 218.313 289.527 217.76 289.647 217.08C289.767 216.387 289.827 215.533 289.827 214.52ZM294.756 211.26C294.823 209.927 295.29 208.9 296.156 208.18C297.036 207.447 298.19 207.08 299.616 207.08C300.59 207.08 301.423 207.253 302.116 207.6C302.81 207.933 303.33 208.393 303.676 208.98C304.036 209.553 304.216 210.207 304.216 210.94C304.216 211.78 303.996 212.493 303.556 213.08C303.13 213.653 302.616 214.04 302.016 214.24V214.32C302.79 214.56 303.39 214.987 303.816 215.6C304.256 216.213 304.476 217 304.476 217.96C304.476 218.76 304.29 219.473 303.916 220.1C303.556 220.727 303.016 221.22 302.296 221.58C301.59 221.927 300.736 222.1 299.736 222.1C298.23 222.1 297.003 221.72 296.056 220.96C295.11 220.2 294.61 219.08 294.556 217.6H297.276C297.303 218.253 297.523 218.78 297.936 219.18C298.363 219.567 298.943 219.76 299.676 219.76C300.356 219.76 300.876 219.573 301.236 219.2C301.61 218.813 301.796 218.32 301.796 217.72C301.796 216.92 301.543 216.347 301.036 216C300.53 215.653 299.743 215.48 298.676 215.48H298.096V213.18H298.676C300.57 213.18 301.516 212.547 301.516 211.28C301.516 210.707 301.343 210.26 300.996 209.94C300.663 209.62 300.176 209.46 299.536 209.46C298.91 209.46 298.423 209.633 298.076 209.98C297.743 210.313 297.55 210.74 297.496 211.26H294.756ZM311.135 211C311.135 209.987 311.428 209.193 312.015 208.62C312.615 208.047 313.381 207.76 314.315 207.76C315.248 207.76 316.008 208.047 316.595 208.62C317.195 209.193 317.495 209.987 317.495 211C317.495 212.027 317.195 212.827 316.595 213.4C316.008 213.973 315.248 214.26 314.315 214.26C313.381 214.26 312.615 213.973 312.015 213.4C311.428 212.827 311.135 212.027 311.135 211ZM323.975 208L316.115 222H313.395L321.235 208H323.975ZM314.295 209.44C313.561 209.44 313.195 209.96 313.195 211C313.195 212.053 313.561 212.58 314.295 212.58C314.655 212.58 314.935 212.453 315.135 212.2C315.335 211.933 315.435 211.533 315.435 211C315.435 209.96 315.055 209.44 314.295 209.44ZM319.915 218.98C319.915 217.953 320.208 217.16 320.795 216.6C321.395 216.027 322.161 215.74 323.095 215.74C324.028 215.74 324.781 216.027 325.355 216.6C325.941 217.16 326.235 217.953 326.235 218.98C326.235 220.007 325.941 220.807 325.355 221.38C324.781 221.953 324.028 222.24 323.095 222.24C322.148 222.24 321.381 221.953 320.795 221.38C320.208 220.807 319.915 220.007 319.915 218.98ZM323.075 217.42C322.315 217.42 321.935 217.94 321.935 218.98C321.935 220.033 322.315 220.56 323.075 220.56C323.821 220.56 324.195 220.033 324.195 218.98C324.195 217.94 323.821 217.42 323.075 217.42Z" fill="#DF1525"/>
<mask id="path-14-inside-1_1631_43852" fill="white">
<path d="M180.001 269C180.001 266.239 182.241 263.986 184.998 264.133C198.727 264.864 212.151 268.599 224.312 275.099C237.945 282.386 249.57 292.923 258.158 305.776C266.746 318.63 272.032 333.402 273.547 348.786C275.063 364.17 272.76 379.69 266.845 393.972C260.929 408.254 251.583 420.856 239.633 430.663C227.684 440.47 213.5 447.178 198.339 450.194C183.178 453.209 167.507 452.44 152.714 447.952C139.519 443.949 127.386 437.099 117.161 427.908C115.107 426.062 115.116 422.885 117.069 420.932L143.231 394.769C145.184 392.817 148.335 392.841 150.484 394.575C155.174 398.36 160.56 401.218 166.357 402.976C173.754 405.22 181.589 405.605 189.17 404.097C196.75 402.589 203.842 399.235 209.817 394.331C215.792 389.428 220.465 383.127 223.423 375.986C226.38 368.845 227.532 361.085 226.774 353.393C226.016 345.701 223.374 338.315 219.079 331.888C214.785 325.462 208.973 320.193 202.156 316.55C196.814 313.694 190.984 311.906 184.991 311.266C182.245 310.972 180.001 308.761 180.001 306V269Z"/>
</mask>
<path d="M180.001 269C180.001 266.239 182.241 263.986 184.998 264.133C198.727 264.864 212.151 268.599 224.312 275.099C237.945 282.386 249.57 292.923 258.158 305.776C266.746 318.63 272.032 333.402 273.547 348.786C275.063 364.17 272.76 379.69 266.845 393.972C260.929 408.254 251.583 420.856 239.633 430.663C227.684 440.47 213.5 447.178 198.339 450.194C183.178 453.209 167.507 452.44 152.714 447.952C139.519 443.949 127.386 437.099 117.161 427.908C115.107 426.062 115.116 422.885 117.069 420.932L143.231 394.769C145.184 392.817 148.335 392.841 150.484 394.575C155.174 398.36 160.56 401.218 166.357 402.976C173.754 405.22 181.589 405.605 189.17 404.097C196.75 402.589 203.842 399.235 209.817 394.331C215.792 389.428 220.465 383.127 223.423 375.986C226.38 368.845 227.532 361.085 226.774 353.393C226.016 345.701 223.374 338.315 219.079 331.888C214.785 325.462 208.973 320.193 202.156 316.55C196.814 313.694 190.984 311.906 184.991 311.266C182.245 310.972 180.001 308.761 180.001 306V269Z" fill="#5550FF" stroke="white" stroke-width="4" mask="url(#path-14-inside-1_1631_43852)"/>
<g opacity="0.5">
<mask id="path-15-inside-2_1631_43852" fill="white">
<path d="M91.2052 351.959C88.4502 351.772 86.355 349.383 86.6886 346.642C89.3343 324.901 99.5016 304.706 115.512 289.609C131.522 274.512 152.28 265.548 174.138 264.183C176.894 264.011 179.155 266.243 179.181 269.004L179.521 306.002C179.547 308.764 177.322 310.995 174.579 311.314C164.57 312.475 155.15 316.832 147.756 323.805C140.361 330.777 135.459 339.925 133.712 349.849C133.233 352.568 130.875 354.658 128.12 354.47L91.2052 351.959Z"/>
</mask>
<path d="M91.2052 351.959C88.4502 351.772 86.355 349.383 86.6886 346.642C89.3343 324.901 99.5016 304.706 115.512 289.609C131.522 274.512 152.28 265.548 174.138 264.183C176.894 264.011 179.155 266.243 179.181 269.004L179.521 306.002C179.547 308.764 177.322 310.995 174.579 311.314C164.57 312.475 155.15 316.832 147.756 323.805C140.361 330.777 135.459 339.925 133.712 349.849C133.233 352.568 130.875 354.658 128.12 354.47L91.2052 351.959Z" fill="black" fill-opacity="0.2" stroke="white" stroke-width="4" mask="url(#path-15-inside-2_1631_43852)"/>
</g>
<g opacity="0.8">
<mask id="path-16-inside-3_1631_43852" fill="white">
<path d="M117.068 420.933C115.115 422.885 111.939 422.894 110.093 420.84C102.261 412.127 96.1164 402.016 91.9908 391.019C87.8653 380.023 85.8422 368.365 86.0104 356.65C86.0501 353.889 88.4486 351.806 91.2037 351.993L128.119 354.49C130.874 354.677 132.929 357.065 133.036 359.825C133.231 364.836 134.226 369.794 135.995 374.51C137.765 379.225 140.276 383.615 143.425 387.517C145.16 389.666 145.183 392.817 143.231 394.77L117.068 420.933Z"/>
</mask>
<path d="M117.068 420.933C115.115 422.885 111.939 422.894 110.093 420.84C102.261 412.127 96.1164 402.016 91.9908 391.019C87.8653 380.023 85.8422 368.365 86.0104 356.65C86.0501 353.889 88.4486 351.806 91.2037 351.993L128.119 354.49C130.874 354.677 132.929 357.065 133.036 359.825C133.231 364.836 134.226 369.794 135.995 374.51C137.765 379.225 140.276 383.615 143.425 387.517C145.16 389.666 145.183 392.817 143.231 394.77L117.068 420.933Z" fill="url(#paint0_linear_1631_43852)" stroke="white" stroke-width="4" mask="url(#path-16-inside-3_1631_43852)"/>
</g>
<rect x="32" y="490" width="20" height="20" rx="4" fill="#5550FF"/>
<path d="M73.45 493.268H75.326V506.274H73.45V493.268ZM65.204 494.304H67.052V497.454H69.726V494.304H71.574V503.25H65.204V494.304ZM67.052 498.896V501.752H69.726V498.896H67.052ZM78.8249 499.96H87.9389V501.416H78.8249V499.96ZM77.4529 503.25H89.1849V504.762H77.4529V503.25ZM78.8249 494.22H87.8269V495.718H80.7149V500.366H78.8249V494.22ZM80.1409 497.076H87.5329V498.518H80.1409V497.076ZM91.6478 494.36H99.8098V495.844H91.6478V494.36ZM90.3178 503.264H102.036V504.762H90.3178V503.264ZM99.0678 494.36H100.902V495.494C100.902 497.062 100.916 498.896 100.314 501.71L98.4798 501.514C99.0678 498.882 99.0678 496.992 99.0678 495.494V494.36ZM99.4038 497.482V498.882L91.4938 499.316L91.2418 497.734L99.4038 497.482ZM94.4758 500.156H96.3378V503.81H94.4758V500.156ZM112.101 493.296H113.977V502.606H112.101V493.296ZM105.339 504.538H114.299V506.022H105.339V504.538ZM105.339 501.668H107.201V505.14H105.339V501.668ZM106.921 494.108C108.909 494.108 110.435 495.48 110.435 497.398C110.435 499.302 108.909 500.688 106.921 500.688C104.933 500.688 103.393 499.302 103.393 497.398C103.393 495.48 104.933 494.108 106.921 494.108ZM106.921 495.718C105.955 495.718 105.213 496.334 105.213 497.398C105.213 498.448 105.955 499.064 106.921 499.064C107.873 499.064 108.615 498.448 108.615 497.398C108.615 496.334 107.873 495.718 106.921 495.718Z" fill="#111111"/>
<path d="M304.053 496.032L299.797 506H297.525L301.813 496.288H296.341V494.368H304.053V496.032ZM306.099 503.472C307.123 502.619 307.939 501.909 308.547 501.344C309.155 500.768 309.662 500.171 310.067 499.552C310.472 498.933 310.675 498.325 310.675 497.728C310.675 497.184 310.547 496.757 310.291 496.448C310.035 496.139 309.64 495.984 309.107 495.984C308.574 495.984 308.163 496.165 307.875 496.528C307.587 496.88 307.438 497.365 307.427 497.984H305.251C305.294 496.704 305.672 495.733 306.387 495.072C307.112 494.411 308.03 494.08 309.139 494.08C310.355 494.08 311.288 494.405 311.939 495.056C312.59 495.696 312.915 496.544 312.915 497.6C312.915 498.432 312.691 499.227 312.243 499.984C311.795 500.741 311.283 501.403 310.707 501.968C310.131 502.523 309.379 503.195 308.451 503.984H313.171V505.84H305.267V504.176L306.099 503.472ZM314.326 497.2C314.326 496.389 314.561 495.755 315.03 495.296C315.51 494.837 316.124 494.608 316.87 494.608C317.617 494.608 318.225 494.837 318.694 495.296C319.174 495.755 319.414 496.389 319.414 497.2C319.414 498.021 319.174 498.661 318.694 499.12C318.225 499.579 317.617 499.808 316.87 499.808C316.124 499.808 315.51 499.579 315.03 499.12C314.561 498.661 314.326 498.021 314.326 497.2ZM324.598 494.8L318.31 506H316.134L322.406 494.8H324.598ZM316.854 495.952C316.268 495.952 315.974 496.368 315.974 497.2C315.974 498.043 316.268 498.464 316.854 498.464C317.142 498.464 317.366 498.363 317.526 498.16C317.686 497.947 317.766 497.627 317.766 497.2C317.766 496.368 317.462 495.952 316.854 495.952ZM321.35 503.584C321.35 502.763 321.585 502.128 322.054 501.68C322.534 501.221 323.148 500.992 323.894 500.992C324.641 500.992 325.244 501.221 325.702 501.68C326.172 502.128 326.406 502.763 326.406 503.584C326.406 504.405 326.172 505.045 325.702 505.504C325.244 505.963 324.641 506.192 323.894 506.192C323.137 506.192 322.524 505.963 322.054 505.504C321.585 505.045 321.35 504.405 321.35 503.584ZM323.878 502.336C323.27 502.336 322.966 502.752 322.966 503.584C322.966 504.427 323.27 504.848 323.878 504.848C324.476 504.848 324.774 504.427 324.774 503.584C324.774 502.752 324.476 502.336 323.878 502.336Z" fill="#111111"/>
<rect x="32" y="526" width="20" height="20" rx="4" fill="#FF6633"/>
<path d="M73.45 529.268H75.326V542.274H73.45V529.268ZM68.34 530.178C70.3 530.178 71.742 531.97 71.742 534.798C71.742 537.654 70.3 539.446 68.34 539.446C66.38 539.446 64.938 537.654 64.938 534.798C64.938 531.97 66.38 530.178 68.34 530.178ZM68.34 531.872C67.374 531.872 66.716 532.894 66.716 534.798C66.716 536.73 67.374 537.766 68.34 537.766C69.306 537.766 69.95 536.73 69.95 534.798C69.95 532.894 69.306 531.872 68.34 531.872ZM78.0549 537.626H79.1049C81.4009 537.626 82.8989 537.57 84.5789 537.262L84.7609 538.76C83.0249 539.082 81.4709 539.152 79.1049 539.152H78.0549V537.626ZM78.0549 530.43H83.9209V531.914H79.9169V538.2H78.0549V530.43ZM86.4689 529.282H88.3309V542.288H86.4689V529.282ZM83.2909 533.748H87.2529V535.26H83.2909V533.748ZM99.2498 529.268H101.112V542.274H99.2498V529.268ZM91.0178 537.738H92.1658C94.4618 537.738 96.2958 537.654 98.3538 537.304L98.5358 538.802C96.4358 539.18 94.5318 539.25 92.1658 539.25H91.0178V537.738ZM91.0038 530.374H97.1218V535.386H92.9078V538.298H91.0178V533.916H95.2178V531.858H91.0038V530.374ZM108.125 536.03H109.987V538.088H108.125V536.03ZM109.063 529.464C111.919 529.464 113.753 530.402 113.753 531.97C113.753 533.524 111.919 534.448 109.063 534.448C106.207 534.448 104.373 533.524 104.373 531.97C104.373 530.402 106.207 529.464 109.063 529.464ZM109.063 530.878C107.285 530.878 106.291 531.242 106.291 531.97C106.291 532.684 107.285 533.034 109.063 533.034C110.827 533.034 111.835 532.684 111.835 531.97C111.835 531.242 110.827 530.878 109.063 530.878ZM104.555 537.682H113.515V542.106H104.555V537.682ZM111.695 539.152H106.389V540.636H111.695V539.152ZM103.197 535.106H114.915V536.59H103.197V535.106Z" fill="#111111"/>
<path d="M299.326 532.4V530.336H303.182V542H300.878V532.4H299.326ZM306.099 539.472C307.123 538.619 307.939 537.909 308.547 537.344C309.155 536.768 309.662 536.171 310.067 535.552C310.472 534.933 310.675 534.325 310.675 533.728C310.675 533.184 310.547 532.757 310.291 532.448C310.035 532.139 309.64 531.984 309.107 531.984C308.574 531.984 308.163 532.165 307.875 532.528C307.587 532.88 307.438 533.365 307.427 533.984H305.251C305.294 532.704 305.672 531.733 306.387 531.072C307.112 530.411 308.03 530.08 309.139 530.08C310.355 530.08 311.288 530.405 311.939 531.056C312.59 531.696 312.915 532.544 312.915 533.6C312.915 534.432 312.691 535.227 312.243 535.984C311.795 536.741 311.283 537.403 310.707 537.968C310.131 538.523 309.379 539.195 308.451 539.984H313.171V541.84H305.267V540.176L306.099 539.472ZM314.326 533.2C314.326 532.389 314.561 531.755 315.03 531.296C315.51 530.837 316.124 530.608 316.87 530.608C317.617 530.608 318.225 530.837 318.694 531.296C319.174 531.755 319.414 532.389 319.414 533.2C319.414 534.021 319.174 534.661 318.694 535.12C318.225 535.579 317.617 535.808 316.87 535.808C316.124 535.808 315.51 535.579 315.03 535.12C314.561 534.661 314.326 534.021 314.326 533.2ZM324.598 530.8L318.31 542H316.134L322.406 530.8H324.598ZM316.854 531.952C316.268 531.952 315.974 532.368 315.974 533.2C315.974 534.043 316.268 534.464 316.854 534.464C317.142 534.464 317.366 534.363 317.526 534.16C317.686 533.947 317.766 533.627 317.766 533.2C317.766 532.368 317.462 531.952 316.854 531.952ZM321.35 539.584C321.35 538.763 321.585 538.128 322.054 537.68C322.534 537.221 323.148 536.992 323.894 536.992C324.641 536.992 325.244 537.221 325.702 537.68C326.172 538.128 326.406 538.763 326.406 539.584C326.406 540.405 326.172 541.045 325.702 541.504C325.244 541.963 324.641 542.192 323.894 542.192C323.137 542.192 322.524 541.963 322.054 541.504C321.585 541.045 321.35 540.405 321.35 539.584ZM323.878 538.336C323.27 538.336 322.966 538.752 322.966 539.584C322.966 540.427 323.27 540.848 323.878 540.848C324.476 540.848 324.774 540.427 324.774 539.584C324.774 538.752 324.476 538.336 323.878 538.336Z" fill="#111111"/>
<rect x="32" y="562" width="20" height="20" rx="4" fill="#FF33FF"/>
<path d="M69.838 570H72.134V571.498H69.838V570ZM64.938 573.906H65.82C67.64 573.906 68.816 573.878 70.23 573.64L70.384 575.124C68.928 575.376 67.682 575.404 65.82 575.404H64.938V573.906ZM64.938 566.71H69.754V568.18H66.702V574.452H64.938V566.71ZM66.198 570.196H69.264V571.624H66.198V570.196ZM73.926 565.282H75.704V578.246H73.926V565.282ZM71.252 565.506H72.988V577.672H71.252V565.506ZM82.3529 565.38H83.9209V565.618C83.9209 567.802 81.9749 569.524 78.6289 569.902L78.0129 568.502C80.9389 568.208 82.3529 566.892 82.3529 565.618V565.38ZM82.6749 565.38H84.2569V565.618C84.2569 566.892 85.6569 568.208 88.5829 568.502L87.9669 569.902C84.6209 569.524 82.6749 567.802 82.6749 565.618V565.38ZM77.4389 570.406H89.1569V571.876H77.4389V570.406ZM78.7829 572.632H87.7429V576.006H80.6309V577.112H78.7969V574.718H85.9089V574.018H78.7829V572.632ZM78.7969 576.762H88.0789V578.162H78.7969V576.762ZM98.6338 565.268H100.482V578.274H98.6338V565.268ZM100.062 570.168H102.358V571.708H100.062V570.168ZM90.8498 573.738H91.9418C94.1398 573.738 95.8478 573.668 97.7518 573.332L97.9338 574.83C95.9738 575.18 94.1958 575.264 91.9418 575.264H90.8498V573.738ZM90.8358 566.374H96.7998V571.4H92.6978V574.312H90.8498V569.916H94.9518V567.858H90.8358V566.374Z" fill="#111111"/>
<path d="M307.159 574.72C307.244 575.189 307.436 575.552 307.735 575.808C308.044 576.053 308.455 576.176 308.967 576.176C309.628 576.176 310.108 575.904 310.407 575.36C310.705 574.805 310.855 573.877 310.855 572.576C310.609 572.917 310.263 573.184 309.815 573.376C309.377 573.568 308.903 573.664 308.391 573.664C307.708 573.664 307.089 573.525 306.535 573.248C305.991 572.96 305.559 572.539 305.239 571.984C304.919 571.419 304.759 570.736 304.759 569.936C304.759 568.752 305.111 567.813 305.815 567.12C306.519 566.416 307.479 566.064 308.695 566.064C310.209 566.064 311.276 566.549 311.895 567.52C312.524 568.491 312.839 569.952 312.839 571.904C312.839 573.291 312.716 574.427 312.471 575.312C312.236 576.197 311.825 576.869 311.239 577.328C310.663 577.787 309.873 578.016 308.871 578.016C308.081 578.016 307.409 577.867 306.855 577.568C306.3 577.259 305.873 576.859 305.575 576.368C305.287 575.867 305.121 575.317 305.079 574.72H307.159ZM308.855 571.84C309.409 571.84 309.847 571.669 310.167 571.328C310.487 570.987 310.647 570.528 310.647 569.952C310.647 569.323 310.476 568.837 310.135 568.496C309.804 568.144 309.351 567.968 308.775 567.968C308.199 567.968 307.74 568.149 307.399 568.512C307.068 568.864 306.903 569.333 306.903 569.92C306.903 570.485 307.063 570.949 307.383 571.312C307.713 571.664 308.204 571.84 308.855 571.84ZM314.326 569.2C314.326 568.389 314.561 567.755 315.03 567.296C315.51 566.837 316.124 566.608 316.87 566.608C317.617 566.608 318.225 566.837 318.694 567.296C319.174 567.755 319.414 568.389 319.414 569.2C319.414 570.021 319.174 570.661 318.694 571.12C318.225 571.579 317.617 571.808 316.87 571.808C316.124 571.808 315.51 571.579 315.03 571.12C314.561 570.661 314.326 570.021 314.326 569.2ZM324.598 566.8L318.31 578H316.134L322.406 566.8H324.598ZM316.854 567.952C316.268 567.952 315.974 568.368 315.974 569.2C315.974 570.043 316.268 570.464 316.854 570.464C317.142 570.464 317.366 570.363 317.526 570.16C317.686 569.947 317.766 569.627 317.766 569.2C317.766 568.368 317.462 567.952 316.854 567.952ZM321.35 575.584C321.35 574.763 321.585 574.128 322.054 573.68C322.534 573.221 323.148 572.992 323.894 572.992C324.641 572.992 325.244 573.221 325.702 573.68C326.172 574.128 326.406 574.763 326.406 575.584C326.406 576.405 326.172 577.045 325.702 577.504C325.244 577.963 324.641 578.192 323.894 578.192C323.137 578.192 322.524 577.963 322.054 577.504C321.585 577.045 321.35 576.405 321.35 575.584ZM323.878 574.336C323.27 574.336 322.966 574.752 322.966 575.584C322.966 576.427 323.27 576.848 323.878 576.848C324.476 576.848 324.774 576.427 324.774 575.584C324.774 574.752 324.476 574.336 323.878 574.336Z" fill="#111111"/>
<rect x="32" y="598" width="20" height="20" rx="4" fill="#FFFF99"/>
<path d="M67.472 601.954H68.998V603.032C68.998 605.608 67.864 607.862 65.372 608.73L64.392 607.26C66.562 606.532 67.472 604.796 67.472 603.032V601.954ZM67.85 601.954H69.348V602.99C69.348 604.614 70.216 606.238 72.26 606.91L71.294 608.366C68.942 607.54 67.85 605.426 67.85 602.99V601.954ZM72.904 601.282H74.766V608.772H72.904V601.282ZM74.248 604.208H76.488V605.734H74.248V604.208ZM66.338 609.29H74.766V614.106H66.338V609.29ZM72.946 610.746H68.172V612.636H72.946V610.746ZM80.4489 601.954H82.0029V603.116C82.0029 605.72 80.8409 608.002 78.2929 608.856L77.3269 607.358C79.5389 606.644 80.4489 604.894 80.4489 603.116V601.954ZM80.8409 601.954H82.3389V603.032C82.3389 604.754 83.1789 606.35 85.2369 607.008L84.2709 608.464C81.8769 607.638 80.8409 605.552 80.8409 603.032V601.954ZM86.4269 601.282H88.2889V608.87H86.4269V601.282ZM83.8929 609.206C86.6369 609.206 88.3309 610.144 88.3309 611.726C88.3309 613.322 86.6369 614.246 83.8929 614.246C81.1489 614.246 79.4549 613.322 79.4549 611.726C79.4549 610.144 81.1489 609.206 83.8929 609.206ZM83.8929 610.648C82.2129 610.648 81.3169 610.998 81.3169 611.726C81.3169 612.454 82.2129 612.818 83.8929 612.818C85.5869 612.818 86.4829 612.454 86.4829 611.726C86.4829 610.998 85.5869 610.648 83.8929 610.648ZM84.0609 603.634H86.6929V605.146H84.0609V603.634ZM97.2618 604.628H100.286V606.126H97.2618V604.628ZM99.3058 601.296H101.168V610.746H99.3058V601.296ZM92.6138 612.538H101.462V614.022H92.6138V612.538ZM92.6138 609.948H94.4758V613.42H92.6138V609.948ZM93.3138 602.99H94.8258V603.802C94.8258 606.238 93.6778 608.492 91.1858 609.318L90.2478 607.834C92.3898 607.134 93.3138 605.44 93.3138 603.802V602.99ZM93.7058 602.99H95.2038V603.802C95.2038 605.314 96.0858 606.924 98.1298 607.61L97.2198 609.066C94.8118 608.268 93.7058 606.112 93.7058 603.802V602.99ZM90.7518 602.164H97.7238V603.634H90.7518V602.164ZM106.109 603.326H107.579V604.782C107.579 607.708 106.347 610.69 103.967 611.81L102.917 610.34C105.059 609.332 106.109 606.91 106.109 604.782V603.326ZM106.501 603.326H107.971V604.782C107.971 606.742 108.979 609.038 111.107 610.018L110.085 611.488C107.705 610.382 106.501 607.54 106.501 604.782V603.326ZM103.421 602.528H110.533V604.054H103.421V602.528ZM111.485 601.282H113.361V614.246H111.485V601.282ZM112.941 606.224H115.237V607.764H112.941V606.224Z" fill="#111111"/>
<path d="M313.241 604.032L308.985 614H306.713L311.001 604.288H305.529V602.368H313.241V604.032ZM314.326 605.2C314.326 604.389 314.561 603.755 315.03 603.296C315.51 602.837 316.124 602.608 316.87 602.608C317.617 602.608 318.225 602.837 318.694 603.296C319.174 603.755 319.414 604.389 319.414 605.2C319.414 606.021 319.174 606.661 318.694 607.12C318.225 607.579 317.617 607.808 316.87 607.808C316.124 607.808 315.51 607.579 315.03 607.12C314.561 606.661 314.326 606.021 314.326 605.2ZM324.598 602.8L318.31 614H316.134L322.406 602.8H324.598ZM316.854 603.952C316.268 603.952 315.974 604.368 315.974 605.2C315.974 606.043 316.268 606.464 316.854 606.464C317.142 606.464 317.366 606.363 317.526 606.16C317.686 605.947 317.766 605.627 317.766 605.2C317.766 604.368 317.462 603.952 316.854 603.952ZM321.35 611.584C321.35 610.763 321.585 610.128 322.054 609.68C322.534 609.221 323.148 608.992 323.894 608.992C324.641 608.992 325.244 609.221 325.702 609.68C326.172 610.128 326.406 610.763 326.406 611.584C326.406 612.405 326.172 613.045 325.702 613.504C325.244 613.963 324.641 614.192 323.894 614.192C323.137 614.192 322.524 613.963 322.054 613.504C321.585 613.045 321.35 612.405 321.35 611.584ZM323.878 610.336C323.27 610.336 322.966 610.752 322.966 611.584C322.966 612.427 323.27 612.848 323.878 612.848C324.476 612.848 324.774 612.427 324.774 611.584C324.774 610.752 324.476 610.336 323.878 610.336Z" fill="#111111"/>
<path d="M32.984 117.048H53.096V119.664H32.984V117.048ZM41.384 112.032H44.576V118.224H41.384V112.032ZM34.52 101.736H51.44V104.28H34.52V101.736ZM34.616 110.592H51.368V113.088H34.616V110.592ZM37.544 103.848H40.736V110.88H37.544V103.848ZM45.248 103.848H48.416V110.88H45.248V103.848ZM57.4141 111.36H73.0381V113.856H57.4141V111.36ZM55.0621 117H75.1741V119.592H55.0621V117ZM57.4141 101.52H72.8461V104.088H60.6541V112.056H57.4141V101.52ZM59.6701 106.416H72.3421V108.888H59.6701V106.416ZM78.8683 100.416H95.4283V102.792H78.8683V100.416ZM79.0363 105.624H95.2603V108H79.0363V105.624ZM81.7003 101.352H84.8923V107.16H81.7003V101.352ZM89.4043 101.352H92.5963V107.16H89.4043V101.352ZM77.1163 109.344H97.2043V111.816H77.1163V109.344ZM85.5403 107.352H88.7323V110.472H85.5403V107.352ZM79.4203 112.944H94.7803V118.464H82.5883V120.552H79.4443V116.328H91.6363V115.224H79.4203V112.944ZM79.4443 119.664H95.3563V121.992H79.4443V119.664ZM114.506 99.888H117.698V122.184H114.506V99.888ZM100.394 114.408H102.362C106.298 114.408 109.442 114.264 112.97 113.664L113.282 116.232C109.682 116.88 106.418 117 102.362 117H100.394V114.408ZM100.37 101.784H110.858V110.376H103.634V115.368H100.394V107.856H107.594V104.328H100.37V101.784ZM129.721 112.416H132.913V117.48H129.721V112.416ZM131.329 101.04C136.081 101.04 139.633 103.464 139.633 107.16C139.633 110.904 136.081 113.304 131.329 113.304C126.577 113.304 123.025 110.904 123.025 107.16C123.025 103.464 126.577 101.04 131.329 101.04ZM131.329 103.56C128.281 103.56 126.169 104.904 126.169 107.16C126.169 109.464 128.281 110.784 131.329 110.784C134.377 110.784 136.489 109.464 136.489 107.16C136.489 104.904 134.377 103.56 131.329 103.56ZM121.297 116.976H141.409V119.568H121.297V116.976Z" fill="#111111"/>
<path d="M235.286 112.13C235.286 116.318 238.739 119.714 243 119.714C247.26 119.714 250.714 116.318 250.714 112.13C250.714 107.942 247.286 104.547 243 104.547C237.857 104.547 235.286 108.76 235.286 108.76M235.286 108.76V104.285M235.286 108.76H239.276" stroke="#9CA3AF" stroke-width="1.8" stroke-linecap="round" stroke-linejoin="round"/>
<path d="M275.689 120.25H271.5C271.301 120.25 271.11 120.171 270.97 120.03C270.829 119.89 270.75 119.699 270.75 119.5V115.311C270.75 115.212 270.769 115.115 270.807 115.024C270.845 114.933 270.9 114.85 270.97 114.78L282.22 103.53C282.36 103.39 282.551 103.311 282.75 103.311C282.949 103.311 283.14 103.39 283.28 103.53L287.47 107.72C287.61 107.86 287.689 108.051 287.689 108.25C287.689 108.449 287.61 108.64 287.47 108.78L276.22 120.03C276.15 120.1 276.067 120.155 275.976 120.193C275.885 120.23 275.788 120.25 275.689 120.25Z" stroke="#9CA3AF" stroke-width="1.8" stroke-linecap="round" stroke-linejoin="round"/>
<path d="M279.75 106L285 111.25" stroke="#9CA3AF" stroke-width="1.8" stroke-linecap="round" stroke-linejoin="round"/>
<path d="M275.952 120.201L270.798 115.047" stroke="#9CA3AF" stroke-width="1.8" stroke-linecap="round" stroke-linejoin="round"/>
<g clip-path="url(#clip0_1631_43852)">
<path d="M322 107L321.133 119.142C321.097 119.647 320.871 120.119 320.501 120.464C320.131 120.808 319.644 121 319.138 121H310.862C310.356 121 309.869 120.808 309.499 120.464C309.129 120.119 308.903 119.647 308.867 119.142L308 107M307 107H323H307ZM312 107V104C312 103.735 312.105 103.48 312.293 103.293C312.48 103.105 312.735 103 313 103H317C317.265 103 317.52 103.105 317.707 103.293C317.895 103.48 318 103.735 318 104V107H312ZM313 111V117V111ZM317 111V117V111Z" stroke="#9CA3AF" stroke-width="1.8" stroke-linecap="round" stroke-linejoin="round"/>
</g>
<path d="M282.7 669.558H294.166V670.524H282.7V669.558ZM287.81 666.282H288.972V669.992H287.81V666.282ZM283.694 660.64H293.088V661.592H283.694V660.64ZM283.722 665.736H293.074V666.674H283.722V665.736ZM285.668 661.41H286.83V665.904H285.668V661.41ZM289.98 661.41H291.128V665.904H289.98V661.41ZM297.049 666.254H305.743V667.192H297.049V666.254ZM295.579 669.502H307.045V670.468H295.579V669.502ZM297.049 660.514H305.603V661.466H298.225V666.548H297.049V660.514ZM297.847 663.342H305.337V664.266H297.847V663.342ZM309.508 659.758H318.804V660.668H309.508V659.758ZM309.564 663.076H318.748V663.972H309.564V663.076ZM311.426 660.108H312.588V663.664H311.426V660.108ZM315.738 660.108H316.886V663.664H315.738V660.108ZM308.444 665.176H319.882V666.1H308.444V665.176ZM313.582 663.72H314.73V665.666H313.582V663.72ZM309.83 667.094H318.426V669.852H311.006V671.42H309.858V669.026H317.278V667.962H309.83V667.094ZM309.858 671.07H318.804V671.952H309.858V671.07ZM330.549 659.422H331.711V672.106H330.549V659.422ZM322.065 668.088H323.115C325.229 668.088 327.119 668.004 329.359 667.64L329.485 668.592C327.189 668.97 325.285 669.054 323.115 669.054H322.065V668.088ZM322.037 660.612H327.889V665.134H323.227V668.452H322.065V664.182H326.713V661.564H322.037V660.612ZM339.34 666.59H340.502V669.74H339.34V666.59ZM339.928 660.262C342.602 660.262 344.52 661.564 344.52 663.58C344.52 665.596 342.602 666.898 339.928 666.898C337.254 666.898 335.322 665.596 335.322 663.58C335.322 661.564 337.254 660.262 339.928 660.262ZM339.928 661.186C337.912 661.186 336.442 662.138 336.442 663.58C336.442 665.022 337.912 665.974 339.928 665.974C341.93 665.974 343.4 665.022 343.4 663.58C343.4 662.138 341.93 661.186 339.928 661.186ZM334.216 669.516H345.682V670.482H334.216V669.516Z" fill="#9CA3AF"/>
<defs>
<filter id="filter0_d_1631_43852" x="0" y="0" width="359" height="652" filterUnits="userSpaceOnUse" color-interpolation-filters="sRGB">
<feFlood flood-opacity="0" result="BackgroundImageFix"/>
<feColorMatrix in="SourceAlpha" type="matrix" values="0 0 0 0 0 0 0 0 0 0 0 0 0 0 0 0 0 0 127 0" result="hardAlpha"/>
<feOffset/>
<feGaussianBlur stdDeviation="6"/>
<feComposite in2="hardAlpha" operator="out"/>
<feColorMatrix type="matrix" values="0 0 0 0 0.47451 0 0 0 0 0.470588 0 0 0 0 0.517647 0 0 0 0.15 0"/>
<feBlend mode="normal" in2="BackgroundImageFix" result="effect1_dropShadow_1631_43852"/>
<feBlend mode="normal" in="SourceGraphic" in2="effect1_dropShadow_1631_43852" result="shape"/>
</filter>
<linearGradient id="paint0_linear_1631_43852" x1="146.539" y1="356.965" x2="173.773" y2="820.424" gradientUnits="userSpaceOnUse">
<stop stop-color="#1B59F8"/>
<stop offset="1" stop-color="#1B59F8" stop-opacity="0.46"/>
</linearGradient>
<clipPath id="clip0_1631_43852">
<rect width="24" height="24" fill="white" transform="translate(303 100)"/>
</clipPath>
</defs>
</svg>
