<svg width="359" height="676" viewBox="0 0 359 676" fill="none" xmlns="http://www.w3.org/2000/svg">
<g filter="url(#filter0_d_1631_43852)">
<rect x="12" y="12" width="335" height="628" rx="20" fill="white"/>
</g>
<path d="M38.288 167.66V168.776H36.068V176H34.7V168.776H32.468V167.66H38.288ZM42.5414 176.108C41.9174 176.108 41.3534 175.968 40.8494 175.688C40.3454 175.4 39.9494 175 39.6614 174.488C39.3734 173.968 39.2294 173.368 39.2294 172.688C39.2294 172.016 39.3774 171.42 39.6734 170.9C39.9694 170.38 40.3734 169.98 40.8854 169.7C41.3974 169.42 41.9694 169.28 42.6014 169.28C43.2334 169.28 43.8054 169.42 44.3174 169.7C44.8294 169.98 45.2334 170.38 45.5294 170.9C45.8254 171.42 45.9734 172.016 45.9734 172.688C45.9734 173.36 45.8214 173.956 45.5174 174.476C45.2134 174.996 44.7974 175.4 44.2694 175.688C43.7494 175.968 43.1734 176.108 42.5414 176.108ZM42.5414 174.92C42.8934 174.92 43.2214 174.836 43.5254 174.668C43.8374 174.5 44.0894 174.248 44.2814 173.912C44.4734 173.576 44.5694 173.168 44.5694 172.688C44.5694 172.208 44.4774 171.804 44.2934 171.476C44.1094 171.14 43.8654 170.888 43.5614 170.72C43.2574 170.552 42.9294 170.468 42.5774 170.468C42.2254 170.468 41.8974 170.552 41.5934 170.72C41.2974 170.888 41.0614 171.14 40.8854 171.476C40.7094 171.804 40.6214 172.208 40.6214 172.688C40.6214 173.4 40.8014 173.952 41.1614 174.344C41.5294 174.728 41.9894 174.92 42.5414 174.92ZM48.9218 170.504V174.164C48.9218 174.412 48.9778 174.592 49.0898 174.704C49.2098 174.808 49.4098 174.86 49.6898 174.86H50.5298V176H49.4498C48.8338 176 48.3618 175.856 48.0338 175.568C47.7058 175.28 47.5418 174.812 47.5418 174.164V170.504H46.7618V169.388H47.5418V167.744H48.9218V169.388H50.5298V170.504H48.9218ZM51.3346 172.664C51.3346 172 51.4706 171.412 51.7426 170.9C52.0226 170.388 52.3986 169.992 52.8706 169.712C53.3506 169.424 53.8786 169.28 54.4546 169.28C54.9746 169.28 55.4266 169.384 55.8106 169.592C56.2026 169.792 56.5146 170.044 56.7466 170.348V169.388H58.1266V176H56.7466V175.016C56.5146 175.328 56.1986 175.588 55.7986 175.796C55.3986 176.004 54.9426 176.108 54.4306 176.108C53.8626 176.108 53.3426 175.964 52.8706 175.676C52.3986 175.38 52.0226 174.972 51.7426 174.452C51.4706 173.924 51.3346 173.328 51.3346 172.664ZM56.7466 172.688C56.7466 172.232 56.6506 171.836 56.4586 171.5C56.2746 171.164 56.0306 170.908 55.7266 170.732C55.4226 170.556 55.0946 170.468 54.7426 170.468C54.3906 170.468 54.0626 170.556 53.7586 170.732C53.4546 170.9 53.2066 171.152 53.0146 171.488C52.8306 171.816 52.7386 172.208 52.7386 172.664C52.7386 173.12 52.8306 173.52 53.0146 173.864C53.2066 174.208 53.4546 174.472 53.7586 174.656C54.0706 174.832 54.3986 174.92 54.7426 174.92C55.0946 174.92 55.4226 174.832 55.7266 174.656C56.0306 174.48 56.2746 174.224 56.4586 173.888C56.6506 173.544 56.7466 173.144 56.7466 172.688ZM61.2914 167.12V176H59.9234V167.12H61.2914ZM71.2327 174.296H67.7407L67.1407 176H65.7127L68.7007 167.648H70.2847L73.2727 176H71.8327L71.2327 174.296ZM70.8487 173.18L69.4927 169.304L68.1247 173.18H70.8487ZM76.9719 176.108C76.4519 176.108 75.9839 176.016 75.5679 175.832C75.1599 175.64 74.8359 175.384 74.5959 175.064C74.3559 174.736 74.2279 174.372 74.2119 173.972H75.6279C75.6519 174.252 75.7839 174.488 76.0239 174.68C76.2719 174.864 76.5799 174.956 76.9479 174.956C77.3319 174.956 77.6279 174.884 77.8359 174.74C78.0519 174.588 78.1599 174.396 78.1599 174.164C78.1599 173.916 78.0399 173.732 77.7999 173.612C77.5679 173.492 77.1959 173.36 76.6839 173.216C76.1879 173.08 75.7839 172.948 75.4719 172.82C75.1599 172.692 74.8879 172.496 74.6559 172.232C74.4319 171.968 74.3199 171.62 74.3199 171.188C74.3199 170.836 74.4239 170.516 74.6319 170.228C74.8399 169.932 75.1359 169.7 75.5199 169.532C75.9119 169.364 76.3599 169.28 76.8639 169.28C77.6159 169.28 78.2199 169.472 78.6759 169.856C79.1399 170.232 79.3879 170.748 79.4199 171.404H78.0519C78.0279 171.108 77.9079 170.872 77.6919 170.696C77.4759 170.52 77.1839 170.432 76.8159 170.432C76.4559 170.432 76.1799 170.5 75.9879 170.636C75.7959 170.772 75.6999 170.952 75.6999 171.176C75.6999 171.352 75.7639 171.5 75.8919 171.62C76.0199 171.74 76.1759 171.836 76.3599 171.908C76.5439 171.972 76.8159 172.056 77.1759 172.16C77.6559 172.288 78.0479 172.42 78.3519 172.556C78.6639 172.684 78.9319 172.876 79.1559 173.132C79.3799 173.388 79.4959 173.728 79.5039 174.152C79.5039 174.528 79.3999 174.864 79.1919 175.16C78.9839 175.456 78.6879 175.688 78.3039 175.856C77.9279 176.024 77.4839 176.108 76.9719 176.108ZM83.382 176.108C82.862 176.108 82.394 176.016 81.978 175.832C81.57 175.64 81.246 175.384 81.006 175.064C80.766 174.736 80.638 174.372 80.622 173.972H82.038C82.062 174.252 82.194 174.488 82.434 174.68C82.682 174.864 82.99 174.956 83.358 174.956C83.742 174.956 84.038 174.884 84.246 174.74C84.462 174.588 84.57 174.396 84.57 174.164C84.57 173.916 84.45 173.732 84.21 173.612C83.978 173.492 83.606 173.36 83.094 173.216C82.598 173.08 82.194 172.948 81.882 172.82C81.57 172.692 81.298 172.496 81.066 172.232C80.842 171.968 80.73 171.62 80.73 171.188C80.73 170.836 80.834 170.516 81.042 170.228C81.25 169.932 81.546 169.7 81.93 169.532C82.322 169.364 82.77 169.28 83.274 169.28C84.026 169.28 84.63 169.472 85.086 169.856C85.55 170.232 85.798 170.748 85.83 171.404H84.462C84.438 171.108 84.318 170.872 84.102 170.696C83.886 170.52 83.594 170.432 83.226 170.432C82.866 170.432 82.59 170.5 82.398 170.636C82.206 170.772 82.11 170.952 82.11 171.176C82.11 171.352 82.174 171.5 82.302 171.62C82.43 171.74 82.586 171.836 82.77 171.908C82.954 171.972 83.226 172.056 83.586 172.16C84.066 172.288 84.458 172.42 84.762 172.556C85.074 172.684 85.342 172.876 85.566 173.132C85.79 173.388 85.906 173.728 85.914 174.152C85.914 174.528 85.81 174.864 85.602 175.16C85.394 175.456 85.098 175.688 84.714 175.856C84.338 176.024 83.894 176.108 83.382 176.108ZM93.4522 172.532C93.4522 172.78 93.4362 173.004 93.4042 173.204H88.3522C88.3922 173.732 88.5882 174.156 88.9402 174.476C89.2922 174.796 89.7242 174.956 90.2362 174.956C90.9722 174.956 91.4922 174.648 91.7962 174.032H93.2722C93.0722 174.64 92.7082 175.14 92.1802 175.532C91.6602 175.916 91.0122 176.108 90.2362 176.108C89.6042 176.108 89.0362 175.968 88.5322 175.688C88.0362 175.4 87.6442 175 87.3562 174.488C87.0762 173.968 86.9362 173.368 86.9362 172.688C86.9362 172.008 87.0722 171.412 87.3442 170.9C87.6242 170.38 88.0122 169.98 88.5082 169.7C89.0122 169.42 89.5882 169.28 90.2362 169.28C90.8602 169.28 91.4162 169.416 91.9042 169.688C92.3922 169.96 92.7722 170.344 93.0442 170.84C93.3162 171.328 93.4522 171.892 93.4522 172.532ZM92.0242 172.1C92.0162 171.596 91.8362 171.192 91.4842 170.888C91.1322 170.584 90.6962 170.432 90.1762 170.432C89.7042 170.432 89.3002 170.584 88.9642 170.888C88.6282 171.184 88.4282 171.588 88.3642 172.1H92.0242ZM96.3944 170.504V174.164C96.3944 174.412 96.4504 174.592 96.5624 174.704C96.6824 174.808 96.8824 174.86 97.1624 174.86H98.0024V176H96.9224C96.3064 176 95.8344 175.856 95.5064 175.568C95.1784 175.28 95.0144 174.812 95.0144 174.164V170.504H94.2344V169.388H95.0144V167.744H96.3944V169.388H98.0024V170.504H96.3944ZM101.663 176.108C101.143 176.108 100.675 176.016 100.259 175.832C99.8513 175.64 99.5273 175.384 99.2873 175.064C99.0473 174.736 98.9193 174.372 98.9033 173.972H100.319C100.343 174.252 100.475 174.488 100.715 174.68C100.963 174.864 101.271 174.956 101.639 174.956C102.023 174.956 102.319 174.884 102.527 174.74C102.743 174.588 102.851 174.396 102.851 174.164C102.851 173.916 102.731 173.732 102.491 173.612C102.259 173.492 101.887 173.36 101.375 173.216C100.879 173.08 100.475 172.948 100.163 172.82C99.8513 172.692 99.5793 172.496 99.3473 172.232C99.1233 171.968 99.0113 171.62 99.0113 171.188C99.0113 170.836 99.1153 170.516 99.3233 170.228C99.5313 169.932 99.8273 169.7 100.211 169.532C100.603 169.364 101.051 169.28 101.555 169.28C102.307 169.28 102.911 169.472 103.367 169.856C103.831 170.232 104.079 170.748 104.111 171.404H102.743C102.719 171.108 102.599 170.872 102.383 170.696C102.167 170.52 101.875 170.432 101.507 170.432C101.147 170.432 100.871 170.5 100.679 170.636C100.487 170.772 100.391 170.952 100.391 171.176C100.391 171.352 100.455 171.5 100.583 171.62C100.711 171.74 100.867 171.836 101.051 171.908C101.235 171.972 101.507 172.056 101.867 172.16C102.347 172.288 102.739 172.42 103.043 172.556C103.355 172.684 103.623 172.876 103.847 173.132C104.071 173.388 104.187 173.728 104.195 174.152C104.195 174.528 104.091 174.864 103.883 175.16C103.675 175.456 103.379 175.688 102.995 175.856C102.619 176.024 102.175 176.108 101.663 176.108Z" fill="#6B7280"/>
<path d="M173.328 176.208C174.864 174.928 176.088 173.864 177 173.016C177.912 172.152 178.672 171.256 179.28 170.328C179.888 169.4 180.192 168.488 180.192 167.592C180.192 166.776 180 166.136 179.616 165.672C179.232 165.208 178.64 164.976 177.84 164.976C177.04 164.976 176.424 165.248 175.992 165.792C175.56 166.32 175.336 167.048 175.32 167.976H172.056C172.12 166.056 172.688 164.6 173.76 163.608C174.848 162.616 176.224 162.12 177.888 162.12C179.712 162.12 181.112 162.608 182.088 163.584C183.064 164.544 183.552 165.816 183.552 167.4C183.552 168.648 183.216 169.84 182.544 170.976C181.872 172.112 181.104 173.104 180.24 173.952C179.376 174.784 178.248 175.792 176.856 176.976H183.936V179.76H172.08V177.264L173.328 176.208ZM188.981 170.736C187.381 169.904 186.581 168.616 186.581 166.872C186.581 166.008 186.797 165.224 187.229 164.52C187.677 163.8 188.341 163.232 189.221 162.816C190.117 162.384 191.205 162.168 192.485 162.168C193.765 162.168 194.845 162.384 195.725 162.816C196.621 163.232 197.285 163.8 197.717 164.52C198.165 165.224 198.389 166.008 198.389 166.872C198.389 167.752 198.173 168.528 197.741 169.2C197.309 169.856 196.733 170.368 196.013 170.736C196.893 171.12 197.581 171.68 198.077 172.416C198.573 173.152 198.821 174.024 198.821 175.032C198.821 176.12 198.541 177.072 197.981 177.888C197.437 178.688 196.685 179.304 195.725 179.736C194.765 180.168 193.685 180.384 192.485 180.384C191.285 180.384 190.205 180.168 189.245 179.736C188.301 179.304 187.549 178.688 186.989 177.888C186.445 177.072 186.173 176.12 186.173 175.032C186.173 174.024 186.421 173.152 186.917 172.416C187.413 171.664 188.101 171.104 188.981 170.736ZM195.125 167.352C195.125 166.568 194.885 165.96 194.405 165.528C193.941 165.096 193.301 164.88 192.485 164.88C191.685 164.88 191.045 165.096 190.565 165.528C190.101 165.96 189.869 166.576 189.869 167.376C189.869 168.096 190.109 168.672 190.589 169.104C191.085 169.536 191.717 169.752 192.485 169.752C193.253 169.752 193.885 169.536 194.381 169.104C194.877 168.656 195.125 168.072 195.125 167.352ZM192.485 172.2C191.573 172.2 190.829 172.432 190.253 172.896C189.693 173.36 189.413 174.024 189.413 174.888C189.413 175.688 189.685 176.344 190.229 176.856C190.789 177.352 191.541 177.6 192.485 177.6C193.429 177.6 194.173 177.344 194.717 176.832C195.261 176.32 195.533 175.672 195.533 174.888C195.533 174.04 195.253 173.384 194.693 172.92C194.133 172.44 193.397 172.2 192.485 172.2ZM205.531 176.472L202.723 183.216H200.563L202.123 176.472H205.531ZM207.569 171.024C207.569 168.256 208.065 166.088 209.057 164.52C210.065 162.952 211.729 162.168 214.049 162.168C216.369 162.168 218.025 162.952 219.017 164.52C220.025 166.088 220.529 168.256 220.529 171.024C220.529 173.808 220.025 175.992 219.017 177.576C218.025 179.16 216.369 179.952 214.049 179.952C211.729 179.952 210.065 179.16 209.057 177.576C208.065 175.992 207.569 173.808 207.569 171.024ZM217.217 171.024C217.217 169.84 217.137 168.848 216.977 168.048C216.833 167.232 216.529 166.568 216.065 166.056C215.617 165.544 214.945 165.288 214.049 165.288C213.153 165.288 212.473 165.544 212.009 166.056C211.561 166.568 211.257 167.232 211.097 168.048C210.953 168.848 210.881 169.84 210.881 171.024C210.881 172.24 210.953 173.264 211.097 174.096C211.241 174.912 211.545 175.576 212.009 176.088C212.473 176.584 213.153 176.832 214.049 176.832C214.945 176.832 215.625 176.584 216.089 176.088C216.553 175.576 216.857 174.912 217.001 174.096C217.145 173.264 217.217 172.24 217.217 171.024ZM223.085 171.024C223.085 168.256 223.581 166.088 224.573 164.52C225.581 162.952 227.245 162.168 229.565 162.168C231.885 162.168 233.541 162.952 234.533 164.52C235.541 166.088 236.045 168.256 236.045 171.024C236.045 173.808 235.541 175.992 234.533 177.576C233.541 179.16 231.885 179.952 229.565 179.952C227.245 179.952 225.581 179.16 224.573 177.576C223.581 175.992 223.085 173.808 223.085 171.024ZM232.733 171.024C232.733 169.84 232.653 168.848 232.493 168.048C232.349 167.232 232.045 166.568 231.581 166.056C231.133 165.544 230.461 165.288 229.565 165.288C228.669 165.288 227.989 165.544 227.525 166.056C227.077 166.568 226.773 167.232 226.613 168.048C226.469 168.848 226.397 169.84 226.397 171.024C226.397 172.24 226.469 173.264 226.613 174.096C226.757 174.912 227.061 175.576 227.525 176.088C227.989 176.584 228.669 176.832 229.565 176.832C230.461 176.832 231.141 176.584 231.605 176.088C232.069 175.576 232.373 174.912 232.517 174.096C232.661 173.264 232.733 172.24 232.733 171.024ZM238.6 171.024C238.6 168.256 239.096 166.088 240.088 164.52C241.096 162.952 242.76 162.168 245.08 162.168C247.4 162.168 249.056 162.952 250.048 164.52C251.056 166.088 251.56 168.256 251.56 171.024C251.56 173.808 251.056 175.992 250.048 177.576C249.056 179.16 247.4 179.952 245.08 179.952C242.76 179.952 241.096 179.16 240.088 177.576C239.096 175.992 238.6 173.808 238.6 171.024ZM248.248 171.024C248.248 169.84 248.168 168.848 248.008 168.048C247.864 167.232 247.56 166.568 247.096 166.056C246.648 165.544 245.976 165.288 245.08 165.288C244.184 165.288 243.504 165.544 243.04 166.056C242.592 166.568 242.288 167.232 242.128 168.048C241.984 168.848 241.912 169.84 241.912 171.024C241.912 172.24 241.984 173.264 242.128 174.096C242.272 174.912 242.576 175.576 243.04 176.088C243.504 176.584 244.184 176.832 245.08 176.832C245.976 176.832 246.656 176.584 247.12 176.088C247.584 175.576 247.888 174.912 248.032 174.096C248.176 173.264 248.248 172.24 248.248 171.024ZM258.172 176.472L255.364 183.216H253.204L254.764 176.472H258.172ZM260.21 171.024C260.21 168.256 260.706 166.088 261.698 164.52C262.706 162.952 264.37 162.168 266.69 162.168C269.01 162.168 270.666 162.952 271.658 164.52C272.666 166.088 273.17 168.256 273.17 171.024C273.17 173.808 272.666 175.992 271.658 177.576C270.666 179.16 269.01 179.952 266.69 179.952C264.37 179.952 262.706 179.16 261.698 177.576C260.706 175.992 260.21 173.808 260.21 171.024ZM269.858 171.024C269.858 169.84 269.778 168.848 269.618 168.048C269.474 167.232 269.17 166.568 268.706 166.056C268.258 165.544 267.586 165.288 266.69 165.288C265.794 165.288 265.114 165.544 264.65 166.056C264.202 166.568 263.898 167.232 263.738 168.048C263.594 168.848 263.522 169.84 263.522 171.024C263.522 172.24 263.594 173.264 263.738 174.096C263.882 174.912 264.186 175.576 264.65 176.088C265.114 176.584 265.794 176.832 266.69 176.832C267.586 176.832 268.266 176.584 268.73 176.088C269.194 175.576 269.498 174.912 269.642 174.096C269.786 173.264 269.858 172.24 269.858 171.024ZM275.725 171.024C275.725 168.256 276.221 166.088 277.213 164.52C278.221 162.952 279.885 162.168 282.205 162.168C284.525 162.168 286.181 162.952 287.173 164.52C288.181 166.088 288.685 168.256 288.685 171.024C288.685 173.808 288.181 175.992 287.173 177.576C286.181 179.16 284.525 179.952 282.205 179.952C279.885 179.952 278.221 179.16 277.213 177.576C276.221 175.992 275.725 173.808 275.725 171.024ZM285.373 171.024C285.373 169.84 285.293 168.848 285.133 168.048C284.989 167.232 284.685 166.568 284.221 166.056C283.773 165.544 283.101 165.288 282.205 165.288C281.309 165.288 280.629 165.544 280.165 166.056C279.717 166.568 279.413 167.232 279.253 168.048C279.109 168.848 279.037 169.84 279.037 171.024C279.037 172.24 279.109 173.264 279.253 174.096C279.397 174.912 279.701 175.576 280.165 176.088C280.629 176.584 281.309 176.832 282.205 176.832C283.101 176.832 283.781 176.584 284.245 176.088C284.709 175.576 285.013 174.912 285.157 174.096C285.301 173.264 285.373 172.24 285.373 171.024ZM291.241 171.024C291.241 168.256 291.737 166.088 292.729 164.52C293.737 162.952 295.401 162.168 297.721 162.168C300.041 162.168 301.697 162.952 302.689 164.52C303.697 166.088 304.201 168.256 304.201 171.024C304.201 173.808 303.697 175.992 302.689 177.576C301.697 179.16 300.041 179.952 297.721 179.952C295.401 179.952 293.737 179.16 292.729 177.576C291.737 175.992 291.241 173.808 291.241 171.024ZM300.889 171.024C300.889 169.84 300.809 168.848 300.649 168.048C300.505 167.232 300.201 166.568 299.737 166.056C299.289 165.544 298.617 165.288 297.721 165.288C296.825 165.288 296.145 165.544 295.681 166.056C295.233 166.568 294.929 167.232 294.769 168.048C294.625 168.848 294.553 169.84 294.553 171.024C294.553 172.24 294.625 173.264 294.769 174.096C294.913 174.912 295.217 175.576 295.681 176.088C296.145 176.584 296.825 176.832 297.721 176.832C298.617 176.832 299.297 176.584 299.761 176.088C300.225 175.576 300.529 174.912 300.673 174.096C300.817 173.264 300.889 172.24 300.889 171.024ZM324.811 175.176C324.811 176.008 324.595 176.792 324.163 177.528C323.747 178.248 323.123 178.848 322.291 179.328C321.475 179.792 320.507 180.064 319.387 180.144V182.088H317.851V180.12C316.251 179.976 314.963 179.496 313.987 178.68C313.011 177.848 312.507 176.728 312.475 175.32H316.075C316.171 176.472 316.763 177.168 317.851 177.408V172.824C316.699 172.536 315.771 172.248 315.067 171.96C314.363 171.672 313.755 171.208 313.243 170.568C312.731 169.928 312.475 169.056 312.475 167.952C312.475 166.56 312.971 165.424 313.963 164.544C314.971 163.664 316.267 163.16 317.851 163.032V161.088H319.387V163.032C320.923 163.16 322.147 163.624 323.059 164.424C323.987 165.224 324.507 166.328 324.619 167.736H320.995C320.947 167.272 320.779 166.872 320.491 166.536C320.219 166.184 319.851 165.936 319.387 165.792V170.328C320.587 170.632 321.531 170.928 322.219 171.216C322.923 171.488 323.531 171.944 324.043 172.584C324.555 173.208 324.811 174.072 324.811 175.176ZM315.979 167.784C315.979 168.312 316.139 168.744 316.459 169.08C316.779 169.4 317.243 169.664 317.851 169.872V165.72C317.275 165.8 316.819 166.016 316.483 166.368C316.147 166.72 315.979 167.192 315.979 167.784ZM319.387 177.456C319.995 177.344 320.467 177.096 320.803 176.712C321.155 176.328 321.331 175.864 321.331 175.32C321.331 174.792 321.163 174.368 320.827 174.048C320.491 173.728 320.011 173.464 319.387 173.256V177.456Z" fill="#111111"/>
<rect x="32.5" y="32.5" width="73" height="35" rx="17.5" fill="white"/>
<path d="M50.986 53.264H47.318L46.73 55H44.224L47.78 45.172H50.552L54.108 55H51.574L50.986 53.264ZM50.37 51.416L49.152 47.818L47.948 51.416H50.37ZM54.7143 51.08C54.7143 50.2773 54.8636 49.5727 55.1623 48.966C55.4703 48.3593 55.8856 47.8927 56.4083 47.566C56.9309 47.2393 57.5143 47.076 58.1583 47.076C58.6716 47.076 59.1383 47.1833 59.5583 47.398C59.9876 47.6127 60.3236 47.902 60.5663 48.266V44.64H62.9603V55H60.5663V53.88C60.3423 54.2533 60.0203 54.552 59.6003 54.776C59.1896 55 58.7089 55.112 58.1583 55.112C57.5143 55.112 56.9309 54.9487 56.4083 54.622C55.8856 54.286 55.4703 53.8147 55.1623 53.208C54.8636 52.592 54.7143 51.8827 54.7143 51.08ZM60.5663 51.094C60.5663 50.4967 60.3983 50.0253 60.0623 49.68C59.7356 49.3347 59.3343 49.162 58.8583 49.162C58.3823 49.162 57.9763 49.3347 57.6403 49.68C57.3136 50.016 57.1503 50.4827 57.1503 51.08C57.1503 51.6773 57.3136 52.1533 57.6403 52.508C57.9763 52.8533 58.3823 53.026 58.8583 53.026C59.3343 53.026 59.7356 52.8533 60.0623 52.508C60.3983 52.1627 60.5663 51.6913 60.5663 51.094ZM64.2162 51.08C64.2162 50.2773 64.3656 49.5727 64.6642 48.966C64.9722 48.3593 65.3876 47.8927 65.9102 47.566C66.4329 47.2393 67.0162 47.076 67.6602 47.076C68.1736 47.076 68.6402 47.1833 69.0602 47.398C69.4896 47.6127 69.8256 47.902 70.0682 48.266V44.64H72.4622V55H70.0682V53.88C69.8442 54.2533 69.5222 54.552 69.1022 54.776C68.6916 55 68.2109 55.112 67.6602 55.112C67.0162 55.112 66.4329 54.9487 65.9102 54.622C65.3876 54.286 64.9722 53.8147 64.6642 53.208C64.3656 52.592 64.2162 51.8827 64.2162 51.08ZM70.0682 51.094C70.0682 50.4967 69.9002 50.0253 69.5642 49.68C69.2376 49.3347 68.8362 49.162 68.3602 49.162C67.8842 49.162 67.4782 49.3347 67.1422 49.68C66.8156 50.016 66.6522 50.4827 66.6522 51.08C66.6522 51.6773 66.8156 52.1533 67.1422 52.508C67.4782 52.8533 67.8842 53.026 68.3602 53.026C68.8362 53.026 69.2376 52.8533 69.5642 52.508C69.9002 52.1627 70.0682 51.6913 70.0682 51.094Z" fill="#4B5563"/>
<path d="M83.875 50H92.125" stroke="#4B5563" stroke-linecap="round" stroke-linejoin="round"/>
<path d="M88 45.875V54.125" stroke="#4B5563" stroke-linecap="round" stroke-linejoin="round"/>
<rect x="32.5" y="32.5" width="73" height="35" rx="17.5" stroke="#E5E7EB"/>
<rect x="116" y="32" width="89" height="36" rx="18" fill="#111827"/>
<path d="M134.358 48.336C134.358 48.9053 134.227 49.428 133.966 49.904C133.705 50.3707 133.303 50.7487 132.762 51.038C132.221 51.3273 131.549 51.472 130.746 51.472H129.262V55H126.868V45.172H130.746C131.53 45.172 132.193 45.3073 132.734 45.578C133.275 45.8487 133.681 46.222 133.952 46.698C134.223 47.174 134.358 47.72 134.358 48.336ZM130.564 49.568C131.021 49.568 131.362 49.4607 131.586 49.246C131.81 49.0313 131.922 48.728 131.922 48.336C131.922 47.944 131.81 47.6407 131.586 47.426C131.362 47.2113 131.021 47.104 130.564 47.104H129.262V49.568H130.564ZM139.16 55.112C138.395 55.112 137.704 54.9487 137.088 54.622C136.482 54.2953 136.001 53.8287 135.646 53.222C135.301 52.6153 135.128 51.906 135.128 51.094C135.128 50.2913 135.306 49.5867 135.66 48.98C136.015 48.364 136.5 47.8927 137.116 47.566C137.732 47.2393 138.423 47.076 139.188 47.076C139.954 47.076 140.644 47.2393 141.26 47.566C141.876 47.8927 142.362 48.364 142.716 48.98C143.071 49.5867 143.248 50.2913 143.248 51.094C143.248 51.8967 143.066 52.606 142.702 53.222C142.348 53.8287 141.858 54.2953 141.232 54.622C140.616 54.9487 139.926 55.112 139.16 55.112ZM139.16 53.04C139.618 53.04 140.005 52.872 140.322 52.536C140.649 52.2 140.812 51.7193 140.812 51.094C140.812 50.4687 140.654 49.988 140.336 49.652C140.028 49.316 139.646 49.148 139.188 49.148C138.722 49.148 138.334 49.316 138.026 49.652C137.718 49.9787 137.564 50.4593 137.564 51.094C137.564 51.7193 137.714 52.2 138.012 52.536C138.32 52.872 138.703 53.04 139.16 53.04ZM146.912 48.49C147.192 48.0607 147.542 47.7247 147.962 47.482C148.382 47.23 148.849 47.104 149.362 47.104V49.638H148.704C148.107 49.638 147.659 49.7687 147.36 50.03C147.062 50.282 146.912 50.73 146.912 51.374V55H144.518V47.188H146.912V48.49ZM154.861 52.97V55H153.643C152.775 55 152.098 54.79 151.613 54.37C151.127 53.9407 150.885 53.2453 150.885 52.284V49.176H149.933V47.188H150.885V45.284H153.279V47.188H154.847V49.176H153.279V52.312C153.279 52.5453 153.335 52.7133 153.447 52.816C153.559 52.9187 153.745 52.97 154.007 52.97H154.861ZM160.114 49.176H158.826V55H156.432V49.176H155.564V47.188H156.432V46.964C156.432 46.0027 156.708 45.2747 157.258 44.78C157.809 44.276 158.616 44.024 159.68 44.024C159.858 44.024 159.988 44.0287 160.072 44.038V46.068C159.615 46.04 159.293 46.1053 159.106 46.264C158.92 46.4227 158.826 46.7073 158.826 47.118V47.188H160.114V49.176ZM164.795 55.112C164.03 55.112 163.339 54.9487 162.723 54.622C162.116 54.2953 161.636 53.8287 161.281 53.222C160.936 52.6153 160.763 51.906 160.763 51.094C160.763 50.2913 160.94 49.5867 161.295 48.98C161.65 48.364 162.135 47.8927 162.751 47.566C163.367 47.2393 164.058 47.076 164.823 47.076C165.588 47.076 166.279 47.2393 166.895 47.566C167.511 47.8927 167.996 48.364 168.351 48.98C168.706 49.5867 168.883 50.2913 168.883 51.094C168.883 51.8967 168.701 52.606 168.337 53.222C167.982 53.8287 167.492 54.2953 166.867 54.622C166.251 54.9487 165.56 55.112 164.795 55.112ZM164.795 53.04C165.252 53.04 165.64 52.872 165.957 52.536C166.284 52.2 166.447 51.7193 166.447 51.094C166.447 50.4687 166.288 49.988 165.971 49.652C165.663 49.316 165.28 49.148 164.823 49.148C164.356 49.148 163.969 49.316 163.661 49.652C163.353 49.9787 163.199 50.4593 163.199 51.094C163.199 51.7193 163.348 52.2 163.647 52.536C163.955 52.872 164.338 53.04 164.795 53.04ZM172.547 44.64V55H170.153V44.64H172.547ZM175.486 46.376C175.066 46.376 174.721 46.2547 174.45 46.012C174.189 45.76 174.058 45.452 174.058 45.088C174.058 44.7147 174.189 44.4067 174.45 44.164C174.721 43.912 175.066 43.786 175.486 43.786C175.897 43.786 176.233 43.912 176.494 44.164C176.765 44.4067 176.9 44.7147 176.9 45.088C176.9 45.452 176.765 45.76 176.494 46.012C176.233 46.2547 175.897 46.376 175.486 46.376ZM176.676 47.188V55H174.282V47.188H176.676ZM181.967 55.112C181.202 55.112 180.511 54.9487 179.895 54.622C179.288 54.2953 178.808 53.8287 178.453 53.222C178.108 52.6153 177.935 51.906 177.935 51.094C177.935 50.2913 178.112 49.5867 178.467 48.98C178.822 48.364 179.307 47.8927 179.923 47.566C180.539 47.2393 181.23 47.076 181.995 47.076C182.76 47.076 183.451 47.2393 184.067 47.566C184.683 47.8927 185.168 48.364 185.523 48.98C185.878 49.5867 186.055 50.2913 186.055 51.094C186.055 51.8967 185.873 52.606 185.509 53.222C185.154 53.8287 184.664 54.2953 184.039 54.622C183.423 54.9487 182.732 55.112 181.967 55.112ZM181.967 53.04C182.424 53.04 182.812 52.872 183.129 52.536C183.456 52.2 183.619 51.7193 183.619 51.094C183.619 50.4687 183.46 49.988 183.143 49.652C182.835 49.316 182.452 49.148 181.995 49.148C181.528 49.148 181.141 49.316 180.833 49.652C180.525 49.9787 180.371 50.4593 180.371 51.094C180.371 51.7193 180.52 52.2 180.819 52.536C181.127 52.872 181.51 53.04 181.967 53.04ZM189.802 47.006V44.78H193.68V55H191.188V47.006H189.802Z" fill="white"/>
<rect x="215.5" y="32.5" width="91" height="35" rx="17.5" fill="white"/>
<path d="M233.358 48.336C233.358 48.9053 233.227 49.428 232.966 49.904C232.705 50.3707 232.303 50.7487 231.762 51.038C231.221 51.3273 230.549 51.472 229.746 51.472H228.262V55H225.868V45.172H229.746C230.53 45.172 231.193 45.3073 231.734 45.578C232.275 45.8487 232.681 46.222 232.952 46.698C233.223 47.174 233.358 47.72 233.358 48.336ZM229.564 49.568C230.021 49.568 230.362 49.4607 230.586 49.246C230.81 49.0313 230.922 48.728 230.922 48.336C230.922 47.944 230.81 47.6407 230.586 47.426C230.362 47.2113 230.021 47.104 229.564 47.104H228.262V49.568H229.564ZM238.16 55.112C237.395 55.112 236.704 54.9487 236.088 54.622C235.482 54.2953 235.001 53.8287 234.646 53.222C234.301 52.6153 234.128 51.906 234.128 51.094C234.128 50.2913 234.306 49.5867 234.66 48.98C235.015 48.364 235.5 47.8927 236.116 47.566C236.732 47.2393 237.423 47.076 238.188 47.076C238.954 47.076 239.644 47.2393 240.26 47.566C240.876 47.8927 241.362 48.364 241.716 48.98C242.071 49.5867 242.248 50.2913 242.248 51.094C242.248 51.8967 242.066 52.606 241.702 53.222C241.348 53.8287 240.858 54.2953 240.232 54.622C239.616 54.9487 238.926 55.112 238.16 55.112ZM238.16 53.04C238.618 53.04 239.005 52.872 239.322 52.536C239.649 52.2 239.812 51.7193 239.812 51.094C239.812 50.4687 239.654 49.988 239.336 49.652C239.028 49.316 238.646 49.148 238.188 49.148C237.722 49.148 237.334 49.316 237.026 49.652C236.718 49.9787 236.564 50.4593 236.564 51.094C236.564 51.7193 236.714 52.2 237.012 52.536C237.32 52.872 237.703 53.04 238.16 53.04ZM245.912 48.49C246.192 48.0607 246.542 47.7247 246.962 47.482C247.382 47.23 247.849 47.104 248.362 47.104V49.638H247.704C247.107 49.638 246.659 49.7687 246.36 50.03C246.062 50.282 245.912 50.73 245.912 51.374V55H243.518V47.188H245.912V48.49ZM253.861 52.97V55H252.643C251.775 55 251.098 54.79 250.613 54.37C250.127 53.9407 249.885 53.2453 249.885 52.284V49.176H248.933V47.188H249.885V45.284H252.279V47.188H253.847V49.176H252.279V52.312C252.279 52.5453 252.335 52.7133 252.447 52.816C252.559 52.9187 252.745 52.97 253.007 52.97H253.861ZM259.114 49.176H257.826V55H255.432V49.176H254.564V47.188H255.432V46.964C255.432 46.0027 255.708 45.2747 256.258 44.78C256.809 44.276 257.616 44.024 258.68 44.024C258.858 44.024 258.988 44.0287 259.072 44.038V46.068C258.615 46.04 258.293 46.1053 258.106 46.264C257.92 46.4227 257.826 46.7073 257.826 47.118V47.188H259.114V49.176ZM263.795 55.112C263.03 55.112 262.339 54.9487 261.723 54.622C261.116 54.2953 260.636 53.8287 260.281 53.222C259.936 52.6153 259.763 51.906 259.763 51.094C259.763 50.2913 259.94 49.5867 260.295 48.98C260.65 48.364 261.135 47.8927 261.751 47.566C262.367 47.2393 263.058 47.076 263.823 47.076C264.588 47.076 265.279 47.2393 265.895 47.566C266.511 47.8927 266.996 48.364 267.351 48.98C267.706 49.5867 267.883 50.2913 267.883 51.094C267.883 51.8967 267.701 52.606 267.337 53.222C266.982 53.8287 266.492 54.2953 265.867 54.622C265.251 54.9487 264.56 55.112 263.795 55.112ZM263.795 53.04C264.252 53.04 264.64 52.872 264.957 52.536C265.284 52.2 265.447 51.7193 265.447 51.094C265.447 50.4687 265.288 49.988 264.971 49.652C264.663 49.316 264.28 49.148 263.823 49.148C263.356 49.148 262.969 49.316 262.661 49.652C262.353 49.9787 262.199 50.4593 262.199 51.094C262.199 51.7193 262.348 52.2 262.647 52.536C262.955 52.872 263.338 53.04 263.795 53.04ZM271.547 44.64V55H269.153V44.64H271.547ZM274.486 46.376C274.066 46.376 273.721 46.2547 273.45 46.012C273.189 45.76 273.058 45.452 273.058 45.088C273.058 44.7147 273.189 44.4067 273.45 44.164C273.721 43.912 274.066 43.786 274.486 43.786C274.897 43.786 275.233 43.912 275.494 44.164C275.765 44.4067 275.9 44.7147 275.9 45.088C275.9 45.452 275.765 45.76 275.494 46.012C275.233 46.2547 274.897 46.376 274.486 46.376ZM275.676 47.188V55H273.282V47.188H275.676ZM280.967 55.112C280.202 55.112 279.511 54.9487 278.895 54.622C278.288 54.2953 277.808 53.8287 277.453 53.222C277.108 52.6153 276.935 51.906 276.935 51.094C276.935 50.2913 277.112 49.5867 277.467 48.98C277.822 48.364 278.307 47.8927 278.923 47.566C279.539 47.2393 280.23 47.076 280.995 47.076C281.76 47.076 282.451 47.2393 283.067 47.566C283.683 47.8927 284.168 48.364 284.523 48.98C284.878 49.5867 285.055 50.2913 285.055 51.094C285.055 51.8967 284.873 52.606 284.509 53.222C284.154 53.8287 283.664 54.2953 283.039 54.622C282.423 54.9487 281.732 55.112 280.967 55.112ZM280.967 53.04C281.424 53.04 281.812 52.872 282.129 52.536C282.456 52.2 282.619 51.7193 282.619 51.094C282.619 50.4687 282.46 49.988 282.143 49.652C281.835 49.316 281.452 49.148 280.995 49.148C280.528 49.148 280.141 49.316 279.833 49.652C279.525 49.9787 279.371 50.4593 279.371 51.094C279.371 51.7193 279.52 52.2 279.819 52.536C280.127 52.872 280.51 53.04 280.967 53.04ZM288.97 53.082C289.287 52.83 289.432 52.7133 289.404 52.732C290.318 51.976 291.037 51.3553 291.56 50.87C292.092 50.3847 292.54 49.876 292.904 49.344C293.268 48.812 293.45 48.294 293.45 47.79C293.45 47.4073 293.361 47.1087 293.184 46.894C293.006 46.6793 292.74 46.572 292.386 46.572C292.031 46.572 291.751 46.7073 291.546 46.978C291.35 47.2393 291.252 47.6127 291.252 48.098H288.942C288.96 47.3047 289.128 46.642 289.446 46.11C289.772 45.578 290.197 45.186 290.72 44.934C291.252 44.682 291.84 44.556 292.484 44.556C293.594 44.556 294.43 44.8407 294.99 45.41C295.559 45.9793 295.844 46.7213 295.844 47.636C295.844 48.6347 295.503 49.5633 294.822 50.422C294.14 51.2713 293.272 52.102 292.218 52.914H295.998V54.86H288.97V53.082Z" fill="#9CA3AF"/>
<rect x="215.5" y="32.5" width="91" height="35" rx="17.5" stroke="#E5E7EB"/>
<path d="M41.684 209.66V218H40.316V212.288L37.772 218H36.824L34.268 212.288V218H32.9V209.66H34.376L37.304 216.2L40.22 209.66H41.684ZM43.026 214.664C43.026 214 43.162 213.412 43.434 212.9C43.714 212.388 44.09 211.992 44.562 211.712C45.042 211.424 45.57 211.28 46.146 211.28C46.666 211.28 47.118 211.384 47.502 211.592C47.894 211.792 48.206 212.044 48.438 212.348V211.388H49.818V218H48.438V217.016C48.206 217.328 47.89 217.588 47.49 217.796C47.09 218.004 46.634 218.108 46.122 218.108C45.554 218.108 45.034 217.964 44.562 217.676C44.09 217.38 43.714 216.972 43.434 216.452C43.162 215.924 43.026 215.328 43.026 214.664ZM48.438 214.688C48.438 214.232 48.342 213.836 48.15 213.5C47.966 213.164 47.722 212.908 47.418 212.732C47.114 212.556 46.786 212.468 46.434 212.468C46.082 212.468 45.754 212.556 45.45 212.732C45.146 212.9 44.898 213.152 44.706 213.488C44.522 213.816 44.43 214.208 44.43 214.664C44.43 215.12 44.522 215.52 44.706 215.864C44.898 216.208 45.146 216.472 45.45 216.656C45.762 216.832 46.09 216.92 46.434 216.92C46.786 216.92 47.114 216.832 47.418 216.656C47.722 216.48 47.966 216.224 48.15 215.888C48.342 215.544 48.438 215.144 48.438 214.688ZM54.4468 214.652L56.5828 218H55.0348L53.6068 215.756L52.2628 218H50.8348L52.9708 214.748L50.8348 211.388H52.3828L53.8108 213.632L55.1548 211.388H56.5828L54.4468 214.652ZM58.2991 210.512C58.0511 210.512 57.8431 210.428 57.6751 210.26C57.5071 210.092 57.4231 209.884 57.4231 209.636C57.4231 209.388 57.5071 209.18 57.6751 209.012C57.8431 208.844 58.0511 208.76 58.2991 208.76C58.5391 208.76 58.7431 208.844 58.9111 209.012C59.0791 209.18 59.1631 209.388 59.1631 209.636C59.1631 209.884 59.0791 210.092 58.9111 210.26C58.7431 210.428 58.5391 210.512 58.2991 210.512ZM58.9711 211.388V218H57.6031V211.388H58.9711ZM68.7712 211.28C69.2912 211.28 69.7552 211.388 70.1632 211.604C70.5792 211.82 70.9032 212.14 71.1352 212.564C71.3752 212.988 71.4952 213.5 71.4952 214.1V218H70.1392V214.304C70.1392 213.712 69.9912 213.26 69.6952 212.948C69.3992 212.628 68.9952 212.468 68.4832 212.468C67.9712 212.468 67.5632 212.628 67.2592 212.948C66.9632 213.26 66.8152 213.712 66.8152 214.304V218H65.4592V214.304C65.4592 213.712 65.3112 213.26 65.0152 212.948C64.7192 212.628 64.3152 212.468 63.8032 212.468C63.2912 212.468 62.8832 212.628 62.5792 212.948C62.2832 213.26 62.1352 213.712 62.1352 214.304V218H60.7672V211.388H62.1352V212.144C62.3592 211.872 62.6432 211.66 62.9872 211.508C63.3312 211.356 63.6992 211.28 64.0912 211.28C64.6192 211.28 65.0912 211.392 65.5072 211.616C65.9232 211.84 66.2432 212.164 66.4672 212.588C66.6672 212.188 66.9792 211.872 67.4032 211.64C67.8272 211.4 68.2832 211.28 68.7712 211.28ZM79.2239 211.388V218H77.8559V217.22C77.6399 217.492 77.3559 217.708 77.0039 217.868C76.6599 218.02 76.2919 218.096 75.8999 218.096C75.3799 218.096 74.9119 217.988 74.4959 217.772C74.0879 217.556 73.7639 217.236 73.5239 216.812C73.2919 216.388 73.1759 215.876 73.1759 215.276V211.388H74.5319V215.072C74.5319 215.664 74.6799 216.12 74.9759 216.44C75.2719 216.752 75.6759 216.908 76.1879 216.908C76.6999 216.908 77.1039 216.752 77.3999 216.44C77.7039 216.12 77.8559 215.664 77.8559 215.072V211.388H79.2239ZM89.0329 211.28C89.5529 211.28 90.0169 211.388 90.4249 211.604C90.8409 211.82 91.1649 212.14 91.3969 212.564C91.6369 212.988 91.7569 213.5 91.7569 214.1V218H90.4009V214.304C90.4009 213.712 90.2529 213.26 89.9569 212.948C89.6609 212.628 89.2569 212.468 88.7449 212.468C88.2329 212.468 87.8249 212.628 87.5209 212.948C87.2249 213.26 87.0769 213.712 87.0769 214.304V218H85.7209V214.304C85.7209 213.712 85.5729 213.26 85.2769 212.948C84.9809 212.628 84.5769 212.468 84.0649 212.468C83.5529 212.468 83.1449 212.628 82.8409 212.948C82.5449 213.26 82.3969 213.712 82.3969 214.304V218H81.0289V211.388H82.3969V212.144C82.6209 211.872 82.9049 211.66 83.2489 211.508C83.5929 211.356 83.9609 211.28 84.3529 211.28C84.8809 211.28 85.3529 211.392 85.7689 211.616C86.1849 211.84 86.5049 212.164 86.7289 212.588C86.9289 212.188 87.2409 211.872 87.6649 211.64C88.0889 211.4 88.5449 211.28 89.0329 211.28ZM97.9828 209.12V218H96.6148V209.12H97.9828ZM102.647 218.108C102.023 218.108 101.459 217.968 100.955 217.688C100.451 217.4 100.055 217 99.7669 216.488C99.4789 215.968 99.3349 215.368 99.3349 214.688C99.3349 214.016 99.4829 213.42 99.7789 212.9C100.075 212.38 100.479 211.98 100.991 211.7C101.503 211.42 102.075 211.28 102.707 211.28C103.339 211.28 103.911 211.42 104.423 211.7C104.935 211.98 105.339 212.38 105.635 212.9C105.931 213.42 106.079 214.016 106.079 214.688C106.079 215.36 105.927 215.956 105.623 216.476C105.319 216.996 104.903 217.4 104.375 217.688C103.855 217.968 103.279 218.108 102.647 218.108ZM102.647 216.92C102.999 216.92 103.327 216.836 103.631 216.668C103.943 216.5 104.195 216.248 104.387 215.912C104.579 215.576 104.675 215.168 104.675 214.688C104.675 214.208 104.583 213.804 104.399 213.476C104.215 213.14 103.971 212.888 103.667 212.72C103.363 212.552 103.035 212.468 102.683 212.468C102.331 212.468 102.003 212.552 101.699 212.72C101.403 212.888 101.167 213.14 100.991 213.476C100.815 213.804 100.727 214.208 100.727 214.688C100.727 215.4 100.907 215.952 101.267 216.344C101.635 216.728 102.095 216.92 102.647 216.92ZM109.831 218.108C109.311 218.108 108.843 218.016 108.427 217.832C108.019 217.64 107.695 217.384 107.455 217.064C107.215 216.736 107.087 216.372 107.071 215.972H108.487C108.511 216.252 108.643 216.488 108.883 216.68C109.131 216.864 109.439 216.956 109.807 216.956C110.191 216.956 110.487 216.884 110.695 216.74C110.911 216.588 111.019 216.396 111.019 216.164C111.019 215.916 110.899 215.732 110.659 215.612C110.427 215.492 110.055 215.36 109.543 215.216C109.047 215.08 108.643 214.948 108.331 214.82C108.019 214.692 107.747 214.496 107.515 214.232C107.291 213.968 107.179 213.62 107.179 213.188C107.179 212.836 107.283 212.516 107.491 212.228C107.699 211.932 107.995 211.7 108.379 211.532C108.771 211.364 109.219 211.28 109.723 211.28C110.475 211.28 111.079 211.472 111.535 211.856C111.999 212.232 112.247 212.748 112.279 213.404H110.911C110.887 213.108 110.767 212.872 110.551 212.696C110.335 212.52 110.043 212.432 109.675 212.432C109.315 212.432 109.039 212.5 108.847 212.636C108.655 212.772 108.559 212.952 108.559 213.176C108.559 213.352 108.623 213.5 108.751 213.62C108.879 213.74 109.035 213.836 109.219 213.908C109.403 213.972 109.675 214.056 110.035 214.16C110.515 214.288 110.907 214.42 111.211 214.556C111.523 214.684 111.791 214.876 112.015 215.132C112.239 215.388 112.355 215.728 112.363 216.152C112.363 216.528 112.259 216.864 112.051 217.16C111.843 217.456 111.547 217.688 111.163 217.856C110.787 218.024 110.343 218.108 109.831 218.108ZM116.241 218.108C115.721 218.108 115.253 218.016 114.837 217.832C114.429 217.64 114.105 217.384 113.865 217.064C113.625 216.736 113.497 216.372 113.481 215.972H114.897C114.921 216.252 115.053 216.488 115.293 216.68C115.541 216.864 115.849 216.956 116.217 216.956C116.601 216.956 116.897 216.884 117.105 216.74C117.321 216.588 117.429 216.396 117.429 216.164C117.429 215.916 117.309 215.732 117.069 215.612C116.837 215.492 116.465 215.36 115.953 215.216C115.457 215.08 115.053 214.948 114.741 214.82C114.429 214.692 114.157 214.496 113.925 214.232C113.701 213.968 113.589 213.62 113.589 213.188C113.589 212.836 113.693 212.516 113.901 212.228C114.109 211.932 114.405 211.7 114.789 211.532C115.181 211.364 115.629 211.28 116.133 211.28C116.885 211.28 117.489 211.472 117.945 211.856C118.409 212.232 118.657 212.748 118.689 213.404H117.321C117.297 213.108 117.177 212.872 116.961 212.696C116.745 212.52 116.453 212.432 116.085 212.432C115.725 212.432 115.449 212.5 115.257 212.636C115.065 212.772 114.969 212.952 114.969 213.176C114.969 213.352 115.033 213.5 115.161 213.62C115.289 213.74 115.445 213.836 115.629 213.908C115.813 213.972 116.085 214.056 116.445 214.16C116.925 214.288 117.317 214.42 117.621 214.556C117.933 214.684 118.201 214.876 118.425 215.132C118.649 215.388 118.765 215.728 118.773 216.152C118.773 216.528 118.669 216.864 118.461 217.16C118.253 217.456 117.957 217.688 117.573 217.856C117.197 218.024 116.753 218.108 116.241 218.108Z" fill="#6B7280"/>
<path d="M260.9 213.68V216.04H252.42V213.68H260.9ZM273.52 209.84H267.04V213.26C267.32 212.913 267.72 212.633 268.24 212.42C268.76 212.193 269.313 212.08 269.9 212.08C270.967 212.08 271.84 212.313 272.52 212.78C273.2 213.247 273.693 213.847 274 214.58C274.307 215.3 274.46 216.073 274.46 216.9C274.46 218.433 274.02 219.667 273.14 220.6C272.273 221.533 271.033 222 269.42 222C267.9 222 266.687 221.62 265.78 220.86C264.873 220.1 264.36 219.107 264.24 217.88H266.96C267.08 218.413 267.347 218.84 267.76 219.16C268.187 219.48 268.727 219.64 269.38 219.64C270.167 219.64 270.76 219.393 271.16 218.9C271.56 218.407 271.76 217.753 271.76 216.94C271.76 216.113 271.553 215.487 271.14 215.06C270.74 214.62 270.147 214.4 269.36 214.4C268.8 214.4 268.333 214.54 267.96 214.82C267.587 215.1 267.32 215.473 267.16 215.94H264.48V207.38H273.52V209.84ZM278.151 222.14C277.645 222.14 277.225 221.987 276.891 221.68C276.571 221.36 276.411 220.967 276.411 220.5C276.411 220.033 276.571 219.647 276.891 219.34C277.225 219.02 277.645 218.86 278.151 218.86C278.645 218.86 279.051 219.02 279.371 219.34C279.691 219.647 279.851 220.033 279.851 220.5C279.851 220.967 279.691 221.36 279.371 221.68C279.051 221.987 278.645 222.14 278.151 222.14ZM281.787 214.52C281.787 212.213 282.2 210.407 283.027 209.1C283.867 207.793 285.253 207.14 287.187 207.14C289.12 207.14 290.5 207.793 291.327 209.1C292.167 210.407 292.587 212.213 292.587 214.52C292.587 216.84 292.167 218.66 291.327 219.98C290.5 221.3 289.12 221.96 287.187 221.96C285.253 221.96 283.867 221.3 283.027 219.98C282.2 218.66 281.787 216.84 281.787 214.52ZM289.827 214.52C289.827 213.533 289.76 212.707 289.627 212.04C289.507 211.36 289.253 210.807 288.867 210.38C288.493 209.953 287.933 209.74 287.187 209.74C286.44 209.74 285.873 209.953 285.487 210.38C285.113 210.807 284.86 211.36 284.727 212.04C284.607 212.707 284.547 213.533 284.547 214.52C284.547 215.533 284.607 216.387 284.727 217.08C284.847 217.76 285.1 218.313 285.487 218.74C285.873 219.153 286.44 219.36 287.187 219.36C287.933 219.36 288.5 219.153 288.887 218.74C289.273 218.313 289.527 217.76 289.647 217.08C289.767 216.387 289.827 215.533 289.827 214.52ZM294.756 211.26C294.823 209.927 295.29 208.9 296.156 208.18C297.036 207.447 298.19 207.08 299.616 207.08C300.59 207.08 301.423 207.253 302.116 207.6C302.81 207.933 303.33 208.393 303.676 208.98C304.036 209.553 304.216 210.207 304.216 210.94C304.216 211.78 303.996 212.493 303.556 213.08C303.13 213.653 302.616 214.04 302.016 214.24V214.32C302.79 214.56 303.39 214.987 303.816 215.6C304.256 216.213 304.476 217 304.476 217.96C304.476 218.76 304.29 219.473 303.916 220.1C303.556 220.727 303.016 221.22 302.296 221.58C301.59 221.927 300.736 222.1 299.736 222.1C298.23 222.1 297.003 221.72 296.056 220.96C295.11 220.2 294.61 219.08 294.556 217.6H297.276C297.303 218.253 297.523 218.78 297.936 219.18C298.363 219.567 298.943 219.76 299.676 219.76C300.356 219.76 300.876 219.573 301.236 219.2C301.61 218.813 301.796 218.32 301.796 217.72C301.796 216.92 301.543 216.347 301.036 216C300.53 215.653 299.743 215.48 298.676 215.48H298.096V213.18H298.676C300.57 213.18 301.516 212.547 301.516 211.28C301.516 210.707 301.343 210.26 300.996 209.94C300.663 209.62 300.176 209.46 299.536 209.46C298.91 209.46 298.423 209.633 298.076 209.98C297.743 210.313 297.55 210.74 297.496 211.26H294.756ZM311.135 211C311.135 209.987 311.428 209.193 312.015 208.62C312.615 208.047 313.381 207.76 314.315 207.76C315.248 207.76 316.008 208.047 316.595 208.62C317.195 209.193 317.495 209.987 317.495 211C317.495 212.027 317.195 212.827 316.595 213.4C316.008 213.973 315.248 214.26 314.315 214.26C313.381 214.26 312.615 213.973 312.015 213.4C311.428 212.827 311.135 212.027 311.135 211ZM323.975 208L316.115 222H313.395L321.235 208H323.975ZM314.295 209.44C313.561 209.44 313.195 209.96 313.195 211C313.195 212.053 313.561 212.58 314.295 212.58C314.655 212.58 314.935 212.453 315.135 212.2C315.335 211.933 315.435 211.533 315.435 211C315.435 209.96 315.055 209.44 314.295 209.44ZM319.915 218.98C319.915 217.953 320.208 217.16 320.795 216.6C321.395 216.027 322.161 215.74 323.095 215.74C324.028 215.74 324.781 216.027 325.355 216.6C325.941 217.16 326.235 217.953 326.235 218.98C326.235 220.007 325.941 220.807 325.355 221.38C324.781 221.953 324.028 222.24 323.095 222.24C322.148 222.24 321.381 221.953 320.795 221.38C320.208 220.807 319.915 220.007 319.915 218.98ZM323.075 217.42C322.315 217.42 321.935 217.94 321.935 218.98C321.935 220.033 322.315 220.56 323.075 220.56C323.821 220.56 324.195 220.033 324.195 218.98C324.195 217.94 323.821 217.42 323.075 217.42Z" fill="#DF1525"/>
<mask id="path-14-inside-1_1631_43852" fill="white">
<path d="M180.001 269C180.001 266.239 182.241 263.986 184.998 264.133C198.727 264.864 212.151 268.599 224.312 275.099C237.945 282.386 249.57 292.923 258.158 305.776C266.746 318.63 272.032 333.402 273.547 348.786C275.063 364.17 272.76 379.69 266.845 393.972C260.929 408.254 251.583 420.856 239.633 430.663C227.684 440.47 213.5 447.178 198.339 450.194C183.178 453.209 167.507 452.44 152.714 447.952C139.519 443.949 127.386 437.099 117.161 427.908C115.107 426.062 115.116 422.885 117.069 420.932L143.231 394.769C145.184 392.817 148.335 392.841 150.484 394.575C155.174 398.36 160.56 401.218 166.357 402.976C173.754 405.22 181.589 405.605 189.17 404.097C196.75 402.589 203.842 399.235 209.817 394.331C215.792 389.428 220.465 383.127 223.423 375.986C226.38 368.845 227.532 361.085 226.774 353.393C226.016 345.701 223.374 338.315 219.079 331.888C214.785 325.462 208.973 320.193 202.156 316.55C196.814 313.694 190.984 311.906 184.991 311.266C182.245 310.972 180.001 308.761 180.001 306L180.001 269Z"/>
</mask>
<path d="M180.001 269C180.001 266.239 182.241 263.986 184.998 264.133C198.727 264.864 212.151 268.599 224.312 275.099C237.945 282.386 249.57 292.923 258.158 305.776C266.746 318.63 272.032 333.402 273.547 348.786C275.063 364.17 272.76 379.69 266.845 393.972C260.929 408.254 251.583 420.856 239.633 430.663C227.684 440.47 213.5 447.178 198.339 450.194C183.178 453.209 167.507 452.44 152.714 447.952C139.519 443.949 127.386 437.099 117.161 427.908C115.107 426.062 115.116 422.885 117.069 420.932L143.231 394.769C145.184 392.817 148.335 392.841 150.484 394.575C155.174 398.36 160.56 401.218 166.357 402.976C173.754 405.22 181.589 405.605 189.17 404.097C196.75 402.589 203.842 399.235 209.817 394.331C215.792 389.428 220.465 383.127 223.423 375.986C226.38 368.845 227.532 361.085 226.774 353.393C226.016 345.701 223.374 338.315 219.079 331.888C214.785 325.462 208.973 320.193 202.156 316.55C196.814 313.694 190.984 311.906 184.991 311.266C182.245 310.972 180.001 308.761 180.001 306L180.001 269Z" fill="#5550FF" stroke="white" stroke-width="4" mask="url(#path-14-inside-1_1631_43852)"/>
<g opacity="0.5">
<mask id="path-15-inside-2_1631_43852" fill="white">
<path d="M91.2052 351.959C88.4502 351.772 86.355 349.383 86.6886 346.642C89.3343 324.901 99.5016 304.706 115.512 289.609C131.522 274.512 152.28 265.548 174.138 264.183C176.894 264.011 179.155 266.243 179.181 269.004L179.521 306.002C179.547 308.764 177.322 310.995 174.579 311.314C164.57 312.475 155.15 316.832 147.756 323.805C140.361 330.777 135.459 339.926 133.712 349.849C133.233 352.568 130.875 354.658 128.12 354.47L91.2052 351.959Z"/>
</mask>
<path d="M91.2052 351.959C88.4502 351.772 86.355 349.383 86.6886 346.642C89.3343 324.901 99.5016 304.706 115.512 289.609C131.522 274.512 152.28 265.548 174.138 264.183C176.894 264.011 179.155 266.243 179.181 269.004L179.521 306.002C179.547 308.764 177.322 310.995 174.579 311.314C164.57 312.475 155.15 316.832 147.756 323.805C140.361 330.777 135.459 339.926 133.712 349.849C133.233 352.568 130.875 354.658 128.12 354.47L91.2052 351.959Z" fill="black" fill-opacity="0.2" stroke="white" stroke-width="4" mask="url(#path-15-inside-2_1631_43852)"/>
</g>
<g opacity="0.8">
<mask id="path-16-inside-3_1631_43852" fill="white">
<path d="M117.068 420.933C115.115 422.885 111.939 422.894 110.093 420.84C102.261 412.127 96.1164 402.016 91.9908 391.019C87.8653 380.023 85.8422 368.365 86.0104 356.65C86.0501 353.889 88.4486 351.806 91.2037 351.993L128.119 354.49C130.874 354.677 132.929 357.065 133.036 359.825C133.231 364.836 134.226 369.794 135.995 374.51C137.765 379.225 140.276 383.615 143.425 387.517C145.16 389.666 145.183 392.817 143.231 394.77L117.068 420.933Z"/>
</mask>
<path d="M117.068 420.933C115.115 422.885 111.939 422.894 110.093 420.84C102.261 412.127 96.1164 402.016 91.9908 391.019C87.8653 380.023 85.8422 368.365 86.0104 356.65C86.0501 353.889 88.4486 351.806 91.2037 351.993L128.119 354.49C130.874 354.677 132.929 357.065 133.036 359.825C133.231 364.836 134.226 369.794 135.995 374.51C137.765 379.225 140.276 383.615 143.425 387.517C145.16 389.666 145.183 392.817 143.231 394.77L117.068 420.933Z" fill="url(#paint0_linear_1631_43852)" stroke="white" stroke-width="4" mask="url(#path-16-inside-3_1631_43852)"/>
</g>
<rect x="32" y="490" width="20" height="20" rx="4" fill="#5550FF"/>
<path d="M70.51 499.988C71.0607 500.091 71.5133 500.366 71.868 500.814C72.2227 501.262 72.4 501.775 72.4 502.354C72.4 502.877 72.2693 503.339 72.008 503.74C71.756 504.132 71.3873 504.44 70.902 504.664C70.4167 504.888 69.8427 505 69.18 505H64.966V495.228H68.998C69.6607 495.228 70.23 495.335 70.706 495.55C71.1913 495.765 71.5553 496.063 71.798 496.446C72.05 496.829 72.176 497.263 72.176 497.748C72.176 498.317 72.022 498.793 71.714 499.176C71.4153 499.559 71.014 499.829 70.51 499.988ZM66.926 499.26H68.718C69.1847 499.26 69.544 499.157 69.796 498.952C70.048 498.737 70.174 498.434 70.174 498.042C70.174 497.65 70.048 497.347 69.796 497.132C69.544 496.917 69.1847 496.81 68.718 496.81H66.926V499.26ZM68.9 503.404C69.376 503.404 69.7447 503.292 70.006 503.068C70.2767 502.844 70.412 502.527 70.412 502.116C70.412 501.696 70.272 501.369 69.992 501.136C69.712 500.893 69.334 500.772 68.858 500.772H66.926V503.404H68.9ZM74.9561 496.32C74.6108 496.32 74.3214 496.213 74.0881 495.998C73.8641 495.774 73.7521 495.499 73.7521 495.172C73.7521 494.845 73.8641 494.575 74.0881 494.36C74.3214 494.136 74.6108 494.024 74.9561 494.024C75.3014 494.024 75.5861 494.136 75.8101 494.36C76.0434 494.575 76.1601 494.845 76.1601 495.172C76.1601 495.499 76.0434 495.774 75.8101 495.998C75.5861 496.213 75.3014 496.32 74.9561 496.32ZM75.9221 497.244V505H73.9621V497.244H75.9221ZM80.1406 498.854V502.606C80.1406 502.867 80.2012 503.059 80.3226 503.18C80.4532 503.292 80.6679 503.348 80.9666 503.348H81.8766V505H80.6446C78.9926 505 78.1666 504.197 78.1666 502.592V498.854H77.2426V497.244H78.1666V495.326H80.1406V497.244H81.8766V498.854H80.1406ZM82.7823 501.122C82.7823 500.319 82.9456 499.619 83.2723 499.022C83.599 498.415 84.0516 497.949 84.6303 497.622C85.209 497.286 85.8716 497.118 86.6183 497.118C87.5796 497.118 88.373 497.361 88.9983 497.846C89.633 498.322 90.0576 498.994 90.2723 499.862H88.1583C88.0463 499.526 87.855 499.265 87.5843 499.078C87.323 498.882 86.9963 498.784 86.6043 498.784C86.0443 498.784 85.601 498.989 85.2743 499.4C84.9476 499.801 84.7843 500.375 84.7843 501.122C84.7843 501.859 84.9476 502.433 85.2743 502.844C85.601 503.245 86.0443 503.446 86.6043 503.446C87.3976 503.446 87.9156 503.091 88.1583 502.382H90.2723C90.0576 503.222 89.633 503.889 88.9983 504.384C88.3636 504.879 87.5703 505.126 86.6183 505.126C85.8716 505.126 85.209 504.963 84.6303 504.636C84.0516 504.3 83.599 503.833 83.2723 503.236C82.9456 502.629 82.7823 501.925 82.7823 501.122ZM95.1522 505.126C94.4055 505.126 93.7335 504.963 93.1362 504.636C92.5389 504.3 92.0675 503.829 91.7222 503.222C91.3862 502.615 91.2182 501.915 91.2182 501.122C91.2182 500.329 91.3909 499.629 91.7362 499.022C92.0909 498.415 92.5715 497.949 93.1782 497.622C93.7849 497.286 94.4615 497.118 95.2082 497.118C95.9549 497.118 96.6315 497.286 97.2382 497.622C97.8449 497.949 98.3209 498.415 98.6662 499.022C99.0209 499.629 99.1982 500.329 99.1982 501.122C99.1982 501.915 99.0162 502.615 98.6522 503.222C98.2975 503.829 97.8122 504.3 97.1962 504.636C96.5895 504.963 95.9082 505.126 95.1522 505.126ZM95.1522 503.418C95.5069 503.418 95.8382 503.334 96.1462 503.166C96.4635 502.989 96.7155 502.727 96.9022 502.382C97.0889 502.037 97.1822 501.617 97.1822 501.122C97.1822 500.385 96.9862 499.82 96.5942 499.428C96.2115 499.027 95.7402 498.826 95.1802 498.826C94.6202 498.826 94.1489 499.027 93.7662 499.428C93.3929 499.82 93.2062 500.385 93.2062 501.122C93.2062 501.859 93.3882 502.429 93.7522 502.83C94.1255 503.222 94.5922 503.418 95.1522 503.418ZM101.63 496.32C101.285 496.32 100.995 496.213 100.762 495.998C100.538 495.774 100.426 495.499 100.426 495.172C100.426 494.845 100.538 494.575 100.762 494.36C100.995 494.136 101.285 494.024 101.63 494.024C101.975 494.024 102.26 494.136 102.484 494.36C102.717 494.575 102.834 494.845 102.834 495.172C102.834 495.499 102.717 495.774 102.484 495.998C102.26 496.213 101.975 496.32 101.63 496.32ZM102.596 497.244V505H100.636V497.244H102.596ZM108.83 497.132C109.754 497.132 110.501 497.426 111.07 498.014C111.64 498.593 111.924 499.405 111.924 500.45V505H109.964V500.716C109.964 500.1 109.81 499.629 109.502 499.302C109.194 498.966 108.774 498.798 108.242 498.798C107.701 498.798 107.272 498.966 106.954 499.302C106.646 499.629 106.492 500.1 106.492 500.716V505H104.532V497.244H106.492V498.21C106.754 497.874 107.085 497.613 107.486 497.426C107.897 497.23 108.345 497.132 108.83 497.132Z" fill="#111111"/>
<path d="M304.053 496.032L299.797 506H297.525L301.813 496.288H296.341V494.368H304.053V496.032ZM306.099 503.472C307.123 502.619 307.939 501.909 308.547 501.344C309.155 500.768 309.662 500.171 310.067 499.552C310.472 498.933 310.675 498.325 310.675 497.728C310.675 497.184 310.547 496.757 310.291 496.448C310.035 496.139 309.64 495.984 309.107 495.984C308.574 495.984 308.163 496.165 307.875 496.528C307.587 496.88 307.438 497.365 307.427 497.984H305.251C305.294 496.704 305.672 495.733 306.387 495.072C307.112 494.411 308.03 494.08 309.139 494.08C310.355 494.08 311.288 494.405 311.939 495.056C312.59 495.696 312.915 496.544 312.915 497.6C312.915 498.432 312.691 499.227 312.243 499.984C311.795 500.741 311.283 501.403 310.707 501.968C310.131 502.523 309.379 503.195 308.451 503.984H313.171V505.84H305.267V504.176L306.099 503.472ZM314.326 497.2C314.326 496.389 314.561 495.755 315.03 495.296C315.51 494.837 316.124 494.608 316.87 494.608C317.617 494.608 318.225 494.837 318.694 495.296C319.174 495.755 319.414 496.389 319.414 497.2C319.414 498.021 319.174 498.661 318.694 499.12C318.225 499.579 317.617 499.808 316.87 499.808C316.124 499.808 315.51 499.579 315.03 499.12C314.561 498.661 314.326 498.021 314.326 497.2ZM324.598 494.8L318.31 506H316.134L322.406 494.8H324.598ZM316.854 495.952C316.268 495.952 315.974 496.368 315.974 497.2C315.974 498.043 316.268 498.464 316.854 498.464C317.142 498.464 317.366 498.363 317.526 498.16C317.686 497.947 317.766 497.627 317.766 497.2C317.766 496.368 317.462 495.952 316.854 495.952ZM321.35 503.584C321.35 502.763 321.585 502.128 322.054 501.68C322.534 501.221 323.148 500.992 323.894 500.992C324.641 500.992 325.244 501.221 325.702 501.68C326.172 502.128 326.406 502.763 326.406 503.584C326.406 504.405 326.172 505.045 325.702 505.504C325.244 505.963 324.641 506.192 323.894 506.192C323.137 506.192 322.524 505.963 322.054 505.504C321.585 505.045 321.35 504.405 321.35 503.584ZM323.878 502.336C323.27 502.336 322.966 502.752 322.966 503.584C322.966 504.427 323.27 504.848 323.878 504.848C324.476 504.848 324.774 504.427 324.774 503.584C324.774 502.752 324.476 502.336 323.878 502.336Z" fill="#111111"/>
<rect x="32" y="526" width="20" height="20" rx="4" fill="#5550FF"/>
<path d="M70.51 535.988C71.0607 536.091 71.5133 536.366 71.868 536.814C72.2227 537.262 72.4 537.775 72.4 538.354C72.4 538.877 72.2693 539.339 72.008 539.74C71.756 540.132 71.3873 540.44 70.902 540.664C70.4167 540.888 69.8427 541 69.18 541H64.966V531.228H68.998C69.6607 531.228 70.23 531.335 70.706 531.55C71.1913 531.765 71.5553 532.063 71.798 532.446C72.05 532.829 72.176 533.263 72.176 533.748C72.176 534.317 72.022 534.793 71.714 535.176C71.4153 535.559 71.014 535.829 70.51 535.988ZM66.926 535.26H68.718C69.1847 535.26 69.544 535.157 69.796 534.952C70.048 534.737 70.174 534.434 70.174 534.042C70.174 533.65 70.048 533.347 69.796 533.132C69.544 532.917 69.1847 532.81 68.718 532.81H66.926V535.26ZM68.9 539.404C69.376 539.404 69.7447 539.292 70.006 539.068C70.2767 538.844 70.412 538.527 70.412 538.116C70.412 537.696 70.272 537.369 69.992 537.136C69.712 536.893 69.334 536.772 68.858 536.772H66.926V539.404H68.9ZM74.9561 532.32C74.6108 532.32 74.3214 532.213 74.0881 531.998C73.8641 531.774 73.7521 531.499 73.7521 531.172C73.7521 530.845 73.8641 530.575 74.0881 530.36C74.3214 530.136 74.6108 530.024 74.9561 530.024C75.3014 530.024 75.5861 530.136 75.8101 530.36C76.0434 530.575 76.1601 530.845 76.1601 531.172C76.1601 531.499 76.0434 531.774 75.8101 531.998C75.5861 532.213 75.3014 532.32 74.9561 532.32ZM75.9221 533.244V541H73.9621V533.244H75.9221ZM80.1406 534.854V538.606C80.1406 538.867 80.2012 539.059 80.3226 539.18C80.4532 539.292 80.6679 539.348 80.9666 539.348H81.8766V541H80.6446C78.9926 541 78.1666 540.197 78.1666 538.592V534.854H77.2426V533.244H78.1666V531.326H80.1406V533.244H81.8766V534.854H80.1406ZM82.7823 537.122C82.7823 536.319 82.9456 535.619 83.2723 535.022C83.599 534.415 84.0516 533.949 84.6303 533.622C85.209 533.286 85.8716 533.118 86.6183 533.118C87.5796 533.118 88.373 533.361 88.9983 533.846C89.633 534.322 90.0576 534.994 90.2723 535.862H88.1583C88.0463 535.526 87.855 535.265 87.5843 535.078C87.323 534.882 86.9963 534.784 86.6043 534.784C86.0443 534.784 85.601 534.989 85.2743 535.4C84.9476 535.801 84.7843 536.375 84.7843 537.122C84.7843 537.859 84.9476 538.433 85.2743 538.844C85.601 539.245 86.0443 539.446 86.6043 539.446C87.3976 539.446 87.9156 539.091 88.1583 538.382H90.2723C90.0576 539.222 89.633 539.889 88.9983 540.384C88.3636 540.879 87.5703 541.126 86.6183 541.126C85.8716 541.126 85.209 540.963 84.6303 540.636C84.0516 540.3 83.599 539.833 83.2723 539.236C82.9456 538.629 82.7823 537.925 82.7823 537.122ZM95.1522 541.126C94.4055 541.126 93.7335 540.963 93.1362 540.636C92.5389 540.3 92.0675 539.829 91.7222 539.222C91.3862 538.615 91.2182 537.915 91.2182 537.122C91.2182 536.329 91.3909 535.629 91.7362 535.022C92.0909 534.415 92.5715 533.949 93.1782 533.622C93.7849 533.286 94.4615 533.118 95.2082 533.118C95.9549 533.118 96.6315 533.286 97.2382 533.622C97.8449 533.949 98.3209 534.415 98.6662 535.022C99.0209 535.629 99.1982 536.329 99.1982 537.122C99.1982 537.915 99.0162 538.615 98.6522 539.222C98.2975 539.829 97.8122 540.3 97.1962 540.636C96.5895 540.963 95.9082 541.126 95.1522 541.126ZM95.1522 539.418C95.5069 539.418 95.8382 539.334 96.1462 539.166C96.4635 538.989 96.7155 538.727 96.9022 538.382C97.0889 538.037 97.1822 537.617 97.1822 537.122C97.1822 536.385 96.9862 535.82 96.5942 535.428C96.2115 535.027 95.7402 534.826 95.1802 534.826C94.6202 534.826 94.1489 535.027 93.7662 535.428C93.3929 535.82 93.2062 536.385 93.2062 537.122C93.2062 537.859 93.3882 538.429 93.7522 538.83C94.1255 539.222 94.5922 539.418 95.1522 539.418ZM101.63 532.32C101.285 532.32 100.995 532.213 100.762 531.998C100.538 531.774 100.426 531.499 100.426 531.172C100.426 530.845 100.538 530.575 100.762 530.36C100.995 530.136 101.285 530.024 101.63 530.024C101.975 530.024 102.26 530.136 102.484 530.36C102.717 530.575 102.834 530.845 102.834 531.172C102.834 531.499 102.717 531.774 102.484 531.998C102.26 532.213 101.975 532.32 101.63 532.32ZM102.596 533.244V541H100.636V533.244H102.596ZM108.83 533.132C109.754 533.132 110.501 533.426 111.07 534.014C111.64 534.593 111.924 535.405 111.924 536.45V541H109.964V536.716C109.964 536.1 109.81 535.629 109.502 535.302C109.194 534.966 108.774 534.798 108.242 534.798C107.701 534.798 107.272 534.966 106.954 535.302C106.646 535.629 106.492 536.1 106.492 536.716V541H104.532V533.244H106.492V534.21C106.754 533.874 107.085 533.613 107.486 533.426C107.897 533.23 108.345 533.132 108.83 533.132Z" fill="#111111"/>
<path d="M304.053 532.032L299.797 542H297.525L301.813 532.288H296.341V530.368H304.053V532.032ZM306.099 539.472C307.123 538.619 307.939 537.909 308.547 537.344C309.155 536.768 309.662 536.171 310.067 535.552C310.472 534.933 310.675 534.325 310.675 533.728C310.675 533.184 310.547 532.757 310.291 532.448C310.035 532.139 309.64 531.984 309.107 531.984C308.574 531.984 308.163 532.165 307.875 532.528C307.587 532.88 307.438 533.365 307.427 533.984H305.251C305.294 532.704 305.672 531.733 306.387 531.072C307.112 530.411 308.03 530.08 309.139 530.08C310.355 530.08 311.288 530.405 311.939 531.056C312.59 531.696 312.915 532.544 312.915 533.6C312.915 534.432 312.691 535.227 312.243 535.984C311.795 536.741 311.283 537.403 310.707 537.968C310.131 538.523 309.379 539.195 308.451 539.984H313.171V541.84H305.267V540.176L306.099 539.472ZM314.326 533.2C314.326 532.389 314.561 531.755 315.03 531.296C315.51 530.837 316.124 530.608 316.87 530.608C317.617 530.608 318.225 530.837 318.694 531.296C319.174 531.755 319.414 532.389 319.414 533.2C319.414 534.021 319.174 534.661 318.694 535.12C318.225 535.579 317.617 535.808 316.87 535.808C316.124 535.808 315.51 535.579 315.03 535.12C314.561 534.661 314.326 534.021 314.326 533.2ZM324.598 530.8L318.31 542H316.134L322.406 530.8H324.598ZM316.854 531.952C316.268 531.952 315.974 532.368 315.974 533.2C315.974 534.043 316.268 534.464 316.854 534.464C317.142 534.464 317.366 534.363 317.526 534.16C317.686 533.947 317.766 533.627 317.766 533.2C317.766 532.368 317.462 531.952 316.854 531.952ZM321.35 539.584C321.35 538.763 321.585 538.128 322.054 537.68C322.534 537.221 323.148 536.992 323.894 536.992C324.641 536.992 325.244 537.221 325.702 537.68C326.172 538.128 326.406 538.763 326.406 539.584C326.406 540.405 326.172 541.045 325.702 541.504C325.244 541.963 324.641 542.192 323.894 542.192C323.137 542.192 322.524 541.963 322.054 541.504C321.585 541.045 321.35 540.405 321.35 539.584ZM323.878 538.336C323.27 538.336 322.966 538.752 322.966 539.584C322.966 540.427 323.27 540.848 323.878 540.848C324.476 540.848 324.774 540.427 324.774 539.584C324.774 538.752 324.476 538.336 323.878 538.336Z" fill="#111111"/>
<rect x="32" y="562" width="20" height="20" rx="4" fill="#5550FF"/>
<path d="M70.51 571.988C71.0607 572.091 71.5133 572.366 71.868 572.814C72.2227 573.262 72.4 573.775 72.4 574.354C72.4 574.877 72.2693 575.339 72.008 575.74C71.756 576.132 71.3873 576.44 70.902 576.664C70.4167 576.888 69.8427 577 69.18 577H64.966V567.228H68.998C69.6607 567.228 70.23 567.335 70.706 567.55C71.1913 567.765 71.5553 568.063 71.798 568.446C72.05 568.829 72.176 569.263 72.176 569.748C72.176 570.317 72.022 570.793 71.714 571.176C71.4153 571.559 71.014 571.829 70.51 571.988ZM66.926 571.26H68.718C69.1847 571.26 69.544 571.157 69.796 570.952C70.048 570.737 70.174 570.434 70.174 570.042C70.174 569.65 70.048 569.347 69.796 569.132C69.544 568.917 69.1847 568.81 68.718 568.81H66.926V571.26ZM68.9 575.404C69.376 575.404 69.7447 575.292 70.006 575.068C70.2767 574.844 70.412 574.527 70.412 574.116C70.412 573.696 70.272 573.369 69.992 573.136C69.712 572.893 69.334 572.772 68.858 572.772H66.926V575.404H68.9ZM74.9561 568.32C74.6108 568.32 74.3214 568.213 74.0881 567.998C73.8641 567.774 73.7521 567.499 73.7521 567.172C73.7521 566.845 73.8641 566.575 74.0881 566.36C74.3214 566.136 74.6108 566.024 74.9561 566.024C75.3014 566.024 75.5861 566.136 75.8101 566.36C76.0434 566.575 76.1601 566.845 76.1601 567.172C76.1601 567.499 76.0434 567.774 75.8101 567.998C75.5861 568.213 75.3014 568.32 74.9561 568.32ZM75.9221 569.244V577H73.9621V569.244H75.9221ZM80.1406 570.854V574.606C80.1406 574.867 80.2012 575.059 80.3226 575.18C80.4532 575.292 80.6679 575.348 80.9666 575.348H81.8766V577H80.6446C78.9926 577 78.1666 576.197 78.1666 574.592V570.854H77.2426V569.244H78.1666V567.326H80.1406V569.244H81.8766V570.854H80.1406ZM82.7823 573.122C82.7823 572.319 82.9456 571.619 83.2723 571.022C83.599 570.415 84.0516 569.949 84.6303 569.622C85.209 569.286 85.8716 569.118 86.6183 569.118C87.5796 569.118 88.373 569.361 88.9983 569.846C89.633 570.322 90.0576 570.994 90.2723 571.862H88.1583C88.0463 571.526 87.855 571.265 87.5843 571.078C87.323 570.882 86.9963 570.784 86.6043 570.784C86.0443 570.784 85.601 570.989 85.2743 571.4C84.9476 571.801 84.7843 572.375 84.7843 573.122C84.7843 573.859 84.9476 574.433 85.2743 574.844C85.601 575.245 86.0443 575.446 86.6043 575.446C87.3976 575.446 87.9156 575.091 88.1583 574.382H90.2723C90.0576 575.222 89.633 575.889 88.9983 576.384C88.3636 576.879 87.5703 577.126 86.6183 577.126C85.8716 577.126 85.209 576.963 84.6303 576.636C84.0516 576.3 83.599 575.833 83.2723 575.236C82.9456 574.629 82.7823 573.925 82.7823 573.122ZM95.1522 577.126C94.4055 577.126 93.7335 576.963 93.1362 576.636C92.5389 576.3 92.0675 575.829 91.7222 575.222C91.3862 574.615 91.2182 573.915 91.2182 573.122C91.2182 572.329 91.3909 571.629 91.7362 571.022C92.0909 570.415 92.5715 569.949 93.1782 569.622C93.7849 569.286 94.4615 569.118 95.2082 569.118C95.9549 569.118 96.6315 569.286 97.2382 569.622C97.8449 569.949 98.3209 570.415 98.6662 571.022C99.0209 571.629 99.1982 572.329 99.1982 573.122C99.1982 573.915 99.0162 574.615 98.6522 575.222C98.2975 575.829 97.8122 576.3 97.1962 576.636C96.5895 576.963 95.9082 577.126 95.1522 577.126ZM95.1522 575.418C95.5069 575.418 95.8382 575.334 96.1462 575.166C96.4635 574.989 96.7155 574.727 96.9022 574.382C97.0889 574.037 97.1822 573.617 97.1822 573.122C97.1822 572.385 96.9862 571.82 96.5942 571.428C96.2115 571.027 95.7402 570.826 95.1802 570.826C94.6202 570.826 94.1489 571.027 93.7662 571.428C93.3929 571.82 93.2062 572.385 93.2062 573.122C93.2062 573.859 93.3882 574.429 93.7522 574.83C94.1255 575.222 94.5922 575.418 95.1522 575.418ZM101.63 568.32C101.285 568.32 100.995 568.213 100.762 567.998C100.538 567.774 100.426 567.499 100.426 567.172C100.426 566.845 100.538 566.575 100.762 566.36C100.995 566.136 101.285 566.024 101.63 566.024C101.975 566.024 102.26 566.136 102.484 566.36C102.717 566.575 102.834 566.845 102.834 567.172C102.834 567.499 102.717 567.774 102.484 567.998C102.26 568.213 101.975 568.32 101.63 568.32ZM102.596 569.244V577H100.636V569.244H102.596ZM108.83 569.132C109.754 569.132 110.501 569.426 111.07 570.014C111.64 570.593 111.924 571.405 111.924 572.45V577H109.964V572.716C109.964 572.1 109.81 571.629 109.502 571.302C109.194 570.966 108.774 570.798 108.242 570.798C107.701 570.798 107.272 570.966 106.954 571.302C106.646 571.629 106.492 572.1 106.492 572.716V577H104.532V569.244H106.492V570.21C106.754 569.874 107.085 569.613 107.486 569.426C107.897 569.23 108.345 569.132 108.83 569.132Z" fill="#111111"/>
<path d="M304.053 568.032L299.797 578H297.525L301.813 568.288H296.341V566.368H304.053V568.032ZM306.099 575.472C307.123 574.619 307.939 573.909 308.547 573.344C309.155 572.768 309.662 572.171 310.067 571.552C310.472 570.933 310.675 570.325 310.675 569.728C310.675 569.184 310.547 568.757 310.291 568.448C310.035 568.139 309.64 567.984 309.107 567.984C308.574 567.984 308.163 568.165 307.875 568.528C307.587 568.88 307.438 569.365 307.427 569.984H305.251C305.294 568.704 305.672 567.733 306.387 567.072C307.112 566.411 308.03 566.08 309.139 566.08C310.355 566.08 311.288 566.405 311.939 567.056C312.59 567.696 312.915 568.544 312.915 569.6C312.915 570.432 312.691 571.227 312.243 571.984C311.795 572.741 311.283 573.403 310.707 573.968C310.131 574.523 309.379 575.195 308.451 575.984H313.171V577.84H305.267V576.176L306.099 575.472ZM314.326 569.2C314.326 568.389 314.561 567.755 315.03 567.296C315.51 566.837 316.124 566.608 316.87 566.608C317.617 566.608 318.225 566.837 318.694 567.296C319.174 567.755 319.414 568.389 319.414 569.2C319.414 570.021 319.174 570.661 318.694 571.12C318.225 571.579 317.617 571.808 316.87 571.808C316.124 571.808 315.51 571.579 315.03 571.12C314.561 570.661 314.326 570.021 314.326 569.2ZM324.598 566.8L318.31 578H316.134L322.406 566.8H324.598ZM316.854 567.952C316.268 567.952 315.974 568.368 315.974 569.2C315.974 570.043 316.268 570.464 316.854 570.464C317.142 570.464 317.366 570.363 317.526 570.16C317.686 569.947 317.766 569.627 317.766 569.2C317.766 568.368 317.462 567.952 316.854 567.952ZM321.35 575.584C321.35 574.763 321.585 574.128 322.054 573.68C322.534 573.221 323.148 572.992 323.894 572.992C324.641 572.992 325.244 573.221 325.702 573.68C326.172 574.128 326.406 574.763 326.406 575.584C326.406 576.405 326.172 577.045 325.702 577.504C325.244 577.963 324.641 578.192 323.894 578.192C323.137 578.192 322.524 577.963 322.054 577.504C321.585 577.045 321.35 576.405 321.35 575.584ZM323.878 574.336C323.27 574.336 322.966 574.752 322.966 575.584C322.966 576.427 323.27 576.848 323.878 576.848C324.476 576.848 324.774 576.427 324.774 575.584C324.774 574.752 324.476 574.336 323.878 574.336Z" fill="#111111"/>
<rect x="32" y="598" width="20" height="20" rx="4" fill="#5550FF"/>
<path d="M72.176 608.954C72.176 609.234 72.1573 609.486 72.12 609.71H66.45C66.4967 610.27 66.6927 610.709 67.038 611.026C67.3833 611.343 67.808 611.502 68.312 611.502C69.04 611.502 69.558 611.189 69.866 610.564H71.98C71.756 611.311 71.3267 611.927 70.692 612.412C70.0573 612.888 69.278 613.126 68.354 613.126C67.6073 613.126 66.9353 612.963 66.338 612.636C65.75 612.3 65.288 611.829 64.952 611.222C64.6253 610.615 64.462 609.915 64.462 609.122C64.462 608.319 64.6253 607.615 64.952 607.008C65.2787 606.401 65.736 605.935 66.324 605.608C66.912 605.281 67.5887 605.118 68.354 605.118C69.0913 605.118 69.7493 605.277 70.328 605.594C70.916 605.911 71.3687 606.364 71.686 606.952C72.0127 607.531 72.176 608.198 72.176 608.954ZM70.146 608.394C70.1367 607.89 69.9547 607.489 69.6 607.19C69.2453 606.882 68.8113 606.728 68.298 606.728C67.8127 606.728 67.402 606.877 67.066 607.176C66.7393 607.465 66.5387 607.871 66.464 608.394H70.146ZM75.8886 606.854V610.606C75.8886 610.867 75.9493 611.059 76.0706 611.18C76.2013 611.292 76.416 611.348 76.7146 611.348H77.6246V613H76.3926C74.7406 613 73.9146 612.197 73.9146 610.592V606.854H72.9906V605.244H73.9146V603.326H75.8886V605.244H77.6246V606.854H75.8886ZM78.5304 609.122C78.5304 608.319 78.6937 607.619 79.0204 607.022C79.347 606.415 79.7997 605.949 80.3784 605.622C80.957 605.286 81.6197 605.118 82.3664 605.118C83.3277 605.118 84.121 605.361 84.7464 605.846C85.381 606.322 85.8057 606.994 86.0204 607.862H83.9064C83.7944 607.526 83.603 607.265 83.3324 607.078C83.071 606.882 82.7444 606.784 82.3524 606.784C81.7924 606.784 81.349 606.989 81.0224 607.4C80.6957 607.801 80.5324 608.375 80.5324 609.122C80.5324 609.859 80.6957 610.433 81.0224 610.844C81.349 611.245 81.7924 611.446 82.3524 611.446C83.1457 611.446 83.6637 611.091 83.9064 610.382H86.0204C85.8057 611.222 85.381 611.889 84.7464 612.384C84.1117 612.879 83.3184 613.126 82.3664 613.126C81.6197 613.126 80.957 612.963 80.3784 612.636C79.7997 612.3 79.347 611.833 79.0204 611.236C78.6937 610.629 78.5304 609.925 78.5304 609.122Z" fill="#111111"/>
<path d="M304.053 604.032L299.797 614H297.525L301.813 604.288H296.341V602.368H304.053V604.032ZM306.099 611.472C307.123 610.619 307.939 609.909 308.547 609.344C309.155 608.768 309.662 608.171 310.067 607.552C310.472 606.933 310.675 606.325 310.675 605.728C310.675 605.184 310.547 604.757 310.291 604.448C310.035 604.139 309.64 603.984 309.107 603.984C308.574 603.984 308.163 604.165 307.875 604.528C307.587 604.88 307.438 605.365 307.427 605.984H305.251C305.294 604.704 305.672 603.733 306.387 603.072C307.112 602.411 308.03 602.08 309.139 602.08C310.355 602.08 311.288 602.405 311.939 603.056C312.59 603.696 312.915 604.544 312.915 605.6C312.915 606.432 312.691 607.227 312.243 607.984C311.795 608.741 311.283 609.403 310.707 609.968C310.131 610.523 309.379 611.195 308.451 611.984H313.171V613.84H305.267V612.176L306.099 611.472ZM314.326 605.2C314.326 604.389 314.561 603.755 315.03 603.296C315.51 602.837 316.124 602.608 316.87 602.608C317.617 602.608 318.225 602.837 318.694 603.296C319.174 603.755 319.414 604.389 319.414 605.2C319.414 606.021 319.174 606.661 318.694 607.12C318.225 607.579 317.617 607.808 316.87 607.808C316.124 607.808 315.51 607.579 315.03 607.12C314.561 606.661 314.326 606.021 314.326 605.2ZM324.598 602.8L318.31 614H316.134L322.406 602.8H324.598ZM316.854 603.952C316.268 603.952 315.974 604.368 315.974 605.2C315.974 606.043 316.268 606.464 316.854 606.464C317.142 606.464 317.366 606.363 317.526 606.16C317.686 605.947 317.766 605.627 317.766 605.2C317.766 604.368 317.462 603.952 316.854 603.952ZM321.35 611.584C321.35 610.763 321.585 610.128 322.054 609.68C322.534 609.221 323.148 608.992 323.894 608.992C324.641 608.992 325.244 609.221 325.702 609.68C326.172 610.128 326.406 610.763 326.406 611.584C326.406 612.405 326.172 613.045 325.702 613.504C325.244 613.963 324.641 614.192 323.894 614.192C323.137 614.192 322.524 613.963 322.054 613.504C321.585 613.045 321.35 612.405 321.35 611.584ZM323.878 610.336C323.27 610.336 322.966 610.752 322.966 611.584C322.966 612.427 323.27 612.848 323.878 612.848C324.476 612.848 324.774 612.427 324.774 611.584C324.774 610.752 324.476 610.336 323.878 610.336Z" fill="#111111"/>
<path d="M46.328 108.576C46.328 109.552 46.104 110.448 45.656 111.264C45.208 112.064 44.52 112.712 43.592 113.208C42.664 113.704 41.512 113.952 40.136 113.952H37.592V120H33.488V103.152H40.136C41.48 103.152 42.616 103.384 43.544 103.848C44.472 104.312 45.168 104.952 45.632 105.768C46.096 106.584 46.328 107.52 46.328 108.576ZM39.824 110.688C40.608 110.688 41.192 110.504 41.576 110.136C41.96 109.768 42.152 109.248 42.152 108.576C42.152 107.904 41.96 107.384 41.576 107.016C41.192 106.648 40.608 106.464 39.824 106.464H37.592V110.688H39.824ZM54.5606 120.192C53.2486 120.192 52.0646 119.912 51.0086 119.352C49.9686 118.792 49.1446 117.992 48.5366 116.952C47.9446 115.912 47.6486 114.696 47.6486 113.304C47.6486 111.928 47.9526 110.72 48.5606 109.68C49.1686 108.624 50.0006 107.816 51.0566 107.256C52.1126 106.696 53.2966 106.416 54.6086 106.416C55.9206 106.416 57.1046 106.696 58.1606 107.256C59.2166 107.816 60.0486 108.624 60.6566 109.68C61.2646 110.72 61.5686 111.928 61.5686 113.304C61.5686 114.68 61.2566 115.896 60.6326 116.952C60.0246 117.992 59.1846 118.792 58.1126 119.352C57.0566 119.912 55.8726 120.192 54.5606 120.192ZM54.5606 116.64C55.3446 116.64 56.0086 116.352 56.5526 115.776C57.1126 115.2 57.3926 114.376 57.3926 113.304C57.3926 112.232 57.1206 111.408 56.5766 110.832C56.0486 110.256 55.3926 109.968 54.6086 109.968C53.8086 109.968 53.1446 110.256 52.6166 110.832C52.0886 111.392 51.8246 112.216 51.8246 113.304C51.8246 114.376 52.0806 115.2 52.5926 115.776C53.1206 116.352 53.7766 116.64 54.5606 116.64ZM67.8498 108.84C68.3298 108.104 68.9298 107.528 69.6498 107.112C70.3698 106.68 71.1698 106.464 72.0498 106.464V110.808H70.9218C69.8978 110.808 69.1298 111.032 68.6178 111.48C68.1058 111.912 67.8498 112.68 67.8498 113.784V120H63.7458V106.608H67.8498V108.84ZM80.7314 110.016H78.5234V120H74.4194V110.016H72.9314V106.608H74.4194V106.224C74.4194 104.576 74.8914 103.328 75.8354 102.48C76.7794 101.616 78.1634 101.184 79.9874 101.184C80.2914 101.184 80.5154 101.192 80.6594 101.208V104.688C79.8754 104.64 79.3234 104.752 79.0034 105.024C78.6834 105.296 78.5234 105.784 78.5234 106.488V106.608H80.7314V110.016ZM88.7559 120.192C87.4439 120.192 86.2599 119.912 85.2039 119.352C84.1639 118.792 83.3399 117.992 82.7319 116.952C82.1399 115.912 81.8439 114.696 81.8439 113.304C81.8439 111.928 82.1479 110.72 82.7559 109.68C83.3639 108.624 84.1959 107.816 85.2519 107.256C86.3079 106.696 87.4919 106.416 88.8039 106.416C90.1159 106.416 91.2999 106.696 92.3559 107.256C93.4119 107.816 94.2439 108.624 94.8519 109.68C95.4599 110.72 95.7639 111.928 95.7639 113.304C95.7639 114.68 95.4519 115.896 94.8279 116.952C94.2199 117.992 93.3799 118.792 92.3079 119.352C91.2519 119.912 90.0679 120.192 88.7559 120.192ZM88.7559 116.64C89.5399 116.64 90.2039 116.352 90.7479 115.776C91.3079 115.2 91.5879 114.376 91.5879 113.304C91.5879 112.232 91.3159 111.408 90.7719 110.832C90.2439 110.256 89.5879 109.968 88.8039 109.968C88.0039 109.968 87.3399 110.256 86.8119 110.832C86.2839 111.392 86.0199 112.216 86.0199 113.304C86.0199 114.376 86.2759 115.2 86.7879 115.776C87.3159 116.352 87.9719 116.64 88.7559 116.64ZM102.045 102.24V120H97.9411V102.24H102.045ZM107.083 105.216C106.363 105.216 105.771 105.008 105.307 104.592C104.859 104.16 104.635 103.632 104.635 103.008C104.635 102.368 104.859 101.84 105.307 101.424C105.771 100.992 106.363 100.776 107.083 100.776C107.787 100.776 108.363 100.992 108.811 101.424C109.275 101.84 109.507 102.368 109.507 103.008C109.507 103.632 109.275 104.16 108.811 104.592C108.363 105.008 107.787 105.216 107.083 105.216ZM109.123 106.608V120H105.019V106.608H109.123ZM118.193 120.192C116.881 120.192 115.697 119.912 114.641 119.352C113.601 118.792 112.777 117.992 112.169 116.952C111.577 115.912 111.281 114.696 111.281 113.304C111.281 111.928 111.585 110.72 112.193 109.68C112.801 108.624 113.633 107.816 114.689 107.256C115.745 106.696 116.929 106.416 118.241 106.416C119.553 106.416 120.737 106.696 121.793 107.256C122.849 107.816 123.681 108.624 124.289 109.68C124.897 110.72 125.201 111.928 125.201 113.304C125.201 114.68 124.889 115.896 124.265 116.952C123.657 117.992 122.817 118.792 121.745 119.352C120.689 119.912 119.505 120.192 118.193 120.192ZM118.193 116.64C118.977 116.64 119.641 116.352 120.185 115.776C120.745 115.2 121.025 114.376 121.025 113.304C121.025 112.232 120.753 111.408 120.209 110.832C119.681 110.256 119.025 109.968 118.241 109.968C117.441 109.968 116.777 110.256 116.249 110.832C115.721 111.392 115.457 112.216 115.457 113.304C115.457 114.376 115.713 115.2 116.225 115.776C116.753 116.352 117.409 116.64 118.193 116.64ZM131.625 106.296V102.48H138.273V120H134.001V106.296H131.625Z" fill="#111111"/>
<path d="M235.286 112.13C235.286 116.318 238.739 119.714 243 119.714C247.26 119.714 250.714 116.318 250.714 112.13C250.714 107.942 247.286 104.547 243 104.547C237.857 104.547 235.286 108.76 235.286 108.76M235.286 108.76V104.285M235.286 108.76H239.276" stroke="#9CA3AF" stroke-width="1.8" stroke-linecap="round" stroke-linejoin="round"/>
<path d="M275.689 120.25H271.5C271.301 120.25 271.11 120.171 270.97 120.03C270.829 119.89 270.75 119.699 270.75 119.5V115.311C270.75 115.212 270.769 115.115 270.807 115.024C270.845 114.933 270.9 114.85 270.97 114.78L282.22 103.53C282.36 103.39 282.551 103.311 282.75 103.311C282.949 103.311 283.14 103.39 283.28 103.53L287.47 107.72C287.61 107.86 287.689 108.051 287.689 108.25C287.689 108.449 287.61 108.64 287.47 108.78L276.22 120.03C276.15 120.1 276.067 120.155 275.976 120.193C275.885 120.23 275.788 120.25 275.689 120.25Z" stroke="#9CA3AF" stroke-width="1.8" stroke-linecap="round" stroke-linejoin="round"/>
<path d="M279.75 106L285 111.25" stroke="#9CA3AF" stroke-width="1.8" stroke-linecap="round" stroke-linejoin="round"/>
<path d="M275.952 120.201L270.798 115.047" stroke="#9CA3AF" stroke-width="1.8" stroke-linecap="round" stroke-linejoin="round"/>
<g clip-path="url(#clip0_1631_43852)">
<path d="M322 107L321.133 119.142C321.097 119.647 320.871 120.119 320.501 120.464C320.131 120.808 319.644 121 319.138 121H310.862C310.356 121 309.869 120.808 309.499 120.464C309.129 120.119 308.903 119.647 308.867 119.142L308 107M307 107H323H307ZM312 107V104C312 103.735 312.105 103.48 312.293 103.293C312.48 103.105 312.735 103 313 103H317C317.265 103 317.52 103.105 317.707 103.293C317.895 103.48 318 103.735 318 104V107H312ZM313 111V117V111ZM317 111V117V111Z" stroke="#9CA3AF" stroke-width="1.8" stroke-linecap="round" stroke-linejoin="round"/>
</g>
<path d="M296.854 664.168C296.854 664.663 296.737 665.129 296.504 665.568C296.271 666.007 295.897 666.366 295.384 666.646C294.871 666.917 294.213 667.052 293.41 667.052H291.646V671H290.05V661.27H293.41C294.157 661.27 294.787 661.401 295.3 661.662C295.823 661.914 296.21 662.259 296.462 662.698C296.723 663.137 296.854 663.627 296.854 664.168ZM293.41 665.75C294.017 665.75 294.469 665.615 294.768 665.344C295.067 665.064 295.216 664.672 295.216 664.168C295.216 663.104 294.614 662.572 293.41 662.572H291.646V665.75H293.41ZM301.722 671.126C300.994 671.126 300.336 670.963 299.748 670.636C299.16 670.3 298.698 669.833 298.362 669.236C298.026 668.629 297.858 667.929 297.858 667.136C297.858 666.352 298.031 665.657 298.376 665.05C298.722 664.443 299.193 663.977 299.79 663.65C300.388 663.323 301.055 663.16 301.792 663.16C302.53 663.16 303.197 663.323 303.794 663.65C304.392 663.977 304.863 664.443 305.208 665.05C305.554 665.657 305.726 666.352 305.726 667.136C305.726 667.92 305.549 668.615 305.194 669.222C304.84 669.829 304.354 670.3 303.738 670.636C303.132 670.963 302.46 671.126 301.722 671.126ZM301.722 669.74C302.133 669.74 302.516 669.642 302.87 669.446C303.234 669.25 303.528 668.956 303.752 668.564C303.976 668.172 304.088 667.696 304.088 667.136C304.088 666.576 303.981 666.105 303.766 665.722C303.552 665.33 303.267 665.036 302.912 664.84C302.558 664.644 302.175 664.546 301.764 664.546C301.354 664.546 300.971 664.644 300.616 664.84C300.271 665.036 299.996 665.33 299.79 665.722C299.585 666.105 299.482 666.576 299.482 667.136C299.482 667.967 299.692 668.611 300.112 669.068C300.542 669.516 301.078 669.74 301.722 669.74ZM308.9 664.406C309.133 664.014 309.441 663.711 309.824 663.496C310.216 663.272 310.678 663.16 311.21 663.16V664.812H310.804C310.179 664.812 309.703 664.971 309.376 665.288C309.059 665.605 308.9 666.156 308.9 666.94V671H307.304V663.286H308.9V664.406ZM314.539 664.588V668.858C314.539 669.147 314.604 669.357 314.735 669.488C314.875 669.609 315.108 669.67 315.435 669.67H316.415V671H315.155C314.436 671 313.886 670.832 313.503 670.496C313.12 670.16 312.929 669.614 312.929 668.858V664.588H312.019V663.286H312.929V661.368H314.539V663.286H316.415V664.588H314.539ZM321.12 664.588H319.692V671H318.082V664.588H317.172V663.286H318.082V662.74C318.082 661.853 318.315 661.209 318.782 660.808C319.258 660.397 320 660.192 321.008 660.192V661.522C320.523 661.522 320.182 661.615 319.986 661.802C319.79 661.979 319.692 662.292 319.692 662.74V663.286H321.12V664.588ZM325.88 671.126C325.152 671.126 324.494 670.963 323.906 670.636C323.318 670.3 322.856 669.833 322.52 669.236C322.184 668.629 322.016 667.929 322.016 667.136C322.016 666.352 322.189 665.657 322.534 665.05C322.88 664.443 323.351 663.977 323.948 663.65C324.546 663.323 325.213 663.16 325.95 663.16C326.688 663.16 327.355 663.323 327.952 663.65C328.55 663.977 329.021 664.443 329.366 665.05C329.712 665.657 329.884 666.352 329.884 667.136C329.884 667.92 329.707 668.615 329.352 669.222C328.998 669.829 328.512 670.3 327.896 670.636C327.29 670.963 326.618 671.126 325.88 671.126ZM325.88 669.74C326.291 669.74 326.674 669.642 327.028 669.446C327.392 669.25 327.686 668.956 327.91 668.564C328.134 668.172 328.246 667.696 328.246 667.136C328.246 666.576 328.139 666.105 327.924 665.722C327.71 665.33 327.425 665.036 327.07 664.84C326.716 664.644 326.333 664.546 325.922 664.546C325.512 664.546 325.129 664.644 324.774 664.84C324.429 665.036 324.154 665.33 323.948 665.722C323.743 666.105 323.64 666.576 323.64 667.136C323.64 667.967 323.85 668.611 324.27 669.068C324.7 669.516 325.236 669.74 325.88 669.74ZM333.058 660.64V671H331.462V660.64H333.058ZM335.966 662.264C335.676 662.264 335.434 662.166 335.238 661.97C335.042 661.774 334.944 661.531 334.944 661.242C334.944 660.953 335.042 660.71 335.238 660.514C335.434 660.318 335.676 660.22 335.966 660.22C336.246 660.22 336.484 660.318 336.68 660.514C336.876 660.71 336.974 660.953 336.974 661.242C336.974 661.531 336.876 661.774 336.68 661.97C336.484 662.166 336.246 662.264 335.966 662.264ZM336.75 663.286V671H335.154V663.286H336.75ZM342.191 671.126C341.463 671.126 340.805 670.963 340.217 670.636C339.629 670.3 339.167 669.833 338.831 669.236C338.495 668.629 338.327 667.929 338.327 667.136C338.327 666.352 338.5 665.657 338.845 665.05C339.19 664.443 339.662 663.977 340.259 663.65C340.856 663.323 341.524 663.16 342.261 663.16C342.998 663.16 343.666 663.323 344.263 663.65C344.86 663.977 345.332 664.443 345.677 665.05C346.022 665.657 346.195 666.352 346.195 667.136C346.195 667.92 346.018 668.615 345.663 669.222C345.308 669.829 344.823 670.3 344.207 670.636C343.6 670.963 342.928 671.126 342.191 671.126ZM342.191 669.74C342.602 669.74 342.984 669.642 343.339 669.446C343.703 669.25 343.997 668.956 344.221 668.564C344.445 668.172 344.557 667.696 344.557 667.136C344.557 666.576 344.45 666.105 344.235 665.722C344.02 665.33 343.736 665.036 343.381 664.84C343.026 664.644 342.644 664.546 342.233 664.546C341.822 664.546 341.44 664.644 341.085 664.84C340.74 665.036 340.464 665.33 340.259 665.722C340.054 666.105 339.951 666.576 339.951 667.136C339.951 667.967 340.161 668.611 340.581 669.068C341.01 669.516 341.547 669.74 342.191 669.74Z" fill="#9CA3AF"/>
<defs>
<filter id="filter0_d_1631_43852" x="0" y="0" width="359" height="652" filterUnits="userSpaceOnUse" color-interpolation-filters="sRGB">
<feFlood flood-opacity="0" result="BackgroundImageFix"/>
<feColorMatrix in="SourceAlpha" type="matrix" values="0 0 0 0 0 0 0 0 0 0 0 0 0 0 0 0 0 0 127 0" result="hardAlpha"/>
<feOffset/>
<feGaussianBlur stdDeviation="6"/>
<feComposite in2="hardAlpha" operator="out"/>
<feColorMatrix type="matrix" values="0 0 0 0 0.47451 0 0 0 0 0.470588 0 0 0 0 0.517647 0 0 0 0.15 0"/>
<feBlend mode="normal" in2="BackgroundImageFix" result="effect1_dropShadow_1631_43852"/>
<feBlend mode="normal" in="SourceGraphic" in2="effect1_dropShadow_1631_43852" result="shape"/>
</filter>
<linearGradient id="paint0_linear_1631_43852" x1="146.539" y1="356.965" x2="173.773" y2="820.424" gradientUnits="userSpaceOnUse">
<stop stop-color="#1B59F8"/>
<stop offset="1" stop-color="#1B59F8" stop-opacity="0.46"/>
</linearGradient>
<clipPath id="clip0_1631_43852">
<rect width="24" height="24" fill="white" transform="translate(303 100)"/>
</clipPath>
</defs>
</svg>
