<svg width="112" height="88" viewBox="0 0 112 88" fill="none" xmlns="http://www.w3.org/2000/svg">
<g filter="url(#filter0_d_910_39423)">
<rect x="12" y="12" width="88" height="64" rx="20" fill="white"/>
</g>
<rect x="32" y="32" width="48" height="24" rx="12" fill="#E6F5F0"/>
<path d="M46.508 46.668H49.268V48H44.828V39.624H46.508V46.668ZM53.2878 48.108C52.6478 48.108 52.0718 47.968 51.5598 47.688C51.0478 47.4 50.6438 46.996 50.3478 46.476C50.0598 45.956 49.9158 45.356 49.9158 44.676C49.9158 43.996 50.0638 43.396 50.3598 42.876C50.6638 42.356 51.0758 41.956 51.5958 41.676C52.1158 41.388 52.6958 41.244 53.3358 41.244C53.9758 41.244 54.5558 41.388 55.0758 41.676C55.5958 41.956 56.0038 42.356 56.2998 42.876C56.6038 43.396 56.7558 43.996 56.7558 44.676C56.7558 45.356 56.5998 45.956 56.2878 46.476C55.9838 46.996 55.5678 47.4 55.0398 47.688C54.5198 47.968 53.9358 48.108 53.2878 48.108ZM53.2878 46.644C53.5918 46.644 53.8758 46.572 54.1398 46.428C54.4118 46.276 54.6278 46.052 54.7878 45.756C54.9478 45.46 55.0278 45.1 55.0278 44.676C55.0278 44.044 54.8598 43.56 54.5238 43.224C54.1958 42.88 53.7918 42.708 53.3118 42.708C52.8318 42.708 52.4278 42.88 52.0998 43.224C51.7798 43.56 51.6198 44.044 51.6198 44.676C51.6198 45.308 51.7758 45.796 52.0878 46.14C52.4078 46.476 52.8078 46.644 53.2878 46.644ZM67.2042 41.352L65.2602 48H63.4482L62.2362 43.356L61.0242 48H59.2002L57.2442 41.352H58.9482L60.1242 46.416L61.3962 41.352H63.1722L64.4202 46.404L65.5962 41.352H67.2042Z" fill="#34BB7A"/>
<defs>
<filter id="filter0_d_910_39423" x="0" y="0" width="112" height="88" filterUnits="userSpaceOnUse" color-interpolation-filters="sRGB">
<feFlood flood-opacity="0" result="BackgroundImageFix"/>
<feColorMatrix in="SourceAlpha" type="matrix" values="0 0 0 0 0 0 0 0 0 0 0 0 0 0 0 0 0 0 127 0" result="hardAlpha"/>
<feOffset/>
<feGaussianBlur stdDeviation="6"/>
<feComposite in2="hardAlpha" operator="out"/>
<feColorMatrix type="matrix" values="0 0 0 0 0.475936 0 0 0 0 0.469306 0 0 0 0 0.516667 0 0 0 0.15 0"/>
<feBlend mode="normal" in2="BackgroundImageFix" result="effect1_dropShadow_910_39423"/>
<feBlend mode="normal" in="SourceGraphic" in2="effect1_dropShadow_910_39423" result="shape"/>
</filter>
</defs>
</svg>
