<svg width="359" height="335" viewBox="0 0 359 335" fill="none" xmlns="http://www.w3.org/2000/svg">
<g filter="url(#filter0_d_910_39483)">
<rect x="12" y="12" width="335" height="311" rx="20" fill="white"/>
</g>
<path d="M40.092 40.252C40.092 40.7747 39.966 41.2647 39.714 41.722C39.4713 42.1793 39.084 42.548 38.552 42.828C38.0293 43.108 37.3667 43.248 36.564 43.248H34.926V47H32.966V37.228H36.564C37.32 37.228 37.964 37.3587 38.496 37.62C39.028 37.8813 39.4247 38.2407 39.686 38.698C39.9567 39.1553 40.092 39.6733 40.092 40.252ZM36.48 41.666C37.0213 41.666 37.4227 41.5447 37.684 41.302C37.9453 41.05 38.076 40.7 38.076 40.252C38.076 39.3 37.544 38.824 36.48 38.824H34.926V41.666H36.48ZM43.4436 40.448C43.6956 40.0373 44.0222 39.7153 44.4236 39.482C44.8342 39.2487 45.3009 39.132 45.8236 39.132V41.19H45.3056C44.6896 41.19 44.2229 41.3347 43.9056 41.624C43.5976 41.9133 43.4436 42.4173 43.4436 43.136V47H41.4836V39.244H43.4436V40.448ZM48.1377 38.32C47.7924 38.32 47.5031 38.2127 47.2697 37.998C47.0457 37.774 46.9337 37.4987 46.9337 37.172C46.9337 36.8453 47.0457 36.5747 47.2697 36.36C47.5031 36.136 47.7924 36.024 48.1377 36.024C48.4831 36.024 48.7677 36.136 48.9917 36.36C49.2251 36.5747 49.3417 36.8453 49.3417 37.172C49.3417 37.4987 49.2251 37.774 48.9917 37.998C48.7677 38.2127 48.4831 38.32 48.1377 38.32ZM49.1037 39.244V47H47.1437V39.244H49.1037ZM50.5362 43.122C50.5362 42.3193 50.6996 41.6193 51.0262 41.022C51.3529 40.4153 51.8056 39.9487 52.3842 39.622C52.9629 39.286 53.6256 39.118 54.3722 39.118C55.3336 39.118 56.1269 39.3607 56.7522 39.846C57.3869 40.322 57.8116 40.994 58.0262 41.862H55.9122C55.8002 41.526 55.6089 41.2647 55.3382 41.078C55.0769 40.882 54.7502 40.784 54.3582 40.784C53.7982 40.784 53.3549 40.9893 53.0282 41.4C52.7016 41.8013 52.5382 42.3753 52.5382 43.122C52.5382 43.8593 52.7016 44.4333 53.0282 44.844C53.3549 45.2453 53.7982 45.446 54.3582 45.446C55.1516 45.446 55.6696 45.0913 55.9122 44.382H58.0262C57.8116 45.222 57.3869 45.8893 56.7522 46.384C56.1176 46.8787 55.3242 47.126 54.3722 47.126C53.6256 47.126 52.9629 46.9627 52.3842 46.636C51.8056 46.3 51.3529 45.8333 51.0262 45.236C50.6996 44.6293 50.5362 43.9247 50.5362 43.122ZM66.6721 42.954C66.6721 43.234 66.6534 43.486 66.6161 43.71H60.9461C60.9928 44.27 61.1888 44.7087 61.5341 45.026C61.8794 45.3433 62.3041 45.502 62.8081 45.502C63.5361 45.502 64.0541 45.1893 64.3621 44.564H66.4761C66.2521 45.3107 65.8228 45.9267 65.1881 46.412C64.5534 46.888 63.7741 47.126 62.8501 47.126C62.1034 47.126 61.4314 46.9627 60.8341 46.636C60.2461 46.3 59.7841 45.8287 59.4481 45.222C59.1214 44.6153 58.9581 43.9153 58.9581 43.122C58.9581 42.3193 59.1214 41.6147 59.4481 41.008C59.7748 40.4013 60.2321 39.9347 60.8201 39.608C61.4081 39.2813 62.0848 39.118 62.8501 39.118C63.5874 39.118 64.2454 39.2767 64.8241 39.594C65.4121 39.9113 65.8648 40.364 66.1821 40.952C66.5088 41.5307 66.6721 42.198 66.6721 42.954ZM64.6421 42.394C64.6328 41.89 64.4508 41.4887 64.0961 41.19C63.7414 40.882 63.3074 40.728 62.7941 40.728C62.3088 40.728 61.8981 40.8773 61.5621 41.176C61.2354 41.4653 61.0348 41.8713 60.9601 42.394H64.6421Z" fill="#9CA3AF"/>
<path d="M34.9127 73.84C36.1927 72.7733 37.2127 71.8867 37.9727 71.18C38.7327 70.46 39.366 69.7133 39.8727 68.94C40.3793 68.1667 40.6327 67.4067 40.6327 66.66C40.6327 65.98 40.4727 65.4467 40.1527 65.06C39.8327 64.6733 39.3393 64.48 38.6727 64.48C38.006 64.48 37.4927 64.7067 37.1327 65.16C36.7727 65.6 36.586 66.2067 36.5727 66.98H33.8527C33.906 65.38 34.3793 64.1667 35.2727 63.34C36.1793 62.5133 37.326 62.1 38.7127 62.1C40.2327 62.1 41.3993 62.5067 42.2127 63.32C43.026 64.12 43.4327 65.18 43.4327 66.5C43.4327 67.54 43.1527 68.5333 42.5927 69.48C42.0327 70.4267 41.3927 71.2533 40.6727 71.96C39.9527 72.6533 39.0127 73.4933 37.8527 74.48H43.7527V76.8H33.8727V74.72L34.9127 73.84ZM47.957 69.28C46.6237 68.5867 45.957 67.5133 45.957 66.06C45.957 65.34 46.137 64.6867 46.497 64.1C46.8704 63.5 47.4237 63.0267 48.157 62.68C48.9037 62.32 49.8104 62.14 50.877 62.14C51.9437 62.14 52.8437 62.32 53.577 62.68C54.3237 63.0267 54.877 63.5 55.237 64.1C55.6104 64.6867 55.797 65.34 55.797 66.06C55.797 66.7933 55.617 67.44 55.257 68C54.897 68.5467 54.417 68.9733 53.817 69.28C54.5504 69.6 55.1237 70.0667 55.537 70.68C55.9504 71.2933 56.157 72.02 56.157 72.86C56.157 73.7667 55.9237 74.56 55.457 75.24C55.0037 75.9067 54.377 76.42 53.577 76.78C52.777 77.14 51.877 77.32 50.877 77.32C49.877 77.32 48.977 77.14 48.177 76.78C47.3904 76.42 46.7637 75.9067 46.297 75.24C45.8437 74.56 45.617 73.7667 45.617 72.86C45.617 72.02 45.8237 71.2933 46.237 70.68C46.6504 70.0533 47.2237 69.5867 47.957 69.28ZM53.077 66.46C53.077 65.8067 52.877 65.3 52.477 64.94C52.0904 64.58 51.557 64.4 50.877 64.4C50.2104 64.4 49.677 64.58 49.277 64.94C48.8904 65.3 48.697 65.8133 48.697 66.48C48.697 67.08 48.897 67.56 49.297 67.92C49.7104 68.28 50.237 68.46 50.877 68.46C51.517 68.46 52.0437 68.28 52.457 67.92C52.8704 67.5467 53.077 67.06 53.077 66.46ZM50.877 70.5C50.117 70.5 49.497 70.6933 49.017 71.08C48.5504 71.4667 48.317 72.02 48.317 72.74C48.317 73.4067 48.5437 73.9533 48.997 74.38C49.4637 74.7933 50.0904 75 50.877 75C51.6637 75 52.2837 74.7867 52.737 74.36C53.1904 73.9333 53.417 73.3933 53.417 72.74C53.417 72.0333 53.1837 71.4867 52.717 71.1C52.2504 70.7 51.637 70.5 50.877 70.5ZM61.7486 74.06L59.4086 79.68H57.6086L58.9086 74.06H61.7486ZM72.7267 64.54L67.4067 77H64.5667L69.9267 64.86H63.0867V62.46H72.7267V64.54ZM74.4038 69.52C74.4038 67.2133 74.8171 65.4067 75.6438 64.1C76.4838 62.7933 77.8704 62.14 79.8038 62.14C81.7371 62.14 83.1171 62.7933 83.9438 64.1C84.7838 65.4067 85.2038 67.2133 85.2038 69.52C85.2038 71.84 84.7838 73.66 83.9438 74.98C83.1171 76.3 81.7371 76.96 79.8038 76.96C77.8704 76.96 76.4838 76.3 75.6438 74.98C74.8171 73.66 74.4038 71.84 74.4038 69.52ZM82.4438 69.52C82.4438 68.5333 82.3771 67.7067 82.2438 67.04C82.1238 66.36 81.8704 65.8067 81.4838 65.38C81.1104 64.9533 80.5504 64.74 79.8038 64.74C79.0571 64.74 78.4904 64.9533 78.1038 65.38C77.7304 65.8067 77.4771 66.36 77.3438 67.04C77.2238 67.7067 77.1638 68.5333 77.1638 69.52C77.1638 70.5333 77.2238 71.3867 77.3438 72.08C77.4638 72.76 77.7171 73.3133 78.1038 73.74C78.4904 74.1533 79.0571 74.36 79.8038 74.36C80.5504 74.36 81.1171 74.1533 81.5038 73.74C81.8904 73.3133 82.1438 72.76 82.2638 72.08C82.3838 71.3867 82.4438 70.5333 82.4438 69.52ZM87.3334 69.52C87.3334 67.2133 87.7468 65.4067 88.5734 64.1C89.4134 62.7933 90.8001 62.14 92.7334 62.14C94.6668 62.14 96.0468 62.7933 96.8734 64.1C97.7134 65.4067 98.1334 67.2133 98.1334 69.52C98.1334 71.84 97.7134 73.66 96.8734 74.98C96.0468 76.3 94.6668 76.96 92.7334 76.96C90.8001 76.96 89.4134 76.3 88.5734 74.98C87.7468 73.66 87.3334 71.84 87.3334 69.52ZM95.3734 69.52C95.3734 68.5333 95.3068 67.7067 95.1734 67.04C95.0534 66.36 94.8001 65.8067 94.4134 65.38C94.0401 64.9533 93.4801 64.74 92.7334 64.74C91.9868 64.74 91.4201 64.9533 91.0334 65.38C90.6601 65.8067 90.4068 66.36 90.2734 67.04C90.1534 67.7067 90.0934 68.5333 90.0934 69.52C90.0934 70.5333 90.1534 71.3867 90.2734 72.08C90.3934 72.76 90.6468 73.3133 91.0334 73.74C91.4201 74.1533 91.9868 74.36 92.7334 74.36C93.4801 74.36 94.0468 74.1533 94.4334 73.74C94.8201 73.3133 95.0734 72.76 95.1934 72.08C95.3134 71.3867 95.3734 70.5333 95.3734 69.52ZM100.263 69.52C100.263 67.2133 100.676 65.4067 101.503 64.1C102.343 62.7933 103.73 62.14 105.663 62.14C107.596 62.14 108.976 62.7933 109.803 64.1C110.643 65.4067 111.063 67.2133 111.063 69.52C111.063 71.84 110.643 73.66 109.803 74.98C108.976 76.3 107.596 76.96 105.663 76.96C103.73 76.96 102.343 76.3 101.503 74.98C100.676 73.66 100.263 71.84 100.263 69.52ZM108.303 69.52C108.303 68.5333 108.236 67.7067 108.103 67.04C107.983 66.36 107.73 65.8067 107.343 65.38C106.97 64.9533 106.41 64.74 105.663 64.74C104.916 64.74 104.35 64.9533 103.963 65.38C103.59 65.8067 103.336 66.36 103.203 67.04C103.083 67.7067 103.023 68.5333 103.023 69.52C103.023 70.5333 103.083 71.3867 103.203 72.08C103.323 72.76 103.576 73.3133 103.963 73.74C104.35 74.1533 104.916 74.36 105.663 74.36C106.41 74.36 106.976 74.1533 107.363 73.74C107.75 73.3133 108.003 72.76 108.123 72.08C108.243 71.3867 108.303 70.5333 108.303 69.52ZM116.573 74.06L114.233 79.68H112.433L113.733 74.06H116.573ZM118.271 69.52C118.271 67.2133 118.684 65.4067 119.511 64.1C120.351 62.7933 121.738 62.14 123.671 62.14C125.604 62.14 126.984 62.7933 127.811 64.1C128.651 65.4067 129.071 67.2133 129.071 69.52C129.071 71.84 128.651 73.66 127.811 74.98C126.984 76.3 125.604 76.96 123.671 76.96C121.738 76.96 120.351 76.3 119.511 74.98C118.684 73.66 118.271 71.84 118.271 69.52ZM126.311 69.52C126.311 68.5333 126.244 67.7067 126.111 67.04C125.991 66.36 125.738 65.8067 125.351 65.38C124.978 64.9533 124.418 64.74 123.671 64.74C122.924 64.74 122.358 64.9533 121.971 65.38C121.598 65.8067 121.344 66.36 121.211 67.04C121.091 67.7067 121.031 68.5333 121.031 69.52C121.031 70.5333 121.091 71.3867 121.211 72.08C121.331 72.76 121.584 73.3133 121.971 73.74C122.358 74.1533 122.924 74.36 123.671 74.36C124.418 74.36 124.984 74.1533 125.371 73.74C125.758 73.3133 126.011 72.76 126.131 72.08C126.251 71.3867 126.311 70.5333 126.311 69.52ZM131.201 69.52C131.201 67.2133 131.614 65.4067 132.441 64.1C133.281 62.7933 134.667 62.14 136.601 62.14C138.534 62.14 139.914 62.7933 140.741 64.1C141.581 65.4067 142.001 67.2133 142.001 69.52C142.001 71.84 141.581 73.66 140.741 74.98C139.914 76.3 138.534 76.96 136.601 76.96C134.667 76.96 133.281 76.3 132.441 74.98C131.614 73.66 131.201 71.84 131.201 69.52ZM139.241 69.52C139.241 68.5333 139.174 67.7067 139.041 67.04C138.921 66.36 138.667 65.8067 138.281 65.38C137.907 64.9533 137.347 64.74 136.601 64.74C135.854 64.74 135.287 64.9533 134.901 65.38C134.527 65.8067 134.274 66.36 134.141 67.04C134.021 67.7067 133.961 68.5333 133.961 69.52C133.961 70.5333 134.021 71.3867 134.141 72.08C134.261 72.76 134.514 73.3133 134.901 73.74C135.287 74.1533 135.854 74.36 136.601 74.36C137.347 74.36 137.914 74.1533 138.301 73.74C138.687 73.3133 138.941 72.76 139.061 72.08C139.181 71.3867 139.241 70.5333 139.241 69.52ZM144.13 69.52C144.13 67.2133 144.544 65.4067 145.37 64.1C146.21 62.7933 147.597 62.14 149.53 62.14C151.464 62.14 152.844 62.7933 153.67 64.1C154.51 65.4067 154.93 67.2133 154.93 69.52C154.93 71.84 154.51 73.66 153.67 74.98C152.844 76.3 151.464 76.96 149.53 76.96C147.597 76.96 146.21 76.3 145.37 74.98C144.544 73.66 144.13 71.84 144.13 69.52ZM152.17 69.52C152.17 68.5333 152.104 67.7067 151.97 67.04C151.85 66.36 151.597 65.8067 151.21 65.38C150.837 64.9533 150.277 64.74 149.53 64.74C148.784 64.74 148.217 64.9533 147.83 65.38C147.457 65.8067 147.204 66.36 147.07 67.04C146.95 67.7067 146.89 68.5333 146.89 69.52C146.89 70.5333 146.95 71.3867 147.07 72.08C147.19 72.76 147.444 73.3133 147.83 73.74C148.217 74.1533 148.784 74.36 149.53 74.36C150.277 74.36 150.844 74.1533 151.23 73.74C151.617 73.3133 151.87 72.76 151.99 72.08C152.11 71.3867 152.17 70.5333 152.17 69.52Z" fill="#111111"/>
<path d="M33.9114 103.472C34.9354 102.619 35.7514 101.909 36.3594 101.344C36.9674 100.768 37.474 100.171 37.8794 99.552C38.2847 98.9333 38.4874 98.3253 38.4874 97.728C38.4874 97.184 38.3594 96.7573 38.1034 96.448C37.8474 96.1387 37.4527 95.984 36.9194 95.984C36.386 95.984 35.9754 96.1653 35.6874 96.528C35.3994 96.88 35.25 97.3653 35.2394 97.984H33.0634C33.106 96.704 33.4847 95.7333 34.1994 95.072C34.9247 94.4107 35.842 94.08 36.9514 94.08C38.1674 94.08 39.1007 94.4053 39.7514 95.056C40.402 95.696 40.7274 96.544 40.7274 97.6C40.7274 98.432 40.5034 99.2267 40.0554 99.984C39.6074 100.741 39.0954 101.403 38.5194 101.968C37.9434 102.523 37.1914 103.195 36.2634 103.984H40.9834V105.84H33.0794V104.176L33.9114 103.472ZM43.6429 106.112C43.2375 106.112 42.9015 105.989 42.6349 105.744C42.3789 105.488 42.2509 105.173 42.2509 104.8C42.2509 104.427 42.3789 104.117 42.6349 103.872C42.9015 103.616 43.2375 103.488 43.6429 103.488C44.0375 103.488 44.3629 103.616 44.6189 103.872C44.8749 104.117 45.0029 104.427 45.0029 104.8C45.0029 105.173 44.8749 105.488 44.6189 105.744C44.3629 105.989 44.0375 106.112 43.6429 106.112ZM49.1431 102.72C49.2285 103.189 49.4205 103.552 49.7191 103.808C50.0285 104.053 50.4391 104.176 50.9511 104.176C51.6125 104.176 52.0925 103.904 52.3911 103.36C52.6898 102.805 52.8391 101.877 52.8391 100.576C52.5938 100.917 52.2471 101.184 51.7991 101.376C51.3618 101.568 50.8871 101.664 50.3751 101.664C49.6925 101.664 49.0738 101.525 48.5191 101.248C47.9751 100.96 47.5431 100.539 47.2231 99.984C46.9031 99.4187 46.7431 98.736 46.7431 97.936C46.7431 96.752 47.0951 95.8133 47.7991 95.12C48.5031 94.416 49.4631 94.064 50.6791 94.064C52.1938 94.064 53.2605 94.5493 53.8791 95.52C54.5085 96.4907 54.8231 97.952 54.8231 99.904C54.8231 101.291 54.7005 102.427 54.4551 103.312C54.2205 104.197 53.8098 104.869 53.2231 105.328C52.6471 105.787 51.8578 106.016 50.8551 106.016C50.0658 106.016 49.3938 105.867 48.8391 105.568C48.2845 105.259 47.8578 104.859 47.5591 104.368C47.2711 103.867 47.1058 103.317 47.0631 102.72H49.1431ZM50.8391 99.84C51.3938 99.84 51.8311 99.6693 52.1511 99.328C52.4711 98.9867 52.6311 98.528 52.6311 97.952C52.6311 97.3227 52.4605 96.8373 52.1191 96.496C51.7885 96.144 51.3351 95.968 50.7591 95.968C50.1831 95.968 49.7245 96.1493 49.3831 96.512C49.0525 96.864 48.8871 97.3333 48.8871 97.92C48.8871 98.4853 49.0471 98.9493 49.3671 99.312C49.6978 99.664 50.1885 99.84 50.8391 99.84ZM59.1588 102.72C59.2441 103.189 59.4361 103.552 59.7348 103.808C60.0441 104.053 60.4548 104.176 60.9668 104.176C61.6281 104.176 62.1081 103.904 62.4068 103.36C62.7054 102.805 62.8548 101.877 62.8548 100.576C62.6094 100.917 62.2628 101.184 61.8148 101.376C61.3774 101.568 60.9028 101.664 60.3908 101.664C59.7081 101.664 59.0894 101.525 58.5348 101.248C57.9908 100.96 57.5588 100.539 57.2388 99.984C56.9188 99.4187 56.7588 98.736 56.7588 97.936C56.7588 96.752 57.1108 95.8133 57.8148 95.12C58.5188 94.416 59.4788 94.064 60.6948 94.064C62.2094 94.064 63.2761 94.5493 63.8948 95.52C64.5241 96.4907 64.8388 97.952 64.8388 99.904C64.8388 101.291 64.7161 102.427 64.4708 103.312C64.2361 104.197 63.8254 104.869 63.2388 105.328C62.6628 105.787 61.8734 106.016 60.8708 106.016C60.0814 106.016 59.4094 105.867 58.8548 105.568C58.3001 105.259 57.8734 104.859 57.5748 104.368C57.2868 103.867 57.1214 103.317 57.0788 102.72H59.1588ZM60.8548 99.84C61.4094 99.84 61.8468 99.6693 62.1668 99.328C62.4868 98.9867 62.6468 98.528 62.6468 97.952C62.6468 97.3227 62.4761 96.8373 62.1348 96.496C61.8041 96.144 61.3508 95.968 60.7748 95.968C60.1988 95.968 59.7401 96.1493 59.3988 96.512C59.0681 96.864 58.9028 97.3333 58.9028 97.92C58.9028 98.4853 59.0628 98.9493 59.3828 99.312C59.7134 99.664 60.2041 99.84 60.8548 99.84ZM66.3264 97.2C66.3264 96.3893 66.561 95.7547 67.0304 95.296C67.5104 94.8373 68.1237 94.608 68.8704 94.608C69.617 94.608 70.225 94.8373 70.6944 95.296C71.1744 95.7547 71.4144 96.3893 71.4144 97.2C71.4144 98.0213 71.1744 98.6613 70.6944 99.12C70.225 99.5787 69.617 99.808 68.8704 99.808C68.1237 99.808 67.5104 99.5787 67.0304 99.12C66.561 98.6613 66.3264 98.0213 66.3264 97.2ZM76.5984 94.8L70.3104 106H68.1344L74.4064 94.8H76.5984ZM68.8544 95.952C68.2677 95.952 67.9744 96.368 67.9744 97.2C67.9744 98.0427 68.2677 98.464 68.8544 98.464C69.1424 98.464 69.3664 98.3627 69.5264 98.16C69.6864 97.9467 69.7664 97.6267 69.7664 97.2C69.7664 96.368 69.4624 95.952 68.8544 95.952ZM73.3504 103.584C73.3504 102.763 73.585 102.128 74.0544 101.68C74.5344 101.221 75.1477 100.992 75.8944 100.992C76.641 100.992 77.2437 101.221 77.7024 101.68C78.1717 102.128 78.4064 102.763 78.4064 103.584C78.4064 104.405 78.1717 105.045 77.7024 105.504C77.2437 105.963 76.641 106.192 75.8944 106.192C75.137 106.192 74.5237 105.963 74.0544 105.504C73.585 105.045 73.3504 104.405 73.3504 103.584ZM75.8784 102.336C75.2704 102.336 74.9664 102.752 74.9664 103.584C74.9664 104.427 75.2704 104.848 75.8784 104.848C76.4757 104.848 76.7744 104.427 76.7744 103.584C76.7744 102.752 76.4757 102.336 75.8784 102.336Z" fill="#0148FF"/>
<path d="M43.62 137.228V147H41.66V140.644L39.042 147H37.558L34.926 140.644V147H32.966V137.228H35.192L38.3 144.494L41.408 137.228H43.62ZM45.0538 143.094C45.0538 142.31 45.2078 141.615 45.5158 141.008C45.8331 140.401 46.2578 139.935 46.7898 139.608C47.3311 139.281 47.9331 139.118 48.5958 139.118C49.1745 139.118 49.6785 139.235 50.1078 139.468C50.5465 139.701 50.8965 139.995 51.1578 140.35V139.244H53.1318V147H51.1578V145.866C50.9058 146.23 50.5558 146.533 50.1078 146.776C49.6691 147.009 49.1605 147.126 48.5818 147.126C47.9285 147.126 47.3311 146.958 46.7898 146.622C46.2578 146.286 45.8331 145.815 45.5158 145.208C45.2078 144.592 45.0538 143.887 45.0538 143.094ZM51.1578 143.122C51.1578 142.646 51.0645 142.24 50.8778 141.904C50.6911 141.559 50.4391 141.297 50.1218 141.12C49.8045 140.933 49.4638 140.84 49.0998 140.84C48.7358 140.84 48.3998 140.929 48.0918 141.106C47.7838 141.283 47.5318 141.545 47.3358 141.89C47.1491 142.226 47.0558 142.627 47.0558 143.094C47.0558 143.561 47.1491 143.971 47.3358 144.326C47.5318 144.671 47.7838 144.937 48.0918 145.124C48.4091 145.311 48.7451 145.404 49.0998 145.404C49.4638 145.404 49.8045 145.315 50.1218 145.138C50.4391 144.951 50.6911 144.69 50.8778 144.354C51.0645 144.009 51.1578 143.598 51.1578 143.122ZM59.3301 147L57.7341 144.592L56.3201 147H54.2201L56.7541 143.108L54.1921 139.244H56.4041L57.9861 141.638L59.4141 139.244H61.5141L58.9661 143.108L61.5421 147H59.3301ZM63.6006 138.32C63.2553 138.32 62.966 138.213 62.7326 137.998C62.5086 137.774 62.3966 137.499 62.3966 137.172C62.3966 136.845 62.5086 136.575 62.7326 136.36C62.966 136.136 63.2553 136.024 63.6006 136.024C63.946 136.024 64.2306 136.136 64.4546 136.36C64.688 136.575 64.8046 136.845 64.8046 137.172C64.8046 137.499 64.688 137.774 64.4546 137.998C64.2306 138.213 63.946 138.32 63.6006 138.32ZM64.5666 139.244V147H62.6066V139.244H64.5666ZM76.1351 139.132C77.0871 139.132 77.8524 139.426 78.4311 140.014C79.0191 140.593 79.3131 141.405 79.3131 142.45V147H77.3531V142.716C77.3531 142.109 77.1991 141.647 76.8911 141.33C76.5831 141.003 76.1631 140.84 75.6311 140.84C75.0991 140.84 74.6744 141.003 74.3571 141.33C74.0491 141.647 73.8951 142.109 73.8951 142.716V147H71.9351V142.716C71.9351 142.109 71.7811 141.647 71.4731 141.33C71.1651 141.003 70.7451 140.84 70.2131 140.84C69.6718 140.84 69.2424 141.003 68.9251 141.33C68.6171 141.647 68.4631 142.109 68.4631 142.716V147H66.5031V139.244H68.4631V140.182C68.7151 139.855 69.0371 139.599 69.4291 139.412C69.8304 139.225 70.2691 139.132 70.7451 139.132C71.3518 139.132 71.8931 139.263 72.3691 139.524C72.8451 139.776 73.2138 140.14 73.4751 140.616C73.7271 140.168 74.0911 139.809 74.5671 139.538C75.0524 139.267 75.5751 139.132 76.1351 139.132ZM88.495 139.244V147H86.521V146.02C86.269 146.356 85.9377 146.622 85.527 146.818C85.1257 147.005 84.687 147.098 84.211 147.098C83.6044 147.098 83.0677 146.972 82.601 146.72C82.1344 146.459 81.7657 146.081 81.495 145.586C81.2337 145.082 81.103 144.485 81.103 143.794V139.244H83.063V143.514C83.063 144.13 83.217 144.606 83.525 144.942C83.833 145.269 84.253 145.432 84.785 145.432C85.3264 145.432 85.751 145.269 86.059 144.942C86.367 144.606 86.521 144.13 86.521 143.514V139.244H88.495ZM100.061 139.132C101.013 139.132 101.778 139.426 102.357 140.014C102.945 140.593 103.239 141.405 103.239 142.45V147H101.279V142.716C101.279 142.109 101.125 141.647 100.817 141.33C100.509 141.003 100.089 140.84 99.5569 140.84C99.0249 140.84 98.6002 141.003 98.2829 141.33C97.9749 141.647 97.8209 142.109 97.8209 142.716V147H95.8609V142.716C95.8609 142.109 95.7069 141.647 95.3989 141.33C95.0909 141.003 94.6709 140.84 94.1389 140.84C93.5976 140.84 93.1682 141.003 92.8509 141.33C92.5429 141.647 92.3889 142.109 92.3889 142.716V147H90.4289V139.244H92.3889V140.182C92.6409 139.855 92.9629 139.599 93.3549 139.412C93.7562 139.225 94.1949 139.132 94.6709 139.132C95.2776 139.132 95.8189 139.263 96.2949 139.524C96.7709 139.776 97.1396 140.14 97.4009 140.616C97.6529 140.168 98.0169 139.809 98.4929 139.538C98.9782 139.267 99.5009 139.132 100.061 139.132ZM110.395 136.64V147H108.435V136.64H110.395ZM115.775 147.126C115.029 147.126 114.357 146.963 113.759 146.636C113.162 146.3 112.691 145.829 112.345 145.222C112.009 144.615 111.841 143.915 111.841 143.122C111.841 142.329 112.014 141.629 112.359 141.022C112.714 140.415 113.195 139.949 113.801 139.622C114.408 139.286 115.085 139.118 115.831 139.118C116.578 139.118 117.255 139.286 117.861 139.622C118.468 139.949 118.944 140.415 119.289 141.022C119.644 141.629 119.821 142.329 119.821 143.122C119.821 143.915 119.639 144.615 119.275 145.222C118.921 145.829 118.435 146.3 117.819 146.636C117.213 146.963 116.531 147.126 115.775 147.126ZM115.775 145.418C116.13 145.418 116.461 145.334 116.769 145.166C117.087 144.989 117.339 144.727 117.525 144.382C117.712 144.037 117.805 143.617 117.805 143.122C117.805 142.385 117.609 141.82 117.217 141.428C116.835 141.027 116.363 140.826 115.803 140.826C115.243 140.826 114.772 141.027 114.389 141.428C114.016 141.82 113.829 142.385 113.829 143.122C113.829 143.859 114.011 144.429 114.375 144.83C114.749 145.222 115.215 145.418 115.775 145.418ZM124.227 147.126C123.592 147.126 123.023 147.014 122.519 146.79C122.015 146.557 121.614 146.244 121.315 145.852C121.026 145.46 120.867 145.026 120.839 144.55H122.813C122.85 144.849 122.995 145.096 123.247 145.292C123.508 145.488 123.83 145.586 124.213 145.586C124.586 145.586 124.876 145.511 125.081 145.362C125.296 145.213 125.403 145.021 125.403 144.788C125.403 144.536 125.272 144.349 125.011 144.228C124.759 144.097 124.353 143.957 123.793 143.808C123.214 143.668 122.738 143.523 122.365 143.374C122.001 143.225 121.684 142.996 121.413 142.688C121.152 142.38 121.021 141.965 121.021 141.442C121.021 141.013 121.142 140.621 121.385 140.266C121.637 139.911 121.992 139.631 122.449 139.426C122.916 139.221 123.462 139.118 124.087 139.118C125.011 139.118 125.748 139.351 126.299 139.818C126.85 140.275 127.153 140.896 127.209 141.68H125.333C125.305 141.372 125.174 141.129 124.941 140.952C124.717 140.765 124.414 140.672 124.031 140.672C123.676 140.672 123.401 140.737 123.205 140.868C123.018 140.999 122.925 141.181 122.925 141.414C122.925 141.675 123.056 141.876 123.317 142.016C123.578 142.147 123.984 142.282 124.535 142.422C125.095 142.562 125.557 142.707 125.921 142.856C126.285 143.005 126.598 143.239 126.859 143.556C127.13 143.864 127.27 144.275 127.279 144.788C127.279 145.236 127.153 145.637 126.901 145.992C126.658 146.347 126.304 146.627 125.837 146.832C125.38 147.028 124.843 147.126 124.227 147.126ZM131.856 147.126C131.221 147.126 130.652 147.014 130.148 146.79C129.644 146.557 129.243 146.244 128.944 145.852C128.655 145.46 128.496 145.026 128.468 144.55H130.442C130.479 144.849 130.624 145.096 130.876 145.292C131.137 145.488 131.459 145.586 131.842 145.586C132.215 145.586 132.505 145.511 132.71 145.362C132.925 145.213 133.032 145.021 133.032 144.788C133.032 144.536 132.901 144.349 132.64 144.228C132.388 144.097 131.982 143.957 131.422 143.808C130.843 143.668 130.367 143.523 129.994 143.374C129.63 143.225 129.313 142.996 129.042 142.688C128.781 142.38 128.65 141.965 128.65 141.442C128.65 141.013 128.771 140.621 129.014 140.266C129.266 139.911 129.621 139.631 130.078 139.426C130.545 139.221 131.091 139.118 131.716 139.118C132.64 139.118 133.377 139.351 133.928 139.818C134.479 140.275 134.782 140.896 134.838 141.68H132.962C132.934 141.372 132.803 141.129 132.57 140.952C132.346 140.765 132.043 140.672 131.66 140.672C131.305 140.672 131.03 140.737 130.834 140.868C130.647 140.999 130.554 141.181 130.554 141.414C130.554 141.675 130.685 141.876 130.946 142.016C131.207 142.147 131.613 142.282 132.164 142.422C132.724 142.562 133.186 142.707 133.55 142.856C133.914 143.005 134.227 143.239 134.488 143.556C134.759 143.864 134.899 144.275 134.908 144.788C134.908 145.236 134.782 145.637 134.53 145.992C134.287 146.347 133.933 146.627 133.466 146.832C133.009 147.028 132.472 147.126 131.856 147.126Z" fill="#9CA3AF"/>
<path d="M42.7984 170.68V173.04H34.3184V170.68H42.7984ZM54.8986 166.54L49.5786 179H46.7386L52.0986 166.86H45.2586V164.46H54.8986V166.54ZM56.4556 176.16V173.96L62.9956 164.6H66.2556V173.72H68.0156V176.16H66.2556V179H63.4556V176.16H56.4556ZM63.6356 167.6L59.5356 173.72H63.6356V167.6ZM71.3583 179.14C70.8516 179.14 70.4316 178.987 70.0983 178.68C69.7783 178.36 69.6183 177.967 69.6183 177.5C69.6183 177.033 69.7783 176.647 70.0983 176.34C70.4316 176.02 70.8516 175.86 71.3583 175.86C71.8516 175.86 72.2583 176.02 72.5783 176.34C72.8983 176.647 73.0583 177.033 73.0583 177.5C73.0583 177.967 72.8983 178.36 72.5783 178.68C72.2583 178.987 71.8516 179.14 71.3583 179.14ZM75.8736 175.84C77.1536 174.773 78.1736 173.887 78.9336 173.18C79.6936 172.46 80.3269 171.713 80.8336 170.94C81.3403 170.167 81.5936 169.407 81.5936 168.66C81.5936 167.98 81.4336 167.447 81.1136 167.06C80.7936 166.673 80.3003 166.48 79.6336 166.48C78.9669 166.48 78.4536 166.707 78.0936 167.16C77.7336 167.6 77.5469 168.207 77.5336 168.98H74.8136C74.8669 167.38 75.3403 166.167 76.2336 165.34C77.1403 164.513 78.2869 164.1 79.6736 164.1C81.1936 164.1 82.3603 164.507 83.1736 165.32C83.9869 166.12 84.3936 167.18 84.3936 168.5C84.3936 169.54 84.1136 170.533 83.5536 171.48C82.9936 172.427 82.3536 173.253 81.6336 173.96C80.9136 174.653 79.9736 175.493 78.8136 176.48H84.7136V178.8H74.8336V176.72L75.8736 175.84ZM86.158 168C86.158 166.987 86.4513 166.193 87.038 165.62C87.638 165.047 88.4046 164.76 89.338 164.76C90.2713 164.76 91.0313 165.047 91.618 165.62C92.218 166.193 92.518 166.987 92.518 168C92.518 169.027 92.218 169.827 91.618 170.4C91.0313 170.973 90.2713 171.26 89.338 171.26C88.4046 171.26 87.638 170.973 87.038 170.4C86.4513 169.827 86.158 169.027 86.158 168ZM98.998 165L91.138 179H88.418L96.258 165H98.998ZM89.318 166.44C88.5846 166.44 88.218 166.96 88.218 168C88.218 169.053 88.5846 169.58 89.318 169.58C89.678 169.58 89.958 169.453 90.158 169.2C90.358 168.933 90.458 168.533 90.458 168C90.458 166.96 90.078 166.44 89.318 166.44ZM94.938 175.98C94.938 174.953 95.2313 174.16 95.818 173.6C96.418 173.027 97.1846 172.74 98.118 172.74C99.0513 172.74 99.8046 173.027 100.378 173.6C100.965 174.16 101.258 174.953 101.258 175.98C101.258 177.007 100.965 177.807 100.378 178.38C99.8046 178.953 99.0513 179.24 98.118 179.24C97.1713 179.24 96.4046 178.953 95.818 178.38C95.2313 177.807 94.938 177.007 94.938 175.98ZM98.098 174.42C97.338 174.42 96.958 174.94 96.958 175.98C96.958 177.033 97.338 177.56 98.098 177.56C98.8446 177.56 99.218 177.033 99.218 175.98C99.218 174.94 98.8446 174.42 98.098 174.42Z" fill="#DF1525"/>
<path d="M12 219C12 214.582 15.5817 211 20 211H339C343.418 211 347 214.582 347 219V303C347 314.046 338.046 323 327 323H32C20.9543 323 12 314.046 12 303V219Z" fill="#F9FAFB"/>
<path d="M32.382 232.228C33.4087 232.228 34.3093 232.429 35.084 232.83C35.868 233.231 36.47 233.805 36.89 234.552C37.3193 235.289 37.534 236.148 37.534 237.128C37.534 238.108 37.3193 238.967 36.89 239.704C36.47 240.432 35.868 240.997 35.084 241.398C34.3093 241.799 33.4087 242 32.382 242H28.966V232.228H32.382ZM32.312 240.334C33.3387 240.334 34.132 240.054 34.692 239.494C35.252 238.934 35.532 238.145 35.532 237.128C35.532 236.111 35.252 235.317 34.692 234.748C34.132 234.169 33.3387 233.88 32.312 233.88H30.926V240.334H32.312ZM38.4972 238.094C38.4972 237.31 38.6512 236.615 38.9592 236.008C39.2765 235.401 39.7012 234.935 40.2332 234.608C40.7745 234.281 41.3765 234.118 42.0392 234.118C42.6178 234.118 43.1218 234.235 43.5512 234.468C43.9898 234.701 44.3398 234.995 44.6012 235.35V234.244H46.5752V242H44.6012V240.866C44.3492 241.23 43.9992 241.533 43.5512 241.776C43.1125 242.009 42.6038 242.126 42.0252 242.126C41.3718 242.126 40.7745 241.958 40.2332 241.622C39.7012 241.286 39.2765 240.815 38.9592 240.208C38.6512 239.592 38.4972 238.887 38.4972 238.094ZM44.6012 238.122C44.6012 237.646 44.5078 237.24 44.3212 236.904C44.1345 236.559 43.8825 236.297 43.5652 236.12C43.2478 235.933 42.9072 235.84 42.5432 235.84C42.1792 235.84 41.8432 235.929 41.5352 236.106C41.2272 236.283 40.9752 236.545 40.7792 236.89C40.5925 237.226 40.4992 237.627 40.4992 238.094C40.4992 238.561 40.5925 238.971 40.7792 239.326C40.9752 239.671 41.2272 239.937 41.5352 240.124C41.8525 240.311 42.1885 240.404 42.5432 240.404C42.9072 240.404 43.2478 240.315 43.5652 240.138C43.8825 239.951 44.1345 239.69 44.3212 239.354C44.5078 239.009 44.6012 238.598 44.6012 238.122ZM49.4834 233.32C49.1381 233.32 48.8488 233.213 48.6154 232.998C48.3914 232.774 48.2794 232.499 48.2794 232.172C48.2794 231.845 48.3914 231.575 48.6154 231.36C48.8488 231.136 49.1381 231.024 49.4834 231.024C49.8288 231.024 50.1134 231.136 50.3374 231.36C50.5708 231.575 50.6874 231.845 50.6874 232.172C50.6874 232.499 50.5708 232.774 50.3374 232.998C50.1134 233.213 49.8288 233.32 49.4834 233.32ZM50.4494 234.244V242H48.4894V234.244H50.4494ZM54.3459 231.64V242H52.3859V231.64H54.3459ZM63.7024 234.244L58.9004 245.668H56.8144L58.4944 241.804L55.3864 234.244H57.5844L59.5864 239.662L61.6164 234.244H63.7024ZM73.1349 242L70.9789 238.192H70.0549V242H68.0949V232.228H71.7629C72.5189 232.228 73.1629 232.363 73.6949 232.634C74.2269 232.895 74.6236 233.255 74.8849 233.712C75.1556 234.16 75.2909 234.664 75.2909 235.224C75.2909 235.868 75.1042 236.451 74.7309 236.974C74.3576 237.487 73.8022 237.842 73.0649 238.038L75.4029 242H73.1349ZM70.0549 236.722H71.6929C72.2249 236.722 72.6216 236.596 72.8829 236.344C73.1442 236.083 73.2749 235.723 73.2749 235.266C73.2749 234.818 73.1442 234.473 72.8829 234.23C72.6216 233.978 72.2249 233.852 71.6929 233.852H70.0549V236.722ZM78.0577 233.32C77.7123 233.32 77.423 233.213 77.1897 232.998C76.9657 232.774 76.8537 232.499 76.8537 232.172C76.8537 231.845 76.9657 231.575 77.1897 231.36C77.423 231.136 77.7123 231.024 78.0577 231.024C78.403 231.024 78.6877 231.136 78.9117 231.36C79.145 231.575 79.2617 231.845 79.2617 232.172C79.2617 232.499 79.145 232.774 78.9117 232.998C78.6877 233.213 78.403 233.32 78.0577 233.32ZM79.0237 234.244V242H77.0637V234.244H79.0237ZM83.9281 242.126C83.2935 242.126 82.7241 242.014 82.2201 241.79C81.7161 241.557 81.3148 241.244 81.0161 240.852C80.7268 240.46 80.5681 240.026 80.5401 239.55H82.5141C82.5515 239.849 82.6961 240.096 82.9481 240.292C83.2095 240.488 83.5315 240.586 83.9141 240.586C84.2875 240.586 84.5768 240.511 84.7821 240.362C84.9968 240.213 85.1041 240.021 85.1041 239.788C85.1041 239.536 84.9735 239.349 84.7121 239.228C84.4601 239.097 84.0541 238.957 83.4941 238.808C82.9155 238.668 82.4395 238.523 82.0661 238.374C81.7021 238.225 81.3848 237.996 81.1141 237.688C80.8528 237.38 80.7221 236.965 80.7221 236.442C80.7221 236.013 80.8435 235.621 81.0861 235.266C81.3381 234.911 81.6928 234.631 82.1501 234.426C82.6168 234.221 83.1628 234.118 83.7881 234.118C84.7121 234.118 85.4495 234.351 86.0001 234.818C86.5508 235.275 86.8541 235.896 86.9101 236.68H85.0341C85.0061 236.372 84.8755 236.129 84.6421 235.952C84.4181 235.765 84.1148 235.672 83.7321 235.672C83.3775 235.672 83.1021 235.737 82.9061 235.868C82.7195 235.999 82.6261 236.181 82.6261 236.414C82.6261 236.675 82.7568 236.876 83.0181 237.016C83.2795 237.147 83.6855 237.282 84.2361 237.422C84.7961 237.562 85.2581 237.707 85.6221 237.856C85.9861 238.005 86.2988 238.239 86.5601 238.556C86.8308 238.864 86.9708 239.275 86.9801 239.788C86.9801 240.236 86.8541 240.637 86.6021 240.992C86.3595 241.347 86.0048 241.627 85.5381 241.832C85.0808 242.028 84.5441 242.126 83.9281 242.126ZM93.181 242L90.549 238.696V242H88.589V231.64H90.549V237.534L93.153 234.244H95.701L92.285 238.136L95.729 242H93.181ZM102.061 232.228V242H100.101V232.228H102.061ZM108.295 234.132C109.219 234.132 109.966 234.426 110.535 235.014C111.105 235.593 111.389 236.405 111.389 237.45V242H109.429V237.716C109.429 237.1 109.275 236.629 108.967 236.302C108.659 235.966 108.239 235.798 107.707 235.798C107.166 235.798 106.737 235.966 106.419 236.302C106.111 236.629 105.957 237.1 105.957 237.716V242H103.997V234.244H105.957V235.21C106.219 234.874 106.55 234.613 106.951 234.426C107.362 234.23 107.81 234.132 108.295 234.132ZM112.749 238.094C112.749 237.31 112.903 236.615 113.211 236.008C113.528 235.401 113.958 234.935 114.499 234.608C115.04 234.281 115.642 234.118 116.305 234.118C116.809 234.118 117.29 234.23 117.747 234.454C118.204 234.669 118.568 234.958 118.839 235.322V231.64H120.827V242H118.839V240.852C118.596 241.235 118.256 241.543 117.817 241.776C117.378 242.009 116.87 242.126 116.291 242.126C115.638 242.126 115.04 241.958 114.499 241.622C113.958 241.286 113.528 240.815 113.211 240.208C112.903 239.592 112.749 238.887 112.749 238.094ZM118.853 238.122C118.853 237.646 118.76 237.24 118.573 236.904C118.386 236.559 118.134 236.297 117.817 236.12C117.5 235.933 117.159 235.84 116.795 235.84C116.431 235.84 116.095 235.929 115.787 236.106C115.479 236.283 115.227 236.545 115.031 236.89C114.844 237.226 114.751 237.627 114.751 238.094C114.751 238.561 114.844 238.971 115.031 239.326C115.227 239.671 115.479 239.937 115.787 240.124C116.104 240.311 116.44 240.404 116.795 240.404C117.159 240.404 117.5 240.315 117.817 240.138C118.134 239.951 118.386 239.69 118.573 239.354C118.76 239.009 118.853 238.598 118.853 238.122ZM129.951 237.954C129.951 238.234 129.933 238.486 129.895 238.71H124.225C124.272 239.27 124.468 239.709 124.813 240.026C125.159 240.343 125.583 240.502 126.087 240.502C126.815 240.502 127.333 240.189 127.641 239.564H129.755C129.531 240.311 129.102 240.927 128.467 241.412C127.833 241.888 127.053 242.126 126.129 242.126C125.383 242.126 124.711 241.963 124.113 241.636C123.525 241.3 123.063 240.829 122.727 240.222C122.401 239.615 122.237 238.915 122.237 238.122C122.237 237.319 122.401 236.615 122.727 236.008C123.054 235.401 123.511 234.935 124.099 234.608C124.687 234.281 125.364 234.118 126.129 234.118C126.867 234.118 127.525 234.277 128.103 234.594C128.691 234.911 129.144 235.364 129.461 235.952C129.788 236.531 129.951 237.198 129.951 237.954ZM127.921 237.394C127.912 236.89 127.73 236.489 127.375 236.19C127.021 235.882 126.587 235.728 126.073 235.728C125.588 235.728 125.177 235.877 124.841 236.176C124.515 236.465 124.314 236.871 124.239 237.394H127.921ZM135.666 242L134.07 239.592L132.656 242H130.556L133.09 238.108L130.528 234.244H132.74L134.322 236.638L135.75 234.244H137.85L135.302 238.108L137.878 242H135.666Z" fill="#9CA3AF"/>
<path d="M34.288 270.66V271.776H32.068V279H30.7V271.776H28.468V270.66H34.288ZM35.2174 275.664C35.2174 275 35.3534 274.412 35.6254 273.9C35.9054 273.388 36.2814 272.992 36.7534 272.712C37.2334 272.424 37.7614 272.28 38.3374 272.28C38.8574 272.28 39.3094 272.384 39.6934 272.592C40.0854 272.792 40.3974 273.044 40.6294 273.348V272.388H42.0094V279H40.6294V278.016C40.3974 278.328 40.0814 278.588 39.6814 278.796C39.2814 279.004 38.8254 279.108 38.3134 279.108C37.7454 279.108 37.2254 278.964 36.7534 278.676C36.2814 278.38 35.9054 277.972 35.6254 277.452C35.3534 276.924 35.2174 276.328 35.2174 275.664ZM40.6294 275.688C40.6294 275.232 40.5334 274.836 40.3414 274.5C40.1574 274.164 39.9134 273.908 39.6094 273.732C39.3054 273.556 38.9774 273.468 38.6254 273.468C38.2734 273.468 37.9454 273.556 37.6414 273.732C37.3374 273.9 37.0894 274.152 36.8974 274.488C36.7134 274.816 36.6214 275.208 36.6214 275.664C36.6214 276.12 36.7134 276.52 36.8974 276.864C37.0894 277.208 37.3374 277.472 37.6414 277.656C37.9534 277.832 38.2814 277.92 38.6254 277.92C38.9774 277.92 39.3054 277.832 39.6094 277.656C39.9134 277.48 40.1574 277.224 40.3414 276.888C40.5334 276.544 40.6294 276.144 40.6294 275.688ZM44.5023 271.512C44.2543 271.512 44.0463 271.428 43.8783 271.26C43.7103 271.092 43.6263 270.884 43.6263 270.636C43.6263 270.388 43.7103 270.18 43.8783 270.012C44.0463 269.844 44.2543 269.76 44.5023 269.76C44.7423 269.76 44.9463 269.844 45.1143 270.012C45.2823 270.18 45.3663 270.388 45.3663 270.636C45.3663 270.884 45.2823 271.092 45.1143 271.26C44.9463 271.428 44.7423 271.512 44.5023 271.512ZM45.1743 272.388V279H43.8063V272.388H45.1743ZM48.3383 270.12V279H46.9703V270.12H48.3383ZM57.5836 279L55.6636 275.664H54.6196V279H53.2516V270.66H56.1316C56.7716 270.66 57.3116 270.772 57.7516 270.996C58.1996 271.22 58.5316 271.52 58.7476 271.896C58.9716 272.272 59.0836 272.692 59.0836 273.156C59.0836 273.7 58.9236 274.196 58.6036 274.644C58.2916 275.084 57.8076 275.384 57.1516 275.544L59.2156 279H57.5836ZM54.6196 274.572H56.1316C56.6436 274.572 57.0276 274.444 57.2836 274.188C57.5476 273.932 57.6796 273.588 57.6796 273.156C57.6796 272.724 57.5516 272.388 57.2956 272.148C57.0396 271.9 56.6516 271.776 56.1316 271.776H54.6196V274.572ZM61.5296 271.512C61.2816 271.512 61.0736 271.428 60.9056 271.26C60.7376 271.092 60.6536 270.884 60.6536 270.636C60.6536 270.388 60.7376 270.18 60.9056 270.012C61.0736 269.844 61.2816 269.76 61.5296 269.76C61.7696 269.76 61.9736 269.844 62.1416 270.012C62.3096 270.18 62.3936 270.388 62.3936 270.636C62.3936 270.884 62.3096 271.092 62.1416 271.26C61.9736 271.428 61.7696 271.512 61.5296 271.512ZM62.2016 272.388V279H60.8336V272.388H62.2016ZM66.3977 279.108C65.8777 279.108 65.4097 279.016 64.9937 278.832C64.5857 278.64 64.2617 278.384 64.0217 278.064C63.7817 277.736 63.6537 277.372 63.6377 276.972H65.0537C65.0777 277.252 65.2097 277.488 65.4497 277.68C65.6977 277.864 66.0057 277.956 66.3737 277.956C66.7577 277.956 67.0537 277.884 67.2617 277.74C67.4777 277.588 67.5857 277.396 67.5857 277.164C67.5857 276.916 67.4657 276.732 67.2257 276.612C66.9937 276.492 66.6217 276.36 66.1097 276.216C65.6137 276.08 65.2097 275.948 64.8977 275.82C64.5857 275.692 64.3137 275.496 64.0817 275.232C63.8577 274.968 63.7457 274.62 63.7457 274.188C63.7457 273.836 63.8497 273.516 64.0577 273.228C64.2657 272.932 64.5617 272.7 64.9457 272.532C65.3377 272.364 65.7857 272.28 66.2897 272.28C67.0417 272.28 67.6457 272.472 68.1017 272.856C68.5657 273.232 68.8137 273.748 68.8457 274.404H67.4777C67.4537 274.108 67.3337 273.872 67.1177 273.696C66.9017 273.52 66.6097 273.432 66.2417 273.432C65.8817 273.432 65.6057 273.5 65.4137 273.636C65.2217 273.772 65.1257 273.952 65.1257 274.176C65.1257 274.352 65.1897 274.5 65.3177 274.62C65.4457 274.74 65.6017 274.836 65.7857 274.908C65.9697 274.972 66.2417 275.056 66.6017 275.16C67.0817 275.288 67.4737 275.42 67.7777 275.556C68.0897 275.684 68.3577 275.876 68.5817 276.132C68.8057 276.388 68.9217 276.728 68.9297 277.152C68.9297 277.528 68.8257 277.864 68.6177 278.16C68.4097 278.456 68.1137 278.688 67.7297 278.856C67.3537 279.024 66.9097 279.108 66.3977 279.108ZM73.0238 275.7L76.0718 279H74.2238L71.7758 276.156V279H70.4078V270.12H71.7758V275.28L74.1758 272.388H76.0718L73.0238 275.7Z" fill="#9CA3AF"/>
<path d="M28.84 296.764C28.84 295.149 29.1107 293.889 29.652 292.984C30.2027 292.069 31.1453 291.612 32.48 291.612C33.8147 291.612 34.7527 292.069 35.294 292.984C35.8447 293.889 36.12 295.149 36.12 296.764C36.12 298.397 35.8447 299.676 35.294 300.6C34.7527 301.515 33.8147 301.972 32.48 301.972C31.1453 301.972 30.2027 301.515 29.652 300.6C29.1107 299.676 28.84 298.397 28.84 296.764ZM34.552 296.764C34.552 296.008 34.5007 295.369 34.398 294.846C34.3047 294.323 34.1087 293.899 33.81 293.572C33.5113 293.236 33.068 293.068 32.48 293.068C31.892 293.068 31.4487 293.236 31.15 293.572C30.8513 293.899 30.6507 294.323 30.548 294.846C30.4547 295.369 30.408 296.008 30.408 296.764C30.408 297.548 30.4547 298.206 30.548 298.738C30.6413 299.27 30.8373 299.699 31.136 300.026C31.444 300.353 31.892 300.516 32.48 300.516C33.068 300.516 33.5113 300.353 33.81 300.026C34.118 299.699 34.3187 299.27 34.412 298.738C34.5053 298.206 34.552 297.548 34.552 296.764ZM38.6628 302.098C38.3734 302.098 38.1308 302 37.9348 301.804C37.7388 301.608 37.6408 301.365 37.6408 301.076C37.6408 300.787 37.7388 300.544 37.9348 300.348C38.1308 300.152 38.3734 300.054 38.6628 300.054C38.9428 300.054 39.1808 300.152 39.3768 300.348C39.5728 300.544 39.6708 300.787 39.6708 301.076C39.6708 301.365 39.5728 301.608 39.3768 301.804C39.1808 302 38.9428 302.098 38.6628 302.098ZM41.1857 296.764C41.1857 295.149 41.4564 293.889 41.9977 292.984C42.5484 292.069 43.491 291.612 44.8257 291.612C46.1604 291.612 47.0984 292.069 47.6397 292.984C48.1904 293.889 48.4657 295.149 48.4657 296.764C48.4657 298.397 48.1904 299.676 47.6397 300.6C47.0984 301.515 46.1604 301.972 44.8257 301.972C43.491 301.972 42.5484 301.515 41.9977 300.6C41.4564 299.676 41.1857 298.397 41.1857 296.764ZM46.8977 296.764C46.8977 296.008 46.8464 295.369 46.7437 294.846C46.6504 294.323 46.4544 293.899 46.1557 293.572C45.857 293.236 45.4137 293.068 44.8257 293.068C44.2377 293.068 43.7944 293.236 43.4957 293.572C43.197 293.899 42.9964 294.323 42.8937 294.846C42.8004 295.369 42.7537 296.008 42.7537 296.764C42.7537 297.548 42.8004 298.206 42.8937 298.738C42.987 299.27 43.183 299.699 43.4817 300.026C43.7897 300.353 44.2377 300.516 44.8257 300.516C45.4137 300.516 45.857 300.353 46.1557 300.026C46.4637 299.699 46.6644 299.27 46.7577 298.738C46.851 298.206 46.8977 297.548 46.8977 296.764ZM50.1545 296.764C50.1545 295.149 50.4251 293.889 50.9665 292.984C51.5171 292.069 52.4598 291.612 53.7945 291.612C55.1291 291.612 56.0671 292.069 56.6085 292.984C57.1591 293.889 57.4345 295.149 57.4345 296.764C57.4345 298.397 57.1591 299.676 56.6085 300.6C56.0671 301.515 55.1291 301.972 53.7945 301.972C52.4598 301.972 51.5171 301.515 50.9665 300.6C50.4251 299.676 50.1545 298.397 50.1545 296.764ZM55.8665 296.764C55.8665 296.008 55.8151 295.369 55.7125 294.846C55.6191 294.323 55.4231 293.899 55.1245 293.572C54.8258 293.236 54.3825 293.068 53.7945 293.068C53.2065 293.068 52.7631 293.236 52.4645 293.572C52.1658 293.899 51.9651 294.323 51.8625 294.846C51.7691 295.369 51.7225 296.008 51.7225 296.764C51.7225 297.548 51.7691 298.206 51.8625 298.738C51.9558 299.27 52.1518 299.699 52.4505 300.026C52.7585 300.353 53.2065 300.516 53.7945 300.516C54.3825 300.516 54.8258 300.353 55.1245 300.026C55.4325 299.699 55.6331 299.27 55.7265 298.738C55.8198 298.206 55.8665 297.548 55.8665 296.764ZM59.1232 296.764C59.1232 295.149 59.3939 293.889 59.9352 292.984C60.4859 292.069 61.4285 291.612 62.7632 291.612C64.0979 291.612 65.0359 292.069 65.5772 292.984C66.1279 293.889 66.4032 295.149 66.4032 296.764C66.4032 298.397 66.1279 299.676 65.5772 300.6C65.0359 301.515 64.0979 301.972 62.7632 301.972C61.4285 301.972 60.4859 301.515 59.9352 300.6C59.3939 299.676 59.1232 298.397 59.1232 296.764ZM64.8352 296.764C64.8352 296.008 64.7839 295.369 64.6812 294.846C64.5879 294.323 64.3919 293.899 64.0932 293.572C63.7945 293.236 63.3512 293.068 62.7632 293.068C62.1752 293.068 61.7319 293.236 61.4332 293.572C61.1345 293.899 60.9339 294.323 60.8312 294.846C60.7379 295.369 60.6912 296.008 60.6912 296.764C60.6912 297.548 60.7379 298.206 60.8312 298.738C60.9245 299.27 61.1205 299.699 61.4192 300.026C61.7272 300.353 62.1752 300.516 62.7632 300.516C63.3512 300.516 63.7945 300.353 64.0932 300.026C64.4012 299.699 64.6019 299.27 64.6952 298.738C64.7885 298.206 64.8352 297.548 64.8352 296.764ZM67.896 299.872V298.668L72.6 291.92H74.532V298.486H75.834V299.872H74.532V302H72.964V299.872H67.896ZM73.034 293.544L69.73 298.486H73.034V293.544Z" fill="#374151"/>
<path d="M124 273L124 301" stroke="#D1D5DB"/>
<path d="M148.088 270.66L144.956 279H143.372L140.228 270.66H141.692L144.164 277.596L146.648 270.66H148.088ZM154.26 277.296H150.768L150.168 279H148.74L151.728 270.648H153.312L156.3 279H154.86L154.26 277.296ZM153.876 276.18L152.52 272.304L151.152 276.18H153.876ZM161.931 279L160.011 275.664H158.967V279H157.599V270.66H160.479C161.119 270.66 161.659 270.772 162.099 270.996C162.547 271.22 162.879 271.52 163.095 271.896C163.319 272.272 163.431 272.692 163.431 273.156C163.431 273.7 163.271 274.196 162.951 274.644C162.639 275.084 162.155 275.384 161.499 275.544L163.563 279H161.931ZM158.967 274.572H160.479C160.991 274.572 161.375 274.444 161.631 274.188C161.895 273.932 162.027 273.588 162.027 273.156C162.027 272.724 161.899 272.388 161.643 272.148C161.387 271.9 160.999 271.776 160.479 271.776H158.967V274.572Z" fill="#9CA3AF"/>
<path d="M140.84 296.764C140.84 295.149 141.111 293.889 141.652 292.984C142.203 292.069 143.145 291.612 144.48 291.612C145.815 291.612 146.753 292.069 147.294 292.984C147.845 293.889 148.12 295.149 148.12 296.764C148.12 298.397 147.845 299.676 147.294 300.6C146.753 301.515 145.815 301.972 144.48 301.972C143.145 301.972 142.203 301.515 141.652 300.6C141.111 299.676 140.84 298.397 140.84 296.764ZM146.552 296.764C146.552 296.008 146.501 295.369 146.398 294.846C146.305 294.323 146.109 293.899 145.81 293.572C145.511 293.236 145.068 293.068 144.48 293.068C143.892 293.068 143.449 293.236 143.15 293.572C142.851 293.899 142.651 294.323 142.548 294.846C142.455 295.369 142.408 296.008 142.408 296.764C142.408 297.548 142.455 298.206 142.548 298.738C142.641 299.27 142.837 299.699 143.136 300.026C143.444 300.353 143.892 300.516 144.48 300.516C145.068 300.516 145.511 300.353 145.81 300.026C146.118 299.699 146.319 299.27 146.412 298.738C146.505 298.206 146.552 297.548 146.552 296.764ZM150.663 302.098C150.373 302.098 150.131 302 149.935 301.804C149.739 301.608 149.641 301.365 149.641 301.076C149.641 300.787 149.739 300.544 149.935 300.348C150.131 300.152 150.373 300.054 150.663 300.054C150.943 300.054 151.181 300.152 151.377 300.348C151.573 300.544 151.671 300.787 151.671 301.076C151.671 301.365 151.573 301.608 151.377 301.804C151.181 302 150.943 302.098 150.663 302.098ZM153.186 296.764C153.186 295.149 153.456 293.889 153.998 292.984C154.548 292.069 155.491 291.612 156.826 291.612C158.16 291.612 159.098 292.069 159.64 292.984C160.19 293.889 160.466 295.149 160.466 296.764C160.466 298.397 160.19 299.676 159.64 300.6C159.098 301.515 158.16 301.972 156.826 301.972C155.491 301.972 154.548 301.515 153.998 300.6C153.456 299.676 153.186 298.397 153.186 296.764ZM158.898 296.764C158.898 296.008 158.846 295.369 158.744 294.846C158.65 294.323 158.454 293.899 158.156 293.572C157.857 293.236 157.414 293.068 156.826 293.068C156.238 293.068 155.794 293.236 155.496 293.572C155.197 293.899 154.996 294.323 154.894 294.846C154.8 295.369 154.754 296.008 154.754 296.764C154.754 297.548 154.8 298.206 154.894 298.738C154.987 299.27 155.183 299.699 155.482 300.026C155.79 300.353 156.238 300.516 156.826 300.516C157.414 300.516 157.857 300.353 158.156 300.026C158.464 299.699 158.664 299.27 158.758 298.738C158.851 298.206 158.898 297.548 158.898 296.764ZM167.642 294.16C167.54 293.731 167.353 293.409 167.082 293.194C166.812 292.979 166.434 292.872 165.948 292.872C165.211 292.872 164.66 293.157 164.296 293.726C163.932 294.286 163.741 295.219 163.722 296.526C163.965 296.115 164.32 295.798 164.786 295.574C165.253 295.35 165.757 295.238 166.298 295.238C166.914 295.238 167.456 295.373 167.922 295.644C168.398 295.905 168.767 296.288 169.028 296.792C169.299 297.296 169.434 297.898 169.434 298.598C169.434 299.251 169.304 299.835 169.042 300.348C168.79 300.861 168.412 301.267 167.908 301.566C167.404 301.855 166.798 302 166.088 302C165.127 302 164.371 301.79 163.82 301.37C163.279 300.941 162.896 300.339 162.672 299.564C162.458 298.789 162.35 297.823 162.35 296.666C162.35 293.25 163.554 291.542 165.962 291.542C166.896 291.542 167.628 291.794 168.16 292.298C168.702 292.802 169.019 293.423 169.112 294.16H167.642ZM165.948 296.582C165.379 296.582 164.894 296.755 164.492 297.1C164.1 297.436 163.904 297.926 163.904 298.57C163.904 299.214 164.086 299.727 164.45 300.11C164.824 300.483 165.342 300.67 166.004 300.67C166.592 300.67 167.054 300.488 167.39 300.124C167.736 299.76 167.908 299.275 167.908 298.668C167.908 298.033 167.74 297.529 167.404 297.156C167.078 296.773 166.592 296.582 165.948 296.582ZM173.125 299.228C173.218 299.695 173.419 300.049 173.727 300.292C174.035 300.535 174.45 300.656 174.973 300.656C175.636 300.656 176.121 300.395 176.429 299.872C176.737 299.349 176.891 298.458 176.891 297.198C176.667 297.515 176.35 297.763 175.939 297.94C175.538 298.108 175.099 298.192 174.623 298.192C174.016 298.192 173.466 298.071 172.971 297.828C172.476 297.576 172.084 297.207 171.795 296.722C171.515 296.227 171.375 295.63 171.375 294.93C171.375 293.903 171.674 293.087 172.271 292.48C172.878 291.864 173.708 291.556 174.763 291.556C176.032 291.556 176.933 291.981 177.465 292.83C178.006 293.67 178.277 294.963 178.277 296.708C178.277 297.912 178.174 298.897 177.969 299.662C177.773 300.427 177.428 301.006 176.933 301.398C176.438 301.79 175.752 301.986 174.875 301.986C173.876 301.986 173.106 301.725 172.565 301.202C172.024 300.679 171.72 300.021 171.655 299.228H173.125ZM174.903 296.848C175.463 296.848 175.902 296.675 176.219 296.33C176.546 295.975 176.709 295.509 176.709 294.93C176.709 294.286 176.536 293.787 176.191 293.432C175.855 293.068 175.393 292.886 174.805 292.886C174.217 292.886 173.75 293.073 173.405 293.446C173.069 293.81 172.901 294.291 172.901 294.888C172.901 295.457 173.064 295.929 173.391 296.302C173.727 296.666 174.231 296.848 174.903 296.848ZM182.012 299.228C182.105 299.695 182.306 300.049 182.614 300.292C182.922 300.535 183.337 300.656 183.86 300.656C184.522 300.656 185.008 300.395 185.316 299.872C185.624 299.349 185.778 298.458 185.778 297.198C185.554 297.515 185.236 297.763 184.826 297.94C184.424 298.108 183.986 298.192 183.51 298.192C182.903 298.192 182.352 298.071 181.858 297.828C181.363 297.576 180.971 297.207 180.682 296.722C180.402 296.227 180.262 295.63 180.262 294.93C180.262 293.903 180.56 293.087 181.158 292.48C181.764 291.864 182.595 291.556 183.65 291.556C184.919 291.556 185.82 291.981 186.352 292.83C186.893 293.67 187.164 294.963 187.164 296.708C187.164 297.912 187.061 298.897 186.856 299.662C186.66 300.427 186.314 301.006 185.82 301.398C185.325 301.79 184.639 301.986 183.762 301.986C182.763 301.986 181.993 301.725 181.452 301.202C180.91 300.679 180.607 300.021 180.542 299.228H182.012ZM183.79 296.848C184.35 296.848 184.788 296.675 185.106 296.33C185.432 295.975 185.596 295.509 185.596 294.93C185.596 294.286 185.423 293.787 185.078 293.432C184.742 293.068 184.28 292.886 183.692 292.886C183.104 292.886 182.637 293.073 182.292 293.446C181.956 293.81 181.788 294.291 181.788 294.888C181.788 295.457 181.951 295.929 182.278 296.302C182.614 296.666 183.118 296.848 183.79 296.848Z" fill="#374151"/>
<path d="M236 273L236 301" stroke="#D1D5DB"/>
<path d="M252.444 274.812C252.444 273.996 252.632 273.264 253.008 272.616C253.392 271.968 253.908 271.464 254.556 271.104C255.212 270.736 255.928 270.552 256.704 270.552C257.592 270.552 258.38 270.772 259.068 271.212C259.764 271.644 260.268 272.26 260.58 273.06H258.936C258.72 272.62 258.42 272.292 258.036 272.076C257.652 271.86 257.208 271.752 256.704 271.752C256.152 271.752 255.66 271.876 255.228 272.124C254.796 272.372 254.456 272.728 254.208 273.192C253.968 273.656 253.848 274.196 253.848 274.812C253.848 275.428 253.968 275.968 254.208 276.432C254.456 276.896 254.796 277.256 255.228 277.512C255.66 277.76 256.152 277.884 256.704 277.884C257.208 277.884 257.652 277.776 258.036 277.56C258.42 277.344 258.72 277.016 258.936 276.576H260.58C260.268 277.376 259.764 277.992 259.068 278.424C258.38 278.856 257.592 279.072 256.704 279.072C255.92 279.072 255.204 278.892 254.556 278.532C253.908 278.164 253.392 277.656 253.008 277.008C252.632 276.36 252.444 275.628 252.444 274.812ZM269.369 270.66L266.237 279H264.653L261.509 270.66H262.973L265.445 277.596L267.929 270.66H269.369ZM275.541 277.296H272.049L271.449 279H270.021L273.009 270.648H274.593L277.581 279H276.141L275.541 277.296ZM275.157 276.18L273.801 272.304L272.433 276.18H275.157ZM283.212 279L281.292 275.664H280.248V279H278.88V270.66H281.76C282.4 270.66 282.94 270.772 283.38 270.996C283.828 271.22 284.16 271.52 284.376 271.896C284.6 272.272 284.712 272.692 284.712 273.156C284.712 273.7 284.552 274.196 284.232 274.644C283.92 275.084 283.436 275.384 282.78 275.544L284.844 279H283.212ZM280.248 274.572H281.76C282.272 274.572 282.656 274.444 282.912 274.188C283.176 273.932 283.308 273.588 283.308 273.156C283.308 272.724 283.18 272.388 282.924 272.148C282.668 271.9 282.28 271.776 281.76 271.776H280.248V274.572Z" fill="#9CA3AF"/>
<path d="M252.84 296.764C252.84 295.149 253.111 293.889 253.652 292.984C254.203 292.069 255.145 291.612 256.48 291.612C257.815 291.612 258.753 292.069 259.294 292.984C259.845 293.889 260.12 295.149 260.12 296.764C260.12 298.397 259.845 299.676 259.294 300.6C258.753 301.515 257.815 301.972 256.48 301.972C255.145 301.972 254.203 301.515 253.652 300.6C253.111 299.676 252.84 298.397 252.84 296.764ZM258.552 296.764C258.552 296.008 258.501 295.369 258.398 294.846C258.305 294.323 258.109 293.899 257.81 293.572C257.511 293.236 257.068 293.068 256.48 293.068C255.892 293.068 255.449 293.236 255.15 293.572C254.851 293.899 254.651 294.323 254.548 294.846C254.455 295.369 254.408 296.008 254.408 296.764C254.408 297.548 254.455 298.206 254.548 298.738C254.641 299.27 254.837 299.699 255.136 300.026C255.444 300.353 255.892 300.516 256.48 300.516C257.068 300.516 257.511 300.353 257.81 300.026C258.118 299.699 258.319 299.27 258.412 298.738C258.505 298.206 258.552 297.548 258.552 296.764ZM262.663 302.098C262.373 302.098 262.131 302 261.935 301.804C261.739 301.608 261.641 301.365 261.641 301.076C261.641 300.787 261.739 300.544 261.935 300.348C262.131 300.152 262.373 300.054 262.663 300.054C262.943 300.054 263.181 300.152 263.377 300.348C263.573 300.544 263.671 300.787 263.671 301.076C263.671 301.365 263.573 301.608 263.377 301.804C263.181 302 262.943 302.098 262.663 302.098ZM270.674 294.16C270.571 293.731 270.384 293.409 270.114 293.194C269.843 292.979 269.465 292.872 268.98 292.872C268.242 292.872 267.692 293.157 267.328 293.726C266.964 294.286 266.772 295.219 266.754 296.526C266.996 296.115 267.351 295.798 267.818 295.574C268.284 295.35 268.788 295.238 269.33 295.238C269.946 295.238 270.487 295.373 270.954 295.644C271.43 295.905 271.798 296.288 272.06 296.792C272.33 297.296 272.466 297.898 272.466 298.598C272.466 299.251 272.335 299.835 272.074 300.348C271.822 300.861 271.444 301.267 270.94 301.566C270.436 301.855 269.829 302 269.12 302C268.158 302 267.402 301.79 266.852 301.37C266.31 300.941 265.928 300.339 265.704 299.564C265.489 298.789 265.382 297.823 265.382 296.666C265.382 293.25 266.586 291.542 268.994 291.542C269.927 291.542 270.66 291.794 271.192 292.298C271.733 292.802 272.05 293.423 272.144 294.16H270.674ZM268.98 296.582C268.41 296.582 267.925 296.755 267.524 297.1C267.132 297.436 266.936 297.926 266.936 298.57C266.936 299.214 267.118 299.727 267.482 300.11C267.855 300.483 268.373 300.67 269.036 300.67C269.624 300.67 270.086 300.488 270.422 300.124C270.767 299.76 270.94 299.275 270.94 298.668C270.94 298.033 270.772 297.529 270.436 297.156C270.109 296.773 269.624 296.582 268.98 296.582ZM276.156 299.228C276.249 299.695 276.45 300.049 276.758 300.292C277.066 300.535 277.481 300.656 278.004 300.656C278.667 300.656 279.152 300.395 279.46 299.872C279.768 299.349 279.922 298.458 279.922 297.198C279.698 297.515 279.381 297.763 278.97 297.94C278.569 298.108 278.13 298.192 277.654 298.192C277.047 298.192 276.497 298.071 276.002 297.828C275.507 297.576 275.115 297.207 274.826 296.722C274.546 296.227 274.406 295.63 274.406 294.93C274.406 293.903 274.705 293.087 275.302 292.48C275.909 291.864 276.739 291.556 277.794 291.556C279.063 291.556 279.964 291.981 280.496 292.83C281.037 293.67 281.308 294.963 281.308 296.708C281.308 297.912 281.205 298.897 281 299.662C280.804 300.427 280.459 301.006 279.964 301.398C279.469 301.79 278.783 301.986 277.906 301.986C276.907 301.986 276.137 301.725 275.596 301.202C275.055 300.679 274.751 300.021 274.686 299.228H276.156ZM277.934 296.848C278.494 296.848 278.933 296.675 279.25 296.33C279.577 295.975 279.74 295.509 279.74 294.93C279.74 294.286 279.567 293.787 279.222 293.432C278.886 293.068 278.424 292.886 277.836 292.886C277.248 292.886 276.781 293.073 276.436 293.446C276.1 293.81 275.932 294.291 275.932 294.888C275.932 295.457 276.095 295.929 276.422 296.302C276.758 296.666 277.262 296.848 277.934 296.848ZM282.845 293.25V291.794H285.757V302H284.147V293.25H282.845ZM287.949 296.764C287.949 295.149 288.22 293.889 288.761 292.984C289.312 292.069 290.255 291.612 291.589 291.612C292.924 291.612 293.862 292.069 294.403 292.984C294.954 293.889 295.229 295.149 295.229 296.764C295.229 298.397 294.954 299.676 294.403 300.6C293.862 301.515 292.924 301.972 291.589 301.972C290.255 301.972 289.312 301.515 288.761 300.6C288.22 299.676 287.949 298.397 287.949 296.764ZM293.661 296.764C293.661 296.008 293.61 295.369 293.507 294.846C293.414 294.323 293.218 293.899 292.919 293.572C292.621 293.236 292.177 293.068 291.589 293.068C291.001 293.068 290.558 293.236 290.259 293.572C289.961 293.899 289.76 294.323 289.657 294.846C289.564 295.369 289.517 296.008 289.517 296.764C289.517 297.548 289.564 298.206 289.657 298.738C289.751 299.27 289.947 299.699 290.245 300.026C290.553 300.353 291.001 300.516 291.589 300.516C292.177 300.516 292.621 300.353 292.919 300.026C293.227 299.699 293.428 299.27 293.521 298.738C293.615 298.206 293.661 297.548 293.661 296.764Z" fill="#374151"/>
<path d="M267.612 43.124C268.628 42.308 269.424 41.64 270 41.12C270.576 40.592 271.06 40.044 271.452 39.476C271.852 38.9 272.052 38.336 272.052 37.784C272.052 37.264 271.924 36.856 271.668 36.56C271.42 36.256 271.016 36.104 270.456 36.104C269.912 36.104 269.488 36.276 269.184 36.62C268.888 36.956 268.728 37.408 268.704 37.976H267.648C267.68 37.08 267.952 36.388 268.464 35.9C268.976 35.412 269.636 35.168 270.444 35.168C271.268 35.168 271.92 35.396 272.4 35.852C272.888 36.308 273.132 36.936 273.132 37.736C273.132 38.4 272.932 39.048 272.532 39.68C272.14 40.304 271.692 40.856 271.188 41.336C270.684 41.808 270.04 42.36 269.256 42.992H273.384V43.904H267.612V43.124ZM274.646 39.572C274.646 38.196 274.87 37.124 275.318 36.356C275.766 35.58 276.55 35.192 277.67 35.192C278.782 35.192 279.562 35.58 280.01 36.356C280.458 37.124 280.682 38.196 280.682 39.572C280.682 40.972 280.458 42.06 280.01 42.836C279.562 43.612 278.782 44 277.67 44C276.55 44 275.766 43.612 275.318 42.836C274.87 42.06 274.646 40.972 274.646 39.572ZM279.602 39.572C279.602 38.876 279.554 38.288 279.458 37.808C279.37 37.32 279.182 36.928 278.894 36.632C278.614 36.336 278.206 36.188 277.67 36.188C277.126 36.188 276.71 36.336 276.422 36.632C276.142 36.928 275.954 37.32 275.858 37.808C275.77 38.288 275.726 38.876 275.726 39.572C275.726 40.292 275.77 40.896 275.858 41.384C275.954 41.872 276.142 42.264 276.422 42.56C276.71 42.856 277.126 43.004 277.67 43.004C278.206 43.004 278.614 42.856 278.894 42.56C279.182 42.264 279.37 41.872 279.458 41.384C279.554 40.896 279.602 40.292 279.602 39.572ZM282.05 43.124C283.066 42.308 283.862 41.64 284.438 41.12C285.014 40.592 285.498 40.044 285.89 39.476C286.29 38.9 286.49 38.336 286.49 37.784C286.49 37.264 286.362 36.856 286.106 36.56C285.858 36.256 285.454 36.104 284.894 36.104C284.35 36.104 283.926 36.276 283.622 36.62C283.326 36.956 283.166 37.408 283.142 37.976H282.086C282.118 37.08 282.39 36.388 282.902 35.9C283.414 35.412 284.074 35.168 284.882 35.168C285.706 35.168 286.358 35.396 286.838 35.852C287.326 36.308 287.57 36.936 287.57 37.736C287.57 38.4 287.37 39.048 286.97 39.68C286.578 40.304 286.13 40.856 285.626 41.336C285.122 41.808 284.478 42.36 283.694 42.992H287.822V43.904H282.05V43.124ZM289.06 37.508C289.116 36.772 289.4 36.196 289.912 35.78C290.424 35.364 291.088 35.156 291.904 35.156C292.448 35.156 292.916 35.256 293.308 35.456C293.708 35.648 294.008 35.912 294.208 36.248C294.416 36.584 294.52 36.964 294.52 37.388C294.52 37.884 294.376 38.312 294.088 38.672C293.808 39.032 293.44 39.264 292.984 39.368V39.428C293.504 39.556 293.916 39.808 294.22 40.184C294.524 40.56 294.676 41.052 294.676 41.66C294.676 42.116 294.572 42.528 294.364 42.896C294.156 43.256 293.844 43.54 293.428 43.748C293.012 43.956 292.512 44.06 291.928 44.06C291.08 44.06 290.384 43.84 289.84 43.4C289.296 42.952 288.992 42.32 288.928 41.504H289.984C290.04 41.984 290.236 42.376 290.572 42.68C290.908 42.984 291.356 43.136 291.916 43.136C292.476 43.136 292.9 42.992 293.188 42.704C293.484 42.408 293.632 42.028 293.632 41.564C293.632 40.964 293.432 40.532 293.032 40.268C292.632 40.004 292.028 39.872 291.22 39.872H290.944V38.96H291.232C291.968 38.952 292.524 38.832 292.9 38.6C293.276 38.36 293.464 37.992 293.464 37.496C293.464 37.072 293.324 36.732 293.044 36.476C292.772 36.22 292.38 36.092 291.868 36.092C291.372 36.092 290.972 36.22 290.668 36.476C290.364 36.732 290.184 37.076 290.128 37.508H289.06ZM296.678 44.072C296.47 44.072 296.294 44 296.15 43.856C296.006 43.712 295.934 43.536 295.934 43.328C295.934 43.12 296.006 42.944 296.15 42.8C296.294 42.656 296.47 42.584 296.678 42.584C296.878 42.584 297.046 42.656 297.182 42.8C297.326 42.944 297.398 43.12 297.398 43.328C297.398 43.536 297.326 43.712 297.182 43.856C297.046 44 296.878 44.072 296.678 44.072ZM298.67 39.572C298.67 38.196 298.894 37.124 299.342 36.356C299.79 35.58 300.574 35.192 301.694 35.192C302.806 35.192 303.586 35.58 304.034 36.356C304.482 37.124 304.706 38.196 304.706 39.572C304.706 40.972 304.482 42.06 304.034 42.836C303.586 43.612 302.806 44 301.694 44C300.574 44 299.79 43.612 299.342 42.836C298.894 42.06 298.67 40.972 298.67 39.572ZM303.626 39.572C303.626 38.876 303.578 38.288 303.482 37.808C303.394 37.32 303.206 36.928 302.918 36.632C302.638 36.336 302.23 36.188 301.694 36.188C301.15 36.188 300.734 36.336 300.446 36.632C300.166 36.928 299.978 37.32 299.882 37.808C299.794 38.288 299.75 38.876 299.75 39.572C299.75 40.292 299.794 40.896 299.882 41.384C299.978 41.872 300.166 42.264 300.446 42.56C300.734 42.856 301.15 43.004 301.694 43.004C302.23 43.004 302.638 42.856 302.918 42.56C303.206 42.264 303.394 41.872 303.482 41.384C303.578 40.896 303.626 40.292 303.626 39.572ZM305.917 36.32V35.324H308.173V44H307.069V36.32H305.917ZM310.577 44.072C310.369 44.072 310.193 44 310.049 43.856C309.905 43.712 309.833 43.536 309.833 43.328C309.833 43.12 309.905 42.944 310.049 42.8C310.193 42.656 310.369 42.584 310.577 42.584C310.777 42.584 310.945 42.656 311.081 42.8C311.225 42.944 311.297 43.12 311.297 43.328C311.297 43.536 311.225 43.712 311.081 43.856C310.945 44 310.777 44.072 310.577 44.072ZM312.568 39.572C312.568 38.196 312.792 37.124 313.24 36.356C313.688 35.58 314.472 35.192 315.592 35.192C316.704 35.192 317.484 35.58 317.932 36.356C318.38 37.124 318.604 38.196 318.604 39.572C318.604 40.972 318.38 42.06 317.932 42.836C317.484 43.612 316.704 44 315.592 44C314.472 44 313.688 43.612 313.24 42.836C312.792 42.06 312.568 40.972 312.568 39.572ZM317.524 39.572C317.524 38.876 317.476 38.288 317.38 37.808C317.292 37.32 317.104 36.928 316.816 36.632C316.536 36.336 316.128 36.188 315.592 36.188C315.048 36.188 314.632 36.336 314.344 36.632C314.064 36.928 313.876 37.32 313.78 37.808C313.692 38.288 313.648 38.876 313.648 39.572C313.648 40.292 313.692 40.896 313.78 41.384C313.876 41.872 314.064 42.264 314.344 42.56C314.632 42.856 315.048 43.004 315.592 43.004C316.128 43.004 316.536 42.856 316.816 42.56C317.104 42.264 317.292 41.872 317.38 41.384C317.476 40.896 317.524 40.292 317.524 39.572ZM325.635 36.272H321.423V39.008C321.607 38.752 321.879 38.544 322.239 38.384C322.599 38.216 322.987 38.132 323.403 38.132C324.067 38.132 324.607 38.272 325.023 38.552C325.439 38.824 325.735 39.18 325.911 39.62C326.095 40.052 326.187 40.512 326.187 41C326.187 41.576 326.079 42.092 325.863 42.548C325.647 43.004 325.315 43.364 324.867 43.628C324.427 43.892 323.879 44.024 323.223 44.024C322.383 44.024 321.703 43.808 321.183 43.376C320.663 42.944 320.347 42.368 320.235 41.648H321.303C321.407 42.104 321.627 42.46 321.963 42.716C322.299 42.972 322.723 43.1 323.235 43.1C323.867 43.1 324.343 42.912 324.663 42.536C324.983 42.152 325.143 41.648 325.143 41.024C325.143 40.4 324.983 39.92 324.663 39.584C324.343 39.24 323.871 39.068 323.247 39.068C322.823 39.068 322.451 39.172 322.131 39.38C321.819 39.58 321.591 39.856 321.447 40.208H320.415V35.312H325.635V36.272Z" fill="#6B7280"/>
<rect x="192" y="60" width="135" height="96" rx="8" fill="#F9FAFB"/>
<ellipse cx="260.003" cy="95.9998" rx="23.8933" ry="23.8933" fill="url(#paint0_linear_910_39483)"/>
<path d="M218.015 144.084C217.431 144.084 216.903 143.984 216.431 143.784C215.967 143.584 215.599 143.296 215.327 142.92C215.055 142.544 214.915 142.1 214.907 141.588H216.707C216.731 141.932 216.851 142.204 217.067 142.404C217.291 142.604 217.595 142.704 217.979 142.704C218.371 142.704 218.679 142.612 218.903 142.428C219.127 142.236 219.239 141.988 219.239 141.684C219.239 141.436 219.163 141.232 219.011 141.072C218.859 140.912 218.667 140.788 218.435 140.7C218.211 140.604 217.899 140.5 217.499 140.388C216.955 140.228 216.511 140.072 216.167 139.92C215.831 139.76 215.539 139.524 215.291 139.212C215.051 138.892 214.931 138.468 214.931 137.94C214.931 137.444 215.055 137.012 215.303 136.644C215.551 136.276 215.899 135.996 216.347 135.804C216.795 135.604 217.307 135.504 217.883 135.504C218.747 135.504 219.447 135.716 219.983 136.14C220.527 136.556 220.827 137.14 220.883 137.892H219.035C219.019 137.604 218.895 137.368 218.663 137.184C218.439 136.992 218.139 136.896 217.763 136.896C217.435 136.896 217.171 136.98 216.971 137.148C216.779 137.316 216.683 137.56 216.683 137.88C216.683 138.104 216.755 138.292 216.899 138.444C217.051 138.588 217.235 138.708 217.451 138.804C217.675 138.892 217.987 138.996 218.387 139.116C218.931 139.276 219.375 139.436 219.719 139.596C220.063 139.756 220.359 139.996 220.607 140.316C220.855 140.636 220.979 141.056 220.979 141.576C220.979 142.024 220.863 142.44 220.631 142.824C220.399 143.208 220.059 143.516 219.611 143.748C219.163 143.972 218.631 144.084 218.015 144.084ZM226.179 137.256C226.683 137.256 227.131 137.368 227.523 137.592C227.915 137.808 228.219 138.132 228.435 138.564C228.659 138.988 228.771 139.5 228.771 140.1V144H227.091V140.328C227.091 139.8 226.959 139.396 226.695 139.116C226.431 138.828 226.071 138.684 225.615 138.684C225.151 138.684 224.783 138.828 224.511 139.116C224.247 139.396 224.115 139.8 224.115 140.328V144H222.435V135.12H224.115V138.18C224.331 137.892 224.619 137.668 224.979 137.508C225.339 137.34 225.739 137.256 226.179 137.256ZM229.937 140.652C229.937 139.98 230.069 139.384 230.333 138.864C230.605 138.344 230.969 137.944 231.425 137.664C231.889 137.384 232.405 137.244 232.973 137.244C233.469 137.244 233.901 137.344 234.269 137.544C234.645 137.744 234.945 137.996 235.169 138.3V137.352H236.861V144H235.169V143.028C234.953 143.34 234.653 143.6 234.269 143.808C233.893 144.008 233.457 144.108 232.961 144.108C232.401 144.108 231.889 143.964 231.425 143.676C230.969 143.388 230.605 142.984 230.333 142.464C230.069 141.936 229.937 141.332 229.937 140.652ZM235.169 140.676C235.169 140.268 235.089 139.92 234.929 139.632C234.769 139.336 234.553 139.112 234.281 138.96C234.009 138.8 233.717 138.72 233.405 138.72C233.093 138.72 232.805 138.796 232.541 138.948C232.277 139.1 232.061 139.324 231.893 139.62C231.733 139.908 231.653 140.252 231.653 140.652C231.653 141.052 231.733 141.404 231.893 141.708C232.061 142.004 232.277 142.232 232.541 142.392C232.813 142.552 233.101 142.632 233.405 142.632C233.717 142.632 234.009 142.556 234.281 142.404C234.553 142.244 234.769 142.02 234.929 141.732C235.089 141.436 235.169 141.084 235.169 140.676ZM240.182 138.384C240.398 138.032 240.678 137.756 241.022 137.556C241.374 137.356 241.774 137.256 242.222 137.256V139.02H241.778C241.25 139.02 240.85 139.144 240.578 139.392C240.314 139.64 240.182 140.072 240.182 140.688V144H238.502V137.352H240.182V138.384ZM245.033 138.312C245.249 138.008 245.545 137.756 245.921 137.556C246.305 137.348 246.741 137.244 247.229 137.244C247.797 137.244 248.309 137.384 248.765 137.664C249.229 137.944 249.593 138.344 249.857 138.864C250.129 139.376 250.265 139.972 250.265 140.652C250.265 141.332 250.129 141.936 249.857 142.464C249.593 142.984 249.229 143.388 248.765 143.676C248.309 143.964 247.797 144.108 247.229 144.108C246.741 144.108 246.309 144.008 245.933 143.808C245.565 143.608 245.265 143.356 245.033 143.052V147.168H243.353V137.352H245.033V138.312ZM248.549 140.652C248.549 140.252 248.465 139.908 248.297 139.62C248.137 139.324 247.921 139.1 247.649 138.948C247.385 138.796 247.097 138.72 246.785 138.72C246.481 138.72 246.193 138.8 245.921 138.96C245.657 139.112 245.441 139.336 245.273 139.632C245.113 139.928 245.033 140.276 245.033 140.676C245.033 141.076 245.113 141.424 245.273 141.72C245.441 142.016 245.657 142.244 245.921 142.404C246.193 142.556 246.481 142.632 246.785 142.632C247.097 142.632 247.385 142.552 247.649 142.392C247.921 142.232 248.137 142.004 248.297 141.708C248.465 141.412 248.549 141.06 248.549 140.652ZM253.166 135.12V144H251.486V135.12H253.166ZM261.186 137.352L257.07 147.144H255.282L256.722 143.832L254.058 137.352H255.942L257.658 141.996L259.398 137.352H261.186ZM270.123 135.624V136.98H266.631V139.128H269.307V140.46H266.631V144H264.951V135.624H270.123ZM270.882 140.652C270.882 139.98 271.014 139.384 271.278 138.864C271.55 138.344 271.914 137.944 272.37 137.664C272.834 137.384 273.35 137.244 273.918 137.244C274.414 137.244 274.846 137.344 275.214 137.544C275.59 137.744 275.89 137.996 276.114 138.3V137.352H277.806V144H276.114V143.028C275.898 143.34 275.598 143.6 275.214 143.808C274.838 144.008 274.402 144.108 273.906 144.108C273.346 144.108 272.834 143.964 272.37 143.676C271.914 143.388 271.55 142.984 271.278 142.464C271.014 141.936 270.882 141.332 270.882 140.652ZM276.114 140.676C276.114 140.268 276.034 139.92 275.874 139.632C275.714 139.336 275.498 139.112 275.226 138.96C274.954 138.8 274.662 138.72 274.35 138.72C274.038 138.72 273.75 138.796 273.486 138.948C273.222 139.1 273.006 139.324 272.838 139.62C272.678 139.908 272.598 140.252 272.598 140.652C272.598 141.052 272.678 141.404 272.838 141.708C273.006 142.004 273.222 142.232 273.486 142.392C273.758 142.552 274.046 142.632 274.35 142.632C274.662 142.632 274.954 142.556 275.226 142.404C275.498 142.244 275.714 142.02 275.874 141.732C276.034 141.436 276.114 141.084 276.114 140.676ZM281.127 135.12V144H279.447V135.12H281.127ZM284.467 135.12V144H282.787V135.12H284.467ZM286.979 136.56C286.683 136.56 286.435 136.468 286.235 136.284C286.043 136.092 285.947 135.856 285.947 135.576C285.947 135.296 286.043 135.064 286.235 134.88C286.435 134.688 286.683 134.592 286.979 134.592C287.275 134.592 287.519 134.688 287.711 134.88C287.911 135.064 288.011 135.296 288.011 135.576C288.011 135.856 287.911 136.092 287.711 136.284C287.519 136.468 287.275 136.56 286.979 136.56ZM287.807 137.352V144H286.127V137.352H287.807ZM293.151 137.256C293.943 137.256 294.583 137.508 295.071 138.012C295.559 138.508 295.803 139.204 295.803 140.1V144H294.123V140.328C294.123 139.8 293.991 139.396 293.727 139.116C293.463 138.828 293.103 138.684 292.647 138.684C292.183 138.684 291.815 138.828 291.543 139.116C291.279 139.396 291.147 139.8 291.147 140.328V144H289.467V137.352H291.147V138.18C291.371 137.892 291.655 137.668 291.999 137.508C292.351 137.34 292.735 137.256 293.151 137.256ZM300.004 137.244C300.5 137.244 300.936 137.344 301.312 137.544C301.688 137.736 301.984 137.988 302.2 138.3V137.352H303.892V144.048C303.892 144.664 303.768 145.212 303.52 145.692C303.272 146.18 302.9 146.564 302.404 146.844C301.908 147.132 301.308 147.276 300.604 147.276C299.66 147.276 298.884 147.056 298.276 146.616C297.676 146.176 297.336 145.576 297.256 144.816H298.924C299.012 145.12 299.2 145.36 299.488 145.536C299.784 145.72 300.14 145.812 300.556 145.812C301.044 145.812 301.44 145.664 301.744 145.368C302.048 145.08 302.2 144.64 302.2 144.048V143.016C301.984 143.328 301.684 143.588 301.3 143.796C300.924 144.004 300.492 144.108 300.004 144.108C299.444 144.108 298.932 143.964 298.468 143.676C298.004 143.388 297.636 142.984 297.364 142.464C297.1 141.936 296.968 141.332 296.968 140.652C296.968 139.98 297.1 139.384 297.364 138.864C297.636 138.344 298 137.944 298.456 137.664C298.92 137.384 299.436 137.244 300.004 137.244ZM302.2 140.676C302.2 140.268 302.12 139.92 301.96 139.632C301.8 139.336 301.584 139.112 301.312 138.96C301.04 138.8 300.748 138.72 300.436 138.72C300.124 138.72 299.836 138.796 299.572 138.948C299.308 139.1 299.092 139.324 298.924 139.62C298.764 139.908 298.684 140.252 298.684 140.652C298.684 141.052 298.764 141.404 298.924 141.708C299.092 142.004 299.308 142.232 299.572 142.392C299.844 142.552 300.132 142.632 300.436 142.632C300.748 142.632 301.04 142.556 301.312 142.404C301.584 142.244 301.8 142.02 301.96 141.732C302.12 141.436 302.2 141.084 302.2 140.676Z" fill="#374151"/>
<rect x="233" y="225" width="45" height="24" rx="12" fill="#E6F5FF"/>
<path d="M242.687 236.512C242.687 235.128 242.935 234.044 243.431 233.26C243.935 232.476 244.767 232.084 245.927 232.084C247.087 232.084 247.915 232.476 248.411 233.26C248.915 234.044 249.167 235.128 249.167 236.512C249.167 237.904 248.915 238.996 248.411 239.788C247.915 240.58 247.087 240.976 245.927 240.976C244.767 240.976 243.935 240.58 243.431 239.788C242.935 238.996 242.687 237.904 242.687 236.512ZM247.511 236.512C247.511 235.92 247.471 235.424 247.391 235.024C247.319 234.616 247.167 234.284 246.935 234.028C246.711 233.772 246.375 233.644 245.927 233.644C245.479 233.644 245.139 233.772 244.907 234.028C244.683 234.284 244.531 234.616 244.451 235.024C244.379 235.424 244.343 235.92 244.343 236.512C244.343 237.12 244.379 237.632 244.451 238.048C244.523 238.456 244.675 238.788 244.907 239.044C245.139 239.292 245.479 239.416 245.927 239.416C246.375 239.416 246.715 239.292 246.947 239.044C247.179 238.788 247.331 238.456 247.403 238.048C247.475 237.632 247.511 237.12 247.511 236.512ZM251.381 241.084C251.077 241.084 250.825 240.992 250.625 240.808C250.433 240.616 250.337 240.38 250.337 240.1C250.337 239.82 250.433 239.588 250.625 239.404C250.825 239.212 251.077 239.116 251.381 239.116C251.677 239.116 251.921 239.212 252.113 239.404C252.305 239.588 252.401 239.82 252.401 240.1C252.401 240.38 252.305 240.616 252.113 240.808C251.921 240.992 251.677 241.084 251.381 241.084ZM255.506 238.54C255.57 238.892 255.714 239.164 255.938 239.356C256.17 239.54 256.478 239.632 256.862 239.632C257.358 239.632 257.718 239.428 257.942 239.02C258.166 238.604 258.278 237.908 258.278 236.932C258.094 237.188 257.834 237.388 257.498 237.532C257.17 237.676 256.814 237.748 256.43 237.748C255.918 237.748 255.454 237.644 255.038 237.436C254.63 237.22 254.306 236.904 254.066 236.488C253.826 236.064 253.706 235.552 253.706 234.952C253.706 234.064 253.97 233.36 254.498 232.84C255.026 232.312 255.746 232.048 256.658 232.048C257.794 232.048 258.594 232.412 259.058 233.14C259.53 233.868 259.766 234.964 259.766 236.428C259.766 237.468 259.674 238.32 259.49 238.984C259.314 239.648 259.006 240.152 258.566 240.496C258.134 240.84 257.542 241.012 256.79 241.012C256.198 241.012 255.694 240.9 255.278 240.676C254.862 240.444 254.542 240.144 254.318 239.776C254.102 239.4 253.978 238.988 253.946 238.54H255.506ZM256.778 236.38C257.194 236.38 257.522 236.252 257.762 235.996C258.002 235.74 258.122 235.396 258.122 234.964C258.122 234.492 257.994 234.128 257.738 233.872C257.49 233.608 257.15 233.476 256.718 233.476C256.286 233.476 255.942 233.612 255.686 233.884C255.438 234.148 255.314 234.5 255.314 234.94C255.314 235.364 255.434 235.712 255.674 235.984C255.922 236.248 256.29 236.38 256.778 236.38ZM263.018 238.54C263.082 238.892 263.226 239.164 263.45 239.356C263.682 239.54 263.99 239.632 264.374 239.632C264.87 239.632 265.23 239.428 265.454 239.02C265.678 238.604 265.79 237.908 265.79 236.932C265.606 237.188 265.346 237.388 265.01 237.532C264.682 237.676 264.326 237.748 263.942 237.748C263.43 237.748 262.966 237.644 262.55 237.436C262.142 237.22 261.818 236.904 261.578 236.488C261.338 236.064 261.218 235.552 261.218 234.952C261.218 234.064 261.482 233.36 262.01 232.84C262.538 232.312 263.258 232.048 264.17 232.048C265.306 232.048 266.106 232.412 266.57 233.14C267.042 233.868 267.278 234.964 267.278 236.428C267.278 237.468 267.186 238.32 267.002 238.984C266.826 239.648 266.518 240.152 266.078 240.496C265.646 240.84 265.054 241.012 264.302 241.012C263.71 241.012 263.206 240.9 262.79 240.676C262.374 240.444 262.054 240.144 261.83 239.776C261.614 239.4 261.49 238.988 261.458 238.54H263.018ZM264.29 236.38C264.706 236.38 265.034 236.252 265.274 235.996C265.514 235.74 265.634 235.396 265.634 234.964C265.634 234.492 265.506 234.128 265.25 233.872C265.002 233.608 264.662 233.476 264.23 233.476C263.798 233.476 263.454 233.612 263.198 233.884C262.95 234.148 262.826 234.5 262.826 234.94C262.826 235.364 262.946 235.712 263.186 235.984C263.434 236.248 263.802 236.38 264.29 236.38Z" fill="#0198FF"/>
<rect x="286.5" y="225.5" width="44" height="23" rx="11.5" fill="white"/>
<path d="M295.687 236.512C295.687 235.128 295.935 234.044 296.431 233.26C296.935 232.476 297.767 232.084 298.927 232.084C300.087 232.084 300.915 232.476 301.411 233.26C301.915 234.044 302.167 235.128 302.167 236.512C302.167 237.904 301.915 238.996 301.411 239.788C300.915 240.58 300.087 240.976 298.927 240.976C297.767 240.976 296.935 240.58 296.431 239.788C295.935 238.996 295.687 237.904 295.687 236.512ZM300.511 236.512C300.511 235.92 300.471 235.424 300.391 235.024C300.319 234.616 300.167 234.284 299.935 234.028C299.711 233.772 299.375 233.644 298.927 233.644C298.479 233.644 298.139 233.772 297.907 234.028C297.683 234.284 297.531 234.616 297.451 235.024C297.379 235.424 297.343 235.92 297.343 236.512C297.343 237.12 297.379 237.632 297.451 238.048C297.523 238.456 297.675 238.788 297.907 239.044C298.139 239.292 298.479 239.416 298.927 239.416C299.375 239.416 299.715 239.292 299.947 239.044C300.179 238.788 300.331 238.456 300.403 238.048C300.475 237.632 300.511 237.12 300.511 236.512ZM304.381 241.084C304.077 241.084 303.825 240.992 303.625 240.808C303.433 240.616 303.337 240.38 303.337 240.1C303.337 239.82 303.433 239.588 303.625 239.404C303.825 239.212 304.077 239.116 304.381 239.116C304.677 239.116 304.921 239.212 305.113 239.404C305.305 239.588 305.401 239.82 305.401 240.1C305.401 240.38 305.305 240.616 305.113 240.808C304.921 240.992 304.677 241.084 304.381 241.084ZM308.506 238.54C308.57 238.892 308.714 239.164 308.938 239.356C309.17 239.54 309.478 239.632 309.862 239.632C310.358 239.632 310.718 239.428 310.942 239.02C311.166 238.604 311.278 237.908 311.278 236.932C311.094 237.188 310.834 237.388 310.498 237.532C310.17 237.676 309.814 237.748 309.43 237.748C308.918 237.748 308.454 237.644 308.038 237.436C307.63 237.22 307.306 236.904 307.066 236.488C306.826 236.064 306.706 235.552 306.706 234.952C306.706 234.064 306.97 233.36 307.498 232.84C308.026 232.312 308.746 232.048 309.658 232.048C310.794 232.048 311.594 232.412 312.058 233.14C312.53 233.868 312.766 234.964 312.766 236.428C312.766 237.468 312.674 238.32 312.49 238.984C312.314 239.648 312.006 240.152 311.566 240.496C311.134 240.84 310.542 241.012 309.79 241.012C309.198 241.012 308.694 240.9 308.278 240.676C307.862 240.444 307.542 240.144 307.318 239.776C307.102 239.4 306.978 238.988 306.946 238.54H308.506ZM309.778 236.38C310.194 236.38 310.522 236.252 310.762 235.996C311.002 235.74 311.122 235.396 311.122 234.964C311.122 234.492 310.994 234.128 310.738 233.872C310.49 233.608 310.15 233.476 309.718 233.476C309.286 233.476 308.942 233.612 308.686 233.884C308.438 234.148 308.314 234.5 308.314 234.94C308.314 235.364 308.434 235.712 308.674 235.984C308.922 236.248 309.29 236.38 309.778 236.38ZM316.018 238.54C316.082 238.892 316.226 239.164 316.45 239.356C316.682 239.54 316.99 239.632 317.374 239.632C317.87 239.632 318.23 239.428 318.454 239.02C318.678 238.604 318.79 237.908 318.79 236.932C318.606 237.188 318.346 237.388 318.01 237.532C317.682 237.676 317.326 237.748 316.942 237.748C316.43 237.748 315.966 237.644 315.55 237.436C315.142 237.22 314.818 236.904 314.578 236.488C314.338 236.064 314.218 235.552 314.218 234.952C314.218 234.064 314.482 233.36 315.01 232.84C315.538 232.312 316.258 232.048 317.17 232.048C318.306 232.048 319.106 232.412 319.57 233.14C320.042 233.868 320.278 234.964 320.278 236.428C320.278 237.468 320.186 238.32 320.002 238.984C319.826 239.648 319.518 240.152 319.078 240.496C318.646 240.84 318.054 241.012 317.302 241.012C316.71 241.012 316.206 240.9 315.79 240.676C315.374 240.444 315.054 240.144 314.83 239.776C314.614 239.4 314.49 238.988 314.458 238.54H316.018ZM317.29 236.38C317.706 236.38 318.034 236.252 318.274 235.996C318.514 235.74 318.634 235.396 318.634 234.964C318.634 234.492 318.506 234.128 318.25 233.872C318.002 233.608 317.662 233.476 317.23 233.476C316.798 233.476 316.454 233.612 316.198 233.884C315.95 234.148 315.826 234.5 315.826 234.94C315.826 235.364 315.946 235.712 316.186 235.984C316.434 236.248 316.802 236.38 317.29 236.38Z" fill="#9CA3AF"/>
<rect x="286.5" y="225.5" width="44" height="23" rx="11.5" stroke="#E5E7EB"/>
<rect x="192" y="168" width="135" height="28" rx="14" fill="#E6F5FF"/>
<path d="M213.883 177.66L211.411 186H209.863L208.111 179.688L206.251 186L204.715 186.012L202.351 177.66H203.803L205.531 184.452L207.403 177.66H208.939L210.679 184.416L212.419 177.66H213.883ZM221.071 182.532C221.071 182.78 221.055 183.004 221.023 183.204H215.971C216.011 183.732 216.207 184.156 216.559 184.476C216.911 184.796 217.343 184.956 217.855 184.956C218.591 184.956 219.111 184.648 219.415 184.032H220.891C220.691 184.64 220.327 185.14 219.799 185.532C219.279 185.916 218.631 186.108 217.855 186.108C217.223 186.108 216.655 185.968 216.151 185.688C215.655 185.4 215.263 185 214.975 184.488C214.695 183.968 214.555 183.368 214.555 182.688C214.555 182.008 214.691 181.412 214.963 180.9C215.243 180.38 215.631 179.98 216.127 179.7C216.631 179.42 217.207 179.28 217.855 179.28C218.479 179.28 219.035 179.416 219.523 179.688C220.011 179.96 220.391 180.344 220.663 180.84C220.935 181.328 221.071 181.892 221.071 182.532ZM219.643 182.1C219.635 181.596 219.455 181.192 219.103 180.888C218.751 180.584 218.315 180.432 217.795 180.432C217.323 180.432 216.919 180.584 216.583 180.888C216.247 181.184 216.047 181.588 215.983 182.1H219.643ZM228.478 182.532C228.478 182.78 228.462 183.004 228.43 183.204H223.378C223.418 183.732 223.614 184.156 223.966 184.476C224.318 184.796 224.75 184.956 225.262 184.956C225.998 184.956 226.518 184.648 226.822 184.032H228.298C228.098 184.64 227.734 185.14 227.206 185.532C226.686 185.916 226.038 186.108 225.262 186.108C224.63 186.108 224.062 185.968 223.558 185.688C223.062 185.4 222.67 185 222.382 184.488C222.102 183.968 221.962 183.368 221.962 182.688C221.962 182.008 222.098 181.412 222.37 180.9C222.65 180.38 223.038 179.98 223.534 179.7C224.038 179.42 224.614 179.28 225.262 179.28C225.886 179.28 226.442 179.416 226.93 179.688C227.418 179.96 227.798 180.344 228.07 180.84C228.342 181.328 228.478 181.892 228.478 182.532ZM227.05 182.1C227.042 181.596 226.862 181.192 226.51 180.888C226.158 180.584 225.722 180.432 225.202 180.432C224.73 180.432 224.326 180.584 223.99 180.888C223.654 181.184 223.454 181.588 223.39 182.1H227.05ZM232.44 182.7L235.488 186H233.64L231.192 183.156V186H229.824V177.12H231.192V182.28L233.592 179.388H235.488L232.44 182.7ZM237.836 177.12V186H236.468V177.12H237.836ZM245.584 179.388L241.528 189.108H240.112L241.456 185.892L238.852 179.388H240.376L242.236 184.428L244.168 179.388H245.584ZM254.642 177.66V178.776H251.102V181.236H253.862V182.352H251.102V186H249.734V177.66H254.642ZM258.778 186.108C258.154 186.108 257.59 185.968 257.086 185.688C256.582 185.4 256.186 185 255.898 184.488C255.61 183.968 255.466 183.368 255.466 182.688C255.466 182.016 255.614 181.42 255.91 180.9C256.206 180.38 256.61 179.98 257.122 179.7C257.634 179.42 258.206 179.28 258.838 179.28C259.47 179.28 260.042 179.42 260.554 179.7C261.066 179.98 261.47 180.38 261.766 180.9C262.062 181.42 262.21 182.016 262.21 182.688C262.21 183.36 262.058 183.956 261.754 184.476C261.45 184.996 261.034 185.4 260.506 185.688C259.986 185.968 259.41 186.108 258.778 186.108ZM258.778 184.92C259.13 184.92 259.458 184.836 259.762 184.668C260.074 184.5 260.326 184.248 260.518 183.912C260.71 183.576 260.806 183.168 260.806 182.688C260.806 182.208 260.714 181.804 260.53 181.476C260.346 181.14 260.102 180.888 259.798 180.72C259.494 180.552 259.166 180.468 258.814 180.468C258.462 180.468 258.134 180.552 257.83 180.72C257.534 180.888 257.298 181.14 257.122 181.476C256.946 181.804 256.858 182.208 256.858 182.688C256.858 183.4 257.038 183.952 257.398 184.344C257.766 184.728 258.226 184.92 258.778 184.92ZM264.93 180.348C265.13 180.012 265.394 179.752 265.722 179.568C266.058 179.376 266.454 179.28 266.91 179.28V180.696H266.562C266.026 180.696 265.618 180.832 265.338 181.104C265.066 181.376 264.93 181.848 264.93 182.52V186H263.562V179.388H264.93V180.348ZM274.228 182.532C274.228 182.78 274.212 183.004 274.18 183.204H269.128C269.168 183.732 269.364 184.156 269.716 184.476C270.068 184.796 270.5 184.956 271.012 184.956C271.748 184.956 272.268 184.648 272.572 184.032H274.048C273.848 184.64 273.484 185.14 272.956 185.532C272.436 185.916 271.788 186.108 271.012 186.108C270.38 186.108 269.812 185.968 269.308 185.688C268.812 185.4 268.42 185 268.132 184.488C267.852 183.968 267.712 183.368 267.712 182.688C267.712 182.008 267.848 181.412 268.12 180.9C268.4 180.38 268.788 179.98 269.284 179.7C269.788 179.42 270.364 179.28 271.012 179.28C271.636 179.28 272.192 179.416 272.68 179.688C273.168 179.96 273.548 180.344 273.82 180.84C274.092 181.328 274.228 181.892 274.228 182.532ZM272.8 182.1C272.792 181.596 272.612 181.192 272.26 180.888C271.908 180.584 271.472 180.432 270.952 180.432C270.48 180.432 270.076 180.584 269.74 180.888C269.404 181.184 269.204 181.588 269.14 182.1H272.8ZM275.118 182.688C275.118 182.008 275.254 181.412 275.526 180.9C275.806 180.38 276.19 179.98 276.678 179.7C277.166 179.42 277.726 179.28 278.358 179.28C279.158 179.28 279.818 179.472 280.338 179.856C280.866 180.232 281.222 180.772 281.406 181.476H279.93C279.81 181.148 279.618 180.892 279.354 180.708C279.09 180.524 278.758 180.432 278.358 180.432C277.798 180.432 277.35 180.632 277.014 181.032C276.686 181.424 276.522 181.976 276.522 182.688C276.522 183.4 276.686 183.956 277.014 184.356C277.35 184.756 277.798 184.956 278.358 184.956C279.15 184.956 279.674 184.608 279.93 183.912H281.406C281.214 184.584 280.854 185.12 280.326 185.52C279.798 185.912 279.142 186.108 278.358 186.108C277.726 186.108 277.166 185.968 276.678 185.688C276.19 185.4 275.806 185 275.526 184.488C275.254 183.968 275.118 183.368 275.118 182.688ZM282.313 182.664C282.313 182 282.449 181.412 282.721 180.9C283.001 180.388 283.377 179.992 283.849 179.712C284.329 179.424 284.857 179.28 285.433 179.28C285.953 179.28 286.405 179.384 286.789 179.592C287.181 179.792 287.493 180.044 287.725 180.348V179.388H289.105V186H287.725V185.016C287.493 185.328 287.177 185.588 286.777 185.796C286.377 186.004 285.921 186.108 285.409 186.108C284.841 186.108 284.321 185.964 283.849 185.676C283.377 185.38 283.001 184.972 282.721 184.452C282.449 183.924 282.313 183.328 282.313 182.664ZM287.725 182.688C287.725 182.232 287.629 181.836 287.437 181.5C287.253 181.164 287.009 180.908 286.705 180.732C286.401 180.556 286.073 180.468 285.721 180.468C285.369 180.468 285.041 180.556 284.737 180.732C284.433 180.9 284.185 181.152 283.993 181.488C283.809 181.816 283.717 182.208 283.717 182.664C283.717 183.12 283.809 183.52 283.993 183.864C284.185 184.208 284.433 184.472 284.737 184.656C285.049 184.832 285.377 184.92 285.721 184.92C286.073 184.92 286.401 184.832 286.705 184.656C287.009 184.48 287.253 184.224 287.437 183.888C287.629 183.544 287.725 183.144 287.725 182.688ZM293.302 186.108C292.782 186.108 292.314 186.016 291.898 185.832C291.49 185.64 291.166 185.384 290.926 185.064C290.686 184.736 290.558 184.372 290.542 183.972H291.958C291.982 184.252 292.114 184.488 292.354 184.68C292.602 184.864 292.91 184.956 293.278 184.956C293.662 184.956 293.958 184.884 294.166 184.74C294.382 184.588 294.49 184.396 294.49 184.164C294.49 183.916 294.37 183.732 294.13 183.612C293.898 183.492 293.526 183.36 293.014 183.216C292.518 183.08 292.114 182.948 291.802 182.82C291.49 182.692 291.218 182.496 290.986 182.232C290.762 181.968 290.65 181.62 290.65 181.188C290.65 180.836 290.754 180.516 290.962 180.228C291.17 179.932 291.466 179.7 291.85 179.532C292.242 179.364 292.69 179.28 293.194 179.28C293.946 179.28 294.55 179.472 295.006 179.856C295.47 180.232 295.718 180.748 295.75 181.404H294.382C294.358 181.108 294.238 180.872 294.022 180.696C293.806 180.52 293.514 180.432 293.146 180.432C292.786 180.432 292.51 180.5 292.318 180.636C292.126 180.772 292.03 180.952 292.03 181.176C292.03 181.352 292.094 181.5 292.222 181.62C292.35 181.74 292.506 181.836 292.69 181.908C292.874 181.972 293.146 182.056 293.506 182.16C293.986 182.288 294.378 182.42 294.682 182.556C294.994 182.684 295.262 182.876 295.486 183.132C295.71 183.388 295.826 183.728 295.834 184.152C295.834 184.528 295.73 184.864 295.522 185.16C295.314 185.456 295.018 185.688 294.634 185.856C294.258 186.024 293.814 186.108 293.302 186.108ZM298.908 180.504V184.164C298.908 184.412 298.964 184.592 299.076 184.704C299.196 184.808 299.396 184.86 299.676 184.86H300.516V186H299.436C298.82 186 298.348 185.856 298.02 185.568C297.692 185.28 297.528 184.812 297.528 184.164V180.504H296.748V179.388H297.528V177.744H298.908V179.388H300.516V180.504H298.908Z" fill="#0198FF"/>
<path d="M309.5 178.25L313.25 182L309.5 185.75" stroke="#0198FF" stroke-linecap="round" stroke-linejoin="round"/>
<defs>
<filter id="filter0_d_910_39483" x="0" y="0" width="359" height="335" filterUnits="userSpaceOnUse" color-interpolation-filters="sRGB">
<feFlood flood-opacity="0" result="BackgroundImageFix"/>
<feColorMatrix in="SourceAlpha" type="matrix" values="0 0 0 0 0 0 0 0 0 0 0 0 0 0 0 0 0 0 127 0" result="hardAlpha"/>
<feOffset/>
<feGaussianBlur stdDeviation="6"/>
<feComposite in2="hardAlpha" operator="out"/>
<feColorMatrix type="matrix" values="0 0 0 0 0.47451 0 0 0 0 0.470588 0 0 0 0 0.517647 0 0 0 0.15 0"/>
<feBlend mode="normal" in2="BackgroundImageFix" result="effect1_dropShadow_910_39483"/>
<feBlend mode="normal" in="SourceGraphic" in2="effect1_dropShadow_910_39483" result="shape"/>
</filter>
<linearGradient id="paint0_linear_910_39483" x1="260.216" y1="67.8398" x2="277.923" y2="116.053" gradientUnits="userSpaceOnUse">
<stop stop-color="#FFF500"/>
<stop offset="1" stop-color="#FCA600"/>
</linearGradient>
</defs>
</svg>
