<svg width="359" height="335" viewBox="0 0 359 335" fill="none" xmlns="http://www.w3.org/2000/svg">
<g filter="url(#filter0_d_910_39483)">
<rect x="12" y="12" width="335" height="311" rx="20" fill="white"/>
</g>
<path d="M40.848 35.268H42.724V48.232H40.848V35.268ZM42.234 40.224H44.516V41.75H42.234V40.224ZM37.446 36.612H39.266C39.266 40.504 37.782 43.836 33.47 46.006L32.434 44.592C35.836 42.828 37.446 40.448 37.446 36.934V36.612ZM33.148 36.612H38.398V38.11H33.148V36.612ZM50.3669 36.094H52.3129C52.3129 39.58 50.1569 41.946 46.2789 42.968L45.5789 41.512C48.7569 40.686 50.3669 39.006 50.3669 37.018V36.094ZM46.3069 36.094H51.5709V37.578H46.3069V36.094ZM47.4549 43.528H56.2889V48.204H54.4269V44.984H47.4549V43.528ZM54.4269 35.282H56.2889V42.982H54.4269V35.282ZM51.6969 37.368H54.7349V38.838H51.6969V37.368ZM51.5709 40.126H54.6229V41.61H51.5709V40.126Z" fill="#9CA3AF"/>
<path d="M34.9127 73.84C36.1927 72.7733 37.2127 71.8867 37.9727 71.18C38.7327 70.46 39.366 69.7133 39.8727 68.94C40.3793 68.1667 40.6327 67.4067 40.6327 66.66C40.6327 65.98 40.4727 65.4467 40.1527 65.06C39.8327 64.6733 39.3393 64.48 38.6727 64.48C38.006 64.48 37.4927 64.7067 37.1327 65.16C36.7727 65.6 36.586 66.2067 36.5727 66.98H33.8527C33.906 65.38 34.3793 64.1667 35.2727 63.34C36.1793 62.5133 37.326 62.1 38.7127 62.1C40.2327 62.1 41.3993 62.5067 42.2127 63.32C43.026 64.12 43.4327 65.18 43.4327 66.5C43.4327 67.54 43.1527 68.5333 42.5927 69.48C42.0327 70.4267 41.3927 71.2533 40.6727 71.96C39.9527 72.6533 39.0127 73.4933 37.8527 74.48H43.7527V76.8H33.8727V74.72L34.9127 73.84ZM47.957 69.28C46.6237 68.5867 45.957 67.5133 45.957 66.06C45.957 65.34 46.137 64.6867 46.497 64.1C46.8704 63.5 47.4237 63.0267 48.157 62.68C48.9037 62.32 49.8104 62.14 50.877 62.14C51.9437 62.14 52.8437 62.32 53.577 62.68C54.3237 63.0267 54.877 63.5 55.237 64.1C55.6104 64.6867 55.797 65.34 55.797 66.06C55.797 66.7933 55.617 67.44 55.257 68C54.897 68.5467 54.417 68.9733 53.817 69.28C54.5504 69.6 55.1237 70.0667 55.537 70.68C55.9504 71.2933 56.157 72.02 56.157 72.86C56.157 73.7667 55.9237 74.56 55.457 75.24C55.0037 75.9067 54.377 76.42 53.577 76.78C52.777 77.14 51.877 77.32 50.877 77.32C49.877 77.32 48.977 77.14 48.177 76.78C47.3904 76.42 46.7637 75.9067 46.297 75.24C45.8437 74.56 45.617 73.7667 45.617 72.86C45.617 72.02 45.8237 71.2933 46.237 70.68C46.6504 70.0533 47.2237 69.5867 47.957 69.28ZM53.077 66.46C53.077 65.8067 52.877 65.3 52.477 64.94C52.0904 64.58 51.557 64.4 50.877 64.4C50.2104 64.4 49.677 64.58 49.277 64.94C48.8904 65.3 48.697 65.8133 48.697 66.48C48.697 67.08 48.897 67.56 49.297 67.92C49.7104 68.28 50.237 68.46 50.877 68.46C51.517 68.46 52.0437 68.28 52.457 67.92C52.8704 67.5467 53.077 67.06 53.077 66.46ZM50.877 70.5C50.117 70.5 49.497 70.6933 49.017 71.08C48.5504 71.4667 48.317 72.02 48.317 72.74C48.317 73.4067 48.5437 73.9533 48.997 74.38C49.4637 74.7933 50.0904 75 50.877 75C51.6637 75 52.2837 74.7867 52.737 74.36C53.1904 73.9333 53.417 73.3933 53.417 72.74C53.417 72.0333 53.1837 71.4867 52.717 71.1C52.2504 70.7 51.637 70.5 50.877 70.5ZM61.7486 74.06L59.4086 79.68H57.6086L58.9086 74.06H61.7486ZM72.7267 64.54L67.4067 77H64.5667L69.9267 64.86H63.0867V62.46H72.7267V64.54ZM74.4038 69.52C74.4038 67.2133 74.8171 65.4067 75.6438 64.1C76.4838 62.7933 77.8704 62.14 79.8038 62.14C81.7371 62.14 83.1171 62.7933 83.9438 64.1C84.7838 65.4067 85.2038 67.2133 85.2038 69.52C85.2038 71.84 84.7838 73.66 83.9438 74.98C83.1171 76.3 81.7371 76.96 79.8038 76.96C77.8704 76.96 76.4838 76.3 75.6438 74.98C74.8171 73.66 74.4038 71.84 74.4038 69.52ZM82.4438 69.52C82.4438 68.5333 82.3771 67.7067 82.2438 67.04C82.1238 66.36 81.8704 65.8067 81.4838 65.38C81.1104 64.9533 80.5504 64.74 79.8038 64.74C79.0571 64.74 78.4904 64.9533 78.1038 65.38C77.7304 65.8067 77.4771 66.36 77.3438 67.04C77.2238 67.7067 77.1638 68.5333 77.1638 69.52C77.1638 70.5333 77.2238 71.3867 77.3438 72.08C77.4638 72.76 77.7171 73.3133 78.1038 73.74C78.4904 74.1533 79.0571 74.36 79.8038 74.36C80.5504 74.36 81.1171 74.1533 81.5038 73.74C81.8904 73.3133 82.1438 72.76 82.2638 72.08C82.3838 71.3867 82.4438 70.5333 82.4438 69.52ZM87.3334 69.52C87.3334 67.2133 87.7468 65.4067 88.5734 64.1C89.4134 62.7933 90.8001 62.14 92.7334 62.14C94.6668 62.14 96.0468 62.7933 96.8734 64.1C97.7134 65.4067 98.1334 67.2133 98.1334 69.52C98.1334 71.84 97.7134 73.66 96.8734 74.98C96.0468 76.3 94.6668 76.96 92.7334 76.96C90.8001 76.96 89.4134 76.3 88.5734 74.98C87.7468 73.66 87.3334 71.84 87.3334 69.52ZM95.3734 69.52C95.3734 68.5333 95.3068 67.7067 95.1734 67.04C95.0534 66.36 94.8001 65.8067 94.4134 65.38C94.0401 64.9533 93.4801 64.74 92.7334 64.74C91.9868 64.74 91.4201 64.9533 91.0334 65.38C90.6601 65.8067 90.4068 66.36 90.2734 67.04C90.1534 67.7067 90.0934 68.5333 90.0934 69.52C90.0934 70.5333 90.1534 71.3867 90.2734 72.08C90.3934 72.76 90.6468 73.3133 91.0334 73.74C91.4201 74.1533 91.9868 74.36 92.7334 74.36C93.4801 74.36 94.0468 74.1533 94.4334 73.74C94.8201 73.3133 95.0734 72.76 95.1934 72.08C95.3134 71.3867 95.3734 70.5333 95.3734 69.52ZM100.263 69.52C100.263 67.2133 100.676 65.4067 101.503 64.1C102.343 62.7933 103.73 62.14 105.663 62.14C107.596 62.14 108.976 62.7933 109.803 64.1C110.643 65.4067 111.063 67.2133 111.063 69.52C111.063 71.84 110.643 73.66 109.803 74.98C108.976 76.3 107.596 76.96 105.663 76.96C103.73 76.96 102.343 76.3 101.503 74.98C100.676 73.66 100.263 71.84 100.263 69.52ZM108.303 69.52C108.303 68.5333 108.236 67.7067 108.103 67.04C107.983 66.36 107.73 65.8067 107.343 65.38C106.97 64.9533 106.41 64.74 105.663 64.74C104.916 64.74 104.35 64.9533 103.963 65.38C103.59 65.8067 103.336 66.36 103.203 67.04C103.083 67.7067 103.023 68.5333 103.023 69.52C103.023 70.5333 103.083 71.3867 103.203 72.08C103.323 72.76 103.576 73.3133 103.963 73.74C104.35 74.1533 104.916 74.36 105.663 74.36C106.41 74.36 106.976 74.1533 107.363 73.74C107.75 73.3133 108.003 72.76 108.123 72.08C108.243 71.3867 108.303 70.5333 108.303 69.52ZM116.573 74.06L114.233 79.68H112.433L113.733 74.06H116.573ZM118.271 69.52C118.271 67.2133 118.684 65.4067 119.511 64.1C120.351 62.7933 121.738 62.14 123.671 62.14C125.604 62.14 126.984 62.7933 127.811 64.1C128.651 65.4067 129.071 67.2133 129.071 69.52C129.071 71.84 128.651 73.66 127.811 74.98C126.984 76.3 125.604 76.96 123.671 76.96C121.738 76.96 120.351 76.3 119.511 74.98C118.684 73.66 118.271 71.84 118.271 69.52ZM126.311 69.52C126.311 68.5333 126.244 67.7067 126.111 67.04C125.991 66.36 125.738 65.8067 125.351 65.38C124.978 64.9533 124.418 64.74 123.671 64.74C122.924 64.74 122.358 64.9533 121.971 65.38C121.598 65.8067 121.344 66.36 121.211 67.04C121.091 67.7067 121.031 68.5333 121.031 69.52C121.031 70.5333 121.091 71.3867 121.211 72.08C121.331 72.76 121.584 73.3133 121.971 73.74C122.358 74.1533 122.924 74.36 123.671 74.36C124.418 74.36 124.984 74.1533 125.371 73.74C125.758 73.3133 126.011 72.76 126.131 72.08C126.251 71.3867 126.311 70.5333 126.311 69.52ZM131.201 69.52C131.201 67.2133 131.614 65.4067 132.441 64.1C133.281 62.7933 134.667 62.14 136.601 62.14C138.534 62.14 139.914 62.7933 140.741 64.1C141.581 65.4067 142.001 67.2133 142.001 69.52C142.001 71.84 141.581 73.66 140.741 74.98C139.914 76.3 138.534 76.96 136.601 76.96C134.667 76.96 133.281 76.3 132.441 74.98C131.614 73.66 131.201 71.84 131.201 69.52ZM139.241 69.52C139.241 68.5333 139.174 67.7067 139.041 67.04C138.921 66.36 138.667 65.8067 138.281 65.38C137.907 64.9533 137.347 64.74 136.601 64.74C135.854 64.74 135.287 64.9533 134.901 65.38C134.527 65.8067 134.274 66.36 134.141 67.04C134.021 67.7067 133.961 68.5333 133.961 69.52C133.961 70.5333 134.021 71.3867 134.141 72.08C134.261 72.76 134.514 73.3133 134.901 73.74C135.287 74.1533 135.854 74.36 136.601 74.36C137.347 74.36 137.914 74.1533 138.301 73.74C138.687 73.3133 138.941 72.76 139.061 72.08C139.181 71.3867 139.241 70.5333 139.241 69.52ZM144.13 69.52C144.13 67.2133 144.544 65.4067 145.37 64.1C146.21 62.7933 147.597 62.14 149.53 62.14C151.464 62.14 152.844 62.7933 153.67 64.1C154.51 65.4067 154.93 67.2133 154.93 69.52C154.93 71.84 154.51 73.66 153.67 74.98C152.844 76.3 151.464 76.96 149.53 76.96C147.597 76.96 146.21 76.3 145.37 74.98C144.544 73.66 144.13 71.84 144.13 69.52ZM152.17 69.52C152.17 68.5333 152.104 67.7067 151.97 67.04C151.85 66.36 151.597 65.8067 151.21 65.38C150.837 64.9533 150.277 64.74 149.53 64.74C148.784 64.74 148.217 64.9533 147.83 65.38C147.457 65.8067 147.204 66.36 147.07 67.04C146.95 67.7067 146.89 68.5333 146.89 69.52C146.89 70.5333 146.95 71.3867 147.07 72.08C147.19 72.76 147.444 73.3133 147.83 73.74C148.217 74.1533 148.784 74.36 149.53 74.36C150.277 74.36 150.844 74.1533 151.23 73.74C151.617 73.3133 151.87 72.76 151.99 72.08C152.11 71.3867 152.17 70.5333 152.17 69.52Z" fill="#111111"/>
<path d="M33.9114 103.472C34.9354 102.619 35.7514 101.909 36.3594 101.344C36.9674 100.768 37.474 100.171 37.8794 99.552C38.2847 98.9333 38.4874 98.3253 38.4874 97.728C38.4874 97.184 38.3594 96.7573 38.1034 96.448C37.8474 96.1387 37.4527 95.984 36.9194 95.984C36.386 95.984 35.9754 96.1653 35.6874 96.528C35.3994 96.88 35.25 97.3653 35.2394 97.984H33.0634C33.106 96.704 33.4847 95.7333 34.1994 95.072C34.9247 94.4107 35.842 94.08 36.9514 94.08C38.1674 94.08 39.1007 94.4053 39.7514 95.056C40.402 95.696 40.7274 96.544 40.7274 97.6C40.7274 98.432 40.5034 99.2267 40.0554 99.984C39.6074 100.741 39.0954 101.403 38.5194 101.968C37.9434 102.523 37.1914 103.195 36.2634 103.984H40.9834V105.84H33.0794V104.176L33.9114 103.472ZM43.6429 106.112C43.2375 106.112 42.9015 105.989 42.6349 105.744C42.3789 105.488 42.2509 105.173 42.2509 104.8C42.2509 104.427 42.3789 104.117 42.6349 103.872C42.9015 103.616 43.2375 103.488 43.6429 103.488C44.0375 103.488 44.3629 103.616 44.6189 103.872C44.8749 104.117 45.0029 104.427 45.0029 104.8C45.0029 105.173 44.8749 105.488 44.6189 105.744C44.3629 105.989 44.0375 106.112 43.6429 106.112ZM49.1431 102.72C49.2285 103.189 49.4205 103.552 49.7191 103.808C50.0285 104.053 50.4391 104.176 50.9511 104.176C51.6125 104.176 52.0925 103.904 52.3911 103.36C52.6898 102.805 52.8391 101.877 52.8391 100.576C52.5938 100.917 52.2471 101.184 51.7991 101.376C51.3618 101.568 50.8871 101.664 50.3751 101.664C49.6925 101.664 49.0738 101.525 48.5191 101.248C47.9751 100.96 47.5431 100.539 47.2231 99.984C46.9031 99.4187 46.7431 98.736 46.7431 97.936C46.7431 96.752 47.0951 95.8133 47.7991 95.12C48.5031 94.416 49.4631 94.064 50.6791 94.064C52.1938 94.064 53.2605 94.5493 53.8791 95.52C54.5085 96.4907 54.8231 97.952 54.8231 99.904C54.8231 101.291 54.7005 102.427 54.4551 103.312C54.2205 104.197 53.8098 104.869 53.2231 105.328C52.6471 105.787 51.8578 106.016 50.8551 106.016C50.0658 106.016 49.3938 105.867 48.8391 105.568C48.2845 105.259 47.8578 104.859 47.5591 104.368C47.2711 103.867 47.1058 103.317 47.0631 102.72H49.1431ZM50.8391 99.84C51.3938 99.84 51.8311 99.6693 52.1511 99.328C52.4711 98.9867 52.6311 98.528 52.6311 97.952C52.6311 97.3227 52.4605 96.8373 52.1191 96.496C51.7885 96.144 51.3351 95.968 50.7591 95.968C50.1831 95.968 49.7245 96.1493 49.3831 96.512C49.0525 96.864 48.8871 97.3333 48.8871 97.92C48.8871 98.4853 49.0471 98.9493 49.3671 99.312C49.6978 99.664 50.1885 99.84 50.8391 99.84ZM59.1588 102.72C59.2441 103.189 59.4361 103.552 59.7348 103.808C60.0441 104.053 60.4548 104.176 60.9668 104.176C61.6281 104.176 62.1081 103.904 62.4068 103.36C62.7054 102.805 62.8548 101.877 62.8548 100.576C62.6094 100.917 62.2628 101.184 61.8148 101.376C61.3774 101.568 60.9028 101.664 60.3908 101.664C59.7081 101.664 59.0894 101.525 58.5348 101.248C57.9908 100.96 57.5588 100.539 57.2388 99.984C56.9188 99.4187 56.7588 98.736 56.7588 97.936C56.7588 96.752 57.1108 95.8133 57.8148 95.12C58.5188 94.416 59.4788 94.064 60.6948 94.064C62.2094 94.064 63.2761 94.5493 63.8948 95.52C64.5241 96.4907 64.8388 97.952 64.8388 99.904C64.8388 101.291 64.7161 102.427 64.4708 103.312C64.2361 104.197 63.8254 104.869 63.2388 105.328C62.6628 105.787 61.8734 106.016 60.8708 106.016C60.0814 106.016 59.4094 105.867 58.8548 105.568C58.3001 105.259 57.8734 104.859 57.5748 104.368C57.2868 103.867 57.1214 103.317 57.0788 102.72H59.1588ZM60.8548 99.84C61.4094 99.84 61.8468 99.6693 62.1668 99.328C62.4868 98.9867 62.6468 98.528 62.6468 97.952C62.6468 97.3227 62.4761 96.8373 62.1348 96.496C61.8041 96.144 61.3508 95.968 60.7748 95.968C60.1988 95.968 59.7401 96.1493 59.3988 96.512C59.0681 96.864 58.9028 97.3333 58.9028 97.92C58.9028 98.4853 59.0628 98.9493 59.3828 99.312C59.7134 99.664 60.2041 99.84 60.8548 99.84ZM66.3264 97.2C66.3264 96.3893 66.561 95.7547 67.0304 95.296C67.5104 94.8373 68.1237 94.608 68.8704 94.608C69.617 94.608 70.225 94.8373 70.6944 95.296C71.1744 95.7547 71.4144 96.3893 71.4144 97.2C71.4144 98.0213 71.1744 98.6613 70.6944 99.12C70.225 99.5787 69.617 99.808 68.8704 99.808C68.1237 99.808 67.5104 99.5787 67.0304 99.12C66.561 98.6613 66.3264 98.0213 66.3264 97.2ZM76.5984 94.8L70.3104 106H68.1344L74.4064 94.8H76.5984ZM68.8544 95.952C68.2677 95.952 67.9744 96.368 67.9744 97.2C67.9744 98.0427 68.2677 98.464 68.8544 98.464C69.1424 98.464 69.3664 98.3627 69.5264 98.16C69.6864 97.9467 69.7664 97.6267 69.7664 97.2C69.7664 96.368 69.4624 95.952 68.8544 95.952ZM73.3504 103.584C73.3504 102.763 73.585 102.128 74.0544 101.68C74.5344 101.221 75.1477 100.992 75.8944 100.992C76.641 100.992 77.2437 101.221 77.7024 101.68C78.1717 102.128 78.4064 102.763 78.4064 103.584C78.4064 104.405 78.1717 105.045 77.7024 105.504C77.2437 105.963 76.641 106.192 75.8944 106.192C75.137 106.192 74.5237 105.963 74.0544 105.504C73.585 105.045 73.3504 104.405 73.3504 103.584ZM75.8784 102.336C75.2704 102.336 74.9664 102.752 74.9664 103.584C74.9664 104.427 75.2704 104.848 75.8784 104.848C76.4757 104.848 76.7744 104.427 76.7744 103.584C76.7744 102.752 76.4757 102.336 75.8784 102.336Z" fill="#0148FF"/>
<path d="M35.878 142.324H37.754V144.998H35.878V142.324ZM35.864 137.704H37.348V137.998C37.348 140.168 36.186 142.058 33.722 142.716L32.882 141.288C34.954 140.742 35.864 139.384 35.864 137.998V137.704ZM36.256 137.704H37.754V137.998C37.754 139.328 38.692 140.644 40.75 141.176L39.924 142.604C37.46 141.974 36.256 140.112 36.256 137.998V137.704ZM33.274 136.808H40.372V138.278H33.274V136.808ZM35.878 135.394H37.754V137.452H35.878V135.394ZM41.52 135.268H43.382V148.274H41.52V135.268ZM32.84 145.866L32.616 144.354C34.884 144.354 38.076 144.326 40.806 143.92L40.946 145.278C38.132 145.824 35.08 145.852 32.84 145.866ZM49.0509 135.982C51.0529 135.982 52.5789 137.312 52.5789 139.16C52.5789 141.008 51.0529 142.324 49.0509 142.324C47.0489 142.324 45.5229 141.008 45.5229 139.16C45.5229 137.312 47.0489 135.982 49.0509 135.982ZM49.0509 137.564C48.0709 137.564 47.3429 138.138 47.3429 139.16C47.3429 140.182 48.0709 140.77 49.0509 140.77C50.0309 140.77 50.7589 140.182 50.7589 139.16C50.7589 138.138 50.0309 137.564 49.0509 137.564ZM53.7829 135.282H55.6449V142.856H53.7829V135.282ZM55.1269 138.306H57.3669V139.832H55.1269V138.306ZM46.9929 143.416H55.6449V148.26H53.7829V144.9H46.9929V143.416ZM62.4898 136.136C64.5338 136.136 66.0598 137.466 66.0598 139.328C66.0598 141.204 64.5338 142.534 62.4898 142.534C60.4598 142.534 58.9058 141.204 58.9058 139.328C58.9058 137.466 60.4598 136.136 62.4898 136.136ZM62.4898 137.732C61.4958 137.732 60.7398 138.32 60.7398 139.328C60.7398 140.35 61.4958 140.938 62.4898 140.938C63.4838 140.938 64.2398 140.35 64.2398 139.328C64.2398 138.32 63.4838 137.732 62.4898 137.732ZM67.2778 135.268H69.1398V148.274H67.2778V135.268ZM58.5978 145.642L58.3738 144.144C60.6558 144.144 63.8338 144.116 66.5638 143.71L66.7038 145.054C63.8898 145.614 60.8378 145.642 58.5978 145.642ZM80.7767 137.326H83.8147V138.81H80.7767V137.326ZM80.6787 140.014H83.7167V141.498H80.6787V140.014ZM83.5207 135.282H85.3827V142.744H83.5207V135.282ZM79.2927 136.164H81.2807C81.2807 139.692 79.2927 141.96 75.3587 143.038L74.6307 141.568C77.9207 140.714 79.2927 139.09 79.2927 137.06V136.164ZM75.3447 136.164H80.5947V137.648H75.3447V136.164ZM81.0847 142.912C83.7167 142.912 85.4667 143.92 85.4667 145.544C85.4667 147.168 83.7167 148.19 81.0847 148.19C78.4527 148.19 76.7027 147.168 76.7027 145.544C76.7027 143.92 78.4527 142.912 81.0847 142.912ZM81.0847 144.34C79.5027 144.34 78.5507 144.746 78.5507 145.544C78.5507 146.342 79.5027 146.734 81.0847 146.734C82.6807 146.734 83.6327 146.342 83.6327 145.544C83.6327 144.746 82.6807 144.34 81.0847 144.34ZM87.4116 142.534H99.1576V144.032H87.4116V142.534ZM92.3116 143.5H94.1596V148.26H92.3116V143.5ZM93.2496 135.716C96.0216 135.716 97.9396 136.864 97.9396 138.642C97.9396 140.406 96.0216 141.54 93.2496 141.54C90.4916 141.54 88.5736 140.406 88.5736 138.642C88.5736 136.864 90.4916 135.716 93.2496 135.716ZM93.2496 137.2C91.5556 137.2 90.4776 137.704 90.4776 138.642C90.4776 139.566 91.5556 140.07 93.2496 140.07C94.9576 140.07 96.0216 139.566 96.0216 138.642C96.0216 137.704 94.9576 137.2 93.2496 137.2Z" fill="#9CA3AF"/>
<path d="M42.7984 170.68V173.04H34.3184V170.68H42.7984ZM54.8986 166.54L49.5786 179H46.7386L52.0986 166.86H45.2586V164.46H54.8986V166.54ZM56.4556 176.16V173.96L62.9956 164.6H66.2556V173.72H68.0156V176.16H66.2556V179H63.4556V176.16H56.4556ZM63.6356 167.6L59.5356 173.72H63.6356V167.6ZM71.3583 179.14C70.8516 179.14 70.4316 178.987 70.0983 178.68C69.7783 178.36 69.6183 177.967 69.6183 177.5C69.6183 177.033 69.7783 176.647 70.0983 176.34C70.4316 176.02 70.8516 175.86 71.3583 175.86C71.8516 175.86 72.2583 176.02 72.5783 176.34C72.8983 176.647 73.0583 177.033 73.0583 177.5C73.0583 177.967 72.8983 178.36 72.5783 178.68C72.2583 178.987 71.8516 179.14 71.3583 179.14ZM75.8736 175.84C77.1536 174.773 78.1736 173.887 78.9336 173.18C79.6936 172.46 80.3269 171.713 80.8336 170.94C81.3403 170.167 81.5936 169.407 81.5936 168.66C81.5936 167.98 81.4336 167.447 81.1136 167.06C80.7936 166.673 80.3003 166.48 79.6336 166.48C78.9669 166.48 78.4536 166.707 78.0936 167.16C77.7336 167.6 77.5469 168.207 77.5336 168.98H74.8136C74.8669 167.38 75.3403 166.167 76.2336 165.34C77.1403 164.513 78.2869 164.1 79.6736 164.1C81.1936 164.1 82.3603 164.507 83.1736 165.32C83.9869 166.12 84.3936 167.18 84.3936 168.5C84.3936 169.54 84.1136 170.533 83.5536 171.48C82.9936 172.427 82.3536 173.253 81.6336 173.96C80.9136 174.653 79.9736 175.493 78.8136 176.48H84.7136V178.8H74.8336V176.72L75.8736 175.84ZM86.158 168C86.158 166.987 86.4513 166.193 87.038 165.62C87.638 165.047 88.4046 164.76 89.338 164.76C90.2713 164.76 91.0313 165.047 91.618 165.62C92.218 166.193 92.518 166.987 92.518 168C92.518 169.027 92.218 169.827 91.618 170.4C91.0313 170.973 90.2713 171.26 89.338 171.26C88.4046 171.26 87.638 170.973 87.038 170.4C86.4513 169.827 86.158 169.027 86.158 168ZM98.998 165L91.138 179H88.418L96.258 165H98.998ZM89.318 166.44C88.5846 166.44 88.218 166.96 88.218 168C88.218 169.053 88.5846 169.58 89.318 169.58C89.678 169.58 89.958 169.453 90.158 169.2C90.358 168.933 90.458 168.533 90.458 168C90.458 166.96 90.078 166.44 89.318 166.44ZM94.938 175.98C94.938 174.953 95.2313 174.16 95.818 173.6C96.418 173.027 97.1846 172.74 98.118 172.74C99.0513 172.74 99.8046 173.027 100.378 173.6C100.965 174.16 101.258 174.953 101.258 175.98C101.258 177.007 100.965 177.807 100.378 178.38C99.8046 178.953 99.0513 179.24 98.118 179.24C97.1713 179.24 96.4046 178.953 95.818 178.38C95.2313 177.807 94.938 177.007 94.938 175.98ZM98.098 174.42C97.338 174.42 96.958 174.94 96.958 175.98C96.958 177.033 97.338 177.56 98.098 177.56C98.8446 177.56 99.218 177.033 99.218 175.98C99.218 174.94 98.8446 174.42 98.098 174.42Z" fill="#DF1525"/>
<path d="M12 219C12 214.582 15.5817 211 20 211H339C343.418 211 347 214.582 347 219V303C347 314.046 338.046 323 327 323H32C20.9543 323 12 314.046 12 303V219Z" fill="#F9FAFB"/>
<path d="M32.214 230.66C34.188 230.66 35.672 231.892 35.672 233.628C35.672 235.35 34.188 236.582 32.214 236.582C30.24 236.582 28.756 235.35 28.756 233.628C28.756 231.892 30.24 230.66 32.214 230.66ZM32.214 232.172C31.262 232.172 30.548 232.704 30.548 233.628C30.548 234.552 31.262 235.084 32.214 235.084C33.166 235.084 33.866 234.552 33.866 233.628C33.866 232.704 33.166 232.172 32.214 232.172ZM37.464 230.282H39.34V236.764H37.464V230.282ZM30.688 237.296H39.34V240.852H32.536V242.42H30.716V239.508H37.492V238.738H30.688V237.296ZM30.716 241.664H39.662V243.106H30.716V241.664ZM45.0929 230.66C47.0669 230.66 48.5509 231.892 48.5509 233.628C48.5509 235.35 47.0669 236.582 45.0929 236.582C43.1189 236.582 41.6349 235.35 41.6349 233.628C41.6349 231.892 43.1189 230.66 45.0929 230.66ZM45.0929 232.172C44.1409 232.172 43.4269 232.704 43.4269 233.628C43.4269 234.552 44.1409 235.084 45.0929 235.084C46.0449 235.084 46.7449 234.552 46.7449 233.628C46.7449 232.704 46.0449 232.172 45.0929 232.172ZM50.3429 230.282H52.2189V236.764H50.3429V230.282ZM43.5669 237.296H52.2189V240.852H45.4149V242.42H43.5949V239.508H50.3709V238.738H43.5669V237.296ZM43.5949 241.664H52.5409V243.106H43.5949V241.664ZM66.5858 230.268H68.4478V243.274H66.5858V230.268ZM58.3538 238.738H59.5018C61.7978 238.738 63.6318 238.654 65.6898 238.304L65.8718 239.802C63.7718 240.18 61.8678 240.25 59.5018 240.25H58.3538V238.738ZM58.3398 231.374H64.4578V236.386H60.2438V239.298H58.3538V234.916H62.5538V232.858H58.3398V231.374ZM75.3487 231.024H76.9727V231.962C76.9727 234.776 74.9707 237.268 71.6107 237.926L70.8127 236.386C73.7387 235.882 75.3487 233.824 75.3487 231.962V231.024ZM75.7267 231.024H77.3367V231.962C77.3367 233.866 78.9327 235.882 81.8727 236.386L81.0747 237.926C77.7147 237.268 75.7267 234.818 75.7267 231.962V231.024ZM70.5467 240.152H82.2787V241.664H70.5467V240.152ZM84.7416 231.416H92.9036V232.9H84.7416V231.416ZM83.4256 240.194H95.1436V241.72H83.4256V240.194ZM92.1196 231.416H93.9536V232.914C93.9536 234.804 93.9536 236.596 93.3516 239.424L91.5176 239.256C92.1196 236.638 92.1196 234.748 92.1196 232.914V231.416ZM92.5116 234.972V236.344L84.5876 236.736L84.3636 235.238L92.5116 234.972Z" fill="#9CA3AF"/>
<path d="M33.232 279L31.312 275.664H30.268V279H28.9V270.66H31.78C32.42 270.66 32.96 270.772 33.4 270.996C33.848 271.22 34.18 271.52 34.396 271.896C34.62 272.272 34.732 272.692 34.732 273.156C34.732 273.7 34.572 274.196 34.252 274.644C33.94 275.084 33.456 275.384 32.8 275.544L34.864 279H33.232ZM30.268 274.572H31.78C32.292 274.572 32.676 274.444 32.932 274.188C33.196 273.932 33.328 273.588 33.328 273.156C33.328 272.724 33.2 272.388 32.944 272.148C32.688 271.9 32.3 271.776 31.78 271.776H30.268V274.572ZM47.342 270.66L44.87 279H43.322L41.57 272.688L39.71 279L38.174 279.012L35.81 270.66H37.262L38.99 277.452L40.862 270.66H42.398L44.138 277.416L45.878 270.66H47.342ZM52.9555 270.66V279H51.5875V270.66H52.9555ZM61.6036 279H60.2356L56.1196 272.772V279H54.7516V270.648H56.1196L60.2356 276.864V270.648H61.6036V279ZM66.124 270.66C67.012 270.66 67.788 270.832 68.452 271.176C69.124 271.512 69.64 272 70 272.64C70.368 273.272 70.552 274.012 70.552 274.86C70.552 275.708 70.368 276.444 70 277.068C69.64 277.692 69.124 278.172 68.452 278.508C67.788 278.836 67.012 279 66.124 279H63.4V270.66H66.124ZM66.124 277.884C67.1 277.884 67.848 277.62 68.368 277.092C68.888 276.564 69.148 275.82 69.148 274.86C69.148 273.892 68.888 273.136 68.368 272.592C67.848 272.048 67.1 271.776 66.124 271.776H64.768V277.884H66.124ZM73.2758 271.764V274.212H76.1558V275.328H73.2758V277.884H76.5158V279H71.9078V270.648H76.5158V271.764H73.2758ZM82.0288 274.836L84.6208 279H83.0848L81.2008 275.976L79.4368 279H77.9128L80.5048 274.836L77.9008 270.66H79.4368L81.3328 273.708L83.1088 270.66H84.6328L82.0288 274.836Z" fill="#9CA3AF"/>
<path d="M28.84 296.764C28.84 295.149 29.1107 293.889 29.652 292.984C30.2027 292.069 31.1453 291.612 32.48 291.612C33.8147 291.612 34.7527 292.069 35.294 292.984C35.8447 293.889 36.12 295.149 36.12 296.764C36.12 298.397 35.8447 299.676 35.294 300.6C34.7527 301.515 33.8147 301.972 32.48 301.972C31.1453 301.972 30.2027 301.515 29.652 300.6C29.1107 299.676 28.84 298.397 28.84 296.764ZM34.552 296.764C34.552 296.008 34.5007 295.369 34.398 294.846C34.3047 294.323 34.1087 293.899 33.81 293.572C33.5113 293.236 33.068 293.068 32.48 293.068C31.892 293.068 31.4487 293.236 31.15 293.572C30.8513 293.899 30.6507 294.323 30.548 294.846C30.4547 295.369 30.408 296.008 30.408 296.764C30.408 297.548 30.4547 298.206 30.548 298.738C30.6413 299.27 30.8373 299.699 31.136 300.026C31.444 300.353 31.892 300.516 32.48 300.516C33.068 300.516 33.5113 300.353 33.81 300.026C34.118 299.699 34.3187 299.27 34.412 298.738C34.5053 298.206 34.552 297.548 34.552 296.764ZM38.6628 302.098C38.3734 302.098 38.1308 302 37.9348 301.804C37.7388 301.608 37.6408 301.365 37.6408 301.076C37.6408 300.787 37.7388 300.544 37.9348 300.348C38.1308 300.152 38.3734 300.054 38.6628 300.054C38.9428 300.054 39.1808 300.152 39.3768 300.348C39.5728 300.544 39.6708 300.787 39.6708 301.076C39.6708 301.365 39.5728 301.608 39.3768 301.804C39.1808 302 38.9428 302.098 38.6628 302.098ZM41.1857 296.764C41.1857 295.149 41.4564 293.889 41.9977 292.984C42.5484 292.069 43.491 291.612 44.8257 291.612C46.1604 291.612 47.0984 292.069 47.6397 292.984C48.1904 293.889 48.4657 295.149 48.4657 296.764C48.4657 298.397 48.1904 299.676 47.6397 300.6C47.0984 301.515 46.1604 301.972 44.8257 301.972C43.491 301.972 42.5484 301.515 41.9977 300.6C41.4564 299.676 41.1857 298.397 41.1857 296.764ZM46.8977 296.764C46.8977 296.008 46.8464 295.369 46.7437 294.846C46.6504 294.323 46.4544 293.899 46.1557 293.572C45.857 293.236 45.4137 293.068 44.8257 293.068C44.2377 293.068 43.7944 293.236 43.4957 293.572C43.197 293.899 42.9964 294.323 42.8937 294.846C42.8004 295.369 42.7537 296.008 42.7537 296.764C42.7537 297.548 42.8004 298.206 42.8937 298.738C42.987 299.27 43.183 299.699 43.4817 300.026C43.7897 300.353 44.2377 300.516 44.8257 300.516C45.4137 300.516 45.857 300.353 46.1557 300.026C46.4637 299.699 46.6644 299.27 46.7577 298.738C46.851 298.206 46.8977 297.548 46.8977 296.764ZM50.1545 296.764C50.1545 295.149 50.4251 293.889 50.9665 292.984C51.5171 292.069 52.4598 291.612 53.7945 291.612C55.1291 291.612 56.0671 292.069 56.6085 292.984C57.1591 293.889 57.4345 295.149 57.4345 296.764C57.4345 298.397 57.1591 299.676 56.6085 300.6C56.0671 301.515 55.1291 301.972 53.7945 301.972C52.4598 301.972 51.5171 301.515 50.9665 300.6C50.4251 299.676 50.1545 298.397 50.1545 296.764ZM55.8665 296.764C55.8665 296.008 55.8151 295.369 55.7125 294.846C55.6191 294.323 55.4231 293.899 55.1245 293.572C54.8258 293.236 54.3825 293.068 53.7945 293.068C53.2065 293.068 52.7631 293.236 52.4645 293.572C52.1658 293.899 51.9651 294.323 51.8625 294.846C51.7691 295.369 51.7225 296.008 51.7225 296.764C51.7225 297.548 51.7691 298.206 51.8625 298.738C51.9558 299.27 52.1518 299.699 52.4505 300.026C52.7585 300.353 53.2065 300.516 53.7945 300.516C54.3825 300.516 54.8258 300.353 55.1245 300.026C55.4325 299.699 55.6331 299.27 55.7265 298.738C55.8198 298.206 55.8665 297.548 55.8665 296.764ZM59.1232 296.764C59.1232 295.149 59.3939 293.889 59.9352 292.984C60.4859 292.069 61.4285 291.612 62.7632 291.612C64.0979 291.612 65.0359 292.069 65.5772 292.984C66.1279 293.889 66.4032 295.149 66.4032 296.764C66.4032 298.397 66.1279 299.676 65.5772 300.6C65.0359 301.515 64.0979 301.972 62.7632 301.972C61.4285 301.972 60.4859 301.515 59.9352 300.6C59.3939 299.676 59.1232 298.397 59.1232 296.764ZM64.8352 296.764C64.8352 296.008 64.7839 295.369 64.6812 294.846C64.5879 294.323 64.3919 293.899 64.0932 293.572C63.7945 293.236 63.3512 293.068 62.7632 293.068C62.1752 293.068 61.7319 293.236 61.4332 293.572C61.1345 293.899 60.9339 294.323 60.8312 294.846C60.7379 295.369 60.6912 296.008 60.6912 296.764C60.6912 297.548 60.7379 298.206 60.8312 298.738C60.9245 299.27 61.1205 299.699 61.4192 300.026C61.7272 300.353 62.1752 300.516 62.7632 300.516C63.3512 300.516 63.7945 300.353 64.0932 300.026C64.4012 299.699 64.6019 299.27 64.6952 298.738C64.7885 298.206 64.8352 297.548 64.8352 296.764ZM67.896 299.872V298.668L72.6 291.92H74.532V298.486H75.834V299.872H74.532V302H72.964V299.872H67.896ZM73.034 293.544L69.73 298.486H73.034V293.544Z" fill="#374151"/>
<path d="M124 273L124 301" stroke="#D1D5DB"/>
<path d="M140.444 274.812C140.444 273.996 140.632 273.264 141.008 272.616C141.392 271.968 141.908 271.464 142.556 271.104C143.212 270.736 143.928 270.552 144.704 270.552C145.592 270.552 146.38 270.772 147.068 271.212C147.764 271.644 148.268 272.26 148.58 273.06H146.936C146.72 272.62 146.42 272.292 146.036 272.076C145.652 271.86 145.208 271.752 144.704 271.752C144.152 271.752 143.66 271.876 143.228 272.124C142.796 272.372 142.456 272.728 142.208 273.192C141.968 273.656 141.848 274.196 141.848 274.812C141.848 275.428 141.968 275.968 142.208 276.432C142.456 276.896 142.796 277.256 143.228 277.512C143.66 277.76 144.152 277.884 144.704 277.884C145.208 277.884 145.652 277.776 146.036 277.56C146.42 277.344 146.72 277.016 146.936 276.576H148.58C148.268 277.376 147.764 277.992 147.068 278.424C146.38 278.856 145.592 279.072 144.704 279.072C143.92 279.072 143.204 278.892 142.556 278.532C141.908 278.164 141.392 277.656 141.008 277.008C140.632 276.36 140.444 275.628 140.444 274.812ZM157.369 270.66L154.237 279H152.653L149.509 270.66H150.973L153.445 277.596L155.929 270.66H157.369ZM163.541 277.296H160.049L159.449 279H158.021L161.009 270.648H162.593L165.581 279H164.141L163.541 277.296ZM163.157 276.18L161.801 272.304L160.433 276.18H163.157ZM171.212 279L169.292 275.664H168.248V279H166.88V270.66H169.76C170.4 270.66 170.94 270.772 171.38 270.996C171.828 271.22 172.16 271.52 172.376 271.896C172.6 272.272 172.712 272.692 172.712 273.156C172.712 273.7 172.552 274.196 172.232 274.644C171.92 275.084 171.436 275.384 170.78 275.544L172.844 279H171.212ZM168.248 274.572H169.76C170.272 274.572 170.656 274.444 170.912 274.188C171.176 273.932 171.308 273.588 171.308 273.156C171.308 272.724 171.18 272.388 170.924 272.148C170.668 271.9 170.28 271.776 169.76 271.776H168.248V274.572Z" fill="#9CA3AF"/>
<path d="M140.84 296.764C140.84 295.149 141.111 293.889 141.652 292.984C142.203 292.069 143.145 291.612 144.48 291.612C145.815 291.612 146.753 292.069 147.294 292.984C147.845 293.889 148.12 295.149 148.12 296.764C148.12 298.397 147.845 299.676 147.294 300.6C146.753 301.515 145.815 301.972 144.48 301.972C143.145 301.972 142.203 301.515 141.652 300.6C141.111 299.676 140.84 298.397 140.84 296.764ZM146.552 296.764C146.552 296.008 146.501 295.369 146.398 294.846C146.305 294.323 146.109 293.899 145.81 293.572C145.511 293.236 145.068 293.068 144.48 293.068C143.892 293.068 143.449 293.236 143.15 293.572C142.851 293.899 142.651 294.323 142.548 294.846C142.455 295.369 142.408 296.008 142.408 296.764C142.408 297.548 142.455 298.206 142.548 298.738C142.641 299.27 142.837 299.699 143.136 300.026C143.444 300.353 143.892 300.516 144.48 300.516C145.068 300.516 145.511 300.353 145.81 300.026C146.118 299.699 146.319 299.27 146.412 298.738C146.505 298.206 146.552 297.548 146.552 296.764ZM150.663 302.098C150.373 302.098 150.131 302 149.935 301.804C149.739 301.608 149.641 301.365 149.641 301.076C149.641 300.787 149.739 300.544 149.935 300.348C150.131 300.152 150.373 300.054 150.663 300.054C150.943 300.054 151.181 300.152 151.377 300.348C151.573 300.544 151.671 300.787 151.671 301.076C151.671 301.365 151.573 301.608 151.377 301.804C151.181 302 150.943 302.098 150.663 302.098ZM153.186 296.764C153.186 295.149 153.456 293.889 153.998 292.984C154.548 292.069 155.491 291.612 156.826 291.612C158.16 291.612 159.098 292.069 159.64 292.984C160.19 293.889 160.466 295.149 160.466 296.764C160.466 298.397 160.19 299.676 159.64 300.6C159.098 301.515 158.16 301.972 156.826 301.972C155.491 301.972 154.548 301.515 153.998 300.6C153.456 299.676 153.186 298.397 153.186 296.764ZM158.898 296.764C158.898 296.008 158.846 295.369 158.744 294.846C158.65 294.323 158.454 293.899 158.156 293.572C157.857 293.236 157.414 293.068 156.826 293.068C156.238 293.068 155.794 293.236 155.496 293.572C155.197 293.899 154.996 294.323 154.894 294.846C154.8 295.369 154.754 296.008 154.754 296.764C154.754 297.548 154.8 298.206 154.894 298.738C154.987 299.27 155.183 299.699 155.482 300.026C155.79 300.353 156.238 300.516 156.826 300.516C157.414 300.516 157.857 300.353 158.156 300.026C158.464 299.699 158.664 299.27 158.758 298.738C158.851 298.206 158.898 297.548 158.898 296.764ZM167.642 294.16C167.54 293.731 167.353 293.409 167.082 293.194C166.812 292.979 166.434 292.872 165.948 292.872C165.211 292.872 164.66 293.157 164.296 293.726C163.932 294.286 163.741 295.219 163.722 296.526C163.965 296.115 164.32 295.798 164.786 295.574C165.253 295.35 165.757 295.238 166.298 295.238C166.914 295.238 167.456 295.373 167.922 295.644C168.398 295.905 168.767 296.288 169.028 296.792C169.299 297.296 169.434 297.898 169.434 298.598C169.434 299.251 169.304 299.835 169.042 300.348C168.79 300.861 168.412 301.267 167.908 301.566C167.404 301.855 166.798 302 166.088 302C165.127 302 164.371 301.79 163.82 301.37C163.279 300.941 162.896 300.339 162.672 299.564C162.458 298.789 162.35 297.823 162.35 296.666C162.35 293.25 163.554 291.542 165.962 291.542C166.896 291.542 167.628 291.794 168.16 292.298C168.702 292.802 169.019 293.423 169.112 294.16H167.642ZM165.948 296.582C165.379 296.582 164.894 296.755 164.492 297.1C164.1 297.436 163.904 297.926 163.904 298.57C163.904 299.214 164.086 299.727 164.45 300.11C164.824 300.483 165.342 300.67 166.004 300.67C166.592 300.67 167.054 300.488 167.39 300.124C167.736 299.76 167.908 299.275 167.908 298.668C167.908 298.033 167.74 297.529 167.404 297.156C167.078 296.773 166.592 296.582 165.948 296.582ZM173.125 299.228C173.218 299.695 173.419 300.049 173.727 300.292C174.035 300.535 174.45 300.656 174.973 300.656C175.636 300.656 176.121 300.395 176.429 299.872C176.737 299.349 176.891 298.458 176.891 297.198C176.667 297.515 176.35 297.763 175.939 297.94C175.538 298.108 175.099 298.192 174.623 298.192C174.016 298.192 173.466 298.071 172.971 297.828C172.476 297.576 172.084 297.207 171.795 296.722C171.515 296.227 171.375 295.63 171.375 294.93C171.375 293.903 171.674 293.087 172.271 292.48C172.878 291.864 173.708 291.556 174.763 291.556C176.032 291.556 176.933 291.981 177.465 292.83C178.006 293.67 178.277 294.963 178.277 296.708C178.277 297.912 178.174 298.897 177.969 299.662C177.773 300.427 177.428 301.006 176.933 301.398C176.438 301.79 175.752 301.986 174.875 301.986C173.876 301.986 173.106 301.725 172.565 301.202C172.024 300.679 171.72 300.021 171.655 299.228H173.125ZM174.903 296.848C175.463 296.848 175.902 296.675 176.219 296.33C176.546 295.975 176.709 295.509 176.709 294.93C176.709 294.286 176.536 293.787 176.191 293.432C175.855 293.068 175.393 292.886 174.805 292.886C174.217 292.886 173.75 293.073 173.405 293.446C173.069 293.81 172.901 294.291 172.901 294.888C172.901 295.457 173.064 295.929 173.391 296.302C173.727 296.666 174.231 296.848 174.903 296.848ZM182.012 299.228C182.105 299.695 182.306 300.049 182.614 300.292C182.922 300.535 183.337 300.656 183.86 300.656C184.522 300.656 185.008 300.395 185.316 299.872C185.624 299.349 185.778 298.458 185.778 297.198C185.554 297.515 185.236 297.763 184.826 297.94C184.424 298.108 183.986 298.192 183.51 298.192C182.903 298.192 182.352 298.071 181.858 297.828C181.363 297.576 180.971 297.207 180.682 296.722C180.402 296.227 180.262 295.63 180.262 294.93C180.262 293.903 180.56 293.087 181.158 292.48C181.764 291.864 182.595 291.556 183.65 291.556C184.919 291.556 185.82 291.981 186.352 292.83C186.893 293.67 187.164 294.963 187.164 296.708C187.164 297.912 187.061 298.897 186.856 299.662C186.66 300.427 186.314 301.006 185.82 301.398C185.325 301.79 184.639 301.986 183.762 301.986C182.763 301.986 181.993 301.725 181.452 301.202C180.91 300.679 180.607 300.021 180.542 299.228H182.012ZM183.79 296.848C184.35 296.848 184.788 296.675 185.106 296.33C185.432 295.975 185.596 295.509 185.596 294.93C185.596 294.286 185.423 293.787 185.078 293.432C184.742 293.068 184.28 292.886 183.692 292.886C183.104 292.886 182.637 293.073 182.292 293.446C181.956 293.81 181.788 294.291 181.788 294.888C181.788 295.457 181.951 295.929 182.278 296.302C182.614 296.666 183.118 296.848 183.79 296.848Z" fill="#374151"/>
<path d="M236 273L236 301" stroke="#D1D5DB"/>
<path d="M260.088 270.66L256.956 279H255.372L252.228 270.66H253.692L256.164 277.596L258.648 270.66H260.088ZM266.26 277.296H262.768L262.168 279H260.74L263.728 270.648H265.312L268.3 279H266.86L266.26 277.296ZM265.876 276.18L264.52 272.304L263.152 276.18H265.876ZM273.931 279L272.011 275.664H270.967V279H269.599V270.66H272.479C273.119 270.66 273.659 270.772 274.099 270.996C274.547 271.22 274.879 271.52 275.095 271.896C275.319 272.272 275.431 272.692 275.431 273.156C275.431 273.7 275.271 274.196 274.951 274.644C274.639 275.084 274.155 275.384 273.499 275.544L275.563 279H273.931ZM270.967 274.572H272.479C272.991 274.572 273.375 274.444 273.631 274.188C273.895 273.932 274.027 273.588 274.027 273.156C274.027 272.724 273.899 272.388 273.643 272.148C273.387 271.9 272.999 271.776 272.479 271.776H270.967V274.572Z" fill="#9CA3AF"/>
<path d="M252.84 296.764C252.84 295.149 253.111 293.889 253.652 292.984C254.203 292.069 255.145 291.612 256.48 291.612C257.815 291.612 258.753 292.069 259.294 292.984C259.845 293.889 260.12 295.149 260.12 296.764C260.12 298.397 259.845 299.676 259.294 300.6C258.753 301.515 257.815 301.972 256.48 301.972C255.145 301.972 254.203 301.515 253.652 300.6C253.111 299.676 252.84 298.397 252.84 296.764ZM258.552 296.764C258.552 296.008 258.501 295.369 258.398 294.846C258.305 294.323 258.109 293.899 257.81 293.572C257.511 293.236 257.068 293.068 256.48 293.068C255.892 293.068 255.449 293.236 255.15 293.572C254.851 293.899 254.651 294.323 254.548 294.846C254.455 295.369 254.408 296.008 254.408 296.764C254.408 297.548 254.455 298.206 254.548 298.738C254.641 299.27 254.837 299.699 255.136 300.026C255.444 300.353 255.892 300.516 256.48 300.516C257.068 300.516 257.511 300.353 257.81 300.026C258.118 299.699 258.319 299.27 258.412 298.738C258.505 298.206 258.552 297.548 258.552 296.764ZM262.663 302.098C262.373 302.098 262.131 302 261.935 301.804C261.739 301.608 261.641 301.365 261.641 301.076C261.641 300.787 261.739 300.544 261.935 300.348C262.131 300.152 262.373 300.054 262.663 300.054C262.943 300.054 263.181 300.152 263.377 300.348C263.573 300.544 263.671 300.787 263.671 301.076C263.671 301.365 263.573 301.608 263.377 301.804C263.181 302 262.943 302.098 262.663 302.098ZM270.674 294.16C270.571 293.731 270.384 293.409 270.114 293.194C269.843 292.979 269.465 292.872 268.98 292.872C268.242 292.872 267.692 293.157 267.328 293.726C266.964 294.286 266.772 295.219 266.754 296.526C266.996 296.115 267.351 295.798 267.818 295.574C268.284 295.35 268.788 295.238 269.33 295.238C269.946 295.238 270.487 295.373 270.954 295.644C271.43 295.905 271.798 296.288 272.06 296.792C272.33 297.296 272.466 297.898 272.466 298.598C272.466 299.251 272.335 299.835 272.074 300.348C271.822 300.861 271.444 301.267 270.94 301.566C270.436 301.855 269.829 302 269.12 302C268.158 302 267.402 301.79 266.852 301.37C266.31 300.941 265.928 300.339 265.704 299.564C265.489 298.789 265.382 297.823 265.382 296.666C265.382 293.25 266.586 291.542 268.994 291.542C269.927 291.542 270.66 291.794 271.192 292.298C271.733 292.802 272.05 293.423 272.144 294.16H270.674ZM268.98 296.582C268.41 296.582 267.925 296.755 267.524 297.1C267.132 297.436 266.936 297.926 266.936 298.57C266.936 299.214 267.118 299.727 267.482 300.11C267.855 300.483 268.373 300.67 269.036 300.67C269.624 300.67 270.086 300.488 270.422 300.124C270.767 299.76 270.94 299.275 270.94 298.668C270.94 298.033 270.772 297.529 270.436 297.156C270.109 296.773 269.624 296.582 268.98 296.582ZM276.156 299.228C276.249 299.695 276.45 300.049 276.758 300.292C277.066 300.535 277.481 300.656 278.004 300.656C278.667 300.656 279.152 300.395 279.46 299.872C279.768 299.349 279.922 298.458 279.922 297.198C279.698 297.515 279.381 297.763 278.97 297.94C278.569 298.108 278.13 298.192 277.654 298.192C277.047 298.192 276.497 298.071 276.002 297.828C275.507 297.576 275.115 297.207 274.826 296.722C274.546 296.227 274.406 295.63 274.406 294.93C274.406 293.903 274.705 293.087 275.302 292.48C275.909 291.864 276.739 291.556 277.794 291.556C279.063 291.556 279.964 291.981 280.496 292.83C281.037 293.67 281.308 294.963 281.308 296.708C281.308 297.912 281.205 298.897 281 299.662C280.804 300.427 280.459 301.006 279.964 301.398C279.469 301.79 278.783 301.986 277.906 301.986C276.907 301.986 276.137 301.725 275.596 301.202C275.055 300.679 274.751 300.021 274.686 299.228H276.156ZM277.934 296.848C278.494 296.848 278.933 296.675 279.25 296.33C279.577 295.975 279.74 295.509 279.74 294.93C279.74 294.286 279.567 293.787 279.222 293.432C278.886 293.068 278.424 292.886 277.836 292.886C277.248 292.886 276.781 293.073 276.436 293.446C276.1 293.81 275.932 294.291 275.932 294.888C275.932 295.457 276.095 295.929 276.422 296.302C276.758 296.666 277.262 296.848 277.934 296.848ZM282.845 293.25V291.794H285.757V302H284.147V293.25H282.845ZM287.949 296.764C287.949 295.149 288.22 293.889 288.761 292.984C289.312 292.069 290.255 291.612 291.589 291.612C292.924 291.612 293.862 292.069 294.403 292.984C294.954 293.889 295.229 295.149 295.229 296.764C295.229 298.397 294.954 299.676 294.403 300.6C293.862 301.515 292.924 301.972 291.589 301.972C290.255 301.972 289.312 301.515 288.761 300.6C288.22 299.676 287.949 298.397 287.949 296.764ZM293.661 296.764C293.661 296.008 293.61 295.369 293.507 294.846C293.414 294.323 293.218 293.899 292.919 293.572C292.621 293.236 292.177 293.068 291.589 293.068C291.001 293.068 290.558 293.236 290.259 293.572C289.961 293.899 289.76 294.323 289.657 294.846C289.564 295.369 289.517 296.008 289.517 296.764C289.517 297.548 289.564 298.206 289.657 298.738C289.751 299.27 289.947 299.699 290.245 300.026C290.553 300.353 291.001 300.516 291.589 300.516C292.177 300.516 292.621 300.353 292.919 300.026C293.227 299.699 293.428 299.27 293.521 298.738C293.615 298.206 293.661 297.548 293.661 296.764Z" fill="#374151"/>
<path d="M267.612 43.124C268.628 42.308 269.424 41.64 270 41.12C270.576 40.592 271.06 40.044 271.452 39.476C271.852 38.9 272.052 38.336 272.052 37.784C272.052 37.264 271.924 36.856 271.668 36.56C271.42 36.256 271.016 36.104 270.456 36.104C269.912 36.104 269.488 36.276 269.184 36.62C268.888 36.956 268.728 37.408 268.704 37.976H267.648C267.68 37.08 267.952 36.388 268.464 35.9C268.976 35.412 269.636 35.168 270.444 35.168C271.268 35.168 271.92 35.396 272.4 35.852C272.888 36.308 273.132 36.936 273.132 37.736C273.132 38.4 272.932 39.048 272.532 39.68C272.14 40.304 271.692 40.856 271.188 41.336C270.684 41.808 270.04 42.36 269.256 42.992H273.384V43.904H267.612V43.124ZM274.646 39.572C274.646 38.196 274.87 37.124 275.318 36.356C275.766 35.58 276.55 35.192 277.67 35.192C278.782 35.192 279.562 35.58 280.01 36.356C280.458 37.124 280.682 38.196 280.682 39.572C280.682 40.972 280.458 42.06 280.01 42.836C279.562 43.612 278.782 44 277.67 44C276.55 44 275.766 43.612 275.318 42.836C274.87 42.06 274.646 40.972 274.646 39.572ZM279.602 39.572C279.602 38.876 279.554 38.288 279.458 37.808C279.37 37.32 279.182 36.928 278.894 36.632C278.614 36.336 278.206 36.188 277.67 36.188C277.126 36.188 276.71 36.336 276.422 36.632C276.142 36.928 275.954 37.32 275.858 37.808C275.77 38.288 275.726 38.876 275.726 39.572C275.726 40.292 275.77 40.896 275.858 41.384C275.954 41.872 276.142 42.264 276.422 42.56C276.71 42.856 277.126 43.004 277.67 43.004C278.206 43.004 278.614 42.856 278.894 42.56C279.182 42.264 279.37 41.872 279.458 41.384C279.554 40.896 279.602 40.292 279.602 39.572ZM282.05 43.124C283.066 42.308 283.862 41.64 284.438 41.12C285.014 40.592 285.498 40.044 285.89 39.476C286.29 38.9 286.49 38.336 286.49 37.784C286.49 37.264 286.362 36.856 286.106 36.56C285.858 36.256 285.454 36.104 284.894 36.104C284.35 36.104 283.926 36.276 283.622 36.62C283.326 36.956 283.166 37.408 283.142 37.976H282.086C282.118 37.08 282.39 36.388 282.902 35.9C283.414 35.412 284.074 35.168 284.882 35.168C285.706 35.168 286.358 35.396 286.838 35.852C287.326 36.308 287.57 36.936 287.57 37.736C287.57 38.4 287.37 39.048 286.97 39.68C286.578 40.304 286.13 40.856 285.626 41.336C285.122 41.808 284.478 42.36 283.694 42.992H287.822V43.904H282.05V43.124ZM289.06 37.508C289.116 36.772 289.4 36.196 289.912 35.78C290.424 35.364 291.088 35.156 291.904 35.156C292.448 35.156 292.916 35.256 293.308 35.456C293.708 35.648 294.008 35.912 294.208 36.248C294.416 36.584 294.52 36.964 294.52 37.388C294.52 37.884 294.376 38.312 294.088 38.672C293.808 39.032 293.44 39.264 292.984 39.368V39.428C293.504 39.556 293.916 39.808 294.22 40.184C294.524 40.56 294.676 41.052 294.676 41.66C294.676 42.116 294.572 42.528 294.364 42.896C294.156 43.256 293.844 43.54 293.428 43.748C293.012 43.956 292.512 44.06 291.928 44.06C291.08 44.06 290.384 43.84 289.84 43.4C289.296 42.952 288.992 42.32 288.928 41.504H289.984C290.04 41.984 290.236 42.376 290.572 42.68C290.908 42.984 291.356 43.136 291.916 43.136C292.476 43.136 292.9 42.992 293.188 42.704C293.484 42.408 293.632 42.028 293.632 41.564C293.632 40.964 293.432 40.532 293.032 40.268C292.632 40.004 292.028 39.872 291.22 39.872H290.944V38.96H291.232C291.968 38.952 292.524 38.832 292.9 38.6C293.276 38.36 293.464 37.992 293.464 37.496C293.464 37.072 293.324 36.732 293.044 36.476C292.772 36.22 292.38 36.092 291.868 36.092C291.372 36.092 290.972 36.22 290.668 36.476C290.364 36.732 290.184 37.076 290.128 37.508H289.06ZM296.678 44.072C296.47 44.072 296.294 44 296.15 43.856C296.006 43.712 295.934 43.536 295.934 43.328C295.934 43.12 296.006 42.944 296.15 42.8C296.294 42.656 296.47 42.584 296.678 42.584C296.878 42.584 297.046 42.656 297.182 42.8C297.326 42.944 297.398 43.12 297.398 43.328C297.398 43.536 297.326 43.712 297.182 43.856C297.046 44 296.878 44.072 296.678 44.072ZM298.67 39.572C298.67 38.196 298.894 37.124 299.342 36.356C299.79 35.58 300.574 35.192 301.694 35.192C302.806 35.192 303.586 35.58 304.034 36.356C304.482 37.124 304.706 38.196 304.706 39.572C304.706 40.972 304.482 42.06 304.034 42.836C303.586 43.612 302.806 44 301.694 44C300.574 44 299.79 43.612 299.342 42.836C298.894 42.06 298.67 40.972 298.67 39.572ZM303.626 39.572C303.626 38.876 303.578 38.288 303.482 37.808C303.394 37.32 303.206 36.928 302.918 36.632C302.638 36.336 302.23 36.188 301.694 36.188C301.15 36.188 300.734 36.336 300.446 36.632C300.166 36.928 299.978 37.32 299.882 37.808C299.794 38.288 299.75 38.876 299.75 39.572C299.75 40.292 299.794 40.896 299.882 41.384C299.978 41.872 300.166 42.264 300.446 42.56C300.734 42.856 301.15 43.004 301.694 43.004C302.23 43.004 302.638 42.856 302.918 42.56C303.206 42.264 303.394 41.872 303.482 41.384C303.578 40.896 303.626 40.292 303.626 39.572ZM305.917 36.32V35.324H308.173V44H307.069V36.32H305.917ZM310.577 44.072C310.369 44.072 310.193 44 310.049 43.856C309.905 43.712 309.833 43.536 309.833 43.328C309.833 43.12 309.905 42.944 310.049 42.8C310.193 42.656 310.369 42.584 310.577 42.584C310.777 42.584 310.945 42.656 311.081 42.8C311.225 42.944 311.297 43.12 311.297 43.328C311.297 43.536 311.225 43.712 311.081 43.856C310.945 44 310.777 44.072 310.577 44.072ZM312.568 39.572C312.568 38.196 312.792 37.124 313.24 36.356C313.688 35.58 314.472 35.192 315.592 35.192C316.704 35.192 317.484 35.58 317.932 36.356C318.38 37.124 318.604 38.196 318.604 39.572C318.604 40.972 318.38 42.06 317.932 42.836C317.484 43.612 316.704 44 315.592 44C314.472 44 313.688 43.612 313.24 42.836C312.792 42.06 312.568 40.972 312.568 39.572ZM317.524 39.572C317.524 38.876 317.476 38.288 317.38 37.808C317.292 37.32 317.104 36.928 316.816 36.632C316.536 36.336 316.128 36.188 315.592 36.188C315.048 36.188 314.632 36.336 314.344 36.632C314.064 36.928 313.876 37.32 313.78 37.808C313.692 38.288 313.648 38.876 313.648 39.572C313.648 40.292 313.692 40.896 313.78 41.384C313.876 41.872 314.064 42.264 314.344 42.56C314.632 42.856 315.048 43.004 315.592 43.004C316.128 43.004 316.536 42.856 316.816 42.56C317.104 42.264 317.292 41.872 317.38 41.384C317.476 40.896 317.524 40.292 317.524 39.572ZM325.635 36.272H321.423V39.008C321.607 38.752 321.879 38.544 322.239 38.384C322.599 38.216 322.987 38.132 323.403 38.132C324.067 38.132 324.607 38.272 325.023 38.552C325.439 38.824 325.735 39.18 325.911 39.62C326.095 40.052 326.187 40.512 326.187 41C326.187 41.576 326.079 42.092 325.863 42.548C325.647 43.004 325.315 43.364 324.867 43.628C324.427 43.892 323.879 44.024 323.223 44.024C322.383 44.024 321.703 43.808 321.183 43.376C320.663 42.944 320.347 42.368 320.235 41.648H321.303C321.407 42.104 321.627 42.46 321.963 42.716C322.299 42.972 322.723 43.1 323.235 43.1C323.867 43.1 324.343 42.912 324.663 42.536C324.983 42.152 325.143 41.648 325.143 41.024C325.143 40.4 324.983 39.92 324.663 39.584C324.343 39.24 323.871 39.068 323.247 39.068C322.823 39.068 322.451 39.172 322.131 39.38C321.819 39.58 321.591 39.856 321.447 40.208H320.415V35.312H325.635V36.272Z" fill="#6B7280"/>
<rect x="192" y="60" width="135" height="96" rx="8" fill="#F9FAFB"/>
<ellipse cx="260.003" cy="95.9998" rx="23.8933" ry="23.8933" fill="url(#paint0_linear_910_39483)"/>
<path d="M238.609 133.944H240.205V145.092H238.609V133.944ZM231.553 141.204H232.537C234.505 141.204 236.077 141.132 237.841 140.832L237.997 142.116C236.197 142.44 234.565 142.5 232.537 142.5H231.553V141.204ZM231.541 134.892H236.785V139.188H233.173V141.684H231.553V137.928H235.153V136.164H231.541V134.892ZM246.12 134.592H247.512V135.396C247.512 137.808 245.796 139.944 242.916 140.508L242.232 139.188C244.74 138.756 246.12 136.992 246.12 135.396V134.592ZM246.444 134.592H247.824V135.396C247.824 137.028 249.192 138.756 251.712 139.188L251.028 140.508C248.148 139.944 246.444 137.844 246.444 135.396V134.592ZM242.004 142.416H252.06V143.712H242.004V142.416ZM254.171 134.928H261.167V136.2H254.171V134.928ZM253.043 142.452H263.087V143.76H253.043V142.452ZM260.495 134.928H262.067V136.212C262.067 137.832 262.067 139.368 261.551 141.792L259.979 141.648C260.495 139.404 260.495 137.784 260.495 136.212V134.928ZM260.831 137.976V139.152L254.039 139.488L253.847 138.204L260.831 137.976ZM269.461 138.456H271.057V140.136H269.461V138.456ZM270.241 134.4C271.849 134.4 273.013 135.324 273.013 136.668C273.013 137.988 271.849 138.912 270.241 138.912C268.633 138.912 267.469 137.988 267.469 136.668C267.469 135.324 268.633 134.4 270.241 134.4ZM270.241 135.6C269.485 135.6 268.957 135.984 268.957 136.668C268.957 137.34 269.485 137.724 270.241 137.724C271.009 137.724 271.525 137.34 271.525 136.668C271.525 135.984 271.009 135.6 270.241 135.6ZM274.153 133.968H275.749V142.44H274.153V133.968ZM275.185 137.448H277.141V138.756H275.185V137.448ZM268.333 143.592H276.121V144.876H268.333V143.592ZM268.333 141.708H269.941V144.144H268.333V141.708ZM267.073 141L266.893 139.728C268.777 139.728 271.381 139.716 273.565 139.404L273.673 140.544C271.429 140.964 268.909 141 267.073 141ZM280.536 140.532H282.132V142.332H280.536V140.532ZM285.204 133.956H286.812V145.068H285.204V133.956ZM286.248 138.468H288.204V139.788H286.248V138.468ZM278.04 143.22L277.848 141.936C279.768 141.936 282.408 141.924 284.652 141.612L284.772 142.764C282.432 143.22 279.912 143.22 278.04 143.22ZM278.052 135.18H284.592V136.428H278.052V135.18ZM281.34 136.872C282.924 136.872 284.052 137.712 284.052 138.948C284.052 140.196 282.924 141.036 281.34 141.036C279.744 141.036 278.628 140.196 278.628 138.948C278.628 137.712 279.744 136.872 281.34 136.872ZM281.34 138.072C280.608 138.072 280.14 138.384 280.14 138.948C280.14 139.524 280.608 139.836 281.34 139.836C282.06 139.836 282.54 139.524 282.54 138.948C282.54 138.384 282.06 138.072 281.34 138.072ZM280.536 134.016H282.132V136.116H280.536V134.016Z" fill="#374151"/>
<rect x="233" y="225" width="45" height="24" rx="12" fill="#E6F5FF"/>
<path d="M242.687 236.512C242.687 235.128 242.935 234.044 243.431 233.26C243.935 232.476 244.767 232.084 245.927 232.084C247.087 232.084 247.915 232.476 248.411 233.26C248.915 234.044 249.167 235.128 249.167 236.512C249.167 237.904 248.915 238.996 248.411 239.788C247.915 240.58 247.087 240.976 245.927 240.976C244.767 240.976 243.935 240.58 243.431 239.788C242.935 238.996 242.687 237.904 242.687 236.512ZM247.511 236.512C247.511 235.92 247.471 235.424 247.391 235.024C247.319 234.616 247.167 234.284 246.935 234.028C246.711 233.772 246.375 233.644 245.927 233.644C245.479 233.644 245.139 233.772 244.907 234.028C244.683 234.284 244.531 234.616 244.451 235.024C244.379 235.424 244.343 235.92 244.343 236.512C244.343 237.12 244.379 237.632 244.451 238.048C244.523 238.456 244.675 238.788 244.907 239.044C245.139 239.292 245.479 239.416 245.927 239.416C246.375 239.416 246.715 239.292 246.947 239.044C247.179 238.788 247.331 238.456 247.403 238.048C247.475 237.632 247.511 237.12 247.511 236.512ZM251.381 241.084C251.077 241.084 250.825 240.992 250.625 240.808C250.433 240.616 250.337 240.38 250.337 240.1C250.337 239.82 250.433 239.588 250.625 239.404C250.825 239.212 251.077 239.116 251.381 239.116C251.677 239.116 251.921 239.212 252.113 239.404C252.305 239.588 252.401 239.82 252.401 240.1C252.401 240.38 252.305 240.616 252.113 240.808C251.921 240.992 251.677 241.084 251.381 241.084ZM255.506 238.54C255.57 238.892 255.714 239.164 255.938 239.356C256.17 239.54 256.478 239.632 256.862 239.632C257.358 239.632 257.718 239.428 257.942 239.02C258.166 238.604 258.278 237.908 258.278 236.932C258.094 237.188 257.834 237.388 257.498 237.532C257.17 237.676 256.814 237.748 256.43 237.748C255.918 237.748 255.454 237.644 255.038 237.436C254.63 237.22 254.306 236.904 254.066 236.488C253.826 236.064 253.706 235.552 253.706 234.952C253.706 234.064 253.97 233.36 254.498 232.84C255.026 232.312 255.746 232.048 256.658 232.048C257.794 232.048 258.594 232.412 259.058 233.14C259.53 233.868 259.766 234.964 259.766 236.428C259.766 237.468 259.674 238.32 259.49 238.984C259.314 239.648 259.006 240.152 258.566 240.496C258.134 240.84 257.542 241.012 256.79 241.012C256.198 241.012 255.694 240.9 255.278 240.676C254.862 240.444 254.542 240.144 254.318 239.776C254.102 239.4 253.978 238.988 253.946 238.54H255.506ZM256.778 236.38C257.194 236.38 257.522 236.252 257.762 235.996C258.002 235.74 258.122 235.396 258.122 234.964C258.122 234.492 257.994 234.128 257.738 233.872C257.49 233.608 257.15 233.476 256.718 233.476C256.286 233.476 255.942 233.612 255.686 233.884C255.438 234.148 255.314 234.5 255.314 234.94C255.314 235.364 255.434 235.712 255.674 235.984C255.922 236.248 256.29 236.38 256.778 236.38ZM263.018 238.54C263.082 238.892 263.226 239.164 263.45 239.356C263.682 239.54 263.99 239.632 264.374 239.632C264.87 239.632 265.23 239.428 265.454 239.02C265.678 238.604 265.79 237.908 265.79 236.932C265.606 237.188 265.346 237.388 265.01 237.532C264.682 237.676 264.326 237.748 263.942 237.748C263.43 237.748 262.966 237.644 262.55 237.436C262.142 237.22 261.818 236.904 261.578 236.488C261.338 236.064 261.218 235.552 261.218 234.952C261.218 234.064 261.482 233.36 262.01 232.84C262.538 232.312 263.258 232.048 264.17 232.048C265.306 232.048 266.106 232.412 266.57 233.14C267.042 233.868 267.278 234.964 267.278 236.428C267.278 237.468 267.186 238.32 267.002 238.984C266.826 239.648 266.518 240.152 266.078 240.496C265.646 240.84 265.054 241.012 264.302 241.012C263.71 241.012 263.206 240.9 262.79 240.676C262.374 240.444 262.054 240.144 261.83 239.776C261.614 239.4 261.49 238.988 261.458 238.54H263.018ZM264.29 236.38C264.706 236.38 265.034 236.252 265.274 235.996C265.514 235.74 265.634 235.396 265.634 234.964C265.634 234.492 265.506 234.128 265.25 233.872C265.002 233.608 264.662 233.476 264.23 233.476C263.798 233.476 263.454 233.612 263.198 233.884C262.95 234.148 262.826 234.5 262.826 234.94C262.826 235.364 262.946 235.712 263.186 235.984C263.434 236.248 263.802 236.38 264.29 236.38Z" fill="#0198FF"/>
<rect x="286.5" y="225.5" width="44" height="23" rx="11.5" fill="white"/>
<path d="M295.687 236.512C295.687 235.128 295.935 234.044 296.431 233.26C296.935 232.476 297.767 232.084 298.927 232.084C300.087 232.084 300.915 232.476 301.411 233.26C301.915 234.044 302.167 235.128 302.167 236.512C302.167 237.904 301.915 238.996 301.411 239.788C300.915 240.58 300.087 240.976 298.927 240.976C297.767 240.976 296.935 240.58 296.431 239.788C295.935 238.996 295.687 237.904 295.687 236.512ZM300.511 236.512C300.511 235.92 300.471 235.424 300.391 235.024C300.319 234.616 300.167 234.284 299.935 234.028C299.711 233.772 299.375 233.644 298.927 233.644C298.479 233.644 298.139 233.772 297.907 234.028C297.683 234.284 297.531 234.616 297.451 235.024C297.379 235.424 297.343 235.92 297.343 236.512C297.343 237.12 297.379 237.632 297.451 238.048C297.523 238.456 297.675 238.788 297.907 239.044C298.139 239.292 298.479 239.416 298.927 239.416C299.375 239.416 299.715 239.292 299.947 239.044C300.179 238.788 300.331 238.456 300.403 238.048C300.475 237.632 300.511 237.12 300.511 236.512ZM304.381 241.084C304.077 241.084 303.825 240.992 303.625 240.808C303.433 240.616 303.337 240.38 303.337 240.1C303.337 239.82 303.433 239.588 303.625 239.404C303.825 239.212 304.077 239.116 304.381 239.116C304.677 239.116 304.921 239.212 305.113 239.404C305.305 239.588 305.401 239.82 305.401 240.1C305.401 240.38 305.305 240.616 305.113 240.808C304.921 240.992 304.677 241.084 304.381 241.084ZM308.506 238.54C308.57 238.892 308.714 239.164 308.938 239.356C309.17 239.54 309.478 239.632 309.862 239.632C310.358 239.632 310.718 239.428 310.942 239.02C311.166 238.604 311.278 237.908 311.278 236.932C311.094 237.188 310.834 237.388 310.498 237.532C310.17 237.676 309.814 237.748 309.43 237.748C308.918 237.748 308.454 237.644 308.038 237.436C307.63 237.22 307.306 236.904 307.066 236.488C306.826 236.064 306.706 235.552 306.706 234.952C306.706 234.064 306.97 233.36 307.498 232.84C308.026 232.312 308.746 232.048 309.658 232.048C310.794 232.048 311.594 232.412 312.058 233.14C312.53 233.868 312.766 234.964 312.766 236.428C312.766 237.468 312.674 238.32 312.49 238.984C312.314 239.648 312.006 240.152 311.566 240.496C311.134 240.84 310.542 241.012 309.79 241.012C309.198 241.012 308.694 240.9 308.278 240.676C307.862 240.444 307.542 240.144 307.318 239.776C307.102 239.4 306.978 238.988 306.946 238.54H308.506ZM309.778 236.38C310.194 236.38 310.522 236.252 310.762 235.996C311.002 235.74 311.122 235.396 311.122 234.964C311.122 234.492 310.994 234.128 310.738 233.872C310.49 233.608 310.15 233.476 309.718 233.476C309.286 233.476 308.942 233.612 308.686 233.884C308.438 234.148 308.314 234.5 308.314 234.94C308.314 235.364 308.434 235.712 308.674 235.984C308.922 236.248 309.29 236.38 309.778 236.38ZM316.018 238.54C316.082 238.892 316.226 239.164 316.45 239.356C316.682 239.54 316.99 239.632 317.374 239.632C317.87 239.632 318.23 239.428 318.454 239.02C318.678 238.604 318.79 237.908 318.79 236.932C318.606 237.188 318.346 237.388 318.01 237.532C317.682 237.676 317.326 237.748 316.942 237.748C316.43 237.748 315.966 237.644 315.55 237.436C315.142 237.22 314.818 236.904 314.578 236.488C314.338 236.064 314.218 235.552 314.218 234.952C314.218 234.064 314.482 233.36 315.01 232.84C315.538 232.312 316.258 232.048 317.17 232.048C318.306 232.048 319.106 232.412 319.57 233.14C320.042 233.868 320.278 234.964 320.278 236.428C320.278 237.468 320.186 238.32 320.002 238.984C319.826 239.648 319.518 240.152 319.078 240.496C318.646 240.84 318.054 241.012 317.302 241.012C316.71 241.012 316.206 240.9 315.79 240.676C315.374 240.444 315.054 240.144 314.83 239.776C314.614 239.4 314.49 238.988 314.458 238.54H316.018ZM317.29 236.38C317.706 236.38 318.034 236.252 318.274 235.996C318.514 235.74 318.634 235.396 318.634 234.964C318.634 234.492 318.506 234.128 318.25 233.872C318.002 233.608 317.662 233.476 317.23 233.476C316.798 233.476 316.454 233.612 316.198 233.884C315.95 234.148 315.826 234.5 315.826 234.94C315.826 235.364 315.946 235.712 316.186 235.984C316.434 236.248 316.802 236.38 317.29 236.38Z" fill="#9CA3AF"/>
<rect x="286.5" y="225.5" width="44" height="23" rx="11.5" stroke="#E5E7EB"/>
<rect x="247" y="168" width="84" height="28" rx="14" fill="#E6F5FF"/>
<path d="M262.307 177.156H263.171V177.612C263.171 179.556 261.107 180.984 258.923 181.356L258.539 180.564C260.447 180.288 262.307 179.04 262.307 177.612V177.156ZM262.559 177.156H263.411V177.612C263.411 179.04 265.283 180.288 267.179 180.564L266.807 181.356C264.611 180.984 262.559 179.556 262.559 177.612V177.156ZM262.343 182.796H263.327V186.936H262.343V182.796ZM257.963 182.268H267.767V183.084H257.963V182.268ZM258.875 176.76H266.819V177.564H258.875V176.76ZM276.418 176.088H277.414V184.02H276.418V176.088ZM277.102 179.376H279.022V180.204H277.102V179.376ZM273.454 176.928H274.51C274.51 179.736 272.542 181.788 269.434 182.784L269.002 181.968C271.738 181.128 273.454 179.448 273.454 177.36V176.928ZM269.446 176.928H273.958V177.744H269.446V176.928ZM270.646 185.88H277.894V186.696H270.646V185.88ZM270.646 183.216H271.642V186.204H270.646V183.216ZM290.575 176.088H291.571V181.56H290.575V176.088ZM291.295 178.332H293.179V179.16H291.295V178.332ZM283.675 176.556H284.671V180.72H283.675V176.556ZM283.675 180.192H284.527C286.075 180.192 287.695 180.084 289.459 179.724L289.579 180.552C287.755 180.924 286.135 181.032 284.527 181.032H283.675V180.192ZM284.683 182.076H291.571V184.752H285.691V186.396H284.707V183.984H290.587V182.88H284.683V182.076ZM284.707 185.988H291.967V186.792H284.707V185.988ZM302.214 176.088H303.222V186.936H302.214V176.088ZM295.734 177.048H296.478V179.484C296.478 181.212 296.058 183.408 294.69 184.452L294.042 183.744C295.362 182.772 295.734 180.876 295.734 179.484V177.048ZM295.95 177.048H296.682V179.484C296.682 180.792 296.958 182.784 298.29 183.816L297.738 184.572C296.274 183.48 295.95 181.116 295.95 179.484V177.048ZM298.806 177.048H299.538V179.484C299.538 181.188 299.202 183.504 297.738 184.572L297.186 183.816C298.518 182.82 298.806 180.864 298.806 179.484V177.048ZM299.01 177.048H299.754V179.484C299.754 180.924 300.126 182.796 301.446 183.744L300.834 184.476C299.418 183.444 299.01 181.272 299.01 179.484V177.048Z" fill="#0198FF"/>
<path d="M313.5 178.25L317.25 182L313.5 185.75" stroke="#0198FF" stroke-linecap="round" stroke-linejoin="round"/>
<defs>
<filter id="filter0_d_910_39483" x="0" y="0" width="359" height="335" filterUnits="userSpaceOnUse" color-interpolation-filters="sRGB">
<feFlood flood-opacity="0" result="BackgroundImageFix"/>
<feColorMatrix in="SourceAlpha" type="matrix" values="0 0 0 0 0 0 0 0 0 0 0 0 0 0 0 0 0 0 127 0" result="hardAlpha"/>
<feOffset/>
<feGaussianBlur stdDeviation="6"/>
<feComposite in2="hardAlpha" operator="out"/>
<feColorMatrix type="matrix" values="0 0 0 0 0.47451 0 0 0 0 0.470588 0 0 0 0 0.517647 0 0 0 0.15 0"/>
<feBlend mode="normal" in2="BackgroundImageFix" result="effect1_dropShadow_910_39483"/>
<feBlend mode="normal" in="SourceGraphic" in2="effect1_dropShadow_910_39483" result="shape"/>
</filter>
<linearGradient id="paint0_linear_910_39483" x1="260.216" y1="67.8398" x2="277.923" y2="116.053" gradientUnits="userSpaceOnUse">
<stop stop-color="#FFF500"/>
<stop offset="1" stop-color="#FCA600"/>
</linearGradient>
</defs>
</svg>
