<svg width="238" height="104" viewBox="0 0 238 104" fill="none" xmlns="http://www.w3.org/2000/svg">
<g filter="url(#filter0_d_910_39699)">
<rect x="12" y="12" width="214" height="80" rx="20" fill="white"/>
</g>
<rect x="32" y="32" width="174" height="40" rx="20" fill="#F3F4F6"/>
<path d="M92.496 46.076H93.492V56.948H92.496V46.076ZM85.224 53.504H86.124C87.936 53.504 89.556 53.432 91.476 53.12L91.584 53.936C89.616 54.26 87.984 54.332 86.124 54.332H85.224V53.504ZM85.2 47.096H90.216V50.972H86.22V53.816H85.224V50.156H89.208V47.912H85.2V47.096ZM99.9831 46.832H100.847V47.66C100.847 50.024 98.6511 51.86 96.4791 52.352L96.0351 51.524C97.9431 51.164 99.9831 49.508 99.9831 47.66V46.832ZM100.163 46.832H101.027V47.66C101.027 49.52 103.079 51.164 104.975 51.524L104.531 52.352C102.371 51.86 100.163 50.036 100.163 47.66V46.832ZM95.6391 54.656H105.467V55.472H95.6391V54.656ZM107.842 47.192H114.73V48.008H107.842V47.192ZM106.678 54.596H116.482V55.436H106.678V54.596ZM114.298 47.192H115.27V48.524C115.27 50.12 115.27 51.596 114.814 53.816L113.83 53.72C114.298 51.632 114.298 50.084 114.298 48.524V47.192ZM114.55 50.192V50.936L107.698 51.308L107.554 50.48L114.55 50.192ZM123.63 50.588H124.626V52.232H123.63V50.588ZM124.098 46.58C125.67 46.58 126.774 47.444 126.774 48.728C126.774 50.012 125.67 50.864 124.098 50.864C122.538 50.864 121.434 50.012 121.434 48.728C121.434 47.444 122.538 46.58 124.098 46.58ZM124.098 47.348C123.078 47.348 122.37 47.912 122.37 48.728C122.37 49.556 123.078 50.108 124.098 50.108C125.13 50.108 125.838 49.556 125.838 48.728C125.838 47.912 125.13 47.348 124.098 47.348ZM128.238 46.1H129.234V54.392H128.238V46.1ZM128.814 49.76H130.818V50.588H128.814V49.76ZM122.37 55.868H129.618V56.696H122.37V55.868ZM122.37 53.684H123.366V56.228H122.37V53.684ZM120.942 52.784L120.81 51.968C122.718 51.968 125.358 51.944 127.566 51.608L127.638 52.34C125.37 52.76 122.802 52.784 120.942 52.784ZM134.681 52.556H135.677V54.32H134.681V52.556ZM139.241 46.088H140.237V56.936H139.241V46.088ZM139.913 50.696H141.917V51.536H139.913V50.696ZM131.885 54.872L131.741 54.044C133.685 54.044 136.337 54.02 138.581 53.696L138.665 54.44C136.325 54.86 133.781 54.872 131.885 54.872ZM131.921 47.396H138.413V48.2H131.921V47.396ZM135.173 48.836C136.685 48.836 137.729 49.628 137.729 50.84C137.729 52.064 136.685 52.844 135.173 52.844C133.661 52.844 132.629 52.064 132.629 50.84C132.629 49.628 133.661 48.836 135.173 48.836ZM135.173 49.604C134.201 49.604 133.565 50.096 133.565 50.84C133.565 51.584 134.201 52.076 135.173 52.076C136.145 52.076 136.793 51.584 136.793 50.84C136.793 50.096 136.145 49.604 135.173 49.604ZM134.681 46.1H135.677V47.936H134.681V46.1Z" fill="#4B5563"/>
<ellipse cx="60.0014" cy="51.9999" rx="11.9467" ry="11.9467" fill="url(#paint0_linear_910_39699)"/>
<defs>
<filter id="filter0_d_910_39699" x="0" y="0" width="238" height="104" filterUnits="userSpaceOnUse" color-interpolation-filters="sRGB">
<feFlood flood-opacity="0" result="BackgroundImageFix"/>
<feColorMatrix in="SourceAlpha" type="matrix" values="0 0 0 0 0 0 0 0 0 0 0 0 0 0 0 0 0 0 127 0" result="hardAlpha"/>
<feOffset/>
<feGaussianBlur stdDeviation="6"/>
<feComposite in2="hardAlpha" operator="out"/>
<feColorMatrix type="matrix" values="0 0 0 0 0.475936 0 0 0 0 0.469306 0 0 0 0 0.516667 0 0 0 0.15 0"/>
<feBlend mode="normal" in2="BackgroundImageFix" result="effect1_dropShadow_910_39699"/>
<feBlend mode="normal" in="SourceGraphic" in2="effect1_dropShadow_910_39699" result="shape"/>
</filter>
<linearGradient id="paint0_linear_910_39699" x1="60.108" y1="37.9199" x2="68.9614" y2="62.0266" gradientUnits="userSpaceOnUse">
<stop stop-color="#FFF500"/>
<stop offset="1" stop-color="#FCA600"/>
</linearGradient>
</defs>
</svg>
