<svg width="359" height="208" viewBox="0 0 359 208" fill="none" xmlns="http://www.w3.org/2000/svg">
<g filter="url(#filter0_d_910_39457)">
<rect x="12" y="12" width="335" height="184" rx="20" fill="white"/>
</g>
<rect x="32" y="32" width="44" height="44" rx="22" fill="#F7931A" fill-opacity="0.1"/>
<path fill-rule="evenodd" clip-rule="evenodd" d="M62.9546 51.4079C63.316 48.9882 61.4738 47.6875 58.9547 46.8198L59.7718 43.5421L57.7761 43.0448L56.9805 46.2362C56.4566 46.1055 55.9179 45.9821 55.3826 45.86L56.1839 42.6476L54.1898 42.1504L53.3721 45.427C52.938 45.3281 52.5118 45.2303 52.0981 45.1275L52.1004 45.1173L49.3489 44.4302L48.8181 46.5612C48.8181 46.5612 50.2984 46.9005 50.2672 46.9215C51.0752 47.1232 51.2218 47.6579 51.1968 48.0819L50.266 51.8159C50.3217 51.8301 50.3939 51.8505 50.4734 51.8824L50.2632 51.8301L48.9579 57.0609C48.859 57.3064 48.6084 57.6746 48.0436 57.5348C48.0635 57.5638 46.5934 57.1728 46.5934 57.1728L45.6029 59.4572L48.1998 60.1045C48.4929 60.1779 48.7824 60.2534 49.0688 60.3281L49.069 60.3282L49.0694 60.3283C49.2548 60.3767 49.4388 60.4247 49.6216 60.4716L48.7959 63.7873L50.7888 64.2846L51.6071 61.0046C52.1509 61.1523 52.6794 61.2887 53.1965 61.4171L52.3816 64.6818L54.3768 65.179L55.2025 61.87C58.6046 62.5139 61.1635 62.2542 62.2392 59.1776C63.1069 56.7 62.1966 55.2709 60.4066 54.3384C61.7101 54.0366 62.6921 53.1791 62.9541 51.4079H62.9546ZM58.3956 57.8002C57.8292 60.0742 54.2691 59.1333 52.6416 58.7032C52.4959 58.6647 52.3657 58.6302 52.2545 58.6026L53.3501 54.2105C53.486 54.2444 53.652 54.2817 53.8401 54.3239L53.8402 54.3239C55.5238 54.7017 58.9743 55.476 58.3962 57.8002H58.3956ZM54.1785 52.2858C55.5365 52.6481 58.4965 53.4378 59.0121 51.3721C59.5393 49.2588 56.661 48.6218 55.2553 48.3107C55.0973 48.2757 54.9579 48.2449 54.844 48.2165L53.8507 52.2C53.9447 52.2234 54.055 52.2529 54.1785 52.2858Z" fill="#F7931A"/>
<path d="M98.8 36.592H100.944V51.456H98.8V36.592ZM89.376 37.776H91.488V41.376H94.544V37.776H96.656V48H89.376V37.776ZM91.488 43.024V46.288H94.544V43.024H91.488ZM104.943 44.24H115.359V45.904H104.943V44.24ZM103.375 48H116.783V49.728H103.375V48ZM104.943 37.68H115.231V39.392H107.103V44.704H104.943V37.68ZM106.447 40.944H114.895V42.592H106.447V40.944ZM119.598 37.84H128.926V39.536H119.598V37.84ZM118.078 48.016H131.47V49.728H118.078V48.016ZM128.078 37.84H130.174V39.136C130.174 40.928 130.19 43.024 129.502 46.24L127.406 46.016C128.078 43.008 128.078 40.848 128.078 39.136V37.84ZM128.462 41.408V43.008L119.422 43.504L119.134 41.696L128.462 41.408ZM122.83 44.464H124.958V48.64H122.83V44.464ZM142.972 36.624H145.116V47.264H142.972V36.624ZM135.244 49.472H145.484V51.168H135.244V49.472ZM135.244 46.192H137.372V50.16H135.244V46.192ZM137.052 37.552C139.324 37.552 141.068 39.12 141.068 41.312C141.068 43.488 139.324 45.072 137.052 45.072C134.78 45.072 133.02 43.488 133.02 41.312C133.02 39.12 134.78 37.552 137.052 37.552ZM137.052 39.392C135.948 39.392 135.1 40.096 135.1 41.312C135.1 42.512 135.948 43.216 137.052 43.216C138.14 43.216 138.988 42.512 138.988 41.312C138.988 40.096 138.14 39.392 137.052 39.392Z" fill="black"/>
<path d="M93.112 67.692C93.416 67.74 93.692 67.864 93.94 68.064C94.196 68.264 94.396 68.512 94.54 68.808C94.692 69.104 94.768 69.42 94.768 69.756C94.768 70.18 94.66 70.564 94.444 70.908C94.228 71.244 93.912 71.512 93.496 71.712C93.088 71.904 92.604 72 92.044 72H88.924V63.636H91.924C92.492 63.636 92.976 63.732 93.376 63.924C93.776 64.108 94.076 64.36 94.276 64.68C94.476 65 94.576 65.36 94.576 65.76C94.576 66.256 94.44 66.668 94.168 66.996C93.904 67.316 93.552 67.548 93.112 67.692ZM90.016 67.248H91.852C92.364 67.248 92.76 67.128 93.04 66.888C93.32 66.648 93.46 66.316 93.46 65.892C93.46 65.468 93.32 65.136 93.04 64.896C92.76 64.656 92.356 64.536 91.828 64.536H90.016V67.248ZM91.948 71.1C92.492 71.1 92.916 70.972 93.22 70.716C93.524 70.46 93.676 70.104 93.676 69.648C93.676 69.184 93.516 68.82 93.196 68.556C92.876 68.284 92.448 68.148 91.912 68.148H90.016V71.1H91.948ZM101.431 63.636V64.524H99.1514V72H98.0594V64.524H95.7674V63.636H101.431ZM102.368 67.812C102.368 66.996 102.552 66.264 102.92 65.616C103.288 64.96 103.788 64.448 104.42 64.08C105.06 63.712 105.768 63.528 106.544 63.528C107.456 63.528 108.252 63.748 108.932 64.188C109.612 64.628 110.108 65.252 110.42 66.06H109.112C108.88 65.556 108.544 65.168 108.104 64.896C107.672 64.624 107.152 64.488 106.544 64.488C105.96 64.488 105.436 64.624 104.972 64.896C104.508 65.168 104.144 65.556 103.88 66.06C103.616 66.556 103.484 67.14 103.484 67.812C103.484 68.476 103.616 69.06 103.88 69.564C104.144 70.06 104.508 70.444 104.972 70.716C105.436 70.988 105.96 71.124 106.544 71.124C107.152 71.124 107.672 70.992 108.104 70.728C108.544 70.456 108.88 70.068 109.112 69.564H110.42C110.108 70.364 109.612 70.984 108.932 71.424C108.252 71.856 107.456 72.072 106.544 72.072C105.768 72.072 105.06 71.892 104.42 71.532C103.788 71.164 103.288 70.656 102.92 70.008C102.552 69.36 102.368 68.628 102.368 67.812ZM116.605 67.14V68.064H111.817V67.14H116.605ZM119.722 63.636V68.928C119.722 69.672 119.902 70.224 120.262 70.584C120.63 70.944 121.138 71.124 121.786 71.124C122.426 71.124 122.926 70.944 123.286 70.584C123.654 70.224 123.838 69.672 123.838 68.928V63.636H124.93V68.916C124.93 69.612 124.79 70.2 124.51 70.68C124.23 71.152 123.85 71.504 123.37 71.736C122.898 71.968 122.366 72.084 121.774 72.084C121.182 72.084 120.646 71.968 120.166 71.736C119.694 71.504 119.318 71.152 119.038 70.68C118.766 70.2 118.63 69.612 118.63 68.916V63.636H119.722ZM129.404 72.084C128.852 72.084 128.356 71.988 127.916 71.796C127.484 71.596 127.144 71.324 126.896 70.98C126.648 70.628 126.52 70.224 126.512 69.768H127.676C127.716 70.16 127.876 70.492 128.156 70.764C128.444 71.028 128.86 71.16 129.404 71.16C129.924 71.16 130.332 71.032 130.628 70.776C130.932 70.512 131.084 70.176 131.084 69.768C131.084 69.448 130.996 69.188 130.82 68.988C130.644 68.788 130.424 68.636 130.16 68.532C129.896 68.428 129.54 68.316 129.092 68.196C128.54 68.052 128.096 67.908 127.76 67.764C127.432 67.62 127.148 67.396 126.908 67.092C126.676 66.78 126.56 66.364 126.56 65.844C126.56 65.388 126.676 64.984 126.908 64.632C127.14 64.28 127.464 64.008 127.88 63.816C128.304 63.624 128.788 63.528 129.332 63.528C130.116 63.528 130.756 63.724 131.252 64.116C131.756 64.508 132.04 65.028 132.104 65.676H130.904C130.864 65.356 130.696 65.076 130.4 64.836C130.104 64.588 129.712 64.464 129.224 64.464C128.768 64.464 128.396 64.584 128.108 64.824C127.82 65.056 127.676 65.384 127.676 65.808C127.676 66.112 127.76 66.36 127.928 66.552C128.104 66.744 128.316 66.892 128.564 66.996C128.82 67.092 129.176 67.204 129.632 67.332C130.184 67.484 130.628 67.636 130.964 67.788C131.3 67.932 131.588 68.16 131.828 68.472C132.068 68.776 132.188 69.192 132.188 69.72C132.188 70.128 132.08 70.512 131.864 70.872C131.648 71.232 131.328 71.524 130.904 71.748C130.48 71.972 129.98 72.084 129.404 72.084ZM136.399 63.636C137.311 63.636 138.099 63.808 138.763 64.152C139.435 64.488 139.947 64.972 140.299 65.604C140.659 66.236 140.839 66.98 140.839 67.836C140.839 68.692 140.659 69.436 140.299 70.068C139.947 70.692 139.435 71.172 138.763 71.508C138.099 71.836 137.311 72 136.399 72H133.795V63.636H136.399ZM136.399 71.1C137.479 71.1 138.303 70.816 138.871 70.248C139.439 69.672 139.723 68.868 139.723 67.836C139.723 66.796 139.435 65.984 138.859 65.4C138.291 64.816 137.471 64.524 136.399 64.524H134.887V71.1H136.399Z" fill="#6B7280"/>
<rect x="280" y="32" width="47" height="24" rx="12" fill="#FFE4D9"/>
<path d="M293.752 40.464H301.456V41.724H293.752V40.464ZM293.752 38.172H295.336V41.292H293.752V38.172ZM292.492 42.684H302.536V43.932H292.492V42.684ZM296.704 41.412H298.3V43.608H296.704V41.412ZM293.56 44.688H301.468V45.948H293.56V44.688ZM293.452 47.688H301.588V48.948H293.452V47.688ZM295.048 45.024H296.62V48.312H295.048V45.024ZM298.396 45.024H299.968V48.312H298.396V45.024ZM308.547 38.16C310.995 38.16 312.567 38.988 312.567 40.332C312.567 41.676 310.995 42.492 308.547 42.492C306.099 42.492 304.527 41.676 304.527 40.332C304.527 38.988 306.099 38.16 308.547 38.16ZM308.547 39.396C307.023 39.396 306.171 39.696 306.171 40.332C306.171 40.956 307.023 41.268 308.547 41.268C310.059 41.268 310.923 40.956 310.923 40.332C310.923 39.696 310.059 39.396 308.547 39.396ZM304.683 45.156H312.363V48.948H304.683V45.156ZM310.803 46.416H306.255V47.688H310.803V46.416ZM303.519 43.128H313.563V44.388H303.519V43.128Z" fill="#FF4D00"/>
<path d="M35.696 107.824H36.704V110.176H35.696V107.824ZM35.696 104.008H36.5V104.248C36.5 106.144 35.264 107.608 33.44 108.184L32.984 107.404C34.592 106.924 35.696 105.712 35.696 104.248V104.008ZM35.888 104.008H36.692V104.248C36.692 105.652 37.832 106.828 39.428 107.296L38.972 108.064C37.148 107.524 35.888 106.084 35.888 104.248V104.008ZM33.236 103.504H39.2V104.308H33.236V103.504ZM35.696 102.16H36.704V103.852H35.696V102.16ZM40.436 102.076H41.432V112.948H40.436V102.076ZM32.792 110.716L32.648 109.876C34.628 109.876 37.364 109.864 39.728 109.504L39.812 110.236C37.376 110.692 34.724 110.704 32.792 110.716ZM46.6631 102.724C48.2951 102.724 49.4951 103.78 49.4951 105.304C49.4951 106.816 48.2951 107.86 46.6631 107.86C45.0311 107.86 43.8311 106.816 43.8311 105.304C43.8311 103.78 45.0311 102.724 46.6631 102.724ZM46.6631 103.576C45.5831 103.576 44.8031 104.272 44.8031 105.304C44.8031 106.324 45.5831 107.032 46.6631 107.032C47.7431 107.032 48.5231 106.324 48.5231 105.304C48.5231 104.272 47.7431 103.576 46.6631 103.576ZM51.0551 102.088H52.0511V108.472H51.0551V102.088ZM51.7751 104.872H53.6591V105.712H51.7751V104.872ZM45.0071 109.036H52.0511V112.948H51.0551V109.84H45.0071V109.036ZM58.1941 102.868C59.8861 102.868 61.0981 103.912 61.0981 105.424C61.0981 106.948 59.8861 107.992 58.1941 107.992C56.5021 107.992 55.2781 106.948 55.2781 105.424C55.2781 103.912 56.5021 102.868 58.1941 102.868ZM58.1941 103.732C57.0661 103.732 56.2501 104.416 56.2501 105.424C56.2501 106.432 57.0661 107.128 58.1941 107.128C59.3101 107.128 60.1261 106.432 60.1261 105.424C60.1261 104.416 59.3101 103.732 58.1941 103.732ZM62.5141 102.076H63.5101V112.948H62.5141V102.076ZM54.8701 110.572L54.7261 109.744C56.7061 109.744 59.4421 109.732 61.8061 109.36L61.8901 110.092C59.4541 110.56 56.8021 110.572 54.8701 110.572ZM74.0184 104.08H76.9224V104.896H74.0184V104.08ZM73.9224 106.336H76.8504V107.152H73.9224V106.336ZM76.7544 102.088H77.7504V108.592H76.7544V102.088ZM73.3584 102.904H74.4264C74.4264 105.7 72.4944 107.656 69.3744 108.592L68.9664 107.788C71.7384 106.984 73.3584 105.388 73.3584 103.336V102.904ZM69.5304 102.904H74.0424V103.72H69.5304V102.904ZM74.2224 108.712C76.4184 108.712 77.8104 109.492 77.8104 110.8C77.8104 112.108 76.4184 112.888 74.2224 112.888C72.0264 112.888 70.6344 112.108 70.6344 110.8C70.6344 109.492 72.0264 108.712 74.2224 108.712ZM74.2224 109.492C72.6384 109.492 71.6184 109.984 71.6184 110.8C71.6184 111.616 72.6384 112.096 74.2224 112.096C75.8184 112.096 76.8384 111.616 76.8384 110.8C76.8384 109.984 75.8184 109.492 74.2224 109.492ZM79.8614 108.304H89.7014V109.12H79.8614V108.304ZM84.2534 108.808H85.2374V112.936H84.2534V108.808ZM84.7574 102.52C87.0254 102.52 88.5494 103.444 88.5494 104.896C88.5494 106.348 87.0254 107.272 84.7574 107.272C82.5014 107.272 80.9654 106.348 80.9654 104.896C80.9654 103.444 82.5014 102.52 84.7574 102.52ZM84.7574 103.324C83.1014 103.324 81.9734 103.936 81.9734 104.896C81.9734 105.856 83.1014 106.468 84.7574 106.468C86.4134 106.468 87.5294 105.856 87.5294 104.896C87.5294 103.936 86.4134 103.324 84.7574 103.324Z" fill="#9CA3AF"/>
<path d="M278.014 107.344V109.232H271.23V107.344H278.014ZM282.222 107.824C281.155 107.269 280.622 106.411 280.622 105.248C280.622 104.672 280.766 104.149 281.054 103.68C281.353 103.2 281.795 102.821 282.382 102.544C282.979 102.256 283.705 102.112 284.558 102.112C285.411 102.112 286.131 102.256 286.718 102.544C287.315 102.821 287.758 103.2 288.046 103.68C288.345 104.149 288.494 104.672 288.494 105.248C288.494 105.835 288.35 106.352 288.062 106.8C287.774 107.237 287.39 107.579 286.91 107.824C287.497 108.08 287.955 108.453 288.286 108.944C288.617 109.435 288.782 110.016 288.782 110.688C288.782 111.413 288.595 112.048 288.222 112.592C287.859 113.125 287.358 113.536 286.718 113.824C286.078 114.112 285.358 114.256 284.558 114.256C283.758 114.256 283.038 114.112 282.398 113.824C281.769 113.536 281.267 113.125 280.894 112.592C280.531 112.048 280.35 111.413 280.35 110.688C280.35 110.016 280.515 109.435 280.846 108.944C281.177 108.443 281.635 108.069 282.222 107.824ZM286.318 105.568C286.318 105.045 286.158 104.64 285.838 104.352C285.529 104.064 285.102 103.92 284.558 103.92C284.025 103.92 283.598 104.064 283.278 104.352C282.969 104.64 282.814 105.051 282.814 105.584C282.814 106.064 282.974 106.448 283.294 106.736C283.625 107.024 284.046 107.168 284.558 107.168C285.07 107.168 285.491 107.024 285.822 106.736C286.153 106.437 286.318 106.048 286.318 105.568ZM284.558 108.8C283.95 108.8 283.454 108.955 283.07 109.264C282.697 109.573 282.51 110.016 282.51 110.592C282.51 111.125 282.691 111.563 283.054 111.904C283.427 112.235 283.929 112.4 284.558 112.4C285.187 112.4 285.683 112.229 286.046 111.888C286.409 111.547 286.59 111.115 286.59 110.592C286.59 110.027 286.403 109.589 286.03 109.28C285.657 108.96 285.166 108.8 284.558 108.8ZM298.391 104.272H293.207V107.008C293.431 106.731 293.751 106.507 294.167 106.336C294.583 106.155 295.026 106.064 295.495 106.064C296.348 106.064 297.047 106.251 297.591 106.624C298.135 106.997 298.53 107.477 298.775 108.064C299.02 108.64 299.143 109.259 299.143 109.92C299.143 111.147 298.791 112.133 298.087 112.88C297.394 113.627 296.402 114 295.111 114C293.895 114 292.924 113.696 292.199 113.088C291.474 112.48 291.063 111.685 290.967 110.704H293.143C293.239 111.131 293.452 111.472 293.783 111.728C294.124 111.984 294.556 112.112 295.079 112.112C295.708 112.112 296.183 111.915 296.503 111.52C296.823 111.125 296.983 110.603 296.983 109.952C296.983 109.291 296.818 108.789 296.487 108.448C296.167 108.096 295.692 107.92 295.063 107.92C294.615 107.92 294.242 108.032 293.943 108.256C293.644 108.48 293.431 108.779 293.303 109.152H291.159V102.304H298.391V104.272ZM302.096 114.112C301.691 114.112 301.355 113.989 301.088 113.744C300.832 113.488 300.704 113.173 300.704 112.8C300.704 112.427 300.832 112.117 301.088 111.872C301.355 111.616 301.691 111.488 302.096 111.488C302.491 111.488 302.816 111.616 303.072 111.872C303.328 112.117 303.456 112.427 303.456 112.8C303.456 113.173 303.328 113.488 303.072 113.744C302.816 113.989 302.491 114.112 302.096 114.112ZM305.036 105.408C305.09 104.341 305.463 103.52 306.156 102.944C306.86 102.357 307.783 102.064 308.924 102.064C309.703 102.064 310.37 102.203 310.924 102.48C311.479 102.747 311.895 103.115 312.172 103.584C312.46 104.043 312.604 104.565 312.604 105.152C312.604 105.824 312.428 106.395 312.076 106.864C311.735 107.323 311.324 107.632 310.844 107.792V107.856C311.463 108.048 311.943 108.389 312.284 108.88C312.636 109.371 312.812 110 312.812 110.768C312.812 111.408 312.663 111.979 312.364 112.48C312.076 112.981 311.644 113.376 311.068 113.664C310.503 113.941 309.82 114.08 309.02 114.08C307.815 114.08 306.834 113.776 306.076 113.168C305.319 112.56 304.919 111.664 304.876 110.48H307.052C307.074 111.003 307.25 111.424 307.58 111.744C307.922 112.053 308.386 112.208 308.972 112.208C309.516 112.208 309.932 112.059 310.22 111.76C310.519 111.451 310.668 111.056 310.668 110.576C310.668 109.936 310.466 109.477 310.06 109.2C309.655 108.923 309.026 108.784 308.172 108.784H307.708V106.944H308.172C309.687 106.944 310.444 106.437 310.444 105.424C310.444 104.965 310.306 104.608 310.028 104.352C309.762 104.096 309.372 103.968 308.86 103.968C308.359 103.968 307.97 104.107 307.692 104.384C307.426 104.651 307.271 104.992 307.228 105.408H305.036ZM314.326 105.2C314.326 104.389 314.561 103.755 315.03 103.296C315.51 102.837 316.124 102.608 316.87 102.608C317.617 102.608 318.225 102.837 318.694 103.296C319.174 103.755 319.414 104.389 319.414 105.2C319.414 106.021 319.174 106.661 318.694 107.12C318.225 107.579 317.617 107.808 316.87 107.808C316.124 107.808 315.51 107.579 315.03 107.12C314.561 106.661 314.326 106.021 314.326 105.2ZM324.598 102.8L318.31 114H316.134L322.406 102.8H324.598ZM316.854 103.952C316.268 103.952 315.974 104.368 315.974 105.2C315.974 106.043 316.268 106.464 316.854 106.464C317.142 106.464 317.366 106.363 317.526 106.16C317.686 105.947 317.766 105.627 317.766 105.2C317.766 104.368 317.462 103.952 316.854 103.952ZM321.35 111.584C321.35 110.763 321.585 110.128 322.054 109.68C322.534 109.221 323.148 108.992 323.894 108.992C324.641 108.992 325.244 109.221 325.702 109.68C326.172 110.128 326.406 110.763 326.406 111.584C326.406 112.405 326.172 113.045 325.702 113.504C325.244 113.963 324.641 114.192 323.894 114.192C323.137 114.192 322.524 113.963 322.054 113.504C321.585 113.045 321.35 112.405 321.35 111.584ZM323.878 110.336C323.27 110.336 322.966 110.752 322.966 111.584C322.966 112.427 323.27 112.848 323.878 112.848C324.476 112.848 324.774 112.427 324.774 111.584C324.774 110.752 324.476 110.336 323.878 110.336Z" fill="#DF1525"/>
<rect x="32" y="136" width="295" height="40" rx="20" fill="#F3F4F6"/>
<path d="M52.8118 148.616C52.8118 150.584 54.3558 152.188 56.289 152.265V152.268H56.9544C58.9435 152.268 60.6554 153.674 61.0425 155.625H63.9278C64.3148 153.674 66.0267 152.268 68.0159 152.268H68.7491C70.5095 152.268 71.9365 150.829 71.9365 149.054C71.9365 147.279 70.5095 145.84 68.7491 145.84C68.5113 145.84 68.2797 145.867 68.0568 145.916C67.558 143.536 65.4627 141.75 62.9537 141.75C60.6565 141.75 58.7061 143.247 58.0104 145.327C57.5338 145.094 56.999 144.964 56.4339 144.964C54.4335 144.964 52.8118 146.599 52.8118 148.616Z" fill="url(#paint0_linear_910_39457)"/>
<path d="M57.9168 155.717C58.0915 155.297 58.5011 155.024 58.9552 155.024H65.7926C66.2468 155.024 66.6564 155.297 66.8311 155.717L71.8046 167.653C72.3192 168.888 71.4118 170.249 70.0738 170.249H54.674C53.3361 170.249 52.4287 168.888 52.9433 167.653L57.9168 155.717Z" fill="#101213"/>
<path d="M58.0555 154.498L57.0027 157.66L54.8458 161.328C54.6708 161.626 54.7747 162.006 55.0777 162.178C55.3808 162.35 55.7684 162.248 55.9434 161.95L57.2123 159.792C57.4478 159.392 57.9565 159.256 58.3798 159.447C58.7862 159.631 59.0246 160.077 58.9071 160.507L57.8174 164.5C57.6556 165.093 58.014 165.703 58.6179 165.862C59.2218 166.021 59.8426 165.669 60.0044 165.076L61.0268 161.329C61.1956 160.711 61.7904 160.317 62.4316 160.317C63.4919 160.317 64.5124 160.15 65.4673 159.84C66.4129 159.534 67.501 159.806 68.0225 160.653L68.8096 161.93C68.9908 162.224 69.3804 162.318 69.6798 162.14C69.9793 161.962 70.0751 161.58 69.894 161.286L68.0965 158.369L66.8133 154.515C66.6616 154.059 66.1332 153.843 65.6968 154.057L64.8771 154.459C64.6571 154.567 64.3986 154.57 64.1764 154.466L63.5755 154.185C62.8536 153.848 62.0135 153.856 61.2984 154.207L60.7833 154.459C60.5633 154.567 60.3048 154.57 60.0826 154.466L59.1581 154.034C58.7231 153.83 58.2052 154.049 58.0555 154.498Z" fill="url(#paint1_linear_910_39457)"/>
<path d="M261.184 150.076H262.18V160.948H261.184V150.076ZM253.912 157.504H254.812C256.624 157.504 258.244 157.432 260.164 157.12L260.272 157.936C258.304 158.26 256.672 158.332 254.812 158.332H253.912V157.504ZM253.888 151.096H258.904V154.972H254.908V157.816H253.912V154.156H257.896V151.912H253.888V151.096ZM268.671 150.832H269.535V151.66C269.535 154.024 267.339 155.86 265.167 156.352L264.723 155.524C266.631 155.164 268.671 153.508 268.671 151.66V150.832ZM268.851 150.832H269.715V151.66C269.715 153.52 271.767 155.164 273.663 155.524L273.219 156.352C271.059 155.86 268.851 154.036 268.851 151.66V150.832ZM264.327 158.656H274.155V159.472H264.327V158.656ZM276.53 151.192H283.418V152.008H276.53V151.192ZM275.366 158.596H285.17V159.436H275.366V158.596ZM282.986 151.192H283.958V152.524C283.958 154.12 283.958 155.596 283.502 157.816L282.518 157.72C282.986 155.632 282.986 154.084 282.986 152.524V151.192ZM283.238 154.192V154.936L276.386 155.308L276.242 154.48L283.238 154.192ZM290.422 150.484H298.39V151.3H290.422V150.484ZM290.47 153.64H298.342V154.444H290.47V153.64ZM292.066 150.856H293.062V154.096H292.066V150.856ZM295.762 150.856H296.746V154.096H295.762V150.856ZM289.51 155.752H299.314V156.556H289.51V155.752ZM293.926 154.204H294.91V156.076H293.926V154.204ZM290.602 157.636H298.102V160.936H297.106V158.44H290.602V157.636ZM301.005 150.532H301.989V152.092H305.049V150.532H306.021V155.272H301.005V150.532ZM301.989 152.872V154.468H305.049V152.872H301.989ZM307.977 150.088H308.973V155.68H307.977V150.088ZM308.541 152.416H310.569V153.244H308.541V152.416ZM302.085 156.208H308.973V158.836H303.093V160.468H302.109V158.092H308.001V157H302.085V156.208ZM302.109 160.024H309.369V160.816H302.109V160.024Z" fill="#4B5563"/>
<defs>
<filter id="filter0_d_910_39457" x="0" y="0" width="359" height="208" filterUnits="userSpaceOnUse" color-interpolation-filters="sRGB">
<feFlood flood-opacity="0" result="BackgroundImageFix"/>
<feColorMatrix in="SourceAlpha" type="matrix" values="0 0 0 0 0 0 0 0 0 0 0 0 0 0 0 0 0 0 127 0" result="hardAlpha"/>
<feOffset/>
<feGaussianBlur stdDeviation="6"/>
<feComposite in2="hardAlpha" operator="out"/>
<feColorMatrix type="matrix" values="0 0 0 0 0.47451 0 0 0 0 0.470588 0 0 0 0 0.517647 0 0 0 0.15 0"/>
<feBlend mode="normal" in2="BackgroundImageFix" result="effect1_dropShadow_910_39457"/>
<feBlend mode="normal" in="SourceGraphic" in2="effect1_dropShadow_910_39457" result="shape"/>
</filter>
<linearGradient id="paint0_linear_910_39457" x1="62.3597" y1="141.75" x2="62.3742" y2="152.812" gradientUnits="userSpaceOnUse">
<stop stop-color="#8F959C"/>
<stop offset="1" stop-color="#BFC5CB"/>
</linearGradient>
<linearGradient id="paint1_linear_910_39457" x1="62.3732" y1="152.587" x2="62.3732" y2="162.547" gradientUnits="userSpaceOnUse">
<stop stop-color="#FCFF4F"/>
<stop offset="1" stop-color="#FF5353"/>
</linearGradient>
</defs>
</svg>
