<svg width="1017" height="136" viewBox="0 0 1017 136" fill="none" xmlns="http://www.w3.org/2000/svg">
<rect width="135" height="96" rx="8" fill="#F9FAFB"/>
<ellipse cx="68.0027" cy="35.9998" rx="23.8933" ry="23.8933" fill="url(#paint0_linear_1088_40505)"/>
<path d="M46.6087 73.944H48.2047V85.092H46.6087V73.944ZM39.5527 81.204H40.5367C42.5047 81.204 44.0767 81.132 45.8407 80.832L45.9967 82.116C44.1967 82.44 42.5647 82.5 40.5367 82.5H39.5527V81.204ZM39.5407 74.892H44.7847V79.188H41.1727V81.684H39.5527V77.928H43.1527V76.164H39.5407V74.892ZM54.1197 74.592H55.5117V75.396C55.5117 77.808 53.7957 79.944 50.9157 80.508L50.2317 79.188C52.7397 78.756 54.1197 76.992 54.1197 75.396V74.592ZM54.4437 74.592H55.8237V75.396C55.8237 77.028 57.1917 78.756 59.7117 79.188L59.0277 80.508C56.1477 79.944 54.4437 77.844 54.4437 75.396V74.592ZM50.0037 82.416H60.0597V83.712H50.0037V82.416ZM62.1708 74.928H69.1668V76.2H62.1708V74.928ZM61.0428 82.452H71.0868V83.76H61.0428V82.452ZM68.4948 74.928H70.0668V76.212C70.0668 77.832 70.0668 79.368 69.5508 81.792L67.9788 81.648C68.4948 79.404 68.4948 77.784 68.4948 76.212V74.928ZM68.8308 77.976V79.152L62.0388 79.488L61.8468 78.204L68.8308 77.976ZM77.4612 78.456H79.0572V80.136H77.4612V78.456ZM78.2412 74.4C79.8492 74.4 81.0132 75.324 81.0132 76.668C81.0132 77.988 79.8492 78.912 78.2412 78.912C76.6332 78.912 75.4692 77.988 75.4692 76.668C75.4692 75.324 76.6332 74.4 78.2412 74.4ZM78.2412 75.6C77.4852 75.6 76.9572 75.984 76.9572 76.668C76.9572 77.34 77.4852 77.724 78.2412 77.724C79.0092 77.724 79.5252 77.34 79.5252 76.668C79.5252 75.984 79.0092 75.6 78.2412 75.6ZM82.1532 73.968H83.7492V82.44H82.1532V73.968ZM83.1852 77.448H85.1412V78.756H83.1852V77.448ZM76.3332 83.592H84.1212V84.876H76.3332V83.592ZM76.3332 81.708H77.9412V84.144H76.3332V81.708ZM75.0732 81L74.8932 79.728C76.7772 79.728 79.3812 79.716 81.5652 79.404L81.6732 80.544C79.4292 80.964 76.9092 81 75.0732 81ZM88.5363 80.532H90.1323V82.332H88.5363V80.532ZM93.2043 73.956H94.8123V85.068H93.2043V73.956ZM94.2483 78.468H96.2043V79.788H94.2483V78.468ZM86.0403 83.22L85.8483 81.936C87.7683 81.936 90.4083 81.924 92.6523 81.612L92.7723 82.764C90.4323 83.22 87.9123 83.22 86.0403 83.22ZM86.0523 75.18H92.5923V76.428H86.0523V75.18ZM89.3403 76.872C90.9243 76.872 92.0523 77.712 92.0523 78.948C92.0523 80.196 90.9243 81.036 89.3403 81.036C87.7443 81.036 86.6283 80.196 86.6283 78.948C86.6283 77.712 87.7443 76.872 89.3403 76.872ZM89.3403 78.072C88.6083 78.072 88.1403 78.384 88.1403 78.948C88.1403 79.524 88.6083 79.836 89.3403 79.836C90.0603 79.836 90.5403 79.524 90.5403 78.948C90.5403 78.384 90.0603 78.072 89.3403 78.072ZM88.5363 74.016H90.1323V76.116H88.5363V74.016Z" fill="#374151"/>
<path d="M56.1091 131.014H56.8651C58.8671 131.014 59.8471 130.986 61.0371 130.748L61.1631 131.63C59.9171 131.896 58.9231 131.924 56.8651 131.924H56.1091V131.014ZM56.0811 126.786H60.2111V129.698H57.2291V131.588H56.1091V128.858H59.0911V127.682H56.0811V126.786ZM60.7431 126.786H64.6351V131.994H63.4871V127.71H60.7431V126.786ZM63.4731 119.436H64.6351V126.128H63.4731V119.436ZM64.1311 122.236H66.4971V123.202H64.1311V122.236ZM55.3391 120.164H61.1491V125.358H55.3391V120.164ZM60.0151 121.102H56.4731V124.434H60.0151V121.102ZM67.686 126.086H79.124V127.038H67.686V126.086ZM69.17 130.86H77.864V131.812H69.17V130.86ZM69.17 128.144H70.332V131.154H69.17V128.144ZM73.412 119.856C76.114 119.856 77.864 120.808 77.864 122.39C77.864 123.958 76.114 124.91 73.412 124.91C70.696 124.91 68.96 123.958 68.96 122.39C68.96 120.808 70.696 119.856 73.412 119.856ZM73.412 120.808C71.424 120.808 70.15 121.396 70.15 122.39C70.15 123.384 71.424 123.972 73.412 123.972C75.4 123.972 76.674 123.384 76.674 122.39C76.674 121.396 75.4 120.808 73.412 120.808Z" fill="#111111"/>
<path d="M197.588 121.354H199.786V122.334H197.588V121.354ZM197.588 124.07H199.786V125.036H197.588V124.07ZM196.776 119.436H197.938V126.954H196.776V119.436ZM189.72 127.556H197.938V132.092H196.776V128.494H189.72V127.556ZM191.652 120.178C193.556 120.178 194.956 121.41 194.956 123.188C194.956 124.952 193.556 126.17 191.652 126.17C189.748 126.17 188.348 124.952 188.348 123.188C188.348 121.41 189.748 120.178 191.652 120.178ZM191.652 121.172C190.392 121.172 189.482 121.984 189.482 123.188C189.482 124.378 190.392 125.204 191.652 125.204C192.912 125.204 193.822 124.378 193.822 123.188C193.822 121.984 192.912 121.172 191.652 121.172ZM209.655 119.436H210.817V128.69H209.655V119.436ZM210.453 123.272H212.693V124.238H210.453V123.272ZM206.197 120.416H207.429C207.429 123.692 205.133 126.086 201.507 127.248L201.003 126.296C204.195 125.316 206.197 123.356 206.197 120.92V120.416ZM201.521 120.416H206.785V121.368H201.521V120.416ZM202.921 130.86H211.377V131.812H202.921V130.86ZM202.921 127.752H204.083V131.238H202.921V127.752ZM218.078 121.368H228.354V122.334H218.078V121.368ZM217.518 129.6H228.984V130.566H217.518V129.6ZM223.216 123.146C225.764 123.146 227.36 124.084 227.36 125.652C227.36 127.22 225.764 128.144 223.216 128.144C220.682 128.144 219.086 127.22 219.086 125.652C219.086 124.084 220.682 123.146 223.216 123.146ZM223.216 124.098C221.396 124.098 220.248 124.686 220.248 125.652C220.248 126.618 221.396 127.206 223.216 127.206C225.05 127.206 226.198 126.618 226.198 125.652C226.198 124.686 225.05 124.098 223.216 124.098ZM222.656 119.66H223.804V121.914H222.656V119.66ZM239.595 119.45H240.757V128.774H239.595V119.45ZM232.511 130.86H241.107V131.812H232.511V130.86ZM232.511 128.032H233.673V131.336H232.511V128.032ZM231.041 126.016H232.063C234.457 126.016 236.123 125.932 238.083 125.596L238.209 126.548C236.193 126.898 234.513 126.968 232.063 126.968H231.041V126.016ZM231.013 120.332H236.753V124H232.175V126.31H231.041V123.104H235.619V121.284H231.013V120.332Z" fill="#111111"/>
<path d="M350.381 121.368H360.657V122.334H350.381V121.368ZM349.821 129.6H361.287V130.566H349.821V129.6ZM355.519 123.146C358.067 123.146 359.663 124.084 359.663 125.652C359.663 127.22 358.067 128.144 355.519 128.144C352.985 128.144 351.389 127.22 351.389 125.652C351.389 124.084 352.985 123.146 355.519 123.146ZM355.519 124.098C353.699 124.098 352.551 124.686 352.551 125.652C352.551 126.618 353.699 127.206 355.519 127.206C357.353 127.206 358.501 126.618 358.501 125.652C358.501 124.686 357.353 124.098 355.519 124.098ZM354.959 119.66H356.107V121.914H354.959V119.66ZM371.898 119.436H373.074V126.94H371.898V119.436ZM363.344 125.386H364.366C366.662 125.386 368.356 125.316 370.386 124.994L370.512 125.932C368.426 126.282 366.718 126.352 364.366 126.352H363.344V125.386ZM363.316 120.192H369.056V123.65H364.478V125.96H363.344V122.754H367.922V121.144H363.316V120.192ZM364.898 127.64H373.074V131.924H364.898V127.64ZM371.926 128.564H366.032V130.986H371.926V128.564Z" fill="#111111"/>
<path d="M512.945 119.422H514.107V132.106H512.945V119.422ZM504.475 120.5H505.623V123.846H509.277V120.5H510.439V129.054H504.475V120.5ZM505.623 124.77V128.102H509.277V124.77H505.623Z" fill="#111111"/>
<path d="M634.092 121.816H635.044V122.446C635.044 124.728 633.658 126.604 631.544 127.346L630.97 126.436C632.846 125.792 634.092 124.224 634.092 122.446V121.816ZM634.288 121.816H635.254V122.446C635.254 124.126 636.542 125.61 638.418 126.198L637.844 127.122C635.73 126.422 634.288 124.63 634.288 122.446V121.816ZM631.292 121.13H638.04V122.068H631.292V121.13ZM634.092 119.52H635.254V121.48H634.092V119.52ZM637.62 123.328H640.812V124.294H637.62V123.328ZM640.182 119.45H641.344V128.886H640.182V119.45ZM633.266 130.86H641.694V131.812H633.266V130.86ZM633.266 128.046H634.428V131.378H633.266V128.046ZM643.821 125.358H655.259V126.31H643.821V125.358ZM648.959 125.792H650.107V128.06H648.959V125.792ZM649.519 127.514C652.221 127.514 653.859 128.34 653.859 129.796C653.859 131.252 652.221 132.078 649.519 132.078C646.817 132.078 645.179 131.252 645.179 129.796C645.179 128.34 646.817 127.514 649.519 127.514ZM649.519 128.424C647.545 128.424 646.355 128.928 646.355 129.796C646.355 130.678 647.545 131.168 649.519 131.168C651.507 131.168 652.683 130.678 652.683 129.796C652.683 128.928 651.507 128.424 649.519 128.424ZM645.263 123.244H653.929V124.196H645.263V123.244ZM645.263 120.01H653.831V120.948H646.411V123.832H645.263V120.01ZM662.664 123.006H666.304V123.958H662.664V123.006ZM665.94 119.45H667.102V128.816H665.94V119.45ZM658.968 130.86H667.41V131.812H658.968V130.86ZM658.968 127.906H660.13V131.35H658.968V127.906ZM657.316 120.276H658.464V122.516H661.894V120.276H663.028V126.66H657.316V120.276ZM658.464 123.426V125.708H661.894V123.426H658.464ZM679.183 119.436H680.303V132.092H679.183V119.436ZM677.139 124.518H679.561V125.47H677.139V124.518ZM673.863 121.06H674.983C674.983 124.322 673.863 127.346 670.251 129.376L669.565 128.55C672.743 126.772 673.863 124.21 673.863 121.284V121.06ZM670.055 121.06H674.255V122.026H670.055V121.06ZM676.369 119.772H677.475V131.476H676.369V119.772Z" fill="#111111"/>
<path d="M790.311 127.99H791.137C793.139 127.99 794.329 127.948 795.743 127.668L795.869 128.634C794.399 128.928 793.167 128.97 791.137 128.97H790.311V127.99ZM790.311 120.878H795.295V121.83H791.417V128.354H790.311V120.878ZM791.081 124.224H795.099V125.162H791.081V124.224ZM799.453 119.436H800.573V132.092H799.453V119.436ZM797.451 124.504H799.873V125.47H797.451V124.504ZM796.667 119.702H797.773V131.462H796.667V119.702ZM802.686 125.596H814.124V126.548H802.686V125.596ZM803.75 119.912H813.046V120.85H803.75V119.912ZM803.806 123.482H812.99V124.434H803.806V123.482ZM805.668 120.318H806.83V124.126H805.668V120.318ZM809.98 120.318H811.128V124.126H809.98V120.318ZM808.398 127.738C811.114 127.738 812.724 128.508 812.724 129.908C812.724 131.294 811.114 132.064 808.398 132.064C805.682 132.064 804.072 131.294 804.072 129.908C804.072 128.508 805.682 127.738 808.398 127.738ZM808.398 128.634C806.41 128.634 805.248 129.096 805.248 129.908C805.248 130.72 806.41 131.182 808.398 131.182C810.386 131.182 811.548 130.72 811.548 129.908C811.548 129.096 810.386 128.634 808.398 128.634ZM807.838 126.03H808.986V128.102H807.838V126.03Z" fill="#111111"/>
<path d="M927.218 126.982H928.38V129.04H927.218V126.982ZM932.538 119.436H933.7V132.092H932.538V119.436ZM933.322 124.812H935.66V125.792H933.322V124.812ZM923.956 129.684L923.788 128.718C926.056 128.718 929.15 128.69 931.768 128.312L931.866 129.18C929.136 129.67 926.168 129.684 923.956 129.684ZM923.998 120.962H931.572V121.9H923.998V120.962ZM927.792 122.642C929.556 122.642 930.774 123.566 930.774 124.98C930.774 126.408 929.556 127.318 927.792 127.318C926.028 127.318 924.824 126.408 924.824 124.98C924.824 123.566 926.028 122.642 927.792 122.642ZM927.792 123.538C926.658 123.538 925.916 124.112 925.916 124.98C925.916 125.848 926.658 126.422 927.792 126.422C928.926 126.422 929.682 125.848 929.682 124.98C929.682 124.112 928.926 123.538 927.792 123.538ZM927.218 119.45H928.38V121.592H927.218V119.45ZM939.929 120.206H940.881V121.76C940.881 124.238 939.509 126.212 937.381 127.038L936.765 126.114C938.697 125.428 939.929 123.72 939.929 121.76V120.206ZM940.125 120.206H941.077V121.802C941.077 123.524 942.337 125.148 944.185 125.806L943.611 126.716C941.525 125.96 940.125 124.028 940.125 121.802V120.206ZM945.473 119.422H946.635V128.774H945.473V119.422ZM946.271 123.314H948.511V124.28H946.271V123.314ZM938.781 130.86H947.195V131.812H938.781V130.86ZM938.781 127.892H939.943V131.322H938.781V127.892ZM950.75 119.898H960.046V120.85H950.75V119.898ZM950.806 123.58H959.99V124.518H950.806V123.58ZM952.668 120.332H953.83V124.112H952.668V120.332ZM956.98 120.332H958.128V124.112H956.98V120.332ZM949.686 126.044H961.124V126.982H949.686V126.044ZM954.838 124.238H955.986V126.422H954.838V124.238ZM950.96 128.242H959.71V132.092H958.548V129.18H950.96V128.242ZM963.097 119.954H964.245V121.774H967.815V119.954H968.949V125.484H963.097V119.954ZM964.245 122.684V124.546H967.815V122.684H964.245ZM971.231 119.436H972.393V125.96H971.231V119.436ZM971.889 122.152H974.255V123.118H971.889V122.152ZM964.357 126.576H972.393V129.642H965.533V131.546H964.385V128.774H971.259V127.5H964.357V126.576ZM964.385 131.028H972.855V131.952H964.385V131.028Z" fill="#111111"/>
<rect x="147" width="135" height="96" rx="8" fill="#F9FAFB"/>
<path fill-rule="evenodd" clip-rule="evenodd" d="M235.781 40.7872H235.78V40.7879H230.098H228.891H223.209V40.7735C221.759 40.6295 220.626 39.4058 220.626 37.9176C220.626 36.3326 221.911 35.0477 223.496 35.0477C223.599 35.0477 223.702 35.0531 223.802 35.0638C224.036 32.3725 226.294 30.2607 229.046 30.2607C231.297 30.2607 233.218 31.6737 233.97 33.661C234.508 33.3682 235.125 33.2018 235.781 33.2018C237.875 33.2018 239.573 34.8998 239.573 36.9945C239.573 39.0892 237.875 40.7872 235.781 40.7872Z" fill="url(#paint1_linear_1088_40505)"/>
<ellipse cx="214.892" cy="31.5326" rx="14.1996" ry="14.1996" fill="url(#paint2_linear_1088_40505)"/>
<path fill-rule="evenodd" clip-rule="evenodd" d="M221.987 48.079C221.987 51.652 219.091 54.5486 215.518 54.5488V54.5491H205.824H203.767H194.073V54.5243C191.599 54.2788 189.667 52.1914 189.667 49.6528C189.667 46.949 191.859 44.7571 194.562 44.7571C194.739 44.7571 194.914 44.7664 195.085 44.7847C195.483 40.1939 199.336 36.5918 204.03 36.5918C207.87 36.5918 211.146 39.0021 212.43 42.3923C213.347 41.893 214.399 41.6093 215.518 41.6093C219.091 41.6093 221.987 44.5059 221.987 48.079Z" fill="url(#paint3_linear_1088_40505)"/>
<path d="M181.14 73.944H182.736V85.092H181.14V73.944ZM174.084 81.204H175.068C177.036 81.204 178.608 81.132 180.372 80.832L180.528 82.116C178.728 82.44 177.096 82.5 175.068 82.5H174.084V81.204ZM174.072 74.892H179.316V79.188H175.704V81.684H174.084V77.928H177.684V76.164H174.072V74.892ZM188.651 74.592H190.043V75.396C190.043 77.808 188.327 79.944 185.447 80.508L184.763 79.188C187.271 78.756 188.651 76.992 188.651 75.396V74.592ZM188.975 74.592H190.355V75.396C190.355 77.028 191.723 78.756 194.243 79.188L193.559 80.508C190.679 79.944 188.975 77.844 188.975 75.396V74.592ZM184.535 82.416H194.591V83.712H184.535V82.416ZM196.702 74.928H203.698V76.2H196.702V74.928ZM195.574 82.452H205.618V83.76H195.574V82.452ZM203.026 74.928H204.598V76.212C204.598 77.832 204.598 79.368 204.082 81.792L202.51 81.648C203.026 79.404 203.026 77.784 203.026 76.212V74.928ZM203.362 77.976V79.152L196.57 79.488L196.378 78.204L203.362 77.976ZM217.716 75.396H219.636V76.704H217.716V75.396ZM217.716 77.808H219.636V79.116H217.716V77.808ZM216.612 73.956H218.208V80.508H216.612V73.956ZM210.792 80.964H218.208V85.068H216.612V82.236H210.792V80.964ZM212.556 74.556C214.272 74.556 215.58 75.696 215.58 77.28C215.58 78.864 214.272 79.992 212.556 79.992C210.84 79.992 209.532 78.864 209.532 77.28C209.532 75.696 210.84 74.556 212.556 74.556ZM212.556 75.912C211.716 75.912 211.092 76.404 211.092 77.28C211.092 78.156 211.716 78.66 212.556 78.66C213.396 78.66 214.02 78.156 214.02 77.28C214.02 76.404 213.396 75.912 212.556 75.912ZM227.64 73.956H229.248V81.912H227.64V73.956ZM228.792 77.052H230.724V78.36H228.792V77.052ZM224.544 74.784H226.248C226.248 77.808 224.4 79.884 221.088 80.844L220.416 79.572C223.14 78.828 224.544 77.34 224.544 75.576V74.784ZM220.896 74.784H225.408V76.068H220.896V74.784ZM222.06 83.604H229.62V84.876H222.06V83.604ZM222.06 81.108H223.668V84.168H222.06V81.108ZM236.93 78.456H238.526V80.136H236.93V78.456ZM237.71 74.4C239.318 74.4 240.482 75.324 240.482 76.668C240.482 77.988 239.318 78.912 237.71 78.912C236.102 78.912 234.938 77.988 234.938 76.668C234.938 75.324 236.102 74.4 237.71 74.4ZM237.71 75.6C236.954 75.6 236.426 75.984 236.426 76.668C236.426 77.34 236.954 77.724 237.71 77.724C238.478 77.724 238.994 77.34 238.994 76.668C238.994 75.984 238.478 75.6 237.71 75.6ZM241.622 73.968H243.218V82.44H241.622V73.968ZM242.654 77.448H244.61V78.756H242.654V77.448ZM235.802 83.592H243.59V84.876H235.802V83.592ZM235.802 81.708H237.41V84.144H235.802V81.708ZM234.542 81L234.362 79.728C236.246 79.728 238.85 79.716 241.034 79.404L241.142 80.544C238.898 80.964 236.378 81 234.542 81ZM248.005 80.532H249.601V82.332H248.005V80.532ZM252.673 73.956H254.281V85.068H252.673V73.956ZM253.717 78.468H255.673V79.788H253.717V78.468ZM245.509 83.22L245.317 81.936C247.237 81.936 249.877 81.924 252.121 81.612L252.241 82.764C249.901 83.22 247.381 83.22 245.509 83.22ZM245.521 75.18H252.061V76.428H245.521V75.18ZM248.809 76.872C250.393 76.872 251.521 77.712 251.521 78.948C251.521 80.196 250.393 81.036 248.809 81.036C247.213 81.036 246.097 80.196 246.097 78.948C246.097 77.712 247.213 76.872 248.809 76.872ZM248.809 78.072C248.077 78.072 247.609 78.384 247.609 78.948C247.609 79.524 248.077 79.836 248.809 79.836C249.529 79.836 250.009 79.524 250.009 78.948C250.009 78.384 249.529 78.072 248.809 78.072ZM248.005 74.016H249.601V76.116H248.005V74.016Z" fill="#374151"/>
<rect x="294" width="135" height="96" rx="8" fill="#F9FAFB"/>
<path fill-rule="evenodd" clip-rule="evenodd" d="M341.985 32.5651L342.025 32.565H352.824V32.5615C352.878 32.5599 352.931 32.5579 352.985 32.5553V32.565H363.439C363.456 32.5651 363.474 32.5652 363.491 32.5652C363.509 32.5652 363.526 32.5651 363.544 32.565H363.825V32.5548C366.57 32.3826 368.743 30.1016 368.743 27.3129C368.743 24.4122 366.392 22.0606 363.491 22.0606C362.482 22.0606 361.54 22.345 360.74 22.838C360.056 18.9523 356.664 16 352.583 16C349.041 16 346.018 18.2237 344.834 21.3513C343.987 20.8904 343.017 20.6286 341.985 20.6286C338.689 20.6286 336.017 23.3007 336.017 26.5968C336.017 29.893 338.689 32.5651 341.985 32.5651Z" fill="url(#paint4_linear_1088_40505)"/>
<path fill-rule="evenodd" clip-rule="evenodd" d="M364.028 43.5894C364.071 43.5894 364.113 43.5891 364.155 43.5885H365.939H376.185C376.214 43.5889 376.243 43.5891 376.272 43.5891C380.08 43.5891 383.167 40.5019 383.167 36.6937C383.167 32.8855 380.08 29.7983 376.272 29.7983C375.08 29.7983 373.959 30.1008 372.98 30.6331C371.613 27.02 368.12 24.4512 364.028 24.4512C359.026 24.4512 354.92 28.2896 354.495 33.1818C354.312 33.1624 354.127 33.1525 353.939 33.1525C351.057 33.1525 348.721 35.4886 348.721 38.3703C348.721 41.0753 350.779 43.2996 353.415 43.5621V43.5885H363.748H363.901C363.943 43.5891 363.986 43.5894 364.028 43.5894Z" fill="url(#paint5_linear_1088_40505)"/>
<path fill-rule="evenodd" clip-rule="evenodd" d="M350.492 57.1868L350.54 57.1867H352.699H364.616V57.1857C369.009 57.1855 372.57 53.6243 372.57 49.2314C372.57 44.8383 369.009 41.277 364.616 41.277C363.241 41.277 361.948 41.6258 360.819 42.2397C359.241 38.0722 355.213 35.1094 350.492 35.1094C344.721 35.1094 339.985 39.538 339.495 45.1821C339.284 45.1596 339.069 45.148 338.851 45.148C335.527 45.148 332.832 47.8429 332.832 51.1671C332.832 54.2888 335.209 56.8554 338.251 57.1567V57.1867H350.168H350.445L350.492 57.1868Z" fill="url(#paint6_linear_1088_40505)"/>
<path d="M329.57 73.944H331.166V85.092H329.57V73.944ZM322.514 81.204H323.498C325.466 81.204 327.038 81.132 328.802 80.832L328.958 82.116C327.158 82.44 325.526 82.5 323.498 82.5H322.514V81.204ZM322.502 74.892H327.746V79.188H324.134V81.684H322.514V77.928H326.114V76.164H322.502V74.892ZM337.081 74.592H338.473V75.396C338.473 77.808 336.757 79.944 333.877 80.508L333.193 79.188C335.701 78.756 337.081 76.992 337.081 75.396V74.592ZM337.405 74.592H338.785V75.396C338.785 77.028 340.153 78.756 342.673 79.188L341.989 80.508C339.109 79.944 337.405 77.844 337.405 75.396V74.592ZM332.965 82.416H343.021V83.712H332.965V82.416ZM345.132 74.928H352.128V76.2H345.132V74.928ZM344.004 82.452H354.048V83.76H344.004V82.452ZM351.456 74.928H353.028V76.212C353.028 77.832 353.028 79.368 352.512 81.792L350.94 81.648C351.456 79.404 351.456 77.784 351.456 76.212V74.928ZM351.792 77.976V79.152L345 79.488L344.808 78.204L351.792 77.976ZM363.338 75.816H366.17V77.076H363.338V75.816ZM363.338 78.204H366.218V79.464H363.338V78.204ZM365.594 73.968H367.19V82.164H365.594V73.968ZM359.834 83.604H367.43V84.876H359.834V83.604ZM359.834 81.36H361.442V84.336H359.834V81.36ZM358.358 74.688H359.942V76.38H362.054V74.688H363.614V80.424H358.358V74.688ZM359.942 77.592V79.164H362.054V77.592H359.942ZM371.497 80.532H373.093V82.332H371.497V80.532ZM376.165 73.956H377.773V85.068H376.165V73.956ZM377.209 78.468H379.165V79.788H377.209V78.468ZM369.001 83.22L368.809 81.936C370.729 81.936 373.369 81.924 375.613 81.612L375.733 82.764C373.393 83.22 370.873 83.22 369.001 83.22ZM369.013 75.18H375.553V76.428H369.013V75.18ZM372.301 76.872C373.885 76.872 375.013 77.712 375.013 78.948C375.013 80.196 373.885 81.036 372.301 81.036C370.705 81.036 369.589 80.196 369.589 78.948C369.589 77.712 370.705 76.872 372.301 76.872ZM372.301 78.072C371.569 78.072 371.101 78.384 371.101 78.948C371.101 79.524 371.569 79.836 372.301 79.836C373.021 79.836 373.501 79.524 373.501 78.948C373.501 78.384 373.021 78.072 372.301 78.072ZM371.497 74.016H373.093V76.116H371.497V74.016ZM381.192 80.46H382.668V81.552H383.772V80.46H385.248V84.948H381.192V80.46ZM382.668 82.704V83.748H383.772V82.704H382.668ZM386.964 80.376H388.176V81.204C388.176 82.836 387.516 84.42 385.872 85.056L385.092 83.868C386.424 83.316 386.964 82.248 386.964 81.204V80.376ZM387.336 80.376H388.548V81.204C388.548 82.356 389.076 83.412 390.432 83.868L389.64 85.056C387.96 84.456 387.336 82.956 387.336 81.204V80.376ZM385.584 76.332H388.368V77.628H385.584V76.332ZM383.04 74.376C384.708 74.376 385.968 75.456 385.968 76.992C385.968 78.528 384.708 79.62 383.04 79.62C381.36 79.62 380.1 78.528 380.1 76.992C380.1 75.456 381.36 74.376 383.04 74.376ZM383.04 75.684C382.224 75.684 381.624 76.176 381.624 76.992C381.624 77.808 382.224 78.312 383.04 78.312C383.856 78.312 384.444 77.808 384.444 76.992C384.444 76.176 383.856 75.684 383.04 75.684ZM387.672 73.956H389.268V79.836H387.672V73.956ZM396.035 74.16C398.483 74.16 400.055 74.988 400.055 76.332C400.055 77.676 398.483 78.492 396.035 78.492C393.587 78.492 392.015 77.676 392.015 76.332C392.015 74.988 393.587 74.16 396.035 74.16ZM396.035 75.396C394.511 75.396 393.659 75.696 393.659 76.332C393.659 76.956 394.511 77.268 396.035 77.268C397.547 77.268 398.411 76.956 398.411 76.332C398.411 75.696 397.547 75.396 396.035 75.396ZM392.171 81.156H399.851V84.948H392.171V81.156ZM398.291 82.416H393.743V83.688H398.291V82.416ZM391.007 79.128H401.051V80.388H391.007V79.128Z" fill="#374151"/>
<rect x="441" width="135" height="96" rx="8" fill="#F9FAFB"/>
<path fill-rule="evenodd" clip-rule="evenodd" d="M484.336 43.985C485.114 43.207 486.375 43.207 487.153 43.985L494.626 51.4575C495.404 52.2354 495.404 53.4967 494.626 54.2746C493.848 55.0526 492.587 55.0526 491.809 54.2746L484.336 46.8021C483.558 46.0242 483.558 44.7629 484.336 43.985Z" fill="url(#paint7_linear_1088_40505)"/>
<path fill-rule="evenodd" clip-rule="evenodd" d="M494.796 43.985C495.574 43.207 496.835 43.207 497.613 43.985L505.085 51.4575C505.863 52.2354 505.863 53.4967 505.085 54.2746C504.307 55.0526 503.046 55.0526 502.268 54.2746L494.796 46.8021C494.018 46.0242 494.018 44.7629 494.796 43.985Z" fill="url(#paint8_linear_1088_40505)"/>
<path fill-rule="evenodd" clip-rule="evenodd" d="M505.256 43.985C506.034 43.207 507.296 43.207 508.074 43.985L515.546 51.4575C516.324 52.2354 516.324 53.4967 515.546 54.2746C514.768 55.0526 513.507 55.0526 512.729 54.2746L505.256 46.8021C504.479 46.0242 504.479 44.7629 505.256 43.985Z" fill="url(#paint9_linear_1088_40505)"/>
<path fill-rule="evenodd" clip-rule="evenodd" d="M515.717 43.985C516.495 43.207 517.757 43.207 518.535 43.985L526.007 51.4575C526.785 52.2354 526.785 53.4967 526.007 54.2746C525.229 55.0526 523.968 55.0526 523.19 54.2746L515.717 46.8021C514.939 46.0242 514.939 44.7629 515.717 43.985Z" fill="url(#paint10_linear_1088_40505)"/>
<path fill-rule="evenodd" clip-rule="evenodd" d="M508.497 38.7229L508.571 38.7227H510.634H522.181V38.7225H522.181C526.438 38.7225 529.888 35.2721 529.888 31.0159C529.888 26.7596 526.438 23.3092 522.181 23.3092C520.849 23.3092 519.596 23.6472 518.503 24.2422C516.974 20.204 513.071 17.333 508.497 17.333C502.906 17.333 498.316 21.624 497.842 27.0926C497.638 27.0709 497.43 27.0598 497.22 27.0598C493.999 27.0598 491.388 29.6707 491.388 32.8914C491.388 35.9152 493.69 38.4014 496.636 38.6943V38.7227H497.147C497.171 38.723 497.196 38.7231 497.22 38.7231C497.244 38.7231 497.269 38.723 497.293 38.7227H508.183H508.423L508.497 38.7229Z" fill="url(#paint11_linear_1088_40505)"/>
<path fill-rule="evenodd" clip-rule="evenodd" d="M497.209 38.7229L497.283 38.7227H499.346H510.893V38.7225H510.893C515.149 38.7225 518.6 35.2721 518.6 31.0159C518.6 26.7596 515.149 23.3092 510.893 23.3092C509.561 23.3092 508.308 23.6472 507.214 24.2422C505.686 20.204 501.783 17.333 497.209 17.333C491.617 17.333 487.028 21.624 486.554 27.0926C486.35 27.0709 486.142 27.0598 485.932 27.0598C482.711 27.0598 480.1 29.6707 480.1 32.8914C480.1 35.9152 482.401 38.4014 485.348 38.6943V38.7227H485.859C485.883 38.723 485.907 38.7231 485.932 38.7231C485.956 38.7231 485.981 38.723 486.005 38.7227H496.895H497.135L497.209 38.7229Z" fill="url(#paint12_linear_1088_40505)"/>
<path d="M475.14 73.944H476.736V85.092H475.14V73.944ZM468.084 81.204H469.068C471.036 81.204 472.608 81.132 474.372 80.832L474.528 82.116C472.728 82.44 471.096 82.5 469.068 82.5H468.084V81.204ZM468.072 74.892H473.316V79.188H469.704V81.684H468.084V77.928H471.684V76.164H468.072V74.892ZM482.651 74.592H484.043V75.396C484.043 77.808 482.327 79.944 479.447 80.508L478.763 79.188C481.271 78.756 482.651 76.992 482.651 75.396V74.592ZM482.975 74.592H484.355V75.396C484.355 77.028 485.723 78.756 488.243 79.188L487.559 80.508C484.679 79.944 482.975 77.844 482.975 75.396V74.592ZM478.535 82.416H488.591V83.712H478.535V82.416ZM490.702 74.928H497.698V76.2H490.702V74.928ZM489.574 82.452H499.618V83.76H489.574V82.452ZM497.026 74.928H498.598V76.212C498.598 77.832 498.598 79.368 498.082 81.792L496.51 81.648C497.026 79.404 497.026 77.784 497.026 76.212V74.928ZM497.362 77.976V79.152L490.57 79.488L490.378 78.204L497.362 77.976ZM511.716 75.396H513.636V76.704H511.716V75.396ZM511.716 77.808H513.636V79.116H511.716V77.808ZM510.612 73.956H512.208V80.508H510.612V73.956ZM504.792 80.964H512.208V85.068H510.612V82.236H504.792V80.964ZM506.556 74.556C508.272 74.556 509.58 75.696 509.58 77.28C509.58 78.864 508.272 79.992 506.556 79.992C504.84 79.992 503.532 78.864 503.532 77.28C503.532 75.696 504.84 74.556 506.556 74.556ZM506.556 75.912C505.716 75.912 505.092 76.404 505.092 77.28C505.092 78.156 505.716 78.66 506.556 78.66C507.396 78.66 508.02 78.156 508.02 77.28C508.02 76.404 507.396 75.912 506.556 75.912ZM521.64 73.956H523.248V81.912H521.64V73.956ZM522.792 77.052H524.724V78.36H522.792V77.052ZM518.544 74.784H520.248C520.248 77.808 518.4 79.884 515.088 80.844L514.416 79.572C517.14 78.828 518.544 77.34 518.544 75.576V74.784ZM514.896 74.784H519.408V76.068H514.896V74.784ZM516.06 83.604H523.62V84.876H516.06V83.604ZM516.06 81.108H517.668V84.168H516.06V81.108ZM530.834 74.556H532.142V75.54C532.142 77.748 531.182 79.692 529.07 80.424L528.218 79.164C530.078 78.54 530.834 77.052 530.834 75.54V74.556ZM531.158 74.556H532.454V75.696C532.454 77.028 533.198 78.324 534.938 78.864L534.11 80.1C532.106 79.428 531.158 77.7 531.158 75.696V74.556ZM535.55 73.956H537.146V80.52H535.55V73.956ZM536.702 76.524H538.622V77.844H536.702V76.524ZM533.522 80.772C535.826 80.772 537.278 81.576 537.278 82.92C537.278 84.276 535.826 85.068 533.522 85.068C531.206 85.068 529.754 84.276 529.754 82.92C529.754 81.576 531.206 80.772 533.522 80.772ZM533.522 82.008C532.106 82.008 531.338 82.308 531.338 82.92C531.338 83.544 532.106 83.832 533.522 83.832C534.938 83.832 535.694 83.544 535.694 82.92C535.694 82.308 534.938 82.008 533.522 82.008ZM543.649 74.136H545.017V74.472C545.017 76.452 543.373 78.072 540.517 78.468L539.929 77.22C542.425 76.92 543.649 75.636 543.649 74.472V74.136ZM543.913 74.136H545.281V74.472C545.281 75.636 546.505 76.92 548.989 77.22L548.413 78.468C545.557 78.072 543.913 76.44 543.913 74.472V74.136ZM539.437 79.056H549.481V80.316H539.437V79.056ZM544.441 81.048C546.841 81.048 548.293 81.78 548.293 83.064C548.293 84.36 546.841 85.08 544.441 85.08C542.029 85.08 540.577 84.36 540.577 83.064C540.577 81.78 542.029 81.048 544.441 81.048ZM544.441 82.248C542.953 82.248 542.197 82.512 542.197 83.064C542.197 83.628 542.953 83.88 544.441 83.88C545.929 83.88 546.685 83.628 546.685 83.064C546.685 82.512 545.929 82.248 544.441 82.248Z" fill="#374151"/>
<rect x="588" width="135" height="96" rx="8" fill="#F9FAFB"/>
<path fill-rule="evenodd" clip-rule="evenodd" d="M659.563 36.4149C659.594 36.4149 659.626 36.4148 659.657 36.4145H661.735H673.45L673.474 36.4145C677.802 36.4145 681.31 32.9064 681.31 28.5789C681.31 24.2514 677.802 20.7433 673.474 20.7433C672.121 20.7433 670.847 21.0865 669.736 21.6908C668.181 17.5856 664.213 14.667 659.563 14.667C653.878 14.667 649.212 19.0298 648.73 24.5899C648.522 24.5677 648.31 24.5564 648.096 24.5564C644.821 24.5564 642.167 27.211 642.167 30.4857C642.167 33.5601 644.507 36.0881 647.503 36.3857V36.4145H648.023C648.047 36.4148 648.072 36.415 648.096 36.415C648.12 36.415 648.145 36.4148 648.169 36.4145H659.241H659.47C659.49 36.4147 659.509 36.4148 659.528 36.4148C659.54 36.4149 659.552 36.4149 659.563 36.4149Z" fill="url(#paint13_linear_1088_40505)"/>
<path fill-rule="evenodd" clip-rule="evenodd" d="M648.085 36.4149C648.117 36.4149 648.148 36.4148 648.179 36.4145H650.257H661.972L661.996 36.4145C666.324 36.4145 669.832 32.9064 669.832 28.5789C669.832 24.2514 666.324 20.7433 661.996 20.7433C660.643 20.7433 659.369 21.0865 658.258 21.6908C656.704 17.5856 652.735 14.667 648.085 14.667C642.4 14.667 637.734 19.0298 637.253 24.5899C637.044 24.5677 636.832 24.5564 636.618 24.5564C633.343 24.5564 630.689 27.211 630.689 30.4857C630.689 33.5601 633.029 36.0881 636.025 36.3857V36.4145H636.545C636.569 36.4148 636.594 36.415 636.618 36.415C636.643 36.415 636.667 36.4148 636.691 36.4145H647.765H647.992C648.012 36.4147 648.031 36.4148 648.05 36.4148C648.062 36.4149 648.074 36.4149 648.085 36.4149Z" fill="url(#paint14_linear_1088_40505)"/>
<path fill-rule="evenodd" clip-rule="evenodd" d="M647.56 32.9834C646.173 31.5963 644.012 31.5085 642.733 32.7873C641.454 34.066 641.542 36.2272 642.929 37.6143L645.88 40.565C644.761 40.2642 643.561 40.519 642.733 41.3477C641.454 42.6265 641.542 44.7876 642.929 46.1747L650.625 53.8706C652.012 55.2577 654.173 55.3455 655.452 54.0667C656.731 52.788 656.643 50.6269 655.256 49.2397L652.305 46.289C653.424 46.5898 654.623 46.335 655.452 45.5063C656.731 44.2276 656.643 42.0664 655.256 40.6793L647.56 32.9834Z" fill="url(#paint15_linear_1088_40505)"/>
<path fill-rule="evenodd" clip-rule="evenodd" d="M664.099 41.2037C663.087 40.1912 661.445 40.1912 660.433 41.2037C659.42 42.2161 659.42 43.8575 660.433 44.87L662.74 47.1778C661.929 47.0275 661.06 47.266 660.433 47.8935C659.42 48.9059 659.42 50.5474 660.433 51.5598L666.05 57.1768C667.062 58.1893 668.704 58.1893 669.716 57.1768C670.728 56.1644 670.728 54.523 669.716 53.5105L667.408 51.2027C668.219 51.353 669.088 51.1145 669.716 50.487C670.728 49.4746 670.728 47.8331 669.716 46.8207L664.099 41.2037Z" fill="url(#paint16_linear_1088_40505)"/>
<path d="M634.609 73.944H636.205V85.092H634.609V73.944ZM627.553 81.204H628.537C630.505 81.204 632.077 81.132 633.841 80.832L633.997 82.116C632.197 82.44 630.565 82.5 628.537 82.5H627.553V81.204ZM627.541 74.892H632.785V79.188H629.173V81.684H627.553V77.928H631.153V76.164H627.541V74.892ZM642.12 74.592H643.512V75.396C643.512 77.808 641.796 79.944 638.916 80.508L638.232 79.188C640.74 78.756 642.12 76.992 642.12 75.396V74.592ZM642.444 74.592H643.824V75.396C643.824 77.028 645.192 78.756 647.712 79.188L647.028 80.508C644.148 79.944 642.444 77.844 642.444 75.396V74.592ZM638.004 82.416H648.06V83.712H638.004V82.416ZM650.171 74.928H657.167V76.2H650.171V74.928ZM649.043 82.452H659.087V83.76H649.043V82.452ZM656.495 74.928H658.067V76.212C658.067 77.832 658.067 79.368 657.551 81.792L655.979 81.648C656.495 79.404 656.495 77.784 656.495 76.212V74.928ZM656.831 77.976V79.152L650.039 79.488L649.847 78.204L656.831 77.976ZM665.365 74.556H666.673V75.54C666.673 77.748 665.713 79.692 663.601 80.424L662.749 79.164C664.609 78.54 665.365 77.052 665.365 75.54V74.556ZM665.689 74.556H666.985V75.696C666.985 77.028 667.729 78.324 669.469 78.864L668.641 80.1C666.637 79.428 665.689 77.7 665.689 75.696V74.556ZM670.081 73.956H671.677V80.52H670.081V73.956ZM671.233 76.524H673.153V77.844H671.233V76.524ZM668.053 80.772C670.357 80.772 671.809 81.576 671.809 82.92C671.809 84.276 670.357 85.068 668.053 85.068C665.737 85.068 664.285 84.276 664.285 82.92C664.285 81.576 665.737 80.772 668.053 80.772ZM668.053 82.008C666.637 82.008 665.869 82.308 665.869 82.92C665.869 83.544 666.637 83.832 668.053 83.832C669.469 83.832 670.225 83.544 670.225 82.92C670.225 82.308 669.469 82.008 668.053 82.008ZM678.18 74.136H679.548V74.472C679.548 76.452 677.904 78.072 675.048 78.468L674.46 77.22C676.956 76.92 678.18 75.636 678.18 74.472V74.136ZM678.444 74.136H679.812V74.472C679.812 75.636 681.036 76.92 683.52 77.22L682.944 78.468C680.088 78.072 678.444 76.44 678.444 74.472V74.136ZM673.968 79.056H684.012V80.316H673.968V79.056ZM678.972 81.048C681.372 81.048 682.824 81.78 682.824 83.064C682.824 84.36 681.372 85.08 678.972 85.08C676.56 85.08 675.108 84.36 675.108 83.064C675.108 81.78 676.56 81.048 678.972 81.048ZM678.972 82.248C677.484 82.248 676.728 82.512 676.728 83.064C676.728 83.628 677.484 83.88 678.972 83.88C680.46 83.88 681.216 83.628 681.216 83.064C681.216 82.512 680.46 82.248 678.972 82.248Z" fill="#374151"/>
<rect x="735" width="135" height="96" rx="8" fill="#F9FAFB"/>
<path d="M804.421 60.0001C808.365 57.0705 805.107 55.3473 803.735 55.0026L810.252 49.1436C813.682 54.658 810.08 60.0001 804.421 60.0001Z" fill="url(#paint17_linear_1088_40505)"/>
<ellipse cx="7.3257" cy="5.84146" rx="7.3257" ry="5.84146" transform="matrix(0.566552 -0.824026 0.821454 0.570275 795.949 50.8662)" fill="url(#paint18_linear_1088_40505)"/>
<ellipse cx="11.8442" cy="6.02578" rx="11.8442" ry="6.02578" transform="matrix(0.89708 -0.441868 0.438435 0.898763 789.091 42.0332)" fill="url(#paint19_linear_1088_40505)"/>
<ellipse cx="17.6691" cy="8.78605" rx="17.6691" ry="8.78605" transform="matrix(0.968859 -0.247614 0.245374 0.969429 781.307 28.9746)" fill="url(#paint20_linear_1088_40505)"/>
<ellipse cx="23.1552" cy="12.4056" rx="23.1552" ry="12.4056" transform="matrix(0.984067 0.177798 -0.176139 0.984365 784.096 8)" fill="url(#paint21_linear_1088_40505)"/>
<ellipse cx="16.7333" cy="6.50916" rx="16.7333" ry="6.50916" transform="matrix(0.973807 0.227376 -0.225298 0.97429 791.919 9.85352)" fill="url(#paint22_linear_1088_40505)"/>
<path d="M780.737 34.3232C778.679 38.1719 777.822 47.42 798.229 44.3181C787.254 47.5923 770.79 48.9709 780.737 34.3232Z" fill="#8F959C"/>
<path d="M813.337 43.9746C816.767 48.6274 815.944 51.5914 809.907 54.4865C814.194 53.5674 822.769 51.04 813.337 43.9746Z" fill="#8F959C"/>
<path d="M763.62 73.944H765.216V85.092H763.62V73.944ZM756.564 81.204H757.548C759.516 81.204 761.088 81.132 762.852 80.832L763.008 82.116C761.208 82.44 759.576 82.5 757.548 82.5H756.564V81.204ZM756.552 74.892H761.796V79.188H758.184V81.684H756.564V77.928H760.164V76.164H756.552V74.892ZM771.131 74.592H772.523V75.396C772.523 77.808 770.807 79.944 767.927 80.508L767.243 79.188C769.751 78.756 771.131 76.992 771.131 75.396V74.592ZM771.455 74.592H772.835V75.396C772.835 77.028 774.203 78.756 776.723 79.188L776.039 80.508C773.159 79.944 771.455 77.844 771.455 75.396V74.592ZM767.015 82.416H777.071V83.712H767.015V82.416ZM779.183 74.928H786.179V76.2H779.183V74.928ZM778.055 82.452H788.099V83.76H778.055V82.452ZM785.507 74.928H787.079V76.212C787.079 77.832 787.079 79.368 786.563 81.792L784.991 81.648C785.507 79.404 785.507 77.784 785.507 76.212V74.928ZM785.843 77.976V79.152L779.051 79.488L778.859 78.204L785.843 77.976ZM793.141 80.28H794.713V81.444H799.213V80.28H800.797V84.948H793.141V80.28ZM794.713 82.668V83.676H799.213V82.668H794.713ZM793.177 74.4H800.221V75.672H793.177V74.4ZM791.953 78.288H802.009V79.572H791.953V78.288ZM799.261 74.4H800.833V75.288C800.833 76.212 800.833 77.172 800.521 78.564L798.913 78.672C799.261 77.244 799.261 76.224 799.261 75.288V74.4ZM807.204 74.652H808.872C808.872 77.64 807.024 79.668 803.7 80.544L803.1 79.296C805.824 78.588 807.204 77.148 807.204 75.444V74.652ZM803.724 74.652H808.236V75.924H803.724V74.652ZM804.708 81.024H812.28V85.032H810.684V82.272H804.708V81.024ZM810.684 73.956H812.28V80.556H810.684V73.956ZM808.344 75.744H810.948V77.004H808.344V75.744ZM808.236 78.108H810.852V79.38H808.236V78.108ZM821.639 73.956H823.247V85.068H821.639V73.956ZM814.259 75.624H820.835V76.884H814.259V75.624ZM817.559 77.496C819.203 77.496 820.415 78.6 820.415 80.148C820.415 81.696 819.203 82.8 817.559 82.8C815.915 82.8 814.715 81.696 814.715 80.148C814.715 78.6 815.915 77.496 817.559 77.496ZM817.559 78.792C816.791 78.792 816.239 79.296 816.239 80.148C816.239 81 816.791 81.504 817.559 81.504C818.327 81.504 818.879 81 818.879 80.148C818.879 79.296 818.327 78.792 817.559 78.792ZM816.743 74.112H818.351V76.404H816.743V74.112ZM830.354 74.556H831.662V75.54C831.662 77.748 830.702 79.692 828.59 80.424L827.738 79.164C829.598 78.54 830.354 77.052 830.354 75.54V74.556ZM830.678 74.556H831.974V75.696C831.974 77.028 832.718 78.324 834.458 78.864L833.63 80.1C831.626 79.428 830.678 77.7 830.678 75.696V74.556ZM835.07 73.956H836.666V80.52H835.07V73.956ZM836.222 76.524H838.142V77.844H836.222V76.524ZM833.042 80.772C835.346 80.772 836.798 81.576 836.798 82.92C836.798 84.276 835.346 85.068 833.042 85.068C830.726 85.068 829.274 84.276 829.274 82.92C829.274 81.576 830.726 80.772 833.042 80.772ZM833.042 82.008C831.626 82.008 830.858 82.308 830.858 82.92C830.858 83.544 831.626 83.832 833.042 83.832C834.458 83.832 835.214 83.544 835.214 82.92C835.214 82.308 834.458 82.008 833.042 82.008ZM843.169 74.136H844.537V74.472C844.537 76.452 842.893 78.072 840.037 78.468L839.449 77.22C841.945 76.92 843.169 75.636 843.169 74.472V74.136ZM843.433 74.136H844.801V74.472C844.801 75.636 846.025 76.92 848.509 77.22L847.933 78.468C845.077 78.072 843.433 76.44 843.433 74.472V74.136ZM838.957 79.056H849.001V80.316H838.957V79.056ZM843.961 81.048C846.361 81.048 847.813 81.78 847.813 83.064C847.813 84.36 846.361 85.08 843.961 85.08C841.549 85.08 840.097 84.36 840.097 83.064C840.097 81.78 841.549 81.048 843.961 81.048ZM843.961 82.248C842.473 82.248 841.717 82.512 841.717 83.064C841.717 83.628 842.473 83.88 843.961 83.88C845.449 83.88 846.205 83.628 846.205 83.064C846.205 82.512 845.449 82.248 843.961 82.248Z" fill="#374151"/>
<rect x="882" width="135" height="96" rx="8" fill="#F9FAFB"/>
<path d="M933.665 22.8731C933.665 26.3718 936.41 29.2242 939.847 29.3605V29.3656H941.03C944.566 29.3656 947.61 31.8646 948.298 35.3333H953.427C954.115 31.8646 957.159 29.3656 960.695 29.3656H961.998C965.128 29.3656 967.665 26.8076 967.665 23.6522C967.665 20.4967 965.128 17.9387 961.998 17.9387C961.576 17.9387 961.164 17.9853 960.768 18.0738C959.881 13.8426 956.156 10.667 951.695 10.667C947.612 10.667 944.144 13.329 942.907 17.026C942.06 16.6124 941.109 16.3805 940.105 16.3805C936.548 16.3805 933.665 19.2873 933.665 22.8731Z" fill="url(#paint23_linear_1088_40505)"/>
<path d="M942.741 35.4983C943.051 34.753 943.78 34.2676 944.587 34.2676H956.742C957.55 34.2676 958.278 34.753 958.589 35.4983L967.43 56.7185C968.345 58.9141 966.732 61.3339 964.353 61.3339H936.976C934.598 61.3339 932.984 58.9141 933.899 56.7185L942.741 35.4983Z" fill="#101213"/>
<path d="M942.987 33.3318L941.116 38.9528L937.281 45.4738C936.97 46.0028 937.155 46.6794 937.694 46.9848C938.233 47.2902 938.922 47.109 939.233 46.5799L941.488 42.7437C941.907 42.0315 942.812 41.7892 943.564 42.13C944.287 42.4572 944.71 43.2495 944.502 44.0145L942.564 51.1133C942.277 52.1675 942.914 53.251 943.987 53.5335C945.061 53.816 946.165 53.1904 946.452 52.1362L948.27 45.4762C948.57 44.3766 949.627 43.676 950.767 43.676C952.652 43.676 954.467 43.3786 956.164 42.8289C957.845 42.2846 959.779 42.7684 960.707 44.2728L962.106 46.5436C962.428 47.0663 963.121 47.2337 963.653 46.9174C964.185 46.6012 964.356 45.9211 964.034 45.3984L960.838 40.2131L958.557 33.3613C958.287 32.5518 957.348 32.1666 956.572 32.5475L955.115 33.2629C954.724 33.4549 954.264 33.4593 953.869 33.2747L952.801 32.7751C951.517 32.1751 950.024 32.1892 948.753 32.8134L947.837 33.2629C947.446 33.4549 946.986 33.4593 946.591 33.2747L944.948 32.5062C944.174 32.1446 943.254 32.5325 942.987 33.3318Z" fill="url(#paint24_linear_1088_40505)"/>
<path d="M929.609 73.944H931.205V85.092H929.609V73.944ZM922.553 81.204H923.537C925.505 81.204 927.077 81.132 928.841 80.832L928.997 82.116C927.197 82.44 925.565 82.5 923.537 82.5H922.553V81.204ZM922.541 74.892H927.785V79.188H924.173V81.684H922.553V77.928H926.153V76.164H922.541V74.892ZM937.12 74.592H938.512V75.396C938.512 77.808 936.796 79.944 933.916 80.508L933.232 79.188C935.74 78.756 937.12 76.992 937.12 75.396V74.592ZM937.444 74.592H938.824V75.396C938.824 77.028 940.192 78.756 942.712 79.188L942.028 80.508C939.148 79.944 937.444 77.844 937.444 75.396V74.592ZM933.004 82.416H943.06V83.712H933.004V82.416ZM945.171 74.928H952.167V76.2H945.171V74.928ZM944.043 82.452H954.087V83.76H944.043V82.452ZM951.495 74.928H953.067V76.212C953.067 77.832 953.067 79.368 952.551 81.792L950.979 81.648C951.495 79.404 951.495 77.784 951.495 76.212V74.928ZM951.831 77.976V79.152L945.039 79.488L944.847 78.204L951.831 77.976ZM958.805 74.316H967.085V75.588H958.805V74.316ZM958.889 77.388H967.001V78.636H958.889V77.388ZM960.221 74.808H961.817V78.096H960.221V74.808ZM964.073 74.808H965.669V78.096H964.073V74.808ZM957.929 79.584H967.973V80.844H957.929V79.584ZM962.141 78.336H963.737V80.016H962.141V78.336ZM959.045 81.6H966.761V85.068H965.165V82.86H959.045V81.6ZM969.292 74.448H970.876V75.756H973.048V74.448H974.632V79.308H969.292V74.448ZM970.876 76.956V78.06H973.048V76.956H970.876ZM976.12 73.956H977.716V79.596H976.12V73.956ZM977.068 76.092H979.18V77.388H977.068V76.092ZM970.372 80.028H977.716V83.052H971.98V84.372H970.396V81.912H976.144V81.252H970.372V80.028ZM970.396 83.76H978.04V84.996H970.396V83.76Z" fill="#374151"/>
<defs>
<linearGradient id="paint0_linear_1088_40505" x1="68.216" y1="7.83978" x2="85.9227" y2="56.0531" gradientUnits="userSpaceOnUse">
<stop stop-color="#FFF500"/>
<stop offset="1" stop-color="#FCA600"/>
</linearGradient>
<linearGradient id="paint1_linear_1088_40505" x1="234.938" y1="29.5274" x2="219.402" y2="43.0589" gradientUnits="userSpaceOnUse">
<stop stop-color="#C1E6FF"/>
<stop offset="1" stop-color="#40B1FF"/>
</linearGradient>
<linearGradient id="paint2_linear_1088_40505" x1="214.224" y1="19.3377" x2="214.224" y2="38.5488" gradientUnits="userSpaceOnUse">
<stop stop-color="#FFF500"/>
<stop offset="1" stop-color="#FCA600"/>
</linearGradient>
<linearGradient id="paint3_linear_1088_40505" x1="209.379" y1="38.2149" x2="205.704" y2="58.9301" gradientUnits="userSpaceOnUse">
<stop stop-color="#C1E6FF"/>
<stop offset="1" stop-color="#40B1FF"/>
</linearGradient>
<linearGradient id="paint4_linear_1088_40505" x1="346.083" y1="10.9823" x2="354.767" y2="27.9653" gradientUnits="userSpaceOnUse">
<stop stop-color="#EEF7FE"/>
<stop offset="1" stop-color="#C4D0DC"/>
</linearGradient>
<linearGradient id="paint5_linear_1088_40505" x1="362.074" y1="25.4654" x2="364.779" y2="38.4807" gradientUnits="userSpaceOnUse">
<stop stop-color="#EEF7FE"/>
<stop offset="1" stop-color="#C4D0DC"/>
</linearGradient>
<linearGradient id="paint6_linear_1088_40505" x1="352.701" y1="35.1094" x2="352.701" y2="57.1868" gradientUnits="userSpaceOnUse">
<stop stop-color="#EEF7FE"/>
<stop offset="1" stop-color="#C4D0DC"/>
</linearGradient>
<linearGradient id="paint7_linear_1088_40505" x1="485.862" y1="45.2762" x2="493.335" y2="52.7487" gradientUnits="userSpaceOnUse">
<stop stop-color="#7DCAFF"/>
<stop offset="1" stop-color="#0198FF"/>
</linearGradient>
<linearGradient id="paint8_linear_1088_40505" x1="496.322" y1="45.2762" x2="503.794" y2="52.7487" gradientUnits="userSpaceOnUse">
<stop stop-color="#7DCAFF"/>
<stop offset="1" stop-color="#0198FF"/>
</linearGradient>
<linearGradient id="paint9_linear_1088_40505" x1="506.782" y1="45.2762" x2="514.255" y2="52.7487" gradientUnits="userSpaceOnUse">
<stop stop-color="#7DCAFF"/>
<stop offset="1" stop-color="#0198FF"/>
</linearGradient>
<linearGradient id="paint10_linear_1088_40505" x1="517.243" y1="45.2762" x2="524.716" y2="52.7487" gradientUnits="userSpaceOnUse">
<stop stop-color="#7DCAFF"/>
<stop offset="1" stop-color="#0198FF"/>
</linearGradient>
<linearGradient id="paint11_linear_1088_40505" x1="530.897" y1="27.9573" x2="517.285" y2="30.6133" gradientUnits="userSpaceOnUse">
<stop stop-color="#BEC5CB"/>
<stop offset="1" stop-color="#8F959C"/>
</linearGradient>
<linearGradient id="paint12_linear_1088_40505" x1="501.846" y1="15.341" x2="499.356" y2="38.5815" gradientUnits="userSpaceOnUse">
<stop stop-color="#E1E5E9"/>
<stop offset="1" stop-color="#8F959C"/>
</linearGradient>
<linearGradient id="paint13_linear_1088_40505" x1="682.336" y1="25.469" x2="668.496" y2="28.1694" gradientUnits="userSpaceOnUse">
<stop stop-color="#BEC5CB"/>
<stop offset="1" stop-color="#8F959C"/>
</linearGradient>
<linearGradient id="paint14_linear_1088_40505" x1="652.799" y1="12.6416" x2="650.267" y2="36.271" gradientUnits="userSpaceOnUse">
<stop stop-color="#E1E5E9"/>
<stop offset="1" stop-color="#8F959C"/>
</linearGradient>
<linearGradient id="paint15_linear_1088_40505" x1="649.21" y1="33.6311" x2="649.638" y2="56.4087" gradientUnits="userSpaceOnUse">
<stop stop-color="#FAFF00"/>
<stop offset="1" stop-color="#FCA600"/>
</linearGradient>
<linearGradient id="paint16_linear_1088_40505" x1="665.074" y1="40.4443" x2="666.478" y2="57.1715" gradientUnits="userSpaceOnUse">
<stop stop-color="#FAFF00"/>
<stop offset="1" stop-color="#FCA600"/>
</linearGradient>
<linearGradient id="paint17_linear_1088_40505" x1="807.663" y1="49.1436" x2="807.663" y2="60.0001" gradientUnits="userSpaceOnUse">
<stop stop-color="#E1E5E9"/>
<stop offset="1" stop-color="#8F959C"/>
</linearGradient>
<linearGradient id="paint18_linear_1088_40505" x1="7.3257" y1="0" x2="6.87099" y2="12.364" gradientUnits="userSpaceOnUse">
<stop stop-color="#E1E5E9"/>
<stop offset="1" stop-color="#8F959C"/>
</linearGradient>
<linearGradient id="paint19_linear_1088_40505" x1="11.8442" y1="0" x2="11.5447" y2="12.7643" gradientUnits="userSpaceOnUse">
<stop stop-color="#E1E5E9"/>
<stop offset="1" stop-color="#8F959C"/>
</linearGradient>
<linearGradient id="paint20_linear_1088_40505" x1="17.6691" y1="0" x2="17.2423" y2="18.6118" gradientUnits="userSpaceOnUse">
<stop stop-color="#E1E5E9"/>
<stop offset="1" stop-color="#8F959C"/>
</linearGradient>
<linearGradient id="paint21_linear_1088_40505" x1="23.1552" y1="0" x2="22.5059" y2="26.277" gradientUnits="userSpaceOnUse">
<stop stop-color="#E1E5E9"/>
<stop offset="1" stop-color="#8F959C"/>
</linearGradient>
<linearGradient id="paint22_linear_1088_40505" x1="16.7333" y1="8.59367e-08" x2="15.6114" y2="19.763" gradientUnits="userSpaceOnUse">
<stop stop-color="#5D6369"/>
<stop offset="1" stop-color="#8F959C" stop-opacity="0"/>
</linearGradient>
<linearGradient id="paint23_linear_1088_40505" x1="950.639" y1="10.667" x2="950.665" y2="30.3334" gradientUnits="userSpaceOnUse">
<stop stop-color="#8F959C"/>
<stop offset="1" stop-color="#BFC5CB"/>
</linearGradient>
<linearGradient id="paint24_linear_1088_40505" x1="950.663" y1="29.9339" x2="950.663" y2="47.6403" gradientUnits="userSpaceOnUse">
<stop stop-color="#FCFF4F"/>
<stop offset="1" stop-color="#FF5353"/>
</linearGradient>
</defs>
</svg>
