<svg width="238" height="104" viewBox="0 0 238 104" fill="none" xmlns="http://www.w3.org/2000/svg">
<g filter="url(#filter0_d_910_39420)">
<rect x="12" y="12" width="214" height="80" rx="20" fill="white"/>
</g>
<rect x="32" y="32" width="174" height="40" rx="20" fill="#F3F4F6"/>
<path d="M87.648 56.084C87.088 56.084 86.584 55.988 86.136 55.796C85.688 55.596 85.336 55.316 85.08 54.956C84.824 54.596 84.696 54.176 84.696 53.696H86.16C86.192 54.056 86.332 54.352 86.58 54.584C86.836 54.816 87.192 54.932 87.648 54.932C88.12 54.932 88.488 54.82 88.752 54.596C89.016 54.364 89.148 54.068 89.148 53.708C89.148 53.428 89.064 53.2 88.896 53.024C88.736 52.848 88.532 52.712 88.284 52.616C88.044 52.52 87.708 52.416 87.276 52.304C86.732 52.16 86.288 52.016 85.944 51.872C85.608 51.72 85.32 51.488 85.08 51.176C84.84 50.864 84.72 50.448 84.72 49.928C84.72 49.448 84.84 49.028 85.08 48.668C85.32 48.308 85.656 48.032 86.088 47.84C86.52 47.648 87.02 47.552 87.588 47.552C88.396 47.552 89.056 47.756 89.568 48.164C90.088 48.564 90.376 49.116 90.432 49.82H88.92C88.896 49.516 88.752 49.256 88.488 49.04C88.224 48.824 87.876 48.716 87.444 48.716C87.052 48.716 86.732 48.816 86.484 49.016C86.236 49.216 86.112 49.504 86.112 49.88C86.112 50.136 86.188 50.348 86.34 50.516C86.5 50.676 86.7 50.804 86.94 50.9C87.18 50.996 87.508 51.1 87.924 51.212C88.476 51.364 88.924 51.516 89.268 51.668C89.62 51.82 89.916 52.056 90.156 52.376C90.404 52.688 90.528 53.108 90.528 53.636C90.528 54.06 90.412 54.46 90.18 54.836C89.956 55.212 89.624 55.516 89.184 55.748C88.752 55.972 88.24 56.084 87.648 56.084ZM95.5622 49.28C96.0662 49.28 96.5142 49.388 96.9062 49.604C97.3062 49.82 97.6182 50.14 97.8422 50.564C98.0742 50.988 98.1902 51.5 98.1902 52.1V56H96.8342V52.304C96.8342 51.712 96.6862 51.26 96.3902 50.948C96.0942 50.628 95.6902 50.468 95.1782 50.468C94.6662 50.468 94.2582 50.628 93.9542 50.948C93.6582 51.26 93.5102 51.712 93.5102 52.304V56H92.1422V47.12H93.5102V50.156C93.7422 49.876 94.0342 49.66 94.3862 49.508C94.7462 49.356 95.1382 49.28 95.5622 49.28ZM99.4792 52.664C99.4792 52 99.6152 51.412 99.8872 50.9C100.167 50.388 100.543 49.992 101.015 49.712C101.495 49.424 102.023 49.28 102.599 49.28C103.119 49.28 103.571 49.384 103.955 49.592C104.347 49.792 104.659 50.044 104.891 50.348V49.388H106.271V56H104.891V55.016C104.659 55.328 104.343 55.588 103.943 55.796C103.543 56.004 103.087 56.108 102.575 56.108C102.007 56.108 101.487 55.964 101.015 55.676C100.543 55.38 100.167 54.972 99.8872 54.452C99.6152 53.924 99.4792 53.328 99.4792 52.664ZM104.891 52.688C104.891 52.232 104.795 51.836 104.603 51.5C104.419 51.164 104.175 50.908 103.871 50.732C103.567 50.556 103.239 50.468 102.887 50.468C102.535 50.468 102.207 50.556 101.903 50.732C101.599 50.9 101.351 51.152 101.159 51.488C100.975 51.816 100.883 52.208 100.883 52.664C100.883 53.12 100.975 53.52 101.159 53.864C101.351 54.208 101.599 54.472 101.903 54.656C102.215 54.832 102.543 54.92 102.887 54.92C103.239 54.92 103.567 54.832 103.871 54.656C104.175 54.48 104.419 54.224 104.603 53.888C104.795 53.544 104.891 53.144 104.891 52.688ZM109.436 50.348C109.636 50.012 109.9 49.752 110.228 49.568C110.564 49.376 110.96 49.28 111.416 49.28V50.696H111.068C110.532 50.696 110.124 50.832 109.844 51.104C109.572 51.376 109.436 51.848 109.436 52.52V56H108.068V49.388H109.436V50.348ZM114.041 50.36C114.273 50.056 114.589 49.8 114.989 49.592C115.389 49.384 115.841 49.28 116.345 49.28C116.921 49.28 117.445 49.424 117.917 49.712C118.397 49.992 118.773 50.388 119.045 50.9C119.317 51.412 119.453 52 119.453 52.664C119.453 53.328 119.317 53.924 119.045 54.452C118.773 54.972 118.397 55.38 117.917 55.676C117.445 55.964 116.921 56.108 116.345 56.108C115.841 56.108 115.393 56.008 115.001 55.808C114.609 55.6 114.289 55.344 114.041 55.04V59.144H112.673V49.388H114.041V50.36ZM118.061 52.664C118.061 52.208 117.965 51.816 117.773 51.488C117.589 51.152 117.341 50.9 117.029 50.732C116.725 50.556 116.397 50.468 116.045 50.468C115.701 50.468 115.373 50.556 115.061 50.732C114.757 50.908 114.509 51.164 114.317 51.5C114.133 51.836 114.041 52.232 114.041 52.688C114.041 53.144 114.133 53.544 114.317 53.888C114.509 54.224 114.757 54.48 115.061 54.656C115.373 54.832 115.701 54.92 116.045 54.92C116.397 54.92 116.725 54.832 117.029 54.656C117.341 54.472 117.589 54.208 117.773 53.864C117.965 53.52 118.061 53.12 118.061 52.664ZM122.174 47.12V56H120.806V47.12H122.174ZM129.922 49.388L125.866 59.108H124.45L125.794 55.892L123.19 49.388H124.714L126.574 54.428L128.506 49.388H129.922ZM138.98 47.66V48.776H135.44V51.236H138.2V52.352H135.44V56H134.072V47.66H138.98ZM139.792 52.664C139.792 52 139.928 51.412 140.2 50.9C140.48 50.388 140.856 49.992 141.328 49.712C141.808 49.424 142.336 49.28 142.912 49.28C143.432 49.28 143.884 49.384 144.268 49.592C144.66 49.792 144.972 50.044 145.204 50.348V49.388H146.584V56H145.204V55.016C144.972 55.328 144.656 55.588 144.256 55.796C143.856 56.004 143.4 56.108 142.888 56.108C142.32 56.108 141.8 55.964 141.328 55.676C140.856 55.38 140.48 54.972 140.2 54.452C139.928 53.924 139.792 53.328 139.792 52.664ZM145.204 52.688C145.204 52.232 145.108 51.836 144.916 51.5C144.732 51.164 144.488 50.908 144.184 50.732C143.88 50.556 143.552 50.468 143.2 50.468C142.848 50.468 142.52 50.556 142.216 50.732C141.912 50.9 141.664 51.152 141.472 51.488C141.288 51.816 141.196 52.208 141.196 52.664C141.196 53.12 141.288 53.52 141.472 53.864C141.664 54.208 141.912 54.472 142.216 54.656C142.528 54.832 142.856 54.92 143.2 54.92C143.552 54.92 143.88 54.832 144.184 54.656C144.488 54.48 144.732 54.224 144.916 53.888C145.108 53.544 145.204 53.144 145.204 52.688ZM149.748 47.12V56H148.38V47.12H149.748ZM152.913 47.12V56H151.545V47.12H152.913ZM155.405 48.512C155.157 48.512 154.949 48.428 154.781 48.26C154.613 48.092 154.529 47.884 154.529 47.636C154.529 47.388 154.613 47.18 154.781 47.012C154.949 46.844 155.157 46.76 155.405 46.76C155.645 46.76 155.849 46.844 156.017 47.012C156.185 47.18 156.269 47.388 156.269 47.636C156.269 47.884 156.185 48.092 156.017 48.26C155.849 48.428 155.645 48.512 155.405 48.512ZM156.077 49.388V56H154.709V49.388H156.077ZM161.209 49.28C161.729 49.28 162.193 49.388 162.601 49.604C163.017 49.82 163.341 50.14 163.573 50.564C163.805 50.988 163.921 51.5 163.921 52.1V56H162.565V52.304C162.565 51.712 162.417 51.26 162.121 50.948C161.825 50.628 161.421 50.468 160.909 50.468C160.397 50.468 159.989 50.628 159.685 50.948C159.389 51.26 159.241 51.712 159.241 52.304V56H157.873V49.388H159.241V50.144C159.465 49.872 159.749 49.66 160.093 49.508C160.445 49.356 160.817 49.28 161.209 49.28ZM168.33 49.28C168.842 49.28 169.294 49.384 169.686 49.592C170.086 49.792 170.398 50.044 170.622 50.348V49.388H172.002V56.108C172.002 56.716 171.874 57.256 171.618 57.728C171.362 58.208 170.99 58.584 170.502 58.856C170.022 59.128 169.446 59.264 168.774 59.264C167.878 59.264 167.134 59.052 166.542 58.628C165.95 58.212 165.614 57.644 165.534 56.924H166.89C166.994 57.268 167.214 57.544 167.55 57.752C167.894 57.968 168.302 58.076 168.774 58.076C169.326 58.076 169.77 57.908 170.106 57.572C170.45 57.236 170.622 56.748 170.622 56.108V55.004C170.39 55.316 170.074 55.58 169.674 55.796C169.282 56.004 168.834 56.108 168.33 56.108C167.754 56.108 167.226 55.964 166.746 55.676C166.274 55.38 165.898 54.972 165.618 54.452C165.346 53.924 165.21 53.328 165.21 52.664C165.21 52 165.346 51.412 165.618 50.9C165.898 50.388 166.274 49.992 166.746 49.712C167.226 49.424 167.754 49.28 168.33 49.28ZM170.622 52.688C170.622 52.232 170.526 51.836 170.334 51.5C170.15 51.164 169.906 50.908 169.602 50.732C169.298 50.556 168.97 50.468 168.618 50.468C168.266 50.468 167.938 50.556 167.634 50.732C167.33 50.9 167.082 51.152 166.89 51.488C166.706 51.816 166.614 52.208 166.614 52.664C166.614 53.12 166.706 53.52 166.89 53.864C167.082 54.208 167.33 54.472 167.634 54.656C167.946 54.832 168.274 54.92 168.618 54.92C168.97 54.92 169.298 54.832 169.602 54.656C169.906 54.48 170.15 54.224 170.334 53.888C170.526 53.544 170.622 53.144 170.622 52.688Z" fill="#4B5563"/>
<ellipse cx="60.0014" cy="51.9999" rx="11.9467" ry="11.9467" fill="url(#paint0_linear_910_39420)"/>
<defs>
<filter id="filter0_d_910_39420" x="0" y="0" width="238" height="104" filterUnits="userSpaceOnUse" color-interpolation-filters="sRGB">
<feFlood flood-opacity="0" result="BackgroundImageFix"/>
<feColorMatrix in="SourceAlpha" type="matrix" values="0 0 0 0 0 0 0 0 0 0 0 0 0 0 0 0 0 0 127 0" result="hardAlpha"/>
<feOffset/>
<feGaussianBlur stdDeviation="6"/>
<feComposite in2="hardAlpha" operator="out"/>
<feColorMatrix type="matrix" values="0 0 0 0 0.475936 0 0 0 0 0.469306 0 0 0 0 0.516667 0 0 0 0.15 0"/>
<feBlend mode="normal" in2="BackgroundImageFix" result="effect1_dropShadow_910_39420"/>
<feBlend mode="normal" in="SourceGraphic" in2="effect1_dropShadow_910_39420" result="shape"/>
</filter>
<linearGradient id="paint0_linear_910_39420" x1="60.108" y1="37.9199" x2="68.9614" y2="62.0266" gradientUnits="userSpaceOnUse">
<stop stop-color="#FFF500"/>
<stop offset="1" stop-color="#FCA600"/>
</linearGradient>
</defs>
</svg>
