<svg width="359" height="208" viewBox="0 0 359 208" fill="none" xmlns="http://www.w3.org/2000/svg">
<g filter="url(#filter0_d_910_39457)">
<rect x="12" y="12" width="335" height="184" rx="20" fill="white"/>
</g>
<rect x="32" y="32" width="44" height="44" rx="22" fill="#F7931A" fill-opacity="0.1"/>
<path fill-rule="evenodd" clip-rule="evenodd" d="M62.9546 51.4079C63.316 48.9882 61.4738 47.6875 58.9547 46.8198L59.7718 43.5421L57.7761 43.0448L56.9805 46.2362C56.4566 46.1055 55.9179 45.9821 55.3826 45.86L56.1839 42.6476L54.1898 42.1504L53.3721 45.427C52.938 45.3281 52.5118 45.2303 52.0981 45.1275L52.1004 45.1173L49.3489 44.4302L48.8181 46.5612C48.8181 46.5612 50.2984 46.9005 50.2672 46.9215C51.0752 47.1232 51.2218 47.6579 51.1968 48.0819L50.266 51.8159C50.3217 51.8301 50.3939 51.8505 50.4734 51.8824L50.2632 51.8301L48.9579 57.0609C48.859 57.3064 48.6084 57.6746 48.0436 57.5348C48.0635 57.5638 46.5934 57.1728 46.5934 57.1728L45.6029 59.4572L48.1998 60.1045C48.4929 60.1779 48.7824 60.2534 49.0688 60.3281L49.069 60.3282L49.0694 60.3283C49.2548 60.3767 49.4388 60.4247 49.6216 60.4716L48.7959 63.7873L50.7888 64.2846L51.6071 61.0046C52.1509 61.1523 52.6794 61.2887 53.1965 61.4171L52.3816 64.6818L54.3768 65.179L55.2025 61.87C58.6046 62.5139 61.1635 62.2542 62.2392 59.1776C63.1069 56.7 62.1966 55.2709 60.4066 54.3384C61.7101 54.0366 62.6921 53.1791 62.9541 51.4079H62.9546ZM58.3956 57.8002C57.8292 60.0742 54.2691 59.1333 52.6416 58.7032C52.4959 58.6647 52.3657 58.6302 52.2545 58.6026L53.3501 54.2105C53.486 54.2444 53.652 54.2817 53.8401 54.3239L53.8402 54.3239C55.5238 54.7017 58.9743 55.476 58.3962 57.8002H58.3956ZM54.1785 52.2858C55.5365 52.6481 58.4965 53.4378 59.0121 51.3721C59.5393 49.2588 56.661 48.6218 55.2553 48.3107C55.0973 48.2757 54.9579 48.2449 54.844 48.2165L53.8507 52.2C53.9447 52.2234 54.055 52.2529 54.1785 52.2858Z" fill="#F7931A"/>
<path d="M95.44 44.272C96.0693 44.3893 96.5867 44.704 96.992 45.216C97.3973 45.728 97.6 46.3147 97.6 46.976C97.6 47.5733 97.4507 48.1013 97.152 48.56C96.864 49.008 96.4427 49.36 95.888 49.616C95.3333 49.872 94.6773 50 93.92 50H89.104V38.832H93.712C94.4693 38.832 95.12 38.9547 95.664 39.2C96.2187 39.4453 96.6347 39.7867 96.912 40.224C97.2 40.6613 97.344 41.1573 97.344 41.712C97.344 42.3627 97.168 42.9067 96.816 43.344C96.4747 43.7813 96.016 44.0907 95.44 44.272ZM91.344 43.44H93.392C93.9253 43.44 94.336 43.3227 94.624 43.088C94.912 42.8427 95.056 42.496 95.056 42.048C95.056 41.6 94.912 41.2533 94.624 41.008C94.336 40.7627 93.9253 40.64 93.392 40.64H91.344V43.44ZM93.6 48.176C94.144 48.176 94.5653 48.048 94.864 47.792C95.1733 47.536 95.328 47.1733 95.328 46.704C95.328 46.224 95.168 45.8507 94.848 45.584C94.528 45.3067 94.096 45.168 93.552 45.168H91.344V48.176H93.6ZM100.521 40.08C100.127 40.08 99.7959 39.9573 99.5293 39.712C99.2733 39.456 99.1453 39.1413 99.1453 38.768C99.1453 38.3947 99.2733 38.0853 99.5293 37.84C99.7959 37.584 100.127 37.456 100.521 37.456C100.916 37.456 101.241 37.584 101.497 37.84C101.764 38.0853 101.897 38.3947 101.897 38.768C101.897 39.1413 101.764 39.456 101.497 39.712C101.241 39.9573 100.916 40.08 100.521 40.08ZM101.625 41.136V50H99.3853V41.136H101.625ZM106.446 42.976V47.264C106.446 47.5627 106.516 47.7813 106.654 47.92C106.804 48.048 107.049 48.112 107.39 48.112H108.43V50H107.022C105.134 50 104.19 49.0827 104.19 47.248V42.976H103.134V41.136H104.19V38.944H106.446V41.136H108.43V42.976H106.446ZM109.465 45.568C109.465 44.6507 109.652 43.8507 110.026 43.168C110.399 42.4747 110.916 41.9413 111.578 41.568C112.239 41.184 112.996 40.992 113.85 40.992C114.948 40.992 115.855 41.2693 116.57 41.824C117.295 42.368 117.78 43.136 118.026 44.128H115.61C115.482 43.744 115.263 43.4453 114.954 43.232C114.655 43.008 114.282 42.896 113.834 42.896C113.194 42.896 112.687 43.1307 112.314 43.6C111.94 44.0587 111.754 44.7147 111.754 45.568C111.754 46.4107 111.94 47.0667 112.314 47.536C112.687 47.9947 113.194 48.224 113.834 48.224C114.74 48.224 115.332 47.8187 115.61 47.008H118.026C117.78 47.968 117.295 48.7307 116.57 49.296C115.844 49.8613 114.938 50.144 113.85 50.144C112.996 50.144 112.239 49.9573 111.578 49.584C110.916 49.2 110.399 48.6667 110.026 47.984C109.652 47.2907 109.465 46.4853 109.465 45.568ZM123.603 50.144C122.749 50.144 121.981 49.9573 121.299 49.584C120.616 49.2 120.077 48.6613 119.683 47.968C119.299 47.2747 119.107 46.4747 119.107 45.568C119.107 44.6613 119.304 43.8613 119.699 43.168C120.104 42.4747 120.653 41.9413 121.347 41.568C122.04 41.184 122.813 40.992 123.667 40.992C124.52 40.992 125.293 41.184 125.987 41.568C126.68 41.9413 127.224 42.4747 127.619 43.168C128.024 43.8613 128.227 44.6613 128.227 45.568C128.227 46.4747 128.019 47.2747 127.602 47.968C127.197 48.6613 126.643 49.2 125.939 49.584C125.245 49.9573 124.467 50.144 123.603 50.144ZM123.603 48.192C124.008 48.192 124.387 48.096 124.739 47.904C125.101 47.7013 125.389 47.4027 125.603 47.008C125.816 46.6133 125.923 46.1333 125.923 45.568C125.923 44.7253 125.699 44.08 125.251 43.632C124.813 43.1733 124.275 42.944 123.635 42.944C122.995 42.944 122.456 43.1733 122.019 43.632C121.592 44.08 121.379 44.7253 121.379 45.568C121.379 46.4107 121.587 47.0613 122.003 47.52C122.429 47.968 122.963 48.192 123.603 48.192ZM131.006 40.08C130.611 40.08 130.28 39.9573 130.014 39.712C129.758 39.456 129.63 39.1413 129.63 38.768C129.63 38.3947 129.758 38.0853 130.014 37.84C130.28 37.584 130.611 37.456 131.006 37.456C131.4 37.456 131.726 37.584 131.982 37.84C132.248 38.0853 132.382 38.3947 132.382 38.768C132.382 39.1413 132.248 39.456 131.982 39.712C131.726 39.9573 131.4 40.08 131.006 40.08ZM132.11 41.136V50H129.87V41.136H132.11ZM139.235 41.008C140.291 41.008 141.144 41.344 141.795 42.016C142.445 42.6773 142.771 43.6053 142.771 44.8V50H140.531V45.104C140.531 44.4 140.355 43.8613 140.003 43.488C139.651 43.104 139.171 42.912 138.563 42.912C137.944 42.912 137.453 43.104 137.091 43.488C136.739 43.8613 136.563 44.4 136.563 45.104V50H134.323V41.136H136.563V42.24C136.861 41.856 137.24 41.5573 137.699 41.344C138.168 41.12 138.68 41.008 139.235 41.008Z" fill="black"/>
<path d="M93.112 67.692C93.416 67.74 93.692 67.864 93.94 68.064C94.196 68.264 94.396 68.512 94.54 68.808C94.692 69.104 94.768 69.42 94.768 69.756C94.768 70.18 94.66 70.564 94.444 70.908C94.228 71.244 93.912 71.512 93.496 71.712C93.088 71.904 92.604 72 92.044 72H88.924V63.636H91.924C92.492 63.636 92.976 63.732 93.376 63.924C93.776 64.108 94.076 64.36 94.276 64.68C94.476 65 94.576 65.36 94.576 65.76C94.576 66.256 94.44 66.668 94.168 66.996C93.904 67.316 93.552 67.548 93.112 67.692ZM90.016 67.248H91.852C92.364 67.248 92.76 67.128 93.04 66.888C93.32 66.648 93.46 66.316 93.46 65.892C93.46 65.468 93.32 65.136 93.04 64.896C92.76 64.656 92.356 64.536 91.828 64.536H90.016V67.248ZM91.948 71.1C92.492 71.1 92.916 70.972 93.22 70.716C93.524 70.46 93.676 70.104 93.676 69.648C93.676 69.184 93.516 68.82 93.196 68.556C92.876 68.284 92.448 68.148 91.912 68.148H90.016V71.1H91.948ZM101.431 63.636V64.524H99.1514V72H98.0594V64.524H95.7674V63.636H101.431ZM102.368 67.812C102.368 66.996 102.552 66.264 102.92 65.616C103.288 64.96 103.788 64.448 104.42 64.08C105.06 63.712 105.768 63.528 106.544 63.528C107.456 63.528 108.252 63.748 108.932 64.188C109.612 64.628 110.108 65.252 110.42 66.06H109.112C108.88 65.556 108.544 65.168 108.104 64.896C107.672 64.624 107.152 64.488 106.544 64.488C105.96 64.488 105.436 64.624 104.972 64.896C104.508 65.168 104.144 65.556 103.88 66.06C103.616 66.556 103.484 67.14 103.484 67.812C103.484 68.476 103.616 69.06 103.88 69.564C104.144 70.06 104.508 70.444 104.972 70.716C105.436 70.988 105.96 71.124 106.544 71.124C107.152 71.124 107.672 70.992 108.104 70.728C108.544 70.456 108.88 70.068 109.112 69.564H110.42C110.108 70.364 109.612 70.984 108.932 71.424C108.252 71.856 107.456 72.072 106.544 72.072C105.768 72.072 105.06 71.892 104.42 71.532C103.788 71.164 103.288 70.656 102.92 70.008C102.552 69.36 102.368 68.628 102.368 67.812ZM116.605 67.14V68.064H111.817V67.14H116.605ZM119.722 63.636V68.928C119.722 69.672 119.902 70.224 120.262 70.584C120.63 70.944 121.138 71.124 121.786 71.124C122.426 71.124 122.926 70.944 123.286 70.584C123.654 70.224 123.838 69.672 123.838 68.928V63.636H124.93V68.916C124.93 69.612 124.79 70.2 124.51 70.68C124.23 71.152 123.85 71.504 123.37 71.736C122.898 71.968 122.366 72.084 121.774 72.084C121.182 72.084 120.646 71.968 120.166 71.736C119.694 71.504 119.318 71.152 119.038 70.68C118.766 70.2 118.63 69.612 118.63 68.916V63.636H119.722ZM129.404 72.084C128.852 72.084 128.356 71.988 127.916 71.796C127.484 71.596 127.144 71.324 126.896 70.98C126.648 70.628 126.52 70.224 126.512 69.768H127.676C127.716 70.16 127.876 70.492 128.156 70.764C128.444 71.028 128.86 71.16 129.404 71.16C129.924 71.16 130.332 71.032 130.628 70.776C130.932 70.512 131.084 70.176 131.084 69.768C131.084 69.448 130.996 69.188 130.82 68.988C130.644 68.788 130.424 68.636 130.16 68.532C129.896 68.428 129.54 68.316 129.092 68.196C128.54 68.052 128.096 67.908 127.76 67.764C127.432 67.62 127.148 67.396 126.908 67.092C126.676 66.78 126.56 66.364 126.56 65.844C126.56 65.388 126.676 64.984 126.908 64.632C127.14 64.28 127.464 64.008 127.88 63.816C128.304 63.624 128.788 63.528 129.332 63.528C130.116 63.528 130.756 63.724 131.252 64.116C131.756 64.508 132.04 65.028 132.104 65.676H130.904C130.864 65.356 130.696 65.076 130.4 64.836C130.104 64.588 129.712 64.464 129.224 64.464C128.768 64.464 128.396 64.584 128.108 64.824C127.82 65.056 127.676 65.384 127.676 65.808C127.676 66.112 127.76 66.36 127.928 66.552C128.104 66.744 128.316 66.892 128.564 66.996C128.82 67.092 129.176 67.204 129.632 67.332C130.184 67.484 130.628 67.636 130.964 67.788C131.3 67.932 131.588 68.16 131.828 68.472C132.068 68.776 132.188 69.192 132.188 69.72C132.188 70.128 132.08 70.512 131.864 70.872C131.648 71.232 131.328 71.524 130.904 71.748C130.48 71.972 129.98 72.084 129.404 72.084ZM136.399 63.636C137.311 63.636 138.099 63.808 138.763 64.152C139.435 64.488 139.947 64.972 140.299 65.604C140.659 66.236 140.839 66.98 140.839 67.836C140.839 68.692 140.659 69.436 140.299 70.068C139.947 70.692 139.435 71.172 138.763 71.508C138.099 71.836 137.311 72 136.399 72H133.795V63.636H136.399ZM136.399 71.1C137.479 71.1 138.303 70.816 138.871 70.248C139.439 69.672 139.723 68.868 139.723 67.836C139.723 66.796 139.435 65.984 138.859 65.4C138.291 64.816 137.471 64.524 136.399 64.524H134.887V71.1H136.399Z" fill="#6B7280"/>
<rect x="274" y="32" width="53" height="24" rx="12" fill="#FFE4D9"/>
<path d="M293.776 39.624V48H292.096V44.436H288.508V48H286.828V39.624H288.508V43.068H292.096V39.624H293.776ZM296.282 40.56C295.986 40.56 295.738 40.468 295.538 40.284C295.346 40.092 295.25 39.856 295.25 39.576C295.25 39.296 295.346 39.064 295.538 38.88C295.738 38.688 295.986 38.592 296.282 38.592C296.578 38.592 296.822 38.688 297.014 38.88C297.214 39.064 297.314 39.296 297.314 39.576C297.314 39.856 297.214 40.092 297.014 40.284C296.822 40.468 296.578 40.56 296.282 40.56ZM297.11 41.352V48H295.43V41.352H297.11ZM301.373 41.244C301.869 41.244 302.305 41.344 302.681 41.544C303.057 41.736 303.353 41.988 303.569 42.3V41.352H305.261V48.048C305.261 48.664 305.137 49.212 304.889 49.692C304.641 50.18 304.269 50.564 303.773 50.844C303.277 51.132 302.677 51.276 301.973 51.276C301.029 51.276 300.253 51.056 299.645 50.616C299.045 50.176 298.705 49.576 298.625 48.816H300.293C300.381 49.12 300.569 49.36 300.857 49.536C301.153 49.72 301.509 49.812 301.925 49.812C302.413 49.812 302.809 49.664 303.113 49.368C303.417 49.08 303.569 48.64 303.569 48.048V47.016C303.353 47.328 303.053 47.588 302.669 47.796C302.293 48.004 301.861 48.108 301.373 48.108C300.813 48.108 300.301 47.964 299.837 47.676C299.373 47.388 299.005 46.984 298.733 46.464C298.469 45.936 298.337 45.332 298.337 44.652C298.337 43.98 298.469 43.384 298.733 42.864C299.005 42.344 299.369 41.944 299.825 41.664C300.289 41.384 300.805 41.244 301.373 41.244ZM303.569 44.676C303.569 44.268 303.489 43.92 303.329 43.632C303.169 43.336 302.953 43.112 302.681 42.96C302.409 42.8 302.117 42.72 301.805 42.72C301.493 42.72 301.205 42.796 300.941 42.948C300.677 43.1 300.461 43.324 300.293 43.62C300.133 43.908 300.053 44.252 300.053 44.652C300.053 45.052 300.133 45.404 300.293 45.708C300.461 46.004 300.677 46.232 300.941 46.392C301.213 46.552 301.501 46.632 301.805 46.632C302.117 46.632 302.409 46.556 302.681 46.404C302.953 46.244 303.169 46.02 303.329 45.732C303.489 45.436 303.569 45.084 303.569 44.676ZM310.646 41.256C311.15 41.256 311.598 41.368 311.99 41.592C312.382 41.808 312.686 42.132 312.902 42.564C313.126 42.988 313.238 43.5 313.238 44.1V48H311.558V44.328C311.558 43.8 311.426 43.396 311.162 43.116C310.898 42.828 310.538 42.684 310.082 42.684C309.618 42.684 309.25 42.828 308.978 43.116C308.714 43.396 308.582 43.8 308.582 44.328V48H306.902V39.12H308.582V42.18C308.798 41.892 309.086 41.668 309.446 41.508C309.806 41.34 310.206 41.256 310.646 41.256Z" fill="#FF4D00"/>
<path d="M41.684 103.66V112H40.316V106.288L37.772 112H36.824L34.268 106.288V112H32.9V103.66H34.376L37.304 110.2L40.22 103.66H41.684ZM43.026 108.664C43.026 108 43.162 107.412 43.434 106.9C43.714 106.388 44.09 105.992 44.562 105.712C45.042 105.424 45.57 105.28 46.146 105.28C46.666 105.28 47.118 105.384 47.502 105.592C47.894 105.792 48.206 106.044 48.438 106.348V105.388H49.818V112H48.438V111.016C48.206 111.328 47.89 111.588 47.49 111.796C47.09 112.004 46.634 112.108 46.122 112.108C45.554 112.108 45.034 111.964 44.562 111.676C44.09 111.38 43.714 110.972 43.434 110.452C43.162 109.924 43.026 109.328 43.026 108.664ZM48.438 108.688C48.438 108.232 48.342 107.836 48.15 107.5C47.966 107.164 47.722 106.908 47.418 106.732C47.114 106.556 46.786 106.468 46.434 106.468C46.082 106.468 45.754 106.556 45.45 106.732C45.146 106.9 44.898 107.152 44.706 107.488C44.522 107.816 44.43 108.208 44.43 108.664C44.43 109.12 44.522 109.52 44.706 109.864C44.898 110.208 45.146 110.472 45.45 110.656C45.762 110.832 46.09 110.92 46.434 110.92C46.786 110.92 47.114 110.832 47.418 110.656C47.722 110.48 47.966 110.224 48.15 109.888C48.342 109.544 48.438 109.144 48.438 108.688ZM54.4468 108.652L56.5828 112H55.0348L53.6068 109.756L52.2628 112H50.8348L52.9708 108.748L50.8348 105.388H52.3828L53.8108 107.632L55.1548 105.388H56.5828L54.4468 108.652ZM58.2991 104.512C58.0511 104.512 57.8431 104.428 57.6751 104.26C57.5071 104.092 57.4231 103.884 57.4231 103.636C57.4231 103.388 57.5071 103.18 57.6751 103.012C57.8431 102.844 58.0511 102.76 58.2991 102.76C58.5391 102.76 58.7431 102.844 58.9111 103.012C59.0791 103.18 59.1631 103.388 59.1631 103.636C59.1631 103.884 59.0791 104.092 58.9111 104.26C58.7431 104.428 58.5391 104.512 58.2991 104.512ZM58.9711 105.388V112H57.6031V105.388H58.9711ZM68.7712 105.28C69.2912 105.28 69.7552 105.388 70.1632 105.604C70.5792 105.82 70.9032 106.14 71.1352 106.564C71.3752 106.988 71.4952 107.5 71.4952 108.1V112H70.1392V108.304C70.1392 107.712 69.9912 107.26 69.6952 106.948C69.3992 106.628 68.9952 106.468 68.4832 106.468C67.9712 106.468 67.5632 106.628 67.2592 106.948C66.9632 107.26 66.8152 107.712 66.8152 108.304V112H65.4592V108.304C65.4592 107.712 65.3112 107.26 65.0152 106.948C64.7192 106.628 64.3152 106.468 63.8032 106.468C63.2912 106.468 62.8832 106.628 62.5792 106.948C62.2832 107.26 62.1352 107.712 62.1352 108.304V112H60.7672V105.388H62.1352V106.144C62.3592 105.872 62.6432 105.66 62.9872 105.508C63.3312 105.356 63.6992 105.28 64.0912 105.28C64.6192 105.28 65.0912 105.392 65.5072 105.616C65.9232 105.84 66.2432 106.164 66.4672 106.588C66.6672 106.188 66.9792 105.872 67.4032 105.64C67.8272 105.4 68.2832 105.28 68.7712 105.28ZM79.2239 105.388V112H77.8559V111.22C77.6399 111.492 77.3559 111.708 77.0039 111.868C76.6599 112.02 76.2919 112.096 75.8999 112.096C75.3799 112.096 74.9119 111.988 74.4959 111.772C74.0879 111.556 73.7639 111.236 73.5239 110.812C73.2919 110.388 73.1759 109.876 73.1759 109.276V105.388H74.5319V109.072C74.5319 109.664 74.6799 110.12 74.9759 110.44C75.2719 110.752 75.6759 110.908 76.1879 110.908C76.6999 110.908 77.1039 110.752 77.3999 110.44C77.7039 110.12 77.8559 109.664 77.8559 109.072V105.388H79.2239ZM89.0329 105.28C89.5529 105.28 90.0169 105.388 90.4249 105.604C90.8409 105.82 91.1649 106.14 91.3969 106.564C91.6369 106.988 91.7569 107.5 91.7569 108.1V112H90.4009V108.304C90.4009 107.712 90.2529 107.26 89.9569 106.948C89.6609 106.628 89.2569 106.468 88.7449 106.468C88.2329 106.468 87.8249 106.628 87.5209 106.948C87.2249 107.26 87.0769 107.712 87.0769 108.304V112H85.7209V108.304C85.7209 107.712 85.5729 107.26 85.2769 106.948C84.9809 106.628 84.5769 106.468 84.0649 106.468C83.5529 106.468 83.1449 106.628 82.8409 106.948C82.5449 107.26 82.3969 107.712 82.3969 108.304V112H81.0289V105.388H82.3969V106.144C82.6209 105.872 82.9049 105.66 83.2489 105.508C83.5929 105.356 83.9609 105.28 84.3529 105.28C84.8809 105.28 85.3529 105.392 85.7689 105.616C86.1849 105.84 86.5049 106.164 86.7289 106.588C86.9289 106.188 87.2409 105.872 87.6649 105.64C88.0889 105.4 88.5449 105.28 89.0329 105.28ZM97.9828 103.12V112H96.6148V103.12H97.9828ZM102.647 112.108C102.023 112.108 101.459 111.968 100.955 111.688C100.451 111.4 100.055 111 99.7669 110.488C99.4789 109.968 99.3349 109.368 99.3349 108.688C99.3349 108.016 99.4829 107.42 99.7789 106.9C100.075 106.38 100.479 105.98 100.991 105.7C101.503 105.42 102.075 105.28 102.707 105.28C103.339 105.28 103.911 105.42 104.423 105.7C104.935 105.98 105.339 106.38 105.635 106.9C105.931 107.42 106.079 108.016 106.079 108.688C106.079 109.36 105.927 109.956 105.623 110.476C105.319 110.996 104.903 111.4 104.375 111.688C103.855 111.968 103.279 112.108 102.647 112.108ZM102.647 110.92C102.999 110.92 103.327 110.836 103.631 110.668C103.943 110.5 104.195 110.248 104.387 109.912C104.579 109.576 104.675 109.168 104.675 108.688C104.675 108.208 104.583 107.804 104.399 107.476C104.215 107.14 103.971 106.888 103.667 106.72C103.363 106.552 103.035 106.468 102.683 106.468C102.331 106.468 102.003 106.552 101.699 106.72C101.403 106.888 101.167 107.14 100.991 107.476C100.815 107.804 100.727 108.208 100.727 108.688C100.727 109.4 100.907 109.952 101.267 110.344C101.635 110.728 102.095 110.92 102.647 110.92ZM109.831 112.108C109.311 112.108 108.843 112.016 108.427 111.832C108.019 111.64 107.695 111.384 107.455 111.064C107.215 110.736 107.087 110.372 107.071 109.972H108.487C108.511 110.252 108.643 110.488 108.883 110.68C109.131 110.864 109.439 110.956 109.807 110.956C110.191 110.956 110.487 110.884 110.695 110.74C110.911 110.588 111.019 110.396 111.019 110.164C111.019 109.916 110.899 109.732 110.659 109.612C110.427 109.492 110.055 109.36 109.543 109.216C109.047 109.08 108.643 108.948 108.331 108.82C108.019 108.692 107.747 108.496 107.515 108.232C107.291 107.968 107.179 107.62 107.179 107.188C107.179 106.836 107.283 106.516 107.491 106.228C107.699 105.932 107.995 105.7 108.379 105.532C108.771 105.364 109.219 105.28 109.723 105.28C110.475 105.28 111.079 105.472 111.535 105.856C111.999 106.232 112.247 106.748 112.279 107.404H110.911C110.887 107.108 110.767 106.872 110.551 106.696C110.335 106.52 110.043 106.432 109.675 106.432C109.315 106.432 109.039 106.5 108.847 106.636C108.655 106.772 108.559 106.952 108.559 107.176C108.559 107.352 108.623 107.5 108.751 107.62C108.879 107.74 109.035 107.836 109.219 107.908C109.403 107.972 109.675 108.056 110.035 108.16C110.515 108.288 110.907 108.42 111.211 108.556C111.523 108.684 111.791 108.876 112.015 109.132C112.239 109.388 112.355 109.728 112.363 110.152C112.363 110.528 112.259 110.864 112.051 111.16C111.843 111.456 111.547 111.688 111.163 111.856C110.787 112.024 110.343 112.108 109.831 112.108ZM116.241 112.108C115.721 112.108 115.253 112.016 114.837 111.832C114.429 111.64 114.105 111.384 113.865 111.064C113.625 110.736 113.497 110.372 113.481 109.972H114.897C114.921 110.252 115.053 110.488 115.293 110.68C115.541 110.864 115.849 110.956 116.217 110.956C116.601 110.956 116.897 110.884 117.105 110.74C117.321 110.588 117.429 110.396 117.429 110.164C117.429 109.916 117.309 109.732 117.069 109.612C116.837 109.492 116.465 109.36 115.953 109.216C115.457 109.08 115.053 108.948 114.741 108.82C114.429 108.692 114.157 108.496 113.925 108.232C113.701 107.968 113.589 107.62 113.589 107.188C113.589 106.836 113.693 106.516 113.901 106.228C114.109 105.932 114.405 105.7 114.789 105.532C115.181 105.364 115.629 105.28 116.133 105.28C116.885 105.28 117.489 105.472 117.945 105.856C118.409 106.232 118.657 106.748 118.689 107.404H117.321C117.297 107.108 117.177 106.872 116.961 106.696C116.745 106.52 116.453 106.432 116.085 106.432C115.725 106.432 115.449 106.5 115.257 106.636C115.065 106.772 114.969 106.952 114.969 107.176C114.969 107.352 115.033 107.5 115.161 107.62C115.289 107.74 115.445 107.836 115.629 107.908C115.813 107.972 116.085 108.056 116.445 108.16C116.925 108.288 117.317 108.42 117.621 108.556C117.933 108.684 118.201 108.876 118.425 109.132C118.649 109.388 118.765 109.728 118.773 110.152C118.773 110.528 118.669 110.864 118.461 111.16C118.253 111.456 117.957 111.688 117.573 111.856C117.197 112.024 116.753 112.108 116.241 112.108Z" fill="#9CA3AF"/>
<path d="M278.014 107.344V109.232H271.23V107.344H278.014ZM282.222 107.824C281.155 107.269 280.622 106.411 280.622 105.248C280.622 104.672 280.766 104.149 281.054 103.68C281.353 103.2 281.795 102.821 282.382 102.544C282.979 102.256 283.705 102.112 284.558 102.112C285.411 102.112 286.131 102.256 286.718 102.544C287.315 102.821 287.758 103.2 288.046 103.68C288.345 104.149 288.494 104.672 288.494 105.248C288.494 105.835 288.35 106.352 288.062 106.8C287.774 107.237 287.39 107.579 286.91 107.824C287.497 108.08 287.955 108.453 288.286 108.944C288.617 109.435 288.782 110.016 288.782 110.688C288.782 111.413 288.595 112.048 288.222 112.592C287.859 113.125 287.358 113.536 286.718 113.824C286.078 114.112 285.358 114.256 284.558 114.256C283.758 114.256 283.038 114.112 282.398 113.824C281.769 113.536 281.267 113.125 280.894 112.592C280.531 112.048 280.35 111.413 280.35 110.688C280.35 110.016 280.515 109.435 280.846 108.944C281.177 108.443 281.635 108.069 282.222 107.824ZM286.318 105.568C286.318 105.045 286.158 104.64 285.838 104.352C285.529 104.064 285.102 103.92 284.558 103.92C284.025 103.92 283.598 104.064 283.278 104.352C282.969 104.64 282.814 105.051 282.814 105.584C282.814 106.064 282.974 106.448 283.294 106.736C283.625 107.024 284.046 107.168 284.558 107.168C285.07 107.168 285.491 107.024 285.822 106.736C286.153 106.437 286.318 106.048 286.318 105.568ZM284.558 108.8C283.95 108.8 283.454 108.955 283.07 109.264C282.697 109.573 282.51 110.016 282.51 110.592C282.51 111.125 282.691 111.563 283.054 111.904C283.427 112.235 283.929 112.4 284.558 112.4C285.187 112.4 285.683 112.229 286.046 111.888C286.409 111.547 286.59 111.115 286.59 110.592C286.59 110.027 286.403 109.589 286.03 109.28C285.657 108.96 285.166 108.8 284.558 108.8ZM298.391 104.272H293.207V107.008C293.431 106.731 293.751 106.507 294.167 106.336C294.583 106.155 295.026 106.064 295.495 106.064C296.348 106.064 297.047 106.251 297.591 106.624C298.135 106.997 298.53 107.477 298.775 108.064C299.02 108.64 299.143 109.259 299.143 109.92C299.143 111.147 298.791 112.133 298.087 112.88C297.394 113.627 296.402 114 295.111 114C293.895 114 292.924 113.696 292.199 113.088C291.474 112.48 291.063 111.685 290.967 110.704H293.143C293.239 111.131 293.452 111.472 293.783 111.728C294.124 111.984 294.556 112.112 295.079 112.112C295.708 112.112 296.183 111.915 296.503 111.52C296.823 111.125 296.983 110.603 296.983 109.952C296.983 109.291 296.818 108.789 296.487 108.448C296.167 108.096 295.692 107.92 295.063 107.92C294.615 107.92 294.242 108.032 293.943 108.256C293.644 108.48 293.431 108.779 293.303 109.152H291.159V102.304H298.391V104.272ZM302.096 114.112C301.691 114.112 301.355 113.989 301.088 113.744C300.832 113.488 300.704 113.173 300.704 112.8C300.704 112.427 300.832 112.117 301.088 111.872C301.355 111.616 301.691 111.488 302.096 111.488C302.491 111.488 302.816 111.616 303.072 111.872C303.328 112.117 303.456 112.427 303.456 112.8C303.456 113.173 303.328 113.488 303.072 113.744C302.816 113.989 302.491 114.112 302.096 114.112ZM305.036 105.408C305.09 104.341 305.463 103.52 306.156 102.944C306.86 102.357 307.783 102.064 308.924 102.064C309.703 102.064 310.37 102.203 310.924 102.48C311.479 102.747 311.895 103.115 312.172 103.584C312.46 104.043 312.604 104.565 312.604 105.152C312.604 105.824 312.428 106.395 312.076 106.864C311.735 107.323 311.324 107.632 310.844 107.792V107.856C311.463 108.048 311.943 108.389 312.284 108.88C312.636 109.371 312.812 110 312.812 110.768C312.812 111.408 312.663 111.979 312.364 112.48C312.076 112.981 311.644 113.376 311.068 113.664C310.503 113.941 309.82 114.08 309.02 114.08C307.815 114.08 306.834 113.776 306.076 113.168C305.319 112.56 304.919 111.664 304.876 110.48H307.052C307.074 111.003 307.25 111.424 307.58 111.744C307.922 112.053 308.386 112.208 308.972 112.208C309.516 112.208 309.932 112.059 310.22 111.76C310.519 111.451 310.668 111.056 310.668 110.576C310.668 109.936 310.466 109.477 310.06 109.2C309.655 108.923 309.026 108.784 308.172 108.784H307.708V106.944H308.172C309.687 106.944 310.444 106.437 310.444 105.424C310.444 104.965 310.306 104.608 310.028 104.352C309.762 104.096 309.372 103.968 308.86 103.968C308.359 103.968 307.97 104.107 307.692 104.384C307.426 104.651 307.271 104.992 307.228 105.408H305.036ZM314.326 105.2C314.326 104.389 314.561 103.755 315.03 103.296C315.51 102.837 316.124 102.608 316.87 102.608C317.617 102.608 318.225 102.837 318.694 103.296C319.174 103.755 319.414 104.389 319.414 105.2C319.414 106.021 319.174 106.661 318.694 107.12C318.225 107.579 317.617 107.808 316.87 107.808C316.124 107.808 315.51 107.579 315.03 107.12C314.561 106.661 314.326 106.021 314.326 105.2ZM324.598 102.8L318.31 114H316.134L322.406 102.8H324.598ZM316.854 103.952C316.268 103.952 315.974 104.368 315.974 105.2C315.974 106.043 316.268 106.464 316.854 106.464C317.142 106.464 317.366 106.363 317.526 106.16C317.686 105.947 317.766 105.627 317.766 105.2C317.766 104.368 317.462 103.952 316.854 103.952ZM321.35 111.584C321.35 110.763 321.585 110.128 322.054 109.68C322.534 109.221 323.148 108.992 323.894 108.992C324.641 108.992 325.244 109.221 325.702 109.68C326.172 110.128 326.406 110.763 326.406 111.584C326.406 112.405 326.172 113.045 325.702 113.504C325.244 113.963 324.641 114.192 323.894 114.192C323.137 114.192 322.524 113.963 322.054 113.504C321.585 113.045 321.35 112.405 321.35 111.584ZM323.878 110.336C323.27 110.336 322.966 110.752 322.966 111.584C322.966 112.427 323.27 112.848 323.878 112.848C324.476 112.848 324.774 112.427 324.774 111.584C324.774 110.752 324.476 110.336 323.878 110.336Z" fill="#DF1525"/>
<rect x="32" y="136" width="295" height="40" rx="20" fill="#F3F4F6"/>
<path d="M52.8118 148.616C52.8118 150.584 54.3558 152.188 56.289 152.265V152.268H56.9544C58.9435 152.268 60.6554 153.674 61.0425 155.625H63.9278C64.3148 153.674 66.0267 152.268 68.0159 152.268H68.7491C70.5095 152.268 71.9365 150.829 71.9365 149.054C71.9365 147.279 70.5095 145.84 68.7491 145.84C68.5113 145.84 68.2797 145.867 68.0568 145.916C67.558 143.536 65.4627 141.75 62.9537 141.75C60.6565 141.75 58.7061 143.247 58.0104 145.327C57.5338 145.094 56.999 144.964 56.4339 144.964C54.4335 144.964 52.8118 146.599 52.8118 148.616Z" fill="url(#paint0_linear_910_39457)"/>
<path d="M57.9168 155.717C58.0915 155.297 58.5011 155.024 58.9552 155.024H65.7926C66.2468 155.024 66.6564 155.297 66.8311 155.717L71.8046 167.653C72.3192 168.888 71.4118 170.249 70.0738 170.249H54.674C53.3361 170.249 52.4287 168.888 52.9433 167.653L57.9168 155.717Z" fill="#101213"/>
<path d="M58.0555 154.498L57.0027 157.66L54.8458 161.328C54.6708 161.626 54.7747 162.006 55.0777 162.178C55.3808 162.35 55.7684 162.248 55.9434 161.95L57.2123 159.792C57.4478 159.392 57.9565 159.256 58.3798 159.447C58.7862 159.631 59.0246 160.077 58.9071 160.507L57.8174 164.5C57.6556 165.093 58.014 165.703 58.6179 165.862C59.2218 166.021 59.8426 165.669 60.0044 165.076L61.0268 161.329C61.1956 160.711 61.7904 160.317 62.4316 160.317C63.4919 160.317 64.5124 160.15 65.4673 159.84C66.4129 159.534 67.501 159.806 68.0225 160.653L68.8096 161.93C68.9908 162.224 69.3804 162.318 69.6798 162.14C69.9793 161.962 70.0751 161.58 69.894 161.286L68.0965 158.369L66.8133 154.515C66.6616 154.059 66.1332 153.843 65.6968 154.057L64.8771 154.459C64.6571 154.567 64.3986 154.57 64.1764 154.466L63.5755 154.185C62.8536 153.848 62.0135 153.856 61.2984 154.207L60.7833 154.459C60.5633 154.567 60.3048 154.57 60.0826 154.466L59.1581 154.034C58.7231 153.83 58.2052 154.049 58.0555 154.498Z" fill="url(#paint1_linear_910_39457)"/>
<path d="M218.31 160L216.39 156.664H215.346V160H213.978V151.66H216.858C217.498 151.66 218.038 151.772 218.478 151.996C218.926 152.22 219.258 152.52 219.474 152.896C219.698 153.272 219.81 153.692 219.81 154.156C219.81 154.7 219.65 155.196 219.33 155.644C219.018 156.084 218.534 156.384 217.878 156.544L219.942 160H218.31ZM215.346 155.572H216.858C217.37 155.572 217.754 155.444 218.01 155.188C218.274 154.932 218.406 154.588 218.406 154.156C218.406 153.724 218.278 153.388 218.022 153.148C217.766 152.9 217.378 152.776 216.858 152.776H215.346V155.572ZM222.256 152.512C222.008 152.512 221.8 152.428 221.632 152.26C221.464 152.092 221.38 151.884 221.38 151.636C221.38 151.388 221.464 151.18 221.632 151.012C221.8 150.844 222.008 150.76 222.256 150.76C222.496 150.76 222.7 150.844 222.868 151.012C223.036 151.18 223.12 151.388 223.12 151.636C223.12 151.884 223.036 152.092 222.868 152.26C222.7 152.428 222.496 152.512 222.256 152.512ZM222.928 153.388V160H221.56V153.388H222.928ZM227.124 160.108C226.604 160.108 226.136 160.016 225.72 159.832C225.312 159.64 224.988 159.384 224.748 159.064C224.508 158.736 224.38 158.372 224.364 157.972H225.78C225.804 158.252 225.936 158.488 226.176 158.68C226.424 158.864 226.732 158.956 227.1 158.956C227.484 158.956 227.78 158.884 227.988 158.74C228.204 158.588 228.312 158.396 228.312 158.164C228.312 157.916 228.192 157.732 227.952 157.612C227.72 157.492 227.348 157.36 226.836 157.216C226.34 157.08 225.936 156.948 225.624 156.82C225.312 156.692 225.04 156.496 224.808 156.232C224.584 155.968 224.472 155.62 224.472 155.188C224.472 154.836 224.576 154.516 224.784 154.228C224.992 153.932 225.288 153.7 225.672 153.532C226.064 153.364 226.512 153.28 227.016 153.28C227.768 153.28 228.372 153.472 228.828 153.856C229.292 154.232 229.54 154.748 229.572 155.404H228.204C228.18 155.108 228.06 154.872 227.844 154.696C227.628 154.52 227.336 154.432 226.968 154.432C226.608 154.432 226.332 154.5 226.14 154.636C225.948 154.772 225.852 154.952 225.852 155.176C225.852 155.352 225.916 155.5 226.044 155.62C226.172 155.74 226.328 155.836 226.512 155.908C226.696 155.972 226.968 156.056 227.328 156.16C227.808 156.288 228.2 156.42 228.504 156.556C228.816 156.684 229.084 156.876 229.308 157.132C229.532 157.388 229.648 157.728 229.656 158.152C229.656 158.528 229.552 158.864 229.344 159.16C229.136 159.456 228.84 159.688 228.456 159.856C228.08 160.024 227.636 160.108 227.124 160.108ZM233.75 156.7L236.798 160H234.95L232.502 157.156V160H231.134V151.12H232.502V156.28L234.902 153.388H236.798L233.75 156.7ZM243.764 160.108C243.14 160.108 242.576 159.968 242.072 159.688C241.568 159.4 241.172 159 240.884 158.488C240.596 157.968 240.452 157.368 240.452 156.688C240.452 156.016 240.6 155.42 240.896 154.9C241.192 154.38 241.596 153.98 242.108 153.7C242.62 153.42 243.192 153.28 243.824 153.28C244.456 153.28 245.028 153.42 245.54 153.7C246.052 153.98 246.456 154.38 246.752 154.9C247.048 155.42 247.196 156.016 247.196 156.688C247.196 157.36 247.044 157.956 246.74 158.476C246.436 158.996 246.02 159.4 245.492 159.688C244.972 159.968 244.396 160.108 243.764 160.108ZM243.764 158.92C244.116 158.92 244.444 158.836 244.748 158.668C245.06 158.5 245.312 158.248 245.504 157.912C245.696 157.576 245.792 157.168 245.792 156.688C245.792 156.208 245.7 155.804 245.516 155.476C245.332 155.14 245.088 154.888 244.784 154.72C244.48 154.552 244.152 154.468 243.8 154.468C243.448 154.468 243.12 154.552 242.816 154.72C242.52 154.888 242.284 155.14 242.108 155.476C241.932 155.804 241.844 156.208 241.844 156.688C241.844 157.4 242.024 157.952 242.384 158.344C242.752 158.728 243.212 158.92 243.764 158.92ZM251.32 154.504H250.096V160H248.716V154.504H247.936V153.388H248.716V152.92C248.716 152.16 248.916 151.608 249.316 151.264C249.724 150.912 250.36 150.736 251.224 150.736V151.876C250.808 151.876 250.516 151.956 250.348 152.116C250.18 152.268 250.096 152.536 250.096 152.92V153.388H251.32V154.504ZM257.018 152.764V155.212H259.898V156.328H257.018V158.884H260.258V160H255.65V151.648H260.258V152.764H257.018ZM264.775 156.652L266.911 160H265.363L263.935 157.756L262.591 160H261.163L263.299 156.748L261.163 153.388H262.711L264.139 155.632L265.483 153.388H266.911L264.775 156.652ZM269.299 154.36C269.531 154.056 269.847 153.8 270.247 153.592C270.647 153.384 271.099 153.28 271.603 153.28C272.179 153.28 272.703 153.424 273.175 153.712C273.655 153.992 274.031 154.388 274.303 154.9C274.575 155.412 274.711 156 274.711 156.664C274.711 157.328 274.575 157.924 274.303 158.452C274.031 158.972 273.655 159.38 273.175 159.676C272.703 159.964 272.179 160.108 271.603 160.108C271.099 160.108 270.651 160.008 270.259 159.808C269.867 159.6 269.547 159.344 269.299 159.04V163.144H267.931V153.388H269.299V154.36ZM273.319 156.664C273.319 156.208 273.223 155.816 273.031 155.488C272.847 155.152 272.599 154.9 272.287 154.732C271.983 154.556 271.655 154.468 271.303 154.468C270.959 154.468 270.631 154.556 270.319 154.732C270.015 154.908 269.767 155.164 269.575 155.5C269.391 155.836 269.299 156.232 269.299 156.688C269.299 157.144 269.391 157.544 269.575 157.888C269.767 158.224 270.015 158.48 270.319 158.656C270.631 158.832 270.959 158.92 271.303 158.92C271.655 158.92 271.983 158.832 272.287 158.656C272.599 158.472 272.847 158.208 273.031 157.864C273.223 157.52 273.319 157.12 273.319 156.664ZM277.432 151.12V160H276.064V151.12H277.432ZM282.096 160.108C281.472 160.108 280.908 159.968 280.404 159.688C279.9 159.4 279.504 159 279.216 158.488C278.928 157.968 278.784 157.368 278.784 156.688C278.784 156.016 278.932 155.42 279.228 154.9C279.524 154.38 279.928 153.98 280.44 153.7C280.952 153.42 281.524 153.28 282.156 153.28C282.788 153.28 283.36 153.42 283.872 153.7C284.384 153.98 284.788 154.38 285.084 154.9C285.38 155.42 285.528 156.016 285.528 156.688C285.528 157.36 285.376 157.956 285.072 158.476C284.768 158.996 284.352 159.4 283.824 159.688C283.304 159.968 282.728 160.108 282.096 160.108ZM282.096 158.92C282.448 158.92 282.776 158.836 283.08 158.668C283.392 158.5 283.644 158.248 283.836 157.912C284.028 157.576 284.124 157.168 284.124 156.688C284.124 156.208 284.032 155.804 283.848 155.476C283.664 155.14 283.42 154.888 283.116 154.72C282.812 154.552 282.484 154.468 282.132 154.468C281.78 154.468 281.452 154.552 281.148 154.72C280.852 154.888 280.616 155.14 280.44 155.476C280.264 155.804 280.176 156.208 280.176 156.688C280.176 157.4 280.356 157.952 280.716 158.344C281.084 158.728 281.544 158.92 282.096 158.92ZM289.28 160.108C288.76 160.108 288.292 160.016 287.876 159.832C287.468 159.64 287.144 159.384 286.904 159.064C286.664 158.736 286.536 158.372 286.52 157.972H287.936C287.96 158.252 288.092 158.488 288.332 158.68C288.58 158.864 288.888 158.956 289.256 158.956C289.64 158.956 289.936 158.884 290.144 158.74C290.36 158.588 290.468 158.396 290.468 158.164C290.468 157.916 290.348 157.732 290.108 157.612C289.876 157.492 289.504 157.36 288.992 157.216C288.496 157.08 288.092 156.948 287.78 156.82C287.468 156.692 287.196 156.496 286.964 156.232C286.74 155.968 286.628 155.62 286.628 155.188C286.628 154.836 286.732 154.516 286.94 154.228C287.148 153.932 287.444 153.7 287.828 153.532C288.22 153.364 288.668 153.28 289.172 153.28C289.924 153.28 290.528 153.472 290.984 153.856C291.448 154.232 291.696 154.748 291.728 155.404H290.36C290.336 155.108 290.216 154.872 290 154.696C289.784 154.52 289.492 154.432 289.124 154.432C288.764 154.432 288.488 154.5 288.296 154.636C288.104 154.772 288.008 154.952 288.008 155.176C288.008 155.352 288.072 155.5 288.2 155.62C288.328 155.74 288.484 155.836 288.668 155.908C288.852 155.972 289.124 156.056 289.484 156.16C289.964 156.288 290.356 156.42 290.66 156.556C290.972 156.684 291.24 156.876 291.464 157.132C291.688 157.388 291.804 157.728 291.812 158.152C291.812 158.528 291.708 158.864 291.5 159.16C291.292 159.456 290.996 159.688 290.612 159.856C290.236 160.024 289.792 160.108 289.28 160.108ZM293.987 152.512C293.739 152.512 293.531 152.428 293.363 152.26C293.195 152.092 293.111 151.884 293.111 151.636C293.111 151.388 293.195 151.18 293.363 151.012C293.531 150.844 293.739 150.76 293.987 150.76C294.227 150.76 294.431 150.844 294.599 151.012C294.767 151.18 294.851 151.388 294.851 151.636C294.851 151.884 294.767 152.092 294.599 152.26C294.431 152.428 294.227 152.512 293.987 152.512ZM294.659 153.388V160H293.291V153.388H294.659ZM299.323 160.108C298.699 160.108 298.135 159.968 297.631 159.688C297.127 159.4 296.731 159 296.443 158.488C296.155 157.968 296.011 157.368 296.011 156.688C296.011 156.016 296.159 155.42 296.455 154.9C296.751 154.38 297.155 153.98 297.667 153.7C298.179 153.42 298.751 153.28 299.383 153.28C300.015 153.28 300.587 153.42 301.099 153.7C301.611 153.98 302.015 154.38 302.311 154.9C302.607 155.42 302.755 156.016 302.755 156.688C302.755 157.36 302.603 157.956 302.299 158.476C301.995 158.996 301.579 159.4 301.051 159.688C300.531 159.968 299.955 160.108 299.323 160.108ZM299.323 158.92C299.675 158.92 300.003 158.836 300.307 158.668C300.619 158.5 300.871 158.248 301.063 157.912C301.255 157.576 301.351 157.168 301.351 156.688C301.351 156.208 301.259 155.804 301.075 155.476C300.891 155.14 300.647 154.888 300.343 154.72C300.039 154.552 299.711 154.468 299.359 154.468C299.007 154.468 298.679 154.552 298.375 154.72C298.079 154.888 297.843 155.14 297.667 155.476C297.491 155.804 297.403 156.208 297.403 156.688C297.403 157.4 297.583 157.952 297.943 158.344C298.311 158.728 298.771 158.92 299.323 158.92ZM307.443 153.28C307.963 153.28 308.427 153.388 308.835 153.604C309.251 153.82 309.575 154.14 309.807 154.564C310.039 154.988 310.155 155.5 310.155 156.1V160H308.799V156.304C308.799 155.712 308.651 155.26 308.355 154.948C308.059 154.628 307.655 154.468 307.143 154.468C306.631 154.468 306.223 154.628 305.919 154.948C305.623 155.26 305.475 155.712 305.475 156.304V160H304.107V153.388H305.475V154.144C305.699 153.872 305.983 153.66 306.327 153.508C306.679 153.356 307.051 153.28 307.443 153.28Z" fill="#4B5563"/>
<defs>
<filter id="filter0_d_910_39457" x="0" y="0" width="359" height="208" filterUnits="userSpaceOnUse" color-interpolation-filters="sRGB">
<feFlood flood-opacity="0" result="BackgroundImageFix"/>
<feColorMatrix in="SourceAlpha" type="matrix" values="0 0 0 0 0 0 0 0 0 0 0 0 0 0 0 0 0 0 127 0" result="hardAlpha"/>
<feOffset/>
<feGaussianBlur stdDeviation="6"/>
<feComposite in2="hardAlpha" operator="out"/>
<feColorMatrix type="matrix" values="0 0 0 0 0.47451 0 0 0 0 0.470588 0 0 0 0 0.517647 0 0 0 0.15 0"/>
<feBlend mode="normal" in2="BackgroundImageFix" result="effect1_dropShadow_910_39457"/>
<feBlend mode="normal" in="SourceGraphic" in2="effect1_dropShadow_910_39457" result="shape"/>
</filter>
<linearGradient id="paint0_linear_910_39457" x1="62.3597" y1="141.75" x2="62.3742" y2="152.812" gradientUnits="userSpaceOnUse">
<stop stop-color="#8F959C"/>
<stop offset="1" stop-color="#BFC5CB"/>
</linearGradient>
<linearGradient id="paint1_linear_910_39457" x1="62.3732" y1="152.587" x2="62.3732" y2="162.547" gradientUnits="userSpaceOnUse">
<stop stop-color="#FCFF4F"/>
<stop offset="1" stop-color="#FF5353"/>
</linearGradient>
</defs>
</svg>
