<svg width="359" height="208" viewBox="0 0 359 208" fill="none" xmlns="http://www.w3.org/2000/svg">
<g filter="url(#filter0_d_910_39432)">
<rect x="12" y="12" width="335" height="184" rx="20" fill="white"/>
</g>
<rect x="32" y="32" width="44" height="44" rx="22" fill="#F7931A" fill-opacity="0.1"/>
<path fill-rule="evenodd" clip-rule="evenodd" d="M62.9546 51.4084C63.316 48.9887 61.4738 47.688 58.9547 46.8202L59.7718 43.5425L57.7761 43.0453L56.9805 46.2366C56.4566 46.1059 55.9179 45.9826 55.3826 45.8605L56.1839 42.6481L54.1898 42.1509L53.3721 45.4274C52.938 45.3286 52.5118 45.2308 52.0981 45.128L52.1004 45.1177L49.3489 44.4307L48.8181 46.5617C48.8181 46.5617 50.2984 46.9009 50.2672 46.922C51.0752 47.1237 51.2218 47.6584 51.1968 48.0823L50.266 51.8164C50.3217 51.8306 50.3939 51.851 50.4734 51.8828L50.2632 51.8306L48.9579 57.0614C48.859 57.3069 48.6084 57.6751 48.0436 57.5353C48.0635 57.5643 46.5934 57.1733 46.5934 57.1733L45.6029 59.4577L48.1998 60.105C48.4929 60.1784 48.7824 60.2539 49.0688 60.3286L49.069 60.3287L49.0694 60.3288C49.2548 60.3772 49.4388 60.4252 49.6216 60.4721L48.7959 63.7878L50.7888 64.2851L51.6071 61.0051C52.1509 61.1528 52.6794 61.2892 53.1965 61.4176L52.3816 64.6823L54.3768 65.1795L55.2025 61.8705C58.6046 62.5144 61.1635 62.2547 62.2392 59.1781C63.1069 56.7005 62.1966 55.2714 60.4066 54.3389C61.7101 54.0371 62.6921 53.1796 62.9541 51.4084H62.9546ZM58.3956 57.8007C57.8292 60.0747 54.2691 59.1338 52.6416 58.7037C52.4959 58.6651 52.3657 58.6307 52.2545 58.6031L53.3501 54.211C53.486 54.2449 53.652 54.2822 53.8401 54.3244L53.8402 54.3244C55.5238 54.7022 58.9743 55.4765 58.3962 57.8007H58.3956ZM54.1785 52.2863C55.5365 52.6486 58.4965 53.4383 59.0121 51.3725C59.5393 49.2592 56.661 48.6223 55.2553 48.3112C55.0973 48.2762 54.9579 48.2454 54.844 48.217L53.8507 52.2005C53.9447 52.2239 54.055 52.2533 54.1785 52.2863Z" fill="#F7931A"/>
<path d="M95.44 44.272C96.0693 44.3893 96.5867 44.704 96.992 45.216C97.3973 45.728 97.6 46.3147 97.6 46.976C97.6 47.5733 97.4507 48.1013 97.152 48.56C96.864 49.008 96.4427 49.36 95.888 49.616C95.3333 49.872 94.6773 50 93.92 50H89.104V38.832H93.712C94.4693 38.832 95.12 38.9547 95.664 39.2C96.2187 39.4453 96.6347 39.7867 96.912 40.224C97.2 40.6613 97.344 41.1573 97.344 41.712C97.344 42.3627 97.168 42.9067 96.816 43.344C96.4747 43.7813 96.016 44.0907 95.44 44.272ZM91.344 43.44H93.392C93.9253 43.44 94.336 43.3227 94.624 43.088C94.912 42.8427 95.056 42.496 95.056 42.048C95.056 41.6 94.912 41.2533 94.624 41.008C94.336 40.7627 93.9253 40.64 93.392 40.64H91.344V43.44ZM93.6 48.176C94.144 48.176 94.5653 48.048 94.864 47.792C95.1733 47.536 95.328 47.1733 95.328 46.704C95.328 46.224 95.168 45.8507 94.848 45.584C94.528 45.3067 94.096 45.168 93.552 45.168H91.344V48.176H93.6ZM100.521 40.08C100.127 40.08 99.7959 39.9573 99.5293 39.712C99.2733 39.456 99.1453 39.1413 99.1453 38.768C99.1453 38.3947 99.2733 38.0853 99.5293 37.84C99.7959 37.584 100.127 37.456 100.521 37.456C100.916 37.456 101.241 37.584 101.497 37.84C101.764 38.0853 101.897 38.3947 101.897 38.768C101.897 39.1413 101.764 39.456 101.497 39.712C101.241 39.9573 100.916 40.08 100.521 40.08ZM101.625 41.136V50H99.3853V41.136H101.625ZM106.446 42.976V47.264C106.446 47.5627 106.516 47.7813 106.654 47.92C106.804 48.048 107.049 48.112 107.39 48.112H108.43V50H107.022C105.134 50 104.19 49.0827 104.19 47.248V42.976H103.134V41.136H104.19V38.944H106.446V41.136H108.43V42.976H106.446ZM109.465 45.568C109.465 44.6507 109.652 43.8507 110.026 43.168C110.399 42.4747 110.916 41.9413 111.578 41.568C112.239 41.184 112.996 40.992 113.85 40.992C114.948 40.992 115.855 41.2693 116.57 41.824C117.295 42.368 117.78 43.136 118.026 44.128H115.61C115.482 43.744 115.263 43.4453 114.954 43.232C114.655 43.008 114.282 42.896 113.834 42.896C113.194 42.896 112.687 43.1307 112.314 43.6C111.94 44.0587 111.754 44.7147 111.754 45.568C111.754 46.4107 111.94 47.0667 112.314 47.536C112.687 47.9947 113.194 48.224 113.834 48.224C114.74 48.224 115.332 47.8187 115.61 47.008H118.026C117.78 47.968 117.295 48.7307 116.57 49.296C115.844 49.8613 114.938 50.144 113.85 50.144C112.996 50.144 112.239 49.9573 111.578 49.584C110.916 49.2 110.399 48.6667 110.026 47.984C109.652 47.2907 109.465 46.4853 109.465 45.568ZM123.603 50.144C122.749 50.144 121.981 49.9573 121.299 49.584C120.616 49.2 120.077 48.6613 119.683 47.968C119.299 47.2747 119.107 46.4747 119.107 45.568C119.107 44.6613 119.304 43.8613 119.699 43.168C120.104 42.4747 120.653 41.9413 121.347 41.568C122.04 41.184 122.813 40.992 123.667 40.992C124.52 40.992 125.293 41.184 125.987 41.568C126.68 41.9413 127.224 42.4747 127.619 43.168C128.024 43.8613 128.227 44.6613 128.227 45.568C128.227 46.4747 128.019 47.2747 127.602 47.968C127.197 48.6613 126.643 49.2 125.939 49.584C125.245 49.9573 124.467 50.144 123.603 50.144ZM123.603 48.192C124.008 48.192 124.387 48.096 124.739 47.904C125.101 47.7013 125.389 47.4027 125.603 47.008C125.816 46.6133 125.923 46.1333 125.923 45.568C125.923 44.7253 125.699 44.08 125.251 43.632C124.813 43.1733 124.275 42.944 123.635 42.944C122.995 42.944 122.456 43.1733 122.019 43.632C121.592 44.08 121.379 44.7253 121.379 45.568C121.379 46.4107 121.587 47.0613 122.003 47.52C122.429 47.968 122.963 48.192 123.603 48.192ZM131.006 40.08C130.611 40.08 130.28 39.9573 130.014 39.712C129.758 39.456 129.63 39.1413 129.63 38.768C129.63 38.3947 129.758 38.0853 130.014 37.84C130.28 37.584 130.611 37.456 131.006 37.456C131.4 37.456 131.726 37.584 131.982 37.84C132.248 38.0853 132.382 38.3947 132.382 38.768C132.382 39.1413 132.248 39.456 131.982 39.712C131.726 39.9573 131.4 40.08 131.006 40.08ZM132.11 41.136V50H129.87V41.136H132.11ZM139.235 41.008C140.291 41.008 141.144 41.344 141.795 42.016C142.445 42.6773 142.771 43.6053 142.771 44.8V50H140.531V45.104C140.531 44.4 140.355 43.8613 140.003 43.488C139.651 43.104 139.171 42.912 138.563 42.912C137.944 42.912 137.453 43.104 137.091 43.488C136.739 43.8613 136.563 44.4 136.563 45.104V50H134.323V41.136H136.563V42.24C136.861 41.856 137.24 41.5573 137.699 41.344C138.168 41.12 138.68 41.008 139.235 41.008Z" fill="black"/>
<path d="M93.112 67.692C93.416 67.74 93.692 67.864 93.94 68.064C94.196 68.264 94.396 68.512 94.54 68.808C94.692 69.104 94.768 69.42 94.768 69.756C94.768 70.18 94.66 70.564 94.444 70.908C94.228 71.244 93.912 71.512 93.496 71.712C93.088 71.904 92.604 72 92.044 72H88.924V63.636H91.924C92.492 63.636 92.976 63.732 93.376 63.924C93.776 64.108 94.076 64.36 94.276 64.68C94.476 65 94.576 65.36 94.576 65.76C94.576 66.256 94.44 66.668 94.168 66.996C93.904 67.316 93.552 67.548 93.112 67.692ZM90.016 67.248H91.852C92.364 67.248 92.76 67.128 93.04 66.888C93.32 66.648 93.46 66.316 93.46 65.892C93.46 65.468 93.32 65.136 93.04 64.896C92.76 64.656 92.356 64.536 91.828 64.536H90.016V67.248ZM91.948 71.1C92.492 71.1 92.916 70.972 93.22 70.716C93.524 70.46 93.676 70.104 93.676 69.648C93.676 69.184 93.516 68.82 93.196 68.556C92.876 68.284 92.448 68.148 91.912 68.148H90.016V71.1H91.948ZM101.431 63.636V64.524H99.1514V72H98.0594V64.524H95.7674V63.636H101.431ZM102.368 67.812C102.368 66.996 102.552 66.264 102.92 65.616C103.288 64.96 103.788 64.448 104.42 64.08C105.06 63.712 105.768 63.528 106.544 63.528C107.456 63.528 108.252 63.748 108.932 64.188C109.612 64.628 110.108 65.252 110.42 66.06H109.112C108.88 65.556 108.544 65.168 108.104 64.896C107.672 64.624 107.152 64.488 106.544 64.488C105.96 64.488 105.436 64.624 104.972 64.896C104.508 65.168 104.144 65.556 103.88 66.06C103.616 66.556 103.484 67.14 103.484 67.812C103.484 68.476 103.616 69.06 103.88 69.564C104.144 70.06 104.508 70.444 104.972 70.716C105.436 70.988 105.96 71.124 106.544 71.124C107.152 71.124 107.672 70.992 108.104 70.728C108.544 70.456 108.88 70.068 109.112 69.564H110.42C110.108 70.364 109.612 70.984 108.932 71.424C108.252 71.856 107.456 72.072 106.544 72.072C105.768 72.072 105.06 71.892 104.42 71.532C103.788 71.164 103.288 70.656 102.92 70.008C102.552 69.36 102.368 68.628 102.368 67.812ZM116.605 67.14V68.064H111.817V67.14H116.605ZM119.722 63.636V68.928C119.722 69.672 119.902 70.224 120.262 70.584C120.63 70.944 121.138 71.124 121.786 71.124C122.426 71.124 122.926 70.944 123.286 70.584C123.654 70.224 123.838 69.672 123.838 68.928V63.636H124.93V68.916C124.93 69.612 124.79 70.2 124.51 70.68C124.23 71.152 123.85 71.504 123.37 71.736C122.898 71.968 122.366 72.084 121.774 72.084C121.182 72.084 120.646 71.968 120.166 71.736C119.694 71.504 119.318 71.152 119.038 70.68C118.766 70.2 118.63 69.612 118.63 68.916V63.636H119.722ZM129.404 72.084C128.852 72.084 128.356 71.988 127.916 71.796C127.484 71.596 127.144 71.324 126.896 70.98C126.648 70.628 126.52 70.224 126.512 69.768H127.676C127.716 70.16 127.876 70.492 128.156 70.764C128.444 71.028 128.86 71.16 129.404 71.16C129.924 71.16 130.332 71.032 130.628 70.776C130.932 70.512 131.084 70.176 131.084 69.768C131.084 69.448 130.996 69.188 130.82 68.988C130.644 68.788 130.424 68.636 130.16 68.532C129.896 68.428 129.54 68.316 129.092 68.196C128.54 68.052 128.096 67.908 127.76 67.764C127.432 67.62 127.148 67.396 126.908 67.092C126.676 66.78 126.56 66.364 126.56 65.844C126.56 65.388 126.676 64.984 126.908 64.632C127.14 64.28 127.464 64.008 127.88 63.816C128.304 63.624 128.788 63.528 129.332 63.528C130.116 63.528 130.756 63.724 131.252 64.116C131.756 64.508 132.04 65.028 132.104 65.676H130.904C130.864 65.356 130.696 65.076 130.4 64.836C130.104 64.588 129.712 64.464 129.224 64.464C128.768 64.464 128.396 64.584 128.108 64.824C127.82 65.056 127.676 65.384 127.676 65.808C127.676 66.112 127.76 66.36 127.928 66.552C128.104 66.744 128.316 66.892 128.564 66.996C128.82 67.092 129.176 67.204 129.632 67.332C130.184 67.484 130.628 67.636 130.964 67.788C131.3 67.932 131.588 68.16 131.828 68.472C132.068 68.776 132.188 69.192 132.188 69.72C132.188 70.128 132.08 70.512 131.864 70.872C131.648 71.232 131.328 71.524 130.904 71.748C130.48 71.972 129.98 72.084 129.404 72.084ZM136.399 63.636C137.311 63.636 138.099 63.808 138.763 64.152C139.435 64.488 139.947 64.972 140.299 65.604C140.659 66.236 140.839 66.98 140.839 67.836C140.839 68.692 140.659 69.436 140.299 70.068C139.947 70.692 139.435 71.172 138.763 71.508C138.099 71.836 137.311 72 136.399 72H133.795V63.636H136.399ZM136.399 71.1C137.479 71.1 138.303 70.816 138.871 70.248C139.439 69.672 139.723 68.868 139.723 67.836C139.723 66.796 139.435 65.984 138.859 65.4C138.291 64.816 137.471 64.524 136.399 64.524H134.887V71.1H136.399Z" fill="#6B7280"/>
<rect x="279" y="32" width="48" height="24" rx="12" fill="#E6F5F0"/>
<path d="M293.508 46.668H296.268V48H291.828V39.624H293.508V46.668ZM300.288 48.108C299.648 48.108 299.072 47.968 298.56 47.688C298.048 47.4 297.644 46.996 297.348 46.476C297.06 45.956 296.916 45.356 296.916 44.676C296.916 43.996 297.064 43.396 297.36 42.876C297.664 42.356 298.076 41.956 298.596 41.676C299.116 41.388 299.696 41.244 300.336 41.244C300.976 41.244 301.556 41.388 302.076 41.676C302.596 41.956 303.004 42.356 303.3 42.876C303.604 43.396 303.756 43.996 303.756 44.676C303.756 45.356 303.6 45.956 303.288 46.476C302.984 46.996 302.568 47.4 302.04 47.688C301.52 47.968 300.936 48.108 300.288 48.108ZM300.288 46.644C300.592 46.644 300.876 46.572 301.14 46.428C301.412 46.276 301.628 46.052 301.788 45.756C301.948 45.46 302.028 45.1 302.028 44.676C302.028 44.044 301.86 43.56 301.524 43.224C301.196 42.88 300.792 42.708 300.312 42.708C299.832 42.708 299.428 42.88 299.1 43.224C298.78 43.56 298.62 44.044 298.62 44.676C298.62 45.308 298.776 45.796 299.088 46.14C299.408 46.476 299.808 46.644 300.288 46.644ZM314.204 41.352L312.26 48H310.448L309.236 43.356L308.024 48H306.2L304.244 41.352H305.948L307.124 46.416L308.396 41.352H310.172L311.42 46.404L312.596 41.352H314.204Z" fill="#34BB7A"/>
<path d="M41.684 103.66V112H40.316V106.288L37.772 112H36.824L34.268 106.288V112H32.9V103.66H34.376L37.304 110.2L40.22 103.66H41.684ZM43.026 108.664C43.026 108 43.162 107.412 43.434 106.9C43.714 106.388 44.09 105.992 44.562 105.712C45.042 105.424 45.57 105.28 46.146 105.28C46.666 105.28 47.118 105.384 47.502 105.592C47.894 105.792 48.206 106.044 48.438 106.348V105.388H49.818V112H48.438V111.016C48.206 111.328 47.89 111.588 47.49 111.796C47.09 112.004 46.634 112.108 46.122 112.108C45.554 112.108 45.034 111.964 44.562 111.676C44.09 111.38 43.714 110.972 43.434 110.452C43.162 109.924 43.026 109.328 43.026 108.664ZM48.438 108.688C48.438 108.232 48.342 107.836 48.15 107.5C47.966 107.164 47.722 106.908 47.418 106.732C47.114 106.556 46.786 106.468 46.434 106.468C46.082 106.468 45.754 106.556 45.45 106.732C45.146 106.9 44.898 107.152 44.706 107.488C44.522 107.816 44.43 108.208 44.43 108.664C44.43 109.12 44.522 109.52 44.706 109.864C44.898 110.208 45.146 110.472 45.45 110.656C45.762 110.832 46.09 110.92 46.434 110.92C46.786 110.92 47.114 110.832 47.418 110.656C47.722 110.48 47.966 110.224 48.15 109.888C48.342 109.544 48.438 109.144 48.438 108.688ZM54.4468 108.652L56.5828 112H55.0348L53.6068 109.756L52.2628 112H50.8348L52.9708 108.748L50.8348 105.388H52.3828L53.8108 107.632L55.1548 105.388H56.5828L54.4468 108.652ZM58.2991 104.512C58.0511 104.512 57.8431 104.428 57.6751 104.26C57.5071 104.092 57.4231 103.884 57.4231 103.636C57.4231 103.388 57.5071 103.18 57.6751 103.012C57.8431 102.844 58.0511 102.76 58.2991 102.76C58.5391 102.76 58.7431 102.844 58.9111 103.012C59.0791 103.18 59.1631 103.388 59.1631 103.636C59.1631 103.884 59.0791 104.092 58.9111 104.26C58.7431 104.428 58.5391 104.512 58.2991 104.512ZM58.9711 105.388V112H57.6031V105.388H58.9711ZM68.7712 105.28C69.2912 105.28 69.7552 105.388 70.1632 105.604C70.5792 105.82 70.9032 106.14 71.1352 106.564C71.3752 106.988 71.4952 107.5 71.4952 108.1V112H70.1392V108.304C70.1392 107.712 69.9912 107.26 69.6952 106.948C69.3992 106.628 68.9952 106.468 68.4832 106.468C67.9712 106.468 67.5632 106.628 67.2592 106.948C66.9632 107.26 66.8152 107.712 66.8152 108.304V112H65.4592V108.304C65.4592 107.712 65.3112 107.26 65.0152 106.948C64.7192 106.628 64.3152 106.468 63.8032 106.468C63.2912 106.468 62.8832 106.628 62.5792 106.948C62.2832 107.26 62.1352 107.712 62.1352 108.304V112H60.7672V105.388H62.1352V106.144C62.3592 105.872 62.6432 105.66 62.9872 105.508C63.3312 105.356 63.6992 105.28 64.0912 105.28C64.6192 105.28 65.0912 105.392 65.5072 105.616C65.9232 105.84 66.2432 106.164 66.4672 106.588C66.6672 106.188 66.9792 105.872 67.4032 105.64C67.8272 105.4 68.2832 105.28 68.7712 105.28ZM79.2239 105.388V112H77.8559V111.22C77.6399 111.492 77.3559 111.708 77.0039 111.868C76.6599 112.02 76.2919 112.096 75.8999 112.096C75.3799 112.096 74.9119 111.988 74.4959 111.772C74.0879 111.556 73.7639 111.236 73.5239 110.812C73.2919 110.388 73.1759 109.876 73.1759 109.276V105.388H74.5319V109.072C74.5319 109.664 74.6799 110.12 74.9759 110.44C75.2719 110.752 75.6759 110.908 76.1879 110.908C76.6999 110.908 77.1039 110.752 77.3999 110.44C77.7039 110.12 77.8559 109.664 77.8559 109.072V105.388H79.2239ZM89.0329 105.28C89.5529 105.28 90.0169 105.388 90.4249 105.604C90.8409 105.82 91.1649 106.14 91.3969 106.564C91.6369 106.988 91.7569 107.5 91.7569 108.1V112H90.4009V108.304C90.4009 107.712 90.2529 107.26 89.9569 106.948C89.6609 106.628 89.2569 106.468 88.7449 106.468C88.2329 106.468 87.8249 106.628 87.5209 106.948C87.2249 107.26 87.0769 107.712 87.0769 108.304V112H85.7209V108.304C85.7209 107.712 85.5729 107.26 85.2769 106.948C84.9809 106.628 84.5769 106.468 84.0649 106.468C83.5529 106.468 83.1449 106.628 82.8409 106.948C82.5449 107.26 82.3969 107.712 82.3969 108.304V112H81.0289V105.388H82.3969V106.144C82.6209 105.872 82.9049 105.66 83.2489 105.508C83.5929 105.356 83.9609 105.28 84.3529 105.28C84.8809 105.28 85.3529 105.392 85.7689 105.616C86.1849 105.84 86.5049 106.164 86.7289 106.588C86.9289 106.188 87.2409 105.872 87.6649 105.64C88.0889 105.4 88.5449 105.28 89.0329 105.28ZM97.9828 103.12V112H96.6148V103.12H97.9828ZM102.647 112.108C102.023 112.108 101.459 111.968 100.955 111.688C100.451 111.4 100.055 111 99.7669 110.488C99.4789 109.968 99.3349 109.368 99.3349 108.688C99.3349 108.016 99.4829 107.42 99.7789 106.9C100.075 106.38 100.479 105.98 100.991 105.7C101.503 105.42 102.075 105.28 102.707 105.28C103.339 105.28 103.911 105.42 104.423 105.7C104.935 105.98 105.339 106.38 105.635 106.9C105.931 107.42 106.079 108.016 106.079 108.688C106.079 109.36 105.927 109.956 105.623 110.476C105.319 110.996 104.903 111.4 104.375 111.688C103.855 111.968 103.279 112.108 102.647 112.108ZM102.647 110.92C102.999 110.92 103.327 110.836 103.631 110.668C103.943 110.5 104.195 110.248 104.387 109.912C104.579 109.576 104.675 109.168 104.675 108.688C104.675 108.208 104.583 107.804 104.399 107.476C104.215 107.14 103.971 106.888 103.667 106.72C103.363 106.552 103.035 106.468 102.683 106.468C102.331 106.468 102.003 106.552 101.699 106.72C101.403 106.888 101.167 107.14 100.991 107.476C100.815 107.804 100.727 108.208 100.727 108.688C100.727 109.4 100.907 109.952 101.267 110.344C101.635 110.728 102.095 110.92 102.647 110.92ZM109.831 112.108C109.311 112.108 108.843 112.016 108.427 111.832C108.019 111.64 107.695 111.384 107.455 111.064C107.215 110.736 107.087 110.372 107.071 109.972H108.487C108.511 110.252 108.643 110.488 108.883 110.68C109.131 110.864 109.439 110.956 109.807 110.956C110.191 110.956 110.487 110.884 110.695 110.74C110.911 110.588 111.019 110.396 111.019 110.164C111.019 109.916 110.899 109.732 110.659 109.612C110.427 109.492 110.055 109.36 109.543 109.216C109.047 109.08 108.643 108.948 108.331 108.82C108.019 108.692 107.747 108.496 107.515 108.232C107.291 107.968 107.179 107.62 107.179 107.188C107.179 106.836 107.283 106.516 107.491 106.228C107.699 105.932 107.995 105.7 108.379 105.532C108.771 105.364 109.219 105.28 109.723 105.28C110.475 105.28 111.079 105.472 111.535 105.856C111.999 106.232 112.247 106.748 112.279 107.404H110.911C110.887 107.108 110.767 106.872 110.551 106.696C110.335 106.52 110.043 106.432 109.675 106.432C109.315 106.432 109.039 106.5 108.847 106.636C108.655 106.772 108.559 106.952 108.559 107.176C108.559 107.352 108.623 107.5 108.751 107.62C108.879 107.74 109.035 107.836 109.219 107.908C109.403 107.972 109.675 108.056 110.035 108.16C110.515 108.288 110.907 108.42 111.211 108.556C111.523 108.684 111.791 108.876 112.015 109.132C112.239 109.388 112.355 109.728 112.363 110.152C112.363 110.528 112.259 110.864 112.051 111.16C111.843 111.456 111.547 111.688 111.163 111.856C110.787 112.024 110.343 112.108 109.831 112.108ZM116.241 112.108C115.721 112.108 115.253 112.016 114.837 111.832C114.429 111.64 114.105 111.384 113.865 111.064C113.625 110.736 113.497 110.372 113.481 109.972H114.897C114.921 110.252 115.053 110.488 115.293 110.68C115.541 110.864 115.849 110.956 116.217 110.956C116.601 110.956 116.897 110.884 117.105 110.74C117.321 110.588 117.429 110.396 117.429 110.164C117.429 109.916 117.309 109.732 117.069 109.612C116.837 109.492 116.465 109.36 115.953 109.216C115.457 109.08 115.053 108.948 114.741 108.82C114.429 108.692 114.157 108.496 113.925 108.232C113.701 107.968 113.589 107.62 113.589 107.188C113.589 106.836 113.693 106.516 113.901 106.228C114.109 105.932 114.405 105.7 114.789 105.532C115.181 105.364 115.629 105.28 116.133 105.28C116.885 105.28 117.489 105.472 117.945 105.856C118.409 106.232 118.657 106.748 118.689 107.404H117.321C117.297 107.108 117.177 106.872 116.961 106.696C116.745 106.52 116.453 106.432 116.085 106.432C115.725 106.432 115.449 106.5 115.257 106.636C115.065 106.772 114.969 106.952 114.969 107.176C114.969 107.352 115.033 107.5 115.161 107.62C115.289 107.74 115.445 107.836 115.629 107.908C115.813 107.972 116.085 108.056 116.445 108.16C116.925 108.288 117.317 108.42 117.621 108.556C117.933 108.684 118.201 108.876 118.425 109.132C118.649 109.388 118.765 109.728 118.773 110.152C118.773 110.528 118.669 110.864 118.461 111.16C118.253 111.456 117.957 111.688 117.573 111.856C117.197 112.024 116.753 112.108 116.241 112.108Z" fill="#9CA3AF"/>
<path d="M278.014 107.344V109.232H271.23V107.344H278.014ZM282.222 107.824C281.155 107.269 280.622 106.411 280.622 105.248C280.622 104.672 280.766 104.149 281.054 103.68C281.353 103.2 281.795 102.821 282.382 102.544C282.979 102.256 283.705 102.112 284.558 102.112C285.411 102.112 286.131 102.256 286.718 102.544C287.315 102.821 287.758 103.2 288.046 103.68C288.345 104.149 288.494 104.672 288.494 105.248C288.494 105.835 288.35 106.352 288.062 106.8C287.774 107.237 287.39 107.579 286.91 107.824C287.497 108.08 287.955 108.453 288.286 108.944C288.617 109.435 288.782 110.016 288.782 110.688C288.782 111.413 288.595 112.048 288.222 112.592C287.859 113.125 287.358 113.536 286.718 113.824C286.078 114.112 285.358 114.256 284.558 114.256C283.758 114.256 283.038 114.112 282.398 113.824C281.769 113.536 281.267 113.125 280.894 112.592C280.531 112.048 280.35 111.413 280.35 110.688C280.35 110.016 280.515 109.435 280.846 108.944C281.177 108.443 281.635 108.069 282.222 107.824ZM286.318 105.568C286.318 105.045 286.158 104.64 285.838 104.352C285.529 104.064 285.102 103.92 284.558 103.92C284.025 103.92 283.598 104.064 283.278 104.352C282.969 104.64 282.814 105.051 282.814 105.584C282.814 106.064 282.974 106.448 283.294 106.736C283.625 107.024 284.046 107.168 284.558 107.168C285.07 107.168 285.491 107.024 285.822 106.736C286.153 106.437 286.318 106.048 286.318 105.568ZM284.558 108.8C283.95 108.8 283.454 108.955 283.07 109.264C282.697 109.573 282.51 110.016 282.51 110.592C282.51 111.125 282.691 111.563 283.054 111.904C283.427 112.235 283.929 112.4 284.558 112.4C285.187 112.4 285.683 112.229 286.046 111.888C286.409 111.547 286.59 111.115 286.59 110.592C286.59 110.027 286.403 109.589 286.03 109.28C285.657 108.96 285.166 108.8 284.558 108.8ZM298.391 104.272H293.207V107.008C293.431 106.731 293.751 106.507 294.167 106.336C294.583 106.155 295.026 106.064 295.495 106.064C296.348 106.064 297.047 106.251 297.591 106.624C298.135 106.997 298.53 107.477 298.775 108.064C299.02 108.64 299.143 109.259 299.143 109.92C299.143 111.147 298.791 112.133 298.087 112.88C297.394 113.627 296.402 114 295.111 114C293.895 114 292.924 113.696 292.199 113.088C291.474 112.48 291.063 111.685 290.967 110.704H293.143C293.239 111.131 293.452 111.472 293.783 111.728C294.124 111.984 294.556 112.112 295.079 112.112C295.708 112.112 296.183 111.915 296.503 111.52C296.823 111.125 296.983 110.603 296.983 109.952C296.983 109.291 296.818 108.789 296.487 108.448C296.167 108.096 295.692 107.92 295.063 107.92C294.615 107.92 294.242 108.032 293.943 108.256C293.644 108.48 293.431 108.779 293.303 109.152H291.159V102.304H298.391V104.272ZM302.096 114.112C301.691 114.112 301.355 113.989 301.088 113.744C300.832 113.488 300.704 113.173 300.704 112.8C300.704 112.427 300.832 112.117 301.088 111.872C301.355 111.616 301.691 111.488 302.096 111.488C302.491 111.488 302.816 111.616 303.072 111.872C303.328 112.117 303.456 112.427 303.456 112.8C303.456 113.173 303.328 113.488 303.072 113.744C302.816 113.989 302.491 114.112 302.096 114.112ZM305.036 105.408C305.09 104.341 305.463 103.52 306.156 102.944C306.86 102.357 307.783 102.064 308.924 102.064C309.703 102.064 310.37 102.203 310.924 102.48C311.479 102.747 311.895 103.115 312.172 103.584C312.46 104.043 312.604 104.565 312.604 105.152C312.604 105.824 312.428 106.395 312.076 106.864C311.735 107.323 311.324 107.632 310.844 107.792V107.856C311.463 108.048 311.943 108.389 312.284 108.88C312.636 109.371 312.812 110 312.812 110.768C312.812 111.408 312.663 111.979 312.364 112.48C312.076 112.981 311.644 113.376 311.068 113.664C310.503 113.941 309.82 114.08 309.02 114.08C307.815 114.08 306.834 113.776 306.076 113.168C305.319 112.56 304.919 111.664 304.876 110.48H307.052C307.074 111.003 307.25 111.424 307.58 111.744C307.922 112.053 308.386 112.208 308.972 112.208C309.516 112.208 309.932 112.059 310.22 111.76C310.519 111.451 310.668 111.056 310.668 110.576C310.668 109.936 310.466 109.477 310.06 109.2C309.655 108.923 309.026 108.784 308.172 108.784H307.708V106.944H308.172C309.687 106.944 310.444 106.437 310.444 105.424C310.444 104.965 310.306 104.608 310.028 104.352C309.762 104.096 309.372 103.968 308.86 103.968C308.359 103.968 307.97 104.107 307.692 104.384C307.426 104.651 307.271 104.992 307.228 105.408H305.036ZM314.326 105.2C314.326 104.389 314.561 103.755 315.03 103.296C315.51 102.837 316.124 102.608 316.87 102.608C317.617 102.608 318.225 102.837 318.694 103.296C319.174 103.755 319.414 104.389 319.414 105.2C319.414 106.021 319.174 106.661 318.694 107.12C318.225 107.579 317.617 107.808 316.87 107.808C316.124 107.808 315.51 107.579 315.03 107.12C314.561 106.661 314.326 106.021 314.326 105.2ZM324.598 102.8L318.31 114H316.134L322.406 102.8H324.598ZM316.854 103.952C316.268 103.952 315.974 104.368 315.974 105.2C315.974 106.043 316.268 106.464 316.854 106.464C317.142 106.464 317.366 106.363 317.526 106.16C317.686 105.947 317.766 105.627 317.766 105.2C317.766 104.368 317.462 103.952 316.854 103.952ZM321.35 111.584C321.35 110.763 321.585 110.128 322.054 109.68C322.534 109.221 323.148 108.992 323.894 108.992C324.641 108.992 325.244 109.221 325.702 109.68C326.172 110.128 326.406 110.763 326.406 111.584C326.406 112.405 326.172 113.045 325.702 113.504C325.244 113.963 324.641 114.192 323.894 114.192C323.137 114.192 322.524 113.963 322.054 113.504C321.585 113.045 321.35 112.405 321.35 111.584ZM323.878 110.336C323.27 110.336 322.966 110.752 322.966 111.584C322.966 112.427 323.27 112.848 323.878 112.848C324.476 112.848 324.774 112.427 324.774 111.584C324.774 110.752 324.476 110.336 323.878 110.336Z" fill="#DF1525"/>
<rect x="32" y="136" width="295" height="40" rx="20" fill="#F3F4F6"/>
<path d="M225.75 160.084C225.19 160.084 224.686 159.988 224.238 159.796C223.79 159.596 223.438 159.316 223.182 158.956C222.926 158.596 222.798 158.176 222.798 157.696H224.262C224.294 158.056 224.434 158.352 224.682 158.584C224.938 158.816 225.294 158.932 225.75 158.932C226.222 158.932 226.59 158.82 226.854 158.596C227.118 158.364 227.25 158.068 227.25 157.708C227.25 157.428 227.166 157.2 226.998 157.024C226.838 156.848 226.634 156.712 226.386 156.616C226.146 156.52 225.81 156.416 225.378 156.304C224.834 156.16 224.39 156.016 224.046 155.872C223.71 155.72 223.422 155.488 223.182 155.176C222.942 154.864 222.822 154.448 222.822 153.928C222.822 153.448 222.942 153.028 223.182 152.668C223.422 152.308 223.758 152.032 224.19 151.84C224.622 151.648 225.122 151.552 225.69 151.552C226.498 151.552 227.158 151.756 227.67 152.164C228.19 152.564 228.478 153.116 228.534 153.82H227.022C226.998 153.516 226.854 153.256 226.59 153.04C226.326 152.824 225.978 152.716 225.546 152.716C225.154 152.716 224.834 152.816 224.586 153.016C224.338 153.216 224.214 153.504 224.214 153.88C224.214 154.136 224.29 154.348 224.442 154.516C224.602 154.676 224.802 154.804 225.042 154.9C225.282 154.996 225.61 155.1 226.026 155.212C226.578 155.364 227.026 155.516 227.37 155.668C227.722 155.82 228.018 156.056 228.258 156.376C228.506 156.688 228.63 157.108 228.63 157.636C228.63 158.06 228.514 158.46 228.282 158.836C228.058 159.212 227.726 159.516 227.286 159.748C226.854 159.972 226.342 160.084 225.75 160.084ZM233.664 153.28C234.168 153.28 234.616 153.388 235.008 153.604C235.408 153.82 235.72 154.14 235.944 154.564C236.176 154.988 236.292 155.5 236.292 156.1V160H234.936V156.304C234.936 155.712 234.788 155.26 234.492 154.948C234.196 154.628 233.792 154.468 233.28 154.468C232.768 154.468 232.36 154.628 232.056 154.948C231.76 155.26 231.612 155.712 231.612 156.304V160H230.244V151.12H231.612V154.156C231.844 153.876 232.136 153.66 232.488 153.508C232.848 153.356 233.24 153.28 233.664 153.28ZM237.581 156.664C237.581 156 237.717 155.412 237.989 154.9C238.269 154.388 238.645 153.992 239.117 153.712C239.597 153.424 240.125 153.28 240.701 153.28C241.221 153.28 241.673 153.384 242.057 153.592C242.449 153.792 242.761 154.044 242.993 154.348V153.388H244.373V160H242.993V159.016C242.761 159.328 242.445 159.588 242.045 159.796C241.645 160.004 241.189 160.108 240.677 160.108C240.109 160.108 239.589 159.964 239.117 159.676C238.645 159.38 238.269 158.972 237.989 158.452C237.717 157.924 237.581 157.328 237.581 156.664ZM242.993 156.688C242.993 156.232 242.897 155.836 242.705 155.5C242.521 155.164 242.277 154.908 241.973 154.732C241.669 154.556 241.341 154.468 240.989 154.468C240.637 154.468 240.309 154.556 240.005 154.732C239.701 154.9 239.453 155.152 239.261 155.488C239.077 155.816 238.985 156.208 238.985 156.664C238.985 157.12 239.077 157.52 239.261 157.864C239.453 158.208 239.701 158.472 240.005 158.656C240.317 158.832 240.645 158.92 240.989 158.92C241.341 158.92 241.669 158.832 241.973 158.656C242.277 158.48 242.521 158.224 242.705 157.888C242.897 157.544 242.993 157.144 242.993 156.688ZM247.538 154.348C247.738 154.012 248.002 153.752 248.33 153.568C248.666 153.376 249.062 153.28 249.518 153.28V154.696H249.17C248.634 154.696 248.226 154.832 247.946 155.104C247.674 155.376 247.538 155.848 247.538 156.52V160H246.17V153.388H247.538V154.348ZM252.143 154.36C252.375 154.056 252.691 153.8 253.091 153.592C253.491 153.384 253.943 153.28 254.447 153.28C255.023 153.28 255.547 153.424 256.019 153.712C256.499 153.992 256.875 154.388 257.147 154.9C257.419 155.412 257.555 156 257.555 156.664C257.555 157.328 257.419 157.924 257.147 158.452C256.875 158.972 256.499 159.38 256.019 159.676C255.547 159.964 255.023 160.108 254.447 160.108C253.943 160.108 253.495 160.008 253.103 159.808C252.711 159.6 252.391 159.344 252.143 159.04V163.144H250.775V153.388H252.143V154.36ZM256.163 156.664C256.163 156.208 256.067 155.816 255.875 155.488C255.691 155.152 255.443 154.9 255.131 154.732C254.827 154.556 254.499 154.468 254.147 154.468C253.803 154.468 253.475 154.556 253.163 154.732C252.859 154.908 252.611 155.164 252.419 155.5C252.235 155.836 252.143 156.232 252.143 156.688C252.143 157.144 252.235 157.544 252.419 157.888C252.611 158.224 252.859 158.48 253.163 158.656C253.475 158.832 253.803 158.92 254.147 158.92C254.499 158.92 254.827 158.832 255.131 158.656C255.443 158.472 255.691 158.208 255.875 157.864C256.067 157.52 256.163 157.12 256.163 156.664ZM260.276 151.12V160H258.908V151.12H260.276ZM268.024 153.388L263.968 163.108H262.552L263.896 159.892L261.292 153.388H262.816L264.676 158.428L266.608 153.388H268.024ZM277.081 151.66V152.776H273.541V155.236H276.301V156.352H273.541V160H272.173V151.66H277.081ZM277.893 156.664C277.893 156 278.029 155.412 278.301 154.9C278.581 154.388 278.957 153.992 279.429 153.712C279.909 153.424 280.437 153.28 281.013 153.28C281.533 153.28 281.985 153.384 282.369 153.592C282.761 153.792 283.073 154.044 283.305 154.348V153.388H284.685V160H283.305V159.016C283.073 159.328 282.757 159.588 282.357 159.796C281.957 160.004 281.501 160.108 280.989 160.108C280.421 160.108 279.901 159.964 279.429 159.676C278.957 159.38 278.581 158.972 278.301 158.452C278.029 157.924 277.893 157.328 277.893 156.664ZM283.305 156.688C283.305 156.232 283.209 155.836 283.017 155.5C282.833 155.164 282.589 154.908 282.285 154.732C281.981 154.556 281.653 154.468 281.301 154.468C280.949 154.468 280.621 154.556 280.317 154.732C280.013 154.9 279.765 155.152 279.573 155.488C279.389 155.816 279.297 156.208 279.297 156.664C279.297 157.12 279.389 157.52 279.573 157.864C279.765 158.208 280.013 158.472 280.317 158.656C280.629 158.832 280.957 158.92 281.301 158.92C281.653 158.92 281.981 158.832 282.285 158.656C282.589 158.48 282.833 158.224 283.017 157.888C283.209 157.544 283.305 157.144 283.305 156.688ZM287.85 151.12V160H286.482V151.12H287.85ZM291.014 151.12V160H289.646V151.12H291.014ZM293.506 152.512C293.258 152.512 293.05 152.428 292.882 152.26C292.714 152.092 292.63 151.884 292.63 151.636C292.63 151.388 292.714 151.18 292.882 151.012C293.05 150.844 293.258 150.76 293.506 150.76C293.746 150.76 293.95 150.844 294.118 151.012C294.286 151.18 294.37 151.388 294.37 151.636C294.37 151.884 294.286 152.092 294.118 152.26C293.95 152.428 293.746 152.512 293.506 152.512ZM294.178 153.388V160H292.81V153.388H294.178ZM299.31 153.28C299.83 153.28 300.294 153.388 300.702 153.604C301.118 153.82 301.442 154.14 301.674 154.564C301.906 154.988 302.022 155.5 302.022 156.1V160H300.666V156.304C300.666 155.712 300.518 155.26 300.222 154.948C299.926 154.628 299.522 154.468 299.01 154.468C298.498 154.468 298.09 154.628 297.786 154.948C297.49 155.26 297.342 155.712 297.342 156.304V160H295.974V153.388H297.342V154.144C297.566 153.872 297.85 153.66 298.194 153.508C298.546 153.356 298.918 153.28 299.31 153.28ZM306.431 153.28C306.943 153.28 307.395 153.384 307.787 153.592C308.187 153.792 308.499 154.044 308.723 154.348V153.388H310.103V160.108C310.103 160.716 309.975 161.256 309.719 161.728C309.463 162.208 309.091 162.584 308.603 162.856C308.123 163.128 307.547 163.264 306.875 163.264C305.979 163.264 305.235 163.052 304.643 162.628C304.051 162.212 303.715 161.644 303.635 160.924H304.991C305.095 161.268 305.315 161.544 305.651 161.752C305.995 161.968 306.403 162.076 306.875 162.076C307.427 162.076 307.871 161.908 308.207 161.572C308.551 161.236 308.723 160.748 308.723 160.108V159.004C308.491 159.316 308.175 159.58 307.775 159.796C307.383 160.004 306.935 160.108 306.431 160.108C305.855 160.108 305.327 159.964 304.847 159.676C304.375 159.38 303.999 158.972 303.719 158.452C303.447 157.924 303.311 157.328 303.311 156.664C303.311 156 303.447 155.412 303.719 154.9C303.999 154.388 304.375 153.992 304.847 153.712C305.327 153.424 305.855 153.28 306.431 153.28ZM308.723 156.688C308.723 156.232 308.627 155.836 308.435 155.5C308.251 155.164 308.007 154.908 307.703 154.732C307.399 154.556 307.071 154.468 306.719 154.468C306.367 154.468 306.039 154.556 305.735 154.732C305.431 154.9 305.183 155.152 304.991 155.488C304.807 155.816 304.715 156.208 304.715 156.664C304.715 157.12 304.807 157.52 304.991 157.864C305.183 158.208 305.431 158.472 305.735 158.656C306.047 158.832 306.375 158.92 306.719 158.92C307.071 158.92 307.399 158.832 307.703 158.656C308.007 158.48 308.251 158.224 308.435 157.888C308.627 157.544 308.723 157.144 308.723 156.688Z" fill="#4B5563"/>
<ellipse cx="62.0015" cy="156" rx="13.44" ry="13.44" fill="url(#paint0_linear_910_39432)"/>
<defs>
<filter id="filter0_d_910_39432" x="0" y="0" width="359" height="208" filterUnits="userSpaceOnUse" color-interpolation-filters="sRGB">
<feFlood flood-opacity="0" result="BackgroundImageFix"/>
<feColorMatrix in="SourceAlpha" type="matrix" values="0 0 0 0 0 0 0 0 0 0 0 0 0 0 0 0 0 0 127 0" result="hardAlpha"/>
<feOffset/>
<feGaussianBlur stdDeviation="6"/>
<feComposite in2="hardAlpha" operator="out"/>
<feColorMatrix type="matrix" values="0 0 0 0 0.47451 0 0 0 0 0.470588 0 0 0 0 0.517647 0 0 0 0.15 0"/>
<feBlend mode="normal" in2="BackgroundImageFix" result="effect1_dropShadow_910_39432"/>
<feBlend mode="normal" in="SourceGraphic" in2="effect1_dropShadow_910_39432" result="shape"/>
</filter>
<linearGradient id="paint0_linear_910_39432" x1="62.1215" y1="140.16" x2="72.0815" y2="167.28" gradientUnits="userSpaceOnUse">
<stop stop-color="#FFF500"/>
<stop offset="1" stop-color="#FCA600"/>
</linearGradient>
</defs>
</svg>
